<svg width="128" height="128" viewBox="0 0 128 128" fill="none" xmlns="http://www.w3.org/2000/svg">
<g clip-path="url(#clip0_1_549)">
<path fill-rule="evenodd" clip-rule="evenodd" d="M128 64C128 99.3462 99.3462 128 64 128C28.6538 128 0 99.3462 0 64C0 28.6538 28.6538 0 64 0C99.3462 0 128 28.6538 128 64ZM89.2316 102.126C82.0005 106.921 73.3264 109.714 64 109.714C38.7527 109.714 18.2857 89.2473 18.2857 64C18.2857 55.088 20.8359 46.7716 25.2464 39.7408L89.2316 102.126ZM102.155 89.1881L37.8549 26.4954C45.2638 21.3209 54.2775 18.2857 64 18.2857C89.2473 18.2857 109.714 38.7527 109.714 64C109.714 73.3077 106.933 81.9658 102.155 89.1881Z" fill="#CBCBCC"/>
</g>
<defs>
<clipPath id="clip0_1_549">
<rect width="128" height="128" fill="white"/>
</clipPath>
</defs>
</svg>
