<svg width="24" height="24" viewBox="0 0 24 24" fill="none" xmlns="http://www.w3.org/2000/svg">
<path fill-rule="evenodd" clip-rule="evenodd" d="M20.5551 17.6418C19.3791 10.8807 18.5171 6.63716 17.9826 4.88716C17.9892 4.98092 17.9892 5.07469 17.9759 5.16845C17.9509 5.41824 17.8757 5.65558 17.7555 5.8746C17.636 6.09362 17.4723 6.28701 17.2836 6.44304C17.2143 6.49944 17.1391 6.54925 17.0572 6.5932C16.9186 6.67451 16.7741 6.73678 16.6229 6.78073C16.5728 6.79318 16.5286 6.81223 16.4784 6.81809C15.4027 15.1915 14.8305 20.0474 14.7487 21.3726V21.4539C14.742 21.5161 14.742 21.5725 14.742 21.6165C14.742 21.6788 14.7229 21.7352 14.6853 21.7791L19.8871 19.0043C19.9173 18.9882 19.9461 18.9706 19.9748 18.9516C20.0036 18.9325 20.0308 18.9135 20.0581 18.893C20.2196 18.7699 20.3516 18.6117 20.4408 18.4293C20.4445 18.4212 20.4482 18.4139 20.4519 18.4059C20.4703 18.367 20.4865 18.3275 20.4983 18.2887C20.5027 18.2733 20.5072 18.2572 20.5101 18.2418C20.5728 18.0484 20.5853 17.8418 20.5543 17.6418H20.5551Z" fill="#D95359"/>
<path fill-rule="evenodd" clip-rule="evenodd" d="M17.9818 4.8813C17.9885 4.98166 17.9885 5.07469 17.9752 5.16845C17.9501 5.41824 17.8749 5.65558 17.7547 5.8746C17.6353 6.09362 17.4716 6.28701 17.2829 6.44304C17.2135 6.49944 17.1383 6.54925 17.0565 6.5932C16.9179 6.67451 16.7734 6.73678 16.6222 6.78073C16.5721 6.79318 16.5278 6.81223 16.4777 6.81223C15.4019 15.1923 14.8298 20.0482 14.7479 21.3726V21.4539C14.7413 21.5161 14.7413 21.5725 14.7413 21.6165C14.7413 21.6788 14.7221 21.7352 14.6845 21.7791H14.6779C14.6152 21.8604 14.4891 21.9168 14.3129 21.9542C14.3063 21.9542 14.2938 21.9608 14.2812 21.9608C14.262 21.9674 14.2436 21.9674 14.2244 21.9732C12.2307 22.2604 5.01604 20.1551 3.83928 19.561C2.98693 19.123 3.45808 14.4986 5.25714 5.66876C4.93641 5.55009 4.65328 5.35011 4.43945 5.08128C4.11872 4.69378 3.96757 4.1942 4.01771 3.69388C4.04941 3.44409 4.11798 3.20676 4.23817 2.98773C4.35761 2.76871 4.5213 2.57532 4.71595 2.41929C4.9106 2.26327 5.13106 2.15046 5.36995 2.07574C5.60885 2.00688 5.86027 1.98198 6.11244 2.01348L16.2771 3.08809C16.78 3.1379 17.2393 3.38769 17.5601 3.78179C17.8181 4.09457 17.9627 4.48134 17.9818 4.8813Z" fill="#CD2029"/>
<path fill-rule="evenodd" clip-rule="evenodd" d="M13.3146 9.86831L12.9998 10.6997H13.0064C12.8117 11.2748 12.547 12.0996 12.1695 13.5558L11.924 14.5184C11.8989 14.637 11.8672 14.7623 11.8363 14.8868C11.7352 15.3117 11.5472 15.968 11.4838 16.212C11.3961 16.587 11.2892 16.8053 10.8733 16.9247C10.8733 16.9247 10.6595 16.9936 10.4014 16.9562C9.83517 16.8815 9.8101 16.4625 9.71572 16.1248C9.57711 15.6128 9.42669 14.3499 9.40752 13.6188V13.3192C9.40752 13.3192 9.40089 13.2753 9.39499 13.257C9.38835 13.2321 9.37582 13.2255 9.34485 13.2321C9.31978 13.2386 9.30061 13.2635 9.25711 13.3698C9.1502 13.6884 9.05582 14.0071 8.96144 14.3323C8.79186 14.9256 8.59057 15.6193 8.50209 16.0068L8.19979 17.1005C8.12459 17.4316 7.76551 17.6382 7.53325 17.6938C7.27519 17.7561 7.13068 17.7686 6.93602 17.7188C6.67206 17.6565 6.52091 17.3503 6.44571 17.0749C6.40147 16.9247 6.31962 16.6375 6.29455 16.2874C6.23188 15.5937 6.20681 15.1 6.22525 14.3938C6.25032 13.5815 6.33879 12.3882 6.39483 11.7253L6.4199 11.0689C6.4199 10.825 6.40737 10.669 6.37566 10.5627C6.34396 10.469 6.31299 10.4192 6.24368 10.3254C6.21861 10.2939 6.19354 10.2756 6.18691 10.2507C6.1493 10.1071 6.48847 9.85073 6.94192 9.75697C7.21842 9.6947 7.46395 9.68225 7.66523 9.84414C7.79132 9.98185 7.80975 10.113 7.80385 10.3818C7.80385 10.5005 7.79132 10.6191 7.77878 10.7378C7.74118 11.1627 7.62173 11.9003 7.59003 12.3252C7.52736 12.9185 7.46395 13.5749 7.44551 14.1814C7.44551 14.4751 7.44551 15.0436 7.45805 15.1315C7.47058 15.1754 7.49565 15.2062 7.53325 15.1937C7.57086 15.1813 7.59593 15.1564 7.6527 15.0062L7.70284 14.8311L7.75298 14.6502C7.75298 14.6502 8.01694 13.7939 8.2374 13.0877C8.48292 12.4131 8.72182 11.7128 8.87887 11.3194C9.11776 10.7385 9.2372 10.313 9.64642 10.2133C10.0556 10.1196 10.4324 10.288 10.5083 10.5693C10.5459 10.7129 10.5459 10.8008 10.5334 11.3692C10.5017 12.3625 10.571 13.1442 10.5961 13.9001C10.6153 14.2312 10.6462 14.4876 10.6779 14.6129C10.6971 14.6693 10.7281 14.6817 10.7531 14.6751C10.8033 14.6685 10.8224 14.6253 10.8541 14.4876L10.8984 14.2876L11.1874 12.9625C11.3695 12.1377 11.59 11.3253 11.8414 10.5188C12.1688 9.45004 12.4077 8.96877 12.8228 8.8816C13.2062 8.80689 13.4267 9.10063 13.4458 9.39437C13.4525 9.49472 13.4016 9.70716 13.3198 9.86904H13.3131L13.3146 9.86831Z" fill="white"/>
</svg>
