<svg width="65" height="64" viewBox="0 0 65 64" fill="none" xmlns="http://www.w3.org/2000/svg">
<path fill-rule="evenodd" clip-rule="evenodd" d="M31.9789 61.051C22.6719 61.051 13.9952 56.5205 8.69658 48.9075C8.49961 48.9174 8.31248 48.9272 8.12535 48.9272C7.71171 48.9272 7.30791 48.8977 6.91396 48.8386C6.57911 48.7893 6.26395 48.7204 5.96849 48.6514L5.77151 48.6022C5.4859 48.5333 5.28893 48.4742 5.1018 48.4151L4.85559 48.3363C4.64876 48.2673 4.46164 48.1885 4.29421 48.1196L4.11693 48.0507C3.89041 47.9522 3.67374 47.8438 3.48662 47.7355L3.37828 47.6666C3.2207 47.5779 3.07297 47.4794 2.93509 47.3908L2.79721 47.2923C2.65932 47.1938 2.56084 47.115 2.46235 47.0264L2.34417 46.9279C2.20628 46.8097 2.09795 46.6915 1.99946 46.5832C1.86158 46.4256 1.76309 46.2976 1.67445 46.1794L1.45778 45.8643L1.47748 45.8446C1.20172 45.3226 1.18202 44.8794 1.25096 44.5445C1.22141 44.515 1.20172 44.4854 1.17217 44.446C-0.0983114 42.7718 -0.246042 40.4376 0.34488 39.2361C0.837315 38.2512 1.69415 38.1724 1.95022 38.1724C2.07825 38.1724 2.19644 38.1823 2.31462 38.2118C2.31462 37.8474 2.37371 37.5323 2.48205 37.286C2.73811 36.7247 3.26994 36.3603 3.87072 36.3406C3.72298 35.1883 3.65404 34.0261 3.65404 32.8738C3.65404 22.7494 9.14962 13.3635 18.0135 8.3604C18.9491 7.17856 19.9832 6.12475 21.1847 5.14972C21.7855 4.65729 22.5045 4.20425 23.3022 3.80045C25.6363 2.62846 28.7288 1.9292 31.5653 1.9292C31.7327 1.9292 31.8903 1.9292 32.0479 1.9292C34.7169 2.00799 36.7457 2.72694 37.7995 3.95803C38.223 3.87924 38.6465 3.83985 39.0503 3.83985C41.8375 3.83985 44.083 5.3073 45.9148 8.3407C54.7885 13.3438 60.2939 22.7297 60.2939 32.864C60.2939 34.0163 60.225 35.1883 60.0773 36.3406C60.1068 36.3406 60.1364 36.3406 60.1561 36.3406C60.7765 36.3406 61.328 36.705 61.6038 37.286C61.7121 37.5323 61.7712 37.8474 61.7811 38.202C61.8993 38.1724 62.0273 38.1626 62.1652 38.1626C62.6084 38.1626 63.672 38.3595 63.9478 40.1422C64.1349 41.3339 63.9478 43.0672 62.894 44.4756C62.9925 44.8498 62.9925 45.4014 62.5591 46.0612C62.4508 46.2188 62.3228 46.3862 62.1652 46.5537L62.0864 46.6423C61.9288 46.7999 61.7712 46.9575 61.5743 47.1052L61.4758 47.1741C61.2985 47.312 61.1015 47.4499 60.8849 47.5878L60.8061 47.637C60.5697 47.7749 60.3136 47.9128 60.0477 48.0408L59.8704 48.1196C59.6045 48.2378 59.3091 48.356 58.9841 48.4545L58.8659 48.484C58.5704 48.5726 58.2552 48.6416 57.9204 48.7007L57.753 48.7302C57.3689 48.7893 56.9946 48.8287 56.6105 48.8484H56.0787C55.8226 48.8484 55.5764 48.8484 55.3105 48.8189C50.0119 56.4615 41.3253 61.0116 31.9888 61.0116L31.9789 61.051Z" fill="white"/>
<path fill-rule="evenodd" clip-rule="evenodd" d="M31.9789 60.5584C22.7014 60.5584 14.133 56.0182 8.93291 48.3953C8.65715 48.4248 8.38139 48.4347 8.11547 48.4347C7.73137 48.4347 7.34727 48.4051 6.98287 48.346C6.65786 48.2968 6.3624 48.2377 6.07679 48.1688L5.88967 48.1195C5.62375 48.0506 5.43663 48.0013 5.2495 47.9422L5.00328 47.8635C4.81616 47.7945 4.63888 47.7354 4.4813 47.6566L4.30402 47.5778C4.0972 47.4892 3.90023 47.3907 3.72295 47.2824L3.62446 47.2233C3.47673 47.1347 3.33885 47.046 3.21082 46.9574L3.08279 46.8589C2.9646 46.7703 2.86611 46.6915 2.77748 46.6225L2.65929 46.524C2.54111 46.4157 2.44262 46.3172 2.35398 46.2187C2.2358 46.0808 2.14716 45.9725 2.06837 45.8642L2.11761 45.8051L2.05852 45.8445C1.60548 45.1945 1.64488 44.7119 1.78276 44.4066C1.70397 44.3179 1.62518 44.2194 1.55624 44.121C0.325149 42.5058 0.3153 40.3587 0.778189 39.4231C1.13274 38.7042 1.71382 38.6352 1.94034 38.6352C2.29489 38.6352 2.63959 38.7928 2.89566 39.0883C2.89566 39.0883 2.89566 39.0981 2.90551 39.108C2.75778 38.4284 2.75778 37.8375 2.92521 37.4731C3.11233 37.0693 3.48658 36.8132 3.91993 36.8132C4.05781 36.8132 4.25478 36.8428 4.45176 36.9511C4.24493 35.592 4.14645 34.223 4.14645 32.8442C4.14645 22.8478 9.58293 13.6195 18.3384 8.71487C19.2642 7.53303 20.2983 6.47922 21.49 5.5042C22.0711 5.03146 22.7506 4.59812 23.5188 4.21402C25.784 3.08142 28.7977 2.40186 31.5652 2.40186C31.7228 2.40186 31.8804 2.40186 32.038 2.40186C34.7562 2.48065 36.7161 3.2193 37.6025 4.47993C38.1048 4.3716 38.5874 4.3125 39.0601 4.3125C41.7094 4.3125 43.817 5.74057 45.5701 8.68533C54.365 13.59 59.8113 22.8182 59.8113 32.8442C59.8113 34.2526 59.703 35.6511 59.4863 37.0496C59.7424 36.8625 59.9984 36.8132 60.1659 36.8132C60.5992 36.8132 60.9734 37.0693 61.1606 37.4731C61.328 37.8473 61.3379 38.4383 61.1803 39.1178C61.4265 38.8617 61.722 38.6254 62.1651 38.6254C62.5591 38.6254 63.2485 38.8322 63.4652 40.1913C63.6326 41.2845 63.4849 43.008 62.3326 44.3573C62.4803 44.6429 62.5689 45.1255 62.1454 45.7657C62.0568 45.9036 61.9386 46.0513 61.8007 46.199L61.722 46.2877C61.5841 46.4255 61.4363 46.5634 61.2591 46.7013L61.1704 46.7703C60.9931 46.9081 60.8159 47.0362 60.6189 47.1544L60.5303 47.2134C60.3234 47.3415 60.0772 47.4597 59.831 47.5778L59.6537 47.6566C59.3977 47.765 59.1219 47.8733 58.8264 47.9718L58.728 48.0013C58.4423 48.09 58.137 48.1589 57.8219 48.2082L57.6544 48.2377C57.3097 48.2968 56.9552 48.3263 56.5809 48.346H56.0589C55.7536 48.346 55.4483 48.346 55.1233 48.3067C55.1036 48.3067 55.0839 48.3067 55.0544 48.3067C49.8641 55.9689 41.2859 60.519 31.9789 60.519V60.5584Z" fill="white"/>
<path fill-rule="evenodd" clip-rule="evenodd" d="M61.456 44.8299C61.328 44.5837 60.2447 45.4996 59.506 45.086C63.3568 43.8352 62.6182 39.6397 62.1651 39.6397C61.7909 39.6397 61.131 41.3533 59.0431 41.245C60.4022 39.6791 60.55 37.473 60.0575 37.8768C59.8999 38.0048 59.1908 39.1078 57.8416 40.0139C58.4719 37.7389 58.8166 35.3456 58.8166 32.8736C58.8166 22.7688 53.1733 13.974 44.8413 9.44355C43.5117 7.12911 41.7389 5.2874 39.0601 5.32679C38.4495 5.32679 37.7798 5.44498 37.0608 5.66165C36.657 4.22374 34.5789 3.49494 31.9887 3.41615C29.4084 3.33736 26.3257 3.92828 23.9423 5.11997C23.2628 5.46468 22.6325 5.84878 22.1006 6.29197C20.9188 7.25714 19.8847 8.31095 18.9786 9.50264C10.7155 14.0527 5.11162 22.8082 5.11162 32.8736C5.11162 35.3259 5.44648 37.6995 6.07679 39.9548C4.98359 39.1866 4.42221 38.3002 3.99872 37.8669C3.52598 37.473 3.66386 39.6791 5.02298 41.2549C3.52598 41.3041 2.73808 40.5162 2.14716 39.7775C1.47745 39.0389 0.935771 41.7374 2.32444 43.5595C3.33885 44.8989 4.57979 45.1155 4.57979 45.1155C3.7525 45.3618 2.99415 44.9383 2.77748 44.8201C2.6199 44.7314 2.61005 44.958 2.85627 45.3224C2.90551 45.4012 2.97445 45.4799 3.04339 45.5587C3.04339 45.5587 3.04339 45.5587 3.05324 45.5686C3.12218 45.6474 3.20097 45.7262 3.28961 45.805C3.31916 45.8345 3.3487 45.8542 3.37825 45.8837C3.45704 45.9527 3.53583 46.0118 3.62447 46.0807C3.66386 46.1103 3.70326 46.1398 3.74265 46.1694C3.85099 46.2383 3.95932 46.3171 4.08736 46.386C4.1169 46.4057 4.14645 46.4254 4.17599 46.4353C4.33357 46.5239 4.501 46.6125 4.68813 46.6913C4.73737 46.711 4.78661 46.7307 4.83586 46.7504C4.98359 46.8095 5.13132 46.8686 5.29875 46.9277C5.36769 46.9573 5.44648 46.977 5.52527 46.9966C5.68285 47.0459 5.86012 47.0951 6.0374 47.1444C6.11619 47.1641 6.19498 47.1838 6.27377 47.2035C6.53968 47.2626 6.8056 47.3217 7.11091 47.3709C7.82001 47.4792 8.58821 47.4694 9.39581 47.3217C14.1724 54.6885 22.4946 59.5636 31.9592 59.5636C41.4238 59.5636 49.7952 54.6491 54.5718 47.2527C54.7786 47.2921 54.9756 47.3414 55.2021 47.361C55.5862 47.4004 55.9506 47.4004 56.3052 47.4004C56.3741 47.4004 56.4431 47.4004 56.512 47.4004C56.8469 47.3807 57.162 47.3512 57.4673 47.302C57.5264 47.302 57.5757 47.2823 57.6348 47.2724C57.9105 47.2232 58.1863 47.1641 58.4325 47.0853C58.462 47.0853 58.4916 47.0656 58.5211 47.0557C58.787 46.977 59.0333 46.8785 59.2598 46.78C59.309 46.7603 59.3583 46.7406 59.4075 46.711C59.6242 46.6125 59.831 46.5042 60.0181 46.386C60.0477 46.3663 60.0674 46.3565 60.0871 46.3368C60.2545 46.2285 60.4121 46.1201 60.55 46.0118C60.5795 45.9921 60.6091 45.9724 60.6288 45.9527C60.7666 45.8345 60.8947 45.7262 60.9932 45.6178C61.0129 45.5981 61.0326 45.5686 61.0621 45.5489C61.1606 45.4406 61.2492 45.3421 61.3083 45.2436C61.4363 45.0466 61.4757 44.8989 61.4363 44.8102L61.456 44.8299Z" fill="white"/>
<path fill-rule="evenodd" clip-rule="evenodd" d="M31.9789 6.18408C17.1566 6.18408 5.13135 18.1404 5.13135 32.8839C5.13135 47.6274 17.1468 59.5837 31.9789 59.5837C46.8111 59.5837 58.8265 47.6274 58.8265 32.8839C58.8265 18.1404 46.8012 6.18408 31.9789 6.18408Z" fill="#3B302F"/>
<path fill-rule="evenodd" clip-rule="evenodd" d="M31.9789 57.4661C18.3483 57.4661 7.24878 46.4355 7.24878 32.8739C7.24878 19.3122 18.3483 8.2915 31.9789 8.2915C45.6095 8.2915 56.709 19.3221 56.709 32.8837C56.709 46.4454 45.6193 57.4759 31.9789 57.4759V57.4661Z" fill="#FFFFFE"/>
<path fill-rule="evenodd" clip-rule="evenodd" d="M44.7132 32.923C44.2208 33.3761 43.8958 33.2776 43.7382 33.1791C43.5806 34.036 43.364 35.6019 42.9897 36.9118C42.3102 39.3149 41.5518 40.3293 40.7344 41.2846C40.1041 42.0232 39.5722 42.5058 38.5283 43.471C37.6222 44.318 36.9426 44.9089 35.6426 45.6574C35.032 46.0021 34.0176 46.7309 32.1562 46.7506C30.1766 46.7703 28.7288 45.7756 27.9409 45.2832C27.0545 44.7316 26.7 44.446 25.9121 43.8157C25.3212 43.343 24.3954 42.5846 23.9522 42.1217C23.184 41.324 22.3862 40.4278 21.7461 39.2952C21.1158 38.2118 20.7711 37.3845 20.3574 35.5822C20.2688 35.1882 20.0226 33.9375 19.8551 33.189C19.6385 33.3761 19.2051 33.2776 18.8801 32.9329C18.3581 32.3912 17.777 31.0813 17.8263 29.929C17.8657 28.9343 18.0922 27.8411 18.6733 27.7131C19.1066 27.6146 19.3036 27.8313 19.4907 28.2548C19.5892 28.4813 19.6877 29.1215 19.6877 29.1215C19.6877 29.1215 19.8453 27.0237 21.1945 26.0191C22.7999 24.8373 29.6053 24.138 34.1456 18.5439C33.6925 21.1539 32.4418 23.4781 29.9796 25.8123C34.3524 26.3638 39.0798 20.0213 39.2965 18.7015C39.9563 21.7349 43.9155 25.507 44.0731 28.2548C44.2799 27.8313 44.4572 27.6146 44.8905 27.7131C45.4814 27.851 45.7178 28.9442 45.7375 29.929C45.7572 31.0616 45.2352 32.4208 44.6837 32.9329L44.7132 32.923Z" fill="#EFD1CF"/>
<path fill-rule="evenodd" clip-rule="evenodd" d="M39.3949 44.2391C36.657 46.5536 34.2933 48.0112 32.0577 48.0407C29.8614 48.0703 27.5667 46.6225 24.5431 44.1406C24.5136 45.3422 24.5136 46.524 24.484 48.149C24.612 48.3657 24.7795 48.6119 25.0158 48.9369C25.4098 49.4885 25.9909 47.6271 26.6803 48.021C27.4189 48.4347 27.3795 49.7445 28.1773 50.3552C28.65 50.7196 29.5265 48.6415 29.9894 49.7741C30.4917 51.0052 31.3781 51.2908 32.3531 51.7832C32.7865 51.409 33.4168 51.3499 33.9486 50.7294C34.441 50.1483 34.7464 49.5476 35.1108 49.4392C35.682 49.262 36.007 50.6506 36.6275 50.4339C37.6222 50.0695 37.4548 48.2377 38.3805 47.9915C38.8533 47.8634 38.9222 48.671 39.4836 48.7498C39.6806 48.7794 39.8775 48.5528 40.0548 48.2081L40.0351 46.9967C39.848 47.371 39.6116 46.7998 39.4048 44.2391H39.3949Z" fill="#EFD1CF"/>
<path fill-rule="evenodd" clip-rule="evenodd" d="M31.7819 52.9356C32.038 52.8371 32.5304 52.7878 32.8357 52.9947C33.1312 53.1916 33.2888 53.3394 33.4267 53.5954C33.5744 53.8613 33.7024 54.2553 33.6138 54.6788C33.4857 55.2697 32.6979 55.7326 31.8607 55.5159C30.4523 55.1614 30.9546 53.2704 31.7819 52.9356Z" fill="#2390C1"/>
<path fill-rule="evenodd" clip-rule="evenodd" d="M24.9962 50.2862C24.3856 50.1877 24.1689 49.8627 23.9719 49.4688C23.8735 49.8332 23.7454 50.2468 23.3909 51.0347C22.9083 52.0984 21.4901 53.2211 22.9378 53.6446C23.4007 53.7628 23.6863 53.5757 23.8735 53.4082C24.6712 52.6893 25.4099 51.1332 25.794 50.0597C25.5674 50.2173 25.2917 50.3354 25.0061 50.2862H24.9962Z" fill="#2390C1"/>
<path fill-rule="evenodd" clip-rule="evenodd" d="M27.9016 51.7143C27.6357 51.6651 27.3304 51.3992 27.0546 51.0249C26.5425 53.4378 25.6463 54.1469 25.9614 54.8265C26.0698 55.053 26.316 55.25 26.316 55.25C26.4834 55.3583 26.641 55.3977 26.7887 55.4076C27.0251 55.4076 27.2713 55.3485 27.4584 55.1318C28.2562 54.1568 28.8274 52.4924 28.9948 51.4189C28.7388 51.606 28.3645 51.7833 27.9115 51.7045L27.9016 51.7143Z" fill="#2390C1"/>
<path fill-rule="evenodd" clip-rule="evenodd" d="M36.7752 51.8226C36.263 51.8226 35.9183 51.5665 35.6721 51.34C36.1055 53.2211 36.8047 54.5507 37.2184 55.0727C37.4055 55.2893 37.6517 55.4174 37.9275 55.4666C38.1146 55.4666 38.2426 55.4469 38.4101 55.3681C38.4101 55.3681 38.7646 55.2106 38.8434 54.9742C39.0798 54.334 38.1737 53.3196 37.7206 51.2612C37.4646 51.5862 37.1494 51.8226 36.7752 51.8325V51.8226Z" fill="#2390C1"/>
<path fill-rule="evenodd" clip-rule="evenodd" d="M40.4389 49.4492C40.2026 49.7742 39.8973 50.1583 39.6609 50.2174C39.2965 50.3159 38.9321 50.0007 38.7351 49.7644C39.198 51.9114 40.2223 53.0341 40.498 53.3198C40.8033 53.6349 41.0397 53.6645 41.3056 53.6842C41.6306 53.7137 41.8571 53.6054 42.064 53.3887C42.517 52.7288 41.3844 51.6947 40.8329 50.4341C40.6655 50.0598 40.5374 49.7447 40.4488 49.4492H40.4389Z" fill="#2390C1"/>
<path fill-rule="evenodd" clip-rule="evenodd" d="M53.6953 39.2264C54.434 38.4188 55.6651 37.3749 54.8673 36.587C54.4537 36.1733 53.7544 35.7991 52.9961 35.4347C52.2377 35.0703 51.4597 34.8043 51.0165 34.7748C49.9528 34.7059 48.9187 38.7537 48.9384 39.2855C48.9679 39.8567 49.1649 39.9158 49.1157 40.0045C49.0467 40.1029 47.9634 39.8863 47.2543 41.1469C46.7717 41.9939 46.5649 43.0083 47.0573 43.3235C47.5596 43.6485 46.5058 43.9439 45.6982 44.6826C44.7232 45.5788 43.9451 46.8985 43.886 47.066C43.7383 47.519 43.6989 47.8637 44.9004 48.7403C45.8558 49.4297 47.6088 49.8532 47.9141 49.8926C48.8695 50.0304 49.2437 49.5577 49.4407 48.6418C49.6672 47.5781 49.7952 46.9478 49.9036 46.4652C50.3271 44.5644 49.7164 44.8106 49.7657 44.5349C49.8051 44.328 50.5043 44.7417 51.2725 43.5303C51.4203 43.3136 52.0703 42.1515 51.696 41.8265C51.3907 41.5606 51.5778 41.4424 51.7551 41.2651C52.2279 40.7628 52.7006 40.3393 53.7052 39.2363L53.6953 39.2264Z" fill="#2390C1"/>
<path fill-rule="evenodd" clip-rule="evenodd" d="M19.4613 46.4255C19.1363 46.0611 17.0484 44.0224 16.9203 43.8944C16.5658 43.5398 16.7628 43.4512 16.9007 43.205C17.1272 42.8209 16.3491 40.7822 15.4036 40.6837C14.6551 40.6049 15.3052 40.5064 15.315 40.0731C15.315 39.7875 14.9014 37.6601 14.5567 36.3897C14.1529 34.8926 13.2271 34.8237 12.8627 34.8533C12.5771 34.8729 11.1293 35.2571 10.1543 36.0646C9.13987 36.8328 9.12018 37.3942 9.24821 37.798C9.3467 38.1132 9.83913 38.9996 10.2232 39.4821C11.3066 40.8019 12.9218 41.1367 12.2521 41.5996C12.0551 41.8163 12.1043 42.1708 12.3407 42.9981C12.5278 43.5004 12.7051 43.9535 12.8922 44.2391C13.493 45.3421 14.1627 44.9186 14.2513 45.0861C14.3006 45.1944 14.1135 45.3126 14.1233 45.8149C14.1233 46.0611 14.4877 46.7702 14.7536 47.6467C15.1279 48.8778 15.6597 50.1089 16.4181 50.1286C17.984 50.1778 19.9439 48.8877 20.1409 48.1392C20.3477 47.3217 19.806 46.8096 19.4712 46.4255H19.4613Z" fill="#2390C1"/>
<path fill-rule="evenodd" clip-rule="evenodd" d="M49.0566 38.5367C48.6233 37.9064 47.9437 37.3155 46.7619 36.9511C55.0249 27.5751 47.727 16.0127 46.88 13.8953C45.127 9.49289 42.7928 3.86928 37.0707 5.66174C36.1548 2.37228 26.4341 2.77607 22.1106 6.29206C17.8362 9.7785 15.4233 14.4862 14.3202 22.247C13.4339 24.3053 11.3459 30.5987 17.1665 37.0988C16.2309 37.2958 15.5612 38.0443 15.1081 38.8519C15.2263 39.4625 15.3051 39.9451 15.3051 40.0731C15.3051 40.5065 14.6551 40.6049 15.3937 40.6837C16.3491 40.7822 17.1173 42.8209 16.8907 43.205C16.7529 43.4512 16.546 43.5398 16.9104 43.8944C16.9597 43.9436 17.3733 44.3474 17.8461 44.8202C19.934 44.6429 21.756 44.1111 23.0166 42.5747C22.6227 42.0724 21.5196 40.3489 21.303 39.9451C21.0961 39.561 20.909 39.1178 20.6234 38.3397C20.3969 37.6897 20.1507 36.7245 20.0128 35.523C19.8651 34.2821 19.8946 33.9866 19.8552 33.1987C19.6385 33.3858 19.2052 33.2874 18.8802 32.9426C18.3582 32.401 17.7771 31.0911 17.8264 29.9388C17.8658 28.9441 18.0923 27.8509 18.6734 27.7228C19.1067 27.6243 19.3037 27.841 19.4908 28.2645C19.5893 28.491 19.6878 29.1312 19.6878 29.1312C19.6878 29.1312 19.8454 27.0334 21.1946 26.0289C22.8 24.847 29.6054 24.1478 34.1457 18.5537C33.6926 21.1636 32.4418 23.4879 29.9797 25.822C34.3525 26.3736 39.0799 20.031 39.2965 18.7113C39.9564 21.7447 43.9156 25.5167 44.083 28.2645C44.2898 27.841 44.4671 27.6243 44.9005 27.7228C45.4914 27.8607 45.7277 28.9539 45.7474 29.9388C45.7671 31.0714 45.2452 32.4305 44.6936 32.9426C44.2012 33.3957 43.8762 33.2972 43.7186 33.1987C43.7383 33.504 43.8072 33.8783 43.7186 35.0601C43.63 35.917 43.5413 36.7048 43.3542 37.4927C43.0784 38.6352 42.8322 39.4034 42.3792 40.2405C41.9655 41.0087 41.808 41.1565 41.2269 42.0035C42.4186 44.308 43.9648 44.7512 45.6096 44.7709C45.6293 44.7512 45.6588 44.7217 45.6785 44.702C46.4861 43.9633 47.5399 43.658 47.0376 43.3429C46.5452 43.0277 46.752 42.0133 47.2346 41.1663C47.9437 39.9057 49.0369 40.1322 49.096 40.0239C49.1551 39.9352 48.9581 39.8761 48.9187 39.3049C48.9187 39.1966 48.9581 38.9208 49.0468 38.5663L49.0566 38.5367ZM12.8823 44.2293C12.6952 43.9436 12.5179 43.4906 12.3308 42.9883C12.1043 42.1709 12.0452 41.8065 12.2422 41.5898C12.3702 41.5012 12.4194 41.4125 12.3997 41.3239C6.42158 41.7474 4.91472 38.7829 4.01849 37.867C3.54576 37.473 3.68364 39.6792 5.04276 41.255C3.54576 41.3042 2.75786 40.5163 2.16694 39.7776C1.49723 39.039 0.955547 41.7375 2.34421 43.5595C3.35863 44.899 4.59957 45.1156 4.59957 45.1156C3.77228 45.3619 3.01393 44.9384 2.79725 44.8202C2.35406 44.574 3.05332 46.7505 7.13068 47.3808C8.86405 47.6468 10.9815 47.2627 12.9513 45.677C13.3058 45.3914 13.6505 45.1846 13.9952 45.0368C13.7293 45.0368 13.2861 44.9778 12.8823 44.2391V44.2293ZM61.4561 44.83C61.6826 45.2732 59.4371 47.7748 55.212 47.371C51.8635 47.046 50.7013 44.9876 50.2286 44.8596C50.1203 44.83 50.0119 44.8005 49.8937 44.7808C49.815 44.6725 49.7362 44.6429 49.7559 44.5346C49.7953 44.3277 50.4945 44.7414 51.2627 43.53C51.4104 43.3133 52.0605 42.1512 51.6862 41.8262C51.4301 41.5997 51.5188 41.4815 51.6567 41.3436C52.7597 41.4815 54.2863 41.4322 55.8424 40.9792C58.5409 40.1913 59.8409 38.0738 60.0576 37.8867C60.5402 37.4829 60.3925 39.689 59.0432 41.255C61.141 41.3633 61.791 39.6496 62.1652 39.6496C62.6183 39.6496 63.3569 43.8452 59.5061 45.0959C60.2447 45.5096 61.3281 44.5937 61.4561 44.8399V44.83Z" fill="#BB252D"/>
<path fill-rule="evenodd" clip-rule="evenodd" d="M22.2976 33.5141C22.2976 33.3467 22.406 33.2285 22.6029 33.2285C22.7605 33.2285 22.9772 33.3565 22.9772 33.5141C22.9772 33.721 22.7605 33.8588 22.5931 33.8588C22.3961 33.8588 22.2878 33.721 22.2976 33.5141Z" fill="#BB252D"/>
<path fill-rule="evenodd" clip-rule="evenodd" d="M23.8144 34.5282C23.8144 34.3608 23.9818 34.1736 24.1591 34.1835C24.3462 34.1736 24.5333 34.3608 24.5333 34.5282C24.5333 34.6759 24.3363 34.8138 24.1492 34.8138C23.9818 34.8236 23.8045 34.6759 23.8144 34.5282Z" fill="#BB252D"/>
<path fill-rule="evenodd" clip-rule="evenodd" d="M25.0947 32.6569C25.0947 32.519 25.3015 32.3516 25.4985 32.3516C25.6265 32.3516 25.8333 32.519 25.8235 32.6667C25.7545 32.9129 25.6265 33.0114 25.4985 33.0114C25.2424 33.0114 25.0848 32.9031 25.0947 32.6569Z" fill="#BB252D"/>
<path fill-rule="evenodd" clip-rule="evenodd" d="M26.6509 33.9672C26.6509 33.7899 26.7395 33.6323 26.9562 33.6323C27.1335 33.6323 27.2713 33.7899 27.2713 33.9573C27.2713 34.1445 27.1335 34.3217 26.9562 34.302C26.7395 34.302 26.6607 34.1346 26.6607 33.9672H26.6509Z" fill="#BB252D"/>
<path fill-rule="evenodd" clip-rule="evenodd" d="M28.1577 32.3615C28.1577 32.1843 28.2759 32.0464 28.4728 32.0464C28.6797 32.0464 28.7978 32.1843 28.7978 32.3517C28.7978 32.529 28.6797 32.6669 28.463 32.6669C28.266 32.6669 28.1478 32.5191 28.1577 32.3517V32.3615Z" fill="#BB252D"/>
<path fill-rule="evenodd" clip-rule="evenodd" d="M35.3176 32.4506C35.3472 32.2635 35.4457 32.1552 35.6525 32.1946C35.8298 32.234 35.9381 32.3719 35.9282 32.5688C35.8889 32.7363 35.7313 32.7953 35.5441 32.7658C35.357 32.7363 35.2979 32.5787 35.3275 32.4506H35.3176Z" fill="#BB252D"/>
<path fill-rule="evenodd" clip-rule="evenodd" d="M37.3564 32.8245C37.3859 32.6768 37.514 32.5487 37.6519 32.5684C37.8291 32.598 37.9276 32.7654 37.8981 32.923C37.8685 33.1002 37.7208 33.2184 37.5435 33.179C37.3958 33.1495 37.317 32.9919 37.3564 32.8146V32.8245Z" fill="#BB252D"/>
<path fill-rule="evenodd" clip-rule="evenodd" d="M40.0745 32.5686C40.1138 32.3814 40.2517 32.2928 40.4979 32.342C40.6851 32.3814 40.7639 32.5095 40.7343 32.6966C40.6949 32.8936 40.5767 33.0511 40.3798 33.0117C40.1335 32.9625 40.0351 32.7655 40.0745 32.5686Z" fill="#BB252D"/>
<path fill-rule="evenodd" clip-rule="evenodd" d="M38.4987 34.0357C38.5381 33.8289 38.7153 33.7304 38.9418 33.7698C39.1191 33.8092 39.2275 33.9864 39.1979 34.1637C39.1684 34.3311 38.9911 34.469 38.8237 34.4296C38.5774 34.3902 38.4593 34.2031 38.4987 34.0357Z" fill="#BB252D"/>
<path fill-rule="evenodd" clip-rule="evenodd" d="M40.6261 34.1934C40.6655 33.9964 40.8329 33.9078 41.0398 33.9472C41.2269 33.9767 41.3648 34.1244 41.3254 34.3214C41.286 34.4987 41.0989 34.6267 40.9216 34.5972C40.7148 34.5578 40.5867 34.3903 40.6261 34.2032V34.1934Z" fill="#BB252D"/>
<path fill-rule="evenodd" clip-rule="evenodd" d="M31.3684 14.5161C28.9357 14.7525 22.1992 20.514 19.2544 21.4201C24.3068 22.6906 28.4827 16.1609 31.3684 14.5161ZM47.9339 29.496C47.2642 25.3891 43.3739 23.8822 41.611 20.7799C39.8382 17.648 39.9958 14.5161 38.0162 14.1714C38.0162 14.1714 37.3859 22.4148 29.9994 25.8126C34.3722 26.3641 39.0996 20.0216 39.3163 18.7018C39.9761 21.7352 43.9353 25.5073 44.1027 28.2551C44.3095 27.8316 44.4868 27.6149 44.9202 27.7134C45.5111 27.8513 45.7475 28.9445 45.7672 29.9293C45.7869 31.0619 45.2649 32.4211 44.7133 32.9332C44.2209 33.3862 43.8959 33.2878 43.7383 33.1893C43.758 33.4946 43.827 33.8688 43.7383 35.0507C43.6497 35.9075 43.561 36.6954 43.3739 37.4833C43.0982 38.6258 42.8519 39.394 42.3989 40.2311C41.9853 40.9993 41.8277 41.147 41.2466 41.994C42.4383 44.2986 43.9845 44.7418 45.6293 44.7615C45.649 44.7418 45.6785 44.7122 45.6982 44.6926C46.5058 43.9539 47.5596 43.6486 47.0573 43.3334C46.5649 43.0183 46.7717 42.0039 47.2543 41.1569C47.2839 41.1175 47.3036 41.0781 47.3331 41.0387C46.2399 41.019 45.2944 40.891 45.0777 39.7584C44.605 37.3356 48.8104 34.8635 47.9437 29.5256L47.9339 29.496ZM55.1333 45.6282C53.5772 45.1259 52.484 43.9342 51.5976 42.9099C51.4794 43.1857 51.3317 43.4319 51.2726 43.5206C50.5044 44.7319 49.7953 44.3183 49.7657 44.5251C49.746 44.6335 49.8248 44.663 49.9036 44.7713C50.0119 44.791 50.1203 44.8206 50.2385 44.8501C50.7112 44.9782 51.8832 47.0365 55.2219 47.3615C58.6493 47.6964 60.7766 46.1009 61.338 45.2539C60.9834 45.5198 58.9743 46.8494 55.1431 45.6183L55.1333 45.6282ZM50.3271 30.018C50.8688 27.4869 50.7112 25.005 50.2483 22.7595C48.7316 18.1503 44.3292 16.023 41.9163 10.8229C42.2118 18.9973 51.0953 21.4595 50.3271 30.0278V30.018ZM20.6333 38.3303C20.4067 37.6803 20.1605 36.7151 20.0226 35.5136C19.8749 34.2726 19.9045 33.9772 19.8651 33.1893C19.6484 33.3764 19.2151 33.2779 18.89 32.9332C18.3681 32.3915 17.7968 31.0816 17.8362 29.9293C17.8756 28.9346 18.1022 27.8414 18.6832 27.7134C19.1166 27.6149 19.3135 27.8316 19.5007 28.2551C19.5992 28.4816 19.6976 29.1218 19.6976 29.1218C19.6976 29.1218 19.8552 27.024 21.2045 26.0194C21.3325 25.9308 21.4901 25.8421 21.6674 25.7535C23.8439 24.6997 29.96 23.7148 34.1457 18.5442C34.1457 18.5344 34.1555 18.5246 34.1654 18.5049C35.7313 16.3578 35.5639 14.6442 35.1601 14.2404C35.1601 14.2404 33.476 17.0768 31.4077 18.9283C26.9364 22.9368 17.393 23.833 15.2953 27.4475C14.2218 21.4004 17.8362 17.8942 17.8362 17.8942C17.4718 17.7662 15.6498 19.9329 14.8422 21.1837C18.3188 2.05752 35.6328 4.27348 36.6768 8.08493C42.7042 4.20454 46.2596 14.9495 48.318 16.9685V16.9389C47.668 15.4813 47.0869 14.4176 46.8899 13.9055C45.1368 9.50314 42.8027 3.87953 37.0806 5.672C36.1647 2.38253 26.444 2.78633 22.1204 6.30231C17.8461 9.78875 15.4332 14.4964 14.3301 22.2572C13.4437 24.3156 11.3558 30.6089 17.1764 37.1091C17.1764 37.1091 18.6734 38.7735 18.4961 40.1819C18.3779 41.0879 17.59 41.2849 16.4279 41.5311C16.8218 42.1713 17.0483 42.9789 16.9105 43.2054C16.7726 43.4516 16.5658 43.5403 16.9302 43.8948C16.9893 43.944 17.393 44.3479 17.8658 44.8206C19.9537 44.6433 21.7757 44.1115 23.0364 42.5751C22.6424 42.0728 21.5394 40.3493 21.3227 39.9455C21.1159 39.5614 20.9287 39.1182 20.6431 38.3401L20.6333 38.3303ZM13.9952 45.0274C13.6604 45.185 13.3058 45.3918 12.9513 45.6676C10.9815 47.2532 8.86407 47.6373 7.1307 47.3714C4.53064 46.9676 3.29955 45.9433 2.86621 45.313C3.31925 45.6282 4.72762 46.4161 6.83524 46.1206C10.4891 45.5986 11.277 44.2001 12.3998 43.1759C12.5573 43.5993 12.7149 43.9834 12.8823 44.2297C13.2861 44.9683 13.7195 45.0176 13.9952 45.0274Z" fill="#912637"/>
<path fill-rule="evenodd" clip-rule="evenodd" d="M28.3645 40.1617C29.1229 40.5655 30.0388 41.1565 31.1221 41.2254C32.1957 41.3042 33.5548 41.2943 34.3033 40.9398C35.0025 40.6049 35.3965 39.9057 35.8791 39.4526C34.4707 39.8564 33.0722 39.4526 31.5456 39.6004C31.3881 39.6102 30.7873 39.6693 30.6396 39.6792C29.6744 39.7481 28.8471 39.5511 27.8721 39.5413C28.0592 39.689 28.2266 39.9352 28.3645 40.1617Z" fill="#FFFFFE"/>
<path fill-rule="evenodd" clip-rule="evenodd" d="M26.7689 29.2099C26.7 29.5743 26.6902 29.9978 26.4341 30.175C25.8432 30.1258 25.2621 30.116 25.0159 30.4213C24.9666 30.4705 24.8091 30.4213 24.681 30.2538C24.553 30.0963 24.4053 29.6432 24.7697 29.269C24.9568 29.1902 25.1439 29.4068 25.4098 29.3478C25.5773 29.3084 25.6462 29.1606 25.656 28.9735C25.528 28.7273 25.1735 28.55 24.7303 28.875C24.2378 29.1311 23.8143 29.7909 23.7848 30.1947C23.7848 30.3129 23.9916 30.5788 24.2871 30.5887C24.3462 30.5887 24.425 30.6281 24.4742 30.6872C25.1735 30.7167 27.1038 30.6281 27.6553 30.0175C27.3894 29.6137 27.1826 28.747 26.7788 29.2099H26.7689Z" fill="#FFFFFE"/>
<path fill-rule="evenodd" clip-rule="evenodd" d="M39.2079 30.6088C39.2079 30.274 39.5821 30.3134 39.7397 30.1361C39.9367 29.8012 39.72 29.1414 39.2571 29.1217C39.2571 29.3383 39.2571 29.8406 38.9814 30.1262C38.7056 30.402 38.1639 30.0474 37.6124 30.0474C37.2775 30.0474 37.1889 30.3134 36.8442 30.1755C36.8737 29.6535 37.1101 29.23 37.2677 29.2005C37.4253 29.1709 37.7306 29.2891 38.0654 29.2595C38.1935 29.1906 38.3609 28.8754 38.1935 28.7277C37.898 28.5012 37.5533 28.5997 37.3169 28.7277C37.0609 28.8754 36.5881 29.358 36.3616 29.6732C36.3025 29.752 36.2631 29.8308 36.2139 29.9194C36.5389 30.3823 37.3465 30.7073 38.2919 30.7073C38.6071 30.7073 38.9321 30.6679 39.2079 30.599V30.6088Z" fill="#FFFFFE"/>
<path fill-rule="evenodd" clip-rule="evenodd" d="M50.4747 41.0878C50.0906 40.7628 49.7065 40.4181 49.3224 40.4279C48.9284 40.4378 48.7807 40.4969 48.7019 40.8219C48.6231 41.137 48.8595 41.0484 49.2239 41.0976C49.5883 41.1469 49.9823 41.403 50.1694 41.5507C50.3762 41.7181 50.7702 41.8363 50.8686 41.659C50.977 41.4818 50.8292 41.3833 50.4747 41.078V41.0878Z" fill="#FFFFFE"/>
<path fill-rule="evenodd" clip-rule="evenodd" d="M14.2808 40.9496C13.8376 40.9988 13.2959 41.0284 13.0596 41.3337C12.8232 41.6292 12.7937 41.7079 12.9611 41.9936C13.1285 42.289 13.2073 42.0428 13.4634 41.8064C13.7293 41.5701 14.0445 41.442 14.2513 41.4125C14.4876 41.3829 14.7733 41.2549 14.8619 40.9988C14.921 40.8019 14.7043 40.9102 14.2808 40.9496Z" fill="#FFFFFE"/>
<path fill-rule="evenodd" clip-rule="evenodd" d="M31.782 52.9357C32.0381 52.8372 32.5305 52.788 32.8358 52.9948C33.1313 53.1918 33.2889 53.3395 33.4267 53.5956C33.5745 53.8615 33.7025 54.2554 33.6139 54.6789C33.4858 55.2698 32.6979 55.7327 31.8608 55.5161C30.4524 55.1615 30.9547 53.2705 31.782 52.9357ZM32.0676 48.0409C34.3033 48.0113 36.6571 46.5537 39.4049 44.2393C39.8382 49.6167 40.3898 46.2189 40.4095 43.737C40.4292 43.1461 40.4587 43.1165 41.0102 42.3385C41.7981 41.1566 41.9262 41.0779 42.3989 40.221C42.8519 39.3839 43.108 38.6255 43.3739 37.4732C43.5611 36.6853 43.6497 35.8974 43.7383 35.0406C43.8368 33.8588 43.7679 33.4845 43.7383 33.1792C43.5807 34.036 43.3641 35.602 42.9898 36.9119C42.3103 39.3149 41.5519 40.3294 40.7345 41.2847C40.1042 42.0233 39.5723 42.5059 38.5284 43.4711C37.6223 44.3181 36.9427 44.909 35.6427 45.6575C35.0321 46.0022 34.0177 46.731 32.1563 46.7507C30.1767 46.7704 28.7289 45.7757 27.941 45.2833C27.0546 44.7317 26.7001 44.4461 25.9122 43.8158C25.3213 43.3431 24.3955 42.5847 23.9523 42.1218C23.1841 41.3241 22.3863 40.4278 21.7462 39.2952C21.1159 38.2119 20.7712 37.3846 20.3575 35.5823C20.2689 35.1883 20.0227 33.9375 19.8552 33.189C19.8946 33.9868 19.8749 34.2823 20.0128 35.5133C20.1507 36.7247 20.3969 37.6899 20.6234 38.3301C20.8992 39.1081 21.0962 39.5513 21.303 39.9354C21.5295 40.3491 22.7212 42.2105 23.0659 42.6241C23.4008 43.0082 23.5288 43.54 23.5288 43.8256C23.5288 44.4757 23.4598 46.2977 23.4598 46.2977C22.9083 45.7166 22.0712 45.2537 22.1598 46.1007C22.278 47.1545 22.1992 48.1689 21.8841 49.2523C21.5984 50.2175 20.6825 51.3008 20.131 51.5175C20.7416 51.9213 22.15 50.8478 22.6326 49.8826C22.8985 49.3606 23.0167 48.8879 23.0659 48.5432C23.1348 48.1197 23.4795 48.6121 23.578 48.7598C24.0409 49.4394 24.0311 50.1387 24.9766 50.2962C25.6857 50.4144 26.2963 49.5477 26.3061 49.5871C26.572 50.5228 27.3205 51.616 27.8819 51.7145C28.7585 51.872 29.3494 51.0546 29.3494 51.0546C29.7532 51.6455 30.3145 52.1183 31.0138 52.3054C30.2555 52.8471 29.4774 53.9895 29.8517 55.2403C30.1865 56.2252 31.4668 56.6684 32.5207 56.5994C33.9783 56.4911 35.2192 55.4373 34.8548 53.7827C34.6677 53.0834 34.2245 52.6796 33.7123 52.2955C34.6578 51.9508 34.8942 51.4682 35.0813 51.1432C35.3275 50.7099 35.6821 51.8326 36.7458 51.8228C37.8685 51.8228 38.5284 49.5477 38.5284 49.5477C38.5284 49.5477 39.0602 50.3652 39.6216 50.2175C40.0549 50.0993 40.7443 48.9273 40.7443 48.9273C41.1087 48.2674 40.9708 48.2773 41.4633 49.5576C42.2512 51.6061 44.2702 52.1281 43.4724 51.1826C42.6747 50.2372 42.0247 48.878 41.9656 47.4697C41.9262 46.4651 41.8966 45.8742 41.4633 45.7166C41.158 45.5984 40.9511 45.7166 40.8034 46.1105C40.5178 46.9083 39.986 48.8386 39.4344 48.75C38.8829 48.6712 38.8041 47.8636 38.3314 47.9916C37.4056 48.2379 37.5829 50.0697 36.5783 50.4341C35.9677 50.6606 35.6328 49.2621 35.0616 49.4394C34.6972 49.5477 34.4018 50.1485 33.8995 50.7296C33.3676 51.3501 32.7373 51.3993 32.304 51.7834C31.3388 51.291 30.4426 51.0054 29.9403 49.7743C29.4774 48.6318 28.6009 50.7197 28.1281 50.3553C27.3304 49.7349 27.3698 48.4348 26.6311 48.0212C25.9417 47.6371 25.3606 49.4887 24.9667 48.9371C24.7303 48.622 24.5629 48.3659 24.4349 48.1492C24.4546 46.5242 24.4644 45.3423 24.494 44.1408C27.5175 46.6227 29.8123 48.0704 32.0085 48.0409H32.0676Z" fill="#3B302F"/>
<path fill-rule="evenodd" clip-rule="evenodd" d="M30.6396 39.6791C30.7971 39.6791 31.388 39.6101 31.5456 39.6003C33.0722 39.4624 34.4707 39.8465 35.8791 39.4526C35.3965 39.8957 35.0025 40.6049 34.3033 40.9397C33.5548 41.3041 32.1956 41.3041 31.1221 41.2253C30.0388 41.1564 29.1228 40.5655 28.3645 40.1617C28.1577 40.7723 28.5221 40.9988 28.9948 41.4124C29.5266 41.8852 30.3539 42.5352 31.6047 42.5647C33.4169 42.614 34.8449 42.4367 35.751 40.9496C36.0268 40.4571 36.7753 39.4624 37.5533 39.0882C37.9867 38.8813 38.9912 38.4184 38.8238 38.1624C38.5284 37.7881 37.9374 37.8472 37.5139 37.9457C37.1889 38.0146 37.1003 38.5957 36.5586 38.645C35.2881 38.8025 34.0472 38.3692 32.4813 38.4184C31.3487 38.448 30.4623 38.7139 29.2509 38.8025C28.0887 38.8912 27.6849 38.2806 26.5917 38.1525C26.0993 38.0934 26.0008 38.379 26.3751 38.8419C26.7296 39.2063 27.3402 39.551 27.8327 39.5412C28.8274 39.5412 29.6547 39.748 30.6396 39.6791Z" fill="#3B302F"/>
<path fill-rule="evenodd" clip-rule="evenodd" d="M35.357 25.842C35.4062 26.0292 36.0858 25.842 36.4009 25.7238C36.6472 25.6254 36.854 25.5269 37.1593 25.4579C37.376 25.4087 37.6813 25.3791 37.8881 25.3791C38.3707 25.3791 38.6858 25.3791 39.0995 25.4481C39.7495 25.5564 40.9904 26.1966 41.0889 25.9208C41.1973 25.389 40.7344 24.9655 40.3798 24.7784C39.5033 24.3056 38.1737 24.0693 36.9722 24.5518C36.5684 24.739 36.4403 24.9064 36.0562 25.1526C35.8002 25.3299 35.3176 25.6155 35.3471 25.842H35.357Z" fill="#3B302F"/>
<path fill-rule="evenodd" clip-rule="evenodd" d="M33.9191 34.8236C33.2297 34.6168 33.0622 35.3554 32.363 35.3554C31.3781 35.3554 31.1713 34.7251 30.6493 34.7842C30.216 34.8334 29.9993 35.4834 29.7038 35.5327C29.4675 35.4834 29.5167 35.8774 29.8122 35.9562C30.4031 36.1039 30.2751 35.6115 30.669 35.7494C30.8955 35.838 30.9448 36.2319 31.6145 36.5373C32.2743 36.8327 32.9342 36.4782 33.535 35.9463C33.86 35.6312 34.4411 35.6115 34.4706 35.4637C34.4903 35.3948 34.3721 35.3357 34.3229 35.2668C34.2145 35.0993 34.0963 34.8925 33.9388 34.8433L33.9191 34.8236Z" fill="#3B302F"/>
<path fill-rule="evenodd" clip-rule="evenodd" d="M23.1348 30.5593C23.4106 30.7071 24.0114 30.9927 24.4841 30.8548C24.5432 30.6775 24.3856 30.5889 24.2871 30.579C23.9917 30.5692 23.775 30.3033 23.7848 30.1851C23.8242 29.7813 24.2379 29.1313 24.7303 28.8654C25.1833 28.5502 25.5281 28.7176 25.6561 28.9639C25.6462 29.1608 25.5773 29.3086 25.4099 29.3381C25.1538 29.3972 24.9667 29.1707 24.7697 29.2593C24.4053 29.6336 24.553 30.0965 24.6811 30.254C24.8091 30.4116 24.9667 30.4707 25.0159 30.4215C25.2621 30.1162 25.8432 30.126 26.4341 30.1752C26.6804 29.998 26.7 29.5745 26.769 29.2101C27.1925 28.7373 27.3993 29.6927 27.6751 30.0669C27.8523 30.3131 28.0493 30.6086 28.3054 30.6381C28.7289 30.6775 29.2804 30.3427 29.0736 29.7222C28.9554 29.5646 28.6107 29.8896 28.4827 29.7813C27.9705 29.2987 28.4334 28.3237 27.3796 27.7919C26.247 27.2305 24.4939 27.4275 23.7947 28.304C23.5189 28.6487 23.2235 29.0229 23.0068 29.5942C22.8985 29.9783 22.8 30.3722 23.1348 30.5692V30.5593Z" fill="#3B302F"/>
<path fill-rule="evenodd" clip-rule="evenodd" d="M37.8388 27.5652C37.3759 27.713 36.657 28.363 36.4107 28.7372C36.0956 29.2001 35.8986 30.0372 35.5047 30.0569C35.3471 29.9979 35.5047 29.6532 35.2683 29.6827C34.963 29.7516 34.7857 30.0176 34.8645 30.3229C34.9236 30.4804 35.0615 30.5986 35.2781 30.6183C35.9971 30.707 36.1054 30.0569 36.3812 29.6728C36.6077 29.3577 37.0903 28.8751 37.3365 28.7274C37.5729 28.5895 37.9176 28.491 38.2131 28.7274C38.3805 28.8751 38.2131 29.2001 38.085 29.2592C37.76 29.2887 37.4449 29.1607 37.2873 29.2001C37.1297 29.2297 36.8933 29.6532 36.8638 30.1751C37.2085 30.313 37.2873 30.0569 37.632 30.0471C38.1835 30.0471 38.7153 30.3918 39.001 30.1259C39.2767 29.8501 39.2767 29.3478 39.2767 29.1213C39.7396 29.141 39.9563 29.791 39.7593 30.1357C39.6017 30.313 39.2275 30.2835 39.2275 30.6085C40.8131 30.9236 40.9707 30.2736 41.0889 29.9092C41.1775 29.6236 41.1381 29.3872 41.0101 28.9933C40.5472 27.8213 39.129 27.1516 37.8585 27.5652H37.8388Z" fill="#3B302F"/>
<path fill-rule="evenodd" clip-rule="evenodd" d="M27.7834 25.0242C27.4584 24.8174 27.1925 24.6204 26.8281 24.4825C26.5425 24.384 26.0993 24.2954 25.7054 24.2954C24.7303 24.6697 23.8341 24.9553 23.0856 25.2113C22.8394 25.497 22.7212 25.8515 22.8098 26.1076C22.9083 26.3932 24.1296 25.6841 24.7697 25.5166C25.2523 25.3985 25.4887 25.3985 25.9713 25.3689C26.1781 25.3591 26.4933 25.3689 26.7099 25.3985C27.0546 25.4379 27.2122 25.5462 27.488 25.6151C27.813 25.7038 28.4728 25.8614 28.5319 25.6742C28.5615 25.4477 28.0395 25.1916 27.7736 25.0242H27.7834Z" fill="#3B302F"/>
<path fill-rule="evenodd" clip-rule="evenodd" d="M49.096 44.2591C47.9831 44.1901 48.0225 44.0818 47.6483 43.8356C47.5301 43.7568 47.0475 43.9932 47.3922 44.3083C47.5104 44.4068 47.7664 44.7121 47.668 45.0864C47.5399 45.569 46.8308 46.4849 47.5202 46.3864C48.3081 46.2879 48.4952 45.175 48.574 45.0174C48.6627 44.85 48.8006 44.7811 48.968 44.7614C49.3028 44.722 49.6574 44.2886 49.0862 44.2591H49.096Z" fill="#3B302F"/>
<path fill-rule="evenodd" clip-rule="evenodd" d="M51.3612 39.6302C51.1346 40.1128 50.9771 40.753 50.3369 40.4181C49.5293 39.9946 50.5339 39.3446 51.1543 38.6946C51.7354 38.084 51.5384 39.256 51.3612 39.6302Z" fill="#3B302F"/>
<path fill-rule="evenodd" clip-rule="evenodd" d="M14.8027 44.4167C15.7777 44.0129 15.758 44.003 16.1126 43.7174C16.2307 43.6288 16.5164 43.7765 16.2504 44.2197C16.1421 44.397 15.9648 44.3182 16.0042 44.7121C16.0535 45.2243 17.1467 46.0023 16.408 46.1501C15.7383 46.2879 15.3542 45.047 15.305 44.8697C15.2459 44.6924 14.9504 44.8894 14.8027 44.8697C14.4875 44.8402 14.2315 44.6432 14.8027 44.4068V44.4167Z" fill="#3B302F"/>
<path fill-rule="evenodd" clip-rule="evenodd" d="M12.6951 39.3638C12.7838 40.0631 13.3353 40.851 13.7982 40.4177C14.0838 40.1419 13.5323 40.0631 13.1482 38.4479C12.902 37.404 12.6262 38.8222 12.705 39.3638H12.6951Z" fill="#3B302F"/>
</svg>
