<svg width="65" height="64" viewBox="0 0 65 64" fill="none" xmlns="http://www.w3.org/2000/svg">
<path d="M31.9729 61.0504C22.6282 61.0504 14.0024 56.5307 8.69494 48.9093C8.65555 48.9093 8.60631 48.9093 8.56693 48.9093C8.42907 48.9093 8.29121 48.9191 8.15336 48.9191C8.00566 48.9191 7.8678 48.9191 7.7201 48.9093C7.44439 48.8994 7.16868 48.8699 6.91266 48.8305C6.57787 48.7813 6.27261 48.7123 5.97721 48.6434L5.77042 48.5942C5.49471 48.5252 5.29778 48.4662 5.11069 48.4071L4.85467 48.3185C4.65773 48.2495 4.47064 48.1806 4.30325 48.1018L4.11616 48.0231C3.89953 47.9246 3.69274 47.8261 3.49581 47.7178L3.37764 47.6489C3.22994 47.5603 3.08224 47.4716 2.94438 47.3732L2.82622 47.2944C2.66867 47.1762 2.56036 47.0876 2.46189 47.0088L2.34373 46.9104C2.22556 46.8021 2.12709 46.7036 2.03847 46.615L1.97939 46.546C1.88092 46.4377 1.80215 46.3393 1.73322 46.2408L1.65445 46.1325C1.20149 45.4826 1.17195 44.9312 1.25073 44.5471C1.22119 44.5176 1.20149 44.4782 1.17195 44.4487C-0.0982906 42.7747 -0.245993 40.441 0.344817 39.2397C0.679609 38.5701 1.28027 38.1762 1.94985 38.1762C2.06801 38.1762 2.19602 38.1861 2.31418 38.2156C2.31418 37.8611 2.37327 37.5559 2.49143 37.2999C2.74745 36.7287 3.27917 36.3743 3.87983 36.3546C3.73213 35.2025 3.6632 34.0406 3.6632 32.8885C3.6632 22.7462 9.15774 13.3917 18.0199 8.37969C18.9553 7.19807 19.9893 6.14446 21.1906 5.16962C21.7912 4.67728 22.51 4.22433 23.3076 3.82061C25.6413 2.64883 28.7234 1.94971 31.5691 1.94971C31.7365 1.94971 31.8941 1.94971 32.0516 1.94971C34.7497 2.02848 36.7486 2.7473 37.8022 3.97816C38.2256 3.89938 38.649 3.85999 39.0527 3.85999H39.1512C41.8689 3.85999 44.0845 5.32717 45.916 8.36C54.7978 13.3622 60.2924 22.7167 60.2924 32.8786C60.2924 34.0406 60.2234 35.2025 60.0757 36.3546C60.1053 36.3546 60.1348 36.3546 60.1545 36.3546C60.7749 36.3546 61.3263 36.7189 61.602 37.2999C61.7202 37.5559 61.7694 37.8611 61.7792 38.2156C61.8974 38.1861 62.0254 38.1664 62.1633 38.1664C62.6064 38.1664 63.6698 38.3633 63.9455 40.1456C64.1622 41.534 63.8569 43.1587 62.8821 44.4585C62.9904 44.8425 63.0002 45.4038 62.5571 46.0734C62.4587 46.2211 62.3208 46.3983 62.1633 46.5657L62.0746 46.6544C61.9269 46.8021 61.7595 46.9596 61.5725 47.1172L61.4838 47.1861C61.2967 47.3338 61.0998 47.4716 60.8832 47.5996L60.7847 47.6587C60.5582 47.7966 60.3121 47.9246 60.0364 48.0526L59.8493 48.1412C59.5834 48.2594 59.288 48.3677 58.9729 48.4662L58.8547 48.4957C58.5593 48.5843 58.2442 48.6533 57.9094 48.7222L57.7322 48.7517C57.358 48.8108 56.9838 48.8502 56.5998 48.8699H56.0582C55.8121 48.8699 55.556 48.8699 55.3 48.8502C50.0024 56.5012 41.3569 61.0406 31.9827 61.0406L31.9729 61.0504Z" fill="white"/>
<path d="M61.4444 44.8328C61.3164 44.5867 60.2333 45.5024 59.4948 45.0889C63.3449 43.8383 62.6064 39.6436 62.1534 39.6436C61.7792 39.6436 61.1195 41.3569 59.032 41.2486C60.3908 39.6829 60.5385 37.4773 60.0462 37.881C59.8886 38.009 59.1797 39.1118 57.8307 40.0177C58.4609 37.7431 58.8055 35.3503 58.8055 32.8788C58.8055 22.7759 53.1633 13.9827 44.8328 9.45315C43.5035 7.13914 41.7311 5.29779 39.0527 5.33717C38.4422 5.33717 37.7726 5.45534 37.0538 5.67197C36.6501 4.23433 34.5724 3.50566 31.9827 3.42689C29.4028 3.34811 26.3208 3.93892 23.9378 5.13039C23.2584 5.47503 22.6282 5.85906 22.0965 6.30216C20.9149 7.26715 19.8809 8.32076 18.975 9.51223C10.7135 14.0615 5.11069 22.8153 5.11069 32.8788C5.11069 35.3306 5.44548 37.7037 6.07568 39.9587C4.98268 39.1906 4.42141 38.3044 3.99799 37.8711C3.52534 37.4772 3.6632 39.6829 5.02206 41.2584C3.52534 41.3077 2.7376 40.5199 2.14679 39.7814C1.4772 39.0429 0.935626 41.7409 2.32403 43.5626C3.33825 44.9018 4.57896 45.1184 4.57896 45.1184C3.75182 45.3646 2.99362 44.9412 2.77698 44.823C2.61944 44.7344 2.60959 44.9608 2.85576 45.3252C2.90499 45.404 2.97392 45.4827 3.04285 45.5615C3.04285 45.5615 3.04285 45.5615 3.0527 45.5714C3.12162 45.6501 3.2004 45.7289 3.28902 45.8077C3.31856 45.8372 3.3481 45.8569 3.37764 45.8864C3.45642 45.9455 3.53519 46.0145 3.62381 46.0834C3.6632 46.1129 3.70259 46.1425 3.74197 46.172C3.85029 46.2409 3.95861 46.3197 4.08661 46.3886C4.11615 46.4083 4.14569 46.428 4.17524 46.4379C4.33278 46.5265 4.50018 46.6151 4.68727 46.6939C4.73651 46.7136 4.78574 46.7333 4.83497 46.753C4.98268 46.8121 5.13038 46.8711 5.29778 46.9302C5.3667 46.9598 5.44548 46.9794 5.52425 47.009C5.6818 47.0582 5.85905 47.1075 6.03629 47.1567C6.11506 47.1764 6.19384 47.1961 6.27261 47.2158C6.53848 47.2749 6.80434 47.3339 7.10959 47.3832C7.32622 47.4127 7.5527 47.4422 7.77918 47.4521C8.00566 47.4619 8.24198 47.4619 8.4783 47.4521C8.77371 47.4324 9.08881 47.393 9.39406 47.3339C14.1698 54.6994 22.4904 59.5736 31.9532 59.5736C41.416 59.5736 49.7858 54.66 54.5615 47.265C54.7683 47.3044 54.9652 47.3536 55.1917 47.3733C55.5757 47.4127 55.9401 47.4127 56.2945 47.4127C56.3635 47.4127 56.4324 47.4127 56.5013 47.4127C56.8361 47.393 57.1512 47.3635 57.4565 47.3142C57.5156 47.3142 57.5648 47.2945 57.6239 47.2847C57.8996 47.2355 58.1753 47.1764 58.4215 47.0976C58.451 47.0976 58.4805 47.0779 58.5101 47.0681C58.776 46.9893 59.0221 46.8908 59.2486 46.7924C59.2978 46.7727 59.3471 46.753 59.3963 46.7234C59.6129 46.625 59.8197 46.5166 60.0068 46.3985C60.0363 46.3788 60.056 46.3689 60.0757 46.3493C60.2431 46.2409 60.4007 46.1326 60.5385 46.0342C60.5681 46.0145 60.5976 45.9948 60.6173 45.9751C60.7552 45.8569 60.8832 45.7486 60.9816 45.6403C61.0013 45.6206 61.021 45.591 61.0506 45.5714C61.149 45.463 61.2377 45.3646 61.2967 45.2661C61.4248 45.0692 61.4641 44.9215 61.4248 44.8328H61.4444Z" fill="white"/>
<path d="M56.3142 49.7368C56.3142 49.4709 56.1173 49.3232 55.8612 49.3232H55.3394V50.5935H55.5363V50.1504H55.812L56.1468 50.5935H56.3536V50.5639L56.0188 50.1208C56.2059 50.0814 56.3142 49.9337 56.3142 49.7368ZM55.5363 49.983V49.4906H55.8415C55.9991 49.4906 56.1074 49.5891 56.1074 49.7368C56.1074 49.8845 55.9991 49.983 55.8415 49.983H55.5363Z" fill="white"/>
<path d="M55.7529 52.7591C54.1577 52.7591 52.9564 51.5578 52.9564 49.9528C52.9564 48.3477 54.1577 47.1562 55.7529 47.1562C57.3481 47.1562 58.5494 48.3576 58.5494 49.9528C58.5494 50.7799 58.2245 51.5282 57.6435 52.0501C57.1315 52.5031 56.4619 52.7591 55.7529 52.7591Z" fill="white"/>
<path d="M54.4435 49.9528C54.4435 51.7252 57.0824 51.7154 57.0824 49.9528C57.0824 48.1902 54.4435 48.1902 54.4435 49.9528ZM54.67 49.9528C54.67 48.4561 56.8461 48.4561 56.8461 49.9528C56.8461 51.4495 54.67 51.4397 54.67 49.9528Z" fill="white"/>
<path fill-rule="evenodd" clip-rule="evenodd" d="M31.9729 6.19336C17.1534 6.19336 5.13037 18.1474 5.13037 32.8881C5.13037 47.6289 17.1435 59.5829 31.9729 59.5829C46.8022 59.5829 58.8153 47.6289 58.8153 32.8881C58.8153 18.1474 46.7923 6.19336 31.9729 6.19336Z" fill="#3B302F"/>
<path fill-rule="evenodd" clip-rule="evenodd" d="M31.9728 57.466C18.3448 57.466 7.24744 46.4376 7.24744 32.8785C7.24744 19.3194 18.3448 8.30078 31.9728 8.30078C45.6009 8.30078 56.6983 19.3292 56.6983 32.8883C56.6983 46.4474 45.6107 57.4759 31.9728 57.4759V57.466Z" fill="#FFFFFE"/>
<path fill-rule="evenodd" clip-rule="evenodd" d="M44.7049 32.9281C44.2125 33.3811 43.8876 33.2826 43.73 33.1842C43.5725 34.0408 43.3558 35.6065 42.9817 36.9161C42.3022 39.3187 41.544 40.333 40.7267 41.2881C40.0965 42.0266 39.5648 42.5091 38.521 43.4741C37.6151 44.3209 36.9357 44.9117 35.6359 45.6601C35.0254 46.0047 34.0112 46.7334 32.1501 46.7531C30.1709 46.7728 28.7234 45.7783 27.9357 45.2859C27.0495 44.7345 26.695 44.4489 25.9072 43.8187C25.3164 43.3461 24.3908 42.5879 23.9477 42.1251C23.1797 41.3275 22.3821 40.4314 21.742 39.299C21.1118 38.2159 20.7672 37.3888 20.3536 35.5868C20.265 35.1929 20.0188 33.9424 19.8514 33.194C19.6348 33.3811 19.2016 33.2826 18.8766 32.938C18.3547 32.3964 17.7738 31.0868 17.823 29.9347C17.8624 28.9402 18.0889 27.8472 18.6698 27.7192C19.1031 27.6207 19.3 27.8373 19.4871 28.2607C19.5856 28.4872 19.684 29.1273 19.684 29.1273C19.684 29.1273 19.8416 27.0299 21.1906 26.0255C22.7956 24.8439 29.5998 24.1448 34.1392 18.5518C33.6862 21.1612 32.4357 23.485 29.974 25.8187C34.346 26.3701 39.0725 20.0288 39.2891 18.7093C39.9488 21.7421 43.9073 25.5135 44.0648 28.2607C44.2716 27.8373 44.4488 27.6207 44.8821 27.7192C45.4729 27.857 45.7092 28.95 45.7289 29.9347C45.7486 31.0671 45.2267 32.426 44.6753 32.938L44.7049 32.9281Z" fill="#EFD1CF"/>
<path fill-rule="evenodd" clip-rule="evenodd" d="M39.3876 44.242C36.6502 46.556 34.2869 48.0134 32.0517 48.0429C29.8559 48.0724 27.5616 46.625 24.5386 44.1436C24.509 45.3449 24.509 46.5265 24.4795 48.1512C24.6075 48.3678 24.7749 48.614 25.0112 48.939C25.4051 49.4904 25.9861 47.6293 26.6753 48.0232C27.4138 48.4368 27.3745 49.7464 28.1721 50.3569C28.6447 50.7212 29.5211 48.6436 29.9839 49.7759C30.4861 51.0068 31.3723 51.2924 32.3471 51.7847C32.7804 51.4105 33.4106 51.3514 33.9423 50.7311C34.4346 50.1501 34.7399 49.5495 35.1042 49.4412C35.6753 49.2639 36.0003 50.6523 36.6206 50.4357C37.6152 50.0714 37.4478 48.2398 38.3734 47.9937C38.846 47.8657 38.915 48.6731 39.4762 48.7519C39.6732 48.7814 39.8701 48.5549 40.0473 48.2103L40.0277 46.9991C39.8406 47.3733 39.6042 46.8022 39.3974 44.242H39.3876Z" fill="#EFD1CF"/>
<path fill-rule="evenodd" clip-rule="evenodd" d="M31.7759 52.9365C32.0319 52.8381 32.5243 52.7888 32.8295 52.9956C33.1249 53.1925 33.2825 53.3402 33.4203 53.5963C33.568 53.8621 33.696 54.256 33.6074 54.6794C33.4794 55.2702 32.6917 55.733 31.8547 55.5164C30.4466 55.1619 30.9488 53.2713 31.7759 52.9365Z" fill="#2390C1"/>
<path fill-rule="evenodd" clip-rule="evenodd" d="M24.9915 50.288C24.381 50.1895 24.1644 49.8646 23.9675 49.4707C23.869 49.835 23.741 50.2486 23.3865 51.0364C22.904 52.0998 21.4861 53.2224 22.9336 53.6458C23.3964 53.7639 23.6819 53.5768 23.869 53.4094C24.6666 52.6906 25.4051 51.1348 25.7891 50.0615C25.5627 50.2191 25.287 50.3372 25.0014 50.288H24.9915Z" fill="#2390C1"/>
<path fill-rule="evenodd" clip-rule="evenodd" d="M27.8962 51.7156C27.6304 51.6664 27.3251 51.4005 27.0494 51.0264C26.5374 53.4388 25.6413 54.1478 25.9564 54.8272C26.0647 55.0537 26.3109 55.2507 26.3109 55.2507C26.4783 55.359 26.6358 55.3984 26.7835 55.4082C27.0199 55.4082 27.266 55.3491 27.4531 55.1325C28.2507 54.1577 28.8218 52.4935 28.9892 51.4202C28.7332 51.6073 28.359 51.7846 27.9061 51.7058L27.8962 51.7156Z" fill="#2390C1"/>
<path fill-rule="evenodd" clip-rule="evenodd" d="M36.7683 51.824C36.2562 51.824 35.9116 51.5679 35.6654 51.3415C36.0987 53.2222 36.7978 54.5515 37.2114 55.0734C37.3984 55.2901 37.6446 55.4181 37.9203 55.4673C38.1074 55.4673 38.2354 55.4476 38.4028 55.3688C38.4028 55.3688 38.7573 55.2113 38.8361 54.975C39.0724 54.3349 38.1665 53.3207 37.7135 51.2627C37.4575 51.5876 37.1424 51.824 36.7683 51.8338V51.824Z" fill="#2390C1"/>
<path fill-rule="evenodd" clip-rule="evenodd" d="M40.4312 49.4512C40.1948 49.7761 39.8896 50.1601 39.6533 50.2192C39.2889 50.3177 38.9246 50.0026 38.7277 49.7663C39.1905 51.9129 40.2145 53.0354 40.4902 53.321C40.7955 53.6361 41.0318 53.6656 41.2977 53.6853C41.6226 53.7149 41.8491 53.6065 42.0559 53.3899C42.5088 52.7302 41.3765 51.6963 40.825 50.4359C40.6576 50.0617 40.5296 49.7466 40.441 49.4512H40.4312Z" fill="#2390C1"/>
<path fill-rule="evenodd" clip-rule="evenodd" d="M53.6851 39.23C54.4237 38.4225 55.6545 37.3788 54.8569 36.591C54.4434 36.1774 53.7442 35.8033 52.986 35.4389C52.2278 35.0746 51.4499 34.8087 51.0068 34.7792C49.9433 34.7103 48.9094 38.7573 48.9291 39.289C48.9587 39.8602 49.1556 39.9192 49.1064 40.0079C49.0374 40.1063 47.9543 39.8897 47.2453 41.1501C46.7628 41.9969 46.556 43.0111 47.0484 43.3262C47.5506 43.6512 46.497 43.9466 45.6895 44.6851C44.7147 45.5812 43.9368 46.9006 43.8777 47.068C43.73 47.521 43.6906 47.8656 44.8919 48.742C45.8471 49.4313 47.5998 49.8547 47.9051 49.8941C48.8602 50.0319 49.2344 49.5593 49.4313 48.6435C49.6578 47.5801 49.7858 46.9499 49.8941 46.4674C50.3175 44.5669 49.707 44.8131 49.7563 44.5374C49.7956 44.3306 50.4948 44.7442 51.2628 43.533C51.4105 43.3164 52.0604 42.1545 51.6862 41.8295C51.381 41.5637 51.5681 41.4455 51.7453 41.2683C52.218 40.7661 52.6906 40.3427 53.695 39.2398L53.6851 39.23Z" fill="#2390C1"/>
<path fill-rule="evenodd" clip-rule="evenodd" d="M19.4575 46.4277C19.1326 46.0633 17.0451 44.0251 16.9171 43.897C16.5626 43.5426 16.7595 43.4539 16.8974 43.2078C17.1238 42.8237 16.3459 40.7854 15.4006 40.687C14.6523 40.6082 15.3022 40.5097 15.312 40.0765C15.312 39.7909 14.8985 37.664 14.5538 36.3938C14.1501 34.897 13.2245 34.8281 12.8602 34.8576C12.5746 34.8773 11.1271 35.2614 10.1523 36.0688C9.13805 36.8369 9.11836 37.3981 9.24637 37.8019C9.34484 38.117 9.83718 39.0032 10.2212 39.4857C11.3044 40.8051 12.9192 41.1399 12.2497 41.6027C12.0527 41.8194 12.102 42.1738 12.3383 43.001C12.5254 43.5032 12.7026 43.9561 12.8897 44.2417C13.4904 45.3445 14.1599 44.9211 14.2486 45.0885C14.2978 45.1968 14.1107 45.315 14.1206 45.8172C14.1206 46.0633 14.4849 46.7723 14.7507 47.6487C15.1249 48.8795 15.6567 50.1104 16.4149 50.1301C17.9805 50.1793 19.94 48.8894 20.137 48.141C20.3438 47.3237 19.8022 46.8117 19.4674 46.4277H19.4575Z" fill="#2390C1"/>
<path fill-rule="evenodd" clip-rule="evenodd" d="M49.0472 38.5408C48.614 37.9106 47.9345 37.3198 46.7529 36.9555C55.0144 27.5813 47.7179 16.0211 46.8711 13.904C45.1183 9.50248 42.7846 3.87993 37.0636 5.67206C36.1479 2.38321 26.4291 2.78694 22.1063 6.30226C17.8328 9.78804 15.4203 14.4948 14.3174 22.2541C13.4312 24.3121 11.3437 30.6043 17.1632 37.1032C16.2277 37.3001 15.5581 38.0485 15.1052 38.8559C15.2233 39.4664 15.3021 39.9489 15.3021 40.0769C15.3021 40.5102 14.6522 40.6086 15.3907 40.6874C16.3459 40.7859 17.1139 42.8242 16.8875 43.2082C16.7496 43.4544 16.5428 43.543 16.9072 43.8975C16.9564 43.9467 17.37 44.3504 17.8426 44.8231C19.9301 44.6458 21.7518 44.1141 23.0122 42.578C22.6183 42.0758 21.5155 40.3526 21.2988 39.9489C21.0921 39.5649 20.905 39.1218 20.6194 38.3439C20.3929 37.694 20.1468 36.729 20.0089 35.5277C19.8612 34.287 19.8907 33.9916 19.8514 33.2038C19.6347 33.3909 19.2015 33.2924 18.8765 32.9478C18.3546 32.4062 17.7737 31.0966 17.8229 29.9445C17.8623 28.95 18.0888 27.857 18.6697 27.729C19.103 27.6305 19.2999 27.8471 19.487 28.2706C19.5855 28.497 19.684 29.1371 19.684 29.1371C19.684 29.1371 19.8415 27.0397 21.1905 26.0353C22.7956 24.8537 29.5997 24.1546 34.1391 18.5616C33.6862 21.171 32.4356 23.4948 29.9739 25.8285C34.3459 26.38 39.0724 20.0386 39.289 18.7191C39.9488 21.7519 43.9072 25.5233 44.0746 28.2706C44.2814 27.8471 44.4586 27.6305 44.8919 27.729C45.4827 27.8668 45.719 28.9598 45.7387 29.9445C45.7584 31.0769 45.2365 32.4358 44.6851 32.9478C44.1927 33.4008 43.8678 33.3023 43.7103 33.2038C43.7299 33.5091 43.7989 33.8833 43.7103 35.0649C43.6216 35.9215 43.533 36.7093 43.3459 37.497C43.0702 38.6393 42.824 39.4073 42.3711 40.2443C41.9575 41.0124 41.8 41.1601 41.219 42.0069C42.4105 44.3111 43.9564 44.7542 45.6008 44.7739C45.6205 44.7542 45.6501 44.7246 45.6698 44.7049C46.4772 43.9664 47.5308 43.6612 47.0286 43.3461C46.5363 43.031 46.7431 42.0167 47.2256 41.1699C47.9345 39.9095 49.0275 40.136 49.0866 40.0277C49.1457 39.9391 48.9488 39.88 48.9094 39.3089C48.9094 39.2005 48.9488 38.9248 49.0374 38.5703L49.0472 38.5408ZM12.8798 44.2323C12.6927 43.9467 12.5155 43.4938 12.3284 42.9916C12.1019 42.1743 12.0428 41.81 12.2398 41.5933C12.3678 41.5047 12.417 41.4161 12.3973 41.3275C6.42027 41.7509 4.91371 38.787 4.01765 37.8712C3.545 37.4773 3.68285 39.683 5.04172 41.2585C3.545 41.3078 2.75725 40.52 2.16644 39.7815C1.49686 39.043 0.955279 41.741 2.34368 43.5627C3.35791 44.9019 4.59861 45.1185 4.59861 45.1185C3.77147 45.3647 3.01327 44.9412 2.79664 44.8231C2.35353 44.5769 3.05266 46.7531 7.12925 47.3833C8.86229 47.6491 10.9794 47.2651 12.9487 45.6798C13.3032 45.3942 13.6479 45.1874 13.9925 45.0397C13.7266 45.0397 13.2835 44.9806 12.8798 44.2421V44.2323ZM61.4444 44.8329C61.6709 45.276 59.4258 47.7771 55.2015 47.3734C51.8536 47.0485 50.6917 44.9905 50.219 44.8625C50.1107 44.8329 50.0024 44.8034 49.8842 44.7837C49.8054 44.6754 49.7267 44.6458 49.7464 44.5375C49.7858 44.3307 50.4849 44.7443 51.2529 43.5331C51.4006 43.3165 52.0505 42.1546 51.6763 41.8296C51.4203 41.6032 51.5089 41.485 51.6468 41.3472C52.7496 41.485 54.2759 41.4358 55.8317 40.9828C58.5297 40.1951 59.8295 38.078 60.0462 37.8909C60.5286 37.4872 60.3809 39.6929 59.0319 41.2585C61.1293 41.3668 61.7792 39.6535 62.1534 39.6535C62.6063 39.6535 63.3448 43.8483 59.4947 45.0988C60.2332 45.5124 61.3164 44.5966 61.4444 44.8428V44.8329Z" fill="#BB252D"/>
<path fill-rule="evenodd" clip-rule="evenodd" d="M22.2935 33.519C22.2935 33.3516 22.4018 33.2334 22.5987 33.2334C22.7563 33.2334 22.9729 33.3614 22.9729 33.519C22.9729 33.7257 22.7563 33.8636 22.5889 33.8636C22.3919 33.8636 22.2836 33.7257 22.2935 33.519Z" fill="#BB252D"/>
<path fill-rule="evenodd" clip-rule="evenodd" d="M23.8098 34.5335C23.8098 34.3661 23.9772 34.179 24.1545 34.1888C24.3416 34.179 24.5287 34.3661 24.5287 34.5335C24.5287 34.6812 24.3317 34.819 24.1446 34.819C23.9772 34.8289 23.8 34.6812 23.8098 34.5335Z" fill="#BB252D"/>
<path fill-rule="evenodd" clip-rule="evenodd" d="M25.09 32.6617C25.09 32.5238 25.2968 32.3564 25.4938 32.3564C25.6218 32.3564 25.8285 32.5238 25.8187 32.6715C25.7498 32.9177 25.6218 33.0162 25.4938 33.0162C25.2377 33.0162 25.0802 32.9079 25.09 32.6617Z" fill="#BB252D"/>
<path fill-rule="evenodd" clip-rule="evenodd" d="M26.6459 33.9715C26.6459 33.7943 26.7345 33.6367 26.9511 33.6367C27.1284 33.6367 27.2662 33.7943 27.2662 33.9617C27.2662 34.1488 27.1284 34.326 26.9511 34.3063C26.7345 34.3063 26.6557 34.1389 26.6557 33.9715H26.6459Z" fill="#BB252D"/>
<path fill-rule="evenodd" clip-rule="evenodd" d="M28.1523 32.3669C28.1523 32.1896 28.2705 32.0518 28.4674 32.0518C28.6742 32.0518 28.7923 32.1896 28.7923 32.357C28.7923 32.5343 28.6742 32.6721 28.4576 32.6721C28.2606 32.6721 28.1425 32.5244 28.1523 32.357V32.3669Z" fill="#BB252D"/>
<path fill-rule="evenodd" clip-rule="evenodd" d="M35.3109 32.4555C35.3405 32.2684 35.4389 32.1601 35.6457 32.1995C35.8229 32.2388 35.9313 32.3767 35.9214 32.5736C35.882 32.741 35.7245 32.8001 35.5374 32.7706C35.3503 32.741 35.2912 32.5835 35.3208 32.4555H35.3109Z" fill="#BB252D"/>
<path fill-rule="evenodd" clip-rule="evenodd" d="M37.3493 32.8293C37.3789 32.6816 37.5069 32.5536 37.6447 32.5733C37.822 32.6028 37.9204 32.7702 37.8909 32.9278C37.8614 33.105 37.7137 33.2232 37.5364 33.1838C37.3887 33.1543 37.3099 32.9967 37.3493 32.8195V32.8293Z" fill="#BB252D"/>
<path fill-rule="evenodd" clip-rule="evenodd" d="M40.0669 32.5739C40.1063 32.3868 40.2441 32.2982 40.4903 32.3474C40.6774 32.3868 40.7562 32.5148 40.7266 32.7019C40.6872 32.8988 40.5691 33.0564 40.3721 33.017C40.126 32.9678 40.0275 32.7708 40.0669 32.5739Z" fill="#BB252D"/>
<path fill-rule="evenodd" clip-rule="evenodd" d="M38.4913 34.04C38.5307 33.8332 38.708 33.7348 38.9344 33.7742C39.1117 33.8135 39.22 33.9908 39.1905 34.168C39.1609 34.3354 38.9837 34.4733 38.8163 34.4339C38.5701 34.3945 38.4519 34.2074 38.4913 34.04Z" fill="#BB252D"/>
<path fill-rule="evenodd" clip-rule="evenodd" d="M40.6183 34.1982C40.6577 34.0013 40.8251 33.9126 41.0319 33.952C41.219 33.9816 41.3568 34.1293 41.3174 34.3262C41.278 34.5035 41.091 34.6315 40.9137 34.6019C40.7069 34.5625 40.5789 34.3951 40.6183 34.208V34.1982Z" fill="#BB252D"/>
<path fill-rule="evenodd" clip-rule="evenodd" d="M31.3623 14.5243C28.9302 14.7606 22.1949 20.521 19.2507 21.4269C24.3022 22.6972 28.4772 16.1687 31.3623 14.5243ZM47.9247 29.5013C47.2551 25.3952 43.3656 23.8886 41.6031 20.7869C39.8306 17.6556 39.9882 14.5243 38.009 14.1796C38.009 14.1796 37.3788 22.4214 29.9936 25.8186C34.3656 26.37 39.0921 20.0287 39.3087 18.7092C39.9685 21.742 43.9269 25.5134 44.0943 28.2606C44.3011 27.8372 44.4783 27.6206 44.9116 27.719C45.5024 27.8569 45.7387 28.9499 45.7584 29.9346C45.7781 31.067 45.2562 32.4258 44.7048 32.9379C44.2125 33.3908 43.8875 33.2924 43.73 33.1939C43.7497 33.4991 43.8186 33.8733 43.73 35.0549C43.6414 35.9116 43.5527 36.6994 43.3656 37.4871C43.0899 38.6293 42.8438 39.3974 42.3908 40.2344C41.9772 41.0024 41.8197 41.1501 41.2387 41.997C42.4302 44.3011 43.9762 44.7442 45.6206 44.7639C45.6403 44.7442 45.6698 44.7147 45.6895 44.695C46.4969 43.9565 47.5505 43.6512 47.0484 43.3361C46.556 43.021 46.7628 42.0068 47.2453 41.16C47.2748 41.1206 47.2945 41.0812 47.3241 41.0418C46.2311 41.0221 45.2858 40.8941 45.0691 39.7617C44.5965 37.3394 48.8011 34.8679 47.9346 29.5309L47.9247 29.5013ZM55.1228 45.6305C53.567 45.1283 52.474 43.9368 51.5878 42.9127C51.4696 43.1884 51.3219 43.4346 51.2628 43.5232C50.4948 44.7344 49.7858 44.3208 49.7562 44.5276C49.7365 44.6359 49.8153 44.6655 49.8941 44.7738C50.0024 44.7935 50.1107 44.823 50.2289 44.8526C50.7015 44.9806 51.8733 47.0385 55.2114 47.3635C58.6381 47.6983 60.765 46.1031 61.3263 45.2563C60.9718 45.5221 58.963 46.8515 55.1326 45.6206L55.1228 45.6305ZM50.3175 30.0232C50.8591 27.4926 50.7015 25.0112 50.2387 22.7661C48.7223 18.1578 44.3208 16.0309 41.9083 10.8317C42.2037 19.0046 51.0856 21.4663 50.3175 30.0331V30.0232ZM20.6293 38.3339C20.4028 37.6841 20.1566 36.7191 20.0188 35.5177C19.8711 34.277 19.9006 33.9816 19.8612 33.1939C19.6446 33.381 19.2114 33.2825 18.8864 32.9379C18.3645 32.3963 17.7934 31.0867 17.8328 29.9346C17.8722 28.9401 18.0987 27.8471 18.6796 27.719C19.1129 27.6206 19.3098 27.8372 19.4969 28.2606C19.5954 28.4871 19.6938 29.1271 19.6938 29.1271C19.6938 29.1271 19.8514 27.0298 21.2004 26.0254C21.3284 25.9368 21.486 25.8482 21.6632 25.7595C23.8394 24.7059 29.9542 23.7212 34.1392 18.5516C34.1392 18.5418 34.149 18.5319 34.1588 18.5123C35.7245 16.3656 35.5571 14.6523 35.1534 14.2486C35.1534 14.2486 33.4696 17.0845 31.4017 18.9357C26.9313 22.9433 17.3897 23.8394 15.2923 27.4532C14.219 21.4072 17.8328 17.9018 17.8328 17.9018C17.4685 17.7737 15.6468 19.94 14.8394 21.1906C18.3153 2.06804 35.626 4.28357 36.6698 8.0943C42.6961 4.21465 46.2508 14.9575 48.3088 16.9761V16.9466C47.6589 15.4893 47.0779 14.4258 46.881 13.9138C45.1282 9.51224 42.7945 3.8897 37.0735 5.68182C36.1578 2.39298 26.4389 2.7967 22.1162 6.31202C17.8426 9.7978 15.4302 14.5046 14.3273 22.2639C13.4411 24.3219 11.3536 30.614 17.1731 37.1129C17.1731 37.1129 18.6698 38.7771 18.4925 40.1852C18.3744 41.0911 17.5866 41.288 16.4247 41.5342C16.8186 42.1742 17.045 42.9817 16.9072 43.2081C16.7693 43.4543 16.5626 43.5429 16.9269 43.8974C16.986 43.9466 17.3897 44.3504 17.8623 44.823C19.9499 44.6458 21.7715 44.114 23.0319 42.5779C22.6381 42.0757 21.5352 40.3525 21.3186 39.9488C21.1118 39.5648 20.9247 39.1217 20.6391 38.3438L20.6293 38.3339ZM13.9925 45.0298C13.6577 45.1873 13.3032 45.3941 12.9488 45.6698C10.9794 47.2552 8.86232 47.6392 7.12928 47.3733C4.52972 46.9696 3.29886 45.9455 2.8656 45.3154C3.31856 45.6305 4.72665 46.4182 6.83388 46.1228C10.4871 45.6009 11.2748 44.2027 12.3973 43.1786C12.5549 43.602 12.7124 43.986 12.8798 44.2322C13.2836 44.9707 13.7168 45.0199 13.9925 45.0298Z" fill="#912637"/>
<path fill-rule="evenodd" clip-rule="evenodd" d="M28.359 40.165C29.1172 40.5687 30.033 41.1596 31.1162 41.2285C32.1895 41.3073 33.5483 41.2974 34.2967 40.9429C34.9958 40.6081 35.3897 39.909 35.8722 39.4561C34.4641 39.8598 33.0658 39.4561 31.5396 39.6038C31.382 39.6136 30.7814 39.6727 30.6337 39.6825C29.6687 39.7515 28.8415 39.5545 27.8667 39.5447C28.0538 39.6924 28.2212 39.9386 28.359 40.165Z" fill="#FFFFFE"/>
<path fill-rule="evenodd" clip-rule="evenodd" d="M26.764 29.2156C26.6951 29.58 26.6852 30.0034 26.4292 30.1806C25.8384 30.1314 25.2574 30.1215 25.0113 30.4268C24.962 30.476 24.8045 30.4268 24.6765 30.2594C24.5484 30.1018 24.4007 29.6489 24.7651 29.2747C24.9522 29.1959 25.1393 29.4126 25.4051 29.3535C25.5725 29.3141 25.6414 29.1664 25.6513 28.9793C25.5233 28.7331 25.1688 28.5559 24.7257 28.8808C24.2334 29.1369 23.8099 29.7966 23.7804 30.2003C23.7804 30.3185 23.9872 30.5843 24.2826 30.5942C24.3417 30.5942 24.4204 30.6336 24.4697 30.6927C25.1688 30.7222 27.0988 30.6336 27.6502 30.0231C27.3843 29.6194 27.1776 28.7528 26.7738 29.2156H26.764Z" fill="#FFFFFE"/>
<path fill-rule="evenodd" clip-rule="evenodd" d="M39.2005 30.6138C39.2005 30.279 39.5746 30.3184 39.7322 30.1412C39.9291 29.8064 39.7125 29.1466 39.2497 29.1269C39.2497 29.3436 39.2497 29.8458 38.974 30.1313C38.6983 30.407 38.1567 30.0525 37.6053 30.0525C37.2705 30.0525 37.1819 30.3184 36.8372 30.1805C36.8668 29.6587 37.1031 29.2352 37.2606 29.2057C37.4182 29.1762 37.7234 29.2943 38.0582 29.2648C38.1862 29.1959 38.3536 28.8808 38.1862 28.7331C37.8908 28.5066 37.5462 28.6051 37.3099 28.7331C37.0539 28.8808 36.5812 29.3633 36.3547 29.6784C36.2957 29.7571 36.2563 29.8359 36.207 29.9245C36.532 30.3873 37.3394 30.7123 38.2847 30.7123C38.5998 30.7123 38.9248 30.6729 39.2005 30.604V30.6138Z" fill="#FFFFFE"/>
<path fill-rule="evenodd" clip-rule="evenodd" d="M50.4652 41.0906C50.0812 40.7657 49.6971 40.421 49.3131 40.4309C48.9192 40.4407 48.7715 40.4998 48.6928 40.8247C48.614 41.1398 48.8503 41.0512 49.2147 41.1005C49.579 41.1497 49.9729 41.4057 50.1599 41.5534C50.3667 41.7208 50.7606 41.839 50.8591 41.6617C50.9674 41.4845 50.8197 41.386 50.4652 41.0808V41.0906Z" fill="#FFFFFE"/>
<path fill-rule="evenodd" clip-rule="evenodd" d="M14.278 40.953C13.8349 41.0022 13.2933 41.0318 13.057 41.337C12.8207 41.6324 12.7911 41.7112 12.9585 41.9968C13.1259 42.2922 13.2047 42.046 13.4607 41.8097C13.7266 41.5734 14.0417 41.4453 14.2484 41.4158C14.4848 41.3863 14.7703 41.2583 14.859 41.0022C14.918 40.8053 14.7014 40.9136 14.278 40.953Z" fill="#FFFFFE"/>
<path fill-rule="evenodd" clip-rule="evenodd" d="M31.776 52.9363C32.032 52.8379 32.5243 52.7886 32.8296 52.9954C33.125 53.1924 33.2825 53.3401 33.4204 53.5961C33.5681 53.862 33.6961 54.2558 33.6075 54.6792C33.4795 55.2701 32.6917 55.7329 31.8547 55.5162C30.4466 55.1617 30.9488 53.2711 31.776 52.9363ZM32.0615 48.0425C34.2968 48.0129 36.6501 46.5556 39.3974 44.2416C39.8307 49.618 40.3821 46.2208 40.4018 43.7394C40.4215 43.1486 40.451 43.1191 41.0024 42.3412C41.7902 41.1595 41.9182 41.0808 42.3909 40.2241C42.8438 39.3871 43.0998 38.6289 43.3657 37.4768C43.5528 36.6891 43.6414 35.9013 43.73 35.0446C43.8285 33.863 43.7596 33.4888 43.73 33.1836C43.5725 34.0403 43.3558 35.6059 42.9817 36.9155C42.3022 39.3182 41.544 40.3324 40.7267 41.2875C40.0965 42.0261 39.5648 42.5085 38.521 43.4735C37.6151 44.3204 36.9357 44.9112 35.6359 45.6595C35.0254 46.0042 34.0112 46.7328 32.1501 46.7525C30.1709 46.7722 28.7234 45.7777 27.9357 45.2854C27.0495 44.7339 26.695 44.4484 25.9072 43.8182C25.3164 43.3455 24.3908 42.5873 23.9477 42.1245C23.1797 41.3269 22.3821 40.4309 21.742 39.2985C21.1118 38.2153 20.7672 37.3882 20.3536 35.5862C20.265 35.1923 20.0188 33.9418 19.8514 33.1934C19.8908 33.991 19.8711 34.2864 20.009 35.5173C20.1468 36.7285 20.393 37.6934 20.6195 38.3335C20.8952 39.1114 21.0921 39.5545 21.2989 39.9385C21.5254 40.3521 22.7169 42.2131 23.0615 42.6267C23.3963 43.0107 23.5243 43.5425 23.5243 43.828C23.5243 44.4779 23.4554 46.2996 23.4554 46.2996C22.904 45.7186 22.067 45.2558 22.1556 46.1026C22.2738 47.1563 22.195 48.1705 21.8799 49.2536C21.5943 50.2186 20.6786 51.3018 20.1272 51.5184C20.7377 51.9221 22.1458 50.8488 22.6282 49.8838C22.8941 49.3619 23.0123 48.8893 23.0615 48.5447C23.1304 48.1212 23.4751 48.6136 23.5735 48.7613C24.0363 49.4407 24.0265 50.1398 24.9718 50.2974C25.6808 50.4156 26.2913 49.549 26.3011 49.5884C26.567 50.5239 27.3153 51.6169 27.8766 51.7153C28.753 51.8729 29.3438 51.0556 29.3438 51.0556C29.7475 51.6464 30.3088 52.1191 31.0079 52.3062C30.2497 52.8477 29.4718 53.99 29.846 55.2405C30.1808 56.2252 31.4609 56.6683 32.5145 56.5994C33.9718 56.4911 35.2125 55.4374 34.8482 53.7832C34.6611 53.0841 34.218 52.6803 33.7059 52.2963C34.6512 51.9517 34.8876 51.4692 35.0747 51.1442C35.3208 50.711 35.6753 51.8335 36.7388 51.8237C37.8613 51.8237 38.521 49.549 38.521 49.549C38.521 49.549 39.0528 50.3663 39.614 50.2186C40.0473 50.1005 40.7366 48.9287 40.7366 48.9287C41.1009 48.2689 40.9631 48.2788 41.4554 49.5589C42.2431 51.607 44.2617 52.1289 43.4642 51.1836C42.6666 50.2383 42.0167 48.8795 41.9576 47.4714C41.9182 46.467 41.8887 45.8762 41.4554 45.7186C41.1501 45.6005 40.9434 45.7186 40.7957 46.1125C40.5101 46.9101 39.9784 48.8401 39.427 48.7514C38.8755 48.6727 38.7968 47.8652 38.3241 47.9932C37.3985 48.2394 37.5757 50.0709 36.5714 50.4353C35.9609 50.6617 35.6261 49.2635 35.055 49.4407C34.6906 49.549 34.3952 50.1497 33.893 50.7307C33.3613 51.351 32.7311 51.4002 32.2978 51.7843C31.3329 51.2919 30.4368 51.0064 29.9346 49.7755C29.4718 48.6333 28.5954 50.7208 28.1228 50.3565C27.3252 49.7361 27.3646 48.4363 26.6261 48.0228C25.9368 47.6388 25.3558 49.49 24.9619 48.9385C24.7256 48.6234 24.5582 48.3674 24.4302 48.1508C24.4499 46.5261 24.4598 45.3444 24.4893 44.1431C27.5123 46.6245 29.8066 48.072 32.0024 48.0425H32.0615Z" fill="#3B302F"/>
<path fill-rule="evenodd" clip-rule="evenodd" d="M30.6338 39.6831C30.7914 39.6831 31.3822 39.6142 31.5397 39.6044C33.066 39.4665 34.4642 39.8505 35.8723 39.4566C35.3898 39.8998 34.996 40.6087 34.2968 40.9435C33.5485 41.3079 32.1896 41.3079 31.1163 41.2291C30.0332 41.1602 29.1174 40.5693 28.3592 40.1656C28.1524 40.7761 28.5167 41.0026 28.9894 41.4162C29.5211 41.8888 30.3483 42.5387 31.5988 42.5683C33.4106 42.6175 34.8384 42.4402 35.7443 40.9534C36.02 40.461 36.7684 39.4665 37.5463 39.0923C37.9796 38.8855 38.9839 38.4227 38.8165 38.1667C38.5211 37.7925 37.9303 37.8516 37.5069 37.9501C37.182 38.019 37.0933 38.6 36.5518 38.6492C35.2815 38.8068 34.0408 38.3735 32.4752 38.4227C31.3428 38.4523 30.4566 38.7181 29.2454 38.8068C28.0835 38.8954 27.6798 38.2849 26.5868 38.1569C26.0944 38.0978 25.996 38.3833 26.3701 38.8461C26.7246 39.2105 27.3351 39.5551 27.8275 39.5453C28.822 39.5453 29.6491 39.7521 30.6338 39.6831Z" fill="#3B302F"/>
<path fill-rule="evenodd" clip-rule="evenodd" d="M35.3503 25.8481C35.3995 26.0352 36.0789 25.8481 36.394 25.7299C36.6402 25.6314 36.847 25.533 37.1522 25.4641C37.3689 25.4148 37.6741 25.3853 37.8809 25.3853C38.3634 25.3853 38.6785 25.3853 39.0921 25.4542C39.7419 25.5625 40.9826 26.2026 41.0811 25.9269C41.1894 25.3951 40.7266 24.9717 40.3721 24.7846C39.4958 24.312 38.1665 24.0756 36.9651 24.5581C36.5614 24.7452 36.4334 24.9126 36.0494 25.1588C35.7934 25.336 35.3109 25.6216 35.3404 25.8481H35.3503Z" fill="#3B302F"/>
<path fill-rule="evenodd" clip-rule="evenodd" d="M33.9126 34.828C33.2234 34.6212 33.056 35.3597 32.3568 35.3597C31.3721 35.3597 31.1654 34.7295 30.6435 34.7886C30.2102 34.8378 29.9936 35.4877 29.6982 35.5369C29.4619 35.4877 29.5111 35.8816 29.8065 35.9604C30.3973 36.1081 30.2693 35.6157 30.6632 35.7536C30.8897 35.8422 30.9389 36.2361 31.6085 36.5413C32.2682 36.8367 32.9279 36.4822 33.5286 35.9505C33.8535 35.6354 34.4345 35.6157 34.4641 35.468C34.4837 35.3991 34.3656 35.34 34.3164 35.2711C34.208 35.1037 34.0899 34.8969 33.9323 34.8477L33.9126 34.828Z" fill="#3B302F"/>
<path fill-rule="evenodd" clip-rule="evenodd" d="M23.1304 30.5651C23.4061 30.7128 24.0067 30.9984 24.4794 30.8605C24.5385 30.6833 24.3809 30.5947 24.2825 30.5848C23.9871 30.575 23.7704 30.3091 23.7803 30.1909C23.8197 29.7872 24.2332 29.1373 24.7256 28.8715C25.1785 28.5564 25.5232 28.7238 25.6512 28.9699C25.6413 29.1669 25.5724 29.3146 25.405 29.3441C25.149 29.4032 24.9619 29.1767 24.765 29.2653C24.4006 29.6395 24.5483 30.1023 24.6763 30.2599C24.8043 30.4174 24.9619 30.4765 25.0111 30.4273C25.2573 30.122 25.8383 30.1319 26.4291 30.1811C26.6752 30.0038 26.6949 29.5804 26.7639 29.2161C27.1873 28.7434 27.3941 29.6986 27.6698 30.0728C27.847 30.3189 28.044 30.6143 28.3 30.6439C28.7234 30.6833 29.2748 30.3485 29.068 29.7281C28.9499 29.5706 28.6052 29.8955 28.4772 29.7872C27.9652 29.3047 28.428 28.3299 27.3744 27.7982C26.242 27.2369 24.4892 27.4338 23.7901 28.3102C23.5144 28.6548 23.219 29.029 23.0024 29.6001C22.8941 29.9841 22.7956 30.378 23.1304 30.575V30.5651Z" fill="#3B302F"/>
<path fill-rule="evenodd" clip-rule="evenodd" d="M37.8316 27.5711C37.3688 27.7188 36.65 28.3687 36.4039 28.7428C36.0888 29.2056 35.8918 30.0426 35.4979 30.0623C35.3404 30.0032 35.498 29.6586 35.2616 29.6881C34.9564 29.7571 34.7791 30.0229 34.8579 30.3282C34.917 30.4857 35.0548 30.6039 35.2715 30.6236C35.9903 30.7122 36.0986 30.0623 36.3743 29.6783C36.6008 29.3632 37.0833 28.8807 37.3295 28.733C37.5658 28.5951 37.9104 28.4967 38.2058 28.733C38.3732 28.8807 38.2058 29.2056 38.0778 29.2647C37.7529 29.2943 37.4378 29.1662 37.2802 29.2056C37.1227 29.2352 36.8864 29.6586 36.8568 30.1805C37.2015 30.3183 37.2802 30.0623 37.6249 30.0525C38.1763 30.0525 38.708 30.3971 38.9936 30.1312C39.2693 29.8555 39.2693 29.3533 39.2693 29.1269C39.7321 29.1466 39.9487 29.7964 39.7518 30.1411C39.5942 30.3183 39.2201 30.2888 39.2201 30.6137C40.8054 30.9288 40.9629 30.2789 41.0811 29.9146C41.1697 29.6291 41.1303 29.3927 41.0023 28.9989C40.5395 27.8271 39.1216 27.1575 37.8513 27.5711H37.8316Z" fill="#3B302F"/>
<path fill-rule="evenodd" clip-rule="evenodd" d="M27.7782 25.0304C27.4533 24.8236 27.1874 24.6267 26.8231 24.4888C26.5375 24.3904 26.0944 24.3018 25.7005 24.3018C24.7257 24.6759 23.8296 24.9615 23.0813 25.2175C22.8351 25.5031 22.7169 25.8576 22.8056 26.1136C22.904 26.3991 24.125 25.6902 24.7651 25.5228C25.2476 25.4046 25.4839 25.4046 25.9664 25.3751C26.1732 25.3652 26.4883 25.3751 26.7049 25.4046C27.0495 25.444 27.2071 25.5523 27.4828 25.6212C27.8078 25.7099 28.4675 25.8674 28.5266 25.6803C28.5561 25.4538 28.0342 25.1978 27.7684 25.0304H27.7782Z" fill="#3B302F"/>
<path fill-rule="evenodd" clip-rule="evenodd" d="M49.0866 44.2614C47.9739 44.1925 48.0133 44.0842 47.6391 43.838C47.521 43.7592 47.0385 43.9956 47.3831 44.3107C47.5013 44.4091 47.7573 44.7144 47.6588 45.0886C47.5308 45.5711 46.8219 46.4868 47.5111 46.3884C48.2989 46.2899 48.486 45.1772 48.5648 45.0196C48.6534 44.8522 48.7912 44.7833 48.9586 44.7636C49.2934 44.7242 49.6479 44.291 49.0768 44.2614H49.0866Z" fill="#3B302F"/>
<path fill-rule="evenodd" clip-rule="evenodd" d="M51.3514 39.6339C51.1249 40.1164 50.9674 40.7564 50.3273 40.4217C49.5199 39.9982 50.5243 39.3484 51.1446 38.6985C51.7256 38.088 51.5286 39.2597 51.3514 39.6339Z" fill="#3B302F"/>
<path fill-rule="evenodd" clip-rule="evenodd" d="M14.7999 44.419C15.7748 44.0153 15.7551 44.0054 16.1096 43.7199C16.2277 43.6312 16.5133 43.7789 16.2474 44.2221C16.1391 44.3993 15.9619 44.3205 16.0013 44.7144C16.0505 45.2264 17.1435 46.0043 16.405 46.152C15.7354 46.2899 15.3514 45.0492 15.3021 44.8719C15.243 44.6947 14.9476 44.8916 14.7999 44.8719C14.4848 44.8424 14.2288 44.6455 14.7999 44.4091V44.419Z" fill="#3B302F"/>
<path fill-rule="evenodd" clip-rule="evenodd" d="M12.6928 39.3675C12.7815 40.0666 13.3329 40.8544 13.7957 40.4211C14.0812 40.1454 13.5298 40.0666 13.1458 38.4518C12.8996 37.408 12.6239 38.8259 12.7027 39.3675H12.6928Z" fill="#3B302F"/>
<path fill-rule="evenodd" clip-rule="evenodd" d="M55.5365 49.9823H55.8417C55.9993 49.9823 56.1076 49.8937 56.1076 49.7362C56.1076 49.5885 55.9993 49.49 55.8417 49.49H55.5365V49.9823ZM56.3538 50.5633V50.5928H56.147L55.8122 50.1497H55.5365V50.5928H55.3395V49.3226H55.8614C56.1174 49.3226 56.3144 49.4703 56.3144 49.7362C56.3144 49.9233 56.1962 50.0808 56.019 50.1202L56.3538 50.5633ZM56.8461 49.9528C56.8461 48.4561 54.67 48.4561 54.67 49.9528C54.67 51.4495 56.8461 51.4397 56.8461 49.9528ZM54.4435 49.9528C54.4435 48.1902 57.0824 48.1902 57.0824 49.9528C57.0824 51.7154 54.4435 51.7252 54.4435 49.9528Z" fill="#3B302F"/>
</svg>
