<svg width="168" height="136" viewBox="0 0 168 136" fill="none" xmlns="http://www.w3.org/2000/svg">
<g clip-path="url(#clip0_2103_187)">
<path fill-rule="evenodd" clip-rule="evenodd" d="M52.9871 100.08C54.6547 97.3805 56.7676 95.7049 57.5012 96.2318C58.2354 96.758 57.7593 99.2845 56.5403 101.168C55.6843 102.49 53.5176 105.417 50.1177 106.659C50.5585 103.959 52.2025 101.35 52.9871 100.08ZM60.3582 112.703C59.1026 111.991 57.6708 112.717 56.3268 113.699C55.2795 114.465 54.1805 115.318 52.6812 115.189C51.1152 115.055 50.5585 114.182 50.3928 112.507C63.075 108.516 65.0484 96.1238 63.8878 92.8689C63.1785 90.8798 61.8817 89.0006 57.5922 89.6087C52.9236 90.2691 46.4197 94.9581 43.1933 106.602C41.5585 106.504 40.1759 106.156 40.1759 106.156C44.2321 88.8292 47.8403 80.4768 48.2942 78.2613C48.885 75.3709 46.8572 73.0127 44.3539 73.5631C41.6987 74.1522 40.1366 77.5308 38.0223 84.9773C36.2421 91.245 35.2328 95.2376 33.7872 102.009C33.1611 105.094 32.0024 110.807 31.9186 111.269C31.7477 112.209 31.4745 114.009 30.9047 113.978C30.3349 113.946 30.2059 111.898 30.1607 111.257C29.8574 106.917 29.2909 97.3006 29.5417 90.8994C29.6969 86.9487 29.6452 86.3106 29.3871 85.2987C28.8867 83.3417 26.4588 82.1753 23.8094 82.8455C21.1659 83.5164 20.3858 86.4866 18.8578 90.5388C17.8269 93.2832 16.268 98.1593 14.7118 102.893C13.2584 107.793 11.025 115.875 10.9097 116.285C10.6864 117.08 10.4257 117.58 10.0471 117.58C9.55391 117.58 9.59451 116.326 9.56635 115.731C9.54998 115.382 9.42029 111.047 9.79756 105.8C10.3464 98.1718 11.507 88.5608 11.8077 86.0036C12.3009 81.8075 11.978 78.3712 6.29738 79.641C3.37227 80.2955 0.504147 82.2931 1.78855 83.6166C2.87187 84.7332 2.98453 87.0934 2.94654 88.7977C2.91248 90.3267 1.83112 106.324 1.68113 112.012C1.55145 116.928 1.47339 134.262 6.25546 135.188C10.801 136.068 13.9082 133.146 14.4498 130.872C15.057 128.32 18.2749 115.717 19.3844 111.544C20.0263 109.06 20.8607 106.281 21.308 104.84C21.5746 104.111 21.7076 103.913 21.8785 103.869C22.0495 103.825 22.2997 103.788 22.263 105.015C22.3567 111.832 23.4046 120.475 24.3229 124.069C24.9235 126.42 25.4442 129.666 28.7204 129.856C34.2097 130.176 35.1542 127.28 35.7522 124.655C36.1445 122.992 38.412 113.703 38.6033 112.861C39.0951 113.016 42.2495 113.443 42.2495 113.443C42.2495 113.443 42.742 120.217 47.1323 122.31C51.5226 124.404 58.1928 122.047 60.894 116.269C61.2516 115.503 61.6773 113.453 60.3582 112.703ZM103.049 104.001C101.889 105.353 98.4796 108.68 97.3746 108.172C96.4596 107.751 97.2986 104.122 99.0605 101.315C102.979 95.0726 107.785 94.0823 107.785 94.0823C107.785 94.0823 107.14 99.2301 103.049 104.001ZM116.244 86.2752C117.876 74.5567 122.907 67.1704 118.286 66.3163C116.26 65.9406 113.902 67.228 112.827 69.3938C110.714 73.6567 109.026 85.6593 109.026 85.6593C103.937 86.429 89.997 93.8434 88.9615 109.613C83.9726 105.202 91.1668 92.8518 86.3842 89.6146C83.0058 87.329 76.743 92.2366 74.1683 96.3804C76.0002 91.944 77.6154 89.1001 75.1383 87.7538C73.6286 86.933 69.1656 87.5718 67.0494 94.2865C63.8767 104.357 62.8183 115.432 64.6869 118.125C66.2038 120.31 69.7977 119.1 71.1508 116.772C72.5112 114.431 73.8552 101.031 79.9524 99.651C78.3732 108.974 80.2811 115.79 83.613 116.93C85.6644 117.632 88.7958 116.389 89.7874 114.079C93.4494 120.59 105.031 111.675 106.352 109.308C105.853 114.232 107.703 117.053 108.369 117.96C109.111 118.959 111.171 120.204 113.727 118.903C114.746 118.385 116.396 116.839 116.096 114.639C115.935 113.459 114.638 112.639 114.172 109.769C113.53 105.813 114.995 94.1661 114.995 94.1661C114.995 94.1661 118.308 94.3782 118.67 90.434C118.949 87.4147 116.244 86.2752 116.244 86.2752ZM157.257 100.82C156.528 100.436 153.901 98.9428 153.953 98.1004C154.077 96.1015 157.865 94.4299 159.108 94.8671C159.877 95.1728 159.105 97.1874 160.649 98.249C162.262 99.3584 165.31 98.9965 166.191 95.5256C167.641 89.8149 164.413 84.8857 156.044 87.5227C150.12 89.3894 144.206 96.0236 145.212 100.658C145.984 104.216 149.993 105.684 152.85 107.106C154.695 108.024 155.91 108.685 155.608 109.493C155.405 110.042 154.194 110.437 152.107 110.314C149.541 110.163 148.129 107.645 145.81 108.576C143.653 109.442 143.173 110.797 143.073 111.861C142.859 114.155 143.828 117.86 149.501 118.466C155.921 119.153 160.713 116.143 162.485 114.299C165.4 111.267 165.309 107.635 164.158 105.866C162.143 102.77 157.985 101.203 157.257 100.82ZM116.599 126.528C117.674 125.971 118.541 126.547 121.715 126.67C124.89 126.793 127.104 125.904 128.219 124.997C132.395 121.597 132.234 115.001 132.618 111.368C132.618 111.368 126.641 119.075 122.091 116.512C114.716 112.36 118.498 91.4309 122.632 87.9626C125.782 84.7718 129.367 85.8884 129.756 88.0038C130.444 91.7437 127.27 92.3151 125.897 102.279C125.702 103.696 125.411 107.891 127.006 107.891C128.726 107.891 130.365 105.401 131.65 102.653C133.229 99.274 134.273 95.5059 134.273 95.5059C136.849 86.0291 140.165 85.6855 142.162 86.2202C144.497 86.8453 144.377 89.3875 144.108 91.5624C143.954 92.8014 142.12 99.3565 140.895 106.731C140.125 111.362 140.079 115.854 139.321 120.032C138.164 126.419 134.818 132.177 126.788 134.06C122.317 135.109 115.474 134.905 115.235 129.176C115.181 127.863 115.817 126.933 116.599 126.528ZM145.974 86.0115C146.068 85.6999 146.706 84.4923 146.706 83.1034C146.706 81.7139 146.185 80.4716 146.555 79.2935C147.265 77.0399 150.163 77.6814 150.94 78.0603C153.419 79.2712 152.941 82.9994 152.719 83.9746C151.832 87.886 149.558 89.8293 147.082 88.8874C145.695 88.3592 145.774 86.7026 145.974 86.0115Z" fill="#C8102E"/>
<path fill-rule="evenodd" clip-rule="evenodd" d="M83.9736 74.3138C72.3399 74.3138 61.494 68.6508 54.8707 59.1345C54.6245 59.1468 54.3906 59.1591 54.1567 59.1591C53.6396 59.1591 53.1349 59.1222 52.6425 59.0483C52.2239 58.9868 51.8299 58.9006 51.4606 58.8144L51.2144 58.7529C50.8574 58.6667 50.6112 58.5928 50.3773 58.519L50.0695 58.4205C49.811 58.3343 49.577 58.2358 49.3678 58.1496L49.1462 58.0635C48.863 57.9403 48.5922 57.8049 48.3583 57.6695L48.2229 57.5833C48.0259 57.4725 47.8412 57.3494 47.6689 57.2386L47.4965 57.1155C47.3242 56.9924 47.201 56.8939 47.0779 56.7831L46.9302 56.66C46.7579 56.5123 46.6224 56.3646 46.4993 56.2291C46.327 56.0322 46.2039 55.8721 46.0931 55.7244L45.8222 55.3304L45.8469 55.3058C45.5021 54.6533 45.4775 54.0994 45.5637 53.6808C45.5268 53.6438 45.5021 53.6069 45.4652 53.5577C43.8771 51.4648 43.6924 48.5471 44.4311 47.0452C45.0466 45.8141 46.1177 45.7156 46.4378 45.7156C46.5978 45.7156 46.7455 45.728 46.8933 45.7649C46.8933 45.3094 46.9671 44.9154 47.1026 44.6077C47.4226 43.9059 48.0874 43.4504 48.8384 43.4258C48.6537 41.9855 48.5676 40.5328 48.5676 39.0924C48.5676 26.4368 55.437 14.7045 66.5168 8.45062C67.6863 6.97332 68.979 5.65605 70.4809 4.43728C71.2319 3.82173 72.1306 3.25543 73.1278 2.75069C76.0454 1.28569 79.911 0.411621 83.4566 0.411621C83.6659 0.411621 83.8628 0.411621 84.0598 0.411621C87.3961 0.510108 89.9321 1.4088 91.2494 2.94766C91.7787 2.84917 92.3081 2.79993 92.8129 2.79993C96.2968 2.79993 99.1037 4.63425 101.394 8.426C112.486 14.6799 119.367 26.4122 119.367 39.0801C119.367 40.5205 119.281 41.9855 119.097 43.4258C119.134 43.4258 119.17 43.4258 119.195 43.4258C119.971 43.4258 120.66 43.8813 121.005 44.6077C121.14 44.9154 121.214 45.3094 121.226 45.7526C121.374 45.7156 121.534 45.7033 121.706 45.7033C122.26 45.7033 123.59 45.9496 123.935 48.1778C124.169 49.6674 123.935 51.8341 122.617 53.5946C122.741 54.0624 122.741 54.7518 122.199 55.5767C122.063 55.7736 121.903 55.9829 121.706 56.1922L121.608 56.303C121.411 56.5 121.214 56.6969 120.968 56.8816L120.845 56.9678C120.623 57.1401 120.377 57.3125 120.106 57.4848L120.008 57.5464C119.712 57.7188 119.392 57.8911 119.06 58.0511L118.838 58.1496C118.506 58.2974 118.136 58.4451 117.73 58.5682L117.582 58.6051C117.213 58.7159 116.819 58.8021 116.4 58.876L116.191 58.9129C115.711 58.9868 115.243 59.036 114.763 59.0606H114.098C113.778 59.0606 113.47 59.0606 113.138 59.0237C106.515 68.5769 95.6567 74.2646 83.9859 74.2646L83.9736 74.3138Z" fill="white"/>
<path fill-rule="evenodd" clip-rule="evenodd" d="M83.9737 73.6982C72.3768 73.6982 61.6663 68.0229 55.1662 58.4942C54.8215 58.5312 54.4768 58.5435 54.1444 58.5435C53.6643 58.5435 53.1842 58.5065 52.7287 58.4327C52.3224 58.3711 51.9531 58.2973 51.596 58.2111L51.3621 58.1495C51.0297 58.0634 50.7958 58.0018 50.5619 57.9279L50.2542 57.8294C50.0203 57.7433 49.7987 57.6694 49.6017 57.5709L49.3801 57.4724C49.1216 57.3616 48.8753 57.2385 48.6538 57.1031L48.5306 57.0292C48.346 56.9184 48.1736 56.8076 48.0136 56.6968L47.8535 56.5737C47.7058 56.4629 47.5827 56.3645 47.4719 56.2783L47.3242 56.1552C47.1764 56.0197 47.0533 55.8966 46.9425 55.7735C46.7948 55.6012 46.684 55.4658 46.5855 55.3303L46.6471 55.2565L46.5732 55.3057C46.0069 54.4932 46.0562 53.89 46.2285 53.5083C46.13 53.3975 46.0315 53.2744 45.9454 53.1513C44.4065 51.1323 44.3942 48.4486 44.9728 47.279C45.416 46.3803 46.1423 46.2942 46.4255 46.2942C46.8687 46.2942 47.2996 46.4911 47.6196 46.8605C47.6196 46.8605 47.6196 46.8728 47.6319 46.8851C47.4473 46.0356 47.4473 45.297 47.6566 44.8415C47.8905 44.3367 48.3583 44.0166 48.9 44.0166C49.0723 44.0166 49.3185 44.0536 49.5648 44.189C49.3062 42.4901 49.1831 40.7789 49.1831 39.0554C49.1831 26.5598 55.9787 15.0245 66.9231 8.89371C68.0803 7.41641 69.373 6.09914 70.8626 4.88037C71.5889 4.28945 72.4384 3.74777 73.3986 3.26764C76.2301 1.85189 79.9972 1.00244 83.4566 1.00244C83.6536 1.00244 83.8505 1.00244 84.0475 1.00244C87.4453 1.10093 89.8952 2.02424 91.0032 3.60004C91.631 3.46462 92.2343 3.39075 92.8252 3.39075C96.1368 3.39075 98.7713 5.17583 100.963 8.85678C111.956 14.9876 118.764 26.5229 118.764 39.0554C118.764 40.8158 118.629 42.564 118.358 44.3121C118.678 44.0782 118.998 44.0166 119.207 44.0166C119.749 44.0166 120.217 44.3367 120.451 44.8415C120.66 45.3093 120.672 46.0479 120.475 46.8974C120.783 46.5773 121.153 46.2818 121.706 46.2818C122.199 46.2818 123.061 46.5404 123.332 48.2393C123.541 49.6058 123.356 51.7602 121.916 53.4468C122.1 53.8038 122.211 54.407 121.682 55.2072C121.571 55.3796 121.423 55.5642 121.251 55.7489L121.153 55.8597C120.98 56.0321 120.795 56.2044 120.574 56.3768L120.463 56.4629C120.241 56.6353 120.02 56.7953 119.774 56.9431L119.663 57.0169C119.404 57.177 119.097 57.3247 118.789 57.4724L118.567 57.5709C118.247 57.7063 117.902 57.8418 117.533 57.9649L117.41 58.0018C117.053 58.1126 116.671 58.1988 116.277 58.2603L116.068 58.2973C115.637 58.3711 115.194 58.4081 114.726 58.4327H114.074C113.692 58.4327 113.31 58.4327 112.904 58.3834C112.88 58.3834 112.855 58.3834 112.818 58.3834C106.33 67.9613 95.6074 73.6489 83.9737 73.6489V73.6982Z" fill="white"/>
<path fill-rule="evenodd" clip-rule="evenodd" d="M120.82 54.0377C120.66 53.7299 119.306 54.8748 118.382 54.3577C123.196 52.7943 122.273 47.5498 121.706 47.5498C121.239 47.5498 120.414 49.6919 117.804 49.5565C119.503 47.5991 119.687 44.8414 119.072 45.3462C118.875 45.5062 117.989 46.885 116.302 48.0176C117.09 45.1738 117.521 42.1823 117.521 39.0923C117.521 26.4613 110.467 15.4677 100.052 9.80468C98.3896 6.91163 96.1737 4.60949 92.8251 4.65874C92.0618 4.65874 91.2247 4.80647 90.326 5.07731C89.8213 3.27992 87.2237 2.36891 83.9859 2.27043C80.7605 2.17194 76.9072 2.91059 73.9279 4.40021C73.0785 4.83109 72.2906 5.31121 71.6258 5.8652C70.1485 7.07167 68.8558 8.38893 67.7232 9.87855C57.3944 15.5662 50.3895 26.5105 50.3895 39.0923C50.3895 42.1577 50.8081 45.1246 51.596 47.9438C50.2295 46.9835 49.5278 45.8756 48.9984 45.3339C48.4075 44.8414 48.5798 47.5991 50.2787 49.5688C48.4075 49.6304 47.4226 48.6455 46.684 47.7222C45.8468 46.7989 45.1697 50.172 46.9055 52.4496C48.1736 54.1238 49.7247 54.3947 49.7247 54.3947C48.6906 54.7025 47.7427 54.1731 47.4718 54.0254C47.2749 53.9146 47.2626 54.1977 47.5703 54.6532C47.6319 54.7517 47.7181 54.8502 47.8042 54.9487C47.8042 54.9487 47.8042 54.9487 47.8166 54.961C47.9027 55.0595 48.0012 55.158 48.112 55.2564C48.1489 55.2934 48.1859 55.318 48.2228 55.3549C48.3213 55.4411 48.4198 55.515 48.5306 55.6011C48.5798 55.6381 48.6291 55.675 48.6783 55.7119C48.8137 55.7981 48.9492 55.8966 49.1092 55.9828C49.1461 56.0074 49.1831 56.032 49.22 56.0443C49.417 56.1551 49.6263 56.2659 49.8602 56.3644C49.9217 56.389 49.9833 56.4137 50.0448 56.4383C50.2295 56.5121 50.4141 56.586 50.6234 56.6599C50.7096 56.6968 50.8081 56.7214 50.9066 56.7461C51.1036 56.8076 51.3252 56.8692 51.5467 56.9307C51.6452 56.9553 51.7437 56.98 51.8422 57.0046C52.1746 57.0784 52.507 57.1523 52.8886 57.2139C53.775 57.3493 54.7353 57.337 55.7448 57.1523C61.7155 66.3609 72.1182 72.4547 83.949 72.4547C95.7797 72.4547 106.244 66.3116 112.215 57.0661C112.473 57.1154 112.719 57.1769 113.003 57.2016C113.483 57.2508 113.938 57.2508 114.381 57.2508C114.468 57.2508 114.554 57.2508 114.64 57.2508C115.059 57.2262 115.453 57.1892 115.834 57.1277C115.908 57.1277 115.97 57.1031 116.043 57.0908C116.388 57.0292 116.733 56.9553 117.041 56.8569C117.078 56.8569 117.114 56.8322 117.151 56.8199C117.484 56.7214 117.792 56.5983 118.075 56.4752C118.136 56.4506 118.198 56.426 118.259 56.389C118.53 56.2659 118.789 56.1305 119.023 55.9828C119.06 55.9582 119.084 55.9459 119.109 55.9212C119.318 55.7858 119.515 55.6504 119.687 55.515C119.724 55.4903 119.761 55.4657 119.786 55.4411C119.958 55.2934 120.118 55.158 120.241 55.0225C120.266 54.9979 120.291 54.961 120.328 54.9364C120.451 54.8009 120.562 54.6778 120.635 54.5547C120.795 54.3085 120.845 54.1238 120.795 54.013L120.82 54.0377Z" fill="white"/>
<path fill-rule="evenodd" clip-rule="evenodd" d="M83.9736 5.72998C65.4458 5.72998 50.4142 20.6754 50.4142 39.1048C50.4142 57.5342 65.4335 72.4796 83.9736 72.4796C102.514 72.4796 117.533 57.5342 117.533 39.1048C117.533 20.6754 102.502 5.72998 83.9736 5.72998Z" fill="#3B302F"/>
<path fill-rule="evenodd" clip-rule="evenodd" d="M83.9736 69.8325C66.9354 69.8325 53.061 56.0443 53.061 39.0922C53.061 22.1401 66.9354 8.36426 83.9736 8.36426C101.012 8.36426 114.886 22.1524 114.886 39.1045C114.886 56.0566 101.024 69.8448 83.9736 69.8448V69.8325Z" fill="#FFFFFE"/>
<path fill-rule="evenodd" clip-rule="evenodd" d="M99.8917 39.1541C99.2761 39.7204 98.8698 39.5972 98.6729 39.4741C98.4759 40.5452 98.2051 42.5026 97.7372 44.14C96.8878 47.1438 95.9399 48.4118 94.9181 49.606C94.1302 50.5293 93.4654 51.1325 92.1604 52.339C91.0278 53.3977 90.1784 54.1364 88.5533 55.072C87.7901 55.5029 86.522 56.4139 84.1953 56.4385C81.7208 56.4631 79.9111 55.2197 78.9262 54.6042C77.8182 53.9148 77.3751 53.5578 76.3902 52.7699C75.6515 52.179 74.4943 51.231 73.9403 50.6524C72.9801 49.6552 71.9829 48.5349 71.1827 47.1192C70.3948 45.765 69.9639 44.7309 69.4469 42.478C69.3361 41.9856 69.0283 40.4221 68.819 39.4864C68.5482 39.7204 68.0065 39.5972 67.6002 39.1664C66.9477 38.4893 66.2214 36.8519 66.283 35.4115C66.3322 34.1682 66.6153 32.8016 67.3417 32.6416C67.8834 32.5185 68.1296 32.7893 68.3635 33.3187C68.4866 33.6018 68.6097 34.4021 68.6097 34.4021C68.6097 34.4021 68.8067 31.7798 70.4933 30.5241C72.4999 29.0468 81.0068 28.1728 86.6821 21.1802C86.1158 24.4426 84.5523 27.3479 81.4746 30.2656C86.9406 30.955 92.8498 23.0268 93.1207 21.3771C93.9455 25.1689 98.8945 29.884 99.0914 33.3187C99.35 32.7893 99.5716 32.5185 100.113 32.6416C100.852 32.814 101.147 34.1805 101.172 35.4115C101.197 36.8273 100.544 38.5262 99.8547 39.1664L99.8917 39.1541Z" fill="#EFD1CF"/>
<path fill-rule="evenodd" clip-rule="evenodd" d="M93.2438 53.2994C89.8213 56.1924 86.8667 58.0144 84.0722 58.0514C81.3268 58.0883 78.4584 56.2786 74.679 53.1763C74.642 54.6782 74.642 56.1555 74.6051 58.1868C74.7651 58.4576 74.9744 58.7654 75.2699 59.1717C75.7623 59.8611 76.4887 57.5343 77.3504 58.0268C78.2737 58.5438 78.2245 60.1812 79.2217 60.9444C79.8126 61.3999 80.9083 58.8023 81.4869 60.2181C82.1147 61.757 83.2227 62.114 84.4415 62.7295C84.9832 62.2617 85.7711 62.1878 86.4359 61.4122C87.0514 60.6859 87.433 59.9349 87.8885 59.7995C88.6026 59.5779 89.0088 61.3138 89.7844 61.0429C91.0278 60.5874 90.8185 58.2976 91.9758 57.9898C92.5667 57.8298 92.6528 58.8393 93.3546 58.9378C93.6008 58.9747 93.847 58.6915 94.0686 58.2607L94.044 56.7464C93.8101 57.2142 93.5146 56.5002 93.2561 53.2994H93.2438Z" fill="#EFD1CF"/>
<path fill-rule="evenodd" clip-rule="evenodd" d="M83.7274 64.1697C84.0475 64.0466 84.663 63.985 85.0447 64.2436C85.414 64.4898 85.611 64.6744 85.7833 64.9945C85.968 65.3269 86.128 65.8194 86.0172 66.3487C85.8572 67.0874 84.8723 67.666 83.8259 67.3951C82.0654 66.952 82.6933 64.5883 83.7274 64.1697Z" fill="#2390C1"/>
<path fill-rule="evenodd" clip-rule="evenodd" d="M75.2452 60.8582C74.482 60.7351 74.2111 60.3289 73.9649 59.8364C73.8418 60.2919 73.6817 60.809 73.2386 61.7939C72.6353 63.1234 70.8626 64.5269 72.6723 65.0562C73.2509 65.204 73.6079 64.9701 73.8418 64.7608C74.839 63.8621 75.7623 61.917 76.2424 60.5751C75.9593 60.7721 75.6146 60.9198 75.2575 60.8582H75.2452Z" fill="#2390C1"/>
<path fill-rule="evenodd" clip-rule="evenodd" d="M78.8769 62.643C78.5445 62.5815 78.1629 62.2491 77.8182 61.7812C77.178 64.7974 76.0577 65.6838 76.4517 66.5332C76.5871 66.8164 76.8949 67.0626 76.8949 67.0626C77.1042 67.198 77.3011 67.2473 77.4858 67.2596C77.7813 67.2596 78.089 67.1857 78.3229 66.9149C79.3201 65.6961 80.0342 63.6156 80.2434 62.2737C79.9234 62.5076 79.4555 62.7292 78.8892 62.6307L78.8769 62.643Z" fill="#2390C1"/>
<path fill-rule="evenodd" clip-rule="evenodd" d="M89.969 62.7789C89.3289 62.7789 88.898 62.4588 88.5902 62.1756C89.1319 64.527 90.006 66.189 90.523 66.8415C90.7569 67.1123 91.0647 67.2723 91.4094 67.3339C91.6433 67.3339 91.8033 67.3093 92.0126 67.2108C92.0126 67.2108 92.4558 67.0138 92.5543 66.7183C92.8498 65.9181 91.7172 64.6501 91.1509 62.0771C90.8308 62.4834 90.4368 62.7789 89.969 62.7912V62.7789Z" fill="#2390C1"/>
<path fill-rule="evenodd" clip-rule="evenodd" d="M94.5486 59.8115C94.2531 60.2178 93.8715 60.6979 93.576 60.7718C93.1205 60.8949 92.665 60.5009 92.4188 60.2055C92.9974 62.8892 94.2778 64.2927 94.6225 64.6497C95.0041 65.0436 95.2996 65.0806 95.632 65.1052C96.0382 65.1421 96.3214 65.0067 96.5799 64.7359C97.1462 63.911 95.7304 62.6184 95.041 61.0426C94.8318 60.5748 94.6717 60.1808 94.5609 59.8115H94.5486Z" fill="#2390C1"/>
<path fill-rule="evenodd" clip-rule="evenodd" d="M111.119 47.0329C112.042 46.0234 113.581 44.7184 112.584 43.7336C112.067 43.2165 111.193 42.7487 110.245 42.2932C109.297 41.8377 108.325 41.5053 107.771 41.4684C106.441 41.3822 105.148 46.442 105.173 47.1068C105.21 47.8208 105.456 47.8947 105.395 48.0055C105.308 48.1286 103.954 47.8577 103.068 49.4335C102.465 50.4922 102.206 51.7603 102.822 52.1542C103.449 52.5605 102.132 52.9298 101.123 53.8531C99.9039 54.9734 98.9313 56.6231 98.8575 56.8323C98.6728 57.3986 98.6235 57.8295 100.125 58.9252C101.32 59.787 103.511 60.3163 103.893 60.3656C105.087 60.5379 105.555 59.947 105.801 58.8021C106.084 57.4725 106.244 56.6846 106.379 56.0814C106.909 53.7054 106.145 54.0132 106.207 53.6685C106.256 53.4099 107.13 53.927 108.091 52.4127C108.275 52.1419 109.088 50.6892 108.62 50.283C108.238 49.9506 108.472 49.8028 108.694 49.5812C109.285 48.9534 109.876 48.424 111.131 47.0452L111.119 47.0329Z" fill="#2390C1"/>
<path fill-rule="evenodd" clip-rule="evenodd" d="M68.3266 56.0321C67.9203 55.5766 65.3104 53.0282 65.1504 52.8682C64.7072 52.425 64.9534 52.3142 65.1258 52.0064C65.4089 51.5263 64.4363 48.978 63.2545 48.8549C62.3189 48.7564 63.1314 48.6333 63.1437 48.0916C63.1437 47.7346 62.6266 45.0754 62.1958 43.4873C61.691 41.6161 60.5338 41.5299 60.0783 41.5668C59.7213 41.5914 57.9116 42.0716 56.6928 43.0811C55.4248 44.0413 55.4002 44.743 55.5602 45.2478C55.6833 45.6417 56.2989 46.7497 56.779 47.3529C58.1332 49.0026 60.1522 49.4212 59.315 49.9998C59.0688 50.2706 59.1304 50.7138 59.4258 51.7479C59.6597 52.3758 59.8813 52.9421 60.1152 53.2991C60.8662 54.6779 61.7033 54.1485 61.8141 54.3578C61.8757 54.4932 61.6418 54.641 61.6541 55.2688C61.6541 55.5766 62.1096 56.463 62.442 57.5586C62.9098 59.0975 63.5746 60.6364 64.5225 60.661C66.4799 60.7225 68.9298 59.1098 69.176 58.1742C69.4346 57.1524 68.7575 56.5122 68.3389 56.0321H68.3266Z" fill="#2390C1"/>
<path fill-rule="evenodd" clip-rule="evenodd" d="M105.321 46.1714C104.779 45.3835 103.93 44.6448 102.452 44.1893C112.781 32.4694 103.659 18.0164 102.6 15.3696C100.409 9.8666 97.491 2.83709 90.3384 5.07767C89.1934 0.965834 77.0426 1.47058 71.6381 5.86556C66.2952 10.2236 63.2791 16.1082 61.9002 25.8092C60.7923 28.3822 58.1823 36.2488 65.4581 44.374C64.2885 44.6202 63.4514 45.5558 62.8851 46.5653C63.0328 47.3286 63.1313 47.9318 63.1313 48.0919C63.1313 48.6336 62.3188 48.7567 63.2421 48.8551C64.4363 48.9783 65.3965 51.5266 65.1134 52.0067C64.941 52.3145 64.6825 52.4253 65.138 52.8685C65.1995 52.93 65.7166 53.4348 66.3075 54.0257C68.9174 53.8041 71.1949 53.1393 72.7707 51.2188C72.2783 50.591 70.8995 48.4366 70.6286 47.9318C70.3701 47.4517 70.1362 46.8977 69.7792 45.9252C69.496 45.1126 69.1883 43.9062 69.0159 42.4042C68.8313 40.8531 68.8682 40.4837 68.8189 39.4989C68.5481 39.7328 68.0064 39.6097 67.6002 39.1788C66.9477 38.5017 66.2214 36.8644 66.2829 35.424C66.3321 34.1806 66.6153 32.8141 67.3416 32.654C67.8833 32.5309 68.1295 32.8018 68.3634 33.3311C68.4866 33.6143 68.6097 34.4145 68.6097 34.4145C68.6097 34.4145 68.8066 31.7923 70.4932 30.5366C72.4999 29.0593 81.0067 28.1852 86.682 21.1926C86.1157 24.455 84.5522 27.3604 81.4745 30.278C86.9406 30.9674 92.8498 23.0392 93.1206 21.3896C93.9454 25.1813 98.8944 29.8964 99.1037 33.3311C99.3622 32.8018 99.5838 32.5309 100.126 32.654C100.864 32.8264 101.16 34.1929 101.184 35.424C101.209 36.8397 100.556 38.5386 99.867 39.1788C99.2514 39.7451 98.8452 39.622 98.6482 39.4989C98.6728 39.8805 98.759 40.3483 98.6482 41.8256C98.5374 42.8967 98.4266 43.8815 98.1927 44.8664C97.848 46.2945 97.5402 47.2547 96.9739 48.3012C96.4569 49.2614 96.2599 49.4461 95.5335 50.5048C97.0232 53.3855 98.956 53.9395 101.012 53.9642C101.037 53.9395 101.073 53.9026 101.098 53.878C102.108 52.9547 103.425 52.573 102.797 52.1791C102.181 51.7851 102.44 50.5171 103.043 49.4584C103.93 47.8826 105.296 48.1657 105.37 48.0303C105.444 47.9195 105.198 47.8457 105.148 47.1316C105.148 46.9962 105.198 46.6515 105.308 46.2083L105.321 46.1714ZM60.1028 53.2871C59.8689 52.93 59.6473 52.3637 59.4134 51.7359C59.1303 50.7141 59.0564 50.2586 59.3026 49.9877C59.4627 49.8769 59.5242 49.7662 59.4996 49.6554C52.0269 50.1847 50.1433 46.4791 49.0231 45.3342C48.4321 44.8418 48.6045 47.5994 50.3034 49.5692C48.4321 49.6307 47.4473 48.6459 46.7086 47.7225C45.8715 46.7992 45.1944 50.1724 46.9302 52.4499C48.1982 54.1242 49.7494 54.395 49.7494 54.395C48.7153 54.7028 47.7673 54.1734 47.4965 54.0257C46.9425 53.7179 47.8166 56.4386 52.9133 57.2265C55.08 57.5589 57.7268 57.0788 60.189 55.0968C60.6322 54.7397 61.0631 54.4812 61.494 54.2966C61.1616 54.2966 60.6076 54.2227 60.1028 53.2994V53.2871ZM120.82 54.038C121.103 54.592 118.296 57.719 113.015 57.2142C108.829 56.808 107.377 54.235 106.786 54.075C106.65 54.038 106.515 54.0011 106.367 53.9765C106.269 53.841 106.17 53.8041 106.195 53.6687C106.244 53.4102 107.118 53.9272 108.078 52.413C108.263 52.1421 109.076 50.6895 108.608 50.2832C108.288 50.0001 108.398 49.8523 108.571 49.68C109.95 49.8523 111.858 49.7908 113.803 49.2245C117.176 48.2396 118.801 45.5928 119.072 45.3589C119.675 44.8541 119.491 47.6117 117.804 49.5692C120.426 49.7046 121.239 47.5625 121.706 47.5625C122.273 47.5625 123.196 52.8069 118.383 54.3704C119.306 54.8875 120.66 53.7426 120.82 54.0503V54.038Z" fill="#BB252D"/>
<path fill-rule="evenodd" clip-rule="evenodd" d="M71.8721 39.8927C71.8721 39.6834 72.0075 39.5356 72.2537 39.5356C72.4507 39.5356 72.7216 39.6957 72.7216 39.8927C72.7216 40.1512 72.4507 40.3235 72.2414 40.3235C71.9952 40.3235 71.8598 40.1512 71.8721 39.8927Z" fill="#BB252D"/>
<path fill-rule="evenodd" clip-rule="evenodd" d="M73.7678 41.1603C73.7678 40.9511 73.9771 40.7172 74.1987 40.7295C74.4326 40.7172 74.6665 40.9511 74.6665 41.1603C74.6665 41.345 74.4203 41.5174 74.1864 41.5174C73.9771 41.5297 73.7555 41.345 73.7678 41.1603Z" fill="#BB252D"/>
<path fill-rule="evenodd" clip-rule="evenodd" d="M75.3685 38.8216C75.3685 38.6492 75.627 38.4399 75.8732 38.4399C76.0333 38.4399 76.2918 38.6492 76.2795 38.8339C76.1933 39.1417 76.0333 39.2648 75.8732 39.2648C75.5531 39.2648 75.3562 39.1294 75.3685 38.8216Z" fill="#BB252D"/>
<path fill-rule="evenodd" clip-rule="evenodd" d="M77.3135 40.4586C77.3135 40.237 77.4243 40.04 77.6951 40.04C77.9167 40.04 78.0891 40.237 78.0891 40.4463C78.0891 40.6802 77.9167 40.9018 77.6951 40.8772C77.4243 40.8772 77.3258 40.6679 77.3258 40.4586H77.3135Z" fill="#BB252D"/>
<path fill-rule="evenodd" clip-rule="evenodd" d="M79.1971 38.4525C79.1971 38.2309 79.3449 38.0586 79.5911 38.0586C79.8496 38.0586 79.9973 38.2309 79.9973 38.4402C79.9973 38.6618 79.8496 38.8342 79.5788 38.8342C79.3325 38.8342 79.1848 38.6495 79.1971 38.4402V38.4525Z" fill="#BB252D"/>
<path fill-rule="evenodd" clip-rule="evenodd" d="M88.147 38.5631C88.1839 38.3291 88.307 38.1937 88.5655 38.243C88.7871 38.2922 88.9226 38.4646 88.9102 38.7108C88.861 38.9201 88.664 38.9939 88.4301 38.957C88.1962 38.9201 88.1223 38.7231 88.1593 38.5631H88.147Z" fill="#BB252D"/>
<path fill-rule="evenodd" clip-rule="evenodd" d="M90.6955 39.0306C90.7324 38.8459 90.8924 38.6859 91.0648 38.7105C91.2864 38.7475 91.4095 38.9567 91.3726 39.1537C91.3356 39.3753 91.151 39.523 90.9294 39.4738C90.7447 39.4369 90.6462 39.2399 90.6955 39.0183V39.0306Z" fill="#BB252D"/>
<path fill-rule="evenodd" clip-rule="evenodd" d="M94.0932 38.7111C94.1424 38.4772 94.3148 38.3664 94.6225 38.4279C94.8564 38.4772 94.9549 38.6372 94.918 38.8711C94.8687 39.1173 94.721 39.3143 94.4748 39.2651C94.167 39.2035 94.0439 38.9573 94.0932 38.7111Z" fill="#BB252D"/>
<path fill-rule="evenodd" clip-rule="evenodd" d="M92.1234 40.5452C92.1727 40.2867 92.3943 40.1636 92.6774 40.2128C92.899 40.2621 93.0344 40.4837 92.9975 40.7052C92.9606 40.9145 92.739 41.0869 92.5297 41.0376C92.2219 40.9884 92.0742 40.7545 92.1234 40.5452Z" fill="#BB252D"/>
<path fill-rule="evenodd" clip-rule="evenodd" d="M94.7826 40.7421C94.8318 40.4959 95.0411 40.3851 95.2996 40.4343C95.5335 40.4712 95.7059 40.6559 95.6566 40.9021C95.6074 41.1237 95.3735 41.2838 95.1519 41.2468C94.8934 41.1976 94.7333 40.9883 94.7826 40.7544V40.7421Z" fill="#BB252D"/>
<path fill-rule="evenodd" clip-rule="evenodd" d="M83.2104 16.145C80.1697 16.4405 71.749 23.6424 68.0681 24.775C74.3835 26.3631 79.6034 18.201 83.2104 16.145ZM103.917 34.8699C103.08 29.7362 98.2174 27.8527 96.0138 23.9748C93.7978 20.0599 93.9948 16.145 91.5203 15.7142C91.5203 15.7142 90.7324 26.0184 81.4992 30.2656C86.9653 30.955 92.8745 23.0268 93.1453 21.3772C93.9701 25.1689 98.9191 29.884 99.1284 33.3187C99.3869 32.7893 99.6085 32.5185 100.15 32.6416C100.889 32.814 101.184 34.1805 101.209 35.4116C101.234 36.8273 100.581 38.5262 99.8917 39.1664C99.2761 39.7327 98.8699 39.6096 98.6729 39.4865C98.6975 39.8681 98.7837 40.3359 98.6729 41.8132C98.5621 42.8843 98.4513 43.8691 98.2174 44.854C97.8727 46.2821 97.5649 47.2423 96.9986 48.2887C96.4816 49.249 96.2846 49.4337 95.5583 50.4924C97.0479 53.3731 98.9807 53.9271 101.037 53.9517C101.061 53.9271 101.098 53.8902 101.123 53.8656C102.132 52.9423 103.45 52.5606 102.822 52.1667C102.206 51.7727 102.465 50.5047 103.068 49.446C103.105 49.3967 103.129 49.3475 103.166 49.2982C101.8 49.2736 100.618 49.1136 100.347 47.6978C99.7563 44.6693 105.013 41.5793 103.93 34.9068L103.917 34.8699ZM112.917 55.0351C110.971 54.4072 109.605 52.9176 108.497 51.6373C108.349 51.982 108.165 52.2898 108.091 52.4006C107.13 53.9148 106.244 53.3978 106.207 53.6563C106.183 53.7917 106.281 53.8286 106.38 53.9641C106.515 53.9887 106.65 54.0256 106.798 54.0625C107.389 54.2226 108.854 56.7956 113.027 57.2018C117.312 57.6204 119.971 55.626 120.672 54.5673C120.229 54.8997 117.718 56.5617 112.929 55.0228L112.917 55.0351ZM106.909 35.5224C107.586 32.3585 107.389 29.2561 106.81 26.4492C104.915 20.6878 99.4116 18.0286 96.3954 11.5285C96.7647 21.7465 107.869 24.8242 106.909 35.5347V35.5224ZM69.7916 45.9127C69.5084 45.1002 69.2007 43.8938 69.0283 42.3918C68.8436 40.8407 68.8806 40.4713 68.8313 39.4865C68.5605 39.7204 68.0188 39.5973 67.6126 39.1664C66.9601 38.4893 66.2461 36.8519 66.2953 35.4116C66.3445 34.1682 66.6277 32.8017 67.354 32.6416C67.8957 32.5185 68.1419 32.7893 68.3758 33.3187C68.4989 33.6019 68.6221 34.4021 68.6221 34.4021C68.6221 34.4021 68.819 31.7799 70.5056 30.5241C70.6657 30.4133 70.8626 30.3025 71.0842 30.1918C73.8049 28.8745 81.45 27.6434 86.6821 21.1802C86.6821 21.1679 86.6944 21.1556 86.7067 21.1309C88.6642 18.4472 88.4549 16.3051 87.9501 15.8003C87.9501 15.8003 85.845 19.3459 83.2597 21.6603C77.6705 26.6708 65.7413 27.7911 63.1191 32.3092C61.7772 24.7503 66.2953 20.3677 66.2953 20.3677C65.8398 20.2076 63.5623 22.916 62.5528 24.4795C66.8985 0.571783 88.5411 3.34173 89.846 8.10604C97.3803 3.25555 101.824 16.6867 104.397 19.2104V19.1735C103.585 17.3515 102.859 16.0219 102.612 15.3818C100.421 9.8788 97.5034 2.84929 90.3508 5.08987C89.2058 0.978041 77.055 1.48279 71.6505 5.87777C66.3076 10.2358 63.2914 16.1204 61.9126 25.8214C60.8046 28.3944 58.1947 36.261 65.4705 44.3862C65.4705 44.3862 67.3417 46.4667 67.1201 48.2272C66.9724 49.3598 65.9875 49.606 64.5348 49.9138C65.0273 50.714 65.3104 51.7235 65.1381 52.0066C64.9657 52.3144 64.7072 52.4252 65.1627 52.8684C65.2366 52.9299 65.7413 53.4347 66.3322 54.0256C68.9421 53.804 71.2196 53.1392 72.7954 51.2187C72.303 50.5909 70.9242 48.4365 70.6533 47.9317C70.3948 47.4516 70.1609 46.8976 69.8039 45.9251L69.7916 45.9127ZM61.4941 54.2841C61.0755 54.4811 60.6323 54.7396 60.1891 55.0843C57.7269 57.0664 55.0801 57.5465 52.9134 57.2141C49.6633 56.7094 48.1244 55.4291 47.5828 54.6412C48.1491 55.0351 49.9095 56.02 52.544 55.6506C57.1114 54.9982 58.0963 53.25 59.4997 51.9697C59.6967 52.4991 59.8936 52.9792 60.1029 53.287C60.6077 54.2103 61.1494 54.2718 61.4941 54.2841Z" fill="#912637"/>
<path fill-rule="evenodd" clip-rule="evenodd" d="M79.4556 48.2028C80.4036 48.7075 81.5485 49.4462 82.9027 49.5324C84.2446 49.6308 85.9435 49.6185 86.8791 49.1753C87.7532 48.7568 88.2456 47.8827 88.8488 47.3164C87.0884 47.8212 85.3402 47.3164 83.432 47.5011C83.2351 47.5134 82.4841 47.5872 82.2994 47.5996C81.093 47.6857 80.0589 47.4395 78.8401 47.4272C79.074 47.6119 79.2833 47.9196 79.4556 48.2028Z" fill="#FFFFFE"/>
<path fill-rule="evenodd" clip-rule="evenodd" d="M77.4613 34.5126C77.3751 34.9681 77.3628 35.4975 77.0427 35.719C76.3041 35.6575 75.5777 35.6452 75.2699 36.0268C75.2084 36.0884 75.0114 36.0268 74.8514 35.8175C74.6913 35.6206 74.5067 35.0543 74.9622 34.5864C75.1961 34.488 75.43 34.7588 75.7624 34.6849C75.9717 34.6357 76.0578 34.451 76.0701 34.2171C75.9101 33.9094 75.4669 33.6878 74.9129 34.094C74.2974 34.4141 73.768 35.2389 73.7311 35.7437C73.7311 35.8914 73.9896 36.2238 74.3589 36.2361C74.4328 36.2361 74.5313 36.2853 74.5928 36.3592C75.4669 36.3961 77.8798 36.2853 78.5693 35.5221C78.2369 35.0173 77.9783 33.934 77.4736 34.5126H77.4613Z" fill="#FFFFFE"/>
<path fill-rule="evenodd" clip-rule="evenodd" d="M93.0098 36.2609C93.0098 35.8423 93.4777 35.8916 93.6746 35.67C93.9208 35.2514 93.65 34.4266 93.0714 34.402C93.0714 34.6728 93.0714 35.3007 92.7267 35.6577C92.382 36.0024 91.7049 35.5592 91.0155 35.5592C90.5969 35.5592 90.4861 35.8916 90.0552 35.7192C90.0922 35.0667 90.3876 34.5374 90.5846 34.5004C90.7816 34.4635 91.1632 34.6112 91.5818 34.5743C91.7418 34.4881 91.9511 34.0942 91.7418 33.9095C91.3725 33.6264 90.9416 33.7495 90.6462 33.9095C90.3261 34.0942 89.7351 34.6974 89.452 35.0914C89.3781 35.1899 89.3289 35.2883 89.2673 35.3991C89.6736 35.9777 90.6831 36.384 91.8649 36.384C92.2589 36.384 92.6651 36.3348 93.0098 36.2486V36.2609Z" fill="#FFFFFE"/>
<path fill-rule="evenodd" clip-rule="evenodd" d="M107.093 49.3598C106.613 48.9535 106.133 48.5226 105.653 48.5349C105.161 48.5472 104.976 48.6211 104.877 49.0274C104.779 49.4213 105.074 49.3105 105.53 49.3721C105.985 49.4336 106.478 49.7537 106.712 49.9384C106.97 50.1476 107.463 50.2954 107.586 50.0738C107.721 49.8522 107.537 49.7291 107.093 49.3474V49.3598Z" fill="#FFFFFE"/>
<path fill-rule="evenodd" clip-rule="evenodd" d="M61.851 49.1871C61.297 49.2487 60.6199 49.2856 60.3244 49.6672C60.029 50.0366 59.9921 50.1351 60.2013 50.4921C60.4106 50.8614 60.5091 50.5536 60.8292 50.2582C61.1616 49.9627 61.5555 49.8027 61.8141 49.7657C62.1095 49.7288 62.4665 49.5688 62.5773 49.2487C62.6512 49.0025 62.3804 49.1379 61.851 49.1871Z" fill="#FFFFFE"/>
<path fill-rule="evenodd" clip-rule="evenodd" d="M83.7274 64.1697C84.0475 64.0466 84.6631 63.9851 85.0447 64.2436C85.414 64.4898 85.611 64.6745 85.7834 64.9946C85.968 65.327 86.1281 65.8194 86.0173 66.3488C85.8572 67.0874 84.8724 67.666 83.8259 67.3952C82.0655 66.952 82.6933 64.5883 83.7274 64.1697ZM84.0845 58.0512C86.879 58.0143 89.8213 56.1923 93.2561 53.2992C93.7977 60.021 94.4871 55.7737 94.5118 52.6714C94.5364 51.9327 94.5733 51.8958 95.2627 50.9232C96.2476 49.4459 96.4076 49.3474 96.9986 48.2764C97.5649 47.23 97.885 46.282 98.2173 44.8417C98.4513 43.8568 98.562 42.8719 98.6728 41.8009C98.796 40.3236 98.7098 39.8558 98.6728 39.4741C98.4759 40.5452 98.205 42.5026 97.7372 44.1399C96.8878 47.1438 95.9398 48.4118 94.918 49.606C94.1301 50.5293 93.4653 51.1325 92.1604 52.339C91.0278 53.3977 90.1783 54.1364 88.5533 55.072C87.79 55.5029 86.522 56.4139 84.1953 56.4385C81.7208 56.4631 79.9111 55.2197 78.9262 54.6042C77.8182 53.9148 77.375 53.5578 76.3902 52.7699C75.6515 52.1789 74.4943 51.231 73.9403 50.6524C72.98 49.6552 71.9829 48.5349 71.1827 47.1192C70.3948 45.765 69.9639 44.7309 69.4468 42.478C69.336 41.9855 69.0283 40.4221 68.819 39.4864C68.8682 40.4836 68.8436 40.8529 69.0159 42.3918C69.1883 43.906 69.4961 45.1125 69.7792 45.9127C70.1239 46.8853 70.3701 47.4393 70.6287 47.9194C70.9118 48.4364 72.4014 50.7632 72.8323 51.2803C73.2509 51.7604 73.4109 52.4252 73.4109 52.7822C73.4109 53.5947 73.3248 55.8722 73.3248 55.8722C72.6353 55.1459 71.5889 54.5673 71.6997 55.626C71.8474 56.9433 71.749 58.2113 71.355 59.5655C70.998 60.7719 69.8531 62.1261 69.1637 62.397C69.9269 62.9017 71.6874 61.5598 72.2906 60.3534C72.623 59.7009 72.7708 59.11 72.8323 58.6791C72.9185 58.1497 73.3494 58.7653 73.4725 58.9499C74.0511 59.7994 74.0388 60.6735 75.2206 60.8704C76.107 61.0182 76.8703 59.9348 76.8826 59.984C77.215 61.1536 78.1506 62.5201 78.8523 62.6432C79.948 62.8402 80.6867 61.8184 80.6867 61.8184C81.1914 62.557 81.8931 63.1479 82.7672 63.3818C81.8193 64.0589 80.8467 65.487 81.3145 67.0505C81.7331 68.2816 83.3335 68.8356 84.6508 68.7494C86.4728 68.614 88.0239 67.2967 87.5684 65.2285C87.3345 64.3544 86.7805 63.8497 86.1404 63.3695C87.3222 62.9387 87.6177 62.3354 87.8516 61.9292C88.1594 61.3875 88.6026 62.7909 89.9321 62.7786C91.3356 62.7786 92.1604 59.9348 92.1604 59.9348C92.1604 59.9348 92.8252 60.9566 93.5269 60.7719C94.0686 60.6242 94.9303 59.1592 94.9303 59.1592C95.3858 58.3344 95.2135 58.3467 95.829 59.9471C96.8139 62.5078 99.3376 63.1603 98.3405 61.9784C97.3433 60.7966 96.5308 59.0977 96.4569 57.3372C96.4076 56.0815 96.3707 55.3428 95.829 55.1459C95.4474 54.9981 95.1889 55.1459 95.0042 55.6383C94.6472 56.6355 93.9824 59.0484 93.293 58.9376C92.6036 58.8391 92.5051 57.8296 91.9142 57.9897C90.757 58.2975 90.9785 60.5873 89.7228 61.0428C88.9596 61.3259 88.541 59.5778 87.827 59.7994C87.3715 59.9348 87.0021 60.6858 86.3743 61.4121C85.7095 62.1877 84.9216 62.2492 84.3799 62.7294C83.1735 62.1138 82.0532 61.7568 81.4253 60.218C80.8467 58.7899 79.751 61.3998 79.1601 60.9443C78.1629 60.1687 78.2122 58.5437 77.2889 58.0266C76.4271 57.5465 75.7008 59.8609 75.2083 59.1715C74.9129 58.7776 74.7036 58.4575 74.5435 58.1867C74.5681 56.1554 74.5805 54.6781 74.6174 53.1761C78.3968 56.2785 81.2653 58.0882 84.0106 58.0512H84.0845Z" fill="#3B302F"/>
<path fill-rule="evenodd" clip-rule="evenodd" d="M82.2994 47.5992C82.4964 47.5992 83.235 47.513 83.432 47.5007C85.3402 47.3284 87.0883 47.8085 88.8488 47.3161C88.2455 47.87 87.7531 48.7564 86.879 49.175C85.9434 49.6305 84.2445 49.6305 82.9026 49.532C81.5484 49.4458 80.4035 48.7072 79.4556 48.2024C79.197 48.9657 79.6525 49.2489 80.2435 49.7659C80.9082 50.3568 81.9424 51.1694 83.5058 51.2063C85.771 51.2679 87.5561 51.0463 88.6887 49.1873C89.0334 48.5718 89.9691 47.3284 90.9416 46.8606C91.4833 46.602 92.739 46.0234 92.5297 45.7033C92.1604 45.2355 91.4217 45.3094 90.8924 45.4325C90.4861 45.5187 90.3753 46.245 89.6982 46.3066C88.1101 46.5035 86.5589 45.9619 84.6015 46.0234C83.1858 46.0604 82.0778 46.3927 80.5635 46.5035C79.1109 46.6143 78.6061 45.8511 77.2396 45.691C76.6241 45.6172 76.501 45.9742 76.9688 46.5528C77.412 47.0083 78.1752 47.4392 78.7908 47.4269C80.0342 47.4269 81.0683 47.6854 82.2994 47.5992Z" fill="#3B302F"/>
<path fill-rule="evenodd" clip-rule="evenodd" d="M88.1963 30.3022C88.2579 30.5361 89.1073 30.3022 89.5013 30.1544C89.809 30.0313 90.0676 29.9082 90.4492 29.822C90.72 29.7605 91.1017 29.7236 91.3602 29.7236C91.9634 29.7236 92.3574 29.7236 92.8744 29.8097C93.687 29.9452 95.2381 30.7454 95.3612 30.4007C95.4967 29.7359 94.918 29.2065 94.4749 28.9726C93.3792 28.3817 91.7172 28.0862 90.2153 28.6894C89.7105 28.9233 89.5505 29.1326 89.0704 29.4404C88.7503 29.662 88.1471 30.019 88.184 30.3022H88.1963Z" fill="#3B302F"/>
<path fill-rule="evenodd" clip-rule="evenodd" d="M86.3988 41.5297C85.5371 41.2712 85.3278 42.1945 84.4537 42.1945C83.2226 42.1945 82.9641 41.4066 82.3116 41.4805C81.77 41.542 81.4991 42.3545 81.1298 42.4161C80.8343 42.3545 80.8959 42.847 81.2652 42.9455C82.0039 43.1301 81.8438 42.5146 82.3363 42.6869C82.6194 42.7977 82.681 43.2902 83.5181 43.6718C84.3429 44.0411 85.1678 43.5979 85.9187 42.9332C86.325 42.5392 87.0513 42.5146 87.0883 42.3299C87.1129 42.2438 86.9651 42.1699 86.9036 42.0837C86.7682 41.8744 86.6204 41.6159 86.4235 41.5543L86.3988 41.5297Z" fill="#3B302F"/>
<path fill-rule="evenodd" clip-rule="evenodd" d="M72.9185 36.1993C73.2632 36.384 74.0142 36.741 74.6051 36.5686C74.6789 36.347 74.482 36.2362 74.3589 36.2239C73.9895 36.2116 73.7187 35.8792 73.731 35.7315C73.7803 35.2267 74.2973 34.4142 74.9129 34.0818C75.4792 33.6879 75.91 33.8972 76.0701 34.2049C76.0578 34.4512 75.9716 34.6358 75.7623 34.6728C75.4422 34.7466 75.2083 34.4635 74.9621 34.5743C74.5066 35.0421 74.6913 35.6207 74.8513 35.8177C75.0113 36.0146 75.2083 36.0885 75.2699 36.027C75.5776 35.6453 76.304 35.6576 77.0426 35.7192C77.3504 35.4976 77.375 34.9682 77.4612 34.5127C77.9906 33.9218 78.2491 35.1159 78.5938 35.5838C78.8154 35.8915 79.0616 36.2609 79.3817 36.2978C79.9111 36.347 80.6005 35.9285 80.342 35.1529C80.1942 34.9559 79.7633 35.3622 79.6033 35.2267C78.9631 34.6235 79.5417 33.4047 78.2245 32.7399C76.8087 32.0382 74.6174 32.2844 73.7433 33.3801C73.3986 33.811 73.0293 34.2788 72.7585 34.9928C72.623 35.473 72.4999 35.9654 72.9185 36.2116V36.1993Z" fill="#3B302F"/>
<path fill-rule="evenodd" clip-rule="evenodd" d="M91.2986 32.4568C90.72 32.6414 89.8213 33.454 89.5135 33.9218C89.1196 34.5004 88.8734 35.5468 88.3809 35.5714C88.184 35.4976 88.3809 35.0667 88.0855 35.1036C87.7038 35.1898 87.4822 35.5222 87.5807 35.9038C87.6546 36.1008 87.8269 36.2485 88.0978 36.2731C88.9965 36.3839 89.1319 35.5714 89.4766 35.0913C89.7597 34.6974 90.363 34.0941 90.6707 33.9095C90.9662 33.7371 91.3971 33.614 91.7664 33.9095C91.9757 34.0941 91.7664 34.5004 91.6064 34.5742C91.2001 34.6112 90.8062 34.4511 90.6092 34.5004C90.4122 34.5373 90.1168 35.0667 90.0798 35.7192C90.5107 35.8915 90.6092 35.5714 91.0401 35.5591C91.7295 35.5591 92.3943 35.99 92.7513 35.6576C93.096 35.3129 93.096 34.685 93.096 34.4019C93.6746 34.4265 93.9454 35.239 93.6992 35.6699C93.5022 35.8915 93.0344 35.8546 93.0344 36.2608C95.0165 36.6548 95.2135 35.8423 95.3612 35.3868C95.472 35.0297 95.4227 34.7343 95.2627 34.2419C94.6841 32.7769 92.9113 31.9397 91.3232 32.4568H91.2986Z" fill="#3B302F"/>
<path fill-rule="evenodd" clip-rule="evenodd" d="M78.7292 29.2806C78.323 29.0221 77.9906 28.7759 77.5351 28.6035C77.1781 28.4804 76.6241 28.3696 76.1316 28.3696C74.9129 28.8374 73.7926 29.1945 72.8569 29.5145C72.5492 29.8716 72.4014 30.3147 72.5122 30.6348C72.6353 30.9918 74.1619 30.1055 74.9621 29.8962C75.5653 29.7484 75.8608 29.7484 76.464 29.7115C76.7226 29.6992 77.1165 29.7115 77.3873 29.7484C77.8182 29.7977 78.0152 29.9331 78.3599 30.0193C78.7662 30.1301 79.591 30.3271 79.6649 30.0932C79.7018 29.81 79.0493 29.4899 78.7169 29.2806H78.7292Z" fill="#3B302F"/>
<path fill-rule="evenodd" clip-rule="evenodd" d="M105.37 53.3238C103.979 53.2377 104.028 53.1023 103.56 52.7945C103.412 52.696 102.809 52.9915 103.24 53.3854C103.388 53.5085 103.708 53.8901 103.585 54.358C103.425 54.9612 102.538 56.1061 103.4 55.983C104.385 55.8599 104.619 54.4688 104.717 54.2718C104.828 54.0625 105.001 53.9763 105.21 53.9517C105.628 53.9025 106.072 53.3608 105.358 53.3238H105.37Z" fill="#3B302F"/>
<path fill-rule="evenodd" clip-rule="evenodd" d="M108.201 47.5378C107.918 48.141 107.721 48.9412 106.921 48.5226C105.912 47.9933 107.167 47.1807 107.943 46.3682C108.669 45.605 108.423 47.07 108.201 47.5378Z" fill="#3B302F"/>
<path fill-rule="evenodd" clip-rule="evenodd" d="M62.5034 53.5205C63.7222 53.0157 63.6976 53.0034 64.1408 52.6464C64.2885 52.5356 64.6455 52.7203 64.3131 53.2743C64.1777 53.4959 63.9561 53.3974 64.0053 53.8898C64.0669 54.53 65.4334 55.5025 64.5101 55.6872C63.673 55.8596 63.1928 54.3084 63.1313 54.0868C63.0574 53.8652 62.6881 54.1114 62.5034 54.0868C62.1095 54.0499 61.7894 53.8036 62.5034 53.5082V53.5205Z" fill="#3B302F"/>
<path fill-rule="evenodd" clip-rule="evenodd" d="M59.869 47.2053C59.9798 48.0794 60.6692 49.0642 61.2478 48.5226C61.6048 48.1779 60.9154 48.0794 60.4353 46.0604C60.1275 44.7554 59.7828 46.5282 59.8813 47.2053H59.869Z" fill="#3B302F"/>
</g>
<defs>
<clipPath id="clip0_2103_187">
<rect width="168" height="136" fill="white"/>
</clipPath>
</defs>
</svg>
