<svg width="254" height="72" viewBox="0 0 254 72" fill="none" xmlns="http://www.w3.org/2000/svg">
<path fill-rule="evenodd" clip-rule="evenodd" d="M120.453 2.08946C119.749 0.583772 118.29 0.0838219 116.742 0C114.712 0.294547 113.57 1.15639 112.363 2.83621C110.105 5.9771 108.441 10.1445 107.002 13.7498L106.906 13.9889C104.295 20.4702 101.918 27.043 99.7786 33.6948L97.014 42.4865C96.9669 42.6369 96.9001 42.8664 96.818 43.1484L96.817 43.1518C96.3489 44.7587 95.3842 48.0708 94.7209 48.3384C93.7928 47.8765 94.0543 44.1206 94.1785 42.3376C94.1971 42.0702 94.2126 41.8469 94.2206 41.6861C94.433 37.0885 94.7343 32.4956 95.1245 27.9096C95.304 25.8174 95.5243 23.729 95.7854 21.6454C95.8777 20.9154 95.98 20.1844 96.0823 19.4537C96.1868 18.7065 96.2913 17.9598 96.3851 17.2149L96.3903 17.1736C96.3966 17.124 96.4031 17.0737 96.4096 17.0228C96.4176 16.9607 96.4258 16.8977 96.4341 16.8337C96.6794 14.9421 97.0226 12.2962 95.8125 10.8048C94.3701 9.02699 91.6232 8.41909 89.4743 9.00623C87.3278 9.56613 86.1587 11.5631 85.1387 13.3546C83.2298 16.9752 81.4649 20.7794 79.7834 24.5166C76.7678 31.1176 73.9566 37.81 71.354 44.5841C71.2615 44.8188 71.1482 45.1283 71.0188 45.4816C70.4447 47.0488 69.5547 49.4787 68.7712 50.0714L68.5214 50.0467C66.9645 48.1374 72.1499 23.9347 72.8884 20.5672L74.4558 13.5191C74.524 13.216 74.6015 12.8908 74.683 12.5492C75.5831 8.77403 76.9637 2.98393 71.5875 2.57605C69.1907 2.39426 63.6611 3.12102 62.6448 6.01237C62.5457 6.2944 62.9098 7.055 63.2422 7.74942C63.4746 8.23487 63.6914 8.68798 63.7238 8.92267C64.0062 11.5057 63.6258 14.5159 63.064 17.048C62.8633 18.3114 62.5668 20.0094 62.2148 22.0249C59.8492 35.5727 54.9791 63.4639 59.8499 70.1541C60.5898 71.1706 61.6555 71.6899 62.8708 71.8783C65.253 72.2477 67.7805 71.7867 69.7427 70.3485C70.4586 69.8238 71.1545 69.2118 71.5985 68.4339C72.5961 66.6863 73.4419 64.1927 74.2096 61.9293C74.4926 61.0949 74.765 60.2917 75.0305 59.5688C77.232 53.5428 79.4776 47.533 81.767 41.5399C81.8181 41.4099 81.894 41.2084 81.9894 40.9552C82.6575 39.1816 84.2813 34.871 85.0368 34.7982C85.3682 35.5175 85.1376 37.7045 84.9738 39.2578C84.9191 39.7764 84.8718 40.2246 84.8554 40.5237C84.5622 45.8767 84.1435 60.3839 86.1458 64.893C86.7027 66.1471 87.6447 67.1246 88.9444 67.6036C90.8829 68.3183 93.5183 68.3104 95.402 67.4254C97.6672 66.3611 98.5327 64.1476 99.322 61.9238C100.513 58.5682 101.681 55.202 102.85 51.8348C105.842 43.2165 108.835 34.5925 112.215 26.1269C113.804 22.1478 115.479 18.2032 117.238 14.2961C117.355 14.0388 117.471 13.7809 117.588 13.5228C118.172 12.2333 118.759 10.9375 119.354 9.66111L119.399 9.56386C120.513 7.17691 121.671 4.69255 120.453 2.08946ZM183.884 17.2403L183.702 17.2431L183.703 52.076L193.007 52.0711C193.169 52.0713 193.33 52.0716 193.493 52.0721L193.937 52.0734C200.008 52.0924 206.954 52.1142 211.651 47.6121C215.298 43.9255 216.214 39.5747 216.227 34.5279C216.238 30.0506 215.16 25.0785 211.829 21.8719C206.969 17.1927 200.211 17.2099 193.958 17.2259L193.953 17.2259C193.626 17.2267 193.301 17.2275 192.977 17.2277L183.884 17.2403ZM159 17.2255L149.887 17.2405C149.887 21.032 149.871 24.8615 149.854 28.7026C149.821 36.5163 149.787 44.3793 149.894 52.0707C150.823 52.0704 151.767 52.0652 152.714 52.06C154.687 52.0491 156.68 52.0381 158.606 52.0715L158.601 40.9176C159.124 40.9164 159.654 40.9128 160.185 40.9091C161.276 40.9016 162.375 40.8939 163.448 40.9076L169.142 52.068L173.095 52.0657L179.697 52.0521C177.022 47.5329 174.323 43.0272 171.602 38.5353C173.483 37.2986 174.88 35.6946 175.674 33.5762C177.058 29.8841 176.791 24.5096 174.276 21.3655C170.909 17.1564 165.028 17.1913 160.036 17.2208C159.686 17.2229 159.34 17.2249 159 17.2255ZM9.12847 17.2248L0.00218049 17.2417L0 52.0747C0.918319 52.074 1.85181 52.0681 2.79018 52.0622C4.75617 52.0498 6.74405 52.0373 8.65945 52.0715L8.6527 40.9175L13.5371 40.9088C14.0808 41.9724 14.6624 43.089 15.2554 44.2272C16.6238 46.8544 18.0525 49.5971 19.2138 52.0703L23.0723 52.0657C23.7124 52.0646 24.3572 52.0658 25.004 52.0669H25.0128H25.019C26.62 52.0697 28.2332 52.0725 29.8139 52.0419C29.0225 50.7259 28.1931 49.3674 27.353 47.9915C25.4238 44.8317 23.4382 41.5794 21.7256 38.5358C26.9271 34.9086 28.0248 27.8037 25.0487 22.3398C22.24 17.1834 15.2021 17.206 9.90292 17.223C9.64026 17.2238 9.38186 17.2247 9.12847 17.2248ZM132.289 17.2335L122.634 17.235C120.44 23.4159 117.994 29.6551 115.549 35.8935C113.429 41.3003 111.31 46.7074 109.354 52.0744C110.152 52.0733 110.989 52.0657 111.841 52.058C113.959 52.0388 116.175 52.0187 118.134 52.0951L120.564 45.0762L132.572 45.0842L133.819 45.0761C134.077 45.822 134.336 46.5848 134.596 47.3526C135.136 48.9447 135.684 50.558 136.247 52.0857L145.577 52.0516L136.604 28.5487C136.181 27.4426 135.711 26.2508 135.23 25.0304L135.229 25.0278L135.228 25.0251C134.19 22.3896 133.095 19.6105 132.289 17.2335ZM244.487 18.7239C241.423 17.2914 236.255 16.3469 232.844 16.6265C229.193 16.8314 225.485 17.5908 222.977 20.4132C219.887 23.8905 219.561 30.9971 223.306 34.1419C224.721 35.3294 226.324 36.0842 228.037 36.7147C228.791 37.0674 229.741 37.3264 230.73 37.5961C233.188 38.2661 235.887 39.0018 236.418 41.4045C236.498 41.7697 236.235 42.4572 235.978 42.7023C232.541 45.9802 224.364 43.34 220.788 41.7954C220.71 42.6606 220.623 43.5514 220.536 44.4516L220.536 44.458C220.341 46.4632 220.142 48.5165 220.022 50.4324C224.443 52.0609 226.704 52.5159 231.473 52.7339C238.923 52.5748 246.08 50.6906 245.999 41.7562C245.939 35.1515 240.502 33.2475 235.317 31.4318C234.128 31.0153 232.952 30.6035 231.857 30.1406C231.063 29.8077 230.007 28.9364 229.968 27.9863C229.946 27.3349 230.19 26.7026 230.646 26.2363C233.029 23.7931 240.604 25.6797 243.285 27.0897C243.41 26.2203 243.546 25.3272 243.682 24.4259C243.972 22.5125 244.268 20.5622 244.487 18.7239ZM56.7841 17.2443C54.8907 17.2383 52.9738 17.2275 51.0457 17.2167C45.3027 17.1846 39.4593 17.1518 33.835 17.2412C33.8317 20.7287 33.8127 24.279 33.7935 27.8525C33.7499 35.9615 33.7057 44.1906 33.8447 52.0786L51.8269 52.0678C52.0208 49.4383 52.2563 46.5677 52.6067 43.9511L42.293 43.9459L42.2974 37.8444L44.3581 37.847L53.4278 37.8467L54.4838 31.1316L42.2941 31.1222L42.2972 25.3669L55.4646 25.3712C55.6275 24.3177 55.8151 23.2353 56.0035 22.1487C56.2903 20.4945 56.5789 18.8305 56.7841 17.2443ZM8.99547 25.1436C8.87517 25.1432 8.76088 25.1429 8.65542 25.1427C8.65664 26.0133 8.65412 26.8924 8.65159 27.7744C8.64632 29.6116 8.64102 31.4609 8.66944 33.2697C9.03827 33.2717 9.43879 33.2821 9.85943 33.293C12.1876 33.3534 15.1335 33.4299 16.7528 32.1964C17.3461 31.4571 17.6229 30.9459 17.7302 30.0019C18.2706 25.2416 14.7421 24.9622 11.0892 25.1239C10.5351 25.1483 9.67066 25.1457 8.99547 25.1436ZM127.149 26.0132C127.436 26.3041 129.871 33.551 130.818 36.3708C130.975 36.8377 131.091 37.1832 131.15 37.3557L123.221 37.3548L127.149 26.0132ZM160.196 25.1178C159.642 25.1316 159.104 25.145 158.604 25.1435L158.614 33.2701C158.982 33.2716 159.384 33.2818 159.808 33.2924C162.131 33.3511 165.096 33.426 166.637 32.1792C168.438 30.1276 168.049 26.0861 165.072 25.3714C163.657 25.0316 161.852 25.0766 160.196 25.1178ZM192.64 25.819C193.112 25.817 193.616 25.8072 194.142 25.7969C197.737 25.7264 202.352 25.636 204.822 27.9298C208.045 30.9243 207.913 38.1293 204.984 41.3134C202.193 43.6914 198.233 43.5933 194.536 43.5017C193.892 43.4858 193.255 43.47 192.635 43.4676L192.64 25.819Z" fill="white"/>
<path d="M116.742 0C118.29 0.0838219 119.749 0.583772 120.453 2.08946C121.671 4.69255 120.513 7.17691 119.399 9.56386C119.384 9.5963 119.369 9.62871 119.354 9.66111C118.64 11.193 117.938 12.7528 117.238 14.2961C115.479 18.2032 113.804 22.1478 112.215 26.1269C107.514 37.9 103.562 49.9794 99.322 61.9238C98.5327 64.1476 97.6672 66.3611 95.402 67.4254C93.5183 68.3104 90.8829 68.3183 88.9444 67.6036C87.6447 67.1246 86.7027 66.1471 86.1458 64.893C84.1435 60.3839 84.5622 45.8767 84.8554 40.5237C84.9209 39.3288 85.4788 35.7576 85.0368 34.7982C84.1735 34.8814 82.1763 40.4984 81.767 41.5399C79.4776 47.533 77.232 53.5428 75.0305 59.5688C74.0449 62.2525 72.964 66.042 71.5985 68.4339C71.1545 69.2118 70.4586 69.8238 69.7427 70.3485C67.7805 71.7867 65.253 72.2477 62.8708 71.8783C61.6555 71.6899 60.5898 71.1706 59.8499 70.1541C54.2542 62.4682 61.5142 26.8034 63.064 17.048C63.6258 14.5159 64.0062 11.5057 63.7238 8.92267C63.6451 8.35226 62.4764 6.49156 62.6448 6.01237C63.6611 3.12102 69.1907 2.39426 71.5875 2.57605C77.4502 3.02085 75.2779 9.86612 74.4558 13.5191L72.8884 20.5672C72.1499 23.9347 66.9645 48.1374 68.5214 50.0467L68.7712 50.0714C69.7314 49.345 70.8515 45.8598 71.354 44.5841C73.9566 37.81 76.7678 31.1176 79.7834 24.5166C81.4649 20.7794 83.2298 16.9752 85.1387 13.3546C86.1587 11.5631 87.3278 9.56613 89.4743 9.00623C91.6232 8.41909 94.3701 9.02699 95.8125 10.8048C97.1063 12.3994 96.6245 15.3137 96.3851 17.2149C96.1996 18.6884 95.9722 20.169 95.7854 21.6454C95.5243 23.729 95.304 25.8174 95.1245 27.9096C94.7343 32.4956 94.433 37.0885 94.2206 41.6861C94.1596 42.9194 93.6536 47.8072 94.7209 48.3384C95.5016 48.0235 96.6993 43.4929 97.014 42.4865L99.7786 33.6948C101.918 27.043 104.295 20.4702 106.906 13.9889C106.938 13.9095 106.97 13.8298 107.002 13.7498C108.441 10.1445 110.105 5.9771 112.363 2.83621C113.57 1.15639 114.712 0.294547 116.742 0Z" fill="white"/>
<path fill-rule="evenodd" clip-rule="evenodd" d="M183.884 17.2403L183.702 17.2431L183.703 52.076L193.007 52.0711C193.315 52.0714 193.625 52.0724 193.937 52.0734C200.008 52.0924 206.954 52.1142 211.651 47.6121C215.298 43.9255 216.214 39.5747 216.227 34.5279C216.238 30.0506 215.16 25.0785 211.829 21.8719C206.969 17.1927 200.211 17.2099 193.958 17.2259C193.63 17.2267 193.303 17.2275 192.977 17.2277L183.884 17.2403ZM192.64 25.819C193.112 25.817 193.616 25.8072 194.142 25.7969C197.737 25.7264 202.352 25.636 204.822 27.9298C208.045 30.9243 207.913 38.1293 204.984 41.3134C202.193 43.6914 198.233 43.5933 194.536 43.5017C193.892 43.4858 193.255 43.47 192.635 43.4676L192.64 25.819Z" fill="white"/>
<path fill-rule="evenodd" clip-rule="evenodd" d="M159 17.2255L149.887 17.2405C149.887 21.032 149.871 24.8615 149.854 28.7026C149.821 36.5163 149.787 44.3793 149.894 52.0707C150.823 52.0704 151.767 52.0652 152.714 52.06C154.687 52.0491 156.68 52.0381 158.606 52.0715L158.601 40.9176C159.124 40.9164 159.654 40.9128 160.185 40.9091C161.276 40.9016 162.375 40.8939 163.448 40.9076L169.142 52.068L173.095 52.0657L179.697 52.0521C177.022 47.5329 174.323 43.0272 171.602 38.5353C173.483 37.2986 174.88 35.6946 175.674 33.5762C177.058 29.8841 176.791 24.5096 174.276 21.3655C170.909 17.1564 165.028 17.1913 160.036 17.2208C159.686 17.2229 159.34 17.2249 159 17.2255ZM158.604 25.1435C159.104 25.145 159.642 25.1316 160.196 25.1178C161.852 25.0766 163.657 25.0316 165.072 25.3714C168.049 26.0861 168.438 30.1276 166.637 32.1792C165.096 33.426 162.131 33.3511 159.808 33.2924C159.384 33.2818 158.982 33.2716 158.614 33.2701L158.604 25.1435Z" fill="white"/>
<path fill-rule="evenodd" clip-rule="evenodd" d="M9.12847 17.2248L0.00218049 17.2417L0 52.0747C0.918319 52.074 1.85181 52.0681 2.79018 52.0622C4.75617 52.0498 6.74405 52.0373 8.65945 52.0715L8.6527 40.9175L13.5371 40.9088C14.0808 41.9724 14.6624 43.089 15.2554 44.2272C16.6238 46.8544 18.0525 49.5971 19.2138 52.0703L23.0723 52.0657C23.7172 52.0646 24.3674 52.0658 25.019 52.0669C26.6203 52.0697 28.2328 52.0725 29.8139 52.0419C29.0225 50.7259 28.1931 49.3674 27.353 47.9915C25.4238 44.8317 23.4382 41.5794 21.7256 38.5358C26.9271 34.9086 28.0248 27.8037 25.0487 22.3398C22.24 17.1834 15.2021 17.206 9.90292 17.223C9.64026 17.2238 9.38186 17.2247 9.12847 17.2248ZM8.65542 25.1427C8.76088 25.1429 8.87517 25.1432 8.99547 25.1436C9.67066 25.1457 10.5351 25.1483 11.0892 25.1239C14.7421 24.9622 18.2706 25.2416 17.7302 30.0019C17.6229 30.9459 17.3461 31.4571 16.7528 32.1964C15.1335 33.4299 12.1876 33.3534 9.85943 33.293C9.43879 33.2821 9.03827 33.2717 8.66944 33.2697C8.64102 31.4609 8.64632 29.6116 8.65159 27.7744C8.65412 26.8924 8.65664 26.0133 8.65542 25.1427Z" fill="white"/>
<path fill-rule="evenodd" clip-rule="evenodd" d="M132.289 17.2335L122.634 17.235C120.44 23.4159 117.994 29.6551 115.549 35.8935C113.429 41.3006 111.31 46.7071 109.354 52.0744C110.153 52.0733 110.988 52.0657 111.841 52.058C113.959 52.0388 116.175 52.0187 118.134 52.0951L120.564 45.0762L132.572 45.0842L133.819 45.0761C134.077 45.822 134.336 46.5848 134.596 47.3526C135.136 48.9447 135.684 50.558 136.247 52.0857L145.577 52.0516L136.604 28.5487C136.181 27.4415 135.711 26.2495 135.229 25.0278C134.19 22.3905 133.095 19.6123 132.289 17.2335ZM127.149 26.0132C127.436 26.3041 129.871 33.551 130.818 36.3708C130.975 36.8377 131.091 37.1832 131.15 37.3557L123.221 37.3548L127.149 26.0132Z" fill="white"/>
<path d="M232.844 16.6265C236.255 16.3469 241.423 17.2914 244.487 18.7239C244.165 21.4282 243.677 24.3747 243.285 27.0897C240.604 25.6797 233.029 23.7931 230.646 26.2363C230.19 26.7026 229.946 27.3349 229.968 27.9863C230.007 28.9364 231.063 29.8077 231.857 30.1406C237.725 32.6213 245.925 33.6365 245.999 41.7562C246.08 50.6906 238.923 52.5748 231.473 52.7339C226.704 52.5159 224.443 52.0609 220.022 50.4324C220.196 47.6537 220.536 44.5905 220.788 41.7954C224.364 43.34 232.541 45.9802 235.978 42.7023C236.235 42.4572 236.498 41.7697 236.418 41.4045C235.674 38.035 230.666 37.944 228.037 36.7147C226.324 36.0842 224.721 35.3294 223.306 34.1419C219.561 30.9971 219.887 23.8905 222.977 20.4132C225.485 17.5908 229.193 16.8314 232.844 16.6265Z" fill="white"/>
<path d="M33.835 17.2412C41.3476 17.1218 49.2509 17.2203 56.7841 17.2443C56.444 19.8725 55.8754 22.7139 55.4646 25.3712L42.2972 25.3669L42.2941 31.1222L54.4838 31.1316L53.4278 37.8467L44.3581 37.847L42.2974 37.8444L42.293 43.9459L52.6067 43.9511C52.2563 46.5677 52.0208 49.4383 51.8269 52.0678L33.8447 52.0786C33.6444 40.7144 33.8244 28.6429 33.835 17.2412Z" fill="white"/>
<path d="M246.962 16.9944H245.926V16H248.889V16.9944H247.844V20H246.962V16.9944Z" fill="white"/>
<path d="M249.428 16H250.435L251.318 18.4722L252.229 16H253.231V20H252.358V17.6722L251.629 19.6611H251.03L250.301 17.6222V20H249.428V16Z" fill="white"/>
</svg>
