<svg width="254" height="72" viewBox="0 0 254 72" fill="none" xmlns="http://www.w3.org/2000/svg">
<path d="M115.814 0.0398802C120.271 -0.414197 121.908 3.08148 120.511 6.84701C119.396 9.85184 117.778 12.94 116.47 15.9048C114.106 21.2598 111.897 26.6819 109.846 32.1645C107.08 39.5108 104.475 47.1941 101.859 54.6171L99.6626 60.8475C98.6219 63.7924 97.9801 66.5535 94.6913 67.6822C91.9947 68.6075 86.9714 68.071 86.0998 64.7881C84.0771 57.1686 84.6159 48.6629 84.8324 40.8308C84.8624 39.7424 85.3271 35.5955 85.0732 34.8054L84.8503 34.7564C83.2444 36.1081 75.7866 57.4643 74.4495 61.1069C73.5846 63.4636 72.8738 66.2058 71.6258 68.3667C71.173 69.1509 70.4694 69.7982 69.7475 70.3326C67.7911 71.7812 65.242 72.2492 62.86 71.8787C61.6308 71.6875 60.56 71.1533 59.8182 70.1195C54.3878 62.5511 61.2539 27.8108 62.9392 17.7729C63.4176 15.0149 64.0316 12.0713 63.7875 9.27044C63.6721 7.94641 61.8758 6.1731 63.1277 4.97146C65.0279 3.18893 67.7701 2.59622 70.282 2.46539C73.797 2.28233 75.8178 3.89817 75.4957 7.56664C75.1672 11.1628 74.148 14.5546 73.3961 18.1055C71.2465 28.2589 68.8297 38.4818 68.1882 48.8691C68.1577 49.3637 68.2407 49.7633 68.5948 50.1014L68.8941 50.006C69.8817 49.0415 74.7659 35.9438 75.7697 33.5232C77.8144 28.5931 80.0544 23.6745 82.3586 18.8606C83.534 16.4047 84.661 13.7327 86.2313 11.5067C86.9219 10.5276 87.7323 9.59745 88.8655 9.13649C90.3816 8.51975 92.3331 8.61018 93.8242 9.25823C95.108 9.81624 96.1723 10.8421 96.4993 12.2379C97.1316 14.9362 95.9206 20.1252 95.5802 23.037C95.1512 26.706 93.4783 45.9137 94.2864 47.8741C94.3899 48.1249 94.4387 48.1605 94.6847 48.2667C95.6169 47.903 96.7557 43.2839 97.1008 42.1518C97.8845 39.5773 98.6906 37.0097 99.519 34.4492C102.25 25.9126 105.385 17.2606 108.937 9.02748C110.345 5.76476 112.372 1.36197 115.814 0.0398802Z" fill="#C8102E"/>
<path fill-rule="evenodd" clip-rule="evenodd" d="M193.092 17.1845L183.7 17.1984L183.698 52.0089L193.301 52.0156C193.638 52.0156 193.977 52.0165 194.319 52.0173C200.33 52.0325 207.018 52.0493 211.689 47.5264C215.397 43.7192 216.22 39.3341 216.186 34.1673C216.156 29.7341 215.098 24.9534 211.776 21.785C206.912 17.1454 200.323 17.1644 194.112 17.1823C193.771 17.1833 193.431 17.1843 193.092 17.1845ZM192.612 25.7556C193.069 25.7531 193.556 25.7433 194.064 25.7331C197.684 25.6605 202.375 25.5664 204.845 27.9096C208.025 30.9265 207.895 38.0976 204.977 41.2789C202.198 43.6661 198.214 43.5705 194.514 43.4817C193.87 43.4663 193.234 43.451 192.615 43.4491C192.552 38.9291 192.574 34.2911 192.595 29.7121C192.601 28.3869 192.607 27.0666 192.612 25.7556Z" fill="#C8102E"/>
<path fill-rule="evenodd" clip-rule="evenodd" d="M159.279 17.1806L149.88 17.1979L149.884 52.0095L158.582 52.0145C158.58 50.8246 158.574 49.6268 158.568 48.4264C158.555 45.8934 158.542 43.3488 158.567 40.8425C159.074 40.8426 159.591 40.84 160.11 40.8373C161.219 40.8315 162.341 40.8256 163.42 40.8474L169.094 52.0038L173.352 52.0084L179.657 52.0046C178.389 49.753 177.024 47.5186 175.66 45.2855C174.28 43.0277 172.902 40.7711 171.625 38.4991C175.329 35.8262 176.426 32.9234 176.462 28.4531C176.511 22.2525 172.883 18.2827 166.797 17.4647C164.53 17.1643 162.466 17.171 160.199 17.1783C159.896 17.1793 159.59 17.1803 159.279 17.1806ZM158.573 25.087C159.06 25.087 159.582 25.074 160.12 25.0606C161.758 25.0197 163.544 24.9751 164.956 25.2831C168.019 25.9511 168.428 30.0084 166.647 32.1257C165.067 33.4066 162.125 33.3242 159.781 33.2585C159.359 33.2467 158.956 33.2354 158.584 33.2327C158.556 31.382 158.562 29.4968 158.568 27.6227V27.6167C158.571 26.7698 158.574 25.9251 158.573 25.087Z" fill="#C8102E"/>
<path fill-rule="evenodd" clip-rule="evenodd" d="M9.46478 17.1811L0.00869733 17.1977L0 52.0084L8.64036 52.0143L8.62544 40.8434C9.1289 40.8433 9.6402 40.8406 10.1542 40.8378C11.2776 40.8318 12.4138 40.8257 13.5092 40.8472C14.0666 41.9383 14.6395 43.0456 15.2161 44.1599C16.5682 46.7729 17.9407 49.4253 19.1809 52.0028L23.1637 52.0085L29.8018 52.0008C29.1727 50.9644 28.502 49.8721 27.8136 48.751C25.7233 45.3469 23.4703 41.6778 21.7261 38.5049C22.8069 37.7171 23.5068 37.1388 24.3265 36.0914C27.1367 32.501 27.3244 26.2863 25.0994 22.3766C22.1203 17.1419 15.5055 17.1627 10.2206 17.1793C9.96537 17.1801 9.71325 17.1809 9.46478 17.1811ZM8.62947 25.0871C8.97276 25.0838 9.36703 25.0703 9.79408 25.0556C12.0193 24.979 15.1342 24.8718 16.5617 26.0297C18.2647 27.4113 18.0876 30.5416 16.7082 32.1928C14.9527 33.4002 12.2635 33.3254 9.92001 33.2602C9.47926 33.248 9.05074 33.2361 8.64296 33.2331C8.62193 30.5178 8.61752 27.8025 8.62947 25.0871Z" fill="#C8102E"/>
<path fill-rule="evenodd" clip-rule="evenodd" d="M132.271 17.1832L122.638 17.1931L113.846 40.235C113.407 41.3866 112.931 42.6013 112.446 43.8394C111.369 46.5887 110.247 49.4536 109.374 52.0013L118.143 52.0228L120.539 45.0438L132.56 45.0493L133.812 45.0457L136.201 52.0046L145.547 52.0015C143.702 47.0807 141.787 42.1378 139.871 37.1917C137.284 30.5127 134.694 23.8278 132.271 17.1832ZM127.147 25.9608C127.41 26.2282 129.825 33.3918 130.793 36.263L130.795 36.2685C130.965 36.7739 131.091 37.1455 131.151 37.3221L123.21 37.3257L127.147 25.9608Z" fill="#C8102E"/>
<path fill-rule="evenodd" clip-rule="evenodd" d="M131.076 37.1003C131.007 36.8982 130.911 36.6124 130.793 36.263L130.795 36.2685C130.912 36.6154 131.008 36.8992 131.076 37.1003Z" fill="#C8102E"/>
<path d="M233.088 16.5612C236.253 16.2303 241.632 17.3552 244.476 18.6738L243.258 27.0272C240.738 25.7267 238.344 25.2596 235.553 25.054C233.713 24.9183 229.698 25.2234 229.946 27.8842C230.204 30.6471 236.395 31.4634 238.481 32.5308C240.268 33.4456 241.985 34.0038 243.438 35.5203C246.99 38.844 246.738 45.6739 243.369 49.0509C240.23 52.1983 235.512 52.6617 231.257 52.6817C226.725 52.5249 224.184 51.9626 220.002 50.3976L220.786 41.7771C224.211 43.233 227.961 44.3133 231.715 44.1909C232.887 44.1585 234.936 43.9107 235.72 42.9376C238.531 39.4637 232.123 38.0384 229.903 37.3053C227.773 36.65 225.339 35.727 223.614 34.3292C218.171 29.919 220.279 19.6948 227.038 17.6278C229.433 16.8954 230.665 16.6784 233.088 16.5612Z" fill="#C8102E"/>
<path d="M33.8406 17.1941L56.7787 17.1989C56.404 19.8866 55.8541 22.6051 55.4652 25.3153L42.2745 25.3081L42.2782 31.0809L54.4733 31.0959L53.4136 37.8089L44.3549 37.8009L42.2746 37.8043L42.2797 43.921L52.6058 43.9218C52.2531 46.5285 52.0237 49.3815 51.7831 52.0121L33.8351 52.0099L33.8406 17.1941Z" fill="#C8102E"/>
<path d="M247.333 16.9944H246.297V16H249.261V16.9944H248.215V20H247.333V16.9944Z" fill="#C8102E"/>
<path d="M249.8 16H250.807L251.689 18.4722L252.6 16H253.602V20H252.729V17.6722L252 19.6611H251.401L250.672 17.6222V20H249.8V16Z" fill="#C8102E"/>
</svg>
