<svg width="160" height="72" viewBox="0 0 160 72" fill="none" xmlns="http://www.w3.org/2000/svg">
<path fill-rule="evenodd" clip-rule="evenodd" d="M50.4639 35.3147C52.052 32.7433 54.0644 31.1476 54.763 31.6494C55.4623 32.1505 55.0088 34.5567 53.8479 36.3507C53.0326 37.6099 50.9692 40.3969 47.7311 41.58C48.1509 39.0087 49.7166 36.524 50.4639 35.3147ZM57.4839 47.3367C56.2882 46.6578 54.9246 47.3497 53.6446 48.2848C52.6471 49.0141 51.6004 49.8263 50.1726 49.7041C48.6811 49.5764 48.1509 48.7448 47.9931 47.1496C60.0714 43.3491 61.9509 31.5465 60.8455 28.4466C60.17 26.5522 58.9349 24.7626 54.8497 25.3417C50.4034 25.9706 44.2092 30.4363 41.1365 41.5258C39.5795 41.4323 38.2627 41.1012 38.2627 41.1012C42.1258 24.5992 45.5622 16.6446 45.9945 14.5346C46.5571 11.7819 44.6259 9.53594 42.2418 10.0602C39.713 10.6212 38.2253 13.8389 36.2117 20.9308C34.5162 26.9 33.555 30.7025 32.1783 37.1511C31.582 40.0896 30.4785 45.5302 30.3986 45.9703C30.2358 46.866 29.9757 48.5802 29.433 48.5503C28.8903 48.5198 28.7674 46.5693 28.7244 45.959C28.4356 41.8262 27.896 32.6673 28.1349 26.5709C28.2828 22.8084 28.2335 22.2006 27.9877 21.2369C27.5111 19.3731 25.1988 18.2622 22.6756 18.9006C20.158 19.5395 19.4151 22.3683 17.9598 26.2274C16.9779 28.8412 15.4933 33.4851 14.0112 37.9932C12.627 42.6596 10.4999 50.3568 10.3902 50.7476C10.1774 51.505 9.92918 51.9812 9.56864 51.9812C9.09893 51.9812 9.1376 50.7863 9.11078 50.2197C9.09519 49.888 8.97168 45.7589 9.33098 40.7621C9.85371 33.497 10.9591 24.3437 11.2454 21.9082C11.7151 17.9119 11.4076 14.6393 5.99748 15.8486C3.21166 16.472 0.480111 18.3745 1.70335 19.6349C2.73509 20.6983 2.84238 22.9461 2.8062 24.5693C2.77376 26.0255 1.7439 41.2615 1.60105 46.6778C1.47754 51.3604 1.4032 67.8686 5.95755 68.7507C10.2866 69.5891 13.2458 66.8058 13.7617 64.6397C14.34 62.2092 17.4046 50.2066 18.4613 46.2321C19.0726 43.8671 19.8673 41.2203 20.2933 39.8477C20.5472 39.1533 20.6739 38.965 20.8367 38.9233C20.9995 38.8809 21.2378 38.846 21.2028 40.0148C21.292 46.5063 22.2901 54.7377 23.1646 58.1612C23.7366 60.4002 24.2325 63.4914 27.3527 63.6728C32.5806 63.977 33.4801 61.2193 34.0496 58.7191C34.4233 57.1357 36.5828 48.2885 36.765 47.4862C37.2334 47.6346 40.2376 48.041 40.2376 48.041C40.2376 48.041 40.7067 54.4927 44.8879 56.4862C49.0691 58.4803 55.4217 56.235 57.9942 50.732C58.3348 50.0033 58.7402 48.0504 57.4839 47.3367ZM98.1415 39.0486C97.0368 40.3364 93.79 43.5049 92.7377 43.0206C91.8663 42.6197 92.6653 39.1639 94.3433 36.4909C98.0748 30.5454 102.652 29.6023 102.652 29.6023C102.652 29.6023 102.038 34.5049 98.1415 39.0486ZM110.709 22.1669C112.263 11.0064 117.055 3.9719 112.653 3.15842C110.724 2.80062 108.478 4.02675 107.455 6.08942C105.442 10.1493 103.834 21.5804 103.834 21.5804C98.9874 22.3134 85.7114 29.3748 84.7252 44.3932C79.9738 40.1924 86.8255 28.4304 82.2706 25.3473C79.0531 23.1705 73.0885 27.8444 70.6364 31.7909C72.3811 27.5658 73.9194 24.8573 71.5602 23.5751C70.1224 22.7934 65.872 23.4018 63.8565 29.7968C60.8349 39.3877 59.8269 49.9354 61.6065 52.4999C63.0512 54.5812 66.4739 53.4287 67.7626 51.2114C69.0583 48.9823 70.3383 36.2198 76.1451 34.9058C74.6411 43.7848 76.4582 50.2764 79.6314 51.3623C81.5851 52.0305 84.5674 50.8467 85.5118 48.6469C88.9994 54.8474 100.029 46.3567 101.288 44.1033C100.812 48.7922 102.574 51.4794 103.209 52.3428C103.915 53.2946 105.877 54.4796 108.311 53.241C109.282 52.7473 110.854 51.275 110.568 49.1799C110.414 48.056 109.179 47.2749 108.735 44.5422C108.124 40.774 109.519 29.6821 109.519 29.6821C109.519 29.6821 112.674 29.884 113.019 26.1277C113.285 23.2522 110.709 22.1669 110.709 22.1669ZM149.768 36.0191C149.075 35.6538 146.572 34.2313 146.622 33.429C146.74 31.5253 150.348 29.9333 151.532 30.3497C152.264 30.6408 151.529 32.5595 152.999 33.5705C154.535 34.6271 157.438 34.2824 158.277 30.9768C159.658 25.538 156.584 20.8435 148.614 23.355C142.971 25.1328 137.339 31.4511 138.297 35.8651C139.032 39.2536 142.851 40.6512 145.572 42.0057C147.328 42.8803 148.485 43.5093 148.198 44.2791C148.004 44.8015 146.852 45.178 144.864 45.0608C142.42 44.9174 141.075 42.5194 138.866 43.4058C136.812 44.2305 136.355 45.5214 136.26 46.5344C136.056 48.7186 136.979 52.248 142.382 52.8253C148.496 53.4792 153.06 50.6124 154.747 48.8564C157.524 45.9684 157.437 42.5094 156.341 40.8245C154.422 37.8767 150.462 36.3837 149.768 36.0191ZM111.046 60.5031C112.07 59.9726 112.897 60.5212 115.919 60.6384C118.943 60.7549 121.051 59.9084 122.113 59.0445C126.09 55.8068 125.937 49.5252 126.303 46.065C126.303 46.065 120.611 53.4044 116.277 50.9639C109.254 47.0094 112.855 27.0771 116.793 23.7739C119.792 20.7351 123.206 21.7985 123.577 23.8132C124.232 27.375 121.209 27.9192 119.902 37.4085C119.716 38.7581 119.439 42.7538 120.958 42.7538C122.596 42.7538 124.157 40.3819 125.381 37.7651C126.885 34.5467 127.879 30.9581 127.879 30.9581C130.332 21.9326 133.491 21.6053 135.393 22.1146C137.616 22.7099 137.502 25.131 137.245 27.2024C137.099 28.3824 135.353 34.6252 134.186 41.6486C133.453 46.0588 133.408 50.3368 132.687 54.3163C131.584 60.399 128.398 65.8826 120.751 67.6766C116.492 68.6752 109.975 68.4814 109.748 63.0252C109.696 61.7741 110.302 60.8883 111.046 60.5031ZM139.023 21.9157C139.112 21.619 139.72 20.4689 139.72 19.1462C139.72 17.8228 139.223 16.6397 139.576 15.5176C140.253 13.3714 143.012 13.9823 143.752 14.3432C146.113 15.4964 145.658 19.047 145.447 19.9758C144.602 23.701 142.436 25.5517 140.078 24.6547C138.757 24.1517 138.833 22.574 139.023 21.9157Z" fill="white"/>
</svg>
