<svg width="48" height="48" viewBox="0 0 48 48" fill="none" xmlns="http://www.w3.org/2000/svg">
<path d="M42.8196 22.1872V39C42.8196 40.0836 42.4276 41.0146 41.6435 41.7931C40.8595 42.5716 39.9218 42.9609 38.8305 42.9609H9.11956C8.03602 42.9609 7.10499 42.5716 6.32646 41.7931C5.54792 41.0146 5.15866 40.0836 5.15866 39V22.2761C4.18766 21.363 3.58041 20.2849 3.33691 19.0418C3.09344 17.7987 3.15504 16.5855 3.52171 15.4021L5.67171 8.65215C5.99491 7.60142 6.54464 6.77423 7.32091 6.1706C8.09721 5.567 9.00691 5.2652 10.05 5.2652H37.7C38.7868 5.2652 39.7455 5.57533 40.576 6.1956C41.4065 6.8159 41.9739 7.63475 42.2783 8.65215L44.4783 15.4021C44.845 16.5688 44.8888 17.7637 44.6098 18.9869C44.3308 20.2101 43.7341 21.2769 42.8196 22.1872ZM28.5136 20.2456C29.3859 20.2456 30.1343 19.9602 30.7589 19.3893C31.3834 18.8185 31.629 18.1148 31.4957 17.2782L30.2739 9.25435H25.7544V17.25C25.7544 18.0725 26.0143 18.7773 26.5342 19.3646C27.054 19.952 27.7138 20.2456 28.5136 20.2456ZM19.1368 20.2456C19.986 20.2456 20.7164 19.9582 21.3281 19.3834C21.9398 18.8086 22.2457 18.0975 22.2457 17.25V9.25435H17.7261L16.5044 17.2782C16.3899 18.0695 16.5949 18.7619 17.1196 19.3554C17.6442 19.9489 18.3166 20.2456 19.1368 20.2456ZM10.0566 20.2456C10.7748 20.2456 11.4072 19.9848 11.9539 19.463C12.5006 18.9413 12.8145 18.3181 12.8957 17.5935L14.1674 9.25435H9.64786L7.40436 16.3565C7.08986 17.3562 7.20436 18.2543 7.74786 19.0508C8.29132 19.8474 9.06091 20.2456 10.0566 20.2456ZM37.9 20.2456C38.8913 20.2456 39.667 19.8547 40.2272 19.0728C40.7873 18.2909 40.9102 17.3855 40.5957 16.3565L38.3522 9.25435H33.8609L35.1044 17.5935C35.1855 18.3181 35.4935 18.9413 36.0283 19.463C36.5631 19.9848 37.187 20.2456 37.9 20.2456ZM9.11956 39H38.8305V24.1848C38.9203 24.1993 38.8449 24.2065 38.6044 24.2065H37.8961C37.1596 24.2065 36.4069 24.0504 35.6381 23.7381C34.8692 23.4258 34.0899 22.9312 33.3 22.2544C32.7478 22.8645 32.0696 23.3424 31.2652 23.6881C30.4608 24.0337 29.5922 24.2065 28.6595 24.2065C27.6908 24.2065 26.8435 24.079 26.1174 23.8239C25.3913 23.5689 24.6855 23.1457 24 22.5544C23.4675 23.0969 22.8213 23.5078 22.0615 23.7873C21.3017 24.0668 20.4518 24.2065 19.5118 24.2065C18.5083 24.2065 17.6052 24.0418 16.8026 23.7123C16 23.3828 15.2991 22.8969 14.7 22.2544C13.8435 22.9167 13.013 23.4076 12.2087 23.7272C11.4043 24.0468 10.6848 24.2065 10.05 24.2065H9.45981C9.28081 24.2065 9.16739 24.1993 9.11956 24.1848V39ZM16.85 36.6174H20.85C21.1167 36.6174 21.3417 36.5224 21.525 36.3324C21.7083 36.1424 21.8 35.9207 21.8 35.6674C21.8 35.4141 21.705 35.1924 21.515 35.0024C21.325 34.8124 21.1033 34.7174 20.85 34.7174H17.8V32.4174H20.8441C21.1147 32.4174 21.3417 32.3177 21.525 32.1183C21.7083 31.9189 21.8 31.7019 21.8 31.4674V27.4674C21.8 27.2007 21.705 26.9757 21.515 26.7924C21.325 26.6091 21.1033 26.5174 20.85 26.5174H16.85C16.5833 26.5174 16.3583 26.6077 16.175 26.7883C15.9917 26.9689 15.9 27.1952 15.9 27.4674C15.9 27.7019 15.995 27.9189 16.185 28.1183C16.375 28.3177 16.5967 28.4174 16.85 28.4174H19.9V30.5174H16.8559C16.5853 30.5174 16.3583 30.6124 16.175 30.8024C15.9917 30.9924 15.9 31.2141 15.9 31.4674V35.6492C15.9 35.9092 15.995 36.1355 16.185 36.3283C16.375 36.521 16.5967 36.6174 16.85 36.6174ZM30.2 32.4174V35.6674C30.2 35.9019 30.295 36.1189 30.485 36.3183C30.675 36.5177 30.8967 36.6174 31.15 36.6174C31.4033 36.6174 31.625 36.5177 31.815 36.3183C32.005 36.1189 32.1 35.9019 32.1 35.6674V27.4769C32.1 27.2039 32.005 26.9757 31.815 26.7924C31.625 26.6091 31.4033 26.5174 31.15 26.5174C30.8967 26.5174 30.675 26.6124 30.485 26.8024C30.295 26.9924 30.2 27.2141 30.2 27.4674V30.5174H28.1V27.4733C28.1 27.2027 28.005 26.9757 27.815 26.7924C27.625 26.6091 27.4033 26.5174 27.15 26.5174C26.8967 26.5174 26.675 26.6124 26.485 26.8024C26.295 26.9924 26.2 27.2141 26.2 27.4674V31.4674C26.2 31.7152 26.295 31.9355 26.485 32.1283C26.675 32.321 26.8967 32.4174 27.15 32.4174H30.2Z" fill="#191A1B"/>
</svg>
