<svg width="48" height="48" viewBox="0 0 48 48" fill="none" xmlns="http://www.w3.org/2000/svg">
<path d="M23.9648 23.45C21.3914 23.45 19.2914 22.6367 17.6648 21.0102C16.0383 19.3836 15.225 17.2836 15.225 14.7102C15.225 12.1367 16.0383 10.0333 17.6648 8.4C19.2914 6.76667 21.3914 5.95 23.9648 5.95C26.5383 5.95 28.65 6.76667 30.3 8.4C31.95 10.0333 32.775 12.1367 32.775 14.7102C32.775 17.2836 31.95 19.3836 30.3 21.0102C28.65 22.6367 26.5383 23.45 23.9648 23.45ZM11.425 42.05C10.09 42.05 8.97292 41.5917 8.07376 40.675C7.17459 39.7583 6.72501 38.65 6.72501 37.35V36C6.72501 34.5333 7.10222 33.2431 7.85666 32.1292C8.61109 31.0153 9.60054 30.1722 10.825 29.6C13.125 28.5667 15.35 27.7917 17.5 27.275C19.65 26.7583 21.8039 26.5 23.9616 26.5C26.1859 26.5 28.3609 26.7667 30.4866 27.3C32.6122 27.8333 34.8083 28.6 37.075 29.6C38.3417 30.1333 39.3583 30.9583 40.125 32.075C40.8917 33.1917 41.275 34.5 41.275 36V37.35C41.275 38.65 40.8205 39.7583 39.9116 40.675C39.0026 41.5917 37.8738 42.05 36.525 42.05H11.425Z" fill="#191A1B"/>
</svg>
