<svg width="48" height="48" viewBox="0 0 48 48" fill="none" xmlns="http://www.w3.org/2000/svg">
<path d="M23.9801 23.4609C21.569 23.4609 19.5995 22.6969 18.0714 21.1688C16.5434 19.6407 15.7793 17.6712 15.7793 15.2601C15.7793 12.849 16.5434 10.8775 18.0714 9.3456C19.5995 7.8137 21.569 7.04775 23.9801 7.04775C26.3912 7.04775 28.3674 7.8137 29.9087 9.3456C31.45 10.8775 32.2207 12.849 32.2207 15.2601C32.2207 17.6712 31.45 19.6407 29.9087 21.1688C28.3674 22.6969 26.3912 23.4609 23.9801 23.4609ZM36.7315 40.9523H11.2402C10.1317 40.9523 9.19438 40.5643 8.42838 39.7884C7.66234 39.0125 7.27933 38.0801 7.27933 36.9914V35.4892C7.27933 34.1038 7.63206 32.9025 8.33753 31.8855C9.04299 30.8684 9.95548 30.0957 11.075 29.5674C13.346 28.5486 15.5344 27.7844 17.6401 27.275C19.7459 26.7656 21.8586 26.5109 23.9783 26.5109C26.1341 26.5109 28.2547 26.7739 30.3402 27.3C32.4257 27.8261 34.5932 28.5851 36.8428 29.5771C38.0107 30.0849 38.949 30.8475 39.6577 31.865C40.3663 32.8826 40.7207 34.0906 40.7207 35.4892V36.9914C40.7207 38.0801 40.3349 39.0125 39.5634 39.7884C38.7918 40.5643 37.8479 40.9523 36.7315 40.9523ZM11.2402 36.9914H36.7315V35.6023C36.7315 35.0811 36.5732 34.5838 36.2565 34.1105C35.9399 33.6371 35.5482 33.2866 35.0815 33.0588C33.0236 32.082 31.1348 31.4113 29.4153 31.0468C27.6959 30.6823 25.8814 30.5 23.9719 30.5C22.1 30.5 20.2783 30.6823 18.5065 31.0468C16.7348 31.4113 14.8501 32.0805 12.8523 33.0543C12.3776 33.2823 11.9902 33.6334 11.6902 34.1076C11.3902 34.5818 11.2402 35.0801 11.2402 35.6023V36.9914ZM23.9801 19.4999C25.2086 19.4999 26.2243 19.1 27.0272 18.3C27.8301 17.5 28.2315 16.4851 28.2315 15.2554C28.2315 14.0178 27.832 13.0006 27.0329 12.2038C26.2339 11.4071 25.2201 11.0087 23.9916 11.0087C22.7632 11.0087 21.7475 11.4075 20.9446 12.2051C20.1417 13.0028 19.7402 14.0148 19.7402 15.2413C19.7402 16.4756 20.1398 17.4939 20.9388 18.2964C21.7379 19.0988 22.7517 19.4999 23.9801 19.4999Z" fill="#191A1B"/>
</svg>
