<svg width="48" height="48" viewBox="0 0 48 48" fill="none" xmlns="http://www.w3.org/2000/svg">
<path d="M2.26501 17.4675C2.26501 14.2492 3.34085 11.5257 5.49251 9.297C7.64418 7.06866 10.3038 5.9545 13.4715 5.9545C15.3582 5.9545 17.1039 6.36783 18.7085 7.1945C20.3129 8.02116 21.7338 9.24683 22.9715 10.8715C24.4095 9.16583 25.9047 7.91983 27.457 7.1335C29.0097 6.3475 30.6782 5.9545 32.4625 5.9545C35.1252 5.9545 37.4083 6.82116 39.312 8.5545C41.2157 10.2878 42.4478 12.4233 43.0085 14.961C43.1695 15.474 43.1119 15.9542 42.8355 16.4015C42.5592 16.8488 42.1623 17.144 41.645 17.287C41.128 17.4303 40.6495 17.3682 40.2095 17.1005C39.7692 16.8325 39.4697 16.4388 39.311 15.9195C39.0487 14.2368 38.3255 12.8202 37.1415 11.6695C35.9572 10.5188 34.3963 9.9435 32.459 9.9435C30.7957 9.9435 29.2968 10.4225 27.9625 11.3805C26.6282 12.3385 25.6008 13.5892 24.8805 15.1325C24.6762 15.5122 24.3977 15.8183 24.045 16.051C23.6927 16.2837 23.3182 16.4 22.9215 16.4C22.5275 16.4 22.162 16.2883 21.825 16.065C21.488 15.842 21.2268 15.5312 21.0415 15.1325C20.3398 13.5702 19.3233 12.3148 17.992 11.3665C16.6607 10.4178 15.1515 9.9435 13.4645 9.9435C11.3258 9.9435 9.58951 10.6627 8.25551 12.101C6.92151 13.5397 6.25451 15.3248 6.25451 17.4565C6.25451 18.7825 6.50868 20.061 7.01701 21.292C7.52568 22.523 8.40951 23.9215 9.66851 25.4875C10.9272 27.0535 12.6403 28.8775 14.808 30.9595C16.9757 33.0415 19.6968 35.618 22.9715 38.689L26.465 35.626C26.8277 35.2653 27.2687 35.0922 27.788 35.1065C28.307 35.1212 28.7568 35.3187 29.1375 35.699C29.5358 36.078 29.7302 36.5502 29.7205 37.1155C29.7112 37.6805 29.4927 38.1435 29.065 38.5045L25.615 41.574C25.2397 41.916 24.8163 42.1642 24.345 42.3185C23.8737 42.4728 23.4117 42.55 22.959 42.55C22.5067 42.55 22.0529 42.4708 21.5975 42.3125C21.1422 42.1542 20.7357 41.9007 20.378 41.552C18.0637 39.4317 15.8202 37.361 13.6475 35.34C11.4752 33.319 9.54635 31.319 7.86101 29.34C6.17535 27.361 4.82135 25.386 3.79901 23.415C2.77635 21.4443 2.26501 19.4618 2.26501 17.4675ZM36.1715 28.9805H31.652C31.0953 28.9805 30.626 28.7888 30.244 28.4055C29.8624 28.0222 29.6715 27.5507 29.6715 26.991C29.6715 26.4317 29.8624 25.9633 30.244 25.586C30.626 25.2083 31.0953 25.0195 31.652 25.0195H36.1715V20.5C36.1715 19.943 36.3633 19.4737 36.747 19.092C37.1304 18.7103 37.6017 18.5195 38.161 18.5195C38.7203 18.5195 39.1889 18.7103 39.5665 19.092C39.9439 19.4737 40.1325 19.943 40.1325 20.5V25.0195H44.652C45.209 25.0195 45.6783 25.2112 46.06 25.5945C46.4417 25.9778 46.6325 26.4493 46.6325 27.009C46.6325 27.5683 46.4417 28.0367 46.06 28.414C45.6783 28.7917 45.209 28.9805 44.652 28.9805H40.1325V33.5C40.1325 34.057 39.9409 34.5263 39.5575 34.908C39.1742 35.2897 38.7029 35.4805 38.1435 35.4805C37.5842 35.4805 37.1157 35.2897 36.738 34.908C36.3604 34.5263 36.1715 34.057 36.1715 33.5V28.9805Z" fill="#191A1B"/>
</svg>
