<svg width="48" height="48" viewBox="0 0 48 48" fill="none" xmlns="http://www.w3.org/2000/svg">
<path d="M6.25 40.075C4.94834 40.075 3.83959 39.6171 2.92375 38.7012C2.00792 37.7854 1.55 36.6767 1.55 35.375V10.275C1.55 8.95956 2.00792 7.83904 2.92375 6.91344C3.83959 5.98781 4.94834 5.52499 6.25 5.52499H39.35C40.6654 5.52499 41.786 5.98781 42.7116 6.91344C43.6372 7.83904 44.1 8.95956 44.1 10.275V21.675H6.25V35.375H23.3C23.9583 35.375 24.5146 35.6029 24.9688 36.0587C25.4229 36.5146 25.65 37.0729 25.65 37.7337C25.65 38.3946 25.4229 38.95 24.9688 39.4C24.5146 39.85 23.9583 40.075 23.3 40.075H6.25ZM6.25 14.725H39.35V10.275H6.25V14.725ZM37.6 37.025H33.85C33.3683 37.025 32.9646 36.8617 32.6388 36.535C32.3129 36.2083 32.15 35.8035 32.15 35.3206C32.15 34.8377 32.3129 34.4344 32.6388 34.1106C32.9646 33.7869 33.3683 33.625 33.85 33.625H37.6V29.825C37.6 29.3575 37.7633 28.9656 38.09 28.6493C38.4167 28.3331 38.8215 28.175 39.3044 28.175C39.7873 28.175 40.1906 28.3331 40.5144 28.6493C40.8381 28.9656 41 29.3575 41 29.825V33.625H44.8C45.2675 33.625 45.6594 33.7883 45.9757 34.115C46.2919 34.4417 46.45 34.8465 46.45 35.3294C46.45 35.8123 46.2919 36.2156 45.9757 36.5394C45.6594 36.8631 45.2675 37.025 44.8 37.025H41V40.775C41 41.2567 40.8367 41.6604 40.51 41.9862C40.1833 42.3121 39.7785 42.475 39.2956 42.475C38.8127 42.475 38.4094 42.3121 38.0857 41.9862C37.7619 41.6604 37.6 41.2567 37.6 40.775V37.025Z" fill="#191A1B"/>
</svg>
