<svg width="48" height="48" viewBox="0 0 48 48" fill="none" xmlns="http://www.w3.org/2000/svg">
<path d="M38.1435 35.4805C37.5842 35.4805 37.1157 35.2897 36.738 34.908C36.3603 34.5263 36.1715 34.057 36.1715 33.5V28.9805H31.652C31.0953 28.9805 30.626 28.7888 30.244 28.4055C29.8623 28.0222 29.6715 27.5507 29.6715 26.991C29.6715 26.4317 29.8623 25.9633 30.244 25.586C30.626 25.2083 31.0953 25.0195 31.652 25.0195H36.1715V20.5C36.1715 19.943 36.3633 19.4737 36.747 19.092C37.1303 18.7103 37.6017 18.5195 38.161 18.5195C38.7203 18.5195 39.1888 18.7103 39.5665 19.092C39.9438 19.4737 40.1325 19.943 40.1325 20.5V25.0195H44.652C45.209 25.0195 45.6783 25.2112 46.06 25.5945C46.4417 25.9778 46.6325 26.4493 46.6325 27.009C46.6325 27.5683 46.4417 28.0367 46.06 28.414C45.6783 28.7917 45.209 28.9805 44.652 28.9805H40.1325V33.5C40.1325 34.057 39.9408 34.5263 39.5575 34.908C39.1742 35.2897 38.7028 35.4805 38.1435 35.4805ZM22.959 42.65C22.5067 42.65 22.0552 42.5677 21.6045 42.403C21.1538 42.2383 20.745 41.988 20.378 41.652C17.997 39.513 15.7118 37.4377 13.5225 35.426C11.3335 33.4143 9.4035 31.4242 7.7325 29.4555C6.0615 27.4868 4.7325 25.5273 3.7455 23.577C2.7585 21.627 2.265 19.6238 2.265 17.5675C2.265 14.3602 3.33933 11.6228 5.488 9.3555C7.63667 7.08816 10.2978 5.9545 13.4715 5.9545C15.3528 5.9545 17.0972 6.38083 18.7045 7.2335C20.3115 8.0865 21.7338 9.32533 22.9715 10.95C24.4095 9.244 25.9023 7.985 27.45 7.173C28.9977 6.36066 30.6715 5.9545 32.4715 5.9545C34.3252 5.9545 36.0332 6.4135 37.5955 7.3315C39.1578 8.2495 40.4362 9.42383 41.4305 10.8545C42.0465 11.6238 42.1402 12.439 41.7115 13.3C41.2832 14.161 40.5902 14.5675 39.6325 14.5195H38.735C34.8957 14.5195 31.7587 15.7427 29.324 18.189C26.889 20.6353 25.6715 23.5723 25.6715 27C25.6715 28.626 25.964 30.1778 26.549 31.6555C27.1337 33.1332 28.039 34.4168 29.265 35.5065C29.7013 35.9008 29.9065 36.3863 29.8805 36.963C29.8545 37.54 29.6348 38.0277 29.2215 38.426L25.565 41.624C25.2043 41.966 24.793 42.2225 24.331 42.3935C23.869 42.5645 23.4117 42.65 22.959 42.65Z" fill="#191A1B"/>
</svg>
