<svg width="48" height="48" viewBox="0 0 48 48" fill="none" xmlns="http://www.w3.org/2000/svg">
<path d="M21.625 26.375H11.075C10.4167 26.375 9.86042 26.1471 9.40626 25.6912C8.95209 25.2354 8.72501 24.677 8.72501 24.0162C8.72501 23.3554 8.95209 22.8 9.40626 22.35C9.86042 21.9 10.4167 21.675 11.075 21.675H21.625V11.125C21.625 10.4708 21.8529 9.90727 22.3088 9.43437C22.7646 8.96144 23.323 8.72498 23.9838 8.72498C24.6446 8.72498 25.2 8.96144 25.65 9.43437C26.1 9.90727 26.325 10.4708 26.325 11.125V21.675H36.875C37.5292 21.675 38.0927 21.9029 38.5656 22.3587C39.0385 22.8146 39.275 23.3729 39.275 24.0337C39.275 24.6946 39.0385 25.25 38.5656 25.7C38.0927 26.15 37.5292 26.375 36.875 26.375H26.325V36.925C26.325 37.5833 26.0971 38.1396 25.6413 38.5937C25.1854 39.0479 24.6271 39.275 23.9663 39.275C23.3054 39.275 22.75 39.0479 22.3 38.5937C21.85 38.1396 21.625 37.5833 21.625 36.925V26.375Z" fill="#191A1B"/>
</svg>
