<svg width="48" height="48" viewBox="0 0 48 48" fill="none" xmlns="http://www.w3.org/2000/svg">
<path d="M5 42.775C4.51723 42.775 4.1009 42.6596 3.751 42.4288C3.40103 42.1979 3.13403 41.9133 2.95 41.575C2.74443 41.255 2.63471 40.882 2.62085 40.456C2.60695 40.03 2.71666 39.603 2.95 39.175L21.95 6.37501C22.1833 5.97501 22.485 5.68334 22.8551 5.50001C23.2252 5.31667 23.6085 5.22501 24.0051 5.22501C24.4017 5.22501 24.7833 5.31667 25.15 5.50001C25.5167 5.68334 25.8167 5.97501 26.05 6.37501L45.05 39.175C45.2833 39.603 45.3931 40.03 45.3792 40.456C45.3653 40.882 45.2556 41.255 45.05 41.575C44.8601 41.9 44.5917 42.1813 44.2447 42.4188C43.8977 42.6563 43.4828 42.775 43 42.775H5ZM8.15 38.575H39.85L24 11.175L8.15 38.575ZM24.2087 36.175C24.6554 36.175 25.049 36.0019 25.3894 35.6556C25.7298 35.3093 25.9 34.9129 25.9 34.4663C25.9 34.0196 25.7269 33.6344 25.3806 33.3106C25.0343 32.9869 24.6379 32.825 24.1912 32.825C23.7446 32.825 23.351 32.9898 23.0106 33.3194C22.6702 33.649 22.5 34.0371 22.5 34.4838C22.5 34.9304 22.6731 35.324 23.0194 35.6644C23.3657 36.0048 23.7621 36.175 24.2087 36.175ZM24.2087 30.725C24.6362 30.725 24.9917 30.5813 25.275 30.2938C25.5583 30.0063 25.7 29.65 25.7 29.225V21.425C25.7 21 25.5554 20.6438 25.2662 20.3563C24.977 20.0688 24.6187 19.925 24.1912 19.925C23.7638 19.925 23.4083 20.0688 23.125 20.3563C22.8417 20.6438 22.7 21 22.7 21.425V29.225C22.7 29.65 22.8446 30.0063 23.1337 30.2938C23.4229 30.5813 23.7813 30.725 24.2087 30.725Z" fill="#191A1B"/>
</svg>
