<svg width="48" height="48" viewBox="0 0 48 48" fill="none" xmlns="http://www.w3.org/2000/svg">
<path d="M32.7 26.3379H9.55C8.88333 26.3379 8.325 26.1129 7.875 25.6629C7.425 25.2129 7.2 24.6546 7.2 23.9879C7.2 23.3213 7.425 22.7629 7.875 22.3129C8.325 21.8629 8.88333 21.6379 9.55 21.6379H32.7L22.8 11.7379C22.3333 11.2713 22.0903 10.7101 22.071 10.0543C22.0517 9.39857 22.2767 8.83312 22.746 8.35795C23.2153 7.87795 23.7803 7.64628 24.4409 7.66295C25.1015 7.67961 25.6712 7.92128 26.15 8.38795L40.05 22.2879C40.2803 22.5268 40.4629 22.7967 40.5978 23.0976C40.7326 23.3986 40.8 23.6972 40.8 23.9935C40.8 24.2898 40.7326 24.5871 40.5978 24.8854C40.4629 25.1838 40.2803 25.4513 40.05 25.6879L26.1 39.5879C25.5833 40.0879 25.0125 40.3379 24.3875 40.3379C23.7625 40.3379 23.2167 40.0841 22.75 39.5763C22.2833 39.1073 22.05 38.5586 22.05 37.9303C22.05 37.3021 22.2833 36.7546 22.75 36.2879L32.7 26.3379Z" fill="#191A1B"/>
</svg>
