<svg width="48" height="48" viewBox="0 0 48 48" fill="none" xmlns="http://www.w3.org/2000/svg">
<path d="M15.275 26.3621L25.175 36.2621C25.6417 36.7318 25.8833 37.2909 25.9 37.9394C25.9167 38.5879 25.6917 39.1527 25.225 39.6339C24.7583 40.1194 24.1947 40.3538 23.5341 40.3371C22.8735 40.3204 22.3038 40.0788 21.825 39.6121L7.92499 25.7121C7.69469 25.4732 7.5121 25.2033 7.37724 24.9024C7.2424 24.6015 7.17499 24.3029 7.17499 24.0066C7.17499 23.7103 7.2424 23.4129 7.37724 23.1146C7.5121 22.8163 7.69469 22.5488 7.92499 22.3121L21.875 8.36211C22.3917 7.89544 22.9625 7.66211 23.5875 7.66211C24.2125 7.66211 24.7583 7.89544 25.225 8.36211C25.6917 8.86211 25.925 9.42766 25.925 10.0588C25.925 10.6899 25.6917 11.241 25.225 11.7121L15.275 21.6621H38.425C39.0875 21.6621 39.6531 21.8871 40.1219 22.3371C40.5906 22.7871 40.825 23.3454 40.825 24.0121C40.825 24.6788 40.5906 25.2371 40.1219 25.6871C39.6531 26.1371 39.0875 26.3621 38.425 26.3621H15.275Z" fill="#191A1B"/>
</svg>
