<svg width="48" height="48" viewBox="0 0 48 48" fill="none" xmlns="http://www.w3.org/2000/svg">
<path d="M21.6621 32.725V9.57499C21.6621 8.91249 21.8871 8.34686 22.3371 7.87809C22.7871 7.40936 23.3454 7.17499 24.0121 7.17499C24.6787 7.17499 25.2371 7.40936 25.6871 7.87809C26.1371 8.34686 26.3621 8.91249 26.3621 9.57499V32.725L36.2621 22.825C36.7287 22.3583 37.29 22.1153 37.9457 22.096C38.6015 22.0767 39.1669 22.3017 39.6421 22.771C40.1221 23.2403 40.3537 23.8053 40.3371 24.4659C40.3204 25.1265 40.0787 25.6962 39.6121 26.175L25.7121 40.075C25.4732 40.3053 25.2033 40.4879 24.9024 40.6227C24.6014 40.7576 24.3028 40.825 24.0065 40.825C23.7102 40.825 23.4129 40.7576 23.1146 40.6227C22.8162 40.4879 22.5487 40.3053 22.3121 40.075L8.41208 26.125C7.91208 25.6083 7.66208 25.0375 7.66208 24.4125C7.66208 23.7875 7.91595 23.2417 8.42368 22.775C8.89275 22.3083 9.44141 22.075 10.0697 22.075C10.6979 22.075 11.2454 22.3083 11.7121 22.775L21.6621 32.725Z" fill="#191A1B"/>
</svg>
