<svg width="48" height="48" viewBox="0 0 48 48" fill="none" xmlns="http://www.w3.org/2000/svg">
<path d="M32.675 18.625L14.625 36.725C14.125 37.1917 13.5667 37.425 12.95 37.425C12.3333 37.425 11.7917 37.175 11.325 36.675C10.825 36.175 10.575 35.6167 10.575 35C10.575 34.3833 10.825 33.825 11.325 33.325L29.375 15.275H14.075C13.3833 15.275 12.8104 15.0471 12.3563 14.5913C11.9021 14.1354 11.675 13.5771 11.675 12.9163C11.675 12.2554 11.9021 11.7 12.3563 11.25C12.8104 10.8 13.3833 10.575 14.075 10.575H35.075C35.7333 10.575 36.2896 10.8021 36.7438 11.2563C37.1979 11.7104 37.425 12.2667 37.425 12.925V33.925C37.425 34.5833 37.1971 35.1396 36.7413 35.5938C36.2854 36.0479 35.7271 36.275 35.0663 36.275C34.3721 36.275 33.8 36.0479 33.35 35.5938C32.9 35.1396 32.675 34.5833 32.675 33.925V18.625Z" fill="#191A1B"/>
</svg>
