<svg width="48" height="48" viewBox="0 0 48 48" fill="none" xmlns="http://www.w3.org/2000/svg">
<path d="M21.6379 15.3L11.7379 25.2C11.2682 25.6667 10.7091 25.9083 10.0607 25.925C9.41216 25.9417 8.84733 25.7167 8.36616 25.25C7.88066 24.7833 7.64624 24.2197 7.66291 23.5591C7.67958 22.8985 7.92124 22.3288 8.38791 21.85L22.2879 7.95001C22.5268 7.71971 22.7967 7.53713 23.0976 7.40226C23.3985 7.26743 23.6972 7.20001 23.9935 7.20001C24.2898 7.20001 24.5871 7.26743 24.8854 7.40226C25.1837 7.53713 25.4512 7.71971 25.6879 7.95001L39.6379 21.9C40.1046 22.4167 40.3379 22.9875 40.3379 23.6125C40.3379 24.2375 40.1046 24.7833 39.6379 25.25C39.1379 25.7167 38.5724 25.95 37.9413 25.95C37.3101 25.95 36.759 25.7167 36.2879 25.25L26.3379 15.3V38.45C26.3379 39.1167 26.1129 39.675 25.6629 40.125C25.2129 40.575 24.6546 40.8 23.9879 40.8C23.3212 40.8 22.7629 40.575 22.3129 40.125C21.8629 39.675 21.6379 39.1167 21.6379 38.45V15.3Z" fill="#191A1B"/>
</svg>
