<svg width="48" height="48" viewBox="0 0 48 48" fill="none" xmlns="http://www.w3.org/2000/svg">
<path d="M9.21825 7.91344L15.0884 6.60896L18.3496 4L37.9168 6.60896V13.1314H9.21825V7.91344Z" fill="#D16E72"/>
<mask id="mask0_3649_86" style="mask-type:luminance" maskUnits="userSpaceOnUse" x="9" y="4" width="29" height="10">
<g opacity="0.6">
<path d="M9.21825 7.91344L15.0884 6.60896L18.3496 4L37.9168 6.60896V13.1314H9.21825V7.91344Z" fill="white"/>
</g>
</mask>
<g mask="url(#mask0_3649_86)">
<path fill-rule="evenodd" clip-rule="evenodd" d="M7.91378 2.69552H18.3496V30.0896H7.91378V2.69552Z" fill="#EC9599"/>
</g>
<path d="M29.6151 43.7409L37.9024 38.7161C38.302 38.4741 38.6292 38.1292 38.8499 37.7176C39.0707 37.3059 39.1768 36.8426 39.1573 36.3759L37.9168 6.60896L32.6989 7.91344L30.0899 10.5224L28.8233 43.2739C28.8195 43.3682 28.8414 43.4616 28.8865 43.5444C28.9316 43.6272 28.9983 43.6963 29.0796 43.7442C29.1608 43.7921 29.2535 43.8171 29.3478 43.8165C29.4421 43.8159 29.5344 43.7898 29.6151 43.7409Z" fill="#B20C14"/>
<mask id="mask1_3649_86" style="mask-type:luminance" maskUnits="userSpaceOnUse" x="28" y="6" width="12" height="38">
<g opacity="0.6">
<path d="M29.6151 43.7409L37.9024 38.7161C38.302 38.4741 38.6292 38.1292 38.8499 37.7176C39.0707 37.3059 39.1768 36.8426 39.1573 36.3759L37.9168 6.60896L32.6989 7.91344L30.0899 10.5224L28.8233 43.2739C28.8195 43.3682 28.8414 43.4616 28.8865 43.5444C28.9316 43.6272 28.9983 43.6963 29.0796 43.7442C29.1608 43.7921 29.2535 43.8171 29.3478 43.8165C29.4421 43.8159 29.5344 43.7898 29.6151 43.7409Z" fill="white"/>
</g>
</mask>
<g mask="url(#mask1_3649_86)">
<path fill-rule="evenodd" clip-rule="evenodd" d="M32.6989 6.60895L34.0033 35.3075L43.1347 40.5254L41.8302 5.30447L32.6989 6.60895Z" fill="#DF4D54"/>
</g>
<mask id="mask2_3649_86" style="mask-type:luminance" maskUnits="userSpaceOnUse" x="28" y="6" width="12" height="38">
<g opacity="0.6">
<path d="M29.6151 43.7409L37.9024 38.7161C38.302 38.4741 38.6292 38.1292 38.8499 37.7176C39.0707 37.3059 39.1768 36.8426 39.1573 36.3759L37.9168 6.60896L32.6989 7.91344L30.0899 10.5224L28.8233 43.2739C28.8195 43.3682 28.8414 43.4616 28.8865 43.5444C28.9316 43.6272 28.9983 43.6963 29.0796 43.7442C29.1608 43.7921 29.2535 43.8171 29.3478 43.8165C29.4421 43.8159 29.5344 43.7898 29.6151 43.7409Z" fill="white"/>
</g>
</mask>
<g mask="url(#mask2_3649_86)">
<path fill-rule="evenodd" clip-rule="evenodd" d="M34.0033 35.3075L27.4809 48.3523L41.8302 37.9164L34.0033 35.3075Z" fill="#CD2028"/>
</g>
<path fill-rule="evenodd" clip-rule="evenodd" d="M9.21826 7.91344L30.0899 10.5224V42.6961C30.0898 42.8988 30.0425 43.0987 29.9517 43.2799C29.8609 43.4611 29.7291 43.6187 29.5668 43.7401C29.4045 43.8615 29.2161 43.9434 29.0167 43.9793C28.8172 44.0153 28.612 44.0042 28.4176 43.9471L9.8731 38.493C9.31375 38.3286 8.82559 37.9815 8.48653 37.5072C8.14748 37.0329 7.97706 36.4587 8.00248 35.8762L9.21826 7.91344Z" fill="#CD2028"/>
<path fill-rule="evenodd" clip-rule="evenodd" d="M26.1778 20.8147C25.7838 21.9914 25.2451 23.6885 24.4741 26.6849L23.9784 28.6625C23.9171 28.9129 23.8545 29.166 23.7919 29.4295C23.5819 30.3009 23.201 31.6523 23.077 32.1428C22.8879 32.9177 22.6687 33.3716 21.8247 33.6117C21.8247 33.6117 21.3851 33.7512 20.8555 33.6769C19.7102 33.5204 19.6554 32.662 19.4662 31.9693C19.1767 30.9101 18.8662 28.3168 18.827 26.8114C18.8231 26.6575 18.8197 26.5036 18.8166 26.3496L18.8101 26.1983C18.8112 26.1522 18.8059 26.1061 18.7944 26.0613C18.7814 26.0144 18.7501 25.9987 18.694 26.0118C18.6405 26.0248 18.5988 26.0822 18.5153 26.2988C18.3731 26.7227 18.1096 27.5419 17.9087 28.275C17.5565 29.5065 17.143 30.9257 16.9616 31.7267L16.3485 33.9769C16.1881 34.65 15.4628 35.0766 14.9841 35.194C14.4623 35.3218 14.157 35.344 13.7605 35.2501C13.2269 35.1236 12.9178 34.4935 12.7612 33.9287C12.6738 33.6117 12.5108 33.0233 12.4481 32.3033C12.3268 30.8697 12.2747 29.8639 12.3151 28.4133C12.3634 26.7358 12.5382 24.282 12.6543 22.9202L12.7156 21.5648C12.7169 21.0626 12.6856 20.7495 12.619 20.5251C12.5616 20.3347 12.4899 20.2277 12.3503 20.0373C12.302 19.9733 12.2538 19.9316 12.242 19.8872C12.1599 19.5937 12.8499 19.0602 13.7748 18.8645C14.3475 18.7419 14.8445 18.7171 15.2515 19.0524C15.5124 19.3263 15.5528 19.595 15.5385 20.1534C15.5258 20.3965 15.5067 20.6392 15.4811 20.8813C15.408 21.7553 15.168 23.2828 15.0962 24.1568C14.971 25.3674 14.8432 26.7214 14.8106 27.9685C14.7949 28.5803 14.7871 29.74 14.8366 29.9213C14.8627 30.0126 14.9084 30.0752 14.9893 30.0544C15.0688 30.0322 15.1106 29.9735 15.2306 29.6734L15.3297 29.3069L15.4315 28.939C15.4315 28.939 15.9728 27.1688 16.432 25.7222C16.9225 24.3264 17.4156 22.8889 17.7417 22.0788C18.2244 20.8839 18.4696 20.0073 19.3045 19.809C20.142 19.6133 20.909 19.9564 21.0655 20.533C21.1477 20.833 21.1503 21.0195 21.1151 22.1857C21.0551 24.2259 21.1934 25.8383 21.2456 27.3945C21.2886 28.0715 21.346 28.5986 21.4151 28.8529C21.4477 28.9677 21.5143 29.0029 21.5691 28.9912C21.676 28.969 21.7113 28.8868 21.7778 28.6038C21.8065 28.4681 21.8352 28.3298 21.8665 28.1942C22.0622 27.2836 22.2578 26.3731 22.4561 25.4626C22.9127 23.4654 23.2323 22.2875 23.7932 20.4377C24.4624 18.2423 24.9542 17.2457 25.793 17.0722C26.5848 16.9091 27.0296 17.5157 27.0714 18.1171C27.0883 18.3232 26.9879 18.768 26.8196 19.0928L26.1778 20.8147Z" fill="white"/>
</svg>
