<svg width="48" height="48" viewBox="0 0 48 48" fill="none" xmlns="http://www.w3.org/2000/svg">
<path d="M40.911 36.4848C40.886 36.6098 40.836 36.7348 40.7735 36.8598C40.536 37.3472 40.1486 37.7472 39.6737 38.0097L29.3375 43.5589C29.4125 43.4714 29.45 43.359 29.45 43.234C29.45 43.1465 29.45 43.034 29.4625 42.909V42.7465C29.625 40.0969 30.7623 30.3856 32.8995 13.6378C32.9995 13.6253 33.087 13.5878 33.187 13.5628C33.487 13.4754 33.7744 13.3504 34.0494 13.1879C34.2119 13.1004 34.3618 13.0004 34.4993 12.8879C34.8743 12.5755 35.1992 12.188 35.4367 11.7506C35.6742 11.3131 35.8242 10.8382 35.8741 10.3383C35.8991 10.1508 35.8991 9.96332 35.8866 9.77584C36.949 13.2754 38.6613 21.7618 40.9985 35.285C41.061 35.685 41.036 36.0974 40.911 36.4848Z" fill="white"/>
<path fill-rule="evenodd" clip-rule="evenodd" d="M40.911 36.4848C40.886 36.6098 40.836 36.7348 40.7735 36.8598C40.536 37.3472 40.1486 37.7472 39.6737 38.0097L29.3375 43.5589C29.4125 43.4714 29.45 43.359 29.45 43.234C29.45 43.1465 29.45 43.034 29.4625 42.909V42.7465L36.1366 35.1225L40.911 36.4848Z" fill="#ECECEC"/>
<path fill-rule="evenodd" clip-rule="evenodd" d="M36.1366 35.1225L29.4625 42.909V42.7465C29.625 40.0969 30.7623 30.3856 32.8995 13.6378C32.9995 13.6253 33.087 13.5878 33.187 13.5628C33.487 13.4754 33.7744 13.3504 34.0494 13.1879L36.1366 35.1225Z" fill="#DBDBDB"/>
<path fill-rule="evenodd" clip-rule="evenodd" d="M35.8866 9.76335C35.8991 9.96333 35.8991 10.1508 35.8741 10.3383C35.8242 10.8382 35.6742 11.3131 35.4367 11.7506C35.1992 12.188 34.8743 12.5755 34.4993 12.8879C34.3618 13.0004 34.2119 13.1004 34.0494 13.1879C33.7744 13.3504 33.487 13.4754 33.187 13.5628C33.087 13.5878 32.9995 13.6253 32.8995 13.6253C30.7623 30.3857 29.625 40.0969 29.4625 42.7465V42.909C29.45 43.034 29.45 43.1465 29.45 43.234C29.45 43.359 29.4125 43.4714 29.3375 43.5589L29.325 43.5589C29.2 43.7214 28.95 43.8339 28.6001 43.9089C28.5876 43.9089 28.5626 43.9214 28.5376 43.9214C28.5001 43.9339 28.4626 43.9339 28.4251 43.9464C24.4631 44.5213 10.1275 40.3094 7.79029 39.122C6.09051 38.2471 7.02789 28.9983 10.6024 11.3381C9.96501 11.1007 9.40258 10.7007 8.97764 10.1633C8.34022 9.3884 8.04026 8.38853 8.14025 7.38866C8.20274 6.88873 8.34022 6.41379 8.57769 5.97635C8.81516 5.5389 9.14011 5.15145 9.52756 4.83899C9.91501 4.52654 10.3525 4.30156 10.8274 4.15158C11.3023 4.0141 11.8023 3.96411 12.3022 4.0266L32.4996 6.17632C33.4994 6.27631 34.4118 6.77624 35.0492 7.56364C35.5617 8.18856 35.8491 8.96346 35.8866 9.76335Z" fill="white"/>
<path fill-rule="evenodd" clip-rule="evenodd" d="M26.6128 19.7371L25.9879 21.3993H26.0004C25.6129 22.5492 25.088 24.199 24.3381 27.1111L23.8507 29.0358C23.8007 29.2733 23.7382 29.5233 23.6757 29.7732C23.4757 30.6231 23.1008 31.9355 22.9758 32.4229C22.8008 33.1728 22.5883 33.6102 21.7634 33.8477C21.7634 33.8477 21.3385 33.9852 20.8261 33.9102C19.7012 33.7602 19.6512 32.9228 19.4637 32.2479C19.1888 31.2231 18.8888 28.6984 18.8513 27.2361C18.8513 27.0861 18.8513 26.9361 18.8513 26.7861V26.6362C18.8513 26.6362 18.8388 26.5487 18.8263 26.5112C18.8138 26.4612 18.7888 26.4487 18.7263 26.4612C18.6764 26.4737 18.6389 26.5237 18.5514 26.7361C18.3389 27.3736 18.1514 28.011 17.9639 28.6609C17.6265 29.8482 17.2265 31.2356 17.0516 32.0105L16.4516 34.1977C16.3017 34.8601 15.5893 35.2725 15.1268 35.385C14.6144 35.51 14.3269 35.535 13.9395 35.435C13.4145 35.31 13.1146 34.6976 12.9646 34.1477C12.8771 33.8477 12.7146 33.2728 12.6646 32.5729C12.5397 31.1856 12.4897 30.1982 12.5272 28.7859C12.5771 27.1611 12.7521 24.7739 12.8646 23.4491L12.9146 22.1367C12.9146 21.6493 12.8896 21.3368 12.8271 21.1244C12.7646 20.9369 12.7021 20.8369 12.5647 20.6494C12.5147 20.5869 12.4647 20.5494 12.4522 20.4995C12.3772 20.212 13.0521 19.6996 13.952 19.5121C14.5019 19.3871 14.9893 19.3621 15.3893 19.6871C15.6392 19.962 15.6767 20.2245 15.6642 20.7619C15.6642 20.9994 15.6392 21.2369 15.6143 21.4743C15.5393 22.3242 15.3018 23.799 15.2393 24.6489C15.1143 25.8363 14.9893 27.1486 14.9518 28.3609C14.9518 28.9483 14.9518 30.0857 14.9768 30.2607C15.0018 30.3482 15.0518 30.4107 15.1268 30.3857C15.2018 30.3607 15.2518 30.3107 15.3643 30.0107L15.4643 29.6608L15.5643 29.2983C15.5643 29.2983 16.0892 27.586 16.5266 26.1737C17.0141 24.8239 17.489 23.4241 17.8015 22.6367C18.2764 21.4743 18.5139 20.6244 19.3263 20.4245C20.1387 20.237 20.8886 20.5744 21.0385 21.1369C21.1135 21.4243 21.1135 21.5993 21.0885 22.7367C21.026 24.7239 21.1635 26.2862 21.2135 27.7985C21.251 28.4609 21.3135 28.9733 21.376 29.2233C21.4135 29.3358 21.476 29.3608 21.526 29.3483C21.626 29.3358 21.6635 29.2483 21.726 28.9733L21.8134 28.5734L22.3884 25.9237C22.7508 24.274 23.1883 22.6492 23.6882 21.0369C24.3381 18.8997 24.8131 17.9373 25.6379 17.7623C26.4003 17.6123 26.8378 18.1998 26.8753 18.7872C26.8878 18.9872 26.7878 19.4121 26.6253 19.7371H26.6128Z" fill="white"/>
<path fill-rule="evenodd" clip-rule="evenodd" d="M26.6128 19.7371L25.9879 21.3993H26.0004C25.6129 22.5492 25.088 24.199 24.3381 27.1111L23.8507 29.0358C23.8007 29.2733 23.7382 29.5233 23.6757 29.7732C23.4757 30.6231 23.1008 31.9355 22.9758 32.4229C22.8008 33.1728 22.5883 33.6102 21.7634 33.8477C21.7634 33.8477 21.3385 33.9852 20.8261 33.9102C19.7012 33.7602 19.6512 32.9228 19.4637 32.2479C19.1888 31.2231 18.8888 28.6984 18.8513 27.2361C18.8513 27.0861 18.8513 26.9361 18.8513 26.7861V26.6362C18.8513 26.6362 18.8388 26.5487 18.8263 26.5112C18.8138 26.4612 18.7888 26.4487 18.7263 26.4612C18.6764 26.4737 18.6389 26.5237 18.5514 26.7361C18.3389 27.3736 18.1514 28.011 17.9639 28.6609C17.6265 29.8482 17.2265 31.2356 17.0516 32.0105L16.4516 34.1977C16.3017 34.8601 15.5893 35.2725 15.1268 35.385C14.6144 35.51 14.3269 35.535 13.9395 35.435C13.4145 35.31 13.1146 34.6976 12.9646 34.1477C12.8771 33.8477 12.7146 33.2728 12.6646 32.5729C12.5397 31.1856 12.4897 30.1982 12.5272 28.7859C12.5771 27.1611 12.7521 24.7739 12.8646 23.4491L12.9146 22.1367C12.9146 21.6493 12.8896 21.3368 12.8271 21.1244C12.7646 20.9369 12.7021 20.8369 12.5647 20.6494C12.5147 20.5869 12.4647 20.5494 12.4522 20.4995C12.3772 20.212 13.0521 19.6996 13.952 19.5121C14.5019 19.3871 14.9893 19.3621 15.3893 19.6871C15.6392 19.962 15.6767 20.2245 15.6642 20.7619C15.6642 20.9994 15.6392 21.2369 15.6143 21.4743C15.5393 22.3242 15.3018 23.799 15.2393 24.6489C15.1143 25.8363 14.9893 27.1486 14.9518 28.3609C14.9518 28.9483 14.9518 30.0857 14.9768 30.2607C15.0018 30.3482 15.0518 30.4107 15.1268 30.3857C15.2018 30.3607 15.2518 30.3107 15.3643 30.0107L15.4643 29.6608L15.5643 29.2983C15.5643 29.2983 16.0892 27.586 16.5266 26.1737C17.0141 24.8239 17.489 23.4241 17.8015 22.6367C18.2764 21.4743 18.5139 20.6244 19.3263 20.4245C20.1387 20.237 20.8886 20.5744 21.0385 21.1369C21.1135 21.4243 21.1135 21.5993 21.0885 22.7367C21.026 24.7239 21.1635 26.2862 21.2135 27.7985C21.251 28.4609 21.3135 28.9733 21.376 29.2233C21.4135 29.3358 21.476 29.3608 21.526 29.3483C21.626 29.3358 21.6635 29.2483 21.726 28.9733L21.8134 28.5734L22.3884 25.9237C22.7508 24.274 23.1883 22.6492 23.6882 21.0369C24.3381 18.8997 24.8131 17.9373 25.6379 17.7623C26.4003 17.6123 26.8378 18.1998 26.8753 18.7872C26.8878 18.9872 26.7878 19.4121 26.6253 19.7371H26.6128Z" fill="#CD2028"/>
</svg>
