<svg width="48" height="48" viewBox="0 0 48 48" fill="none" xmlns="http://www.w3.org/2000/svg">
<path fill-rule="evenodd" clip-rule="evenodd" d="M41.1118 35.2837C38.7598 21.7613 37.0359 13.2743 35.9668 9.77432C35.9801 9.96185 35.9801 10.1494 35.9535 10.3369C35.9034 10.8365 35.753 11.3112 35.5126 11.7492C35.2737 12.1872 34.9464 12.574 34.5689 12.8861C34.4302 12.9989 34.2798 13.0985 34.1161 13.1864C33.8389 13.349 33.5499 13.4736 33.2476 13.5615C33.1473 13.5864 33.0588 13.6245 32.9585 13.6362C30.807 30.3831 29.6627 40.0949 29.499 42.7451V42.9078C29.4858 43.0323 29.4858 43.1451 29.4858 43.233C29.4858 43.3575 29.4474 43.4703 29.3722 43.5582L39.7758 38.0087C39.8363 37.9764 39.8938 37.9413 39.9513 37.9032C40.0088 37.8651 40.0634 37.827 40.1179 37.786C40.4409 37.5398 40.7048 37.2234 40.8833 36.8586C40.8906 36.8425 40.898 36.8278 40.9054 36.8117C40.9423 36.7341 40.9747 36.655 40.9983 36.5773C41.0071 36.5465 41.016 36.5143 41.0219 36.4835C41.1472 36.0968 41.1723 35.6836 41.1104 35.2837H41.1118Z" fill="#D95359"/>
<path fill-rule="evenodd" clip-rule="evenodd" d="M35.9653 9.7626C35.9786 9.96331 35.9786 10.1494 35.9521 10.3369C35.9019 10.8365 35.7515 11.3112 35.5111 11.7492C35.2723 12.1872 34.9449 12.574 34.5674 12.8861C34.4288 12.9989 34.2783 13.0985 34.1147 13.1864C33.8374 13.349 33.5484 13.4736 33.2461 13.5615C33.1458 13.5864 33.0573 13.6245 32.9571 13.6245C30.8056 30.3846 29.6612 40.0963 29.4976 42.7451V42.9078C29.4843 43.0323 29.4843 43.1451 29.4843 43.233C29.4843 43.3575 29.4459 43.4703 29.3707 43.5582H29.3575C29.2321 43.7209 28.98 43.8337 28.6275 43.9084C28.6142 43.9084 28.5892 43.9216 28.5641 43.9216C28.5258 43.9348 28.4889 43.9348 28.4506 43.9465C24.4631 44.5208 10.0338 40.3102 7.68023 39.1221C5.97554 38.246 6.91784 28.9972 10.516 11.3375C9.87449 11.1002 9.30823 10.7002 8.88058 10.1626C8.23912 9.38755 7.93681 8.38839 8.03709 7.38776C8.1005 6.88819 8.23764 6.41351 8.47801 5.97546C8.7169 5.53741 9.04427 5.15064 9.43358 4.83859C9.82288 4.52653 10.2638 4.30092 10.7416 4.15148C11.2194 4.01377 11.7222 3.96396 12.2265 4.02695L32.556 6.17617C33.5617 6.2758 34.4804 6.77538 35.1218 7.56357C35.638 8.18914 35.927 8.96269 35.9653 9.7626Z" fill="#CD2029"/>
<path fill-rule="evenodd" clip-rule="evenodd" d="M26.6309 19.7366L26.0012 21.3994H26.0145C25.6251 22.5495 25.0958 24.1991 24.3407 27.1117L23.8497 29.0367C23.7995 29.2741 23.7361 29.5246 23.6742 29.7736C23.4722 30.6234 23.0961 31.936 22.9693 32.4239C22.7938 33.174 22.58 33.6106 21.7483 33.8494C21.7483 33.8494 21.3207 33.9871 20.8045 33.9124C19.672 33.763 19.6219 32.925 19.4331 32.2496C19.1559 31.2255 18.8551 28.6998 18.8167 27.2376V26.6384C18.8167 26.6384 18.8035 26.5505 18.7917 26.5139C18.7784 26.4641 18.7533 26.4509 18.6914 26.4641C18.6412 26.4773 18.6029 26.5271 18.5159 26.7395C18.3021 27.3768 18.1133 28.0141 17.9246 28.6646C17.5854 29.8513 17.1828 31.2387 17.0059 32.0137L16.4013 34.201C16.2508 34.8632 15.5327 35.2763 15.0682 35.3877C14.5521 35.5122 14.263 35.5371 13.8737 35.4375C13.3458 35.313 13.0435 34.7006 12.8931 34.1497C12.8046 33.8494 12.6409 33.2751 12.5908 32.5748C12.4654 31.1874 12.4153 30.2 12.4522 28.7877C12.5023 27.1629 12.6793 24.7764 12.7913 23.4505L12.8415 22.1378C12.8415 21.65 12.8164 21.3379 12.753 21.1255C12.6896 20.938 12.6277 20.8383 12.489 20.6508C12.4389 20.5878 12.3888 20.5512 12.3755 20.5014C12.3003 20.2142 12.9786 19.7015 13.8855 19.5139C14.4385 19.3894 14.9296 19.3645 15.3321 19.6883C15.5843 19.9637 15.6212 20.2259 15.6094 20.7636C15.6094 21.001 15.5843 21.2383 15.5592 21.4756C15.484 22.3254 15.2451 23.8007 15.1817 24.6504C15.0564 25.8371 14.9296 27.1497 14.8927 28.3628C14.8927 28.9503 14.8927 30.0872 14.9178 30.263C14.9428 30.3509 14.993 30.4124 15.0682 30.3875C15.1434 30.3626 15.1935 30.3128 15.3071 30.0124L15.4074 29.6623L15.5076 29.3004C15.5076 29.3004 16.0355 27.5878 16.4765 26.1755C16.9675 24.8262 17.4453 23.4256 17.7594 22.6389C18.2372 21.4771 18.4761 20.6259 19.2945 20.4267C20.1129 20.2391 20.8665 20.5761 21.0184 21.1387C21.0936 21.4258 21.0936 21.6016 21.0685 22.7385C21.0051 24.7251 21.1437 26.2883 21.1938 27.8002C21.2322 28.4624 21.2941 28.9752 21.3575 29.2257C21.3959 29.3385 21.4578 29.3634 21.5079 29.3502C21.6082 29.3371 21.6466 29.2506 21.71 28.9752L21.7984 28.5752L22.3765 25.925C22.7407 24.2753 23.1817 22.6506 23.6845 21.0376C24.3393 18.9001 24.817 17.9375 25.6473 17.7632C26.4141 17.6138 26.855 18.2013 26.8933 18.7887C26.9066 18.9894 26.8049 19.4143 26.6412 19.7381H26.6279L26.6309 19.7366Z" fill="white"/>
</svg>
