<svg width="48" height="48" viewBox="0 0 48 48" fill="none" xmlns="http://www.w3.org/2000/svg">
<path d="M32.2154 41.8826L34.7472 18.0374L37.8703 40.4768L37.8854 40.5478C37.8938 40.5928 37.9023 40.643 37.9073 40.6932L32.2154 41.8826ZM28.1944 19.5696C28.026 20.0907 27.8558 20.6136 27.6857 21.1364C27.3724 22.2064 26.9462 23.7472 26.3381 26.4723L25.9473 28.2677C25.8984 28.4945 25.8513 28.7247 25.8007 28.9654C25.6373 29.7566 25.3358 30.9841 25.2381 31.4307C25.0916 32.1337 24.9147 32.5474 24.2291 32.7708C24.2291 32.7708 23.8703 32.9006 23.4391 32.8366C22.5042 32.7015 22.4536 31.9242 22.2936 31.2974C22.051 30.3383 21.7798 27.9907 21.736 26.6247L21.7242 26.2057L21.7192 26.0672L21.704 25.9443L21.6232 25.901C21.5794 25.9114 21.5457 25.965 21.4783 26.1607C21.3671 26.5467 21.1582 27.2912 20.9982 27.9578C20.7203 29.0779 20.3935 30.3677 20.252 31.0949C20.0903 31.7753 19.9285 32.4591 19.7685 33.1378C19.6422 33.7524 19.0543 34.1437 18.6652 34.2528C18.239 34.3722 17.9914 34.3947 17.6679 34.3116C17.2316 34.2008 16.9756 33.6312 16.8442 33.1188C16.7701 32.8331 16.6336 32.3016 16.5781 31.6489C16.4669 30.3487 16.418 29.438 16.4416 28.1222C16.4669 26.6004 16.5932 24.3722 16.6774 23.1361C16.6909 22.7275 16.7044 22.3172 16.7179 21.9069C16.7162 21.4515 16.6875 21.1693 16.632 20.965C16.5848 20.7919 16.5241 20.6967 16.4079 20.5253L16.3186 20.3885C16.2496 20.1253 16.8088 19.6337 17.5618 19.4501C18.0267 19.3376 18.4327 19.3099 18.7679 19.6111C18.9818 19.8587 19.0155 20.1028 19.0071 20.6084C19.0037 20.778 18.9852 21.0291 18.9667 21.2697C18.9145 22.0627 18.7292 23.4494 18.6769 24.2424C18.5843 25.34 18.4883 26.5693 18.4714 27.7015C18.463 28.2555 18.4647 29.3082 18.5068 29.4726L18.6332 29.5904C18.6972 29.5713 18.7309 29.5159 18.8269 29.2441L18.9044 28.9117L18.9852 28.5758C18.9852 28.5758 19.4114 26.9674 19.7769 25.6534C20.1677 24.3843 20.5569 23.0772 20.8163 22.3397C21.202 21.2524 21.3957 20.456 22.0746 20.2708C22.7568 20.0855 23.3835 20.392 23.5165 20.9148C23.5856 21.1866 23.5873 21.3563 23.5671 22.4141C23.5334 24.2632 23.658 25.7261 23.7119 27.1354C23.7524 27.75 23.8029 28.2261 23.8619 28.4564L23.9865 28.5828C24.0741 28.562 24.1028 28.4875 24.155 28.2296L24.2224 27.8573C24.3773 27.0298 24.5306 26.2022 24.6839 25.3764C25.041 23.562 25.2937 22.4903 25.7384 20.8092C26.2674 18.813 26.6615 17.9058 27.3438 17.7448C27.9872 17.5907 28.3545 18.1378 28.3932 18.6849C28.4084 18.8684 28.3292 19.2735 28.1944 19.5696ZM39.6424 40.1807L35.5305 10.6482L35.672 9.31856C35.677 9.27701 35.6619 9.23892 35.6602 9.19564C36.5732 9.24238 37.0886 8.86496 37.3363 8.5464C37.722 8.05644 37.845 7.31025 37.6732 6.50173C37.5435 5.89231 37.3565 5.32445 37.1476 4.90374C36.8478 4.30471 36.3121 4 35.5524 4C35.3064 4 35.0335 4.03116 34.695 4.09522L33.2143 4.36011C33.061 4.38954 17.7639 7.25831 16.2344 7.53186C14.5819 7.82791 14.3646 8.38712 13.8946 9.61115L13.8643 9.68906C13.4196 10.8421 12.9799 12.3431 12.8974 12.6288C12.8789 12.6929 12.8637 12.7587 12.8553 12.8244L9.01292 40.8733C8.96238 41.2316 9.06177 41.6004 9.28244 41.8826C9.50648 42.1665 9.82485 42.3397 10.1786 42.3657L30.8745 43.9965C30.9048 43.9983 30.9334 44 30.9654 44C31.0514 44 31.1373 43.9913 31.2249 43.974L38.8035 42.3899C39.078 42.3518 39.3055 42.2116 39.4604 41.9865C39.8832 41.3667 39.6659 40.2829 39.6424 40.1807Z" fill="#191A1B"/>
</svg>
