<svg width="48" height="48" viewBox="0 0 48 48" fill="none" xmlns="http://www.w3.org/2000/svg">
<path d="M4 26.1429C4 24.5649 5.27919 23.2857 6.85714 23.2857H41.1429C42.7208 23.2857 44 24.5649 44 26.1429C44 27.7208 42.7208 29 41.1429 29H6.85714C5.27919 29 4 27.7208 4 26.1429Z" fill="#191A1B"/>
<path fill-rule="evenodd" clip-rule="evenodd" d="M10.9163 35.4286C11.2079 36.4165 11.5937 37.1761 11.9745 37.6813C12.3141 38.1319 12.5398 38.2563 12.6145 38.2857H35.3855C35.4602 38.2563 35.6859 38.1319 36.0255 37.6813C36.4063 37.1761 36.7921 36.4165 37.0837 35.4286H10.9163ZM35.3584 38.2936C35.3583 38.2931 35.3642 38.291 35.3763 38.2891C35.3645 38.2932 35.3584 38.2942 35.3584 38.2936ZM12.6417 38.2936C12.6416 38.2942 12.6355 38.2932 12.6237 38.2891C12.6359 38.291 12.6418 38.2931 12.6417 38.2936ZM9.7143 31.8571C8.13634 31.8571 6.82837 33.1463 7.09173 34.7021C7.792 38.8391 9.98032 41.8571 12.5714 41.8571H35.4286C38.0197 41.8571 40.208 38.8391 40.9083 34.7021C41.1717 33.1463 39.8637 31.8571 38.2857 31.8571H9.7143Z" fill="#191A1B"/>
<path fill-rule="evenodd" clip-rule="evenodd" d="M11.2186 16.8571H36.7814C36.2754 15.5476 35.4633 14.1347 34.1665 12.9325C32.3907 11.2862 29.3635 9.71428 24 9.71428C18.6365 9.71428 15.6093 11.2862 13.8335 12.9325C12.5367 14.1347 11.7246 15.5476 11.2186 16.8571ZM38.2857 20.4286C39.8637 20.4286 41.1127 19.141 40.7454 17.6064C39.749 13.4432 36.2547 6.14285 24 6.14285C11.7453 6.14285 8.25096 13.4432 7.25458 17.6064C6.8873 19.141 8.13633 20.4286 9.71429 20.4286H38.2857Z" fill="#191A1B"/>
</svg>
