<svg width="48" height="48" viewBox="0 0 48 48" fill="none" xmlns="http://www.w3.org/2000/svg">
<path d="M4 26.1429C4 24.5649 5.27919 23.2857 6.85714 23.2857H41.1429C42.7208 23.2857 44 24.5649 44 26.1429C44 27.7208 42.7208 29 41.1429 29H6.85714C5.27919 29 4 27.7208 4 26.1429Z" fill="#191A1B"/>
<path d="M7.09172 34.7021C6.82836 33.1463 8.13633 31.8571 9.71429 31.8571H38.2857C39.8637 31.8571 41.1716 33.1463 40.9083 34.7021C40.208 38.8391 38.0197 41.8571 35.4286 41.8571H12.5714C9.98031 41.8571 7.79198 38.8391 7.09172 34.7021Z" fill="#191A1B"/>
<path d="M40.7454 17.6064C41.1127 19.141 39.8637 20.4286 38.2857 20.4286H9.71429C8.13633 20.4286 6.8873 19.141 7.25458 17.6064C8.25096 13.4432 11.7453 6.14285 24 6.14285C36.2547 6.14285 39.749 13.4432 40.7454 17.6064Z" fill="#191A1B"/>
</svg>
