<svg width="48" height="48" viewBox="0 0 48 48" fill="none" xmlns="http://www.w3.org/2000/svg">
<path d="M9.2545 44.7065C8.17084 44.7065 7.23967 44.3173 6.461 43.539C5.68267 42.7603 5.2935 41.8292 5.2935 40.7455V10.2545C5.2935 9.16315 5.68267 8.22549 6.461 7.44149C7.23967 6.65715 8.17084 6.26498 9.2545 6.26498H12.25V5.11949C12.25 4.60682 12.4333 4.16965 12.8 3.80798C13.167 3.44598 13.6037 3.26498 14.11 3.26498C14.6303 3.26498 15.0722 3.44598 15.4355 3.80798C15.7988 4.16965 15.9805 4.60682 15.9805 5.11949V6.26498H32.0195V5.11949C32.0195 4.60682 32.203 4.16965 32.57 3.80798C32.9367 3.44598 33.3732 3.26498 33.8795 3.26498C34.3998 3.26498 34.8417 3.44598 35.205 3.80798C35.5683 4.16965 35.75 4.60682 35.75 5.11949V6.26498H38.7455C39.8368 6.26498 40.7745 6.65715 41.5585 7.44149C42.3428 8.22549 42.735 9.16315 42.735 10.2545V40.7455C42.735 41.8292 42.3428 42.7603 41.5585 43.539C40.7745 44.3173 39.8368 44.7065 38.7455 44.7065H9.2545ZM9.2545 40.7455H38.7455V19.5H9.2545V40.7455ZM9.2545 16.5H38.7455V10.2545H9.2545V16.5ZM24.003 28.1695C23.389 28.1695 22.8735 27.9618 22.4565 27.5465C22.0392 27.1315 21.8305 26.617 21.8305 26.003C21.8305 25.389 22.0382 24.8735 22.4535 24.4565C22.8685 24.0392 23.383 23.8305 23.997 23.8305C24.611 23.8305 25.1265 24.0382 25.5435 24.4535C25.9608 24.8685 26.1695 25.383 26.1695 25.997C26.1695 26.611 25.9618 27.1265 25.5465 27.5435C25.1315 27.9608 24.617 28.1695 24.003 28.1695ZM16.003 28.1695C15.389 28.1695 14.8735 27.9618 14.4565 27.5465C14.0392 27.1315 13.8305 26.617 13.8305 26.003C13.8305 25.389 14.0382 24.8735 14.4535 24.4565C14.8685 24.0392 15.383 23.8305 15.997 23.8305C16.611 23.8305 17.1265 24.0382 17.5435 24.4535C17.9608 24.8685 18.1695 25.383 18.1695 25.997C18.1695 26.611 17.9618 27.1265 17.5465 27.5435C17.1315 27.9608 16.617 28.1695 16.003 28.1695ZM32.003 28.1695C31.4153 28.1695 30.9063 27.9618 30.476 27.5465C30.0457 27.1315 29.8305 26.617 29.8305 26.003C29.8305 25.389 30.0447 24.8735 30.473 24.4565C30.9017 24.0392 31.4143 23.8305 32.011 23.8305C32.608 23.8305 33.117 24.0382 33.538 24.4535C33.959 24.8685 34.1695 25.383 34.1695 25.997C34.1695 26.611 33.9618 27.1265 33.5465 27.5435C33.1315 27.9608 32.617 28.1695 32.003 28.1695ZM24.003 36.1695C23.389 36.1695 22.8735 35.9553 22.4565 35.527C22.0392 35.0983 21.8305 34.5856 21.8305 33.989C21.8305 33.392 22.0382 32.883 22.4535 32.462C22.8685 32.041 23.383 31.8305 23.997 31.8305C24.611 31.8305 25.1265 32.0382 25.5435 32.4535C25.9608 32.8685 26.1695 33.383 26.1695 33.997C26.1695 34.5847 25.9618 35.0936 25.5465 35.524C25.1315 35.9543 24.617 36.1695 24.003 36.1695ZM16.003 36.1695C15.389 36.1695 14.8735 35.9553 14.4565 35.527C14.0392 35.0983 13.8305 34.5856 13.8305 33.989C13.8305 33.392 14.0382 32.883 14.4535 32.462C14.8685 32.041 15.383 31.8305 15.997 31.8305C16.611 31.8305 17.1265 32.0382 17.5435 32.4535C17.9608 32.8685 18.1695 33.383 18.1695 33.997C18.1695 34.5847 17.9618 35.0936 17.5465 35.524C17.1315 35.9543 16.617 36.1695 16.003 36.1695ZM32.003 36.1695C31.4153 36.1695 30.9063 35.9553 30.476 35.527C30.0457 35.0983 29.8305 34.5856 29.8305 33.989C29.8305 33.392 30.0447 32.883 30.473 32.462C30.9017 32.041 31.4143 31.8305 32.011 31.8305C32.608 31.8305 33.117 32.0382 33.538 32.4535C33.959 32.8685 34.1695 33.383 34.1695 33.997C34.1695 34.5847 33.9618 35.0936 33.5465 35.524C33.1315 35.9543 32.617 36.1695 32.003 36.1695Z" fill="#191A1B"/>
</svg>
