<svg width="48" height="48" viewBox="0 0 48 48" fill="none" xmlns="http://www.w3.org/2000/svg">
<path d="M23.9681 45.275C21.0302 45.275 18.2718 44.7166 15.6931 43.6C13.1144 42.4833 10.8583 40.9583 8.92501 39.025C6.99167 37.0916 5.47501 34.8333 4.37501 32.25C3.27501 29.6666 2.72501 26.8916 2.72501 23.925C2.72501 21.025 3.28007 18.2858 4.39021 15.7075C5.50037 13.1293 7.01891 10.8793 8.94581 8.95773C10.8727 7.03609 13.126 5.51689 15.7056 4.40013C18.2852 3.28336 21.0421 2.72498 23.9762 2.72498C26.9103 2.72498 29.6651 3.28243 32.2405 4.39733C34.8159 5.51226 37.0655 7.02893 38.9893 8.94733C40.9131 10.8658 42.4417 13.1166 43.575 15.7C44.7083 18.2833 45.275 21.025 45.275 23.925C45.275 26.8916 44.7183 29.6693 43.6048 32.2579C42.4913 34.8464 40.9683 37.1014 39.0357 39.0226C37.1031 40.9439 34.8432 42.4662 32.2559 43.5897C29.6686 44.7132 26.906 45.275 23.9681 45.275ZM23.975 40.575C28.5875 40.575 32.499 38.9614 35.7094 35.7344C38.9198 32.5073 40.525 28.5708 40.525 23.925C40.525 22.1328 40.2417 20.3847 39.675 18.6808C39.1083 16.9769 38.275 15.425 37.175 14.025L14.025 37.125C15.3679 38.323 16.9064 39.1975 18.6405 39.7485C20.3746 40.2995 22.1528 40.575 23.975 40.575ZM10.825 33.875L33.875 10.775C32.4356 9.66078 30.8812 8.83223 29.212 8.28933C27.5427 7.74643 25.7971 7.47498 23.975 7.47498C19.3625 7.47498 15.451 9.06971 12.2406 12.2592C9.03021 15.4487 7.42501 19.3373 7.42501 23.925C7.42501 25.7587 7.72979 27.524 8.33936 29.2207C8.94892 30.9175 9.77747 32.4689 10.825 33.875Z" fill="#191A1B"/>
</svg>
