<svg width="48" height="48" viewBox="0 0 48 48" fill="none" xmlns="http://www.w3.org/2000/svg">
<path d="M10.075 37.075V38.625C10.075 39.3611 9.81622 39.9868 9.29866 40.5021C8.78109 41.0174 8.15262 41.275 7.41326 41.275C6.65442 41.275 6.01667 41.0139 5.50001 40.4917C4.98334 39.9695 4.72501 39.3306 4.72501 38.575V22.875C4.72501 22.6083 4.74167 22.3583 4.77501 22.125C4.80834 21.8917 4.87501 21.6417 4.97501 21.375L8.77501 9.92501C9.07501 8.95834 9.62917 8.18334 10.4375 7.60001C11.2458 7.01667 12.1583 6.72501 13.175 6.72501H34.775C35.7917 6.72501 36.7042 7.01667 37.5125 7.60001C38.3208 8.18334 38.8917 8.95834 39.225 9.92501L42.975 21.375C43.075 21.6417 43.15 21.8917 43.2 22.125C43.25 22.3583 43.275 22.6083 43.275 22.875V38.625C43.275 39.3611 43.0125 39.9868 42.4875 40.5021C41.9625 41.0174 41.325 41.275 40.575 41.275C39.8417 41.275 39.2083 41.0139 38.675 40.4917C38.1417 39.9695 37.875 39.3306 37.875 38.575V37.075H10.075ZM10.675 19.325H37.325L34.725 11.475H13.225L10.675 19.325ZM14.5133 30.075C15.2544 30.075 15.8917 29.8125 16.425 29.2875C16.9583 28.7625 17.225 28.125 17.225 27.375C17.225 26.5972 16.9542 25.9361 16.4125 25.3917C15.8708 24.8472 15.2417 24.575 14.525 24.575C13.7139 24.575 13.0445 24.8461 12.5167 25.3883C11.9889 25.9304 11.725 26.5887 11.725 27.3633C11.725 28.1378 11.9878 28.7833 12.5133 29.3C13.0387 29.8167 13.7054 30.075 14.5133 30.075ZM33.525 30.075C34.3028 30.075 34.9639 29.8125 35.5084 29.2875C36.0528 28.7625 36.325 28.125 36.325 27.375C36.325 26.5972 36.0539 25.9361 35.5118 25.3917C34.9696 24.8472 34.3113 24.575 33.5368 24.575C32.7623 24.575 32.1167 24.8461 31.6 25.3883C31.0833 25.9304 30.825 26.5887 30.825 27.3633C30.825 28.1378 31.0875 28.7833 31.6125 29.3C32.1375 29.8167 32.775 30.075 33.525 30.075ZM9.42501 32.375H38.525V22.325H9.42501V32.375Z" fill="#191A1B"/>
</svg>
