<svg width="48" height="48" viewBox="0 0 48 48" fill="none" xmlns="http://www.w3.org/2000/svg">
<path d="M7.42501 14.4H40.525V9.95001H7.42501V14.4ZM2.72501 9.95001C2.72501 8.63458 3.18292 7.51406 4.09876 6.58846C5.01459 5.66283 6.12334 5.20001 7.42501 5.20001H40.525C41.8404 5.20001 42.961 5.66283 43.8866 6.58846C44.8122 7.51406 45.275 8.63458 45.275 9.95001V21.35H7.42501V35.05H16.875C17.5333 35.05 18.0896 35.2779 18.5438 35.7338C18.9979 36.1896 19.225 36.748 19.225 37.4088C19.225 38.0696 18.9979 38.625 18.5438 39.075C18.0896 39.525 17.5333 39.75 16.875 39.75H7.42501C6.12334 39.75 5.01459 39.2921 4.09876 38.3763C3.18292 37.4604 2.72501 36.3517 2.72501 35.05V9.95001ZM7.42501 9.95001V35.05V29.4496V33.2V9.95001ZM30.425 37.45L40.425 27.5C40.8606 27.0667 41.3861 26.85 42.0017 26.85C42.6172 26.85 43.141 27.0667 43.5729 27.5C44.016 27.9333 44.2354 28.4583 44.2313 29.075C44.2271 29.6917 44.0083 30.2167 43.575 30.65L32.125 42.1C31.6432 42.5667 31.0811 42.8 30.4387 42.8C29.7962 42.8 29.2417 42.5667 28.775 42.1L22.975 36.25C22.5083 35.7833 22.2833 35.2417 22.3 34.625C22.3167 34.0083 22.5619 33.4768 23.0357 33.0305C23.4589 32.5768 23.9796 32.3583 24.5978 32.375C25.2159 32.3917 25.7583 32.6333 26.225 33.1L30.425 37.45Z" fill="#191A1B"/>
</svg>
