<svg width="48" height="48" viewBox="0 0 48 48" fill="none" xmlns="http://www.w3.org/2000/svg">
<path d="M19.1121 24.025L34.2621 39.175C34.7621 39.7083 35.0205 40.375 35.0371 41.175C35.0538 41.975 34.7955 42.6583 34.2621 43.225C33.6955 43.7583 33.0121 44.025 32.2121 44.025C31.4121 44.025 30.7455 43.7583 30.2121 43.225L14.3121 27.325C13.8455 26.8583 13.5038 26.3416 13.2871 25.775C13.0705 25.2083 12.9621 24.625 12.9621 24.025C12.9621 23.425 13.0705 22.8416 13.2871 22.275C13.5038 21.7083 13.8455 21.1916 14.3121 20.725L30.2621 4.82498C30.7955 4.25831 31.4455 3.97498 32.2121 3.97498C32.9788 3.97498 33.6621 4.25831 34.2621 4.82498C34.7621 5.39164 35.0205 6.06664 35.0371 6.84998C35.0538 7.63331 34.7955 8.30831 34.2621 8.87498L19.1121 24.025Z" fill="#191A1B"/>
</svg>
