<svg width="48" height="48" viewBox="0 0 48 48" fill="none" xmlns="http://www.w3.org/2000/svg">
<path d="M23.975 19.1121L8.82499 34.2621C8.29166 34.7621 7.62499 35.0204 6.82499 35.0371C6.02499 35.0538 5.34166 34.7954 4.77499 34.2621C4.24166 33.6954 3.97499 33.0121 3.97499 32.2121C3.97499 31.4121 4.24166 30.7454 4.77499 30.2121L20.675 14.3121C21.1417 13.8454 21.6583 13.5038 22.225 13.2871C22.7917 13.0704 23.375 12.9621 23.975 12.9621C24.575 12.9621 25.1583 13.0704 25.725 13.2871C26.2917 13.5038 26.8083 13.8454 27.275 14.3121L43.175 30.2621C43.7417 30.7954 44.025 31.4454 44.025 32.2121C44.025 32.9788 43.7417 33.6621 43.175 34.2621C42.6083 34.7621 41.9333 35.0204 41.15 35.0371C40.3667 35.0538 39.6917 34.7954 39.125 34.2621L23.975 19.1121Z" fill="#191A1B"/>
</svg>
