<svg width="48" height="48" viewBox="0 0 48 48" fill="none" xmlns="http://www.w3.org/2000/svg">
<path d="M24.025 28.8879L39.175 13.7379C39.7083 13.2379 40.375 12.9796 41.175 12.9629C41.975 12.9462 42.6583 13.2046 43.225 13.7379C43.7583 14.3046 44.025 14.9879 44.025 15.7879C44.025 16.5879 43.7583 17.2546 43.225 17.7879L27.325 33.6879C26.8583 34.1546 26.3417 34.4962 25.775 34.7129C25.2083 34.9296 24.625 35.0379 24.025 35.0379C23.425 35.0379 22.8417 34.9296 22.275 34.7129C21.7083 34.4962 21.1917 34.1546 20.725 33.6879L4.82501 17.7379C4.25834 17.2046 3.97501 16.5546 3.97501 15.7879C3.97501 15.0212 4.25834 14.3379 4.82501 13.7379C5.39167 13.2379 6.06667 12.9796 6.85001 12.9629C7.63334 12.9462 8.30834 13.2046 8.87501 13.7379L24.025 28.8879Z" fill="#191A1B"/>
</svg>
