<svg width="48" height="48" viewBox="0 0 48 48" fill="none" xmlns="http://www.w3.org/2000/svg">
<path d="M28.9379 23.9621L13.7879 8.81215C13.2546 8.27881 12.9796 7.62048 12.9629 6.83715C12.9462 6.05381 13.2046 5.39548 13.7379 4.86215C14.3046 4.29548 14.9879 4.01215 15.7879 4.01215C16.5879 4.01215 17.2546 4.29548 17.7879 4.86215L33.6879 20.6621C34.1546 21.1288 34.4962 21.6455 34.7129 22.2121C34.9296 22.7788 35.0379 23.3621 35.0379 23.9621C35.0379 24.5621 34.9296 25.1455 34.7129 25.7121C34.4962 26.2788 34.1546 26.7955 33.6879 27.2621L17.7879 43.1621C17.2212 43.7288 16.5546 44.0038 15.7879 43.9871C15.0212 43.9705 14.3546 43.6788 13.7879 43.1121C13.2546 42.5455 12.9796 41.8788 12.9629 41.1121C12.9462 40.3455 13.2212 39.6788 13.7879 39.1121L28.9379 23.9621Z" fill="#191A1B"/>
</svg>
