<svg width="48" height="48" viewBox="0 0 48 48" fill="none" xmlns="http://www.w3.org/2000/svg">
<mask id="mask0_676_23" style="mask-type:alpha" maskUnits="userSpaceOnUse" x="0" y="0" width="48" height="48">
<rect width="48" height="48" fill="#D9D9D9"/>
</mask>
<g mask="url(#mask0_676_23)">
<path d="M15.689 29.2825H32.311V28.163C32.311 26.7443 31.5743 25.628 30.101 24.814C28.628 24.0003 26.5943 23.5935 24 23.5935C21.4057 23.5935 19.372 24.0003 17.899 24.814C16.4257 25.628 15.689 26.7443 15.689 28.163V29.2825ZM23.9965 20.2935C25.0888 20.2935 26.0073 19.9268 26.752 19.1935C27.497 18.4605 27.8695 17.5478 27.8695 16.4555C27.8695 15.3635 27.4982 14.445 26.7555 13.7C26.0132 12.955 25.0958 12.5825 24.0035 12.5825C22.9112 12.5825 21.9927 12.9538 21.248 13.6965C20.503 14.4392 20.1305 15.3565 20.1305 16.4485C20.1305 17.5408 20.5018 18.4547 21.2445 19.19C21.9868 19.9257 22.9042 20.2935 23.9965 20.2935ZM11.2935 37.7065L6.69149 42.3085C6.05515 42.9448 5.32965 43.0985 4.51499 42.7695C3.70065 42.4408 3.29349 41.8337 3.29349 40.948V8.25449C3.29349 7.16315 3.68265 6.22549 4.46099 5.44149C5.23965 4.65715 6.17082 4.26498 7.25449 4.26498H40.7455C41.8368 4.26498 42.7745 4.65715 43.5585 5.44149C44.3428 6.22549 44.735 7.16315 44.735 8.25449V33.7455C44.735 34.8292 44.3428 35.7603 43.5585 36.539C42.7745 37.3173 41.8368 37.7065 40.7455 37.7065H11.2935Z" fill="#191A1B"/>
</g>
</svg>
