<svg width="48" height="48" viewBox="0 0 48 48" fill="none" xmlns="http://www.w3.org/2000/svg">
<path d="M18.925 30.175L36.425 12.725C36.8983 12.2584 37.4583 12.025 38.105 12.025C38.7517 12.025 39.3083 12.2592 39.775 12.7277C40.2417 13.1961 40.475 13.7594 40.475 14.4177C40.475 15.0759 40.2417 15.645 39.775 16.125L20.625 35.275C20.1462 35.7417 19.5765 35.975 18.9159 35.975C18.2553 35.975 17.6917 35.7417 17.225 35.275L8.225 26.275C7.75833 25.7928 7.525 25.2222 7.525 24.5634C7.525 23.9045 7.75922 23.3417 8.22765 22.875C8.69605 22.4084 9.25938 22.175 9.91765 22.175C10.5759 22.175 11.145 22.4084 11.625 22.875L18.925 30.175Z" fill="#191A1B"/>
</svg>
