<svg width="48" height="48" viewBox="0 0 48 48" fill="none" xmlns="http://www.w3.org/2000/svg">
<path d="M26.325 24.175L30.875 28.725C31.3417 29.2083 31.575 29.7679 31.575 30.4038C31.575 31.0396 31.3482 31.5826 30.8946 32.0329C30.4149 32.5276 29.8506 32.775 29.2017 32.775C28.5528 32.775 27.9939 32.5417 27.525 32.075L22.275 26.875C22.0417 26.6321 21.875 26.3761 21.775 26.107C21.675 25.8378 21.625 25.5605 21.625 25.275V17.875C21.625 17.2208 21.8529 16.6573 22.3088 16.1844C22.7646 15.7115 23.323 15.475 23.9838 15.475C24.6446 15.475 25.2 15.7115 25.65 16.1844C26.1 16.6573 26.325 17.2208 26.325 17.875V24.175ZM23.9663 11.725C23.3054 11.725 22.75 11.4979 22.3 11.0438C21.85 10.5896 21.625 10.0398 21.625 9.39431V5.52501H26.325V9.39431C26.325 10.0398 26.0971 10.5896 25.6413 11.0438C25.1854 11.4979 24.6271 11.725 23.9663 11.725ZM36.275 24.0163C36.275 23.3554 36.5021 22.8 36.9563 22.35C37.4104 21.9 37.9602 21.675 38.6057 21.675H42.475V26.375H38.6057C37.9602 26.375 37.4104 26.1471 36.9563 25.6913C36.5021 25.2354 36.275 24.6771 36.275 24.0163ZM23.9838 36.275C24.6446 36.275 25.2 36.5091 25.65 36.9772C26.1 37.4453 26.325 38.0029 26.325 38.65V42.525H21.625V38.6557C21.625 38.0102 21.8529 37.4521 22.3088 36.9813C22.7646 36.5104 23.323 36.275 23.9838 36.275ZM11.725 24.0338C11.725 24.6946 11.4909 25.25 11.0228 25.7C10.5547 26.15 9.99711 26.375 9.35001 26.375H5.47501V21.675H9.34431C9.98977 21.675 10.5479 21.9029 11.0188 22.3588C11.4896 22.8146 11.725 23.373 11.725 24.0338ZM23.9952 45.275C21.0328 45.275 18.2641 44.7236 15.689 43.6208C13.1138 42.518 10.8608 41.0012 8.92981 39.0702C6.99884 37.1392 5.48197 34.8873 4.37921 32.3143C3.27641 29.7412 2.72501 26.9721 2.72501 24.0069C2.72501 21.0417 3.27641 18.2703 4.37921 15.6927C5.48197 13.1151 6.99622 10.8682 8.92196 8.95221C10.8477 7.03614 13.0983 5.51926 15.6738 4.40156C18.2492 3.28386 21.0209 2.72501 23.989 2.72501C26.957 2.72501 29.7317 3.28257 32.3133 4.39771C34.8948 5.5128 37.1423 7.02617 39.0559 8.93781C40.9695 10.8494 42.4844 13.0974 43.6007 15.6817C44.7169 18.2659 45.275 21.0426 45.275 24.0117C45.275 26.9787 44.7162 29.7495 43.5985 32.3241C42.4808 34.8986 40.9639 37.1463 39.0478 39.0671C37.1318 40.9878 34.8846 42.5027 32.3063 43.6116C29.728 44.7205 26.9576 45.275 23.9952 45.275ZM40.525 24C40.525 19.4167 38.9198 15.5167 35.7094 12.3C32.499 9.08334 28.5792 7.47501 23.95 7.47501C19.3667 7.47501 15.4667 9.08021 12.25 12.2906C9.03334 15.501 7.42501 19.4208 7.42501 24.05C7.42501 28.6333 9.03121 32.5333 12.2436 35.75C15.456 38.9667 19.3748 40.575 24 40.575C28.5833 40.575 32.4833 38.9688 35.7 35.7564C38.9167 32.544 40.525 28.6252 40.525 24Z" fill="#191A1B"/>
</svg>
