<svg width="48" height="48" viewBox="0 0 48 48" fill="none" xmlns="http://www.w3.org/2000/svg">
<path d="M26.175 23.1023V15.625C26.175 15.0358 25.9816 14.5469 25.5949 14.1581C25.2082 13.7694 24.7217 13.575 24.1356 13.575C23.5494 13.575 23.0594 13.7694 22.6656 14.1581C22.2719 14.5469 22.075 15.0358 22.075 15.625V23.925C22.075 24.225 22.125 24.506 22.225 24.7679C22.325 25.0298 22.475 25.2821 22.675 25.525L29.275 32.375C29.7172 32.8083 30.2278 33.0167 30.8067 33C31.3856 32.9833 31.8917 32.775 32.325 32.375C32.7583 31.975 32.975 31.475 32.975 30.875C32.975 30.275 32.7583 29.7583 32.325 29.325L26.175 23.1023ZM23.9819 45.275C21.044 45.275 18.2854 44.7189 15.7063 43.6067C13.1271 42.4945 10.8752 40.9767 8.95066 39.0534C7.02609 37.1301 5.50734 34.8797 4.39441 32.3022C3.28147 29.7247 2.72501 26.9675 2.72501 24.0305C2.72501 21.0935 3.28474 18.3336 4.40421 15.7507C5.52364 13.1677 7.04051 10.9191 8.95481 9.00481C10.8691 7.09051 13.1162 5.56531 15.696 4.42921C18.2757 3.29307 21.0354 2.72501 23.975 2.72501C26.9146 2.72501 29.6743 3.29307 32.2541 4.42921C34.8339 5.56531 37.0809 7.09051 38.9952 9.00481C40.9095 10.9191 42.4347 13.1662 43.5708 15.746C44.7069 18.3257 45.275 21.0854 45.275 24.025C45.275 26.9646 44.7069 29.7243 43.5708 32.3041C42.4347 34.8839 40.9095 37.1309 38.9952 39.0452C37.0809 40.9595 34.8346 42.4764 32.2563 43.5958C29.678 44.7153 26.9198 45.275 23.9819 45.275ZM23.9496 40.575C28.4999 40.575 32.4 38.9667 35.65 35.75C38.9 32.5333 40.525 28.6333 40.525 24.05C40.525 19.4667 38.9022 15.5583 35.6566 12.325C32.411 9.09167 28.5173 7.47501 23.9755 7.47501C19.4085 7.47501 15.5083 9.08962 12.275 12.3189C9.04167 15.5481 7.42501 19.4501 7.42501 24.025C7.42501 28.625 9.04152 32.5333 12.2746 35.75C15.5076 38.9667 19.3993 40.575 23.9496 40.575Z" fill="#191A1B"/>
</svg>
