<svg width="48" height="48" viewBox="0 0 48 48" fill="none" xmlns="http://www.w3.org/2000/svg">
<path d="M24 27.3L14.1 37.2C13.6333 37.6666 13.0833 37.9 12.45 37.9C11.8167 37.9 11.2667 37.6666 10.8 37.2C10.3333 36.7333 10.1 36.1833 10.1 35.55C10.1 34.9166 10.3333 34.3666 10.8 33.9L20.7 24L10.8 14.1C10.3333 13.6333 10.1 13.0833 10.1 12.45C10.1 11.8166 10.3333 11.2666 10.8 10.8C11.2667 10.3333 11.8167 10.1 12.45 10.1C13.0833 10.1 13.6333 10.3333 14.1 10.8L24 20.7L33.9 10.8C34.3667 10.3333 34.9167 10.1 35.55 10.1C36.1833 10.1 36.7333 10.3333 37.2 10.8C37.6667 11.2666 37.9 11.8166 37.9 12.45C37.9 13.0833 37.6667 13.6333 37.2 14.1L27.3 24L37.2 33.9C37.6667 34.3666 37.9 34.9166 37.9 35.55C37.9 36.1833 37.6667 36.7333 37.2 37.2C36.7333 37.6666 36.1833 37.9 35.55 37.9C34.9167 37.9 34.3667 37.6666 33.9 37.2L24 27.3Z" fill="#191A1B"/>
</svg>
