<svg width="48" height="48" viewBox="0 0 48 48" fill="none" xmlns="http://www.w3.org/2000/svg">
<path d="M7.07501 43.275C6.41667 43.275 5.86042 43.0471 5.40626 42.5913C4.95209 42.1354 4.72501 41.5771 4.72501 40.9163C4.72501 40.2554 4.95209 39.7 5.40626 39.25C5.86042 38.8 6.41667 38.575 7.07501 38.575H36.875C37.5292 38.575 38.0927 38.8029 38.5656 39.2588C39.0385 39.7146 39.275 40.273 39.275 40.9338C39.275 41.5946 39.0385 42.15 38.5656 42.6C38.0927 43.05 37.5292 43.275 36.875 43.275H7.07501ZM13.275 35.325C10.8712 35.325 8.84531 34.5 7.19721 32.85C5.54907 31.2 4.72501 29.1917 4.72501 26.825V9.47501C4.72501 8.13457 5.17667 7.00781 6.08001 6.09471C6.98334 5.18157 8.09834 4.72501 9.42501 4.72501H38.575C39.8821 4.72501 40.9922 5.18991 41.9053 6.11971C42.8184 7.04947 43.275 8.15124 43.275 9.42501V17.425C43.275 18.7167 42.8184 19.8229 41.9053 20.7438C40.9922 21.6646 39.8821 22.125 38.575 22.125H34.475V26.825C34.475 29.1917 33.6426 31.2 31.9778 32.85C30.313 34.5 28.2787 35.325 25.875 35.325H13.275ZM34.475 17.425H38.525V9.42501H34.475V17.425Z" fill="#191A1B"/>
</svg>
