<svg width="48" height="48" viewBox="0 0 48 48" fill="none" xmlns="http://www.w3.org/2000/svg">
<path d="M6.96299 43.0457C6.38725 43.0457 5.90853 42.854 5.52683 42.4706C5.14513 42.0872 4.95428 41.6112 4.95428 41.0424C4.95428 40.4735 5.14513 40.0004 5.52683 39.6228C5.90853 39.2453 6.38725 39.0565 6.96299 39.0565H35.6304C36.1873 39.0565 36.6566 39.2482 37.0383 39.6316C37.42 40.015 37.6108 40.4911 37.6108 41.0599C37.6108 41.6287 37.42 42.1019 37.0383 42.4794C36.6566 42.8569 36.1873 43.0457 35.6304 43.0457H6.96299ZM13.2108 36.3674C10.9224 36.3674 8.9742 35.5765 7.36624 33.9946C5.75827 32.4127 4.95428 30.4775 4.95428 28.1891V8.9435C4.95428 7.84647 5.34488 6.90733 6.12608 6.1261C6.90732 5.3449 7.84644 4.9543 8.94343 4.9543H39.0565C40.1535 4.9543 41.0926 5.3449 41.8738 6.1261C42.6551 6.90733 43.0457 7.84647 43.0457 8.9435V16.9435C43.0457 18.0327 42.6551 18.9652 41.8738 19.7409C41.0926 20.5166 40.1535 20.9044 39.0565 20.9044H34.5956V28.1891C34.5956 30.4775 33.7869 32.4127 32.1695 33.9946C30.5521 35.5765 28.5992 36.3674 26.3108 36.3674H13.2108ZM13.2108 32.4065H26.3097C27.4584 32.4065 28.4617 31.9822 29.3196 31.1337C30.1775 30.2853 30.6065 29.3037 30.6065 28.1891V8.9435H8.94343V28.1891C8.94343 29.3037 9.37602 30.2853 10.2412 31.1337C11.1063 31.9822 12.0962 32.4065 13.2108 32.4065ZM34.5956 16.9435H39.0565V8.9435H34.5956V16.9435Z" fill="#191A1B"/>
</svg>
