<svg width="48" height="48" viewBox="0 0 48 48" fill="none" xmlns="http://www.w3.org/2000/svg">
<path d="M45.275 11.475V36.575C45.275 37.8767 44.8122 38.9854 43.8866 39.9013C42.961 40.8171 41.8404 41.275 40.525 41.275H7.425C6.12333 41.275 5.01458 40.8171 4.09875 39.9013C3.18292 38.9854 2.725 37.8767 2.725 36.575V11.475C2.725 10.1596 3.18292 9.03906 4.09875 8.11346C5.01458 7.18782 6.12333 6.72501 7.425 6.72501H40.525C41.8404 6.72501 42.961 7.18782 43.8866 8.11346C44.8122 9.03906 45.275 10.1596 45.275 11.475ZM7.425 16.375H40.525V11.475H7.425V16.375ZM7.425 22.825V36.575H40.525V22.825H7.425Z" fill="#191A1B"/>
</svg>
