<svg width="48" height="48" viewBox="0 0 48 48" fill="none" xmlns="http://www.w3.org/2000/svg">
<path d="M16 44C13.7909 44 12 42.2091 12 40V36H6C4.89543 36 4 35.1046 4 34C4 32.8954 4.89543 32 6 32H12C14.2091 32 16 33.7909 16 36V40H42C43.1046 40 44 40.8954 44 42C44 43.1046 43.1046 44 42 44H16Z" fill="#191A1B"/>
<path fill-rule="evenodd" clip-rule="evenodd" d="M44 6H27.8911C26.9416 6 26.0895 6.27014 25.3346 6.81042C24.5798 7.3507 24.0623 8.0685 23.7821 8.96382L20.2335 19.5687C20.1401 19.8157 20.0778 20.0473 20.0467 20.2634C20.0156 20.4795 20 20.711 20 20.958V35.4993C20 36.1991 20.2412 36.7908 20.7237 37.2745C21.2062 37.7582 21.8018 38 22.5104 38C23.2009 38 23.7878 37.7614 24.2711 37.2841C24.7544 36.8069 24.9961 36.2274 24.9961 35.5456V34.11H44V17.67H25.5564L27.9377 10.3994H44V6ZM29.1408 27.6266C29.8329 27.6266 30.428 27.3835 30.9261 26.8972C31.4241 26.411 31.6731 25.8206 31.6731 25.1259C31.6731 24.4055 31.4202 23.7932 30.9144 23.2889C30.4086 22.7847 29.821 22.5326 29.1517 22.5326C28.3943 22.5326 27.7691 22.7836 27.2762 23.2858C26.7834 23.7879 26.537 24.3977 26.537 25.115C26.537 25.8324 26.7823 26.4303 27.2731 26.9088C27.7638 27.3874 28.3864 27.6266 29.1408 27.6266Z" fill="#191A1B"/>
</svg>
