<svg width="48" height="48" viewBox="0 0 48 48" fill="none" xmlns="http://www.w3.org/2000/svg">
<path fill-rule="evenodd" clip-rule="evenodd" d="M16.0709 26.0018C17.6759 26.0018 18.9764 27.2518 18.9764 28.7945C18.9764 30.3389 17.6759 31.5872 16.0709 31.5872C14.4643 31.5872 13.1638 30.3389 13.1638 28.7945C13.1638 27.2518 14.4643 26.0018 16.0709 26.0018ZM34.3969 26.0018C36.0019 26.0018 37.304 27.2518 37.304 28.7945C37.304 30.3389 36.0019 31.5872 34.3969 31.5872C32.7919 31.5872 31.4898 30.3389 31.4898 28.7945C31.4898 27.2518 32.7919 26.0018 34.3969 26.0018ZM19.8277 17.2367C21.8027 16.6478 28.3791 17.2737 30.3323 17.8524C31.6227 18.2326 33.5052 19.2841 35.975 21.0068C36.0153 21.0354 36.0591 21.0607 36.1062 21.0809L41.4157 23.4328C42.0969 23.7305 42.6847 24.2073 43.1163 24.8126C43.548 25.4178 43.8074 26.1288 43.8669 26.8699L43.9981 28.5741C44.012 28.772 43.9488 28.9675 43.8218 29.1199C43.6948 29.2722 43.5139 29.3696 43.3168 29.3917C41.0624 29.6643 39.3969 29.8561 38.2882 29.9688C38.4093 29.5987 38.4733 29.2033 38.4733 28.7962C38.4733 26.6226 36.6445 24.8527 34.3969 24.8527C32.1493 24.8527 30.3205 26.6226 30.3205 28.7962C30.3205 29.2504 30.4047 29.6845 30.551 30.0916H19.9151C20.0615 29.6845 20.1473 29.2504 20.1473 28.7962C20.1473 26.6226 18.3186 24.8527 16.0709 24.8527C13.8216 24.8527 11.9946 26.6226 11.9946 28.7962C11.9946 28.9409 12.003 29.0822 12.0198 29.2235C11.4694 29.082 10.9198 28.9373 10.3711 28.7894C10.1822 28.7407 10.019 28.6216 9.91515 28.4564C9.81129 28.2912 9.77458 28.0925 9.81256 27.9012L11.0912 21.5688C11.1146 21.455 11.1636 21.348 11.2344 21.2559C11.3052 21.1638 11.396 21.089 11.5 21.0371C15.7664 18.8854 18.5423 17.6219 19.8277 17.2367ZM8.96633 26.0018L8.79978 26.8194H6.91553C6.80635 26.8199 6.70141 26.7771 6.62357 26.7006C6.54574 26.624 6.50132 26.5198 6.49999 26.4106C6.49999 26.1852 6.68505 26.0018 6.91553 26.0018H8.96801H8.96633ZM9.36687 24.0141L9.20031 24.8317H5.57146C5.51719 24.8324 5.46332 24.8223 5.41295 24.8021C5.36258 24.7819 5.31669 24.752 5.27793 24.714C5.23916 24.676 5.20828 24.6307 5.18705 24.5808C5.16583 24.5308 5.15467 24.4772 5.15423 24.4229C5.15423 24.1975 5.34098 24.0141 5.57146 24.0141H9.36687ZM9.79742 21.9086L9.62077 22.7296H4.41723C4.36274 22.73 4.30869 22.7197 4.2582 22.6992C4.20771 22.6787 4.16177 22.6484 4.123 22.6102C4.08423 22.5719 4.05341 22.5263 4.03231 22.476C4.0112 22.4258 4.00022 22.3719 4 22.3174C4 22.092 4.18674 21.9086 4.41723 21.9086H9.79742ZM28.8041 20.9097C28.619 21.4648 28.3667 22.2623 28.0033 23.6721L27.7694 24.6024L27.6819 24.9625C27.5827 25.373 27.4043 26.0089 27.3455 26.2394C27.2563 26.6028 27.1537 26.8181 26.7566 26.9291C26.7566 26.9291 26.5497 26.9964 26.3007 26.9611C25.7624 26.8871 25.7371 26.4833 25.6463 26.1569C25.5117 25.659 25.3653 24.4409 25.3468 23.731C25.3449 23.6581 25.3432 23.5852 25.3418 23.5123L25.3384 23.4433C25.3393 23.4212 25.337 23.3991 25.3317 23.3777C25.3249 23.3558 25.3098 23.3491 25.2846 23.3541C25.2593 23.3609 25.2391 23.3878 25.2005 23.4887C25.1332 23.6906 25.0087 24.0742 24.9144 24.4191C24.7479 24.9995 24.5544 25.6657 24.4686 26.0425L24.1809 27.1024C24.1052 27.4187 23.7637 27.6189 23.5383 27.6744C23.3522 27.7341 23.1537 27.7434 22.9629 27.7014C22.7122 27.6408 22.5676 27.3447 22.4935 27.0789C22.4201 26.8295 22.3705 26.5738 22.3455 26.3151C22.2862 25.7069 22.2654 25.0955 22.2832 24.4847C22.3051 23.694 22.3875 22.5416 22.4431 21.9006L22.4717 21.263C22.4717 21.0274 22.4582 20.8794 22.4262 20.7751C22.4 20.6906 22.3571 20.6122 22.3001 20.5446C22.2782 20.5143 22.2546 20.4941 22.2496 20.4739C22.2109 20.336 22.5356 20.0853 22.9696 19.9928C23.2388 19.9356 23.4743 19.9238 23.6645 20.0819C23.7873 20.2115 23.8058 20.3377 23.799 20.5984C23.7929 20.713 23.7839 20.8275 23.7721 20.9416C23.7385 21.3521 23.6258 22.0705 23.5921 22.4827C23.5332 23.0513 23.4727 23.6889 23.4575 24.2761C23.4508 24.5621 23.4457 25.1088 23.4693 25.1946C23.4828 25.2367 23.5029 25.267 23.5416 25.2569C23.5787 25.2468 23.5988 25.2182 23.6544 25.0769L23.7015 24.9053L23.7486 24.732C23.7486 24.732 24.0043 23.8992 24.2196 23.2179C24.4501 22.5617 24.6823 21.8854 24.8354 21.5052C25.0625 20.9433 25.1786 20.5294 25.5723 20.4369C25.9659 20.3444 26.326 20.5059 26.4 20.7784C26.4387 20.9181 26.4387 21.0072 26.4235 21.5557C26.3949 22.5146 26.4605 23.2734 26.4841 24.0052C26.5043 24.3249 26.5312 24.5722 26.5648 24.6916C26.58 24.7454 26.6103 24.7623 26.6372 24.7572C26.6877 24.7454 26.7045 24.7068 26.7348 24.5738L26.7768 24.3821L27.0527 23.0967C27.2681 22.1563 27.4178 21.6028 27.6819 20.733C27.9965 19.7 28.2287 19.2307 28.6241 19.1499C28.9942 19.0725 29.2045 19.3585 29.2247 19.6412C29.2202 19.8011 29.1799 19.9581 29.1069 20.1004L28.8041 20.9097Z" fill="#191A1B"/>
</svg>
