<svg width="48" height="48" viewBox="0 0 48 48" fill="none" xmlns="http://www.w3.org/2000/svg">
<path fill-rule="evenodd" clip-rule="evenodd" d="M43.2394 30.3142H42.659L41.9584 27.8423C41.8927 27.616 41.795 27.4003 41.6682 27.2018C40.8676 26.0209 39.8968 25.2503 35.2632 24.1394C35.2632 24.1394 29.9291 20.5967 27.4572 19.6759L24.9352 18.7552L23.0438 12H17.2993L14.6173 18.505C12.7877 18.5594 10.963 18.7231 9.15303 18.9954C8.7473 19.0979 8.39204 19.343 8.15225 19.6859C6.2889 21.8862 5.19282 24.6334 5.02984 27.512C4.47941 27.6321 4.22922 27.7522 4.10912 28.1925C3.96363 28.8518 3.96363 29.5348 4.10912 30.1941C4.1931 30.6319 4.42084 31.0292 4.75624 31.3229C5.09163 31.6166 5.51548 31.7899 5.96056 31.8153L7.96211 32.1156C8.06075 31.0071 8.57638 29.9773 9.40486 29.2343C10.2333 28.4913 11.3129 28.0903 12.4256 28.1125C13.5848 28.0883 14.7064 28.5244 15.5448 29.3253C16.3832 30.1262 16.8702 31.2267 16.899 32.3858C16.8993 32.6007 16.8792 32.8152 16.839 33.0263H30.0492V32.9262C30.0492 31.7318 30.5237 30.5863 31.3682 29.7418C32.2128 28.8972 33.3583 28.4227 34.5527 28.4227C35.7471 28.4227 36.8926 28.8972 37.7371 29.7418C38.5817 30.5863 39.0562 31.7318 39.0562 32.9262V33.0263H43.2995C43.4809 33.029 43.6561 32.9602 43.7872 32.8347C43.9183 32.7092 43.9948 32.5372 44 32.3558V30.9547C43.9977 30.8595 43.9758 30.7658 43.9356 30.6795C43.8954 30.5932 43.8377 30.5161 43.7663 30.4531C43.6949 30.3901 43.6112 30.3426 43.5205 30.3136C43.4299 30.2845 43.3341 30.2745 43.2394 30.2842V30.3142ZM13.2162 24.1494C13.1684 24.2406 13.0964 24.3168 13.0081 24.3698C12.9199 24.4227 12.8187 24.4504 12.7158 24.4496H9.86358C9.30314 24.3996 9.23309 23.7891 9.31315 23.4489C9.38232 23.1549 9.78018 22.0467 10.0162 21.3892L10.1138 21.1171C10.2081 20.8805 10.3688 20.6762 10.5765 20.5288C10.7843 20.3814 11.0302 20.2973 11.2847 20.2864C12.5265 20.0722 13.7795 19.9286 15.0376 19.8561C15.0727 19.854 15.1077 19.8613 15.1392 19.8771C15.1706 19.893 15.1973 19.9168 15.2166 19.9462C15.2359 19.9756 15.247 20.0096 15.249 20.0448C15.251 20.0799 15.2436 20.1149 15.2277 20.1463L13.2162 24.1494ZM18.22 13.241C18.2978 13.2108 18.382 13.2014 18.4645 13.2137C18.547 13.226 18.6248 13.2595 18.6904 13.311C18.7905 13.4111 18.7905 13.5112 18.7905 13.7113V13.9715C18.7905 14.1638 18.7494 14.4588 18.712 14.7275L18.712 14.7276C18.691 14.8784 18.6712 15.0209 18.6604 15.1324L18.5603 16.4935V17.194C18.5603 17.2256 18.5603 17.2405 18.5676 17.2462C18.5741 17.2513 18.5866 17.2488 18.6103 17.2441C18.6405 17.238 18.6416 17.2203 18.6442 17.1765C18.646 17.1476 18.6485 17.1073 18.6604 17.0517L18.6904 16.8437L19.0107 15.7029L19.431 14.4019L19.4456 14.3578C19.5439 14.0612 19.6741 13.6679 19.9314 13.6012C19.9845 13.5804 20.0414 13.5703 20.0985 13.5716C20.1556 13.5729 20.2119 13.5856 20.264 13.6089C20.3162 13.6322 20.3632 13.6656 20.4023 13.7072C20.4414 13.7489 20.4718 13.7979 20.4918 13.8514C20.521 14.0472 20.521 14.2462 20.4918 14.4419V16.2933C20.4958 16.4678 20.5125 16.6417 20.5418 16.8137C20.5438 16.8263 20.5497 16.8379 20.5587 16.8469C20.5677 16.8559 20.5793 16.8618 20.5919 16.8638C20.5919 16.8638 20.6419 16.8638 20.6619 16.7237V16.5835L20.8421 15.5828L21.2724 13.7814C21.4525 13.1209 21.6427 12.6405 21.9129 12.5804C22.1831 12.5204 22.3132 12.7406 22.3132 12.9507C22.3174 13.0725 22.2898 13.1932 22.2332 13.301L22.033 13.9015L21.4926 16.0031L21.3325 16.7036L21.2724 16.9839L21.0422 17.9846C21.0022 18.1848 20.9121 18.425 20.6419 18.505C20.5429 18.5258 20.4407 18.5258 20.3417 18.505C19.9996 18.4496 19.9479 18.189 19.9026 17.9603L19.9025 17.9602C19.8988 17.9414 19.8951 17.9228 19.8913 17.9046C19.7764 17.297 19.7095 16.6813 19.6912 16.0631V15.863L19.6311 15.9631C19.5905 16.0308 19.5452 16.2133 19.4985 16.4017L19.4985 16.4017L19.4985 16.4018C19.4762 16.4916 19.4536 16.5828 19.431 16.6636L19.1307 17.8846L18.9306 18.6852C18.9008 18.7884 18.8459 18.8826 18.7708 18.9595C18.6957 19.0363 18.6028 19.0934 18.5003 19.1255C18.3724 19.1595 18.2378 19.1595 18.11 19.1255C17.9398 19.0755 17.8398 18.8553 17.7897 18.6552C17.7403 18.4648 17.7068 18.2706 17.6896 18.0747C17.6645 17.6114 17.6645 17.147 17.6896 16.6836C17.6896 16.2426 17.7274 15.6613 17.7594 15.1695C17.7709 14.9917 17.7817 14.8256 17.7897 14.6821V14.2017C17.8042 14.0787 17.8042 13.9544 17.7897 13.8314C17.774 13.7682 17.7431 13.7098 17.6996 13.6613V13.6012C17.6996 13.5412 17.9198 13.331 18.2 13.261L18.22 13.241ZM29.6689 24.3496C29.6676 24.3956 29.6573 24.4409 29.6385 24.4829C29.6196 24.5249 29.5927 24.5628 29.5593 24.5944C29.5258 24.626 29.4865 24.6506 29.4435 24.667C29.4004 24.6834 29.3546 24.6912 29.3086 24.6898L15.8482 24.5897C15.8127 24.5898 15.7778 24.5809 15.7467 24.5638C15.7156 24.5467 15.6894 24.522 15.6704 24.492C15.6514 24.4621 15.6403 24.4278 15.6382 24.3924C15.636 24.3569 15.6429 24.3216 15.6581 24.2895L17.7797 20.2064C17.8357 20.1112 17.9165 20.033 18.0134 19.9802C18.1104 19.9273 18.2198 19.9017 18.3301 19.9061C21.4826 19.9061 24.605 20.2064 25.876 20.7067C27.3337 21.3267 28.7307 22.0805 30.0492 22.9585L29.6689 24.3496ZM32.1108 24.3496C31.9707 24.7499 30.2494 24.6498 30.2494 24.6498L30.7497 23.1987C31.3502 23.1486 32.331 23.6991 32.1008 24.3696L32.1108 24.3496ZM41.5181 28.853L40.3171 28.4027C40.117 28.3326 40.0369 27.9724 40.167 27.7322L40.5673 27.0016C40.5813 26.9641 40.6048 26.9308 40.6355 26.9051C40.6662 26.8794 40.7031 26.8622 40.7425 26.8551C40.7819 26.848 40.8225 26.8514 40.8602 26.8648C40.8979 26.8782 40.9315 26.9012 40.9576 26.9316C41.3401 27.4442 41.5816 28.048 41.6582 28.6829C41.6582 28.833 41.5781 28.9031 41.5081 28.8831L41.5181 28.853ZM15.8603 32.6791C15.8603 34.5735 14.3246 36.1092 12.4301 36.1092C10.5357 36.1092 9 34.5735 9 32.6791C9 30.7846 10.5357 29.2489 12.4301 29.2489C14.3246 29.2489 15.8603 30.7846 15.8603 32.6791ZM34.5893 36.4565C36.4837 36.4565 38.0194 34.9208 38.0194 33.0263C38.0194 31.1319 36.4837 29.5962 34.5893 29.5962C32.6948 29.5962 31.1591 31.1319 31.1591 33.0263C31.1591 34.9208 32.6948 36.4565 34.5893 36.4565Z" fill="#191A1B"/>
</svg>
