<svg width="48" height="48" viewBox="0 0 48 48" fill="none" xmlns="http://www.w3.org/2000/svg">
<path d="M15.25 46C14.425 46 13.7188 45.7063 13.1313 45.1188C12.5438 44.5312 12.25 43.825 12.25 43V35.7H15.25V38.5H37.25V9.5H15.25V12.3H12.25V5C12.25 4.175 12.5438 3.46875 13.1313 2.88125C13.7188 2.29375 14.425 2 15.25 2H37.25C38.075 2 38.7813 2.29375 39.3688 2.88125C39.9563 3.46875 40.25 4.175 40.25 5V43C40.25 43.825 39.9563 44.5312 39.3688 45.1188C38.7813 45.7063 38.075 46 37.25 46H15.25Z" fill="#191A1B"/>
<path d="M9.25 28.85H16.25V25.2H9.7C9.16667 25.2 8.70833 25.0323 8.325 24.6969C7.94167 24.3615 7.75 23.9458 7.75 23.45V17.75C7.75 17.1833 7.93687 16.7083 8.3106 16.325C8.68437 15.9417 9.1475 15.75 9.7 15.75H12.15V15C12.15 14.575 12.2917 14.2188 12.575 13.9312C12.8583 13.6437 13.2138 13.5 13.6413 13.5C14.0687 13.5 14.4271 13.6437 14.7163 13.9312C15.0054 14.2188 15.15 14.575 15.15 15V15.75H17.75C18.175 15.75 18.5312 15.8917 18.8188 16.175C19.1063 16.4583 19.25 16.8138 19.25 17.2413C19.25 17.6687 19.1063 18.0271 18.8188 18.3162C18.5312 18.6054 18.175 18.75 17.75 18.75H10.75V22.2H17.55C18.05 22.2 18.4583 22.3917 18.775 22.775C19.0917 23.1583 19.25 23.6204 19.25 24.1613V29.8887C19.25 30.4296 19.0917 30.8917 18.775 31.275C18.4583 31.6583 18.05 31.85 17.55 31.85H15.15V32.6C15.15 33.025 15.0083 33.3812 14.725 33.6687C14.4417 33.9562 14.0863 34.1 13.6588 34.1C13.2313 34.1 12.8729 33.9562 12.5837 33.6687C12.2946 33.3812 12.15 33.025 12.15 32.6V31.85H9.25C8.825 31.85 8.46875 31.7083 8.18125 31.425C7.89375 31.1417 7.75 30.7862 7.75 30.3587C7.75 29.9313 7.89375 29.5729 8.18125 29.2837C8.46875 28.9946 8.825 28.85 9.25 28.85Z" fill="#191A1B"/>
</svg>
