<svg width="48" height="48" viewBox="0 0 48 48" fill="none" xmlns="http://www.w3.org/2000/svg">
<path d="M7.82322 40.2783C6.77725 40.2783 5.87847 39.9026 5.12689 39.1514C4.37563 38.3998 4 37.501 4 36.455V11.8507C4 10.7973 4.37563 9.89229 5.12689 9.13556C5.87847 8.37851 6.77725 7.99998 7.82322 7.99998H40.1493C41.2026 7.99998 42.1077 8.37851 42.8644 9.13556C43.6215 9.89229 44 10.7973 44 11.8507V36.455C44 37.501 43.6215 38.3998 42.8644 39.1514C42.1077 39.9026 41.2026 40.2783 40.1493 40.2783H7.82322ZM23.9862 25.496C24.1835 25.496 24.3611 25.4672 24.519 25.4096C24.6773 25.3523 24.8493 25.2728 25.035 25.1712L39.5576 15.5518C39.7185 15.4646 39.8573 15.32 39.9741 15.118C40.0909 14.9162 40.1493 14.6893 40.1493 14.437C40.1493 13.9393 39.9189 13.5363 39.4582 13.2281C38.9971 12.9195 38.528 12.9303 38.0509 13.2604L23.9862 22.3716L9.96986 13.2604C9.49272 12.9486 9.01558 12.9236 8.53845 13.1851C8.06163 13.4467 7.82322 13.8489 7.82322 14.3916C7.82322 14.6368 7.88966 14.8628 8.02254 15.0697C8.15542 15.2766 8.29698 15.4379 8.44723 15.5538L22.938 25.1712C23.1233 25.2728 23.2952 25.3523 23.4534 25.4096C23.6114 25.4672 23.789 25.496 23.9862 25.496Z" fill="#191A1B"/>
</svg>
