<svg width="48" height="48" viewBox="0 0 48 48" fill="none" xmlns="http://www.w3.org/2000/svg">
<path d="M7.82322 40.2783C6.77725 40.2783 5.87847 39.9026 5.12689 39.1514C4.37563 38.3998 4 37.501 4 36.455V11.8507C4 10.7973 4.37563 9.89229 5.12689 9.13556C5.87847 8.37851 6.77725 7.99998 7.82322 7.99998H40.1493C41.2026 7.99998 42.1077 8.37851 42.8644 9.13556C43.6215 9.89229 44 10.7973 44 11.8507V36.455C44 37.501 43.6215 38.3998 42.8644 39.1514C42.1077 39.9026 41.2026 40.2783 40.1493 40.2783H7.82322ZM40.1493 15.1324L25.034 25.1717C24.8522 25.273 24.6815 25.3523 24.5219 25.4096C24.362 25.4672 24.1835 25.496 23.9862 25.496C23.789 25.496 23.6105 25.4672 23.4506 25.4096C23.291 25.3523 23.1203 25.273 22.9385 25.1717L7.82322 15.1324V36.455H40.1493V15.1324ZM23.9862 22.3716L39.9562 11.8507H8.06452L23.9862 22.3716ZM7.82322 15.5518V13.2315V13.2759V11.8507V13.2604V13.1895V15.5518Z" fill="#191A1B"/>
</svg>
