<svg width="48" height="48" viewBox="0 0 48 48" fill="none" xmlns="http://www.w3.org/2000/svg">
<path d="M14.6419 25.304H19.0041V43.3548C19.0041 43.7113 19.2914 44 19.6459 44H27.0422C27.3968 44 27.684 43.7113 27.684 43.3548V25.3891H32.6988C33.0248 25.3891 33.2992 25.1431 33.3364 24.8176L34.098 18.1722C34.119 17.9894 34.0614 17.8063 33.9396 17.6691C33.8179 17.5318 33.6435 17.4532 33.4606 17.4532H27.6843V13.2875C27.6843 12.0318 28.357 11.395 29.6839 11.395C29.873 11.395 33.4606 11.395 33.4606 11.395C33.8151 11.395 34.1024 11.1061 34.1024 10.7498V4.64992C34.1024 4.29352 33.8151 4.00477 33.4606 4.00477H28.2557C28.219 4.00297 28.1375 4 28.0173 4C27.1142 4 23.9751 4.1782 21.4955 6.47109C18.7481 9.01203 19.13 12.0543 19.2213 12.5818V17.453H14.6419C14.2873 17.453 14 17.7418 14 18.0982V24.6588C14.0001 25.0151 14.2873 25.304 14.6419 25.304Z" fill="#385C8E"/>
</svg>
