<svg width="48" height="48" viewBox="0 0 48 48" fill="none" xmlns="http://www.w3.org/2000/svg">
<path d="M23.9725 42.622C23.4835 42.622 23.0025 42.5387 22.5295 42.372C22.0565 42.2053 21.6328 41.933 21.2585 41.555L18.5935 39.061C14.4788 35.284 10.9002 31.6257 7.8575 28.086C4.81484 24.546 3.2935 20.8007 3.2935 16.85C3.2935 13.6357 4.36234 10.9512 6.5 8.7965C8.63767 6.64217 11.2948 5.565 14.4715 5.565C16.1528 5.565 17.8173 5.94517 19.465 6.7055C21.113 7.4655 22.6152 8.74117 23.9715 10.5325C25.4948 8.74117 27.0305 7.4655 28.5785 6.7055C30.1262 5.94517 31.7572 5.565 33.4715 5.565C36.6715 5.565 39.3487 6.64217 41.503 8.7965C43.6577 10.9512 44.735 13.6357 44.735 16.85C44.735 20.8007 43.1995 24.546 40.1285 28.086C37.0575 31.6257 33.4742 35.2933 29.3785 39.089L26.7 41.5675C26.3307 41.9412 25.9087 42.2103 25.434 42.375C24.959 42.5397 24.4718 42.622 23.9725 42.622ZM22.5305 14.963C21.7058 13.405 20.5507 12.1093 19.065 11.076C17.5797 10.0427 16.0512 9.526 14.4795 9.526C12.3578 9.526 10.6233 10.2095 9.276 11.5765C7.92834 12.9432 7.2545 14.7082 7.2545 16.8715C7.2545 18.7612 7.89034 20.7505 9.162 22.8395C10.4337 24.9285 11.9545 26.955 13.7245 28.919C15.4945 30.883 17.3347 32.7162 19.245 34.4185C21.1557 36.1205 22.733 37.544 23.977 38.689C25.2287 37.5557 26.807 36.1305 28.712 34.4135C30.6173 32.6965 32.4587 30.8498 34.236 28.8735C36.0133 26.8968 37.5473 24.868 38.838 22.787C40.1287 20.706 40.774 18.725 40.774 16.844C40.774 14.7047 40.0858 12.9502 38.7095 11.5805C37.3332 10.2108 35.5918 9.526 33.4855 9.526C31.8662 9.526 30.3222 10.0343 28.8535 11.051C27.3845 12.0677 26.2138 13.3717 25.3415 14.963C25.1692 15.2673 24.9608 15.4873 24.7165 15.623C24.4722 15.7583 24.2025 15.826 23.9075 15.826C23.6125 15.826 23.3463 15.7583 23.109 15.623C22.8713 15.4873 22.6785 15.2673 22.5305 14.963Z" fill="#191A1B"/>
</svg>
