<svg width="48" height="48" viewBox="0 0 48 48" fill="none" xmlns="http://www.w3.org/2000/svg">
<path d="M23.9715 42.622C23.4732 42.622 22.9889 42.5363 22.5185 42.365C22.0482 42.194 21.6325 41.9282 21.2715 41.5675L18.5935 39.061C14.4789 35.284 10.9002 31.6257 7.85752 28.086C4.81485 24.546 3.29352 20.8007 3.29352 16.85C3.29352 13.6427 4.36302 10.96 6.50202 8.802C8.64135 6.644 11.2979 5.565 14.4715 5.565C16.1529 5.565 17.8174 5.94517 19.465 6.7055C21.113 7.4655 22.6152 8.74117 23.9715 10.5325C25.4949 8.74117 27.0305 7.4655 28.5785 6.7055C30.1262 5.94517 31.7572 5.565 33.4715 5.565C36.6645 5.565 39.34 6.644 41.498 8.802C43.656 10.96 44.735 13.6427 44.735 16.85C44.735 20.8007 43.1995 24.546 40.1285 28.086C37.0575 31.6257 33.4742 35.2933 29.3785 39.089L26.7 41.5675C26.339 41.9282 25.9187 42.194 25.439 42.365C24.9594 42.5363 24.4702 42.622 23.9715 42.622Z" fill="#191A1B"/>
</svg>
