<svg width="48" height="48" viewBox="0 0 48 48" fill="none" xmlns="http://www.w3.org/2000/svg">
<path d="M25.4585 40.122L23.374 40.0935C18.532 39.8675 14.4323 37.991 11.075 34.464C7.71767 30.9373 6.039 26.7435 6.039 21.8825C6.039 16.8522 7.82483 12.5642 11.3965 9.01851C14.9685 5.47285 19.2863 3.70001 24.35 3.70001C26.8487 3.70001 29.1675 4.15318 31.3065 5.05951C33.4455 5.96618 35.3075 7.22851 36.8925 8.84651C38.4772 10.4648 39.7228 12.3768 40.6295 14.5825C41.5358 16.7885 41.989 19.1907 41.989 21.789C41.989 26.4573 40.7285 30.7433 38.2075 34.647C35.6865 38.5503 32.492 41.8173 28.624 44.448C28.3153 44.6523 27.9852 44.7498 27.6335 44.7405C27.2822 44.7308 26.9522 44.6478 26.6435 44.4915C26.3348 44.3538 26.0913 44.139 25.913 43.847C25.7347 43.5547 25.6383 43.2282 25.624 42.8675L25.4585 40.122ZM24.3785 33.737C24.9872 33.737 25.503 33.5253 25.926 33.102C26.3493 32.679 26.561 32.1632 26.561 31.5545C26.561 30.9645 26.3493 30.458 25.926 30.035C25.503 29.6117 24.9872 29.4 24.3785 29.4C23.7695 29.4 23.2535 29.6117 22.8305 30.035C22.4072 30.458 22.1955 30.9645 22.1955 31.5545C22.1955 32.1632 22.4072 32.679 22.8305 33.102C23.2535 33.5253 23.7695 33.737 24.3785 33.737ZM19.415 17.074C19.805 17.226 20.1913 17.226 20.574 17.074C20.9567 16.9217 21.3023 16.6673 21.611 16.311C21.8733 15.9153 22.244 15.6067 22.723 15.385C23.202 15.163 23.7965 15.052 24.5065 15.052C25.2412 15.052 25.898 15.2618 26.477 15.6815C27.056 16.1012 27.3455 16.6805 27.3455 17.4195C27.3455 18.0342 27.1658 18.6712 26.8065 19.3305C26.4472 19.9898 25.8718 20.7152 25.0805 21.5065C24.3325 22.2732 23.7647 22.967 23.377 23.588C22.9893 24.209 22.7955 24.734 22.7955 25.163C22.7955 25.5863 22.9275 25.9548 23.1915 26.2685C23.4552 26.5822 23.7985 26.739 24.2215 26.739C24.6262 26.739 24.9723 26.6177 25.26 26.375C25.5477 26.1323 25.753 25.8277 25.876 25.461C26.0327 25.113 26.2243 24.7318 26.451 24.3175C26.678 23.9028 27.0465 23.431 27.5565 22.902C28.6362 21.7847 29.3807 20.813 29.79 19.987C30.1997 19.161 30.4045 18.2863 30.4045 17.363C30.4045 15.7397 29.8497 14.4425 28.74 13.4715C27.6307 12.5005 26.2667 12.015 24.648 12.015C23.6247 12.015 22.555 12.24 21.439 12.69C20.323 13.14 19.5245 13.8128 19.0435 14.7085C18.7682 15.1695 18.6592 15.641 18.7165 16.123C18.7735 16.6047 19.0063 16.9217 19.415 17.074Z" fill="#191A1B"/>
</svg>
