<svg width="48" height="48" viewBox="0 0 48 48" fill="none" xmlns="http://www.w3.org/2000/svg">
<path d="M23.0108 42.6501C22.4891 42.6501 22.0536 42.4798 21.7044 42.1393C21.3551 41.7988 21.1805 41.3654 21.1805 40.8392V32.5609C21.1805 32.0347 21.358 31.6013 21.7131 31.2608C22.0682 30.9203 22.5067 30.75 23.0284 30.75C23.5501 30.75 23.9808 30.9203 24.3207 31.2608C24.6605 31.6013 24.8305 32.0347 24.8305 32.5609V34.9H40.6696C41.1959 34.9 41.6292 35.0711 41.9697 35.4133C42.3102 35.7554 42.4805 36.1909 42.4805 36.7197C42.4805 37.2414 42.3102 37.6769 41.9697 38.0261C41.6292 38.3754 41.1959 38.5501 40.6696 38.5501H24.8305V40.8392C24.8305 41.3654 24.6594 41.7988 24.3172 42.1393C23.975 42.4798 23.5396 42.6501 23.0108 42.6501ZM7.33046 38.5501C6.80416 38.5501 6.37078 38.3725 6.03031 38.0174C5.68981 37.6622 5.51956 37.2238 5.51956 36.7021C5.51956 36.1804 5.68981 35.7497 6.03031 35.4098C6.37078 35.07 6.80416 34.9 7.33046 34.9H16.7087C17.235 34.9 17.6684 35.0711 18.0089 35.4133C18.3493 35.7554 18.5196 36.1909 18.5196 36.7197C18.5196 37.2414 18.3493 37.6769 18.0089 38.0261C17.6684 38.3754 17.235 38.5501 16.7087 38.5501H7.33046ZM16.6999 29.9109C16.1782 29.9109 15.7428 29.7342 15.3935 29.3807C15.0442 29.0273 14.8696 28.591 14.8696 28.0718V25.8109H7.33046C6.82303 25.8109 6.39435 25.6351 6.04441 25.2835C5.69451 24.9319 5.51956 24.5012 5.51956 23.9913C5.51956 23.4813 5.69451 23.0535 6.04441 22.7078C6.39435 22.362 6.82303 22.1891 7.33046 22.1891H14.8696V19.8C14.8696 19.2738 15.0471 18.8404 15.4023 18.4999C15.7574 18.1594 16.1958 17.9891 16.7175 17.9891C17.2392 17.9891 17.6699 18.1594 18.0098 18.4999C18.3496 18.8404 18.5196 19.2738 18.5196 19.8V28.1C18.5196 28.6263 18.3485 29.0597 18.0063 29.4002C17.6641 29.7407 17.2287 29.9109 16.6999 29.9109ZM22.9913 25.8109C22.4839 25.8109 22.0552 25.6351 21.7053 25.2835C21.3554 24.9319 21.1805 24.5012 21.1805 23.9913C21.1805 23.4813 21.3554 23.0535 21.7053 22.7078C22.0552 22.362 22.4839 22.1891 22.9913 22.1891H40.6696C41.177 22.1891 41.6057 22.3649 41.9556 22.7165C42.3055 23.0681 42.4805 23.4989 42.4805 24.0088C42.4805 24.5187 42.3055 24.9465 41.9556 25.2923C41.6057 25.638 41.177 25.8109 40.6696 25.8109H22.9913ZM31.3108 17.25C30.7891 17.25 30.3536 17.0798 30.0044 16.7393C29.6551 16.3988 29.4805 15.9654 29.4805 15.4391V7.16087C29.4805 6.63461 29.658 6.20122 30.0131 5.86072C30.3682 5.52022 30.8067 5.34998 31.3284 5.34998C31.8501 5.34998 32.2808 5.52022 32.6207 5.86072C32.9605 6.20122 33.1305 6.63461 33.1305 7.16087V9.44998H40.6696C41.1959 9.44998 41.6292 9.62108 41.9697 9.96328C42.3102 10.3054 42.4805 10.7409 42.4805 11.2696C42.4805 11.7913 42.3102 12.2268 41.9697 12.5761C41.6292 12.9254 41.1959 13.1 40.6696 13.1H33.1305V15.4391C33.1305 15.9654 32.9594 16.3988 32.6172 16.7393C32.275 17.0798 31.8396 17.25 31.3108 17.25ZM7.33046 13.1C6.80416 13.1 6.37078 12.9225 6.03031 12.5673C5.68981 12.2122 5.51956 11.7738 5.51956 11.2521C5.51956 10.7304 5.68981 10.2996 6.03031 9.95977C6.37078 9.61991 6.80416 9.44998 7.33046 9.44998H25.0087C25.535 9.44998 25.9684 9.62108 26.3089 9.96328C26.6493 10.3054 26.8196 10.7409 26.8196 11.2696C26.8196 11.7913 26.6493 12.2268 26.3089 12.5761C25.9684 12.9254 25.535 13.1 25.0087 13.1H7.33046Z" fill="#191A1B"/>
</svg>
