<svg width="48" height="48" viewBox="0 0 48 48" fill="none" xmlns="http://www.w3.org/2000/svg">
<mask id="mask0_682_24" style="mask-type:alpha" maskUnits="userSpaceOnUse" x="0" y="0" width="48" height="48">
<rect width="48" height="48" fill="#D9D9D9"/>
</mask>
<g mask="url(#mask0_682_24)">
<path d="M6.34999 19.3C6.11666 19.2 5.97499 19.0167 5.92499 18.75C5.87499 18.4833 5.89999 18.25 5.99999 18.05C8.03333 15.05 10.65 12.7333 13.85 11.1C17.05 9.46668 20.4833 8.65001 24.15 8.65001C27.7167 8.65001 31.0833 9.42501 34.25 10.975C37.4167 12.525 40.0333 14.75 42.1 17.65C42.3 17.95 42.375 18.225 42.325 18.475C42.275 18.725 42.15 18.9333 41.95 19.1C41.75 19.2667 41.5167 19.3417 41.25 19.325C40.9833 19.3083 40.7667 19.15 40.6 18.85C38.7333 16.2167 36.3417 14.1917 33.425 12.775C30.5083 11.3583 27.4167 10.6333 24.15 10.6C20.85 10.6 17.7583 11.3083 14.875 12.725C11.9917 14.1417 9.63333 16.2 7.79999 18.9C7.56666 19.2 7.31666 19.375 7.04999 19.425C6.78333 19.475 6.54999 19.4333 6.34999 19.3ZM30.55 44.65C26.65 43.85 23.5917 42.0917 21.375 39.375C19.1583 36.6583 18.05 33.4167 18.05 29.65C18.05 27.95 18.6417 26.5 19.825 25.3C21.0083 24.1 22.45 23.5 24.15 23.5C25.85 23.5 27.3 24.075 28.5 25.225C29.7 26.375 30.3 27.7833 30.3 29.45C30.3 30.6167 30.7083 31.6 31.525 32.4C32.3417 33.2 33.3333 33.6 34.5 33.6C35.6333 33.6 36.6 33.2 37.4 32.4C38.2 31.6 38.6 30.6167 38.6 29.45C38.6 25.55 37.1833 22.275 34.35 19.625C31.5167 16.975 28.1 15.65 24.1 15.65C20.1 15.65 16.7 17.0083 13.9 19.725C11.1 22.4417 9.69999 25.7667 9.69999 29.7C9.69999 30.9333 9.79166 32.15 9.97499 33.35C10.1583 34.55 10.4667 35.7167 10.9 36.85C11 37.1833 11.0083 37.45 10.925 37.65C10.8417 37.85 10.6833 38 10.45 38.1C10.1833 38.2 9.91666 38.2167 9.64999 38.15C9.38333 38.0833 9.18333 37.8667 9.04999 37.5C8.71666 36.5333 8.42499 35.375 8.17499 34.025C7.92499 32.675 7.79999 31.2167 7.79999 29.65C7.79999 25.2833 9.40833 21.5083 12.625 18.325C15.8417 15.1417 19.6833 13.55 24.15 13.55C28.6833 13.55 32.55 15.0917 35.75 18.175C38.95 21.2583 40.55 25.0167 40.55 29.45C40.55 31.1167 39.9667 32.55 38.8 33.75C37.6333 34.95 36.2 35.55 34.5 35.55C32.7667 35.55 31.3 34.975 30.1 33.825C28.9 32.675 28.3 31.2833 28.3 29.65C28.3 28.4833 27.9 27.4833 27.1 26.65C26.3 25.8167 25.3167 25.4 24.15 25.4C23.0167 25.4 22.0417 25.8167 21.225 26.65C20.4083 27.4833 20 28.4833 20 29.65C20 33.05 20.9667 35.9167 22.9 38.25C24.8333 40.5833 27.5667 42.1333 31.1 42.9C31.4 42.9333 31.6 43.0583 31.7 43.275C31.8 43.4917 31.8333 43.7167 31.8 43.95C31.7333 44.2167 31.6083 44.4167 31.425 44.55C31.2417 44.6833 30.95 44.7167 30.55 44.65ZM12.45 8.50001C12.1167 8.66668 11.8417 8.71668 11.625 8.65001C11.4083 8.58335 11.2333 8.45001 11.1 8.25001C11 8.11668 10.9667 7.89168 11 7.57501C11.0333 7.25835 11.1667 7.05001 11.4 6.95001C13.3333 5.81668 15.3917 4.99168 17.575 4.47501C19.7583 3.95835 21.95 3.70001 24.15 3.70001C26.35 3.70001 28.5083 3.95835 30.625 4.47501C32.7417 4.99168 34.7667 5.76668 36.7 6.80001C37 6.93335 37.175 7.13335 37.225 7.40001C37.275 7.66668 37.25 7.90001 37.15 8.10001C37.0167 8.30001 36.8333 8.45835 36.6 8.57501C36.3667 8.69168 36.1167 8.66668 35.85 8.50001C34.05 7.60001 32.1583 6.90001 30.175 6.40001C28.1917 5.90001 26.1833 5.65001 24.15 5.65001C22.0833 5.65001 20.0667 5.88335 18.1 6.35001C16.1333 6.81668 14.25 7.53335 12.45 8.50001ZM18.75 43.8C16.8167 41.8333 15.3667 39.6917 14.4 37.375C13.4333 35.0583 12.95 32.4833 12.95 29.65C12.95 26.5833 14.0333 23.9667 16.2 21.8C18.3667 19.6333 21.0167 18.55 24.15 18.55C27.25 18.55 29.9083 19.6083 32.125 21.725C34.3417 23.8417 35.45 26.4167 35.45 29.45C35.45 29.7833 35.375 30.0583 35.225 30.275C35.075 30.4917 34.8333 30.6 34.5 30.6C34.1333 30.6 33.8667 30.4917 33.7 30.275C33.5333 30.0583 33.45 29.7833 33.45 29.45C33.45 26.9167 32.5417 24.7833 30.725 23.05C28.9083 21.3167 26.7167 20.45 24.15 20.45C21.5833 20.45 19.4 21.35 17.6 23.15C15.8 24.95 14.9 27.1167 14.9 29.65C14.9 32.3167 15.3167 34.6417 16.15 36.625C16.9833 38.6083 18.35 40.5833 20.25 42.55C20.4833 42.7833 20.6 43.0167 20.6 43.25C20.6 43.4833 20.5333 43.6833 20.4 43.85C20.2333 44.0833 19.975 44.2 19.625 44.2C19.275 44.2 18.9833 44.0667 18.75 43.8ZM34.85 40.4C31.6167 40.4 28.8667 39.4583 26.6 37.575C24.3333 35.6917 23.2 33 23.2 29.5C23.2 29.2 23.2833 28.95 23.45 28.75C23.6167 28.55 23.85 28.45 24.15 28.45C24.45 28.45 24.6833 28.55 24.85 28.75C25.0167 28.95 25.1 29.2 25.1 29.5C25.1 32.4333 26.0583 34.6667 27.975 36.2C29.8917 37.7333 32.1833 38.5 34.85 38.5C35.1833 38.5 35.5667 38.4667 36 38.4C36.4333 38.3333 36.8333 38.3 37.2 38.3C37.4667 38.3 37.6917 38.3833 37.875 38.55C38.0583 38.7167 38.1333 38.9 38.1 39.1C38.1 39.3667 38.0417 39.575 37.925 39.725C37.8083 39.875 37.65 39.9833 37.45 40.05C36.9833 40.2167 36.5083 40.3167 36.025 40.35C35.5417 40.3833 35.15 40.4 34.85 40.4Z" fill="#191A1B"/>
</g>
</svg>
