<svg width="48" height="48" viewBox="0 0 48 48" fill="none" xmlns="http://www.w3.org/2000/svg">
<path fill-rule="evenodd" clip-rule="evenodd" d="M29.3675 23.8219C29.2375 24.7218 28.4376 25.4218 27.4677 25.5217C28.0376 25.1518 28.4376 24.5718 28.5376 23.8919C28.6876 22.912 28.1576 21.9621 27.2877 21.4322L27.3877 21.4422C28.6476 21.6222 29.5375 22.692 29.3675 23.8119M26.0678 21.1422C25.9279 22.0621 25.1179 22.742 24.128 22.842C24.708 22.4721 25.1279 21.9021 25.2279 21.2222C25.3679 20.2423 24.828 19.2924 23.9281 18.7525L24.0281 18.7625C25.3279 18.9624 26.2278 20.0223 26.0678 21.1422ZM26.0178 26.3617C25.8779 27.2816 25.0879 27.9615 24.118 28.0615C24.688 27.6915 25.0979 27.1116 25.1979 26.4316C25.3479 25.4518 24.818 24.5019 23.9381 23.9719H24.0381C25.3079 24.1719 26.2078 25.2218 26.0378 26.3417M22.2682 18.0725C22.1383 18.9924 21.2683 19.6524 20.1685 19.7524C20.7984 19.3924 21.2383 18.8224 21.3383 18.1525C21.4883 17.1726 20.8784 16.2127 19.8885 15.6528L19.9885 15.6628C21.4083 15.8628 22.4182 16.9626 22.2482 18.0625M22.1782 23.282C22.0383 24.2019 21.1784 24.8618 20.1285 24.9818C20.7284 24.6118 21.1784 24.0519 21.2783 23.362C21.4283 22.3821 20.8384 21.4222 19.8785 20.8822L19.9785 20.8922C21.3583 21.0922 22.3382 22.1721 22.1782 23.292M22.0783 28.4414C21.9383 29.3413 21.1184 30.0413 20.0985 30.1413C20.6984 29.7713 21.0984 29.2014 21.1984 28.5214C21.3383 27.5415 20.7984 26.5916 19.8685 26.0517L19.9685 26.0617C21.2883 26.2617 22.2282 27.3216 22.0683 28.4614M11.2694 23.222C10.8186 23.222 10.3862 23.0429 10.0674 22.7241C9.74866 22.4053 9.56957 21.973 9.56957 21.5222C9.56957 21.07 9.74919 20.6364 10.0689 20.3167C10.3886 19.997 10.8222 19.8173 11.2744 19.8173C11.7265 19.8173 12.1602 19.997 12.4799 20.3167C12.7996 20.6364 12.9792 21.07 12.9792 21.5222C12.9792 21.973 12.8001 22.4053 12.4813 22.7241C12.1626 23.0429 11.7302 23.222 11.2794 23.222M41.0363 22.3221C40.9063 21.5522 44.1859 15.5428 43.536 15.0628C43.0361 14.6829 34.6969 21.0322 34.6969 21.0322C34.6969 21.0322 31.9772 17.3826 27.0777 15.1928L26.7378 14.9929C26.7378 14.9929 29.3675 12.7231 29.2375 12.3331C29.1075 11.9432 26.5578 10.7333 22.4382 11.0533C18.7186 11.3232 16.2189 13.513 14.639 15.0128C8.13973 17.3626 3.97016 22.1821 4.00016 22.812C4.03016 23.442 6.27992 24.0919 6.27992 24.6118C6.27992 25.0618 3.93017 26.1117 4.74008 26.5716C4.74008 26.5716 11.9393 32.671 19.1386 32.471C19.8268 33.283 20.5756 34.0418 21.3783 34.7408C23.1081 36.1006 25.9579 37.3405 26.3578 36.9905C26.5578 36.8306 25.6279 33.8709 24.798 31.7711C30.7973 29.9713 35.2169 25.7917 35.2169 25.7917C35.2169 25.7917 43.266 29.0614 43.916 28.6914C44.5759 28.1915 41.1363 22.992 41.0163 22.3221" fill="#191A1B"/>
</svg>
