<svg width="48" height="48" viewBox="0 0 48 48" fill="none" xmlns="http://www.w3.org/2000/svg">
<path d="M21.6015 34.8494L30.9015 21.4494H24.4602L28.7363 8.29721H15.8841V26.4668H21.6015V34.8494ZM35.4516 21.8298L20.7363 43.082C20.5078 43.3869 20.2489 43.5748 19.9595 43.6455C19.6701 43.7162 19.3822 43.7062 19.0956 43.6155C18.7903 43.506 18.5374 43.3374 18.3369 43.1099C18.1365 42.8824 18.0363 42.5905 18.0363 42.2342V30.4277H15.5167C14.5285 30.4277 13.6825 30.0758 12.9788 29.3721C12.2751 28.6684 11.9232 27.8224 11.9232 26.8342V8.29721C11.9232 7.18088 12.3112 6.23693 13.0871 5.46536C13.863 4.6938 14.7954 4.30801 15.8841 4.30801H29.6711C30.6939 4.30801 31.5561 4.7247 32.2577 5.55806C32.9594 6.3914 33.1277 7.30445 32.7624 8.29721L29.8733 17.4602H33.3472C34.4879 17.4602 35.2996 17.9355 35.7821 18.8863C36.2647 19.837 36.1545 20.8182 35.4516 21.8298Z" fill="#191A1B"/>
</svg>
