<svg width="48" height="48" viewBox="0 0 48 48" fill="none" xmlns="http://www.w3.org/2000/svg">
<path d="M19.0901 43.6221C18.7814 43.5178 18.5285 43.3504 18.3314 43.1199C18.1343 42.8895 18.0357 42.5939 18.0357 42.233V30.4265H15.5162C14.5133 30.4265 13.6636 30.0783 12.9672 29.3819C12.2709 28.6855 11.9227 27.8359 11.9227 26.833V8.29599C11.9227 7.18003 12.3086 6.23617 13.0803 5.46444C13.8521 4.69267 14.7865 4.30679 15.8836 4.30679H29.6705C30.701 4.30679 31.5651 4.72348 32.2629 5.55684C32.9608 6.39018 33.1271 7.30323 32.7619 8.29599L29.8728 17.4589H33.3467C34.4916 17.4589 35.3043 17.9343 35.7847 18.885C36.2652 19.8358 36.1539 20.8169 35.451 21.8285L20.7357 43.0808C20.5126 43.3895 20.255 43.5783 19.9629 43.6471C19.6709 43.716 19.38 43.7076 19.0901 43.6221Z" fill="#191A1B"/>
</svg>
