<svg width="48" height="48" viewBox="0 0 48 48" fill="none" xmlns="http://www.w3.org/2000/svg">
<path d="M35.1229 7.09024L32.2338 16.2532H35.7077C36.8484 16.2532 37.66 16.7286 38.1426 17.6793C38.6251 18.63 38.5149 19.6112 37.812 20.6228L34.749 25.0706C34.3739 25.5709 33.8765 25.8551 33.2568 25.923C32.637 25.991 32.115 25.7994 31.6906 25.3483C31.3642 25.0299 31.1739 24.6851 31.1196 24.3141C31.0652 23.9431 31.0909 23.5982 31.1967 23.2793L33.262 20.2424H29.4989C28.7885 20.2424 28.2381 19.9576 27.8476 19.388C27.4572 18.8184 27.3924 18.2155 27.6533 17.5793L31.0967 7.09024H16.2641C15.7072 7.09024 15.2379 6.89854 14.8562 6.51514C14.4745 6.13178 14.2837 5.66122 14.2837 5.10349C14.2837 4.54576 14.4745 4.07259 14.8562 3.68399C15.2379 3.29536 15.7072 3.10104 16.2641 3.10104H32.0315C33.0543 3.10104 33.9165 3.51773 34.6182 4.35109C35.3199 5.18443 35.4881 6.09748 35.1229 7.09024ZM41.3296 44.397L29.4924 32.6098L23.0967 41.875C22.8683 42.18 22.6093 42.3678 22.3199 42.4385C22.0306 42.5093 21.7426 42.4993 21.4561 42.4085C21.1507 42.299 20.8978 42.1305 20.6974 41.9029C20.4969 41.6754 20.3967 41.3835 20.3967 41.0272V29.2207H17.8772C16.8889 29.2207 16.043 28.8689 15.3392 28.1651C14.6355 27.4614 14.2837 26.6154 14.2837 25.6272V17.401L4.32718 7.44454C4.00831 7.12098 3.84416 6.73319 3.83473 6.28119C3.82533 5.82923 3.99133 5.43439 4.33273 5.09669C4.66623 4.75903 5.06224 4.59019 5.52078 4.59019C5.97934 4.59019 6.3735 4.75903 6.70323 5.09669L43.6729 42.0663C43.9917 42.3886 44.1558 42.7724 44.1653 43.2178C44.1747 43.6632 44.0087 44.0547 43.6673 44.3924C43.3258 44.7301 42.9345 44.8989 42.4933 44.8989C42.0522 44.8989 41.6642 44.7317 41.3296 44.397Z" fill="#191A1B"/>
</svg>
