<svg width="48" height="48" viewBox="0 0 48 48" fill="none" xmlns="http://www.w3.org/2000/svg">
<path d="M31.674 25.3554L16.324 10.0054C15.9052 9.58657 15.5994 9.12606 15.4066 8.62389C15.2139 8.12173 15.1175 7.61123 15.1175 7.09239C15.1175 6.08803 15.4566 5.17171 16.1349 4.34344C16.8131 3.51518 17.7544 3.10104 18.9588 3.10104H32.0196C33.1211 3.10104 34.003 3.51773 34.6653 4.35109C35.3277 5.18443 35.4762 6.09748 35.111 7.09024L32.2219 16.2532H35.6958C36.7654 16.2532 37.5498 16.7474 38.049 17.7358C38.5483 18.7242 38.4654 19.6866 37.8001 20.6228L34.7371 25.0706C34.3762 25.5692 33.8824 25.8482 33.2555 25.9076C32.6287 25.967 32.1015 25.783 31.674 25.3554ZM41.3131 44.3924L29.4805 32.6098L23.0848 41.875C22.895 42.1504 22.6457 42.3356 22.337 42.4305C22.0283 42.5254 21.7291 42.5207 21.4392 42.4164C21.1305 42.312 20.8776 42.1399 20.6805 41.9C20.4834 41.6602 20.3848 41.3693 20.3848 41.0272V29.2207H17.8653C16.8624 29.2207 16.0127 28.8725 15.3163 28.1761C14.62 27.4798 14.2718 26.6301 14.2718 25.6272V17.401L4.31529 7.44454C3.99642 7.12571 3.84532 6.73441 3.86199 6.27064C3.87866 5.80684 4.04641 5.41553 4.36524 5.09669C4.70291 4.75903 5.09892 4.59019 5.55329 4.59019C6.00766 4.59019 6.40367 4.75903 6.74134 5.09669L43.661 42.0663C43.9798 42.3852 44.1392 42.7728 44.1392 43.2293C44.1392 43.6859 43.9798 44.0736 43.661 44.3924C43.3233 44.7301 42.932 44.8989 42.487 44.8989C42.0421 44.8989 41.6508 44.7301 41.3131 44.3924Z" fill="#191A1B"/>
</svg>
