<svg width="48" height="48" viewBox="0 0 48 48" fill="none" xmlns="http://www.w3.org/2000/svg">
<path fill-rule="evenodd" clip-rule="evenodd" d="M24 44C35.0457 44 44 35.0457 44 24C44 12.9543 35.0457 4 24 4C12.9543 4 4 12.9543 4 24C4 35.0457 12.9543 44 24 44ZM30.185 25.2249C30.0957 24.8411 30.051 24.4484 30.051 24.0468C30.051 23.6274 30.0957 23.2213 30.185 22.8286C30.283 22.436 30.4347 22.0879 30.64 21.7845C30.8452 21.4721 31.113 21.2267 31.4432 21.0482C31.7735 20.8608 32.1753 20.7671 32.6483 20.7671C33.1213 20.7671 33.5228 20.8608 33.853 21.0482C34.1833 21.2267 34.451 21.4721 34.6562 21.7845C34.8615 22.0879 35.0088 22.436 35.098 22.8286C35.196 23.2213 35.2453 23.6274 35.2453 24.0468C35.2453 24.4484 35.196 24.8411 35.098 25.2249C35.0088 25.5997 34.8615 25.9389 34.6562 26.2423C34.451 26.5457 34.1833 26.7912 33.853 26.9786C33.5228 27.1571 33.1213 27.2463 32.6483 27.2463C32.1753 27.2463 31.7735 27.1571 31.4432 26.9786C31.113 26.7912 30.8452 26.5457 30.64 26.2423C30.4347 25.9389 30.283 25.5997 30.185 25.2249ZM28.2706 22.0656C28.0564 22.6725 27.9493 23.3329 27.9493 24.0468C27.9493 24.743 28.0564 25.3945 28.2706 26.0014C28.4848 26.5993 28.7927 27.1214 29.1942 27.5676C29.596 28.0138 30.0868 28.3664 30.6668 28.6252C31.256 28.875 31.9163 29 32.6483 29C33.3888 29 34.0492 28.875 34.6295 28.6252C35.2095 28.3664 35.7003 28.0138 36.102 27.5676C36.5035 27.1214 36.8115 26.5993 37.0257 26.0014C37.2397 25.3945 37.347 24.743 37.347 24.0468C37.347 23.3329 37.2397 22.6725 37.0257 22.0656C36.8115 21.4498 36.5035 20.9143 36.102 20.4592C35.7003 20.004 35.2095 19.647 34.6295 19.3882C34.0492 19.1294 33.3888 19 32.6483 19C31.9163 19 31.256 19.1294 30.6668 19.3882C30.0868 19.647 29.596 20.004 29.1942 20.4592C28.7927 20.9143 28.4848 21.4498 28.2706 22.0656ZM11.5 19.2276H18.2202V20.9946H13.6017V23.2035H17.6044V24.8367H13.6017V28.7858H11.5V19.2276ZM21.5371 23.7256H23.1703C23.4113 23.7256 23.6433 23.7077 23.8664 23.672C24.0896 23.6363 24.2859 23.5694 24.4555 23.4712C24.625 23.3641 24.7589 23.2169 24.8571 23.0294C24.9642 22.842 25.0177 22.5966 25.0177 22.2932C25.0177 21.9897 24.9642 21.7443 24.8571 21.5569C24.7589 21.3695 24.625 21.2267 24.4555 21.1285C24.2859 21.0214 24.0896 20.95 23.8664 20.9143C23.6433 20.8786 23.4113 20.8608 23.1703 20.8608H21.5371V23.7256ZM19.4354 19.2276H23.746C24.3439 19.2276 24.8526 19.3168 25.2721 19.4953C25.6915 19.6649 26.0306 19.8925 26.2895 20.1781C26.5572 20.4636 26.7491 20.7894 26.8651 21.1553C26.9901 21.5212 27.0525 21.9005 27.0525 22.2932C27.0525 22.6769 26.9901 23.0562 26.8651 23.431C26.7491 23.797 26.5572 24.1227 26.2895 24.4083C26.0306 24.6939 25.6915 24.9259 25.2721 25.1044C24.8526 25.274 24.3439 25.3588 23.746 25.3588H21.5371V28.7858H19.4354V19.2276Z" fill="#191A1B"/>
</svg>
