<svg width="48" height="48" viewBox="0 0 48 48" fill="none" xmlns="http://www.w3.org/2000/svg">
<path d="M23.9859 44.7206C21.0917 44.7206 18.3855 44.1815 15.8674 43.1032C13.3493 42.025 11.1572 40.5482 9.29126 38.6728C7.42532 36.7974 5.95684 34.5924 4.88581 32.0576C3.81484 29.5228 3.27936 26.8083 3.27936 23.9141C3.27936 21.0199 3.81486 18.3174 4.88586 15.8065C5.95689 13.2956 7.42537 11.1119 9.29131 9.2554C11.1573 7.39886 13.3493 5.93871 15.8674 4.87495C18.3855 3.81118 21.0917 3.2793 23.9859 3.2793C26.8801 3.2793 29.5863 3.81118 32.1044 4.87495C34.6225 5.93871 36.8145 7.39886 38.6805 9.2554C40.5464 11.1119 42.0196 13.2956 43.1001 15.8065C44.1805 18.3174 44.7207 21.0199 44.7207 23.9141C44.7207 26.8083 44.1804 29.5228 43.1 32.0576C42.0196 34.5924 40.5464 36.7974 38.6805 38.6728C36.8145 40.5482 34.6225 42.025 32.1044 43.1033C29.5862 44.1815 26.8801 44.7206 23.9859 44.7206ZM23.9576 40.888C25.0677 39.7068 26.0098 38.3507 26.7837 36.8195C27.5576 35.2884 28.204 33.4561 28.7228 31.3228H19.2989C19.7467 33.3228 20.3576 35.1134 21.1315 36.6945C21.9054 38.2757 22.8474 39.6735 23.9576 40.888ZM19.7924 40.288C18.9402 39.059 18.2282 37.7112 17.6565 36.2445C17.0848 34.7779 16.5989 33.1373 16.1989 31.3228H8.81196C10.0409 33.6706 11.4793 35.5101 13.1272 36.8412C14.775 38.1724 16.9967 39.3213 19.7924 40.288ZM28.1728 40.238C30.5351 39.4902 32.6652 38.3543 34.563 36.8304C36.4608 35.3065 37.9837 33.4706 39.1315 31.3228H31.8228C31.3895 33.104 30.8859 34.7279 30.312 36.1945C29.738 37.6612 29.025 39.009 28.1728 40.238ZM7.84021 28.4076H15.6489C15.5489 27.5076 15.4906 26.704 15.4739 25.9967C15.4572 25.2895 15.4489 24.5953 15.4489 23.9141C15.4489 23.0808 15.4656 22.3485 15.4989 21.7173C15.5322 21.0862 15.5989 20.3706 15.6989 19.5706H7.84021C7.60687 20.3706 7.44854 21.0778 7.36521 21.6923C7.28187 22.3068 7.24021 23.0474 7.24021 23.9141C7.24021 24.7619 7.28187 25.5228 7.36521 26.1967C7.44854 26.8706 7.60687 27.6076 7.84021 28.4076ZM18.7489 28.4076H29.2728C29.3873 27.3743 29.4565 26.5373 29.4804 25.8967C29.5043 25.2561 29.5163 24.5953 29.5163 23.9141C29.5163 23.2474 29.5043 22.6152 29.4804 22.0173C29.4565 21.4195 29.3873 20.6039 29.2728 19.5706H18.7489C18.6156 20.6039 18.5322 21.4195 18.4989 22.0173C18.4656 22.6152 18.4489 23.2474 18.4489 23.9141C18.4489 24.5953 18.4656 25.2561 18.4989 25.8967C18.5322 26.5373 18.6156 27.3743 18.7489 28.4076ZM32.2728 28.4076H40.1033C40.3177 27.6076 40.4713 26.8706 40.5641 26.1967C40.6569 25.5228 40.7033 24.7619 40.7033 23.9141C40.7033 23.0474 40.6569 22.3068 40.5641 21.6923C40.4713 21.0778 40.3177 20.3706 40.1033 19.5706H32.3228C32.3851 20.7561 32.433 21.6431 32.4663 22.2315C32.4996 22.8199 32.5163 23.3808 32.5163 23.9141C32.5163 24.6286 32.4913 25.3061 32.4413 25.9467C32.3913 26.5873 32.3351 27.4076 32.2728 28.4076ZM31.7728 16.6271H39.1315C38.0503 14.3648 36.5608 12.4717 34.663 10.9478C32.7652 9.4239 30.5851 8.35469 28.1228 7.74019C28.975 8.95469 29.688 10.2739 30.262 11.6978C30.8359 13.1217 31.3395 14.7648 31.7728 16.6271ZM19.2989 16.6271H28.7728C28.425 14.8981 27.8177 13.2086 26.9511 11.5586C26.0844 9.90865 25.0866 8.46916 23.9576 7.24019C22.9474 8.12136 22.0804 9.28585 21.3565 10.7336C20.6326 12.1815 19.9467 14.146 19.2989 16.6271ZM8.81196 16.6271H16.2489C16.6156 14.8648 17.0681 13.28 17.6065 11.8728C18.1449 10.4656 18.8569 9.1047 19.7424 7.79019C17.2612 8.4047 15.1015 9.45251 13.2631 10.9336C11.4246 12.4148 9.94092 14.3126 8.81196 16.6271Z" fill="#191A1B"/>
</svg>
