<svg width="48" height="48" viewBox="0 0 48 48" fill="none" xmlns="http://www.w3.org/2000/svg">
<path d="M31.5913 25.9217L28.4586 22.8173C29.2311 20.9594 28.9177 19.4544 27.5185 18.3022C26.1192 17.15 24.6971 16.9196 23.2523 17.6109L20.3174 14.6478C20.8464 14.3377 21.4326 14.1087 22.0761 13.9609C22.7196 13.8131 23.3609 13.7391 24 13.7391C26.3667 13.7391 28.375 14.5641 30.025 16.2141C31.675 17.8641 32.5 19.8725 32.5 22.2391C32.5 22.8594 32.4225 23.5138 32.2674 24.2022C32.1123 24.8906 31.887 25.4638 31.5913 25.9217ZM38.5783 32.9652L36.1544 30.5131C37.6935 29.3319 39.0337 28.0232 40.175 26.5869C41.3163 25.1507 42.1986 23.7015 42.8218 22.2391C41.1174 18.558 38.6127 15.6377 35.3076 13.4783C32.0025 11.3189 28.4 10.2391 24.5 10.2391C23.1 10.2391 21.7043 10.3631 20.313 10.6109C18.9217 10.8587 17.8659 11.1471 17.1456 11.4761L14.2805 8.5891C15.4471 8.05576 16.967 7.5891 18.8402 7.1891C20.7134 6.7891 22.5167 6.5891 24.25 6.5891C28.7877 6.5891 33.0083 7.83186 36.912 10.3174C40.8156 12.8029 43.8239 16.2232 45.937 20.5782C46.0558 20.8014 46.1366 21.058 46.1794 21.3478C46.2221 21.6377 46.2435 21.9348 46.2435 22.2391C46.2435 22.5435 46.2221 22.8489 46.1794 23.1554C46.1366 23.462 46.0558 23.7174 45.937 23.9217C45.0515 25.7362 43.9848 27.4102 42.737 28.9435C41.4892 30.4768 40.1029 31.8174 38.5783 32.9652ZM39.3326 43.0804L32.5413 36.4109C31.3746 36.8776 30.0485 37.2406 28.563 37.5C27.0775 37.7595 25.5565 37.8892 24 37.8892C19.3435 37.8892 15.0562 36.6417 11.1381 34.1468C7.21992 31.6519 4.19492 28.2268 2.06305 23.8717C1.94418 23.6341 1.86337 23.3786 1.8206 23.1054C1.77787 22.8322 1.7565 22.5435 1.7565 22.2391C1.7565 21.9348 1.7862 21.6247 1.8456 21.3087C1.90503 20.9928 1.9775 20.7326 2.063 20.5282C2.763 19.0848 3.64525 17.6641 4.70975 16.2663C5.77425 14.8685 7.01157 13.5268 8.4217 12.2413L3.3978 7.2174C3.06013 6.89856 2.8913 6.5156 2.8913 6.0685C2.8913 5.6214 3.06013 5.23843 3.3978 4.9196C3.71663 4.5819 4.10793 4.41305 4.5717 4.41305C5.0355 4.41305 5.43623 4.5819 5.7739 4.9196L41.6587 40.8044C41.963 41.1087 42.1058 41.4761 42.087 41.9066C42.0681 42.337 41.9254 42.7116 41.6587 43.0304C41.3543 43.4014 40.9703 43.5869 40.5065 43.5869C40.0427 43.5869 39.6514 43.4181 39.3326 43.0804ZM10.9522 14.7652C9.73768 15.7029 8.59783 16.8627 7.5326 18.2446C6.4674 19.6265 5.67537 20.958 5.1565 22.2391C6.87537 25.9391 9.429 28.8641 12.8174 31.0141C16.2058 33.1641 20.0667 34.2391 24.4 34.2391C25.387 34.2391 26.3808 34.1819 27.3815 34.0674C28.3822 33.9529 29.1493 33.7623 29.6826 33.4956L26.4826 30.2956C26.1725 30.4435 25.7837 30.5544 25.3163 30.6283C24.8489 30.7022 24.4101 30.7391 24 30.7391C21.6667 30.7391 19.6667 29.9225 18 28.2891C16.3333 26.6558 15.5 24.6391 15.5 22.2391C15.5 21.8145 15.5323 21.3805 15.5968 20.937C15.6613 20.4935 15.758 20.1 15.887 19.7565L10.9522 14.7652Z" fill="#191A1B"/>
</svg>
