<svg width="48" height="48" viewBox="0 0 48 48" fill="none" xmlns="http://www.w3.org/2000/svg">
<path d="M11.2402 38.3565H18.0054V27.6109C18.0054 27.054 18.1963 26.5847 18.578 26.203C18.9597 25.8213 19.429 25.6304 19.9859 25.6304H27.9859C28.5428 25.6304 29.0121 25.8213 29.3938 26.203C29.7755 26.5847 29.9663 27.054 29.9663 27.6109V38.3565H36.7315V19.2333L23.9859 9.67177L11.2402 19.2333V38.3565ZM7.27933 38.3565V19.2239C7.27933 18.6022 7.41546 18.0132 7.68773 17.457C7.95999 16.9007 8.34633 16.4354 8.84673 16.0608L21.5924 6.48042C22.2846 5.94852 23.0798 5.68257 23.9779 5.68257C24.876 5.68257 25.6765 5.94852 26.3794 6.48042L39.125 16.0608C39.6343 16.4354 40.0275 16.9007 40.3048 17.457C40.582 18.0132 40.7207 18.6022 40.7207 19.2239V38.3565C40.7207 39.4651 40.3349 40.4024 39.5634 41.1684C38.7918 41.9344 37.8479 42.3174 36.7315 42.3174H28.2968C27.7399 42.3174 27.2706 42.1266 26.8889 41.7449C26.5072 41.3632 26.3163 40.8939 26.3163 40.337V29.2804H21.6554V40.337C21.6554 40.8939 21.4646 41.3632 21.0829 41.7449C20.7012 42.1266 20.2319 42.3174 19.675 42.3174H11.2402C10.1317 42.3174 9.19438 41.9344 8.42838 41.1684C7.66234 40.4024 7.27933 39.4651 7.27933 38.3565Z" fill="#191A1B"/>
</svg>
