<svg width="48" height="48" viewBox="0 0 48 48" fill="none" xmlns="http://www.w3.org/2000/svg">
<path d="M6.72501 38.15V19.3C6.72501 18.5583 6.88126 17.8583 7.19376 17.2C7.50626 16.5417 7.96667 15.9917 8.57501 15.55L21.125 6.09999C21.9477 5.46666 22.895 5.14999 23.967 5.14999C25.039 5.14999 25.9917 5.46666 26.825 6.09999L39.375 15.55C39.9833 15.9917 40.4521 16.5417 40.7813 17.2C41.1104 17.8583 41.275 18.5583 41.275 19.3V38.15C41.275 39.475 40.8146 40.5896 39.8938 41.4937C38.9729 42.3979 37.85 42.85 36.525 42.85H30.625C29.9667 42.85 29.4104 42.6229 28.9563 42.1687C28.5021 41.7146 28.275 41.1583 28.275 40.5V29.65C28.275 28.9917 28.0479 28.4354 27.5938 27.9812C27.1396 27.5271 26.5833 27.3 25.925 27.3H22.025C21.3667 27.3 20.8104 27.5271 20.3563 27.9812C19.9021 28.4354 19.675 28.9917 19.675 29.65V40.5C19.675 41.1583 19.4479 41.7146 18.9938 42.1687C18.5396 42.6229 17.9833 42.85 17.325 42.85H11.425C10.1 42.85 8.98542 42.3979 8.08126 41.4937C7.17709 40.5896 6.72501 39.475 6.72501 38.15Z" fill="#191A1B"/>
</svg>
