<svg width="48" height="48" viewBox="0 0 48 48" fill="none" xmlns="http://www.w3.org/2000/svg">
<path d="M24.1232 34.575C24.7036 34.575 25.1906 34.3785 25.5844 33.9856C25.9781 33.5927 26.175 33.1058 26.175 32.525V24.075C26.175 23.4942 25.9787 23.0073 25.5861 22.6144C25.1936 22.2215 24.7071 22.025 24.1267 22.025C23.5464 22.025 23.0594 22.2215 22.6656 22.6144C22.2719 23.0073 22.075 23.4942 22.075 24.075V32.525C22.075 33.1058 22.2713 33.5927 22.6638 33.9856C23.0564 34.3785 23.5429 34.575 24.1232 34.575ZM23.9785 19.075C24.6595 19.075 25.2292 18.8498 25.6875 18.3993C26.1458 17.9489 26.375 17.3908 26.375 16.725C26.375 15.9933 26.1451 15.4021 25.6852 14.9513C25.2254 14.5004 24.6556 14.275 23.9759 14.275C23.2586 14.275 22.6792 14.5004 22.2375 14.9513C21.7958 15.4021 21.575 15.985 21.575 16.7C21.575 17.3867 21.8053 17.9542 22.266 18.4025C22.7267 18.8508 23.2975 19.075 23.9785 19.075ZM23.9952 45.275C21.0328 45.275 18.264 44.7236 15.6889 43.6208C13.1138 42.518 10.8608 41.0012 8.9298 39.0702C6.99883 37.1392 5.48197 34.8873 4.3792 32.3143C3.2764 29.7412 2.725 26.9721 2.725 24.0069C2.725 21.0417 3.2764 18.2703 4.3792 15.6926C5.48197 13.115 6.99621 10.8682 8.92195 8.9522C10.8477 7.03613 13.0983 5.51925 15.6737 4.40155C18.2492 3.28385 21.0209 2.725 23.9889 2.725C26.9569 2.725 29.7317 3.28256 32.3132 4.3977C34.8948 5.5128 37.1423 7.02616 39.0559 8.9378C40.9695 10.8494 42.4844 13.0974 43.6007 15.6816C44.7169 18.2659 45.275 21.0426 45.275 24.0117C45.275 26.9787 44.7161 29.7495 43.5984 32.324C42.4808 34.8986 40.9639 37.1463 39.0478 39.0671C37.1318 40.9878 34.8846 42.5027 32.3062 43.6116C29.7279 44.7205 26.9576 45.275 23.9952 45.275Z" fill="#191A1B"/>
</svg>
