<svg width="48" height="48" viewBox="0 0 48 48" fill="none" xmlns="http://www.w3.org/2000/svg">
<path d="M24.0117 7.60227C29.3586 7.60227 29.9918 7.62571 32.0946 7.71948C34.0489 7.80543 35.1042 8.13362 35.8077 8.40711C36.7379 8.76656 37.4102 9.20414 38.1059 9.89959C38.8095 10.6029 39.2394 11.267 39.599 12.1969C39.8726 12.9002 40.2009 13.9629 40.2869 15.9086C40.3807 18.0184 40.4041 18.6513 40.4041 23.9883C40.4041 29.3331 40.3807 29.966 40.2869 32.068C40.2009 34.0215 39.8726 35.0764 39.599 35.7796C39.2394 36.7095 38.8016 37.3815 38.1059 38.077C37.4024 38.7802 36.7379 39.21 35.8077 39.5695C35.1042 39.8429 34.041 40.1711 32.0946 40.2571C29.984 40.3509 29.3508 40.3743 24.0117 40.3743C18.6648 40.3743 18.0317 40.3509 15.9289 40.2571C13.9746 40.1711 12.9193 39.8429 12.2158 39.5695C11.2855 39.21 10.6132 38.7724 9.91753 38.077C9.21399 37.3737 8.78405 36.7095 8.42447 35.7796C8.15087 35.0764 7.82255 34.0137 7.73656 32.068C7.64276 29.9582 7.61931 29.3253 7.61931 23.9883C7.61931 18.6435 7.64276 18.0105 7.73656 15.9086C7.82255 13.9551 8.15087 12.9002 8.42447 12.1969C8.78405 11.267 9.22181 10.595 9.91753 9.89959C10.6211 9.19633 11.2855 8.76656 12.2158 8.40711C12.9193 8.13362 13.9824 7.80543 15.9289 7.71948C18.0317 7.62571 18.6648 7.60227 24.0117 7.60227ZM24.0117 4C18.5789 4 17.8988 4.02344 15.7647 4.11721C13.6385 4.21098 12.1767 4.5548 10.9103 5.04708C9.58921 5.56281 8.47137 6.24263 7.36134 7.36003C6.2435 8.46962 5.56342 9.58703 5.04749 10.8998C4.55501 12.1735 4.21106 13.6269 4.11726 15.7523C4.02345 17.8933 4 18.5732 4 24.0039C4 29.4347 4.02345 30.1145 4.11726 32.2477C4.21106 34.3731 4.55501 35.8343 5.04749 37.1002C5.56342 38.4208 6.2435 39.5382 7.36134 40.6478C8.47137 41.7574 9.58921 42.445 10.9025 42.9529C12.1767 43.4452 13.6306 43.789 15.7569 43.8828C17.891 43.9766 18.571 44 24.0039 44C29.4368 44 30.1169 43.9766 32.2509 43.8828C34.3772 43.789 35.839 43.4452 37.1053 42.9529C38.4186 42.445 39.5364 41.7574 40.6465 40.6478C41.7565 39.5382 42.4444 38.4208 42.9525 37.108C43.445 35.8343 43.7889 34.3809 43.8827 32.2555C43.9765 30.1223 44 29.4425 44 24.0117C44 18.581 43.9765 17.9012 43.8827 15.7679C43.7889 13.6425 43.445 12.1813 42.9525 10.9154C42.46 9.58703 41.7799 8.46962 40.6621 7.36003C39.5521 6.25044 38.4342 5.56281 37.121 5.05489C35.8468 4.56261 34.3928 4.21879 32.2666 4.12502C30.1247 4.02344 29.4446 4 24.0117 4Z" fill="#191A1B"/>
<path d="M24.0117 13.7285C18.3365 13.7285 13.7323 18.3309 13.7323 24.0039C13.7323 29.6769 18.3365 34.2794 24.0117 34.2794C29.6869 34.2794 34.2912 29.6769 34.2912 24.0039C34.2912 18.3309 29.6869 13.7285 24.0117 13.7285ZM24.0117 30.6693C20.3299 30.6693 17.3438 27.6843 17.3438 24.0039C17.3438 20.3235 20.3299 17.3385 24.0117 17.3385C27.6936 17.3385 30.6797 20.3235 30.6797 24.0039C30.6797 27.6843 27.6936 30.6693 24.0117 30.6693Z" fill="#191A1B"/>
<path d="M37.0975 13.3216C37.0975 14.6497 36.0188 15.72 34.6977 15.72C33.3688 15.72 32.2978 14.6419 32.2978 13.3216C32.2978 11.9934 33.3766 10.9231 34.6977 10.9231C36.0188 10.9231 37.0975 12.0013 37.0975 13.3216Z" fill="#191A1B"/>
</svg>
