<svg width="48" height="48" viewBox="0 0 48 48" fill="none" xmlns="http://www.w3.org/2000/svg">
<path fill-rule="evenodd" clip-rule="evenodd" d="M38.5387 12.2577C37.6759 14.8337 36.4965 18.5507 34.8066 25.1162L33.7195 29.4469C33.5857 29.9937 33.4501 30.5493 33.3126 31.126C32.8529 33.0338 32.0183 35.993 31.747 37.0691C31.3325 38.7659 30.8521 39.7611 29.0039 40.285C29.0039 40.285 28.0412 40.591 26.8806 40.4292C24.373 40.0846 24.2544 38.2067 23.838 36.6893C23.2031 34.3684 22.5267 28.689 22.4401 25.3905C22.4307 25.0529 22.4231 24.7171 22.4156 24.3795C22.4099 24.2687 22.4062 24.1579 22.4005 24.0489C22.3967 23.8731 22.3817 23.7992 22.3666 23.7482C22.3383 23.6462 22.2686 23.6111 22.1481 23.6392C22.0294 23.6673 21.9389 23.7939 21.7543 24.2669C21.4453 25.1971 20.8669 26.9923 20.4261 28.5976C19.6537 31.2948 18.7512 34.4018 18.3537 36.1565C17.9053 37.7988 17.455 39.4428 17.0085 41.0851C16.6581 42.5603 15.0699 43.4957 14.0205 43.7524C12.877 44.0302 12.21 44.0794 11.3415 43.8737C10.1734 43.5977 9.49708 42.2192 9.15419 40.9796C8.96203 40.2868 8.60407 38.998 8.46842 37.419C8.2009 34.2804 8.08597 32.0755 8.1764 28.9C8.28002 25.2252 8.66436 19.8501 8.91869 16.868C8.96391 15.8781 9.00913 14.8899 9.05246 13.9C9.05623 12.7993 8.98652 12.1153 8.84145 11.623C8.71711 11.2045 8.55885 10.9707 8.25176 10.5557C8.14814 10.415 8.04264 10.3219 8.01438 10.2252C7.8354 9.58337 9.34824 8.4141 11.3716 7.98508C12.6264 7.71782 13.7172 7.66331 14.6083 8.39652C15.1792 8.99962 15.2677 9.58689 15.2338 10.8071C15.2206 11.2186 15.1641 11.8234 15.1095 12.4019C14.9512 14.3167 14.4237 17.6628 14.2673 19.5775C13.9942 22.2291 13.7116 25.1953 13.6419 27.9259C13.6079 29.2658 13.591 31.8065 13.7003 32.2039C13.7568 32.4043 13.8547 32.5397 14.0318 32.494C14.207 32.4465 14.2994 32.3164 14.5612 31.6606C14.6347 31.3933 14.7063 31.1243 14.7798 30.857C14.8533 30.588 14.9267 30.3207 15.0002 30.0517C15.0002 30.0517 16.1871 26.1747 17.1932 23.0062C18.267 19.9503 19.3484 16.7994 20.0606 15.0253C21.1175 12.409 21.6563 10.4889 23.4857 10.0546C25.3188 9.62381 26.9974 10.3764 27.3441 11.6406C27.5212 12.2947 27.5268 12.7061 27.4496 15.2592C27.3177 19.7288 27.6229 23.2612 27.7378 26.6688C27.8302 28.151 27.9564 29.3045 28.109 29.8618C28.1787 30.115 28.3257 30.1906 28.4443 30.166C28.6798 30.1168 28.7552 29.9392 28.9022 29.3185C28.9643 29.0196 29.0284 28.7189 29.0943 28.42C29.5239 26.4261 29.9553 24.4304 30.3867 22.4365C31.3871 18.0619 32.0861 15.4825 33.3163 11.4313C34.7802 6.6224 35.8597 4.43859 37.6966 4.0588C39.4299 3.70187 40.4039 5.0329 40.4962 6.34986C40.532 6.79999 40.3116 7.77408 39.9442 8.48619C39.477 9.74338 39.0079 11.0006 38.5387 12.2577Z" fill="#191A1B"/>
</svg>
