<svg width="48" height="48" viewBox="0 0 48 48" fill="none" xmlns="http://www.w3.org/2000/svg">
<path fill-rule="evenodd" clip-rule="evenodd" d="M37.6934 11.0134C37.8267 10.6541 37.9603 10.296 38.0935 9.93926C38.3282 9.31028 38.5616 8.68456 38.7915 8.05711L38.8172 7.98688L38.8511 7.92021C38.981 7.66493 39.0983 7.33525 39.1774 7.01741C39.2162 6.86156 39.2423 6.72284 39.2566 6.61196C39.2692 6.51485 39.2695 6.46445 39.2696 6.45363C39.2694 6.45166 39.2696 6.45099 39.2696 6.45363L39.2689 6.44234L39.2682 6.432C39.2414 6.03085 39.0783 5.67994 38.8682 5.47816C38.701 5.3176 38.4449 5.18544 37.9701 5.28449L37.9648 5.2856C37.5415 5.37197 37.0591 5.66716 36.4639 6.70411C35.8562 7.76258 35.2524 9.38563 34.5218 11.7771C33.3049 15.8005 32.6123 18.3479 31.6202 22.688C31.4077 23.6878 31.1921 24.6842 30.9772 25.6781C30.7616 26.6749 30.5465 27.6692 30.3346 28.6661C30.3344 28.667 30.3343 28.6679 30.3341 28.6687L30.1437 29.5827L30.1393 29.6011C30.0723 29.8801 29.9849 30.2398 29.8322 30.5309C29.7412 30.7045 29.601 30.9089 29.3788 31.0814C29.1515 31.2578 28.9144 31.342 28.7182 31.3833L28.7058 31.3859C28.2929 31.4685 27.8524 31.374 27.498 31.0942C27.1728 30.8374 27.0086 30.4973 26.9251 30.2188L26.9236 30.2138C26.7133 29.5022 26.5852 28.205 26.4993 26.7439L26.4984 26.7278L26.4978 26.7117C26.4673 25.7848 26.4207 24.835 26.3724 23.8494C26.247 21.288 26.1096 18.4848 26.2101 15.2144L26.2102 15.21C26.2996 12.6071 26.2686 12.3961 26.154 11.9695C26.1038 11.7931 25.9298 11.5452 25.4996 11.3636C25.0734 11.1837 24.4681 11.1103 23.7828 11.2677C23.3287 11.3778 22.9782 11.6541 22.5809 12.3459C22.2525 12.9179 21.9768 13.6148 21.6211 14.5142C21.5009 14.8181 21.3716 15.145 21.228 15.498C20.6964 16.8132 19.957 18.9294 19.1551 21.2243C18.9053 21.9392 18.6494 22.6714 18.3919 23.4021C17.8944 24.9819 17.3509 26.7336 16.9309 28.0932C16.72 28.7757 16.5404 29.3591 16.4136 29.7717L16.2161 30.4146C16.1437 30.6679 16.0735 30.914 16.0035 31.17C15.936 31.4518 15.8573 31.7393 15.7817 32.0038L15.7647 32.0634L15.7419 32.1209C15.6174 32.4351 15.4896 32.7436 15.3389 32.9804C15.2527 33.1157 15.1288 33.2783 14.9472 33.4214C14.7538 33.5739 14.5585 33.6546 14.3976 33.7006L14.3869 33.7036L14.3762 33.7065C14.1663 33.7625 13.9055 33.7859 13.6245 33.7149C13.3391 33.6427 13.1157 33.4941 12.954 33.3324C12.6732 33.0516 12.5637 32.7146 12.5227 32.5835L12.5174 32.5664L12.5125 32.5491C12.4649 32.3798 12.4453 32.1964 12.4347 32.0836C12.4217 31.9449 12.412 31.7853 12.4045 31.6174C12.3895 31.28 12.3815 30.8659 12.3783 30.4329C12.3719 29.5658 12.3846 28.5822 12.4037 27.8993C12.48 25.1153 12.7586 22.1176 13.0336 19.4661C13.1123 18.4726 13.2851 17.1286 13.4532 15.8301L13.4681 15.7146C13.6348 14.4272 13.7948 13.1914 13.8709 12.2957C13.8856 12.1228 13.9005 11.9573 13.9146 11.8008C13.9521 11.3839 13.984 11.0299 13.9921 10.763C14.0106 10.1581 13.9901 9.84917 13.9425 9.64853C13.9129 9.52414 13.8716 9.43041 13.7632 9.30628C13.3642 9.00883 12.8009 8.95355 11.6348 9.19842C10.7746 9.37896 10.0487 9.71581 9.58758 10.0386C9.55029 10.0647 9.51597 10.0898 9.48444 10.1139C9.70174 10.4312 9.8919 10.7641 10.0352 11.236C10.2441 11.9166 10.3023 12.767 10.3023 13.8772V13.9089L10.3007 13.9405C10.2759 14.4298 10.2542 14.9199 10.2323 15.4145L10.2322 15.4164C10.2104 15.9091 10.1884 16.4064 10.1632 16.9043L10.1621 16.9248L10.1604 16.9453C9.91076 19.9286 9.52552 25.2776 9.42646 28.918L9.42632 28.9232C9.32837 32.0451 9.4496 34.1935 9.71001 37.3063C9.83436 38.7281 10.1575 39.9121 10.3463 40.6041L10.3591 40.651C10.5063 41.1961 10.7165 41.7123 10.9743 42.0955C11.2339 42.4816 11.463 42.6215 11.6261 42.6608C12.2263 42.7996 12.6888 42.7876 13.7226 42.5377L13.7268 42.5367C14.0751 42.4538 14.5699 42.2368 15.0002 41.8982C15.43 41.56 15.6988 41.1793 15.7886 40.8008L15.7937 40.7794L15.7995 40.7582C16.0244 39.9397 16.2493 39.1181 16.4745 38.2957C16.6971 37.4827 16.9199 36.6685 17.1427 35.8577C17.5219 34.1953 18.3185 31.4231 19.0381 28.9189C19.102 28.6965 19.1653 28.4762 19.2277 28.259C19.6734 26.6299 20.2553 24.8088 20.5727 23.8692L20.5828 23.8394L20.5943 23.8103C20.6927 23.5609 20.8044 23.3055 20.9452 23.0943C21.1021 22.8589 21.3928 22.533 21.8864 22.4234C22.1098 22.3737 22.4863 22.3419 22.8753 22.5448C23.2991 22.7659 23.5058 23.1425 23.5835 23.4534C23.5779 23.4309 23.6086 23.5423 23.6273 23.6543C23.6442 23.7558 23.6545 23.8642 23.6575 23.9836C23.6709 24.133 23.671 24.275 23.6709 24.3594C23.6828 24.6813 23.6955 25.0276 23.6959 25.3778C23.7838 28.6281 24.4519 34.1808 25.052 36.3694L25.0524 36.371C25.1081 36.5749 25.158 36.7819 25.2034 36.9701L25.2076 36.9875C25.2557 37.1867 25.2995 37.3674 25.3476 37.5433C25.4445 37.8975 25.5438 38.1724 25.6681 38.3937C25.8634 38.7417 26.1721 39.0759 27.0511 39.1998C27.487 39.2552 27.897 39.2277 28.2036 39.183C28.3553 39.1609 28.4754 39.1355 28.5528 39.1171C28.5913 39.1079 28.6188 39.1006 28.6337 39.0965L28.6451 39.0933L28.6529 39.0908L28.6672 39.0867C29.4024 38.8767 29.7241 38.6203 29.9229 38.3614C30.1561 38.0577 30.3336 37.6071 30.5342 36.7803L30.5346 36.7786C30.6485 36.3124 30.8643 35.5148 31.1054 34.6237C31.1524 34.4499 31.2004 34.2725 31.2488 34.0933C31.5492 32.9806 31.87 31.7806 32.0968 30.8426C32.2358 30.2615 32.3746 29.7065 32.5116 29.1583L32.5126 29.1543L33.6026 24.8193C35.3107 18.2129 36.4946 14.4707 37.3668 11.8668L37.6526 11.0134H37.6934ZM33.3127 31.135C33.0434 32.2485 32.6471 33.7136 32.311 34.9559C32.0696 35.8482 31.8593 36.6256 31.7495 37.0752C31.3368 38.776 30.8491 39.7639 29.0108 40.2892C29.0108 40.2892 28.0478 40.5893 26.8848 40.4392C24.6798 40.1321 24.3225 38.6509 23.9894 37.2704C23.9428 37.0771 23.8966 36.8859 23.8459 36.7C23.2525 34.5357 22.6265 29.4695 22.4719 26.1159C22.4603 25.8654 22.4514 25.6244 22.4453 25.3949C22.4453 25.2177 22.4419 25.0404 22.4368 24.8632C22.4336 24.7532 22.4298 24.6432 22.4259 24.5333C22.4254 24.5204 22.4249 24.5076 22.4245 24.4947C22.4231 24.4572 22.4217 24.4196 22.4203 24.382C22.4203 24.2694 22.4203 24.1569 22.4078 24.0568C22.4078 23.8999 22.3877 23.8234 22.3745 23.7732C22.373 23.7674 22.3716 23.7619 22.3703 23.7567C22.3453 23.6566 22.2702 23.6191 22.1577 23.6441C22.0881 23.6596 22.0233 23.7133 21.9396 23.8644C21.9109 23.9162 21.8799 23.9796 21.8458 24.0568C21.8354 24.0803 21.8248 24.105 21.8138 24.1311C21.7959 24.1735 21.7772 24.2195 21.7575 24.2694C21.7453 24.3056 21.7326 24.3432 21.7196 24.382C21.7167 24.3907 21.7138 24.3994 21.7108 24.4083C21.6804 24.4992 21.648 24.5969 21.6138 24.7006C21.5449 24.91 21.469 25.1436 21.3887 25.3949C21.3857 25.4043 21.3827 25.4137 21.3797 25.4232C21.3258 25.5919 21.27 25.7683 21.213 25.9506C20.9554 26.7736 20.6728 27.7153 20.4319 28.5964C20.3698 28.8126 20.307 29.0314 20.2436 29.2519C19.5156 31.7855 18.7241 34.5402 18.356 36.1623C18.1309 36.9814 17.9058 37.8037 17.6807 38.6259C17.4556 39.4482 17.2305 40.2704 17.0054 41.0895C16.6552 42.5652 15.067 43.5031 14.0165 43.7532C12.8785 44.0284 12.2032 44.0784 11.3403 43.8783C10.1773 43.6032 9.48945 42.2275 9.1518 40.977L9.13725 40.9237C8.94603 40.2233 8.59808 38.9488 8.46399 37.4129C8.20137 34.2739 8.07631 32.073 8.17636 28.884C8.2764 25.2073 8.66408 19.8299 8.91419 16.8411C8.9392 16.3471 8.96109 15.8531 8.98297 15.3591C9.00486 14.8652 9.02674 14.3712 9.05176 13.8772C9.05176 12.7767 8.98923 12.0889 8.83916 11.6012C8.7141 11.1885 8.55153 10.9509 8.25139 10.5382C8.21491 10.488 8.17676 10.4429 8.14181 10.4015C8.0809 10.3293 8.02968 10.2687 8.01379 10.2131C7.83871 9.57528 9.35189 8.39974 11.3778 7.97455C12.6284 7.71193 13.7289 7.64941 14.6168 8.38724C15.192 8.98751 15.2796 9.57528 15.2421 10.8008C15.2327 11.108 15.1957 11.5191 15.1568 11.9516C15.1434 12.1002 15.1298 12.2513 15.117 12.4016C15.0385 13.3255 14.8754 14.5848 14.7109 15.8555C14.5346 17.2164 14.3567 18.5904 14.2791 19.5798C14.004 22.231 13.7289 25.1948 13.6538 27.9336C13.6354 28.5896 13.6231 29.5343 13.6285 30.374C13.6288 30.4308 13.6293 30.4872 13.6298 30.543C13.63 30.5565 13.6301 30.5699 13.6302 30.5833C13.6329 30.8357 13.6373 31.0749 13.6438 31.2896C13.6441 31.299 13.6444 31.3083 13.6447 31.3176C13.6455 31.3435 13.6463 31.3689 13.6472 31.394C13.6612 31.7934 13.6834 32.0935 13.7164 32.2105C13.7789 32.4106 13.8664 32.5482 14.054 32.4981C14.1927 32.4585 14.2764 32.3718 14.4358 32.0082C14.4395 31.9997 14.4433 31.991 14.4471 31.9822C14.486 31.8921 14.5295 31.7858 14.5793 31.6603C14.5961 31.6013 14.613 31.5417 14.6297 31.4817C14.6874 31.2747 14.7434 31.0636 14.7919 30.8599C14.8214 30.7516 14.8509 30.6453 14.8804 30.5402C14.9259 30.3781 14.9714 30.2188 15.017 30.0595C15.017 30.0595 16.205 26.1828 17.2054 23.0064C17.4602 22.2837 17.7149 21.5547 17.9647 20.8395C18.77 18.5349 19.5252 16.3734 20.0692 15.0277C20.1957 14.7167 20.3148 14.4154 20.4295 14.1252C21.2785 11.9767 21.8873 10.4361 23.4958 10.0505C25.3341 9.6253 27.0099 10.3756 27.36 11.6387C27.5351 12.289 27.5476 12.7017 27.4601 15.2528C27.3612 18.4699 27.4948 21.1961 27.6196 23.7426C27.6685 24.7399 27.716 25.7097 27.7477 26.6705C27.7819 27.2521 27.8219 27.7822 27.8675 28.245C27.8961 28.5339 27.9268 28.7967 27.9598 29.0294C27.9622 29.0463 27.9646 29.0631 27.967 29.0797C27.9686 29.0902 27.9701 29.1006 27.9716 29.111C28.0178 29.4216 28.0682 29.6745 28.1229 29.8595C28.1979 30.1096 28.3355 30.1846 28.4605 30.1596C28.6479 30.1202 28.7341 30.003 28.8358 29.6488C28.8361 29.6476 28.8365 29.6465 28.8368 29.6453C28.8638 29.5509 28.8919 29.4399 28.9232 29.3092L29.1108 28.4088C29.1177 28.3763 29.1247 28.3437 29.1316 28.3112C29.3375 27.3435 29.5462 26.3786 29.7549 25.4137C29.9706 24.4164 30.1863 23.419 30.3989 22.4186C31.3994 18.0416 32.0997 15.4654 33.3252 11.4136C34.7884 6.62394 35.8764 4.43545 37.7147 4.06028C39.453 3.69762 40.4284 5.03572 40.516 6.34882C40.5535 6.79902 40.3284 7.77446 39.9657 8.48728C39.7344 9.11882 39.4999 9.74723 39.2654 10.3756C39.0309 11.004 38.7965 11.6325 38.5651 12.264H38.5526C37.6897 14.8402 36.5142 18.5543 34.8134 25.1323L33.7254 29.4593C33.5879 30.0095 33.4503 30.5598 33.3127 31.135ZM9.18033 10.4082C9.1799 10.4083 9.1825 10.4034 9.18946 10.3933C9.18425 10.403 9.18077 10.4081 9.18033 10.4082Z" fill="#191A1B"/>
</svg>
