<svg width="48" height="48" viewBox="0 0 48 48" fill="none" xmlns="http://www.w3.org/2000/svg">
<path fill-rule="evenodd" clip-rule="evenodd" d="M24 44C35.0457 44 44 35.0457 44 24C44 12.9543 35.0457 4 24 4C12.9543 4 4 12.9543 4 24C4 35.0457 12.9543 44 24 44ZM32.6196 18.4686C32.7065 18.2115 32.7874 17.9719 32.8624 17.7461C32.9936 17.3869 33.1322 17.0277 33.2707 16.6684C33.4093 16.3092 33.5479 15.95 33.6791 15.5908C33.8833 15.1597 34 14.6137 34 14.3551C33.9417 13.5792 33.3874 12.832 32.3665 13.0332C31.2872 13.2344 30.6454 14.4988 29.7995 17.2576C29.0702 19.5853 28.6618 21.0796 28.0784 23.5797C27.9472 24.1545 27.8232 24.7292 27.6992 25.304C27.5752 25.8787 27.4513 26.4535 27.32 27.0282C27.3054 27.1144 27.2835 27.2006 27.2617 27.2868C27.2398 27.3731 27.2179 27.4593 27.2033 27.5455C27.1992 27.5616 27.1953 27.5773 27.1914 27.5925C27.1128 27.9034 27.0798 28.034 26.9408 28.034C26.8533 28.0627 26.7658 28.0053 26.7366 27.8616C26.6491 27.5455 26.5907 26.8845 26.5324 26.0224C26.513 25.5889 26.4893 25.1511 26.4651 24.7044C26.3802 23.1376 26.2893 21.4606 26.3574 19.4703C26.4157 18.0047 26.4157 17.7748 26.299 17.4012C26.0949 16.6541 25.1322 16.223 24.0529 16.4817C23.0961 16.6855 22.7354 17.5894 22.239 18.8331C22.1755 18.9923 22.1097 19.1571 22.0402 19.3266C21.6318 20.3612 20.9901 22.1716 20.3775 23.9246C19.7941 25.735 19.094 27.9765 19.094 27.9765C19.0794 28.0484 19.0575 28.1274 19.0356 28.2064C19.0138 28.2855 18.9919 28.3645 18.9773 28.4363C18.9627 28.5082 18.9408 28.5872 18.919 28.6662C18.8971 28.7452 18.8752 28.8243 18.8606 28.8961C18.8315 28.9582 18.8065 29.0132 18.7844 29.0616C18.6735 29.3047 18.637 29.3847 18.5398 29.3847C18.4231 29.4134 18.3647 29.3272 18.3356 29.2122C18.2909 29.0364 18.2975 28.1377 18.3031 27.3776C18.3048 27.1439 18.3064 26.9233 18.3064 26.7408C18.3586 25.3277 18.504 23.8227 18.6384 22.4312C18.6544 22.2663 18.6702 22.1031 18.6856 21.9417C18.73 21.3725 18.8347 20.5958 18.9384 19.8261C19.0388 19.0802 19.1384 18.341 19.1815 17.8036C19.2107 17.4587 19.2398 17.1139 19.2398 16.884C19.2398 16.1943 19.1815 15.8494 18.8606 15.5046C18.3356 15.1023 17.6938 15.131 16.9646 15.2747C15.7977 15.5333 14.8935 16.1943 15.0101 16.5679C15.0265 16.6001 15.0521 16.6324 15.0817 16.6698C15.1048 16.699 15.1304 16.7312 15.156 16.769C15.1659 16.782 15.1756 16.7948 15.1852 16.8073C15.344 17.0155 15.451 17.1556 15.506 17.3725C15.5936 17.6599 15.6227 18.0622 15.6227 18.6944C15.6135 18.868 15.6012 19.0444 15.5889 19.2228C15.5624 19.6058 15.5352 19.9978 15.5352 20.3899C15.3894 22.1142 15.156 25.2178 15.0977 27.3156C15.0393 29.126 15.1268 30.3905 15.2727 32.2009C15.3602 33.0918 15.5644 33.8389 15.6811 34.2412C15.8853 34.9597 16.2936 35.7356 16.9646 35.908C17.4896 36.0517 17.8688 36.023 18.5398 35.8505C19.1523 35.7068 20.0858 35.1896 20.29 34.3275L21.0776 31.4825C21.2555 30.7156 21.603 29.4977 21.952 28.2745C22.0607 27.8934 22.1696 27.5118 22.2735 27.1432C22.4747 26.4386 22.7272 25.6666 22.913 25.0985C22.9697 24.9251 23.0202 24.7707 23.0611 24.643C23.1778 24.3556 23.2362 24.2694 23.2945 24.2694C23.3528 24.2407 23.4112 24.2694 23.4112 24.3269V24.4993V24.7005V25.2752C23.4695 27.1719 23.8487 30.4479 24.228 31.7698C24.2527 31.8643 24.2758 31.9608 24.2991 32.0579C24.4953 32.8766 24.7035 33.7453 26.0073 33.9251C26.6783 34.0114 27.2325 33.8389 27.2325 33.8389C28.3118 33.5516 28.6035 32.9768 28.8369 31.9997C28.9045 31.7066 29.0473 31.185 29.2073 30.6009C29.3924 29.9251 29.6003 29.1658 29.7411 28.58C29.7794 28.4291 29.8122 28.2836 29.8442 28.1413C29.8853 27.9584 29.9253 27.7807 29.9745 27.603L30.6162 25.1028C31.4582 21.9072 32.1319 19.9126 32.6196 18.4686Z" fill="#191A1B"/>
</svg>
