<svg width="48" height="48" viewBox="0 0 48 48" fill="none" xmlns="http://www.w3.org/2000/svg">
<path d="M14 34.7065C11.024 34.7065 8.49557 33.6663 6.41471 31.5859C4.33387 29.5055 3.29346 26.9776 3.29346 24.0022C3.29346 21.0268 4.33387 18.4934 6.41471 16.4021C8.49557 14.3108 11.024 13.2652 14 13.2652H20.2087C20.7656 13.2652 21.2349 13.4616 21.6166 13.8544C21.9983 14.2472 22.1891 14.7233 22.1891 15.2826C22.1891 15.842 21.9983 16.3105 21.6166 16.688C21.2349 17.0656 20.7656 17.2543 20.2087 17.2543H14C12.1121 17.2543 10.5158 17.9055 9.21126 19.2078C7.90666 20.5101 7.25436 22.1036 7.25436 23.9882C7.25436 25.8729 7.90666 27.4703 9.21126 28.7804C10.5158 30.0906 12.1121 30.7456 14 30.7456H20.2087C20.7656 30.7456 21.2349 30.9373 21.6166 31.3207C21.9983 31.7041 22.1891 32.1755 22.1891 32.7348C22.1891 33.2942 21.9983 33.7627 21.6166 34.1402C21.2349 34.5178 20.7656 34.7065 20.2087 34.7065H14ZM17.4391 25.6695C16.9689 25.6695 16.5731 25.5127 16.2517 25.199C15.9303 24.8854 15.7696 24.4828 15.7696 23.9912C15.7696 23.4997 15.9256 23.1 16.2376 22.7921C16.5495 22.4843 16.95 22.3304 17.4391 22.3304H30.5609C31.0311 22.3304 31.4269 22.4873 31.7484 22.8009C32.0698 23.1146 32.2305 23.5172 32.2305 24.0087C32.2305 24.5003 32.0745 24.9 31.7625 25.2078C31.4505 25.5156 31.05 25.6695 30.5609 25.6695H17.4391ZM27.8196 34.7065C27.2439 34.7065 26.7652 34.5148 26.3835 34.1314C26.0018 33.7481 25.8109 33.2767 25.8109 32.7173C25.8109 32.1579 26.0018 31.6895 26.3835 31.3119C26.7652 30.9344 27.2439 30.7456 27.8196 30.7456H34C35.8879 30.7456 37.4842 30.0945 38.7888 28.7922C40.0934 27.4899 40.7457 25.8964 40.7457 24.0117C40.7457 22.1271 40.0934 20.5297 38.7888 19.2195C37.4842 17.9094 35.8879 17.2543 34 17.2543H27.8196C27.2439 17.2543 26.7652 17.0627 26.3835 16.6793C26.0018 16.2959 25.8109 15.8245 25.8109 15.2651C25.8109 14.7057 26.0018 14.2326 26.3835 13.8456C26.7652 13.4587 27.2439 13.2652 27.8196 13.2652H34C36.976 13.2652 39.5091 14.3101 41.5994 16.3999C43.6897 18.4898 44.7348 21.0224 44.7348 23.9978C44.7348 26.9732 43.6897 29.5018 41.5994 31.5837C39.5091 33.6656 36.976 34.7065 34 34.7065H27.8196Z" fill="#191A1B"/>
</svg>
