<svg width="48" height="48" viewBox="0 0 48 48" fill="none" xmlns="http://www.w3.org/2000/svg">
<path d="M23.975 39.675C28.2417 35.8417 31.4 32.4417 33.45 29.475C35.5 26.5083 36.525 23.6417 36.525 20.875C36.525 17.1164 35.3112 14.0434 32.8836 11.656C30.4561 9.26868 27.4859 8.075 23.9732 8.075C20.4605 8.075 17.491 9.26868 15.0646 11.656C12.6382 14.0434 11.425 17.1164 11.425 20.875C11.425 23.6417 12.475 26.5 14.575 29.45C16.675 32.4 19.8083 35.8083 23.975 39.675ZM23.9505 44.675C23.5335 44.675 23.0985 44.6 22.6455 44.45C22.1925 44.3 21.8024 44.075 21.475 43.775C19.875 42.4417 18.2083 40.9333 16.475 39.25C14.7417 37.5667 13.15 35.75 11.7 33.8C10.25 31.85 9.05833 29.7833 8.125 27.6C7.19167 25.4167 6.725 23.175 6.725 20.875C6.725 15.551 8.46255 11.295 11.9376 8.107C15.4127 4.919 19.4252 3.325 23.975 3.325C28.5248 3.325 32.5456 4.919 36.0373 8.107C39.5291 11.295 41.275 15.551 41.275 20.875C41.275 23.175 40.8 25.4167 39.85 27.6C38.9 29.7833 37.7 31.85 36.25 33.8C34.8 35.75 33.2083 37.5667 31.475 39.25C29.7417 40.9333 28.0917 42.4417 26.525 43.775C26.1598 44.075 25.7437 44.3 25.2767 44.45C24.8096 44.6 24.3676 44.675 23.9505 44.675Z" fill="#191A1B"/>
<path d="M23.9609 27.125L23.144 26.4037C22.1205 25.479 21.2778 24.6814 20.6158 24.0109C19.9539 23.3405 19.4257 22.7394 19.0313 22.2076C18.637 21.6759 18.3623 21.1904 18.2074 20.7512C18.0525 20.3119 17.975 19.8657 17.975 19.4126C17.975 18.4786 18.2919 17.6971 18.9257 17.0683C19.5595 16.4395 20.3459 16.125 21.2849 16.125C21.8107 16.125 22.2989 16.236 22.7496 16.458C23.2004 16.6799 23.6041 17.0082 23.9609 17.4428C24.3741 16.9804 24.7966 16.6452 25.2285 16.4372C25.6604 16.2291 26.1299 16.125 26.637 16.125C27.5853 16.125 28.3788 16.4395 29.0173 17.0683C29.6558 17.6971 29.975 18.4786 29.975 19.4126C29.975 19.8657 29.8975 20.3096 29.7426 20.7442C29.5877 21.1789 29.313 21.662 28.9187 22.1938C28.5243 22.7255 27.9938 23.3289 27.3271 24.004C26.6604 24.6791 25.8154 25.479 24.7919 26.4037L23.9609 27.125Z" fill="#191A1B"/>
</svg>
