<svg width="48" height="48" viewBox="0 0 48 48" fill="none" xmlns="http://www.w3.org/2000/svg">
<path d="M23.975 39.675C28.2417 35.8417 31.4 32.4417 33.45 29.475C35.5 26.5083 36.525 23.6417 36.525 20.875C36.525 17.1164 35.3112 14.0434 32.8836 11.656C30.4561 9.26868 27.4859 8.075 23.9732 8.075C20.4605 8.075 17.491 9.26868 15.0646 11.656C12.6382 14.0434 11.425 17.1164 11.425 20.875C11.425 23.6417 12.475 26.5 14.575 29.45C16.675 32.4 19.8083 35.8083 23.975 39.675ZM23.9505 44.675C23.5335 44.675 23.0985 44.6 22.6455 44.45C22.1925 44.3 21.8024 44.075 21.475 43.775C19.875 42.4417 18.2083 40.9333 16.475 39.25C14.7417 37.5667 13.15 35.75 11.7 33.8C10.25 31.85 9.05833 29.7833 8.125 27.6C7.19167 25.4167 6.725 23.175 6.725 20.875C6.725 15.551 8.46255 11.295 11.9376 8.107C15.4127 4.919 19.4252 3.325 23.975 3.325C28.5248 3.325 32.5456 4.919 36.0373 8.107C39.5291 11.295 41.275 15.551 41.275 20.875C41.275 23.175 40.8 25.4167 39.85 27.6C38.9 29.7833 37.7 31.85 36.25 33.8C34.8 35.75 33.2083 37.5667 31.475 39.25C29.7417 40.9333 28.0917 42.4417 26.525 43.775C26.1598 44.075 25.7437 44.3 25.2767 44.45C24.8096 44.6 24.3676 44.675 23.9505 44.675ZM23.9794 24.475C25.0765 24.475 26 24.1068 26.75 23.3706C27.5 22.6343 27.875 21.7176 27.875 20.6205C27.875 19.5235 27.4985 18.6 26.7456 17.85C25.9926 17.1 25.0676 16.725 23.9705 16.725C22.8735 16.725 21.9583 17.1015 21.225 17.8544C20.4917 18.6074 20.125 19.5324 20.125 20.6294C20.125 21.7265 20.4931 22.6417 21.2294 23.375C21.9657 24.1083 22.8824 24.475 23.9794 24.475Z" fill="#191A1B"/>
</svg>
