<svg width="48" height="48" viewBox="0 0 48 48" fill="none" xmlns="http://www.w3.org/2000/svg">
<path d="M11.425 46.075C10.1325 46.075 9.02603 45.6148 8.1056 44.6944C7.1852 43.774 6.725 42.6675 6.725 41.375V20.575C6.725 19.2687 7.1852 18.1505 8.1056 17.2203C9.02603 16.2901 10.1325 15.825 11.425 15.825H13.925V12.125C13.925 9.28532 14.8978 6.87541 16.8433 4.89524C18.7888 2.91507 21.1638 1.92499 23.9683 1.92499C26.7728 1.92499 29.15 2.91507 31.1 4.89524C33.05 6.87541 34.025 9.28532 34.025 12.125V15.825H36.525C37.8313 15.825 38.9495 16.2901 39.8797 17.2203C40.8099 18.1505 41.275 19.2687 41.275 20.575V41.375C41.275 42.6675 40.8099 43.774 39.8797 44.6944C38.9495 45.6148 37.8313 46.075 36.525 46.075H11.425ZM11.425 41.375H36.525V20.575H11.425V41.375ZM23.9834 34.825C25.0445 34.825 25.95 34.4578 26.7 33.7234C27.45 32.9891 27.825 32.1063 27.825 31.075C27.825 30.075 27.4472 29.1667 26.6916 28.35C25.936 27.5333 25.0277 27.125 23.9666 27.125C22.9055 27.125 22 27.5333 21.25 28.35C20.5 29.1667 20.125 30.0833 20.125 31.1C20.125 32.1167 20.5028 32.9917 21.2584 33.725C22.014 34.4583 22.9223 34.825 23.9834 34.825ZM18.625 15.825H29.325V12.1365C29.325 10.5788 28.8142 9.27915 27.7927 8.23749C26.7711 7.19582 25.5044 6.67499 23.9926 6.67499C22.4809 6.67499 21.2083 7.19582 20.175 8.23749C19.1417 9.27915 18.625 10.5788 18.625 12.1365V15.825Z" fill="#191A1B"/>
</svg>
