<svg width="48" height="48" viewBox="0 0 48 48" fill="none" xmlns="http://www.w3.org/2000/svg">
<path d="M25.7692 40.3981C27.4503 40.3981 29.2075 40.0732 31.0408 39.4231C32.8742 38.7731 34.6908 37.7315 36.4908 36.2981C32.7908 35.0315 29.7575 33.3981 27.3908 31.3981C25.0242 29.3981 23.2242 27.1648 21.9908 24.6981C20.7575 22.2315 20.0325 19.5981 19.8158 16.7981C19.5992 13.9981 19.7742 11.1481 20.3408 8.24815C16.7408 9.88148 13.9825 12.0315 12.0658 14.6981C10.1492 17.3648 9.19082 20.3815 9.19082 23.7481C9.19082 28.5815 10.7367 32.5648 13.8283 35.6981C16.92 38.8315 20.9003 40.3981 25.7692 40.3981ZM25.7908 45.1481C22.7197 45.1481 19.8782 44.61 17.2663 43.5336C14.6544 42.4572 12.402 40.9643 10.5092 39.0548C8.61634 37.1453 7.14007 34.8846 6.08037 32.2726C5.02067 29.6607 4.49082 26.8193 4.49082 23.7481C4.49082 18.1148 6.32416 13.4315 9.99082 9.69815C13.6575 5.96481 17.9742 3.69815 22.9408 2.89815C24.0847 2.73148 24.9206 3.01482 25.4487 3.74815C25.9768 4.48148 26.0408 5.43148 25.6408 6.59815C24.6408 9.63148 24.2408 12.5815 24.4408 15.4481C24.6408 18.3148 25.3908 20.9231 26.6908 23.2731C27.9908 25.6231 29.8242 27.6148 32.1908 29.2481C34.5575 30.8815 37.4408 31.9648 40.8408 32.4981C42.0742 32.6981 42.8908 33.1898 43.2908 33.9731C43.6908 34.7565 43.5413 35.606 42.8422 36.5217C40.6746 39.1393 38.0992 41.2315 35.1158 42.7981C32.1325 44.3648 29.0242 45.1481 25.7908 45.1481Z" fill="#191A1B"/>
</svg>
