<svg width="48" height="48" viewBox="0 0 48 48" fill="none" xmlns="http://www.w3.org/2000/svg">
<path d="M41.3551 36.7291C39.4551 38.8291 37.1551 40.5457 34.4551 41.8791C31.7551 43.2124 28.9551 43.8791 26.0551 43.8791C23.2551 43.8791 20.6384 43.3624 18.2051 42.3291C15.7718 41.2957 13.6551 39.8791 11.8551 38.0791C10.0551 36.2791 8.63845 34.1624 7.60511 31.7291C6.57178 29.2957 6.05511 26.6791 6.05511 23.8791C6.05511 19.0791 7.63011 14.8041 10.7801 11.0541C13.9301 7.30407 17.8551 5.0124 22.5551 4.17907C23.4218 4.0124 24.0551 4.20407 24.4551 4.75407C24.8551 5.30407 24.9051 6.02907 24.6051 6.92907C23.7051 9.7624 23.4051 12.6457 23.7051 15.5791C24.0051 18.5124 24.8384 21.2291 26.2051 23.7291C27.5718 26.2291 29.4301 28.3874 31.7801 30.2041C34.1301 32.0207 36.8885 33.2124 40.0551 33.7791C40.9885 33.9457 41.5801 34.3124 41.8301 34.8791C42.0801 35.4457 41.9218 36.0624 41.3551 36.7291Z" fill="#191A1B"/>
</svg>
