<svg width="48" height="48" viewBox="0 0 48 48" fill="none" xmlns="http://www.w3.org/2000/svg">
<path fill-rule="evenodd" clip-rule="evenodd" d="M37.0561 23.8691C37.713 23.6411 38.415 23.5118 39.1486 23.5118C39.9295 23.5118 40.6946 23.6516 41.4229 23.928L40.374 24.7162L40.3593 24.713C40.2702 24.6921 40.1787 24.6767 40.0876 24.6614C40.0734 24.659 40.0592 24.6566 40.0451 24.6542C39.7529 24.6006 39.4555 24.5627 39.1486 24.5627C38.8512 24.5627 38.5643 24.5985 38.2826 24.651C38.0672 24.6857 37.8612 24.7404 37.6552 24.8003C37.6478 24.8024 37.6405 24.8039 37.6331 24.8055C37.6258 24.8071 37.6184 24.8087 37.6111 24.8108L37.6121 24.8129C36.9931 25 36.4224 25.2858 35.92 25.6684C35.7929 25.7651 35.6689 25.8649 35.5501 25.9731C35.5337 25.9882 35.5173 26.0032 35.5009 26.0182C35.4142 26.0974 35.3277 26.1764 35.2464 26.2622C35.0866 26.4303 34.9405 26.6111 34.8039 26.7992L34.7863 26.8237C34.7323 26.8984 34.6785 26.9728 34.6274 27.0514C34.4813 27.2784 34.352 27.517 34.2396 27.765C34.2147 27.8221 34.1914 27.8808 34.1684 27.939C34.1651 27.9473 34.1619 27.9555 34.1586 27.9637C34.0472 28.2422 33.9537 28.5291 33.8896 28.8286C33.8859 28.8451 33.8835 28.8622 33.8811 28.8794C33.8787 28.8961 33.8764 28.9129 33.8728 28.9295L33.8715 28.936C33.8436 29.0831 33.8158 29.2292 33.8003 29.3804L32.7209 29.9395C32.7209 27.6904 33.8843 25.7104 35.6384 24.5617L34.186 22.0961L29.7215 30.0582C28.9469 31.517 28.1744 32.1612 26.8639 32.1612H19.7951C19.3043 32.1612 18.8282 31.9889 18.4509 31.6757L17.1298 30.5764H14.5014C14.5079 30.5214 14.5154 30.4667 14.5229 30.412C14.5442 30.2566 14.5655 30.1012 14.5655 29.9395C14.5655 26.9747 12.1535 24.5627 9.18874 24.5627C7.98013 24.5627 6.87556 24.9789 5.97699 25.6547L4.31226 23.99C3.84248 23.5212 3.90869 22.7225 4.47095 22.3704C5.84036 21.5128 7.45675 21.0147 9.18874 21.0147C10.4909 21.0147 11.7289 21.2984 12.8461 21.8019L13.7089 21.4277C14.082 21.2659 14.515 21.3342 14.8209 21.6032L15.8277 22.382C16.1482 22.6637 16.6096 22.7236 16.9922 22.5312L19.422 21.7346C19.8539 21.5192 20.3489 21.6337 20.6569 21.9637L21.8119 21.5685C22.639 19.7966 25.671 18.1687 28.4246 17.5307C30.1807 17.124 31.0026 17.867 31.3788 18.7593H32.2175L29.856 14.752L28.2133 14.7509C26.0189 14.7509 25.2118 13.9785 25.1277 13.8902C24.927 13.6811 24.9333 13.3479 25.1424 13.1472C25.3494 12.9475 25.6742 12.9527 25.877 13.1524C25.9054 13.1787 26.5181 13.7 28.2133 13.7H29.2359H31.0698L33.6016 18.0016C33.9232 17.247 34.8249 16.6994 35.899 16.6994C36.126 16.6994 36.3404 16.732 36.5485 16.7772V20.4209C36.3404 20.4661 36.126 20.4976 35.899 20.4976C35.5774 20.4976 35.2706 20.4461 34.9878 20.3568L37.0561 23.8691ZM9.18908 33.1869C7.39508 33.1869 5.9416 31.7334 5.9416 29.9405C5.9416 28.1465 7.39508 26.693 9.18908 26.693C10.982 26.693 12.4366 28.1465 12.4366 29.9405C12.4366 31.7334 10.982 33.1869 9.18908 33.1869ZM9.18908 25.0892C6.50912 25.0892 4.33783 27.2605 4.33783 29.9405C4.33783 32.6194 6.50912 34.7917 9.18908 34.7917C11.868 34.7917 14.0403 32.6194 14.0403 29.9405C14.0403 27.2605 11.868 25.0892 9.18908 25.0892ZM39.1488 33.1869C37.3548 33.1869 35.9013 31.7334 35.9013 29.9405C35.9013 28.1465 37.3548 26.693 39.1488 26.693C40.9417 26.693 42.3952 28.1465 42.3952 29.9405C42.3952 31.7334 40.9417 33.1869 39.1488 33.1869ZM39.1488 25.0892C36.4688 25.0892 34.2975 27.2605 34.2975 29.9405C34.2975 32.6194 36.4688 34.7917 39.1488 34.7917C41.8277 34.7917 44.0001 32.6194 44.0001 29.9405C44.0001 27.2605 41.8277 25.0892 39.1488 25.0892Z" fill="#191A1B"/>
</svg>
