<svg width="48" height="48" viewBox="0 0 48 48" fill="none" xmlns="http://www.w3.org/2000/svg">
<path d="M17.1997 40.6501C16.1424 40.6501 15.2365 40.2736 14.4819 39.5207C13.7273 38.7678 13.3499 37.8627 13.3499 36.8055C13.3499 35.7482 13.7264 34.8497 14.4793 34.1098C15.2322 33.37 16.1373 33 17.1945 33C18.2518 33 19.1504 33.3691 19.8902 34.1072C20.6301 34.8454 21 35.7431 21 36.8003C21 37.8576 20.6309 38.7635 19.8928 39.5181C19.1547 40.2728 18.257 40.6501 17.1997 40.6501ZM30.8314 40.6501C29.7742 40.6501 28.8713 40.2736 28.1228 39.5207C27.3743 38.7678 27 37.8627 27 36.8055C27 35.7482 27.3748 34.8497 28.1245 34.1098C28.8743 33.37 29.7755 33 30.8283 33C31.8889 33 32.791 33.3691 33.5346 34.1072C34.2782 34.8454 34.65 35.7431 34.65 36.8003C34.65 37.8576 34.2779 38.7635 33.5337 39.5181C32.7895 40.2728 31.8887 40.6501 30.8314 40.6501ZM17.1997 27.8109C16.1424 27.8109 15.2365 27.4361 14.4819 26.6863C13.7273 25.9366 13.3499 25.0354 13.3499 23.9826C13.3499 22.9145 13.7264 22.0152 14.4793 21.2848C15.2322 20.5543 16.1373 20.1891 17.1945 20.1891C18.2518 20.1891 19.1504 20.5558 19.8902 21.2892C20.6301 22.0226 21 22.9187 21 23.9773C21 25.036 20.6309 25.9396 19.8928 26.6881C19.1547 27.4367 18.257 27.8109 17.1997 27.8109ZM30.8314 27.8109C29.7742 27.8109 28.8713 27.4361 28.1228 26.6863C27.3743 25.9366 27 25.0354 27 23.9826C27 22.9145 27.3748 22.0152 28.1245 21.2848C28.8743 20.5543 29.7755 20.1891 30.8283 20.1891C31.8889 20.1891 32.791 20.5558 33.5346 21.2892C34.2782 22.0226 34.65 22.9187 34.65 23.9773C34.65 25.036 34.2779 25.9396 33.5337 26.6881C32.7895 27.4367 31.8887 27.8109 30.8314 27.8109ZM17.1997 15C16.1424 15 15.2365 14.6252 14.4819 13.8755C13.7273 13.1257 13.3499 12.2245 13.3499 11.1717C13.3499 10.1112 13.7264 9.20906 14.4793 8.46542C15.2322 7.72179 16.1373 7.34998 17.1945 7.34998C18.2518 7.34998 19.1504 7.72209 19.8902 8.46632C20.6301 9.21056 21 10.1113 21 11.1686C21 12.2258 20.6309 13.1287 19.8928 13.8772C19.1547 14.6258 18.257 15 17.1997 15ZM30.8314 15C29.7742 15 28.8713 14.6252 28.1228 13.8755C27.3743 13.1257 27 12.2245 27 11.1717C27 10.1112 27.3748 9.20906 28.1245 8.46542C28.8743 7.72179 29.7755 7.34998 30.8283 7.34998C31.8889 7.34998 32.791 7.72209 33.5346 8.46632C34.2782 9.21056 34.65 10.1113 34.65 11.1686C34.65 12.2258 34.2779 13.1287 33.5337 13.8772C32.7895 14.6258 31.8887 15 30.8314 15Z" fill="#191A1B"/>
</svg>
