<svg width="48" height="48" viewBox="0 0 48 48" fill="none" xmlns="http://www.w3.org/2000/svg">
<path fill-rule="evenodd" clip-rule="evenodd" d="M42.215 16.7624C42.1721 16.9937 42.0838 17.2143 41.9554 17.4114C41.8269 17.6085 41.6607 17.7783 41.4664 17.9109L20.8858 31.9799C20.6915 32.1129 20.4726 32.2059 20.242 32.2534C20.0114 32.301 19.7736 32.3021 19.5425 32.2568C19.3102 32.2132 19.0889 32.1236 18.8916 31.9933C18.6944 31.863 18.5252 31.6946 18.394 31.498L13.0617 23.6226C12.7952 23.2291 12.6956 22.746 12.7848 22.2793C12.8874 21.8076 13.1438 21.3974 13.5334 21.1308L34.114 7.06175C34.3083 6.92875 34.5272 6.83578 34.7578 6.78824C34.9884 6.74071 35.2262 6.73956 35.4573 6.78488C35.929 6.88743 36.3289 7.14379 36.6058 7.54371L41.9381 15.4191C42.2047 15.8293 42.3072 16.2907 42.215 16.7522V16.7624ZM16.5072 32.9849L10.9903 24.8429L11.5031 24.484L17.0199 32.6259L16.4867 32.9849H16.5072ZM6.97061 33.4976L11.6364 28.9241L12.9489 30.8724L6.97061 33.5078V33.4976ZM43.3737 14.4244L38.0414 6.54903C37.7809 6.16442 37.4469 5.83507 37.0587 5.57988C36.6705 5.32469 36.2358 5.14869 35.7794 5.06198C35.323 4.97528 34.8539 4.97958 34.3992 5.07463C33.9445 5.16968 33.513 5.35362 33.1296 5.61588L12.5593 19.6747C12.0677 20.0098 11.6689 20.4639 11.4 20.9946C11.1311 21.5253 11.0007 22.1154 11.0211 22.71L9.30861 23.879C9.11782 24.0116 8.9871 24.2142 8.94486 24.4427C8.90262 24.6712 8.95226 24.9071 9.08301 25.0992L10.6724 27.4577L5.00177 33.0156C4.85597 33.1598 4.76495 33.3502 4.74436 33.5542C4.72378 33.7582 4.77491 33.963 4.88897 34.1333L5.63754 35.2408C5.69907 35.3434 5.77085 35.4049 5.84263 35.4664C5.78212 36.4188 5.407 37.3242 4.77617 38.0403C3.65844 39.3631 3.48412 42.4394 6.04771 42.8906C8.25241 43.27 8.87793 40.9628 7.55511 39.5374C6.32458 38.2248 6.67323 36.5329 6.73476 35.5382L13.9846 32.3388L15.5843 34.6973C15.6483 34.7923 15.7303 34.8737 15.8257 34.9369C15.9211 35.0002 16.0281 35.044 16.1405 35.0659C16.2528 35.0878 16.3684 35.0874 16.4806 35.0646C16.5928 35.0418 16.6994 34.9972 16.7943 34.9332L18.5171 33.7642C18.7529 33.8667 18.999 33.9385 19.2349 33.9898C19.6906 34.0759 20.1588 34.0714 20.6128 33.9764C21.0668 33.8814 21.4976 33.6977 21.8805 33.436L42.4508 19.367C42.8358 19.106 43.1654 18.7714 43.4206 18.3824C43.6758 17.9935 43.8515 17.5579 43.9377 17.1008C44.0247 16.6434 44.0205 16.1734 43.9255 15.7177C43.8305 15.2619 43.6465 14.8294 43.384 14.4449L43.3737 14.4244Z" fill="#191A1B"/>
</svg>
