<svg width="48" height="48" viewBox="0 0 48 48" fill="none" xmlns="http://www.w3.org/2000/svg">
<path d="M23.7856 42.7206C18.9565 42.7206 14.7982 41.1148 11.3107 37.9032C7.82324 34.6916 5.84907 30.7243 5.38821 26.0011C5.29834 25.4857 5.43746 25.0315 5.80556 24.6384C6.17369 24.2454 6.63981 24.0395 7.20391 24.0206C7.73694 24.0018 8.20164 24.1623 8.59801 24.5021C8.99437 24.842 9.25416 25.2851 9.37736 25.8315C9.80056 29.4764 11.3617 32.5424 14.0608 35.0293C16.7598 37.5163 20.0001 38.7597 23.7817 38.7597C27.9208 38.7597 31.4382 37.3016 34.3339 34.3854C37.2295 31.4692 38.6774 27.9305 38.6774 23.7691C38.6774 19.7078 37.2188 16.2757 34.3016 13.4728C31.3844 10.6699 27.8778 9.26844 23.7817 9.26844C21.6658 9.26844 19.6727 9.72388 17.8024 10.6347C15.9321 11.5456 14.2919 12.7663 12.8817 14.2967H15.8687C16.3425 14.2967 16.7392 14.4565 17.0588 14.7761C17.3784 15.0957 17.5382 15.4924 17.5382 15.9662C17.5382 16.4561 17.3784 16.8616 17.0588 17.1826C16.7392 17.5036 16.3425 17.6641 15.8687 17.6641H8.50346C7.93822 17.6641 7.46684 17.4753 7.08931 17.0978C6.71174 16.7203 6.52296 16.2489 6.52296 15.6836V8.36844C6.52296 7.89458 6.67876 7.50256 6.99036 7.1924C7.30196 6.8822 7.69797 6.7271 8.17841 6.7271C8.65884 6.7271 9.05486 6.8822 9.36646 7.1924C9.67806 7.50256 9.83386 7.89458 9.83386 8.36844V11.7162C11.6237 9.72058 13.7197 8.14883 16.1219 7.00099C18.5241 5.85319 21.0773 5.2793 23.7817 5.2793C26.3759 5.2793 28.8154 5.76951 31.1002 6.74995C33.385 7.73038 35.3876 9.062 37.1081 10.7448C38.8286 12.4276 40.1804 14.3947 41.1635 16.6459C42.1467 18.8972 42.6383 21.3199 42.6383 23.9141C42.6383 26.5083 42.1467 28.9477 41.1635 31.2323C40.1804 33.5169 38.8286 35.5089 37.1081 37.2084C35.3876 38.9079 33.385 40.2514 31.1002 41.2391C28.8154 42.2268 26.3772 42.7206 23.7856 42.7206Z" fill="#191A1B"/>
<path d="M23.9538 34.2967C23.5343 34.2967 23.1794 34.1449 22.8889 33.8414C22.5985 33.5378 22.4533 33.17 22.4533 32.7378V32.1674H19.9847C19.5551 32.1674 19.1935 32.0069 18.9001 31.6858C18.6066 31.3647 18.4599 30.9845 18.4599 30.5451C18.4599 30.1057 18.6066 29.734 18.9001 29.4298C19.1935 29.1256 19.5551 28.9735 19.9847 28.9735H26.4467V25.8937H20.021C19.6095 25.8937 19.2465 25.7363 18.9318 25.4217C18.6172 25.1071 18.4599 24.7194 18.4599 24.2587V18.0229C18.4599 17.58 18.6112 17.2031 18.9137 16.8922C19.2162 16.5814 19.5732 16.426 19.9847 16.426H22.4533V15.8556C22.4533 15.431 22.6006 15.0651 22.8953 14.7577C23.19 14.4504 23.5471 14.2967 23.9666 14.2967C24.3861 14.2967 24.741 14.4485 25.0312 14.752C25.3214 15.0556 25.4665 15.4234 25.4665 15.8556V16.426H27.9715C28.3841 16.426 28.7353 16.582 29.0252 16.8941C29.315 17.2063 29.4599 17.5847 29.4599 18.0296C29.4599 18.4637 29.315 18.8373 29.0252 19.1503C28.7353 19.4634 28.3841 19.6199 27.9715 19.6199H21.4731V22.6997H27.9351C28.375 22.6997 28.7391 22.8536 29.0274 23.1613C29.3157 23.4689 29.4599 23.8601 29.4599 24.3347V30.5705C29.4599 31.0014 29.3192 31.3753 29.0379 31.6921C28.7565 32.009 28.401 32.1674 27.9715 32.1674H25.4665V32.7378C25.4665 33.1623 25.3193 33.5283 25.0248 33.8357C24.7303 34.143 24.3734 34.2967 23.9538 34.2967Z" fill="#191A1B"/>
</svg>
