<svg width="48" height="48" viewBox="0 0 48 48" fill="none" xmlns="http://www.w3.org/2000/svg">
<path fill-rule="evenodd" clip-rule="evenodd" d="M26.6165 38.3064C26.2393 38.2854 25.8588 38.2931 25.4816 38.3031C25.3932 38.3053 25.329 38.2909 25.2792 38.2643L25.8677 33.6363C26.3068 33.6286 26.7559 33.6286 27.2105 33.6286L26.6165 38.3064ZM24.651 38.2931C24.4961 38.292 24.3368 38.2898 24.1842 38.2887C24.0304 38.2898 23.8722 38.292 23.7174 38.2931L23.1245 33.6231C23.4951 33.6231 23.8446 33.6242 24.1842 33.6242C24.5226 33.6242 24.8733 33.6231 25.2438 33.6231L24.651 38.2931ZM22.8867 38.3031C22.5084 38.2931 22.1279 38.2854 21.7518 38.3064L21.1567 33.6286C21.6124 33.6286 22.0615 33.6286 22.4995 33.6363L23.0891 38.2643C23.0393 38.2909 22.9752 38.3053 22.8867 38.3031ZM28.1795 33.591C28.2481 33.591 28.3255 33.4317 28.3797 33.3344C30.8441 28.9276 33.3141 27.9188 35.7664 23.5065C36.774 21.6968 37.3304 19.7434 37.3658 17.675C37.4488 12.8025 35.4766 8.94768 31.4613 6.1857C29.3675 4.74553 27.0092 4.05641 24.3877 4C24.9806 4.31414 25.4916 4.56855 25.9894 4.85171C29.3121 6.74318 31.6416 9.42774 32.583 13.1974C33.2798 15.9915 33.1415 18.801 32.6316 21.6039C31.7091 26.6799 29.7513 27.9995 27.5346 32.6176C27.487 32.7171 27.3687 32.8477 27.2791 32.851C26.7504 32.8731 26.2216 32.862 25.6653 32.862C25.6918 32.695 25.7029 32.5811 25.7283 32.4727C26.8444 27.6456 27.7293 26.1789 28.0313 21.2256C28.2392 17.8486 28.1706 14.4849 27.455 11.161C26.9207 8.68553 26.027 6.36268 24.4574 4.33958C24.3755 4.2345 24.2859 4.13495 24.1842 4.01438C24.0824 4.13495 23.9928 4.2345 23.911 4.33958C22.3414 6.36268 21.4465 8.68553 20.9134 11.161C20.1966 14.4849 20.1291 17.8486 20.336 21.2256C20.639 26.1789 21.5239 27.6456 22.6389 32.4727C22.6655 32.5811 22.6754 32.695 22.7031 32.862C22.1467 32.862 21.6169 32.8731 21.0892 32.851C20.9996 32.8477 20.8802 32.7171 20.8326 32.6176C18.6171 27.9995 16.6592 26.6799 15.7356 21.6039C15.2257 18.801 15.0874 15.9915 15.7854 13.1974C16.7267 9.42774 19.0562 6.74318 22.379 4.85171C22.8756 4.56855 23.3878 4.31414 23.9795 4C21.358 4.05641 18.9998 4.74553 16.907 6.1857C12.8918 8.94768 10.9196 12.8025 11.0025 17.675C11.0379 19.7434 11.5943 21.6968 12.6009 23.5065C15.0542 27.9188 17.5231 28.9276 19.9886 33.3344C20.0428 33.4317 20.1203 33.591 20.1877 33.591C20.4145 33.591 20.5063 33.6795 20.5495 33.8011L21.1246 38.3008C20.8083 38.2964 20.5163 38.2809 20.2353 38.3152C20.0749 38.334 19.8437 38.4446 19.8006 38.5674C19.7619 38.6791 19.9455 38.8605 20.0174 39.0176C20.0749 39.1437 20.1512 39.2776 20.1524 39.4092C20.1634 40.5419 20.1568 41.6745 20.159 42.8072C20.1601 43.6368 20.5041 43.9941 21.3403 43.9985C22.2883 44.0018 23.2362 43.9985 24.1842 43.9996C25.131 43.9985 26.0801 44.0018 27.0269 43.9985C27.8642 43.9941 28.2071 43.6368 28.2082 42.8072C28.2105 41.6745 28.2049 40.5419 28.2149 39.4092C28.216 39.2776 28.2934 39.1437 28.3498 39.0176C28.4228 38.8605 28.6064 38.6791 28.5677 38.5674C28.5246 38.4446 28.2934 38.334 28.1319 38.3152C27.851 38.2809 27.5601 38.2964 27.2426 38.3008L27.8189 33.8011C27.862 33.6795 27.9538 33.591 28.1795 33.591Z" fill="#191A1B"/>
</svg>
