<svg width="48" height="48" viewBox="0 0 48 48" fill="none" xmlns="http://www.w3.org/2000/svg">
<path d="M5.55 32.4695H42.5C43.0652 32.4695 43.5366 32.6583 43.9142 33.0358C44.2917 33.4134 44.4804 33.8848 44.4804 34.45C44.4804 35.0152 44.2834 35.4949 43.8892 35.8891C43.495 36.2833 43.0152 36.4804 42.45 36.4804H5.5C4.93477 36.4804 4.46338 36.2833 4.08585 35.8891C3.70832 35.4949 3.51955 35.0152 3.51955 34.45C3.51955 33.8848 3.71665 33.4134 4.11085 33.0358C4.50505 32.6583 4.98477 32.4695 5.55 32.4695ZM7.4891 20.2609L6.28045 22.4065C6.09492 22.7297 5.83693 22.9377 5.5065 23.0304C5.17607 23.1232 4.85868 23.0768 4.55435 22.8913C4.23115 22.7246 4.01483 22.4677 3.9054 22.1206C3.796 21.7735 3.84347 21.4384 4.0478 21.1152L5.27825 18.9695H2.7891C2.4326 18.9695 2.13188 18.834 1.88695 18.563C1.64198 18.292 1.5195 17.9877 1.5195 17.65C1.5195 17.3123 1.6503 17.0163 1.9119 16.7619C2.1735 16.5076 2.48255 16.3804 2.83905 16.3804H5.2782L4.04775 14.2348C3.84342 13.9116 3.78762 13.5764 3.88035 13.2293C3.97312 12.8822 4.18108 12.6254 4.50425 12.4587C4.80862 12.2732 5.13435 12.2304 5.48145 12.3304C5.82855 12.4304 6.09487 12.642 6.2804 12.9652L7.48905 15.0891L8.69775 12.9152C8.86442 12.592 9.10827 12.3888 9.4293 12.3054C9.7503 12.2221 10.0724 12.2732 10.3956 12.4587C10.7188 12.6254 10.9351 12.8822 11.0445 13.2293C11.1539 13.5764 11.1065 13.9116 10.9021 14.2348L9.6717 16.3804H12.1608C12.4985 16.3804 12.7945 16.5076 13.0489 16.7619C13.3032 17.0163 13.4304 17.3123 13.4304 17.65C13.4304 17.9877 13.3032 18.292 13.0489 18.563C12.7945 18.834 12.4985 18.9695 12.1608 18.9695H9.6717L10.9304 21.1435C11.1159 21.4478 11.1623 21.7735 11.0695 22.1206C10.9768 22.4677 10.7782 22.7246 10.4739 22.8913C10.1507 23.0768 9.8155 23.1101 9.4684 22.9913C9.1213 22.8724 8.86442 22.6609 8.69775 22.3565L7.4891 20.2609ZM24 20.2609L22.8413 22.3565C22.6746 22.6797 22.4094 22.8924 22.0457 22.9945C21.6819 23.0967 21.3384 23.0457 21.0152 22.8413C20.692 22.6558 20.4888 22.3859 20.4055 22.0315C20.3221 21.6772 20.3732 21.3384 20.5587 21.0152L21.8174 18.8695H19.3C18.9623 18.8695 18.6663 18.734 18.412 18.463C18.1576 18.192 18.0305 17.8877 18.0305 17.55C18.0305 17.2123 18.166 16.9163 18.437 16.6619C18.708 16.4076 19.0123 16.2804 19.35 16.2804H21.8174L20.5587 14.1348C20.3732 13.8116 20.3221 13.4764 20.4055 13.1293C20.4888 12.7822 20.692 12.5254 21.0152 12.3587C21.3384 12.1732 21.6736 12.1304 22.0207 12.2304C22.3678 12.3304 22.6246 12.542 22.7913 12.8652L24 14.9891L25.2087 12.8152C25.3754 12.492 25.6239 12.2888 25.9543 12.2054C26.2848 12.1221 26.6116 12.1732 26.9348 12.3587C27.258 12.5442 27.4743 12.8058 27.5837 13.1435C27.6931 13.4812 27.6457 13.8116 27.4413 14.1348L26.2109 16.2804H28.7C29.0377 16.2804 29.3337 16.4076 29.588 16.6619C29.8424 16.9163 29.9695 17.2123 29.9695 17.55C29.9695 17.8877 29.8424 18.192 29.588 18.463C29.3337 18.734 29.0377 18.8695 28.7 18.8695H26.2109L27.5196 21.0152C27.7051 21.3384 27.7431 21.6772 27.6337 22.0315C27.5243 22.3859 27.3174 22.6558 27.0131 22.8413C26.6898 23.0457 26.3417 23.0884 25.9685 22.9695C25.5953 22.8507 25.3254 22.6297 25.1587 22.3065L24 20.2609ZM40.5109 20.2609L39.3522 22.3848C39.1667 22.708 38.8968 22.9159 38.5424 23.0087C38.1881 23.1015 37.8493 23.0457 37.5261 22.8413C37.2217 22.6558 37.0232 22.3859 36.9305 22.0315C36.8377 21.6772 36.884 21.3478 37.0695 21.0435L38.3565 18.8695H35.8392C35.5015 18.8695 35.2054 18.734 34.9511 18.463C34.6967 18.192 34.5695 17.8877 34.5695 17.55C34.5695 17.2123 34.7051 16.9163 34.9761 16.6619C35.2471 16.4076 35.5515 16.2804 35.8892 16.2804H38.3565L37.0979 14.1065C36.9123 13.8022 36.8612 13.4764 36.9445 13.1293C37.0279 12.7822 37.2217 12.5254 37.5261 12.3587C37.8493 12.1732 38.1845 12.1304 38.5316 12.2304C38.8787 12.3304 39.145 12.542 39.3305 12.8652L40.5109 14.9891L41.7196 12.8152C41.9051 12.492 42.1631 12.2888 42.4935 12.2054C42.8239 12.1221 43.1413 12.1732 43.4457 12.3587C43.7689 12.5442 43.9852 12.8058 44.0946 13.1435C44.204 13.4812 44.166 13.8116 43.9804 14.1348L42.7218 16.2804H45.2109C45.5674 16.2804 45.8681 16.4076 46.113 16.6619C46.358 16.9163 46.4804 17.2123 46.4804 17.55C46.4804 17.8877 46.358 18.192 46.113 18.463C45.8681 18.734 45.5674 18.8695 45.2109 18.8695H42.7218L44.0305 21.0152C44.216 21.3384 44.2587 21.6772 44.1587 22.0315C44.0587 22.3859 43.8471 22.6558 43.524 22.8413C43.2008 23.0457 42.8573 23.0884 42.4935 22.9695C42.1297 22.8507 41.8551 22.6297 41.6696 22.3065L40.5109 20.2609Z" fill="#191A1B"/>
</svg>
