<svg width="48" height="48" viewBox="0 0 48 48" fill="none" xmlns="http://www.w3.org/2000/svg">
<path d="M27.3109 26.35C25.6442 26.35 24.2276 25.7666 23.0609 24.6C21.8942 23.4333 21.3109 22.0166 21.3109 20.35C21.3109 18.6833 21.8942 17.2666 23.0609 16.1C24.2276 14.9333 25.6442 14.35 27.3109 14.35C28.9776 14.35 30.3942 14.9333 31.5609 16.1C32.7276 17.2666 33.3109 18.6833 33.3109 20.35C33.3109 22.0166 32.7276 23.4333 31.5609 24.6C30.3942 25.7666 28.9776 26.35 27.3109 26.35ZM11.9892 34C10.882 34 9.94039 33.6119 9.16426 32.8358C8.38809 32.0596 8.00001 31.118 8.00001 30.0108V10.6891C8.00001 9.5921 8.38809 8.65298 9.16426 7.87175C9.94039 7.09055 10.882 6.69995 11.9892 6.69995H42.6891C43.7784 6.69995 44.7108 7.09055 45.4865 7.87175C46.2622 8.65298 46.6501 9.5921 46.6501 10.6891V30.0108C46.6501 31.118 46.2622 32.0596 45.4865 32.8358C44.7108 33.6119 43.7784 34 42.6891 34H11.9892ZM16.6501 30.35H38C38 28.95 38.4833 27.7666 39.45 26.8C40.4167 25.8333 41.6 25.35 43 25.35V15.35C41.6 15.35 40.4167 14.8619 39.45 13.8858C38.4833 12.9097 38 11.7311 38 10.35H16.6501C16.6501 11.7311 16.1667 12.9097 15.2001 13.8858C14.2334 14.8619 13.0501 15.35 11.6501 15.35V25.35C13.0501 25.35 14.2334 25.8333 15.2001 26.8C16.1667 27.7666 16.6501 28.95 16.6501 30.35ZM38.0196 40.6501H5.31091C4.22164 40.6501 3.28917 40.2622 2.51351 39.4865C1.73784 38.7108 1.35001 37.7784 1.35001 36.6891V15.9805C1.35001 15.4236 1.54169 14.9543 1.92506 14.5726C2.30846 14.1909 2.77984 14 3.33921 14C3.89857 14 4.36702 14.1909 4.74456 14.5726C5.12212 14.9543 5.31091 15.4236 5.31091 15.9805V36.6891H38.0196C38.5765 36.6891 39.0458 36.8808 39.4275 37.2642C39.8092 37.6476 40 38.119 40 38.6784C40 39.2377 39.8092 39.7062 39.4275 40.0837C39.0458 40.4613 38.5765 40.6501 38.0196 40.6501Z" fill="#191A1B"/>
</svg>
