<svg width="48" height="48" viewBox="0 0 48 48" fill="none" xmlns="http://www.w3.org/2000/svg">
<path fill-rule="evenodd" clip-rule="evenodd" d="M40.6482 14.4756C40.4944 14.8141 40.0328 14.5782 40.0328 14.5782L39.6738 14.4449C39.6738 14.4449 39.2225 14.3218 39.2841 13.9115L39.4379 12.3935C39.4379 12.2293 39.4584 11.9832 39.8482 11.9216C40.0738 11.8806 40.32 11.8909 40.32 11.8909C40.32 11.8909 40.597 11.8396 40.7508 12.3011C40.9269 13.0097 40.8948 13.754 40.6585 14.4449M39.9713 18.0759C39.7456 19.1426 38.7609 20.517 38.1045 21.0196C37.6224 21.3684 37.1506 20.6709 37.1506 20.6709L36.7608 20.1888C36.7608 20.1888 36.248 19.6452 36.6377 19.1221L38.0737 17.122C38.2071 16.886 38.4225 16.5783 39.0276 16.7937C39.3764 16.9168 39.7046 17.1425 39.7046 17.1425C39.7046 17.1425 40.1149 17.2963 39.961 18.0656M35.3146 23.0505C34.7272 23.5278 34.0744 23.9181 33.376 24.2096C32.5862 24.5583 32.3503 24.4147 32.2477 24.1891L31.7964 23.5737C31.5195 23.1941 31.8272 23.0403 31.8272 23.0403L32.6067 22.7121C32.9554 22.5377 33.1708 22.3736 33.8376 21.7274C34.2478 21.3479 34.6273 21.7274 34.6273 21.7274L35.2428 22.2402C35.571 22.5992 35.4479 22.9069 35.3146 23.0608M20.7495 26.3738C20.7495 26.3738 20.2982 26.4456 19.929 26.5379C19.5597 26.6303 19.3136 26.7431 18.5238 27.2559C18.0622 27.5637 17.7545 27.0918 17.7545 27.0918L17.2416 26.4559C16.9955 26.0456 17.1698 25.7584 17.3442 25.6353C18.0169 25.2918 18.7353 25.0466 19.4777 24.9071C20.329 24.7224 20.5239 24.9276 20.5854 25.1532L20.8931 25.8712C21.0983 26.302 20.7495 26.3841 20.7495 26.3841M15.7441 29.1535L13.9183 30.8151C13.7337 31.0203 13.4568 31.2767 12.9131 30.9382C12.7008 30.8 12.5047 30.6383 12.3285 30.4561C12.3285 30.4561 11.949 30.2202 12.267 29.492C12.708 28.497 13.9491 27.338 14.6979 26.9995C15.2415 26.7636 15.5595 27.5329 15.5595 27.5329L15.8467 28.0868C15.8467 28.0868 16.257 28.7227 15.7441 29.1535ZM12.3182 33.0512C12.1496 33.5284 11.9956 34.0107 11.8567 34.4974C11.8156 34.6615 11.7541 34.8872 11.3438 34.8769C11.1182 34.8667 10.872 34.8051 10.872 34.8051C10.872 34.8051 10.5951 34.7949 10.5335 34.3128C10.5069 33.5818 10.6922 32.8588 11.0669 32.2306C11.272 31.9229 11.7028 32.2409 11.7028 32.2409L12.031 32.446C12.031 32.446 12.4413 32.6512 12.308 33.0409M8.45133 30.7844C8.10259 30.6818 7.75385 30.4767 7.75385 30.4767C7.75385 30.4767 7.32305 30.3433 7.44613 29.5535C7.61025 28.4765 8.51287 27.0405 9.13855 26.5072C9.60012 26.1277 10.113 26.7944 10.113 26.7944L10.5233 27.2559C10.5233 27.2559 11.0771 27.7688 10.7079 28.3124L9.37446 30.3946C9.25138 30.6305 9.06675 30.9587 8.45133 30.7844ZM8.34875 34.4974C8.35901 34.6615 8.34875 34.9077 7.96924 35.0103C7.74359 35.0616 7.49742 35.0616 7.49742 35.0616C7.49742 35.0616 7.22048 35.1231 7.04611 34.6718C6.82801 33.9718 6.81732 33.2237 7.01534 32.5178C7.14868 32.1793 7.63076 32.364 7.63076 32.364L8.00001 32.4665C8.00001 32.4665 8.45133 32.5691 8.4103 32.9794L8.3385 34.4974M11.313 24.507C11.6208 24.1788 12.5747 23.5121 13.1798 23.2454C13.9491 22.8351 14.2055 22.989 14.3081 23.1941C14.4517 23.348 14.5133 23.4608 14.7902 23.7891C15.0979 24.1583 14.7902 24.3224 14.7902 24.3224L14.0312 24.7019C13.6927 24.9071 13.4875 25.0712 12.8516 25.7481C12.4721 26.1584 12.0618 25.7892 12.0618 25.7892L11.4054 25.3071C11.0669 24.9686 11.1489 24.6506 11.3028 24.4865M43.4074 8.8958C43.5612 7.43929 42.833 6.22896 41.4585 6.56744C40.1046 6.87516 38.0429 7.10081 36.7608 6.62899C34.812 5.91099 32.8836 5.72637 30.5861 6.5059C28.5647 7.28934 26.8664 8.73111 25.7652 10.5985C24.9242 12.1781 22.9548 15.5731 21.006 17.163C20.5136 17.5733 19.9597 17.9323 19.9597 17.9323C17.1903 20.0863 12.3695 20.1375 8.70775 23.0403C5.23061 25.82 1.98938 31.6152 5.53832 37.5643C9.08726 43.5134 16.7595 42.3851 18.134 42.0466C19.5084 41.7081 21.724 41.2876 25.037 36.9591C28.35 32.6306 30.0424 29.6766 34.453 27.5739C38.8635 25.4712 42.6586 23.1429 43.7459 16.7835C44.5459 12.1678 43.1817 11.0088 43.3971 8.90605" fill="#191A1B"/>
</svg>
