<svg width="48" height="48" viewBox="0 0 48 48" fill="none" xmlns="http://www.w3.org/2000/svg">
<path d="M41.2527 44.0044C36.8741 44.0044 32.4635 42.986 28.0208 40.9494C23.5781 38.9127 19.4852 36.0243 15.7421 32.284C11.9931 28.5351 9.09886 24.4371 7.05932 19.9901C5.01977 15.5431 4 11.1332 4 6.76035C4 5.98315 4.26359 5.32878 4.79076 4.79725C5.31793 4.26575 5.97012 4 6.74732 4H14.7778C15.452 4 16.0219 4.20991 16.4874 4.62972C16.9529 5.04953 17.2636 5.59679 17.4196 6.2715L18.8695 13.167C18.9654 13.8133 18.9511 14.383 18.8267 14.8762C18.7022 15.3694 18.4539 15.7919 18.0819 16.1436L12.6221 21.5102C13.4599 22.9468 14.3766 24.3057 15.3722 25.5868C16.3678 26.868 17.4752 28.0972 18.6945 29.2743C19.9293 30.5391 21.2134 31.6878 22.5467 32.7203C23.8801 33.7528 25.2731 34.6642 26.7258 35.4546L31.9623 30.1394C32.3863 29.6941 32.8813 29.3871 33.4474 29.2182C34.0136 29.0493 34.5927 29.0187 35.1847 29.1261L41.7285 30.5413C42.4153 30.7331 42.9656 31.0764 43.3794 31.5713C43.7931 32.0662 44 32.6481 44 33.317V41.2527C44 42.0299 43.7343 42.6828 43.2028 43.2114C42.6712 43.7401 42.0212 44.0044 41.2527 44.0044Z" fill="#191A1B"/>
</svg>
