<svg width="48" height="48" viewBox="0 0 48 48" fill="none" xmlns="http://www.w3.org/2000/svg">
<path d="M41.2527 44.0044C36.8732 44.0044 32.4624 42.986 28.0201 40.9494C23.5779 38.9127 19.4838 36.0221 15.7377 32.2775C11.9917 28.5329 9.09886 24.4375 7.05932 19.9914C5.01977 15.5453 4 11.1349 4 6.76035C4 5.97497 4.26248 5.31857 4.78743 4.79114C5.31239 4.26371 5.96569 4 6.74732 4H14.7778C15.452 4 16.0219 4.20991 16.4874 4.62972C16.9529 5.04953 17.2636 5.59679 17.4196 6.2715L18.867 13.154C18.9646 13.8089 18.9511 14.383 18.8267 14.8762C18.7022 15.3694 18.4512 15.7946 18.0736 16.1518L12.6221 21.5102C13.4599 22.9468 14.3766 24.3057 15.3722 25.5868C16.3678 26.868 17.4752 28.0972 18.6945 29.2743C19.9293 30.5391 21.2134 31.6878 22.5467 32.7203C23.8801 33.7528 25.2731 34.6642 26.7258 35.4546L31.9623 30.1394C32.3863 29.6941 32.8831 29.3871 33.4529 29.2182C34.0228 29.0493 34.6 29.0187 35.1847 29.1261L41.7285 30.5413C42.4153 30.7331 42.9656 31.077 43.3794 31.5729C43.7931 32.0689 44 32.6503 44 33.317V41.2527C44 42.0389 43.736 42.694 43.2079 43.2182C42.6799 43.7423 42.0281 44.0044 41.2527 44.0044ZM10.5928 17.7247L14.7245 13.6436L13.5966 8.13993H8.17113C8.2686 9.59973 8.50308 11.1106 8.87458 12.6727C9.24607 14.2347 9.81882 15.9187 10.5928 17.7247ZM30.5599 37.4866C31.9799 38.1329 33.496 38.6577 35.1082 39.061C36.7204 39.4644 38.3044 39.7143 39.8601 39.8107V34.3788L34.6239 33.2945L30.5599 37.4866Z" fill="#191A1B"/>
</svg>
