<svg width="48" height="48" viewBox="0 0 48 48" fill="none" xmlns="http://www.w3.org/2000/svg">
<path d="M17.4437 21.4834C18.9007 21.4834 20.3189 21.6495 21.6985 21.9815C23.078 22.3138 24.3472 22.8206 25.506 23.502C26.6648 24.1834 27.6709 25.0386 28.5245 26.0675C29.3781 27.0962 30 28.3011 30.3903 29.6821C30.5118 30.2272 30.3999 30.7116 30.0543 31.1351C29.7085 31.5586 29.2522 31.7704 28.6857 31.7704H6.15762C5.59102 31.7704 5.13481 31.5586 4.78896 31.1351C4.44341 30.7116 4.33142 30.2272 4.45298 29.6821C4.84327 28.3011 5.46107 27.0962 6.3064 26.0675C7.15173 25.0386 8.15379 24.1834 9.31258 23.502C10.4714 22.8206 11.7436 22.3138 13.1294 21.9815C14.5154 21.6495 15.9535 21.4834 17.4437 21.4834ZM5.55099 37.6481C5.12333 37.6481 4.75791 37.4958 4.45475 37.1912C4.15158 36.8862 4 36.5105 4 36.064C4 35.6411 4.15158 35.2781 4.45475 34.9753C4.75791 34.6724 5.12333 34.521 5.55099 34.521H29.2923C29.7199 34.521 30.0854 34.6734 30.3885 34.9784C30.6917 35.283 30.8433 35.6503 30.8433 36.0804C30.8433 36.5198 30.6917 36.8909 30.3885 37.1938C30.0854 37.4967 29.7199 37.6481 29.2923 37.6481H5.55099ZM5.55099 44C5.12333 44 4.75791 43.8494 4.45475 43.5483C4.15158 43.2472 4 42.8699 4 42.4163C4 41.9866 4.15158 41.6219 4.45475 41.3223C4.75791 41.0227 5.12333 40.8728 5.55099 40.8728H29.2923C29.7199 40.8728 30.0854 41.0253 30.3885 41.3302C30.6917 41.6349 30.8433 42.0022 30.8433 42.4322C30.8433 42.8787 30.6917 43.2517 30.3885 43.551C30.0854 43.8503 29.7199 44 29.2923 44H5.55099ZM39.0419 44H35.2411C34.7492 44 34.3348 43.8315 33.9978 43.4945C33.6608 43.1575 33.4923 42.743 33.4923 42.2512V31.2848C33.4923 28.4135 32.6013 25.8977 30.8194 23.7373C29.0372 21.5769 26.7685 20.0974 24.0132 19.2989C23.6948 19.2068 23.4222 19.0318 23.1956 18.774C22.9692 18.5161 22.8414 18.2278 22.8119 17.909L22.351 13.853C22.2756 13.3411 22.4147 12.8955 22.7682 12.5161C23.1217 12.1367 23.5573 11.947 24.0751 11.947H31.1753V5.59912C31.1753 5.13436 31.3322 4.75158 31.6459 4.45077C31.9594 4.15026 32.3464 4 32.8071 4C33.2677 4 33.6481 4.15026 33.9483 4.45077C34.2483 4.75158 34.3982 5.13436 34.3982 5.59912V11.947H42.0689C42.6022 11.947 43.0386 12.1404 43.3779 12.5272C43.7173 12.9139 43.8492 13.3559 43.7735 13.853L40.7903 42.4088C40.7438 42.873 40.5508 43.2542 40.2115 43.5523C39.8718 43.8508 39.482 44 39.0419 44Z" fill="#191A1B"/>
</svg>
