<svg width="48" height="48" viewBox="0 0 48 48" fill="none" xmlns="http://www.w3.org/2000/svg">
<path d="M26.9965 28.8468C26.3027 27.5326 25.033 26.464 23.1872 25.6411C21.3414 24.8184 19.4193 24.4071 17.4208 24.4071C15.4225 24.4071 13.4965 24.8184 11.6428 25.6411C9.78911 26.464 8.50905 27.5326 7.80265 28.8468H26.9965ZM17.4437 21.4834C18.9007 21.4834 20.3189 21.6495 21.6985 21.9815C23.078 22.3138 24.3472 22.8206 25.506 23.502C26.6648 24.1834 27.6709 25.0386 28.5245 26.0675C29.3781 27.0962 30 28.3011 30.3903 29.6821C30.5118 30.2272 30.3999 30.7116 30.0543 31.1351C29.7085 31.5586 29.2522 31.7704 28.6857 31.7704H6.15762C5.59102 31.7704 5.1348 31.5586 4.78896 31.1351C4.44341 30.7116 4.33142 30.2272 4.45298 29.6821C4.84327 28.3011 5.46107 27.0962 6.3064 26.0675C7.15173 25.0386 8.15379 24.1834 9.31258 23.502C10.4714 22.8206 11.7436 22.3138 13.1294 21.9815C14.5154 21.6495 15.9535 21.4834 17.4437 21.4834ZM5.44945 37.5466C5.03856 37.5466 4.69433 37.4047 4.41678 37.121C4.13893 36.8375 4 36.4862 4 36.0671C4 35.655 4.13893 35.3113 4.41678 35.0358C4.69433 34.7606 5.03856 34.623 5.44945 34.623H29.3938C29.8044 34.623 30.1486 34.7623 30.4265 35.0411C30.7043 35.3201 30.8433 35.6656 30.8433 36.0777C30.8433 36.4901 30.7043 36.838 30.4265 37.1214C30.1486 37.4049 29.8044 37.5466 29.3938 37.5466H5.44945ZM37.94 44H35.2411C34.7492 44 34.3348 43.8308 33.9978 43.4923C33.6608 43.1538 33.4923 42.7376 33.4923 42.2437C33.4923 41.7495 33.6608 41.3358 33.9978 41.0026C34.3348 40.6692 34.7492 40.5024 35.2411 40.5024H37.5638L39.9806 15.4446H24.1439C23.6447 15.4446 23.2359 15.2753 22.9174 14.9369C22.5987 14.5981 22.4393 14.1818 22.4393 13.6879C22.4393 13.194 22.6078 12.7804 22.9448 12.4472C23.2818 12.1138 23.6962 11.947 24.1881 11.947H31.1753V5.59912C31.1753 5.13436 31.3322 4.75158 31.6459 4.45077C31.9594 4.15026 32.3464 4 32.8071 4C33.2677 4 33.6481 4.15026 33.9483 4.45077C34.2483 4.75158 34.3982 5.13436 34.3982 5.59912V11.947H42.0689C42.5946 11.947 43.0364 12.1404 43.3943 12.5272C43.7522 12.9139 43.8933 13.3559 43.8177 13.853L40.9669 41.1762C40.8595 41.9709 40.5244 42.6402 39.9616 43.1841C39.3985 43.728 38.7247 44 37.94 44ZM5.44945 44C5.03856 44 4.69433 43.8583 4.41678 43.5748C4.13893 43.2911 4 42.9397 4 42.5205C4 42.1085 4.13893 41.7648 4.41678 41.4896C4.69433 41.2141 5.03856 41.0764 5.44945 41.0764H29.3938C29.8044 41.0764 30.1486 41.2159 30.4265 41.4949C30.7043 41.7737 30.8433 42.1192 30.8433 42.5316C30.8433 42.9436 30.7043 43.2914 30.4265 43.5748C30.1486 43.8583 29.8044 44 29.3938 44H5.44945Z" fill="#191A1B"/>
</svg>
