<svg width="48" height="48" viewBox="0 0 48 48" fill="none" xmlns="http://www.w3.org/2000/svg">
<path d="M5.06625 13.225C4.40542 13.225 3.85 12.9979 3.4 12.5438C2.95 12.0896 2.725 11.5333 2.725 10.875V5.12501C2.725 4.46667 2.95208 3.90209 3.40625 3.43126C3.86042 2.96042 4.41667 2.72501 5.075 2.72501H10.825C11.4833 2.72501 12.0396 2.96126 12.4937 3.43376C12.9479 3.90629 13.175 4.47296 13.175 5.13376C13.175 5.79459 12.9479 6.35001 12.4937 6.80001C12.0396 7.25001 11.4833 7.47501 10.825 7.47501H7.425V10.875C7.425 11.5333 7.19708 12.0896 6.74125 12.5438C6.28538 12.9979 5.72705 13.225 5.06625 13.225ZM5.075 45.275C4.41667 45.275 3.86042 45.0479 3.40625 44.5938C2.95208 44.1396 2.725 43.5833 2.725 42.925V37.175C2.725 36.5167 2.95292 35.9604 3.40875 35.5063C3.86462 35.0521 4.42295 34.825 5.08375 34.825C5.74458 34.825 6.3 35.0521 6.75 35.5063C7.2 35.9604 7.425 36.5167 7.425 37.175V40.575H10.825C11.4833 40.575 12.0396 40.8029 12.4937 41.2588C12.9479 41.7146 13.175 42.273 13.175 42.9338C13.175 43.5946 12.9479 44.15 12.4937 44.6C12.0396 45.05 11.4833 45.275 10.825 45.275H5.075ZM37.125 45.275C36.4667 45.275 35.9104 45.0471 35.4562 44.5913C35.0021 44.1354 34.775 43.5771 34.775 42.9163C34.775 42.2554 35.0021 41.7 35.4562 41.25C35.9104 40.8 36.4667 40.575 37.125 40.575H40.525V37.175C40.525 36.5167 40.7529 35.9604 41.2087 35.5063C41.6646 35.0521 42.2229 34.825 42.8837 34.825C43.5446 34.825 44.1083 35.0521 44.575 35.5063C45.0417 35.9604 45.275 36.5167 45.275 37.175V42.925C45.275 43.5833 45.0396 44.1396 44.5687 44.5938C44.0979 45.0479 43.5333 45.275 42.875 45.275H37.125ZM42.8662 13.225C42.2054 13.225 41.65 12.9979 41.2 12.5438C40.75 12.0896 40.525 11.5333 40.525 10.875V7.47501H37.125C36.4667 7.47501 35.9104 7.24709 35.4562 6.79126C35.0021 6.33539 34.775 5.77706 34.775 5.11626C34.775 4.45542 35.0021 3.89167 35.4562 3.42501C35.9104 2.95834 36.4667 2.72501 37.125 2.72501H42.875C43.5333 2.72501 44.0979 2.96042 44.5687 3.43126C45.0396 3.90209 45.275 4.46667 45.275 5.12501V10.875C45.275 11.5333 45.0387 12.0896 44.5662 12.5438C44.0937 12.9979 43.5271 13.225 42.8662 13.225ZM35.375 35.475H38.525V38.625H35.375V35.475ZM35.375 29.175H38.525V32.325H35.375V29.175ZM32.225 32.325H35.375V35.475H32.225V32.325ZM29.075 35.475H32.225V38.625H29.075V35.475ZM25.925 32.325H29.075V35.475H25.925V32.325ZM32.225 26.025H35.375V29.175H32.225V26.025ZM29.075 29.175H32.225V32.325H29.075V29.175ZM25.925 26.025H29.075V29.175H25.925V26.025ZM38.525 9.42501V22.025H25.925V9.42501H38.525ZM21.975 26.025V38.625H9.375V26.025H21.975ZM21.975 9.42501V22.025H9.375V9.42501H21.975ZM18.925 35.575V29.075H12.425V35.575H18.925ZM18.925 18.975V12.475H12.425V18.975H18.925ZM35.475 18.975V12.475H28.975V18.975H35.475Z" fill="#191A1B"/>
</svg>
