<svg width="48" height="48" viewBox="0 0 48 48" fill="none" xmlns="http://www.w3.org/2000/svg">
<path d="M23.825 41.275C19.0583 41.275 14.9917 39.5916 11.625 36.225C8.25833 32.8583 6.575 28.7916 6.575 24.025C6.575 19.2583 8.25833 15.1833 11.625 11.8C14.9917 8.41664 19.0583 6.72498 23.825 6.72498C26.8583 6.72498 29.5333 7.33331 31.85 8.54998C34.1667 9.76664 36.1583 11.475 37.825 13.675V8.52498C37.825 8.01164 37.9883 7.58331 38.315 7.23997C38.6417 6.89664 39.0783 6.72498 39.625 6.72498C40.1383 6.72498 40.5667 6.89664 40.91 7.23997C41.2533 7.58331 41.425 8.01164 41.425 8.52498V18.925C41.425 19.5916 41.1917 20.15 40.725 20.6C40.2583 21.05 39.6917 21.275 39.025 21.275H28.575C28.0758 21.275 27.6594 21.1033 27.3257 20.76C26.9919 20.4166 26.825 19.9883 26.825 19.475C26.825 18.9758 26.9967 18.5594 27.34 18.2256C27.6833 17.8919 28.1117 17.725 28.625 17.725H35.025C33.725 15.8583 32.1569 14.35 30.3207 13.2C28.4846 12.05 26.3193 11.475 23.825 11.475C20.325 11.475 17.3583 12.6916 14.925 15.125C12.4917 17.5583 11.275 20.525 11.275 24.025C11.275 27.525 12.4917 30.4916 14.925 32.925C17.3583 35.3583 20.325 36.575 23.825 36.575C26.0583 36.575 28.1583 36.0166 30.125 34.9C32.0917 33.7833 33.625 32.2583 34.725 30.325C35.0791 29.7863 35.5592 29.4016 36.1656 29.171C36.7719 28.9403 37.3707 28.9583 37.9621 29.225C38.5707 29.4583 38.9917 29.85 39.225 30.4C39.4583 30.95 39.4417 31.4916 39.175 32.025C37.7083 34.8583 35.6 37.1083 32.85 38.775C30.1 40.4416 27.0917 41.275 23.825 41.275Z" fill="#191A1B"/>
</svg>
