<svg width="48" height="48" viewBox="0 0 48 48" fill="none" xmlns="http://www.w3.org/2000/svg">
<path d="M31.652 28.9805C31.0953 28.9805 30.626 28.7888 30.244 28.4055C29.8623 28.0222 29.6715 27.5507 29.6715 26.991C29.6715 26.4317 29.8623 25.9633 30.244 25.586C30.626 25.2083 31.0953 25.0195 31.652 25.0195H44.652C45.209 25.0195 45.6783 25.2112 46.06 25.5945C46.4417 25.9778 46.6325 26.4493 46.6325 27.009C46.6325 27.5683 46.4417 28.0367 46.06 28.414C45.6783 28.7917 45.209 28.9805 44.652 28.9805H31.652ZM2.265 17.4675C2.265 14.2492 3.34083 11.5257 5.4925 9.297C7.64417 7.06866 10.3038 5.9545 13.4715 5.9545C15.3582 5.9545 17.1038 6.36783 18.7085 7.1945C20.3128 8.02116 21.7338 9.24683 22.9715 10.8715C24.4095 9.16583 25.9027 7.91983 27.451 7.1335C28.9993 6.3475 30.6698 5.9545 32.4625 5.9545C35.7528 5.9545 38.453 7.08383 40.563 9.3425C42.6733 11.6012 43.7118 14.2797 43.6785 17.378C43.6785 17.7317 43.6535 18.072 43.6035 18.399C43.5535 18.7257 43.4878 19.0587 43.4065 19.398C43.3255 19.94 43.0733 20.3367 42.65 20.588C42.2267 20.8393 41.7847 20.9375 41.324 20.8825C40.863 20.8275 40.4463 20.6182 40.074 20.2545C39.7013 19.8905 39.518 19.3477 39.524 18.626C39.5717 18.381 39.6075 18.132 39.6315 17.879C39.6555 17.6257 39.6675 17.361 39.6675 17.085C39.5732 15.24 38.8282 13.5885 37.4325 12.1305C36.0368 10.6725 34.3832 9.9435 32.4715 9.9435C30.7998 9.9435 29.2968 10.4225 27.9625 11.3805C26.6282 12.3385 25.6008 13.5892 24.8805 15.1325C24.6762 15.5122 24.3977 15.8183 24.045 16.051C23.6927 16.2837 23.3182 16.4 22.9215 16.4C22.5275 16.4 22.162 16.2883 21.825 16.065C21.488 15.842 21.2268 15.5312 21.0415 15.1325C20.3398 13.5702 19.3233 12.3148 17.992 11.3665C16.6607 10.4178 15.1515 9.9435 13.4645 9.9435C11.3258 9.9435 9.5895 10.6627 8.2555 12.101C6.9215 13.5397 6.2545 15.3248 6.2545 17.4565C6.2545 18.7825 6.50867 20.061 7.017 21.292C7.52567 22.523 8.4095 23.9215 9.6685 25.4875C10.9272 27.0535 12.6403 28.8775 14.808 30.9595C16.9757 33.0415 19.6968 35.618 22.9715 38.689L26.465 35.626C26.8277 35.2653 27.2687 35.0922 27.788 35.1065C28.307 35.1212 28.7568 35.3187 29.1375 35.699C29.5358 36.078 29.7302 36.5502 29.7205 37.1155C29.7112 37.6805 29.4927 38.1435 29.065 38.5045L25.615 41.574C25.2397 41.916 24.8163 42.1642 24.345 42.3185C23.8737 42.4728 23.4117 42.55 22.959 42.55C22.5067 42.55 22.0528 42.4708 21.5975 42.3125C21.1422 42.1542 20.7357 41.9007 20.378 41.552C18.0637 39.4317 15.8202 37.361 13.6475 35.34C11.4752 33.319 9.54633 31.319 7.861 29.34C6.17533 27.361 4.82133 25.386 3.799 23.415C2.77633 21.4443 2.265 19.4618 2.265 17.4675Z" fill="#191A1B"/>
</svg>
