<svg width="48" height="48" viewBox="0 0 48 48" fill="none" xmlns="http://www.w3.org/2000/svg">
<path d="M31.652 28.9805C31.087 28.9805 30.6157 28.7917 30.238 28.414C29.8603 28.0367 29.6715 27.5653 29.6715 27C29.6715 26.4347 29.8603 25.9633 30.238 25.586C30.6157 25.2083 31.087 25.0195 31.652 25.0195H44.652C45.2174 25.0195 45.6889 25.2083 46.0665 25.586C46.4439 25.9633 46.6325 26.4347 46.6325 27C46.6325 27.5653 46.4439 28.0367 46.0665 28.414C45.6889 28.7917 45.2174 28.9805 44.652 28.9805H31.652ZM22.9715 42.65C22.5108 42.65 22.0537 42.5645 21.6 42.3935C21.1463 42.2225 20.739 41.9753 20.378 41.652C17.997 39.513 15.7118 37.4377 13.5225 35.426C11.3335 33.4143 9.40468 31.4273 7.73601 29.465C6.06701 27.5027 4.73801 25.544 3.74901 23.589C2.75968 21.634 2.26501 19.6268 2.26501 17.5675C2.26501 14.3602 3.33935 11.6228 5.48801 9.3555C7.63668 7.08816 10.2978 5.9545 13.4715 5.9545C15.3528 5.9545 17.0972 6.38083 18.7045 7.2335C20.3115 8.0865 21.7338 9.32533 22.9715 10.95C24.4095 9.244 25.9023 7.985 27.45 7.173C28.9977 6.36066 30.6715 5.9545 32.4715 5.9545C34.3252 5.9545 36.0332 6.4135 37.5955 7.3315C39.1578 8.2495 40.4362 9.42383 41.4305 10.8545C42.0465 11.6238 42.1382 12.439 41.7055 13.3C41.2729 14.161 40.5819 14.5675 39.6325 14.5195H38.735C34.8957 14.5195 31.7587 15.7427 29.324 18.189C26.889 20.6353 25.6715 23.5723 25.6715 27C25.6715 28.626 25.964 30.1778 26.549 31.6555C27.1337 33.1332 28.039 34.4168 29.265 35.5065C29.7013 35.9008 29.9065 36.3863 29.8805 36.963C29.8545 37.54 29.6348 38.0277 29.2215 38.426L25.565 41.624C25.2043 41.966 24.7972 42.2225 24.3435 42.3935C23.8898 42.5645 23.4325 42.65 22.9715 42.65Z" fill="#191A1B"/>
</svg>
