<svg width="48" height="48" viewBox="0 0 48 48" fill="none" xmlns="http://www.w3.org/2000/svg">
<path fill-rule="evenodd" clip-rule="evenodd" d="M21.239 4.62897C21.7683 4.09968 22.5132 3.88404 23.2385 4.06047L30.6291 5.76598C31.4328 5.94241 32.0601 6.56973 32.2365 7.37347L33.9421 14.764C34.0989 15.4893 33.8832 16.2343 33.3736 16.7636L16.7693 33.3678C15.9264 34.2107 14.5737 34.2107 13.7308 33.3678L4.63475 24.2717C3.79179 23.4288 3.79179 22.0761 4.63475 21.2332L21.239 4.62897ZM24.3559 10.6081C23.513 11.451 23.513 12.8037 24.3559 13.6466C25.1989 14.4896 26.5515 14.4896 27.3945 13.6466C28.2374 12.8037 28.2374 11.451 27.3945 10.6081C26.5515 9.7651 25.1989 9.7651 24.3559 10.6081Z" fill="#005F85"/>
<path fill-rule="evenodd" clip-rule="evenodd" d="M11.0843 26.1537C13.5348 28.6041 16.6321 29.996 19.8079 30.3292L16.7693 33.3678C15.9264 34.2107 14.5737 34.2107 13.7308 33.3678L4.63475 24.2521C3.79179 23.4092 3.79179 22.0565 4.63475 21.2136L7.1048 18.7435C7.65369 21.4684 8.96713 24.0561 11.0647 26.1537H11.0843Z" fill="#003950"/>
<path d="M43.9975 30C43.9975 37.732 37.7295 44 29.9975 44C22.2655 44 15.9975 37.732 15.9975 30C15.9975 22.268 22.2655 16 29.9975 16C37.7295 16 43.9975 22.268 43.9975 30Z" fill="#FFE097"/>
<path fill-rule="evenodd" clip-rule="evenodd" d="M35.5371 25.4792C35.2026 26.471 34.7453 27.902 34.0902 30.4297L33.6687 32.097C33.6169 32.3076 33.5643 32.5215 33.511 32.7435C33.3327 33.478 33.0092 34.6173 32.904 35.0316C32.7433 35.6849 32.557 36.068 31.8405 36.2697C31.8405 36.2697 31.4673 36.3875 31.0173 36.3252C30.0452 36.1926 29.9992 35.4696 29.8377 34.8854C29.5916 33.9918 29.3294 31.8053 29.2958 30.5353C29.2921 30.4054 29.2892 30.2761 29.2863 30.1461C29.2841 30.1034 29.2826 30.0608 29.2804 30.0188C29.279 29.9511 29.2731 29.9227 29.2673 29.9031C29.2563 29.8638 29.2293 29.8503 29.1826 29.8611C29.1365 29.8719 29.1015 29.9207 29.0299 30.1028C28.9101 30.4609 28.6859 31.152 28.515 31.7701C28.2155 32.8085 27.8656 34.0047 27.7115 34.6803C27.5377 35.3125 27.3631 35.9455 27.19 36.5777C27.0542 37.1457 26.4384 37.5058 26.0316 37.6047C25.5882 37.7116 25.3297 37.7306 24.9929 37.6514C24.5401 37.5451 24.2779 37.0144 24.1449 36.5371C24.0704 36.2704 23.9317 35.7742 23.8791 35.1663C23.7754 33.958 23.7308 33.1091 23.7659 31.8865C23.806 30.4717 23.955 28.4023 24.0536 27.2542C24.0712 26.8731 24.0887 26.4926 24.1055 26.1115C24.107 25.6877 24.0799 25.4244 24.0237 25.2349C23.9755 25.0737 23.9141 24.9837 23.7951 24.8239C23.7549 24.7698 23.714 24.7339 23.703 24.6967C23.6337 24.4496 24.2202 23.9994 25.0046 23.8343C25.4911 23.7314 25.914 23.7104 26.2595 23.9927C26.4808 24.2249 26.5151 24.451 26.502 24.9208C26.4969 25.0792 26.4749 25.312 26.4538 25.5347C26.3924 26.2719 26.1879 27.5602 26.1273 28.2974C26.0214 29.3182 25.9118 30.4602 25.8848 31.5115C25.8716 32.0273 25.865 33.0055 25.9074 33.1585C25.9293 33.2357 25.9673 33.2878 26.036 33.2702C26.1039 33.2519 26.1397 33.2018 26.2412 32.9493C26.2697 32.8464 26.2974 32.7429 26.3259 32.64C26.3544 32.5364 26.3829 32.4335 26.4114 32.3299C26.4114 32.3299 26.8715 30.8373 27.2616 29.6174C27.6779 28.4409 28.0972 27.2278 28.3733 26.5447C28.783 25.5374 28.9919 24.7982 29.7011 24.631C30.4118 24.4652 31.0626 24.7549 31.197 25.2416C31.2657 25.4934 31.2679 25.6519 31.2379 26.6348C31.1868 28.3556 31.3051 29.7156 31.3497 31.0275C31.3855 31.5981 31.4344 32.0422 31.4936 32.2568C31.5206 32.3543 31.5776 32.3834 31.6236 32.3739C31.7149 32.355 31.7441 32.2866 31.8011 32.0476C31.8252 31.9325 31.85 31.8168 31.8756 31.7017C32.0421 30.9341 32.2094 30.1657 32.3766 29.3981C32.7645 27.7138 33.0355 26.7207 33.5124 25.1611C34.0799 23.3096 34.4985 22.4689 35.2106 22.3226C35.8826 22.1852 36.2602 22.6977 36.296 23.2047C36.3099 23.378 36.2244 23.753 36.082 24.0272C35.9008 24.5112 35.719 24.9952 35.5371 25.4792Z" fill="#AE1B22"/>
</svg>
