<svg width="48" height="48" viewBox="0 0 48 48" fill="none" xmlns="http://www.w3.org/2000/svg">
<path d="M44 24C44 35.0457 35.0457 44 24 44C12.9543 44 4 35.0457 4 24C4 12.9543 12.9543 4 24 4C35.0457 4 44 12.9543 44 24Z" fill="#FFE097"/>
<path fill-rule="evenodd" clip-rule="evenodd" d="M31.9138 17.5418C31.4359 18.9585 30.7827 21.0029 29.8467 24.6139L29.2446 26.9958C29.1706 27.2965 29.0954 27.6021 29.0193 27.9193C28.7647 28.9686 28.3024 30.5962 28.1522 31.188C27.9226 32.1212 27.6565 32.6686 26.6329 32.9568C26.6329 32.9568 26.0997 33.125 25.457 33.0361C24.0681 32.8465 24.0024 31.8137 23.7718 30.9791C23.4202 29.7026 23.0456 26.579 22.9976 24.7648C22.9924 24.5791 22.9882 24.3944 22.984 24.2087C22.9809 24.1478 22.9788 24.0869 22.9757 24.0269C22.9736 23.9302 22.9652 23.8896 22.9569 23.8615C22.9412 23.8054 22.9026 23.7861 22.8358 23.8016C22.7701 23.817 22.72 23.8867 22.6178 24.1468C22.4466 24.6584 22.1263 25.6458 21.8821 26.5287C21.4543 28.0122 20.9545 29.721 20.7344 30.6861C20.486 31.5893 20.2366 32.4935 19.9893 33.3968C19.7953 34.2081 18.9156 34.7226 18.3344 34.8638C17.7011 35.0166 17.3317 35.0437 16.8507 34.9305C16.2037 34.7787 15.8292 34.0205 15.6392 33.3388C15.5328 32.9577 15.3346 32.2489 15.2594 31.3805C15.1113 29.6542 15.0476 28.4415 15.0977 26.695C15.1551 24.6739 15.368 21.7175 15.5088 20.0774C15.5339 19.5329 15.5589 18.9895 15.5829 18.445C15.585 17.8396 15.5464 17.4634 15.466 17.1926C15.3972 16.9625 15.3095 16.8339 15.1394 16.6056C15.082 16.5283 15.0236 16.477 15.008 16.4238C14.9088 16.0709 15.7467 15.4278 16.8674 15.1918C17.5623 15.0448 18.1665 15.0148 18.66 15.4181C18.9762 15.7498 19.0252 16.0728 19.0064 16.7439C18.9991 16.9702 18.9678 17.3029 18.9376 17.6211C18.8499 18.6742 18.5577 20.5145 18.4711 21.5676C18.3198 23.026 18.1633 24.6574 18.1247 26.1593C18.1059 26.8962 18.0965 28.2936 18.1571 28.5121C18.1884 28.6224 18.2426 28.6968 18.3407 28.6717C18.4377 28.6456 18.4889 28.574 18.6339 28.2133C18.6746 28.0663 18.7143 27.9184 18.755 27.7714C18.7956 27.6234 18.8363 27.4764 18.877 27.3285C18.877 27.3285 19.5344 25.1961 20.0916 23.4534C20.6864 21.7727 21.2853 20.0397 21.6797 19.0639C22.2651 17.6249 22.5635 16.5689 23.5767 16.33C24.592 16.0931 25.5217 16.507 25.7137 17.2023C25.8117 17.5621 25.8149 17.7884 25.7721 19.1925C25.699 21.6508 25.8681 23.5936 25.9317 25.4678C25.9829 26.2831 26.0528 26.9174 26.1373 27.224C26.1759 27.3633 26.2573 27.4049 26.323 27.3913C26.4535 27.3642 26.4952 27.2666 26.5766 26.9252C26.611 26.7608 26.6465 26.5954 26.683 26.431C26.9209 25.3344 27.1599 24.2367 27.3988 23.1401C27.9529 20.734 28.34 19.3154 29.0214 17.0872C29.8321 14.4423 30.43 13.2412 31.4473 13.0323C32.4073 12.836 32.9468 13.5681 32.9979 14.2924C33.0177 14.54 32.8956 15.0757 32.6922 15.4674C32.4334 16.1589 32.1736 16.8503 31.9138 17.5418Z" fill="#AE1B22"/>
</svg>
