<svg width="48" height="48" viewBox="0 0 48 48" fill="none" xmlns="http://www.w3.org/2000/svg">
<path d="M11.1 40.8195C11.1 41.3412 10.928 41.7767 10.584 42.126C10.24 42.4753 9.80834 42.65 9.28901 42.65H3.33051C2.77351 42.65 2.30417 42.4592 1.92251 42.0775C1.54084 41.6958 1.35001 41.2265 1.35001 40.6695V34.711C1.35001 34.1917 1.52751 33.76 1.88251 33.416C2.23784 33.072 2.67634 32.9 3.19801 32.9C3.71967 32.9 4.15034 33.072 4.49001 33.416C4.83001 33.76 5.00001 34.1917 5.00001 34.711V39H9.28901C9.80834 39 10.24 39.1728 10.584 39.5185C10.928 39.8642 11.1 40.2978 11.1 40.8195ZM44.798 32.9C45.3197 32.9 45.7503 33.072 46.09 33.416C46.43 33.76 46.6 34.1917 46.6 34.711V40.6695C46.6 41.2265 46.4092 41.6958 46.0275 42.0775C45.6458 42.4592 45.1765 42.65 44.6195 42.65H38.661C38.1417 42.65 37.71 42.4725 37.366 42.1175C37.022 41.7622 36.85 41.3237 36.85 40.802C36.85 40.2803 37.0267 39.8497 37.38 39.51C37.7337 39.17 38.17 39 38.689 39H42.95V34.711C42.95 34.1917 43.1275 33.76 43.4825 33.416C43.8378 33.072 44.2763 32.9 44.798 32.9ZM8.65451 36.45C8.39784 36.45 8.16634 36.3467 7.96001 36.14C7.75334 35.9337 7.65001 35.7022 7.65001 35.4455V12.476C7.65001 12.2197 7.75334 11.9928 7.96001 11.7955C8.16634 11.5985 8.39784 11.5 8.65451 11.5H10.674C10.9303 11.5 11.1572 11.6033 11.3545 11.81C11.5515 12.0163 11.65 12.2478 11.65 12.5045V35.474C11.65 35.7303 11.5515 35.9572 11.3545 36.1545C11.1572 36.3515 10.9303 36.45 10.674 36.45H8.65451ZM14.75 36.45C14.45 36.45 14.2 36.346 14 36.138C13.8 35.93 13.7 35.6875 13.7 35.4105V12.5395C13.7 12.2622 13.8 12.0197 14 11.812C14.2 11.604 14.45 11.5 14.75 11.5C15.05 11.5 15.3 11.604 15.5 11.812C15.7 12.0197 15.8 12.2622 15.8 12.5395V35.4105C15.8 35.6875 15.7 35.93 15.5 36.138C15.3 36.346 15.05 36.45 14.75 36.45ZM20.8045 36.45C20.5478 36.45 20.3163 36.3467 20.11 36.14C19.9033 35.9337 19.8 35.7022 19.8 35.4455V12.476C19.8 12.2197 19.9033 11.9928 20.11 11.7955C20.3163 11.5985 20.5478 11.5 20.8045 11.5H22.974C23.2303 11.5 23.4572 11.6033 23.6545 11.81C23.8515 12.0163 23.95 12.2478 23.95 12.5045V35.474C23.95 35.7303 23.8515 35.9572 23.6545 36.1545C23.4572 36.3515 23.2303 36.45 22.974 36.45H20.8045ZM27.0545 36.45C26.7978 36.45 26.5663 36.3467 26.36 36.14C26.1533 35.9337 26.05 35.7022 26.05 35.4455V12.476C26.05 12.2197 26.1533 11.9928 26.36 11.7955C26.5663 11.5985 26.7978 11.5 27.0545 11.5H31.124C31.3803 11.5 31.6072 11.6033 31.8045 11.81C32.0015 12.0163 32.1 12.2478 32.1 12.5045V35.474C32.1 35.7303 32.0015 35.9572 31.8045 36.1545C31.6072 36.3515 31.3803 36.45 31.124 36.45H27.0545ZM35.25 36.45C34.95 36.45 34.7 36.346 34.5 36.138C34.3 35.93 34.2 35.6875 34.2 35.4105V12.5395C34.2 12.2622 34.3 12.0197 34.5 11.812C34.7 11.604 34.95 11.5 35.25 11.5C35.55 11.5 35.8 11.604 36 11.812C36.2 12.0197 36.3 12.2622 36.3 12.5395V35.4105C36.3 35.6875 36.2 35.93 36 36.138C35.8 36.346 35.55 36.45 35.25 36.45ZM39.3 36.45C39.0467 36.45 38.825 36.355 38.635 36.165C38.445 35.975 38.35 35.7533 38.35 35.5V12.4685C38.35 12.1895 38.445 11.9583 38.635 11.775C38.825 11.5917 39.0467 11.5 39.3 11.5C39.5533 11.5 39.775 11.595 39.965 11.785C40.155 11.975 40.25 12.1967 40.25 12.45V35.481C40.25 35.7603 40.155 35.9917 39.965 36.175C39.775 36.3583 39.5533 36.45 39.3 36.45ZM11.1 7.16951C11.1 7.69117 10.928 8.12667 10.584 8.47601C10.24 8.82534 9.80834 9.00001 9.28901 9.00001H5.00001V13.289C5.00001 13.8083 4.82717 14.24 4.48151 14.584C4.13584 14.928 3.70217 15.1 3.18051 15.1C2.65884 15.1 2.22334 14.9233 1.87401 14.57C1.52467 14.2163 1.35001 13.78 1.35001 13.261V7.33051C1.35001 6.77351 1.54084 6.30417 1.92251 5.92251C2.30417 5.54084 2.77351 5.35001 3.33051 5.35001H9.28901C9.80834 5.35001 10.24 5.52284 10.584 5.86851C10.928 6.21417 11.1 6.64784 11.1 7.16951ZM36.85 7.15201C36.85 6.63034 37.0267 6.19967 37.38 5.86001C37.7337 5.52001 38.17 5.35001 38.689 5.35001H44.6195C45.1765 5.35001 45.6458 5.54084 46.0275 5.92251C46.4092 6.30417 46.6 6.77351 46.6 7.33051V13.289C46.6 13.8083 46.4272 14.24 46.0815 14.584C45.7358 14.928 45.3022 15.1 44.7805 15.1C44.2588 15.1 43.8233 14.9233 43.474 14.57C43.1247 14.2163 42.95 13.78 42.95 13.261V9.00001H38.661C38.1417 9.00001 37.71 8.8225 37.366 8.4675C37.022 8.11217 36.85 7.67367 36.85 7.15201Z" fill="#191A1B"/>
</svg>
