<svg width="48" height="48" viewBox="0 0 48 48" fill="none" xmlns="http://www.w3.org/2000/svg">
<path d="M19.1 32.65C15.2613 32.65 12.0099 31.3166 9.34595 28.65C6.68198 25.9833 5.35 22.7666 5.35 19C5.35 15.2333 6.68333 12.0166 9.35 9.34998C12.0167 6.68331 15.2417 5.34998 19.025 5.34998C22.8083 5.34998 26.025 6.68331 28.675 9.34998C31.325 12.0166 32.65 15.2358 32.65 19.0075C32.65 20.5025 32.4417 21.8916 32.025 23.175C31.6083 24.4583 30.9833 25.6666 30.15 26.8L41.95 38.5C42.4167 38.9852 42.65 39.5565 42.65 40.2139C42.65 40.8713 42.4167 41.4333 41.95 41.9C41.4656 42.4 40.8907 42.65 40.2255 42.65C39.5604 42.65 39.0019 42.4 38.55 41.9L26.8 30.2C25.8333 30.9641 24.6923 31.5634 23.377 31.9981C22.0617 32.4327 20.6361 32.65 19.1 32.65ZM19.0676 27.95C21.5642 27.95 23.6687 27.0791 25.3812 25.3375C27.0937 23.5958 27.95 21.4833 27.95 19C27.95 16.5166 27.0913 14.4041 25.3739 12.6625C23.6565 10.9208 21.5544 10.05 19.0676 10.05C16.5531 10.05 14.4215 10.9208 12.6729 12.6625C10.9243 14.4041 10.05 16.5166 10.05 19C10.05 21.4833 10.9218 23.5958 12.6655 25.3375C14.4093 27.0791 16.5433 27.95 19.0676 27.95Z" fill="#191A1B"/>
</svg>
