<svg width="48" height="48" viewBox="0 0 48 48" fill="none" xmlns="http://www.w3.org/2000/svg">
<path fill-rule="evenodd" clip-rule="evenodd" d="M29.038 21.4907C28.7378 22.2647 28.2203 22.2522 27.5802 22.2369C27.4921 22.2348 27.4017 22.2326 27.3092 22.2324H25.9646C25.5606 22.2369 25.1866 22.2355 24.7834 22.234C24.5705 22.2332 24.3495 22.2324 24.1116 22.2324H22.7632C22.5879 21.554 22.3356 20.1149 22.2258 19.3542L22.1572 18.8724C24.4485 18.9952 27.031 19.5364 28.9183 20.9267C29.1546 21.1012 29.1653 21.1645 29.038 21.4907ZM18.5389 22.2366H18.5389C18.3493 22.2368 18.1626 22.237 17.9794 22.237L17.1882 22.1899L17.1879 22.1899C16.2116 22.132 15.2843 22.077 14.358 22.0144C13.9746 21.9892 13.6293 21.8719 13.3655 21.5555C12.8807 20.9732 12.9791 20.3321 13.6521 19.9922C14.871 19.3786 16.2018 19.1819 17.535 19.0417C18.5168 18.9388 19.5054 18.8671 20.4933 18.8595C20.9213 18.8564 21.002 18.8558 21.0172 18.8871C21.0207 18.8943 21.0207 18.9033 21.0207 18.9144C21.1152 19.7284 21.3538 21.4267 21.5078 22.2324C21.5078 22.2324 21.4537 22.2522 21.0581 22.2469C20.2011 22.2352 19.3441 22.2359 18.5389 22.2366ZM44 25.3454C44 24.5077 43.6524 23.9589 42.8833 23.6616L42.8362 23.6433C42.5675 23.5387 42.2977 23.4337 42.0197 23.3559C39.1087 22.5442 36.1931 22.2065 33.1175 22.0639C31.8857 21.8703 31.4268 21.5197 31.4268 21.5197C31.4268 21.5197 29.368 20.3359 28.0379 19.6339C27.0988 19.1377 26.1323 18.7291 25.0812 18.5249C22.3114 17.9859 19.5272 18.1575 16.7438 18.3291L16.7087 18.3313C16.3688 18.3526 16.0806 18.3259 15.7674 18.1643C15.3832 17.9661 14.9418 17.8251 14.8146 18.4936C14.7711 18.7233 14.5849 18.7812 14.4043 18.8374C14.3601 18.8512 14.3162 18.8648 14.2749 18.8808C13.8645 19.0398 13.4529 19.1957 13.0414 19.3516C11.6298 19.8862 10.2186 20.4207 8.85764 21.0799C8.6526 21.1797 8.4102 21.2224 8.18001 21.2461C7.85194 21.2797 7.5255 21.3281 7.199 21.3765H7.199C6.54915 21.4728 5.89906 21.5692 5.23547 21.5494C4.80251 21.5372 4.70266 21.7575 4.68742 22.2172C4.68309 22.336 4.68172 22.4567 4.68035 22.5782C4.67425 23.1198 4.66795 23.6778 4.39776 24.1647C3.61113 25.5825 3.87792 28.2084 6.23019 28.3852C6.74337 28.4238 7.25549 28.4723 7.7675 28.5208L7.76759 28.5208L7.7683 28.5209C8.00512 28.5433 8.24192 28.5658 8.4788 28.5872C8.54106 28.5928 8.60111 28.5985 8.65921 28.6039L8.65956 28.6039C8.71942 28.6095 8.77721 28.615 8.83325 28.62C8.68613 28.2084 8.59162 27.7731 8.59162 27.3127C8.59162 25.1617 10.341 23.4124 12.4912 23.4124C14.6415 23.4124 16.3909 25.1617 16.3909 27.3127C16.3909 27.8189 16.2872 28.2998 16.1111 28.7435L33.6236 29.1795C33.3157 28.6223 33.1259 27.9919 33.1259 27.3127C33.1259 25.1617 34.8752 23.4124 37.0255 23.4124C39.1758 23.4124 40.9259 25.1617 40.9259 27.3127C40.9259 27.9538 40.7544 28.5514 40.4792 29.085C41.2034 29.0385 42.6242 28.9386 42.9847 28.854C43.5976 28.6977 43.9253 28.5483 43.8697 28.0773C43.8036 27.5253 43.862 26.987 43.9203 26.4497C43.9602 26.0825 44 25.7158 44 25.3454ZM12.4913 29.667C11.1909 29.667 10.1359 28.6128 10.1359 27.3124C10.1359 26.0113 11.1909 24.9571 12.4913 24.9571C13.7924 24.9571 14.8466 26.0113 14.8466 27.3124C14.8466 28.6128 13.7924 29.667 12.4913 29.667ZM12.4913 23.7939C10.5483 23.7939 8.97276 25.3687 8.97276 27.3124C8.97276 29.2554 10.5483 30.8309 12.4913 30.8309C14.435 30.8309 16.0098 29.2554 16.0098 27.3124C16.0098 25.3687 14.435 23.7939 12.4913 23.7939ZM34.6705 27.3124C34.6705 28.6128 35.7247 29.667 37.0259 29.667C38.3263 29.667 39.3804 28.6128 39.3804 27.3124C39.3804 26.0113 38.3263 24.9571 37.0259 24.9571C35.7247 24.9571 34.6705 26.0113 34.6705 27.3124ZM33.5074 27.3124C33.5074 25.3687 35.0822 23.7939 37.0259 23.7939C38.9688 23.7939 40.5444 25.3687 40.5444 27.3124C40.5444 29.2554 38.9688 30.8309 37.0259 30.8309C35.0822 30.8309 33.5074 29.2554 33.5074 27.3124Z" fill="#191A1B"/>
</svg>
