<svg width="48" height="48" viewBox="0 0 48 48" fill="none" xmlns="http://www.w3.org/2000/svg">
<path d="M27.2941 44H20.6941C20.3275 44 20.0025 43.8833 19.7191 43.65C19.4358 43.4167 19.2608 43.1167 19.1941 42.75L18.3941 37.7C17.7608 37.4667 17.0941 37.15 16.3941 36.75C15.6941 36.35 15.0775 35.9333 14.5441 35.5L9.89412 37.65C9.52746 37.8167 9.16079 37.8417 8.79412 37.725C8.42746 37.6083 8.14412 37.3667 7.94412 37L4.64412 31.15C4.44412 30.8167 4.39412 30.4667 4.49412 30.1C4.59412 29.7333 4.79412 29.4333 5.09412 29.2L9.39412 26.05C9.32746 25.75 9.28579 25.4083 9.26912 25.025C9.25246 24.6417 9.24412 24.3 9.24412 24C9.24412 23.7 9.25246 23.3583 9.26912 22.975C9.28579 22.5917 9.32746 22.25 9.39412 21.95L5.09412 18.8C4.79412 18.5667 4.59412 18.2667 4.49412 17.9C4.39412 17.5333 4.44412 17.1833 4.64412 16.85L7.94412 11C8.14412 10.6333 8.42746 10.3917 8.79412 10.275C9.16079 10.1583 9.52746 10.1833 9.89412 10.35L14.5441 12.5C15.0775 12.0667 15.6941 11.65 16.3941 11.25C17.0941 10.85 17.7608 10.55 18.3941 10.35L19.1941 5.25C19.2608 4.88333 19.4358 4.58333 19.7191 4.35C20.0025 4.11667 20.3275 4 20.6941 4H27.2941C27.6608 4 27.9858 4.11667 28.2691 4.35C28.5525 4.58333 28.7275 4.88333 28.7941 5.25L29.5941 10.3C30.2275 10.5333 30.9025 10.8417 31.6191 11.225C32.3358 11.6083 32.9441 12.0333 33.4441 12.5L38.0941 10.35C38.4608 10.1833 38.8275 10.1583 39.1941 10.275C39.5608 10.3917 39.8441 10.6333 40.0441 11L43.3441 16.8C43.5441 17.1333 43.6025 17.4917 43.5191 17.875C43.4358 18.2583 43.2275 18.5667 42.8941 18.8L38.5941 21.85C38.6608 22.1833 38.7025 22.5417 38.7191 22.925C38.7358 23.3083 38.7441 23.6667 38.7441 24C38.7441 24.3333 38.7358 24.6833 38.7191 25.05C38.7025 25.4167 38.6608 25.7667 38.5941 26.1L42.8941 29.2C43.1941 29.4333 43.3941 29.7333 43.4941 30.1C43.5941 30.4667 43.5441 30.8167 43.3441 31.15L40.0441 37C39.8441 37.3667 39.5608 37.6083 39.1941 37.725C38.8275 37.8417 38.4608 37.8167 38.0941 37.65L33.4441 35.5C32.9108 35.9333 32.3025 36.3583 31.6191 36.775C30.9358 37.1917 30.2608 37.5 29.5941 37.7L28.7941 42.75C28.7275 43.1167 28.5525 43.4167 28.2691 43.65C27.9858 43.8833 27.6608 44 27.2941 44ZM23.9941 30.5C25.7941 30.5 27.3275 29.8667 28.5941 28.6C29.8608 27.3333 30.4941 25.8 30.4941 24C30.4941 22.2 29.8608 20.6667 28.5941 19.4C27.3275 18.1333 25.7941 17.5 23.9941 17.5C22.1941 17.5 20.6608 18.1333 19.3941 19.4C18.1275 20.6667 17.4941 22.2 17.4941 24C17.4941 25.8 18.1275 27.3333 19.3941 28.6C20.6608 29.8667 22.1941 30.5 23.9941 30.5Z" fill="#191A1B"/>
</svg>
