<svg width="48" height="48" viewBox="0 0 48 48" fill="none" xmlns="http://www.w3.org/2000/svg">
<path d="M27.3613 44.3049H20.6178C20.1953 44.3049 19.8205 44.1723 19.4933 43.9071C19.1662 43.6419 18.9692 43.298 18.9026 42.8755L18.1145 37.9093C17.529 37.6999 16.9042 37.4051 16.2401 37.0251C15.5759 36.645 14.9971 36.2542 14.5037 35.8527L9.93737 37.9789C9.52287 38.1694 9.10637 38.1964 8.68787 38.0598C8.2694 37.9232 7.94822 37.6477 7.72432 37.2332L4.34062 31.2278C4.10872 30.8466 4.04875 30.4468 4.16072 30.0283C4.27265 29.6098 4.49855 29.268 4.83842 29.0028L9.06667 25.9125C9.00797 25.6364 8.97029 25.3187 8.95362 24.9592C8.93695 24.5998 8.92862 24.2821 8.92862 24.006C8.92862 23.7299 8.93695 23.4121 8.95362 23.0527C8.97029 22.6933 9.00797 22.3756 9.06667 22.0995L4.83842 18.9973C4.49859 18.7321 4.27269 18.3903 4.16072 17.9718C4.04875 17.5533 4.10872 17.1575 4.34062 16.7843L7.72432 10.7788C7.95619 10.3803 8.28135 10.1107 8.69982 9.9701C9.11832 9.82953 9.53084 9.85453 9.93737 10.0451L14.5276 12.1593C15.0131 11.7658 15.5859 11.381 16.246 11.0049C16.9062 10.6288 17.529 10.3488 18.1145 10.1647L18.9026 5.1245C18.9692 4.70203 19.1662 4.35818 19.4933 4.09295C19.8205 3.82772 20.1953 3.6951 20.6178 3.6951H27.3613C27.7837 3.6951 28.1586 3.82772 28.4857 4.09295C28.8129 4.35818 29.0098 4.70203 29.0765 5.1245L29.8645 10.1147C30.45 10.3321 31.0812 10.6205 31.758 10.9799C32.4348 11.3393 33.0073 11.7325 33.4754 12.1593L38.0417 10.0451C38.4482 9.85453 38.8627 9.82755 39.2852 9.96415C39.7076 10.1008 40.0308 10.3723 40.2547 10.7788L43.6504 16.7343C43.8823 17.1154 43.9486 17.5236 43.8493 17.9587C43.7501 18.3939 43.5138 18.7401 43.1406 18.9973L38.9004 21.9995C38.9591 22.3089 38.9988 22.6433 39.0194 23.0028C39.0401 23.3622 39.0504 23.6966 39.0504 24.006C39.0504 24.3154 39.0401 24.6415 39.0194 24.9843C38.9988 25.327 38.9591 25.6531 38.9004 25.9625L43.1406 29.0028C43.4805 29.268 43.7064 29.6098 43.8183 30.0283C43.9303 30.4468 43.8743 30.8466 43.6504 31.2278L40.2428 37.2332C40.0189 37.6477 39.6997 37.9232 39.2852 38.0598C38.8707 38.1964 38.4562 38.1694 38.0417 37.9789L33.4634 35.8527C32.97 36.2542 32.4015 36.6513 31.758 37.044C31.1145 37.4368 30.4834 37.7252 29.8645 37.9093L29.0765 42.8755C29.0098 43.298 28.8129 43.6418 28.4857 43.9071C28.1586 44.1723 27.7837 44.3049 27.3613 44.3049ZM23.9656 30.506C25.7656 30.506 27.299 29.8727 28.5656 28.606C29.8323 27.3393 30.4656 25.806 30.4656 24.006C30.4656 22.206 29.8323 20.6727 28.5656 19.406C27.299 18.1393 25.7656 17.506 23.9656 17.506C22.1656 17.506 20.6323 18.1393 19.3656 19.406C18.099 20.6727 17.4656 22.206 17.4656 24.006C17.4656 25.806 18.099 27.3393 19.3656 28.606C20.6323 29.8727 22.1656 30.506 23.9656 30.506ZM23.9656 27.506C22.991 27.506 22.164 27.1643 21.4846 26.481C20.8053 25.7977 20.4656 24.9727 20.4656 24.006C20.4656 23.0393 20.8053 22.2143 21.4846 21.531C22.164 20.8477 22.991 20.506 23.9656 20.506C24.9323 20.506 25.7573 20.8477 26.4406 21.531C27.124 22.2143 27.4656 23.0393 27.4656 24.006C27.4656 24.9727 27.124 25.7977 26.4406 26.481C25.7573 27.1643 24.9323 27.506 23.9656 27.506ZM21.8852 40.8984H26.0819L26.7939 35.3104C27.9018 35.0437 28.9535 34.627 29.9488 34.0604C30.944 33.4937 31.8417 32.7984 32.6417 31.9745L37.9417 34.2745L39.8341 30.8299L35.158 27.4039C35.2914 26.8292 35.4017 26.2629 35.489 25.7049C35.5763 25.1469 35.62 24.5806 35.62 24.006C35.62 23.4314 35.5846 22.8651 35.514 22.3071C35.4433 21.7491 35.3247 21.1828 35.158 20.6082L39.846 17.1821L37.9417 13.7375L32.6537 16.0375C31.887 15.1549 31.0124 14.416 30.0297 13.8207C29.0471 13.2254 27.9685 12.8484 26.7939 12.6897L26.0939 7.1136H21.8852L21.1971 12.6897C20.0479 12.9151 18.9736 13.3171 17.9743 13.8957C16.975 14.4743 16.0881 15.1882 15.3134 16.0375L10.0374 13.7375L8.13302 17.1821L12.7971 20.5962C12.6638 21.1708 12.5535 21.7391 12.4662 22.3011C12.3788 22.8631 12.3352 23.4314 12.3352 24.006C12.3352 24.5806 12.3788 25.1509 12.4662 25.7169C12.5535 26.2828 12.6638 26.8491 12.7971 27.4158L8.13302 30.8299L10.0374 34.2745L15.3134 31.9745C16.1214 32.7904 17.025 33.4857 18.0243 34.0604C19.0236 34.635 20.0812 35.0556 21.1971 35.3223L21.8852 40.8984Z" fill="#191A1B"/>
</svg>
