<svg width="48" height="48" viewBox="0 0 48 48" fill="none" xmlns="http://www.w3.org/2000/svg">
<path d="M24.0059 32.5C26.3687 32.5 28.375 31.673 30.025 30.0191C31.675 28.3652 32.5 26.3569 32.5 23.9941C32.5 21.6314 31.6731 19.625 30.0191 17.975C28.3652 16.325 26.3569 15.5 23.9941 15.5C21.6314 15.5 19.625 16.327 17.975 17.9809C16.325 19.6348 15.5 21.6431 15.5 24.0059C15.5 26.3686 16.327 28.375 17.9809 30.025C19.6348 31.675 21.6432 32.5 24.0059 32.5ZM23.9949 29.1478C22.5636 29.1478 21.3486 28.6468 20.35 27.6449C19.3515 26.6429 18.8522 25.4263 18.8522 23.9949C18.8522 22.5635 19.3532 21.3486 20.3552 20.35C21.3571 19.3515 22.5738 18.8522 24.0051 18.8522C25.4365 18.8522 26.6515 19.3532 27.65 20.3552C28.6486 21.3571 29.1478 22.5737 29.1478 24.0051C29.1478 25.4365 28.6468 26.6514 27.6449 27.65C26.6429 28.6485 25.4263 29.1478 23.9949 29.1478ZM24 39.6501C19.287 39.6501 14.9964 38.3624 11.1283 35.787C7.26014 33.2116 4.25748 29.8256 2.12028 25.6288C2.00038 25.4258 1.90978 25.1756 1.84848 24.8781C1.78714 24.5807 1.75648 24.2865 1.75648 23.9956C1.75648 23.7047 1.78714 23.4105 1.84848 23.113C1.90981 22.8156 2.00043 22.5589 2.12033 22.343C4.25713 18.1707 7.25966 14.7954 11.1279 12.2172C14.9963 9.63903 19.287 8.34995 24 8.34995C28.7131 8.34995 33.0037 9.63903 36.8721 12.2172C40.7404 14.7954 43.7429 18.1707 45.8798 22.343C45.9997 22.5589 46.0903 22.8156 46.1516 23.113C46.2129 23.4105 46.2435 23.7047 46.2435 23.9956C46.2435 24.2865 46.2129 24.5807 46.1516 24.8781C46.0903 25.1756 45.9997 25.4258 45.8798 25.6288C43.7426 29.8256 40.7399 33.2116 36.8718 35.787C33.0036 38.3624 28.7131 39.6501 24 39.6501ZM23.9941 36C28.0196 36 31.7175 34.9083 35.0879 32.725C38.4583 30.5417 41.0269 27.6333 42.7935 24C41.0269 20.3667 38.4603 17.4583 35.0938 15.275C31.7274 13.0917 28.0314 12 24.0059 12C19.9805 12 16.2825 13.0917 12.9121 15.275C9.54173 17.4583 6.95653 20.3667 5.15653 24C6.95653 27.6333 9.53976 30.5417 12.9062 32.725C16.2727 34.9083 19.9686 36 23.9941 36Z" fill="#191A1B"/>
</svg>
