<svg width="48" height="48" viewBox="0 0 48 48" fill="none" xmlns="http://www.w3.org/2000/svg">
<path d="M13.3109 46.65C12.2273 46.65 11.2963 46.2608 10.5177 45.4823C9.73921 44.7037 9.34995 43.7727 9.34995 42.6891V5.31093C9.34995 4.22736 9.73921 3.29631 10.5177 2.51777C11.2963 1.73924 12.2273 1.34998 13.3109 1.34998H34.6891C35.7727 1.34998 36.7037 1.73924 37.4822 2.51777C38.2608 3.29631 38.65 4.22736 38.65 5.31093V42.6891C38.65 43.7727 38.2608 44.7037 37.4822 45.4823C36.7037 46.2608 35.7727 46.6501 34.6891 46.6501L13.3109 46.65ZM13.3109 38.1891H34.6891V9.81093H13.3109V38.1891Z" fill="#191A1B"/>
</svg>
