<svg width="48" height="48" viewBox="0 0 48 48" fill="none" xmlns="http://www.w3.org/2000/svg">
<path fill-rule="evenodd" clip-rule="evenodd" d="M38.5879 22.2641C36.8591 23.7754 34.4996 23.9172 33.3166 22.5812C32.1337 21.2452 32.5766 18.9381 34.3043 17.4269C36.0331 15.9156 38.3927 15.7738 39.5756 17.1098C40.7585 18.4448 40.3166 20.7529 38.5879 22.2641ZM27.3936 31.6341C25.1463 32.7021 22.6471 32.1608 21.8106 30.4243C20.974 28.6867 22.117 26.4131 24.3643 25.344C26.6116 24.276 29.1118 24.8173 29.9484 26.5539C30.7849 28.2904 29.6408 30.5651 27.3936 31.6341ZM13.2613 36.728C10.95 36.8229 9.01552 35.4524 8.941 33.6658C8.86648 31.8792 10.6792 30.3534 12.9915 30.2585C15.3028 30.1635 17.2362 31.534 17.3108 33.3206C17.3853 35.1072 15.5726 36.632 13.2613 36.728ZM34.4418 10.2283C37.3913 9.55668 39.8359 10.4818 41.5374 11.5122C41.9173 11.7417 42.8053 12.0191 43.286 12.3362C43.5401 12.5041 43.7857 12.526 43.7416 12.8128C43.9095 12.867 44.005 13.0548 43.9998 13.6555C43.9967 14.0195 43.7825 15.2002 43.7993 15.4296C43.9694 17.7366 43.0698 21.2201 40.431 23.6263C38.2667 25.6006 35.7728 26.7228 33.6767 26.8626C33.3198 29.1759 31.4924 32.14 28.2469 33.8327C25.9094 35.053 23.1499 35.1938 21.186 34.9925C20.1322 36.7624 17.8261 38.1996 14.566 38.6919C10.9552 39.2373 7.81579 38.6428 6.14268 37.0002C5.54229 36.4109 4.25334 35.2845 4.01612 34.8193C3.83978 34.4741 5.15602 32.9952 5.72073 32.14C6.96874 30.2512 8.70798 28.669 12.0868 28.1579C14.2081 27.8377 16.2223 27.9911 17.8629 28.5031C18.8243 26.8156 20.3243 24.7787 22.6177 23.5814C24.8167 22.4341 27.3411 22.309 29.2378 22.4206C29.3511 21.3505 29.7521 20.1845 30.4112 19.0257C30.2916 18.9778 30.1698 18.9308 30.0575 18.8766C28.7917 20.4671 26.1382 21.921 22.9641 21.8146C20.679 21.7385 18.5399 20.6705 17.1481 19.6828C15.5925 20.5672 13.2371 20.6684 10.569 19.6515C7.61531 18.5262 5.50765 16.7427 4.95554 14.7944C4.75821 14.0946 4.27328 12.6981 4.29427 12.2475C4.31002 11.9127 5.93905 11.3579 6.73257 10.9553C8.48651 10.0636 10.4787 9.61299 13.2424 10.6664C14.9774 11.3276 16.428 12.2997 17.443 13.3833C18.8936 12.5218 20.9016 11.6259 23.1436 11.701C25.2943 11.773 27.2487 12.7523 28.629 13.643C29.7185 12.1338 31.8345 10.8218 34.4418 10.2283ZM12.5088 31.3073C11.5484 31.4262 10.589 31.9341 10.0905 32.9374C9.9519 33.2159 10.2364 33.292 10.4253 33.2826C10.6709 33.2712 11.095 33.146 11.2314 32.8717C11.3993 32.5338 11.6733 32.1093 12.0386 32.0645C12.2978 32.0321 12.6988 31.9424 12.8436 31.6525C12.9811 31.3803 12.7019 31.2833 12.5088 31.3073ZM23.8341 26.6707C23.1172 27.0357 22.542 27.6354 22.4024 28.4646C22.3374 28.8525 23.4951 28.6147 23.557 28.2466C23.6326 27.7939 23.8677 27.2798 24.2918 27.0639C24.4261 26.995 24.762 26.8146 24.5983 26.6227C24.4503 26.4485 23.9853 26.5935 23.8341 26.6707ZM34.2231 18.756C33.6332 19.2587 33.3194 19.9638 33.3571 20.7533C33.3718 21.0704 34.56 20.8075 34.539 20.3737C34.5117 19.7938 34.7385 19.2306 35.173 18.8603C35.3661 18.6966 35.2853 18.5255 35.0597 18.488C34.7846 18.4431 34.433 18.5766 34.2231 18.756Z" fill="#191A1B"/>
</svg>
