<svg width="48" height="48" viewBox="0 0 48 48" fill="none" xmlns="http://www.w3.org/2000/svg">
<path d="M9.11954 42.9609C8.03601 42.9609 7.10497 42.5716 6.32644 41.7931C5.54791 41.0146 5.15864 40.0836 5.15864 39V22.2761C4.18764 21.363 3.58039 20.2849 3.33689 19.0418C3.09342 17.7987 3.15502 16.5855 3.52169 15.4021L5.67169 8.65215C5.99489 7.60142 6.54634 6.77423 7.32604 6.1706C8.10577 5.567 9.01376 5.2652 10.05 5.2652H37.7C38.7798 5.2652 39.7367 5.57533 40.5707 6.1956C41.4047 6.8159 41.9739 7.63475 42.2783 8.65215L44.4783 15.4021C44.845 16.5688 44.8888 17.7637 44.6098 18.9869C44.3308 20.2101 43.7341 21.2688 42.8196 22.163V39C42.8196 40.0836 42.4276 41.0146 41.6435 41.7931C40.8595 42.5716 39.9218 42.9609 38.8304 42.9609H9.11954ZM28.5 20.2456C29.3814 20.2456 30.1343 19.9619 30.7588 19.3945C31.3834 18.8272 31.629 18.1217 31.4956 17.2782L30.2739 9.25435H25.7543V17.25C25.7543 18.0641 26.0129 18.7669 26.5301 19.3584C27.0474 19.9499 27.704 20.2456 28.5 20.2456ZM19.1368 20.2456C19.986 20.2456 20.7164 19.9582 21.3281 19.3834C21.9398 18.8086 22.2456 18.0975 22.2456 17.25V9.25435H17.7261L16.5043 17.2782C16.3898 18.0695 16.5949 18.7619 17.1195 19.3554C17.6442 19.9489 18.3166 20.2456 19.1368 20.2456ZM10.0566 20.2456C10.7957 20.2456 11.4333 19.9848 11.9695 19.463C12.5058 18.9413 12.8145 18.3181 12.8956 17.5935L14.1674 9.25435H9.64784L7.40434 16.3565C7.08984 17.3562 7.20434 18.2543 7.74784 19.0508C8.29131 19.8474 9.06089 20.2456 10.0566 20.2456ZM37.9 20.2456C38.8913 20.2456 39.667 19.8547 40.2271 19.0728C40.7873 18.2909 40.9101 17.3855 40.5956 16.3565L38.3521 9.25435H33.8609L35.1043 17.5935C35.1855 18.3181 35.4933 18.9413 36.0276 19.463C36.562 19.9848 37.1861 20.2456 37.9 20.2456ZM9.11954 39H38.8304V24.1848C38.9203 24.1993 38.8449 24.2065 38.6043 24.2065H37.8961C37.1596 24.2065 36.4069 24.0504 35.638 23.7381C34.8692 23.4258 34.0899 22.9312 33.3 22.2544C32.7478 22.8645 32.0695 23.3424 31.2651 23.6881C30.4608 24.0337 29.5916 24.2065 28.6577 24.2065C27.6902 24.2065 26.8435 24.079 26.1174 23.8239C25.3913 23.5689 24.6855 23.1457 24 22.5544C23.4675 23.0969 22.8213 23.5078 22.0615 23.7873C21.3017 24.0668 20.4483 24.2065 19.5015 24.2065C18.5048 24.2065 17.6052 24.0418 16.8026 23.7123C16 23.3828 15.2991 22.8969 14.7 22.2544C13.8435 22.9167 13.013 23.4076 12.2087 23.7272C11.4043 24.0468 10.6848 24.2065 10.05 24.2065H9.45979C9.28079 24.2065 9.16738 24.1993 9.11954 24.1848V39Z" fill="#191A1B"/>
</svg>
