<svg width="48" height="48" viewBox="0 0 48 48" fill="none" xmlns="http://www.w3.org/2000/svg">
<path d="M41.35 13.025C41.8167 13.4917 42.05 14.0417 42.05 14.675C42.05 15.3083 41.8167 15.8583 41.35 16.325L39.2 18.475C38.7311 18.9417 38.1722 19.1833 37.5233 19.2C36.8745 19.2167 36.3188 18.9741 35.8565 18.4724C35.3855 18.004 35.1583 17.4456 35.175 16.7974C35.1917 16.1491 35.4333 15.5917 35.9 15.125L38.05 13.025C38.5167 12.5583 39.0667 12.325 39.7 12.325C40.3333 12.325 40.8833 12.5583 41.35 13.025ZM5.5 41.775C4.84167 41.775 4.28542 41.5471 3.83125 41.0913C3.37708 40.6354 3.15 40.0771 3.15 39.4163C3.15 38.7554 3.37708 38.2 3.83125 37.75C4.28542 37.3 4.84167 37.075 5.5 37.075H42.5C43.1583 37.075 43.7146 37.3029 44.1688 37.7588C44.6229 38.2146 44.85 38.773 44.85 39.4338C44.85 40.0946 44.6229 40.65 44.1688 41.1C43.7146 41.55 43.1583 41.775 42.5 41.775H5.5ZM24.0088 6.22501C24.6696 6.22501 25.225 6.46042 25.675 6.93126C26.125 7.40209 26.35 7.96667 26.35 8.62501V11.625C26.35 12.2833 26.1221 12.8396 25.6663 13.2938C25.2104 13.7479 24.6521 13.975 23.9913 13.975C23.3304 13.975 22.775 13.7479 22.325 13.2938C21.875 12.8396 21.65 12.2833 21.65 11.625V8.62501C21.65 7.96667 21.8779 7.40209 22.3338 6.93126C22.7896 6.46042 23.3479 6.22501 24.0088 6.22501ZM6.7 12.925C7.16667 12.4583 7.71667 12.225 8.35 12.225C8.98334 12.225 9.53333 12.4583 10 12.925L12.2 15.125C12.6667 15.5939 12.9083 16.1528 12.925 16.8017C12.9417 17.4506 12.7167 18.0149 12.25 18.4946C11.75 18.9482 11.175 19.1667 10.525 19.15C9.875 19.1333 9.31667 18.8917 8.85 18.425L6.7 16.225C6.23333 15.7583 6 15.2083 6 14.575C6 13.9417 6.23333 13.3917 6.7 12.925ZM9.15 33.125C9.15 28.825 10.575 25.1333 13.425 22.05C16.275 18.9667 19.8 17.425 24 17.425C28.2 17.425 31.725 18.9667 34.575 22.05C37.425 25.1333 38.85 28.825 38.85 33.125H9.15Z" fill="#191A1B"/>
</svg>
