<svg width="48" height="48" viewBox="0 0 48 48" fill="none" xmlns="http://www.w3.org/2000/svg">
<path fill-rule="evenodd" clip-rule="evenodd" d="M30.9955 21.1926L24.1058 20.8305L23.7391 17.1033C26.7121 17.5306 28.9393 18.5441 31.1451 20.865C31.2648 20.9901 31.1681 21.2018 30.9955 21.1926ZM15.2959 19.4401L15.2965 19.4377L15.2968 19.4366C15.3642 19.1722 15.431 18.9106 15.4975 18.6508L15.5395 18.4911L15.5395 18.4908C15.5661 18.3899 15.5926 18.2894 15.6187 18.1889L15.6652 18.0092C15.7432 17.7078 15.821 17.4068 15.9011 17.1079L15.9034 17.1056C15.9104 17.0797 15.9171 17.0536 15.9239 17.0275L15.924 17.0272C15.9334 16.9906 15.9429 16.9538 15.9532 16.9176L16.1489 16.9199L16.1496 16.9191C16.9222 16.926 17.6971 16.936 18.4713 16.946C18.6145 16.9479 18.7573 16.9497 18.9002 16.9514L18.9002 16.9514C19.0414 16.9531 19.1826 16.9548 19.3244 16.9567C19.9404 16.9646 20.5579 16.9732 21.1781 16.9818L21.1783 16.9818C21.648 16.9884 22.1193 16.995 22.5928 17.0012L22.7593 20.7369L15.0786 20.2911C15.1522 20.0036 15.2245 19.7203 15.2959 19.4401ZM13.8721 20.1732C13.8696 20.1807 13.8675 20.1872 13.8638 20.1927C13.8414 20.2263 13.7622 20.222 13.1971 20.1914C13.1655 20.1897 13.1324 20.1879 13.0976 20.186C11.7845 20.1135 10.4721 20.0344 9.13421 19.9538L9.13415 19.9538L9.13396 19.9538C8.53256 19.9175 7.92601 19.881 7.31193 19.8446C7.10228 19.8408 7.40463 19.5577 7.57279 19.4002L7.5728 19.4002C7.61018 19.3652 7.64093 19.3364 7.65795 19.3183C7.91836 19.0402 8.15656 18.8078 8.39977 18.5705L8.39977 18.5705C8.59007 18.3848 8.78344 18.1961 8.99293 17.9802C9.4548 17.5061 10.0786 17.2191 10.7399 17.1754C11.6875 17.1117 12.6359 17.0561 13.6197 16.9984L13.6198 16.9984C14.0578 16.9727 14.5029 16.9466 14.9581 16.9191C14.6589 17.8383 13.874 20.1676 13.874 20.1676C13.8734 20.1695 13.8727 20.1714 13.8721 20.1732ZM43.611 23.0186C43.5289 22.6872 43.3532 22.4578 43.0517 22.3396L42.8963 22.2788C42.4889 22.1192 42.0796 21.9588 41.6577 21.8486C39.2608 21.2287 36.8103 20.9187 34.3552 20.6471C33.7069 20.575 33.1399 20.4192 32.5883 20.0279C30.8098 18.7674 28.9224 17.6917 26.9 16.8547C25.2198 16.1588 23.4483 16.0491 21.6737 16C21.6737 16 16.4834 16.0675 14.7548 16.1366C12.6795 16.2202 6.46031 16.6376 6.46031 16.6376C6.41044 16.646 6.36978 16.6851 6.36978 16.7373C6.36978 16.7665 6.38282 16.7941 6.40277 16.8125L6.51171 16.9191C6.7626 17.1593 6.82091 17.5398 6.65365 17.8452C6.56164 18.013 6.46969 18.1802 6.37792 18.3472L6.37781 18.3474C5.87579 19.2608 5.37922 20.1642 4.90897 21.0814C4.75476 21.3836 4.7187 21.7703 4.71563 22.1186C4.7118 22.5015 4.77701 22.8935 4.87215 23.2657C4.94503 23.5472 4.89133 23.749 4.71256 23.9592C4.1686 24.6014 3.8901 25.3333 4.04047 26.1834C4.15556 26.8333 4.33662 27.4516 5.11843 27.5967C5.61876 27.6892 6.12169 27.7805 6.62816 27.8725L6.62825 27.8725L7.137 27.9649C7.13532 27.934 7.13114 27.9038 7.12697 27.8737C7.12162 27.8351 7.11629 27.7967 7.11629 27.757C7.11629 25.5919 8.87785 23.8311 11.0414 23.8311C13.2058 23.8311 14.9666 25.5919 14.9666 27.757C14.9666 28.0179 14.9389 28.2726 14.8898 28.5196C15.5245 28.5114 16.0869 28.5015 16.4733 28.4947L16.4737 28.4947C16.7724 28.4894 16.9657 28.486 17.0059 28.4866C20.9593 28.5424 24.9131 28.6027 28.8668 28.6629C30.3009 28.6848 31.735 28.7067 33.1691 28.7283C33.0885 28.4161 33.0325 28.0938 33.0325 27.757C33.0325 25.5919 34.7933 23.8311 36.9576 23.8311C39.122 23.8311 40.8835 25.5919 40.8835 27.757C40.8835 28.0631 40.8398 28.3577 40.7731 28.6447C40.9856 28.5726 41.4191 28.4276 42.5645 28.067C43.3855 28.0393 43.7269 27.4639 43.8872 26.7013C44.1496 25.4538 43.911 24.2324 43.611 23.0186ZM11.0416 30.1438C9.73268 30.1438 8.67161 29.0828 8.67161 27.7739C8.67161 26.4642 9.73268 25.4031 11.0416 25.4031C12.3512 25.4031 13.4123 26.4642 13.4123 27.7739C13.4123 29.0828 12.3512 30.1438 11.0416 30.1438ZM11.0416 24.2323C9.08591 24.2323 7.50005 25.8174 7.50005 27.7739C7.50005 29.7295 9.08591 31.3154 11.0416 31.3154C12.998 31.3154 14.5831 29.7295 14.5831 27.7739C14.5831 25.8174 12.998 24.2323 11.0416 24.2323ZM34.5872 27.7739C34.5872 29.0828 35.6483 30.1438 36.9579 30.1438C38.2668 30.1438 39.3279 29.0828 39.3279 27.7739C39.3279 26.4642 38.2668 25.4031 36.9579 25.4031C35.6483 25.4031 34.5872 26.4642 34.5872 27.7739ZM33.4164 27.7739C33.4164 25.8174 35.0015 24.2323 36.9579 24.2323C38.9136 24.2323 40.4995 25.8174 40.4995 27.7739C40.4995 29.7295 38.9136 31.3154 36.9579 31.3154C35.0015 31.3154 33.4164 29.7295 33.4164 27.7739Z" fill="#191A1B"/>
</svg>
