<svg width="48" height="48" viewBox="0 0 48 48" fill="none" xmlns="http://www.w3.org/2000/svg">
<path d="M23.975 40.875C19.4417 40.875 15.5083 39.2417 12.175 35.975C8.84166 32.7083 7.175 28.8417 7.175 24.375V22.075L4.875 24.375C4.54166 24.7083 4.15833 24.875 3.725 24.875C3.29166 24.875 2.90833 24.7083 2.575 24.375C2.24166 24.0417 2.075 23.65 2.075 23.2C2.075 22.75 2.24166 22.3583 2.575 22.025L7.825 16.675C8.29166 16.2083 8.85833 15.975 9.525 15.975C10.1917 15.975 10.7583 16.2083 11.225 16.675L16.525 22.025C16.8583 22.3583 17.025 22.7417 17.025 23.175C17.025 23.6083 16.8583 23.9917 16.525 24.325C16.1917 24.6583 15.7917 24.825 15.325 24.825C14.8583 24.825 14.475 24.6583 14.175 24.325L11.875 22.075V24.275C11.875 27.5083 13.0667 30.2917 15.45 32.625C17.8333 34.9583 20.675 36.125 23.975 36.125C24.575 36.125 25.15 36.1 25.7 36.05C26.25 36 26.7917 35.9083 27.325 35.775C27.9583 35.6083 28.6 35.6167 29.25 35.8C29.9 35.9833 30.3583 36.3583 30.625 36.925C30.925 37.4917 30.9833 38.075 30.8 38.675C30.6167 39.275 30.225 39.675 29.625 39.875C28.725 40.2083 27.8 40.4583 26.85 40.625C25.9 40.7917 24.9417 40.875 23.975 40.875ZM24.075 11.875C23.4417 11.875 22.85 11.9083 22.3 11.975C21.75 12.0417 21.2083 12.1417 20.675 12.275C20.0417 12.4083 19.4083 12.3917 18.775 12.225C18.1417 12.0583 17.675 11.6917 17.375 11.125C17.0417 10.525 16.975 9.91667 17.175 9.3C17.375 8.68333 17.7583 8.25833 18.325 8.025C19.2583 7.725 20.2 7.5 21.15 7.35C22.1 7.2 23.075 7.125 24.075 7.125C28.575 7.125 32.5 8.76667 35.85 12.05C39.2 15.3333 40.875 19.1917 40.875 23.625V25.825L43.125 23.575C43.4583 23.2083 43.8417 23.0333 44.275 23.05C44.7083 23.0667 45.0917 23.2417 45.425 23.575C45.7583 23.9083 45.925 24.2917 45.925 24.725C45.925 25.1583 45.7583 25.5583 45.425 25.925L40.175 31.225C39.7083 31.6917 39.15 31.925 38.5 31.925C37.85 31.925 37.2917 31.6917 36.825 31.225L31.575 25.925C31.2417 25.5917 31.0667 25.2 31.05 24.75C31.0333 24.3 31.2083 23.8917 31.575 23.525C31.9417 23.1583 32.35 22.975 32.8 22.975C33.25 22.975 33.6417 23.1583 33.975 23.525L36.175 25.725V23.725C36.175 20.525 34.975 17.75 32.575 15.4C30.175 13.05 27.3417 11.875 24.075 11.875Z" fill="#191A1B"/>
</svg>
