<svg width="48" height="48" viewBox="0 0 48 48" fill="none" xmlns="http://www.w3.org/2000/svg">
<path d="M29.1 44.35C28.1667 45.2833 27.0417 45.75 25.725 45.75C24.4083 45.75 23.2833 45.2833 22.35 44.35L3.6 25.6C3.1 25.1 2.75 24.5667 2.55 24C2.35 23.4333 2.25 22.8333 2.25 22.2V7C2.25 5.66667 2.7 4.54167 3.6 3.625C4.5 2.70833 5.61667 2.25 6.95 2.25H22.15C22.7833 2.25 23.4 2.35833 24 2.575C24.6 2.79167 25.15 3.15 25.65 3.65L44.3 22.25C45.2667 23.2167 45.75 24.3667 45.75 25.7C45.75 27.0333 45.2667 28.1833 44.3 29.15L29.1 44.35ZM25.9 41.1L41.1 25.9L22.15 7H6.95V22.2L25.9 41.1ZM12.2 14.8C12.9 14.8 13.5083 14.5417 14.025 14.025C14.5417 13.5083 14.8 12.9 14.8 12.2C14.8 11.5 14.5417 10.8917 14.025 10.375C13.5083 9.85833 12.9 9.6 12.2 9.6C11.5 9.6 10.8917 9.85833 10.375 10.375C9.85833 10.8917 9.6 11.5 9.6 12.2C9.6 12.9 9.85833 13.5083 10.375 14.025C10.8917 14.5417 11.5 14.8 12.2 14.8Z" fill="#191A1B"/>
</svg>
