<svg width="48" height="48" viewBox="0 0 48 48" fill="none" xmlns="http://www.w3.org/2000/svg">
<path d="M22.5798 46.375C21.167 46.375 19.8398 46.0881 18.5981 45.5142C17.3563 44.9402 16.3169 44.1105 15.4798 43.025L5.7798 30.575C5.34647 29.975 5.1648 29.3235 5.2348 28.6205C5.3048 27.9174 5.6198 27.3356 6.1798 26.875L6.5298 26.575C7.25964 25.9991 8.09209 25.6718 9.02715 25.5931C9.96225 25.5144 10.8631 25.6917 11.7298 26.125L15.6298 28.075V11.425C15.6298 10.8375 15.8425 10.3323 16.268 9.9094C16.6934 9.48647 17.2023 9.275 17.7947 9.275C18.3871 9.275 18.891 9.48647 19.3065 9.9094C19.722 10.3323 19.9298 10.8375 19.9298 11.425V22.425H34.1727C36.5413 22.425 38.568 23.2625 40.2527 24.9375C41.9374 26.6125 42.7798 28.625 42.7798 30.975V38.225C42.7798 40.4917 41.9798 42.4167 40.3798 44C38.7798 45.5833 36.854 46.375 34.6023 46.375H22.5798ZM24.3705 17.475C23.7715 17.475 23.2649 17.2624 22.8509 16.8372C22.4368 16.412 22.2298 15.904 22.2298 15.3131C22.2298 15.1044 22.3298 14.7417 22.5298 14.225C22.7631 13.825 22.9465 13.3917 23.0798 12.925C23.2131 12.4583 23.2798 11.967 23.2798 11.4511C23.2798 9.9337 22.7445 8.64167 21.6739 7.575C20.6033 6.50833 19.3033 5.975 17.7739 5.975C16.2445 5.975 14.9465 6.50972 13.8798 7.57915C12.8131 8.64862 12.2798 9.94723 12.2798 11.475C12.2798 11.975 12.3465 12.4583 12.4798 12.925C12.6131 13.3917 12.7965 13.825 13.0298 14.225C13.1298 14.3917 13.2048 14.5594 13.2548 14.7281C13.3048 14.8969 13.3298 15.0906 13.3298 15.3094C13.3298 15.9115 13.1125 16.4229 12.6778 16.8438C12.2431 17.2646 11.7278 17.475 11.1318 17.475C10.6971 17.475 10.3048 17.375 9.9548 17.175C9.6048 16.975 9.34369 16.6944 9.17145 16.3331C8.77702 15.561 8.47147 14.7713 8.2548 13.964C8.03814 13.1566 7.9298 12.3169 7.9298 11.445C7.9298 8.73367 8.88947 6.41917 10.8088 4.5015C12.7281 2.58383 15.0494 1.625 17.7726 1.625C20.4957 1.625 22.8194 2.58315 24.7436 4.49945C26.6677 6.41575 27.6298 8.74093 27.6298 11.475C27.6298 12.3644 27.5181 13.2056 27.2946 13.9987C27.0712 14.7917 26.7662 15.5671 26.3798 16.325C26.2131 16.6917 25.9458 16.975 25.5777 17.175C25.2095 17.375 24.8071 17.475 24.3705 17.475Z" fill="#191A1B"/>
</svg>
