<svg width="48" height="48" viewBox="0 0 48 48" fill="none" xmlns="http://www.w3.org/2000/svg">
<path fill-rule="evenodd" clip-rule="evenodd" d="M32.8524 21.3056L24.7858 21.1993C24.7858 20.6381 24.7713 20.07 24.7575 19.5247C24.7446 19.0216 24.7323 18.5379 24.7323 18.0971C27.9921 18.0363 29.7816 18.2575 32.2678 20.2207C32.3263 20.2668 32.379 20.3079 32.4265 20.3449C32.6751 20.5386 32.7823 20.6221 32.8269 20.7312C32.8608 20.8139 32.8588 20.9112 32.8552 21.0823C32.8539 21.1456 32.8524 21.2191 32.8524 21.3056ZM24.7858 21.1993L24.7373 21.1987L24.743 21.1988C24.7528 21.199 24.7677 21.1993 24.7858 21.1993ZM23.8995 21.184H18.8472C18.7549 21.184 18.6868 21.0975 18.7044 21.0067C18.7423 20.8092 18.7781 20.6158 18.8132 20.426C18.9322 19.783 19.0437 19.1801 19.2055 18.5908C19.2619 18.385 19.6215 18.1293 19.8493 18.122C20.862 18.0891 21.8755 18.0932 22.8879 18.0973C23.2252 18.0987 23.5624 18.1 23.8995 18.1V21.184ZM43.9962 25.8553C43.9962 25.8553 43.9127 24.5191 43.8534 23.4885C43.7728 22.093 43.2578 21.4367 41.8316 21.2667L41.5464 21.2331L41.5464 21.2331C39.6146 21.0053 36.7401 20.6663 36.3978 20.6558C35.0228 20.6148 33.6479 20.2134 32.4385 19.1556C30.7251 17.6591 27.6837 17.0225 25.6663 17.0086C23.8553 16.9957 22.609 16.9998 21.1405 17.0047C20.5188 17.0068 19.8573 17.009 19.0963 17.0101C17.9807 17.0115 17.6027 17.7975 17.4327 18.826C17.358 19.2806 17.2296 19.7263 17.0968 20.1873C17.0357 20.3992 16.9737 20.6145 16.9156 20.8353L13.6844 20.835C11.1987 20.8347 8.88671 20.8345 6.20903 20.836C4.63191 20.8368 4.52862 21.0082 4.45024 22.6153C4.39277 23.7827 4.24871 24.9471 4.10482 26.1101C4.07263 26.3703 4.04046 26.6303 4.00926 26.8903C3.92429 27.5943 4.4334 28.1569 5.14248 28.1407L5.24661 28.1383C6.91259 28.0996 7.03365 28.0968 7.66895 28.0968C7.79128 28.0968 7.89896 28.0968 8.00591 28.0961C8.00491 28.072 8.00161 28.0487 7.99833 28.0254C7.99442 27.9977 7.99053 27.9702 7.99053 27.9415C7.99053 25.8743 9.67093 24.1932 11.7381 24.1932C13.8046 24.1932 15.4857 25.8743 15.4857 27.9415C15.4857 27.9657 15.4822 27.989 15.4786 28.0123C15.4756 28.0328 15.4725 28.0532 15.4718 28.0741C15.5192 28.0737 15.5668 28.0732 15.6156 28.0727C15.6731 28.0722 15.7322 28.0715 15.7948 28.0711H32.8567C32.9652 28.0719 33.0633 28.0726 33.1607 28.0741C33.1607 28.0709 33.1604 28.0678 33.1599 28.0647C33.1596 28.0629 33.1593 28.0611 33.159 28.0592C33.1584 28.0563 33.1579 28.0534 33.1575 28.0504C33.1573 28.0481 33.1571 28.0458 33.1571 28.0433C33.1571 25.9769 34.8389 24.2957 36.9047 24.2957C38.9718 24.2957 40.6522 25.9769 40.6522 28.0433L40.652 28.0474C40.6519 28.049 40.6517 28.0505 40.6515 28.0521C40.6511 28.055 40.6508 28.058 40.6508 28.0609C41.0742 28.0587 41.0669 28.0711 41.0669 28.0711C41.8499 28.0887 42.9919 28.0887 43.7486 27.9986C44.0504 27.9627 43.9962 25.8553 43.9962 25.8553ZM34.6422 28.0431C34.6422 29.2927 35.6553 30.3066 36.9049 30.3066C38.1554 30.3066 39.1684 29.2927 39.1684 28.0431C39.1684 26.7934 38.1554 25.7796 36.9049 25.7796C35.6553 25.7796 34.6422 26.7934 34.6422 28.0431ZM33.5236 28.0431C33.5236 26.1751 35.0377 24.6617 36.9049 24.6617C38.7729 24.6617 40.2863 26.1751 40.2863 28.0431C40.2863 29.911 38.7729 31.4244 36.9049 31.4244C35.0377 31.4244 33.5236 29.911 33.5236 28.0431ZM9.47452 27.9411C9.47452 29.1908 10.4876 30.2046 11.738 30.2046C12.9877 30.2046 14.0015 29.1908 14.0015 27.9411C14.0015 26.6915 12.9877 25.6776 11.738 25.6776C10.4876 25.6776 9.47452 26.6915 9.47452 27.9411ZM8.35669 27.9411C8.35669 26.0732 9.87008 24.5598 11.738 24.5598C13.6052 24.5598 15.1193 26.0732 15.1193 27.9411C15.1193 29.8091 13.6052 31.3225 11.738 31.3225C9.87008 31.3225 8.35669 29.8091 8.35669 27.9411Z" fill="#191A1B"/>
</svg>
