<svg width="48" height="48" viewBox="0 0 48 48" fill="none" xmlns="http://www.w3.org/2000/svg">
<path d="M38.297 44.3109C37.7775 44.3109 37.3448 44.1373 36.9991 43.7902C36.6534 43.4431 36.4805 43.0131 36.4805 42.5V28.3109H34.3805C33.3483 28.3109 32.4819 27.9185 31.7813 27.1336C31.0808 26.3487 30.7305 25.4208 30.7305 24.3499V12.75C30.7305 9.99719 31.5964 7.79884 33.3283 6.15494C35.0602 4.51104 37.3276 3.68909 40.1305 3.68909V42.5C40.1305 43.0131 39.9548 43.4431 39.6033 43.7902C39.2519 44.1373 38.8165 44.3109 38.297 44.3109ZM16.5776 44.3109C16.0637 44.3109 15.6339 44.1373 15.2882 43.7902C14.9424 43.4431 14.7695 43.0131 14.7695 42.5V25.9674C12.942 25.6196 11.3351 24.6833 9.94889 23.1587C8.56265 21.6341 7.86954 19.8064 7.86954 17.6756V5.49999C7.86954 4.98689 8.04062 4.5568 8.38279 4.20974C8.72495 3.86264 9.15579 3.68909 9.67529 3.68909C10.1877 3.68909 10.6232 3.86264 10.9817 4.20974C11.3403 4.5568 11.5195 4.98689 11.5195 5.49999V17.6891H14.7695V5.49999C14.7695 4.98689 14.9434 4.5568 15.291 4.20974C15.6386 3.86264 16.0694 3.68909 16.5832 3.68909C17.0971 3.68909 17.527 3.86264 17.8727 4.20974C18.2185 4.5568 18.3913 4.98689 18.3913 5.49999V17.6891H21.6413V5.49999C21.6413 4.98689 21.8235 4.5568 22.1879 4.20974C22.5523 3.86264 22.9907 3.68909 23.5031 3.68909C24.0156 3.68909 24.4464 3.86264 24.7957 4.20974C25.145 4.5568 25.3196 4.98689 25.3196 5.49999V17.6756C25.3196 19.8064 24.6218 21.6341 23.2261 23.1587C21.8305 24.6833 20.2189 25.6196 18.3913 25.9674V42.5C18.3913 43.0131 18.2175 43.4431 17.8699 43.7902C17.5223 44.1373 17.0915 44.3109 16.5776 44.3109Z" fill="#191A1B"/>
</svg>
