<svg width="48" height="48" viewBox="0 0 48 48" fill="none" xmlns="http://www.w3.org/2000/svg">
<path fill-rule="evenodd" clip-rule="evenodd" d="M24.6272 18.0045C24.8066 19.3829 24.974 20.6682 25.1452 21.9812L31.1872 22.5263C31.1749 22.3149 31.1647 22.1103 31.1547 21.9108C31.1301 21.4181 31.107 20.956 31.0573 20.497C31.0378 20.3146 30.9027 20.0886 30.7601 19.9895C29.1715 18.8799 27.3847 18.4362 25.5618 18.1291C25.3688 18.0967 25.1751 18.073 24.9682 18.0476C24.8589 18.0342 24.7458 18.0203 24.6272 18.0045ZM16.9027 16.8506C17.8696 16.8386 18.8366 16.8416 19.8043 16.8664C21.1189 16.8986 22.429 16.9737 23.7338 17.1029V16.5691H16.9027V16.8506ZM16.4811 18.9264C16.548 19.8003 16.6305 20.8783 16.6587 21.4812C18.203 21.5383 21.7893 21.747 23.3321 21.8454C23.2775 21.2092 23.2208 20.5294 23.164 19.8466C23.1099 19.1974 23.0556 18.5455 23.0025 17.9257L20.7653 17.9137C20.7653 17.9137 18.4552 17.9032 16.4109 17.8994V17.9932C16.4283 18.237 16.4534 18.5642 16.4811 18.9264ZM9.80732 16.5691V17.2027C11.9935 17.0278 14.1812 16.9032 16.3719 16.8634V16.5691H9.80732ZM7.65416 20.8281C7.51752 20.9354 7.58659 21.1539 7.76152 21.1614L15.1887 21.4775L15.0273 17.9932C14.6915 18.0308 14.3609 18.0666 14.0341 18.1021C13.2497 18.1871 12.487 18.2698 11.7255 18.3679C11.6453 18.378 11.5629 18.3863 11.4798 18.3947C11.1268 18.4302 10.7597 18.4671 10.4875 18.6554C9.73303 19.1792 9.00794 19.7549 8.28277 20.3307C8.07348 20.4969 7.86418 20.6631 7.65416 20.8281ZM43.632 26.305C43.6521 26.3259 43.6721 26.3465 43.6903 26.3671C44.0791 26.8033 44.0972 27.949 43.7706 28.4294C43.6437 28.6156 43.5499 28.9407 43.6069 29.1442C43.6963 29.4602 43.5671 29.5443 43.3757 29.6014L43.3451 29.6105C43.0718 29.6918 42.7917 29.7751 42.5116 29.7831C41.9082 29.8003 41.3035 29.7973 40.6922 29.7943C40.5048 29.7933 40.3167 29.7924 40.1279 29.7921C40.3036 29.3514 40.4072 28.8754 40.4072 28.3731C40.4072 26.2545 38.6842 24.5315 36.5664 24.5315C34.4485 24.5315 32.7255 26.2545 32.7255 28.3731C32.7255 28.8724 32.8276 29.3469 33.0025 29.7846H15.8621C16.0363 29.3469 16.1392 28.8724 16.1392 28.3731C16.1392 26.2545 14.4162 24.5315 12.2983 24.5315C10.1797 24.5315 8.45672 26.2545 8.45672 28.3731C8.45672 28.8806 8.56107 29.3649 8.74125 29.8093H8.66467C8.42007 29.8093 8.17546 29.8094 7.93086 29.8096C7.1154 29.81 6.29994 29.8104 5.48449 29.8063C5.47273 29.8063 5.46035 29.8063 5.44752 29.8063C5.32194 29.8064 5.15388 29.8065 5.11437 29.7343C5.05613 29.6282 4.99729 29.5224 4.9384 29.4164C4.62986 28.8612 4.31984 28.3033 4.08659 27.7095C3.86301 27.1407 4.11551 26.6318 4.3563 26.1465C4.40821 26.0419 4.45957 25.9384 4.50551 25.8356C4.81857 25.1321 4.88013 24.4144 4.70296 23.6967C4.42142 22.5548 4.94995 21.7357 5.51377 20.9332C5.76932 20.5693 6.04023 20.2189 6.31108 19.8686C6.59562 19.5006 6.8801 19.1327 7.14665 18.7493C7.29155 18.542 7.36137 18.2072 7.3456 17.9392C7.32008 17.5195 7.46572 17.4002 7.80731 17.3679C8.10605 17.3409 8.40451 17.317 8.70286 17.293C8.89412 17.2777 9.08533 17.2624 9.27654 17.2462V16.5691H8.67594C8.55131 16.5691 8.45146 16.4677 8.45146 16.3438V16.2252C8.45146 16.1014 8.55131 16 8.67594 16H24.9883C25.1129 16 25.2135 16.1014 25.2135 16.2252V16.3438C25.2135 16.4677 25.1129 16.5691 24.9883 16.5691H24.2653V17.1622C25.5033 17.3003 26.7368 17.4835 27.965 17.744C29.7037 18.1141 31.3209 18.8213 32.8577 19.7718C33.207 19.987 33.5525 20.2108 33.8978 20.4345C34.5306 20.8444 35.1632 21.2541 35.8194 21.6111C36.1691 21.8005 36.5574 21.8992 36.9468 21.998C37.1593 22.052 37.3721 22.106 37.5791 22.1749C37.867 22.2709 38.1555 22.3646 38.4441 22.4583C39.3115 22.74 40.1787 23.0216 41.0266 23.3641C42.1993 23.8371 43.1775 24.5924 43.4763 26.0766C43.4931 26.1611 43.5639 26.2345 43.632 26.305ZM12.2981 30.6919C11.0165 30.6919 9.97825 29.6536 9.97825 28.3729C9.97825 27.0913 11.0165 26.053 12.2981 26.053C13.5789 26.053 14.6171 27.0913 14.6171 28.3729C14.6171 29.6536 13.5789 30.6919 12.2981 30.6919ZM12.2981 24.9074C10.3837 24.9074 8.8326 26.4584 8.8326 28.3729C8.8326 30.2865 10.3837 31.8383 12.2981 31.8383C14.2117 31.8383 15.7635 30.2865 15.7635 28.3729C15.7635 26.4584 14.2117 24.9074 12.2981 24.9074ZM36.5663 30.6919C35.2855 30.6919 34.2464 29.6536 34.2464 28.3729C34.2464 27.0913 35.2855 26.053 36.5663 26.053C37.847 26.053 38.8861 27.0913 38.8861 28.3729C38.8861 29.6536 37.847 30.6919 36.5663 30.6919ZM36.5663 24.9074C34.6518 24.9074 33.1008 26.4584 33.1008 28.3729C33.1008 30.2865 34.6518 31.8383 36.5663 31.8383C38.4807 31.8383 40.0317 30.2865 40.0317 28.3729C40.0317 26.4584 38.4807 24.9074 36.5663 24.9074Z" fill="#191A1B"/>
</svg>
