<svg width="48" height="48" viewBox="0 0 48 48" fill="none" xmlns="http://www.w3.org/2000/svg">
<path d="M31.6 27.2C32.4333 27.2 33.175 26.875 33.825 26.225C34.475 25.575 34.8 24.825 34.8 23.975C34.8 23.125 34.475 22.3833 33.825 21.75C33.175 21.1167 32.4333 20.8 31.6 20.8C30.7667 20.8 30.025 21.1167 29.375 21.75C28.725 22.3833 28.4 23.125 28.4 23.975C28.4 24.825 28.725 25.575 29.375 26.225C30.025 26.875 30.7667 27.2 31.6 27.2ZM8.45 43.25C7.18167 43.25 6.08125 42.7921 5.14875 41.8763C4.21625 40.9604 3.75 39.8517 3.75 38.55V9.45001C3.75 8.16791 4.21625 7.05573 5.14875 6.11346C6.08125 5.17116 7.18167 4.70001 8.45 4.70001H37.55C38.8654 4.70001 39.986 5.17116 40.9116 6.11346C41.8372 7.05573 42.3 8.16791 42.3 9.45001V15.7H37.55V9.45001H8.45V38.55H37.55V32.35H42.3V38.55C42.3 39.8517 41.8372 40.9604 40.9116 41.8763C39.986 42.7921 38.8654 43.25 37.55 43.25H8.45ZM26 33.35C24.9 33.35 23.9917 33.0071 23.275 32.3214C22.5583 31.6356 22.2 30.7576 22.2 29.6875V18.4C22.2 17.3333 22.5583 16.45 23.275 15.75C23.9917 15.05 24.9 14.7 26 14.7H40.65C41.75 14.7 42.65 15.05 43.35 15.75C44.05 16.45 44.4 17.3333 44.4 18.4V29.6875C44.4 30.7576 44.05 31.6356 43.35 32.3214C42.65 33.0071 41.75 33.35 40.65 33.35H26Z" fill="#191A1B"/>
</svg>
