<svg width="48" height="48" viewBox="0 0 48 48" fill="none" xmlns="http://www.w3.org/2000/svg">
<path fill-rule="evenodd" clip-rule="evenodd" d="M22.6455 44.45C23.0985 44.6 23.5335 44.675 23.9505 44.675C24.3676 44.675 24.8096 44.6 25.2767 44.45C25.7437 44.3 26.1598 44.075 26.525 43.775C28.0916 42.4417 29.7416 40.9333 31.475 39.25C33.2083 37.5667 34.8 35.75 36.25 33.8C37.7 31.85 38.9 29.7833 39.85 27.6C40.8 25.4167 41.275 23.175 41.275 20.875C41.275 15.551 39.5291 11.295 36.0373 8.10701C32.5456 4.91901 28.5248 3.32501 23.975 3.32501C19.4252 3.32501 15.4127 4.91901 11.9376 8.10701C8.46253 11.295 6.72498 15.551 6.72498 20.875C6.72498 23.175 7.19164 25.4167 8.12498 27.6C9.05831 29.7833 10.25 31.85 11.7 33.8C13.15 35.75 14.7416 37.5667 16.475 39.25C18.2083 40.9333 19.875 42.4417 21.475 43.775C21.8023 44.075 22.1925 44.3 22.6455 44.45ZM28.7226 21.4465C29.3986 18.8203 29.8704 17.3335 30.2155 16.3031C30.4031 15.8002 30.5908 15.2974 30.7777 14.7945C30.9246 14.5096 31.0128 14.12 30.9985 13.94C30.9616 13.4132 30.5719 12.8808 29.8786 13.0235C29.1439 13.1755 28.7121 14.049 28.1265 15.9726C27.6344 17.593 27.3549 18.6248 26.9547 20.3746C26.7821 21.1722 26.6095 21.9705 26.4377 22.768C26.4114 22.8876 26.3857 23.0079 26.3609 23.1274C26.3021 23.3757 26.2719 23.4467 26.1777 23.4664C26.1303 23.4763 26.0715 23.446 26.0436 23.3447C25.9826 23.1218 25.9321 22.6604 25.8951 22.0675C25.8824 21.691 25.8639 21.3107 25.8449 20.9197C25.7951 19.8953 25.7417 18.7977 25.7798 17.5037C25.8107 16.4825 25.8085 16.3179 25.7376 16.0562C25.599 15.5506 24.9275 15.2495 24.1943 15.4219C23.5469 15.5755 23.3036 16.1944 22.9633 17.0597C22.919 17.1725 22.873 17.2895 22.8242 17.4101C22.5924 17.9878 22.2626 18.9303 21.9163 19.9202C21.8372 20.1464 21.7572 20.3751 21.6773 20.6025C21.2748 21.8699 20.8001 23.4207 20.8001 23.4207L20.7119 23.7428C20.6972 23.7963 20.6827 23.8499 20.6682 23.9036C20.6537 23.9572 20.6392 24.0108 20.6245 24.0642C20.5197 24.3266 20.4828 24.3786 20.4127 24.3976C20.3419 24.4159 20.3027 24.3617 20.2801 24.2816C20.2364 24.1226 20.2432 23.1063 20.2567 22.5704C20.2846 21.4781 20.3977 20.2916 20.5069 19.231C20.5384 18.8461 20.6073 18.3166 20.6761 17.7878C20.7443 17.2644 20.8123 16.7418 20.8438 16.3608C20.8656 16.1294 20.8883 15.8875 20.8935 15.7229C20.9071 15.2348 20.8717 14.9999 20.6433 14.7586C20.2869 14.4653 19.8506 14.4871 19.3487 14.594C18.5393 14.7657 17.9342 15.2334 18.0058 15.4901C18.0132 15.5155 18.034 15.5404 18.0592 15.5704C18.0723 15.586 18.0865 15.6031 18.1007 15.6223C18.2235 15.7883 18.2868 15.8818 18.3366 16.0492C18.3946 16.2461 18.4225 16.5197 18.421 16.96C18.4043 17.3413 18.3869 17.722 18.3695 18.1033L18.3675 18.1472C18.2657 19.34 18.112 21.4901 18.0706 22.96C18.0344 24.2302 18.0804 25.1122 18.1874 26.3676C18.2415 26.9983 18.3844 27.5132 18.4613 27.7906L18.4617 27.7918C18.5988 28.2877 18.8694 28.8391 19.3366 28.9495C19.684 29.0318 19.9508 29.0121 20.4082 28.901C20.828 28.7983 21.4632 28.4241 21.6034 27.834C21.7286 27.3734 21.8546 26.9125 21.9805 26.4517C22.0342 26.2553 22.0879 26.0589 22.1415 25.8626C22.2852 25.2284 22.5938 24.1525 22.8799 23.1549C22.9104 23.0485 22.9407 22.943 22.9704 22.8391C23.1468 22.1969 23.3781 21.4788 23.5017 21.1068C23.5756 20.9176 23.6117 20.867 23.6592 20.8557C23.7075 20.8444 23.7353 20.8585 23.7466 20.8993C23.7527 20.9197 23.7587 20.9492 23.7602 21.0196C23.7614 21.0418 23.7623 21.0642 23.7633 21.0866C23.7642 21.1083 23.7651 21.13 23.7662 21.1518C23.7692 21.2868 23.7723 21.4212 23.776 21.5562C23.8107 22.8756 24.0812 25.1474 24.3352 26.0757C24.3556 26.1501 24.3742 26.2265 24.393 26.3038C24.5277 26.8575 24.672 27.4507 25.5523 27.5717C26.0165 27.6364 26.4016 27.514 26.4016 27.514C27.1408 27.3044 27.333 26.9064 27.4988 26.2277C27.5392 26.0673 27.6109 25.8025 27.6944 25.4939C27.8352 24.9738 28.0096 24.3293 28.125 23.8504C28.18 23.6197 28.2343 23.3975 28.2878 23.1788L28.7226 21.4465Z" fill="#191A1B"/>
</svg>
