<svg width="48" height="48" viewBox="0 0 48 48" fill="none" xmlns="http://www.w3.org/2000/svg">
<path d="M31.5234 13.1139C31.3124 13.7075 31.1005 14.3012 30.8886 14.8948C30.4988 16.1112 29.9661 17.8664 29.2028 20.9666L28.7118 23.0116C28.6514 23.2698 28.5901 23.5321 28.528 23.8045C28.3204 24.7053 27.9434 26.1027 27.8208 26.6108C27.6336 27.412 27.4166 27.8819 26.5818 28.1294C26.5818 28.1294 26.147 28.2738 25.6228 28.1974C24.4902 28.0347 24.4365 27.148 24.2485 26.4314C23.9617 25.3355 23.6562 22.6537 23.6171 21.0961C23.6128 20.9367 23.6094 20.7781 23.606 20.6187C23.6035 20.5664 23.6017 20.5141 23.5992 20.4626C23.5975 20.3796 23.5907 20.3447 23.5839 20.3207C23.5711 20.2725 23.5396 20.2559 23.4852 20.2692C23.4316 20.2825 23.3907 20.3422 23.3073 20.5656C23.1678 21.0048 22.9065 21.8525 22.7074 22.6105C22.3585 23.8842 21.9509 25.3513 21.7713 26.1799C21.5688 26.9554 21.3654 27.7317 21.1637 28.5071C21.0054 29.2037 20.2881 29.6454 19.8141 29.7667C19.2976 29.8978 18.9963 29.9211 18.604 29.8239C18.0764 29.6936 17.7709 29.0427 17.616 28.4573C17.5292 28.1302 17.3676 27.5216 17.3063 26.776C17.1855 25.294 17.1335 24.2528 17.1744 22.7533C17.2212 21.0181 17.3948 18.4799 17.5097 17.0718C17.5301 16.6044 17.5505 16.1377 17.5701 15.6703C17.5718 15.1505 17.5403 14.8276 17.4748 14.5951C17.4186 14.3975 17.3471 14.2871 17.2084 14.0911C17.1616 14.0247 17.114 13.9807 17.1012 13.935C17.0204 13.632 17.7037 13.0799 18.6176 12.8773C19.1844 12.7511 19.6771 12.7253 20.0796 13.0715C20.3374 13.3563 20.3774 13.6336 20.3621 14.2099C20.3562 14.4041 20.3306 14.6897 20.306 14.9629C20.2345 15.8671 19.9962 17.4471 19.9256 18.3512C19.8022 19.6033 19.6745 21.004 19.643 22.2934C19.6277 22.926 19.6201 24.1258 19.6694 24.3134C19.695 24.4081 19.7392 24.472 19.8192 24.4504C19.8983 24.428 19.94 24.3666 20.0583 24.0569C20.0915 23.9307 20.1238 23.8036 20.157 23.6774C20.1902 23.5504 20.2234 23.4242 20.2566 23.2972C20.2566 23.2972 20.7927 21.4664 21.2471 19.9703C21.7322 18.5273 22.2206 17.0394 22.5423 16.2017C23.0197 14.9662 23.2631 14.0596 24.0894 13.8545C24.9173 13.6511 25.6756 14.0064 25.8321 14.6034C25.9121 14.9123 25.9147 15.1065 25.8798 16.3121C25.8202 18.4226 25.9581 20.0907 26.01 21.6997C26.0517 22.3997 26.1087 22.9443 26.1776 23.2075C26.2091 23.3271 26.2755 23.3628 26.3291 23.3511C26.4355 23.3279 26.4695 23.244 26.5359 22.951C26.564 22.8098 26.5929 22.6678 26.6227 22.5267C26.8167 21.5852 27.0116 20.6428 27.2064 19.7013C27.6583 17.6356 27.974 16.4175 28.5297 14.5046C29.1909 12.2338 29.6785 11.2026 30.5082 11.0233C31.2911 10.8547 31.731 11.4832 31.7727 12.1051C31.7889 12.3177 31.6893 12.7776 31.5234 13.1139ZM23.9983 4C16.0537 4 9 10.286 9 18.0374C9 18.6385 9.05106 19.2114 9.12509 19.7876C10.3539 30.7447 23.0707 43.3897 23.0707 43.3897C23.286 43.6214 23.4852 43.7684 23.6877 43.8779H23.6996L24.1013 44L24.5021 43.8779H24.5148C24.714 43.7684 24.9259 43.6214 25.1403 43.3897C25.1403 43.3897 37.6844 30.7323 38.8877 19.7627C38.9481 19.199 39 18.6261 39 18.0374C39 10.286 31.9463 4 23.9983 4Z" fill="#191A1B"/>
</svg>
