<svg width="48" height="48" viewBox="0 0 48 48" fill="none" xmlns="http://www.w3.org/2000/svg">
<path d="M23.975 39.675C28.2416 35.8417 31.4 32.4417 33.45 29.475C35.5 26.5083 36.525 23.6417 36.525 20.875C36.525 17.1164 35.3112 14.0434 32.8836 11.6561C30.4561 9.26869 27.4859 8.07501 23.9732 8.07501C20.4605 8.07501 17.4909 9.26869 15.0646 11.6561C12.6382 14.0434 11.425 17.1164 11.425 20.875C11.425 23.6417 12.475 26.5 14.575 29.45C16.675 32.4 19.8083 35.8083 23.975 39.675ZM23.9505 44.675C23.5335 44.675 23.0985 44.6 22.6455 44.45C22.1925 44.3 21.8023 44.075 21.475 43.775C19.875 42.4417 18.2083 40.9333 16.475 39.25C14.7416 37.5667 13.15 35.75 11.7 33.8C10.25 31.85 9.05831 29.7833 8.12498 27.6C7.19164 25.4167 6.72498 23.175 6.72498 20.875C6.72498 15.551 8.46253 11.295 11.9376 8.10701C15.4127 4.91901 19.4252 3.32501 23.975 3.32501C28.5248 3.32501 32.5456 4.91901 36.0373 8.10701C39.5291 11.295 41.275 15.551 41.275 20.875C41.275 23.175 40.8 25.4167 39.85 27.6C38.9 29.7833 37.7 31.85 36.25 33.8C34.8 35.75 33.2083 37.5667 31.475 39.25C29.7416 40.9333 28.0916 42.4417 26.525 43.775C26.1598 44.075 25.7437 44.3 25.2767 44.45C24.8096 44.6 24.3676 44.675 23.9505 44.675Z" fill="#191A1B"/>
<path fill-rule="evenodd" clip-rule="evenodd" d="M30.2155 16.3031C29.8703 17.3335 29.3986 18.8203 28.7226 21.4465L28.2878 23.1788C28.2343 23.3975 28.18 23.6197 28.125 23.8504C27.9411 24.6135 27.6073 25.7972 27.4988 26.2277C27.333 26.9064 27.1408 27.3044 26.4015 27.514C26.4015 27.514 26.0164 27.6364 25.5522 27.5717C24.5492 27.4338 24.5017 26.6827 24.3352 26.0757C24.0812 25.1474 23.8107 22.8756 23.776 21.5562C23.7722 21.4212 23.7692 21.2868 23.7662 21.1518C23.7639 21.1075 23.7624 21.0632 23.7602 21.0196C23.7587 20.9492 23.7526 20.9197 23.7466 20.8993C23.7353 20.8585 23.7074 20.8444 23.6592 20.8557C23.6117 20.867 23.5756 20.9176 23.5017 21.1068C23.3781 21.4788 23.1468 22.1969 22.9704 22.8391C22.6614 23.918 22.3005 25.1607 22.1415 25.8626C21.9621 26.5195 21.782 27.1771 21.6034 27.834C21.4632 28.4241 20.8279 28.7983 20.4082 28.901C19.9508 29.0121 19.684 29.0318 19.3366 28.9495C18.8693 28.8391 18.5988 28.2877 18.4617 27.7918C18.3848 27.5147 18.2416 26.9992 18.1873 26.3676C18.0803 25.1122 18.0344 24.2302 18.0705 22.96C18.112 21.4901 18.2657 19.34 18.3675 18.1472C18.3855 17.7512 18.4036 17.356 18.421 16.96C18.4225 16.5197 18.3946 16.2461 18.3366 16.0492C18.2868 15.8818 18.2235 15.7883 18.1007 15.6223C18.0592 15.566 18.017 15.5288 18.0057 15.4901C17.9341 15.2334 18.5393 14.7657 19.3486 14.594C19.8505 14.4871 20.2869 14.4653 20.6433 14.7586C20.8716 14.9999 20.9071 15.2348 20.8935 15.7229C20.8882 15.8874 20.8656 16.1294 20.8438 16.3608C20.7805 17.1267 20.5695 18.4651 20.5069 19.231C20.3976 20.2916 20.2846 21.4781 20.2567 22.5704C20.2432 23.1063 20.2364 24.1226 20.2801 24.2816C20.3027 24.3617 20.3419 24.4159 20.4127 24.3976C20.4828 24.3786 20.5197 24.3266 20.6245 24.0642C20.6539 23.9573 20.6825 23.8497 20.7119 23.7428C20.7413 23.6352 20.7707 23.5283 20.8001 23.4207C20.8001 23.4207 21.2748 21.8699 21.6772 20.6025C22.1068 19.3801 22.5394 18.1198 22.8242 17.4101C23.247 16.3636 23.4625 15.5956 24.1943 15.4219C24.9275 15.2495 25.599 15.5506 25.7376 16.0562C25.8085 16.3179 25.8107 16.4825 25.7798 17.5037C25.7271 19.2915 25.8491 20.7045 25.8951 22.0675C25.932 22.6604 25.9825 23.1218 26.0436 23.3447C26.0715 23.446 26.1302 23.4763 26.1777 23.4664C26.2719 23.4467 26.3021 23.3757 26.3608 23.1274C26.3857 23.0079 26.4113 22.8876 26.4377 22.768C26.6095 21.9705 26.7821 21.1722 26.9547 20.3746C27.3548 18.6248 27.6344 17.593 28.1265 15.9726C28.7121 14.049 29.1439 13.1755 29.8786 13.0235C30.5719 12.8808 30.9615 13.4132 30.9985 13.94C31.0128 14.12 30.9246 14.5096 30.7777 14.7945C30.5908 15.2974 30.4031 15.8002 30.2155 16.3031Z" fill="#191A1B"/>
</svg>
