<svg width="48" height="48" viewBox="0 0 48 48" fill="none" xmlns="http://www.w3.org/2000/svg">
<path d="M37 43.2387C37 43.6593 36.6409 44 36.1975 44H11.8025C11.3591 44 11 43.6593 11 43.2387V40.7607C11 40.34 11.3591 40 11.8025 40H36.1975C36.6409 40 37 40.34 37 40.7607V43.2387ZM30.9009 12.0726C30.7177 12.6027 30.5345 13.1329 30.3519 13.6638C30.0152 14.7513 29.5546 16.3197 28.8939 19.0912L28.4694 20.9186C28.4177 21.1491 28.3647 21.3839 28.3109 21.6279C28.1319 22.4328 27.8051 23.6815 27.6997 24.1347C27.5376 24.8511 27.3502 25.2714 26.6278 25.4933C26.6278 25.4933 26.2529 25.621 25.7994 25.5532C24.8203 25.4076 24.7736 24.6156 24.6109 23.9755C24.3632 22.9951 24.0994 20.5982 24.0654 19.2068C24.0619 19.0648 24.0583 18.9221 24.0548 18.7793C24.0534 18.733 24.052 18.6873 24.0498 18.6402C24.0477 18.5667 24.0421 18.5353 24.0364 18.5139C24.0251 18.4711 23.9975 18.4554 23.9515 18.4675C23.9048 18.4797 23.8701 18.5332 23.7973 18.7323C23.6763 19.1247 23.4506 19.8825 23.2787 20.5604C22.9773 21.6985 22.625 23.0101 22.4694 23.75C22.2939 24.4436 22.1192 25.1372 21.9444 25.8301C21.8072 26.4523 21.1874 26.8476 20.7771 26.9554C20.3314 27.0731 20.0696 27.0938 19.7308 27.0075C19.2744 26.8911 19.0106 26.3089 18.8776 25.7858C18.8012 25.4933 18.6618 24.9495 18.6094 24.2831C18.5054 22.958 18.4594 22.0282 18.4948 20.6874C18.5351 19.1368 18.6851 16.8691 18.7849 15.6097C18.8026 15.1923 18.8203 14.7748 18.8372 14.3574C18.8386 13.8929 18.8111 13.6039 18.7545 13.3962C18.7064 13.2193 18.6441 13.1208 18.5245 12.946C18.4835 12.8867 18.4432 12.8475 18.4319 12.8061C18.3618 12.5349 18.9526 12.0419 19.7428 11.8606C20.2331 11.7486 20.6583 11.725 21.007 12.034C21.2299 12.2895 21.2645 12.5371 21.2504 13.0523C21.2462 13.225 21.2235 13.4818 21.2023 13.7252C21.1407 14.5329 20.9349 15.9458 20.8733 16.7535C20.7672 17.8724 20.6568 19.124 20.6292 20.2764C20.6165 20.8423 20.6094 21.9148 20.6526 22.0824C20.6738 22.1666 20.7127 22.2237 20.7814 22.2037C20.8507 22.1852 20.8861 22.1302 20.9879 21.8527C21.0169 21.7399 21.0452 21.6272 21.0735 21.513C21.1025 21.4003 21.1301 21.2875 21.1591 21.1741C21.1591 21.1741 21.6232 19.5372 22.0152 18.2006C22.4354 16.9105 22.8578 15.5812 23.1358 14.8319C23.5482 13.728 23.7584 12.9181 24.4736 12.7347C25.1896 12.5528 25.8454 12.8703 25.9798 13.4034C26.0498 13.6802 26.052 13.8529 26.0223 14.9311C25.9699 16.817 26.0888 18.3077 26.134 19.7462C26.1701 20.3713 26.2196 20.8587 26.2791 21.0934C26.3059 21.2005 26.3633 21.2326 26.4092 21.2219C26.5012 21.2012 26.5309 21.1263 26.5882 20.8637C26.613 20.7381 26.6385 20.6118 26.6632 20.4848C26.8309 19.6435 26.9993 18.8015 27.1684 17.9602C27.5582 16.1142 27.8312 15.0253 28.313 13.3156C28.8832 11.2855 29.3056 10.3643 30.0237 10.2044C30.6993 10.0539 31.0799 10.6147 31.1167 11.1706C31.1302 11.3611 31.0438 11.7714 30.9009 12.0726ZM23.9989 4C17.1133 4 11 9.6331 11 16.5781C11 17.116 11.044 17.6296 11.1085 18.1461C12.1737 27.963 23.1947 39.3301 23.1947 39.3301C23.3812 39.5375 23.5536 39.8058 23.7287 39.8058H23.7394L24.0876 39.9152L24.4351 39.8058H24.4457C24.6188 39.8058 24.8018 39.5375 24.9883 39.3301C24.9883 39.3301 35.8596 27.9702 36.9028 18.1425C36.9553 17.6375 37 17.1146 37 16.5874C37 9.6424 30.8874 4 23.9989 4Z" fill="#191A1B"/>
</svg>
