<svg width="48" height="48" viewBox="0 0 48 48" fill="none" xmlns="http://www.w3.org/2000/svg">
<path d="M24 40.65C22.8 40.65 21.75 40.2 20.85 39.3C19.95 38.4 19.5 37.35 19.5 36.15C19.5 34.95 19.95 33.9 20.85 33C21.75 32.1 22.8 31.65 24 31.65C25.2 31.65 26.25 32.1 27.15 33C28.05 33.9 28.5 34.95 28.5 36.15C28.5 37.35 28.05 38.4 27.15 39.3C26.25 40.2 25.2 40.65 24 40.65ZM24 19C26.5435 19 28.925 19.4395 31.1446 20.3185C33.3641 21.1975 35.5239 22.5181 37.6239 24.2805C38.1471 24.7181 38.4254 25.2877 38.4587 25.9891C38.492 26.6906 38.2565 27.2935 37.7522 27.7978C37.229 28.321 36.6203 28.5801 35.9261 28.575C35.2319 28.5699 34.5877 28.358 33.9935 27.9391C32.3022 26.5667 30.6355 25.592 28.9935 25.0152C27.3515 24.4384 25.687 24.1501 24 24.1501C22.3319 24.1501 20.6768 24.4384 19.0348 25.0152C17.3928 25.592 15.7261 26.5573 14.0348 27.9109C13.4406 28.3297 12.7917 28.5511 12.0881 28.575C11.3844 28.5989 10.7804 28.3493 10.2761 27.8261C9.75291 27.3217 9.50798 26.7188 9.54131 26.0174C9.57465 25.3159 9.85291 24.7464 10.3761 24.3087C12.4761 22.5464 14.6359 21.221 16.8555 20.3326C19.075 19.4442 21.4565 19 24 19ZM24 7C28.2101 7 32.188 7.7895 35.9337 9.3685C39.6793 10.9475 43.05 13.0587 46.0457 15.7022C46.5877 16.1732 46.8837 16.7641 46.9337 17.475C46.9837 18.1859 46.7565 18.7935 46.2522 19.2978C45.729 19.821 45.0953 20.0837 44.3511 20.0859C43.6069 20.0881 42.9377 19.8536 42.3435 19.3826C39.6522 17.1623 36.7938 15.4018 33.7685 14.1011C30.7431 12.8004 27.487 12.15 24 12.15C20.513 12.15 17.2569 12.8004 14.2316 14.1011C11.2062 15.4018 8.34786 17.1623 5.65656 19.3826C5.06236 19.8536 4.4062 20.0881 3.68806 20.0859C2.96996 20.0837 2.34931 19.821 1.82611 19.2978C1.30291 18.7935 1.05798 18.1859 1.09131 17.475C1.12465 16.7641 1.41233 16.1732 1.95436 15.7022C4.95003 13.0587 8.32068 10.9475 12.0663 9.3685C15.812 7.7895 19.7899 7 24 7Z" fill="#191A1B"/>
</svg>
