<svg width="48" height="48" viewBox="0 0 48 48" fill="none" xmlns="http://www.w3.org/2000/svg">
<path d="M9 42.961C7.89134 42.961 6.954 42.578 6.188 41.812C5.422 41.046 5.039 40.1087 5.039 39V17.25C5.039 16.1337 5.422 15.1897 6.188 14.418C6.954 13.6467 7.89134 13.261 9 13.261H13.289V8.99999C13.289 7.88365 13.672 6.93965 14.438 6.16799C15.204 5.39665 16.1413 5.01099 17.25 5.01099H30.75C31.8663 5.01099 32.8103 5.39665 33.582 6.16799C34.3533 6.93965 34.739 7.88365 34.739 8.99999V21.511H39C40.1163 21.511 41.0603 21.8967 41.832 22.668C42.6033 23.4397 42.989 24.3837 42.989 25.5V39C42.989 40.1087 42.6033 41.046 41.832 41.812C41.0603 42.578 40.1163 42.961 39 42.961H26.65V33.75H21.35V42.961H9ZM9 39H14.25V33.75H9V39ZM9 30.75H14.25V25.5H9V30.75ZM9 22.5H14.25V17.25H9V22.5ZM17.25 30.75H22.5V25.5H17.25V30.75ZM17.25 22.5H22.5V17.25H17.25V22.5ZM17.25 14.25H22.5V8.99999H17.25V14.25ZM25.5 30.75H30.75V25.5H25.5V30.75ZM25.5 22.5H30.75V17.25H25.5V22.5ZM25.5 14.25H30.75V8.99999H25.5V14.25ZM33.75 39H39V33.75H33.75V39ZM33.75 30.75H39V25.5H33.75V30.75Z" fill="#191A1B"/>
</svg>
