<svg width="48" height="48" viewBox="0 0 48 48" fill="none" xmlns="http://www.w3.org/2000/svg">
<path d="M43.6016 16.0039C43.6016 16.0039 43.2109 13.2461 42.0078 12.0352C40.4844 10.4414 38.7812 10.4336 38 10.3398C32.4063 9.93359 24.0078 9.93359 24.0078 9.93359H23.9922C23.9922 9.93359 15.5938 9.93359 10 10.3398C9.21875 10.4336 7.51562 10.4414 5.99219 12.0352C4.78906 13.2461 4.40625 16.0039 4.40625 16.0039C4.40625 16.0039 4 19.2461 4 22.4805V25.5117C4 28.7461 4.39844 31.9883 4.39844 31.9883C4.39844 31.9883 4.78906 34.7461 5.98437 35.957C7.50781 37.5508 9.50781 37.4961 10.3984 37.668C13.6016 37.9727 24 38.0664 24 38.0664C24 38.0664 32.4063 38.0508 38 37.6523C38.7812 37.5586 40.4844 37.5508 42.0078 35.957C43.2109 34.7461 43.6016 31.9883 43.6016 31.9883C43.6016 31.9883 44 28.7539 44 25.5117V22.4805C44 19.2461 43.6016 16.0039 43.6016 16.0039ZM19.8672 29.1914V17.9492L30.6719 23.5898L19.8672 29.1914Z" fill="#191A1B"/>
</svg>
