<svg width="48" height="48" viewBox="0 0 48 48" fill="none" xmlns="http://www.w3.org/2000/svg">
<path fill-rule="evenodd" clip-rule="evenodd" d="M21.262 36.9113C21.0568 37.4242 21.0157 37.9167 21.2825 38.3783C23.0316 37.9736 24.8508 37.9806 26.5967 38.3989C26.8635 38.0193 26.8532 37.6192 26.6172 36.9318C24.8569 36.4896 23.0154 36.4826 21.2517 36.9113M27.2225 33.0128C27.2225 33.0026 27.2225 32.9923 27.2123 32.9718C27.202 32.9718 27.1917 32.9615 27.1815 32.9513C26.5659 32.5409 23.2112 31.9459 20.6772 32.8795C20.6763 32.9179 20.6694 32.956 20.6567 32.9923C20.5233 33.4642 20.5541 33.9156 20.8619 34.2747C23.0984 33.5976 25.735 33.8951 26.9455 34.3055C27.2841 33.9361 27.3251 33.4847 27.202 33.0026M26.8942 34.8697C24.9582 34.2962 22.8999 34.2785 20.9542 34.8184C20.8516 35.1262 20.8106 35.434 20.8824 35.7418C20.9337 35.9675 21.0465 36.1521 21.1902 36.3265C22.9688 35.9071 24.8213 35.9142 26.5967 36.347C26.6993 36.2444 26.7711 36.1419 26.8327 36.0187C27.0379 35.6392 27.0071 35.2493 26.884 34.8697M28.6588 40.1327C27.9991 39.6521 27.278 39.2622 26.5146 38.9734L26.1043 38.84C24.9963 38.604 23.2625 38.4809 21.6416 38.8298L20.7593 39.2093C20.0001 39.5376 19.282 39.9275 18.6664 40.502C18.3586 40.8098 18.3073 41.0149 18.5433 41.3945C18.6722 41.5949 18.8091 41.7899 18.9537 41.9793C19.6242 42.6086 20.3849 43.1342 21.2107 43.5387C21.5005 43.649 21.7991 43.7348 22.1032 43.7952C22.5444 43.8772 22.9855 43.9183 23.4369 43.8157C23.6626 43.7644 23.7139 43.6926 23.7036 43.4566L23.6011 42.0614C23.5864 41.8526 23.5693 41.644 23.5498 41.4356C23.8062 41.6408 24.0319 41.6202 24.3397 41.4356L24.1858 43.4874C24.1653 43.8362 24.2371 43.9183 24.5757 43.9593C25.2938 44.0619 26.0632 43.9696 26.7301 43.6926C27.0963 43.5175 27.4525 43.3223 27.797 43.1078C28.451 42.6486 29.0057 42.0625 29.4282 41.3843C29.5719 41.1381 29.5308 40.9329 29.3256 40.7277C29.1073 40.5196 28.8741 40.3276 28.628 40.1532M32.1366 16.9675C32.9379 16.427 33.5538 15.6535 33.9012 14.7516C34.2808 13.8282 34.4655 12.8639 34.6604 11.8995C34.8609 10.9518 34.9606 9.98545 34.9579 9.01672C34.9477 7.85743 34.5886 6.8623 33.7679 6.01079C33.0718 5.30476 32.3168 4.6595 31.5108 4.08207C31.4698 4.0513 31.4288 4.04104 31.357 4L31.3775 4.51296L31.4801 6.0826C31.4801 6.78022 31.2954 7.41629 30.8235 7.94977C30.6388 8.15495 30.4952 8.36013 30.3105 8.59609L30.249 8.4935C30.0183 7.89615 29.9271 7.25403 29.9822 6.61608C29.9925 6.4109 30.0335 6.20571 30.0848 6.00053C30.1156 5.84664 30.0746 5.75431 29.9207 5.79535C29.7614 5.83372 29.6115 5.90347 29.4795 6.00053C29.0653 6.36016 28.7329 6.80446 28.5049 7.30344C28.2177 7.91899 28.0946 8.53454 27.992 9.21164C27.8894 10.1042 27.8894 10.9865 28.1356 11.8482C28.2382 12.2073 28.3921 12.5664 28.7511 12.751C28.8537 12.8126 28.905 12.8741 28.8845 12.9973C28.8742 13.0588 28.8742 13.0998 28.864 13.1717C28.7819 13.7667 28.8024 14.3515 29.0281 14.9157L29.4385 16.0134C29.4795 16.116 29.4795 16.1878 29.3872 16.2699C29.2826 16.3623 29.2017 16.4784 29.1512 16.6085L28.8127 17.8909C28.7614 18.096 28.7717 18.3012 28.7511 18.5269C28.2997 18.5167 28.0638 18.5987 27.7457 18.9168C27.5373 19.1268 27.342 19.3495 27.161 19.5836C27.0513 19.7291 26.9486 19.8798 26.8532 20.035L26.3402 18.65C26.5967 18.4449 26.648 18.2397 26.5454 18.0345C26.4121 17.8293 26.2069 17.7883 25.8991 17.9319L24.9142 17.2343C24.7706 17.1317 24.7296 17.0496 24.7296 16.8855L25.0066 8.78076L25.3143 6.05183C25.3759 5.59017 25.4785 5.1285 25.5811 4.61555L25.499 4.88229L25.0886 7.01618C24.8303 8.84339 24.6592 10.6819 24.5757 12.5253L24.3705 16.8855L24.1243 16.7829C23.9909 16.6803 23.8678 16.6803 23.7139 16.7829C23.56 16.8855 23.4061 16.9368 23.242 17.0291L23.0573 12.9767C22.9651 11.5768 22.8557 10.178 22.729 8.78076C22.6333 7.61777 22.4585 6.46266 22.2058 5.32343L22.0622 4.78995C22.3251 6.10333 22.4965 7.43337 22.5751 8.7705L22.7803 13.3358L22.8419 17.0291C22.8419 17.2035 22.7906 17.3061 22.6367 17.3984C22.4315 17.5215 22.2571 17.6652 22.0827 17.8088C21.9801 17.8806 21.9391 17.9114 21.816 17.8601C21.6518 17.778 21.4364 17.8498 21.344 18.0037C21.2927 18.0822 21.2698 18.1759 21.2791 18.2693C21.2884 18.3626 21.3295 18.4499 21.3953 18.5167C21.4261 18.5474 21.4569 18.568 21.4774 18.5885L20.9952 19.8811L20.8619 19.7067L20.2874 19.0091C19.9796 18.7013 19.6718 18.4449 19.1999 18.5269L19.0357 17.3574C18.9537 16.947 18.8306 16.5367 18.5023 16.2289C18.4715 16.1981 18.4715 16.1263 18.4817 16.0853L18.7895 15.244C19.0867 14.611 19.1868 13.9033 19.0768 13.2127C19.0357 12.9665 19.0563 12.8023 19.3025 12.669C19.6103 12.4946 19.7128 12.156 19.7949 11.8277C20.0963 10.5904 20.068 9.2958 19.7128 8.07288C19.5128 7.27515 19.0766 6.55642 18.4612 6.01079C18.3264 5.90377 18.1682 5.82996 17.9996 5.79535C17.8559 5.76457 17.7944 5.84664 17.8559 6.00053C17.8765 6.0826 17.9175 6.15442 17.9175 6.23649L17.9072 7.65225C17.8856 7.99129 17.7874 8.32101 17.62 8.61661L17.0352 7.86769C16.7274 7.51888 16.5838 7.10852 16.5017 6.66737C16.4058 5.98527 16.4231 5.29201 16.553 4.61555C16.5838 4.43088 16.5735 4.24622 16.5838 4.02052L16.4504 4.10259C15.6704 4.65044 14.9392 5.26486 14.2652 5.93898C13.8871 6.28527 13.5811 6.70274 13.3645 7.16749C13.148 7.63224 13.0253 8.13514 13.0034 8.64739C12.9931 9.33475 13.0034 10.0324 13.0752 10.6992C13.1983 11.8277 13.4548 12.9562 13.7728 14.0334C14.0395 14.9773 14.4909 15.8185 15.1886 16.4956C15.4245 16.7213 15.681 16.906 15.958 17.1317C15.7118 17.4908 15.8349 17.8498 15.999 18.1986C16.4401 19.2094 17.0431 20.1416 17.7841 20.9583C17.8331 21.0066 17.8746 21.0619 17.9072 21.1225L18.4202 22.251C18.7998 22.9281 19.2922 23.5231 20.0001 23.8925C20.1027 23.9438 20.1027 24.0258 20.0822 24.0976L19.9591 25.021L19.8975 25.5955L18.6664 25.339L17.6405 25.1133C17.2917 25.0107 16.9839 24.8055 16.6864 24.6414C16.4099 24.4833 16.1717 24.2661 15.9888 24.0053C15.7402 23.5517 15.5142 23.086 15.3117 22.6101L15.0757 21.9945C15.0552 21.9432 14.9731 21.8919 14.9116 21.8919C14.6653 21.9124 14.6756 21.8406 14.4191 21.9637C14.2652 22.0356 14.4499 22.5075 14.6551 22.9384C14.7577 23.0922 15.4143 25.0723 17.1173 25.7391C17.4558 25.9032 17.8354 26.0264 18.2047 26.0879C18.6869 26.1905 19.1896 26.211 19.6821 26.2521C19.836 26.2623 19.8872 26.3034 19.8565 26.4572C19.8331 26.6031 19.8228 26.7507 19.8257 26.8984C19.8257 27.0523 19.7539 27.1036 19.6205 27.1036C19.3127 27.1241 18.9844 27.1856 18.6664 27.2369C17.8149 27.3806 16.7172 27.1138 16.6351 27.0933C16.1945 26.976 15.8073 26.7118 15.5374 26.3444C15.404 26.17 14.8398 25.5544 14.7577 25.4518L14.4499 25.0825C14.4089 25.0415 14.3063 25.0107 14.2447 25.0415C13.9985 25.0723 13.8549 25.0928 13.7728 25.2774C13.6907 25.4621 14.6141 26.4059 14.6653 26.488C14.9913 26.9409 15.4131 27.3164 15.9008 27.5877C16.3884 27.859 16.9299 28.0195 17.4866 28.0577C17.979 28.1192 18.4817 28.0679 18.9742 28.0371C19.2409 28.0166 19.4871 27.9346 19.7539 27.9038C19.7949 28.0577 19.7641 28.1603 19.6102 28.2115C19.5384 28.2423 19.4666 28.2834 19.4051 28.3141L18.4202 28.745C18.0929 28.8689 17.7568 28.9684 17.4148 29.0425C16.9018 29.1451 16.4402 28.9912 15.999 28.7348L14.7679 28.0782C14.7166 28.0474 14.1729 28.2526 14.1524 28.4885C14.1421 28.5911 14.5115 28.7963 14.8398 28.9605C15.0142 29.0631 16.4299 30.089 18.3792 29.576C18.7382 29.4734 19.0768 29.3195 19.4051 29.1862L19.7744 29.0118L19.9283 31.2072C19.9693 31.5868 20.0822 31.9561 20.1848 32.3357C20.202 32.3949 20.2298 32.4505 20.2668 32.4999C20.293 32.4731 20.3244 32.4521 20.3592 32.4383C23.0984 31.3611 26.7198 31.9767 27.5098 32.5204C27.52 32.5204 27.52 32.5306 27.52 32.5409C27.5542 32.5128 27.5822 32.4778 27.6021 32.4383C27.6804 32.2738 27.7422 32.102 27.7868 31.9254C27.992 31.0226 28.033 30.0992 28.0433 29.1759C28.0433 29.1041 28.0535 29.0323 28.0535 28.9707C28.0946 28.981 28.1151 28.981 28.1253 28.9912C28.7007 29.3243 29.3287 29.5567 29.9822 29.6786C30.6401 29.8275 31.3279 29.7702 31.952 29.5145L32.9163 29.0323C33.1626 28.9092 33.5319 28.663 33.6345 28.5193C33.7371 28.3962 33.6447 28.3347 33.5319 28.2526C33.2754 28.0679 33.2857 28.0474 32.9984 28.2115L32.1777 28.704C31.8084 28.9399 31.357 29.1144 30.9261 29.1144C30.6388 29.0938 30.3618 29.0323 30.0746 28.9707C29.3769 28.8066 28.7409 28.4783 28.1253 28.15C28.074 28.1192 28.0535 28.0166 28.0022 27.9243L28.1458 27.9346C29.005 28.169 29.9052 28.2111 30.7824 28.0577C31.6032 27.8935 32.3213 27.5447 32.8958 26.9292L33.6755 26.0058C33.8397 25.8212 33.9833 25.575 34.0243 25.4518C34.0859 25.1748 33.9628 25.2467 33.7576 25.1133C33.655 25.0517 33.5524 25.062 33.4703 25.1748L33.0907 25.6673C32.8233 25.9672 32.5531 26.2647 32.2803 26.5598C31.9281 26.8544 31.5197 27.0743 31.08 27.2062C30.8662 27.2415 30.6502 27.2621 30.4336 27.2677L28.8948 27.2267C28.587 27.2062 28.31 27.1651 28.0125 27.1241L27.9612 26.3034H28.1664L29.2949 26.2213C29.9436 26.1277 30.5695 25.9155 31.1415 25.5955C31.7501 25.2891 32.2589 24.8158 32.6086 24.231C32.9163 23.7181 33.2549 23.1538 33.4806 22.487C33.5524 22.2818 33.5832 22.0561 33.5216 22.0253C33.3472 21.9637 33.3677 21.9432 33.1728 21.9227C32.8958 21.9022 32.8958 21.9022 32.7625 22.1792L32.7214 22.2818L32.2905 23.2359C32.1161 23.8104 31.8391 24.3028 31.3262 24.6209C31.2741 24.6533 31.2192 24.6807 31.162 24.7029L30.5465 24.9697L28.5357 25.5031C28.3305 25.5544 28.1048 25.5852 27.8791 25.6262L27.6944 24.0669C27.6944 24.0258 27.756 23.9643 27.797 23.9232C28.1048 23.7181 28.4126 23.5334 28.6793 23.2872C29.2949 22.7127 29.6745 21.9843 29.972 21.2148C30.0013 21.1338 30.0429 21.0577 30.0951 20.9891L30.6593 20.312C31.1723 19.6144 31.6442 18.8757 31.9622 18.055C32.0648 17.819 32.1469 17.5626 32.0033 17.3164C31.9212 17.1727 31.9622 17.0907 32.1059 17.0086" fill="#191A1B"/>
</svg>
