<svg width="48" height="48" viewBox="0 0 48 48" fill="none" xmlns="http://www.w3.org/2000/svg">
<path fill-rule="evenodd" clip-rule="evenodd" d="M30.5555 40.0531C30.5555 41.0013 29.7478 41.7778 28.7616 41.7778H19.0161C18.0299 41.7778 17.2221 41.0013 17.2221 40.0531V20.3157C17.2221 20.1099 17.3781 19.9507 17.5846 19.8928C18.5214 19.6271 19.3969 19.503 20.6187 19.5764C23.1354 19.7284 24.1421 21.8449 26.3857 21.8449C27.7409 21.8449 29.11 21.177 29.8339 20.6424C30.1296 20.4253 30.5555 20.6259 30.5555 20.9847V40.0531ZM27.7835 8.44444C28.4434 8.44444 28.9073 8.64284 29.1034 9.30727L32.4842 18.9802C32.4976 19.0133 32.5356 19.1207 32.5787 19.2437C32.6936 19.5733 32.7593 21.5211 32.7696 21.8694C32.7726 21.9536 32.7747 22.0329 32.776 22.0979L32.7778 40.5518C32.7778 42.3839 31.4291 44 28.6035 44H18.4373C16.5539 44 15.0133 42.448 15.0133 40.5518L15 22.2362L15.0012 21.7826C15.0114 21.293 15.0833 19.4502 15.1468 19.2726C15.2196 19.0691 15.2422 19.0081 15.2545 18.9771L18.7586 9.30727C18.9905 8.58808 19.5971 8.44444 20.3638 8.44444H27.7835ZM27.9125 4C28.6782 4 29.3055 4.46723 29.3055 5.03857V5.18366C29.3055 5.75499 28.6782 6.22222 27.9125 6.22222L20.8363 6.22222C20.0706 6.22222 19.4444 5.75499 19.4444 5.18366V5.03857C19.4444 4.46723 20.0706 4 20.8363 4H27.9125Z" fill="#191A1B"/>
</svg>
