<svg width="48" height="48" viewBox="0 0 48 48" fill="none" xmlns="http://www.w3.org/2000/svg">
<path fill-rule="evenodd" clip-rule="evenodd" d="M20.5412 4.00485C29.3658 4.33294 35.423 20.993 35.0987 29.2767C35.0933 29.3996 34.5722 29.7214 34.3881 29.5443L29.8934 26.5446C29.7575 26.4519 29.582 26.4373 29.4322 26.5071L27.538 27.5289C26.5085 24.3146 23.497 21.9221 19.8424 21.7867C15.2054 21.6148 11.3035 25.1343 11.1259 29.6475C10.9493 34.1606 14.5654 37.9582 19.2024 38.1301C19.3276 38.1353 19.4518 38.1342 19.5759 38.1332C20.7467 40.2403 22.5114 41.987 24.6485 43.164C22.8742 43.7629 20.9618 44.0629 18.9756 43.989C10.396 43.6702 3.68502 36.6219 4.01142 28.2695C4.33568 19.9858 11.7091 3.67779 20.5412 4.00485ZM19.9656 28.7424C20.0192 28.4806 20.3409 28.359 20.5719 28.511L24.1269 30.8617C24.2424 30.9382 24.3919 30.949 24.5187 30.8921L29.1698 28.7758C29.2976 28.7179 29.4481 28.7297 29.5636 28.8072L33.4764 31.4345C33.595 31.5149 33.7507 31.5247 33.8796 31.4619L37.5996 29.6447C37.7171 29.5878 37.8584 29.5907 37.9728 29.6535L40.9587 31.2903C41.0536 31.3433 41.168 31.3541 41.2722 31.3227L43.4662 30.6548C43.7147 30.5783 43.9704 30.7509 43.9756 31C43.9848 31.4727 43.9982 32.1298 43.9993 32.2465C44.0725 38.6603 38.6492 43.9307 31.9113 43.9993C25.1693 44.0689 19.6285 38.9104 19.5563 32.4966C19.5439 31.4031 19.6872 30.1184 19.9656 28.7424Z" fill="#191A1B"/>
</svg>
