<svg width="48" height="48" viewBox="0 0 48 48" fill="none" xmlns="http://www.w3.org/2000/svg">
<path fill-rule="evenodd" clip-rule="evenodd" d="M19.1928 21.9829C18.4151 22.5889 11.7188 28.1742 14.062 33.4969C14.0852 33.552 14.0974 33.6111 14.0978 33.6708C14.0982 33.7306 14.0869 33.7898 14.0643 33.8452C14.0418 33.9005 14.0086 33.9509 13.9666 33.9934C13.9246 34.0359 13.8746 34.0697 13.8196 34.0928C13.7082 34.1409 13.5825 34.1435 13.4693 34.1001C13.3561 34.0567 13.2643 33.9707 13.2136 33.8605C12.1632 31.4769 12.5369 28.8307 14.3246 26.0027C15.5002 24.219 16.9447 22.6279 18.607 21.286C18.7026 21.2109 18.8238 21.1762 18.9446 21.1894C19.0655 21.2026 19.1763 21.2627 19.2534 21.3567C19.2916 21.4027 19.3202 21.4559 19.3373 21.5131C19.3545 21.5703 19.36 21.6305 19.3534 21.6899C19.3468 21.7493 19.3282 21.8067 19.2989 21.8588C19.2696 21.9109 19.2301 21.9565 19.1827 21.993M20.0614 18.761C17.7081 18.0843 12.4864 24.1847 11.6178 27.447C10.3755 32.2243 10.8098 35.6079 14.7488 36.7391C18.6878 37.8703 21.4653 35.4261 22.8692 30.679C24.0509 26.7097 22.3844 19.4175 20.0715 18.761M28.7373 37.3653C28.6364 37.4319 28.5134 37.4565 28.3946 37.4338C28.2758 37.4112 28.1705 37.3431 28.101 37.2441C26.3032 34.5777 27.4546 29.8407 27.697 28.9216C27.7301 28.8043 27.8079 28.7047 27.9137 28.6443C28.0195 28.5838 28.1448 28.5674 28.2626 28.5984C28.505 28.659 28.6666 28.9014 28.5858 29.1539C27.9495 31.5173 27.6364 34.911 28.8585 36.729C28.9236 36.8296 28.9463 36.9518 28.9217 37.0691C28.8972 37.1864 28.8273 37.2892 28.7272 37.3552M36.7366 34.0221C35.3226 30.1235 29.6362 25.1947 27.3435 26.0027C25.0407 26.8107 24.4448 34.7898 25.7073 37.9208C27.5556 42.5062 29.9291 44.9908 33.7874 43.6273C37.6456 42.2638 38.4334 38.6581 36.7366 34.0323M25.2629 7.26713L25.3639 6.96413C25.4032 6.85017 25.4851 6.75591 25.5926 6.70126C25.7 6.64661 25.8244 6.63584 25.9396 6.67123C26.182 6.74193 26.3133 6.99443 26.2426 7.23683L26.1416 7.53983C25.4649 9.66084 24.8286 11.6808 26.2628 15.1452C26.2858 15.2008 26.2975 15.2605 26.2972 15.3207C26.2969 15.3809 26.2847 15.4405 26.2612 15.4959C26.2377 15.5514 26.2034 15.6016 26.1604 15.6437C26.1173 15.6858 26.0663 15.7189 26.0103 15.7411C25.8989 15.7854 25.7747 15.7849 25.6636 15.7397C25.5526 15.6945 25.4633 15.6082 25.4144 15.4987C23.8489 11.7313 24.6064 9.35784 25.273 7.26713M30.828 21.9425C34.7267 20.7305 35.6761 17.1753 34.1914 12.4687C32.939 8.52963 27.4647 3.35841 25.1619 4.06541C22.8389 4.77242 21.8895 12.7212 23.0207 15.9128C24.667 20.5588 26.9395 23.1545 30.8382 21.9425" fill="#191A1B"/>
</svg>
