<svg width="48" height="48" viewBox="0 0 48 48" fill="none" xmlns="http://www.w3.org/2000/svg">
<path fill-rule="evenodd" clip-rule="evenodd" d="M42.3616 19.2695C44.6614 16.9697 44.1614 12.3702 41.0618 8.77054C38.662 5.97082 35.4623 4.67095 32.9626 5.07091C32.6626 5.1709 32.4626 5.47087 32.6626 5.77084L38.362 13.97L29.7629 9.57046C29.5629 9.47047 29.2629 9.57046 29.163 9.77044C29.163 9.87043 29.163 9.87043 29.163 9.97042C29.163 12.1702 30.0629 14.57 31.8627 16.7697C34.5624 19.9694 38.362 21.2693 40.9618 20.2694C40.9618 20.8693 40.9618 21.5693 41.2617 22.3692C41.4617 23.0691 41.7617 23.769 42.2616 24.369C41.4617 24.8689 40.8618 25.5688 40.3618 26.3688C39.8619 27.1687 39.5619 27.9686 39.4619 28.5685C37.5621 26.2688 30.4628 23.0691 29.8629 22.8691C29.2629 22.6691 28.563 22.7691 27.8631 22.6691L28.463 21.2693C29.163 21.1693 29.7629 20.5694 29.7629 19.8694C29.7629 19.0695 29.163 18.4696 28.363 18.4696C27.5631 18.4696 26.9632 19.0695 26.9632 19.8694C26.9632 20.2694 27.1632 20.6693 27.4631 20.9693L26.6632 22.7691C26.1633 22.7691 25.3633 22.7691 24.4634 22.7691C23.1636 22.7691 22.4636 22.7691 21.6637 22.7691L20.8638 20.8693C21.3637 20.2694 21.3637 19.3695 20.7638 18.8695C20.1639 18.3696 19.264 18.3696 18.764 18.9695C18.564 19.2695 18.464 19.5695 18.464 19.8694C18.464 20.5694 18.964 21.1693 19.6639 21.2693L20.2639 22.7691C19.7639 22.8691 18.564 22.9691 18.1641 23.0691C17.7641 23.1691 10.5648 26.6687 8.26506 29.1685C8.16507 28.5685 7.8651 27.9686 7.46514 27.2687C6.8652 26.3688 6.16527 25.5688 5.56533 25.2689C6.06528 24.6689 6.36525 23.969 6.56523 23.2691C6.8652 22.7691 6.8652 22.3692 6.96519 21.9692C9.66492 22.9691 13.3645 21.5693 16.0643 18.3696C17.9641 16.1698 18.864 13.67 18.864 11.4703C18.864 11.2703 18.664 11.0703 18.364 11.0703C18.2641 11.0703 18.2641 11.0703 18.1641 11.0703L9.46494 15.4699L15.2644 7.1707C15.4643 6.87073 15.2644 6.57076 14.9644 6.47077C12.3646 6.07081 9.16497 7.47067 6.76521 10.2704C3.76551 13.77 3.16557 18.1696 5.16537 20.5694C4.76541 21.0693 4.56543 21.6692 4.36545 22.3692C3.96549 23.769 3.96549 24.9689 4.36545 25.4689C4.16547 26.1688 4.56543 27.3687 5.26536 28.5685C5.96529 29.8684 6.96519 30.7683 7.66512 30.8683C7.76511 32.3682 8.36505 33.668 9.26496 34.9679L8.66502 35.1679C8.16507 35.3679 7.26516 35.5678 6.8652 36.0678C6.56523 36.4678 6.66522 36.8677 6.76521 37.3677L7.56513 39.7674C7.8651 40.5673 9.16497 40.2674 8.865 39.3675L8.16507 37.0677C8.16507 37.0677 8.16507 36.9677 8.06508 36.8677C8.46504 36.6677 8.96499 36.4678 9.46494 36.2678L10.0649 35.9678C10.4648 36.3678 10.8648 36.7677 11.2648 37.0677L10.6648 37.3677C10.2649 37.5676 9.76491 37.7676 9.56493 38.2676C9.46494 38.6675 9.76491 39.1675 9.8649 39.5674L10.6648 41.3673C11.0648 42.1672 12.2647 41.4673 11.8647 40.6673L11.0648 38.7675C11.5647 38.4676 12.0647 38.2676 12.5646 38.0676C12.9646 38.3676 13.4645 38.6675 13.8645 38.8675C13.5645 38.9675 13.1646 39.1675 13.0646 39.4674C12.8646 39.9674 13.0646 40.3674 13.2646 40.8673L14.0645 42.6671C14.4644 43.467 15.6643 42.7671 15.2644 41.9672L14.5644 40.5673C14.5644 40.5673 14.4644 40.2674 14.3644 40.1674C14.4644 40.1674 14.4644 40.0674 14.5644 40.0674L15.5643 39.7674C17.9641 40.7673 20.7638 40.8673 23.8635 40.8673C26.8632 40.8673 29.6629 40.6673 31.9627 39.5674L33.1626 39.9674C33.2625 39.9674 33.3625 40.0674 33.4625 40.1674C33.4625 40.2674 33.3625 40.3674 33.3625 40.3674L32.9626 42.0672C32.5626 42.8671 33.7625 43.567 34.1625 42.7671L34.9624 41.0673C35.1624 40.5673 35.4623 40.0674 35.2623 39.5674C35.0624 39.1675 34.5624 39.0675 34.2624 38.8675L33.9625 38.7675C34.4624 38.4676 34.8624 38.1676 35.2623 37.8676C35.6623 38.0676 36.7622 38.5675 37.2621 38.8675L37.1622 38.9675C37.0622 39.0675 36.9622 39.3675 36.9622 39.4674L36.3622 40.7673C35.9623 41.5672 37.1622 42.2672 37.5621 41.4673L38.362 39.6674C38.562 39.2675 38.862 38.8675 38.662 38.3676C38.462 37.8676 37.9621 37.6676 37.5621 37.4677C37.1622 37.2677 36.7622 37.0677 36.3622 36.8677C36.7622 36.4678 37.1622 36.0678 37.4621 35.7678L38.762 36.3678C39.1619 36.5677 39.7619 36.6677 40.1618 36.9677C40.0619 37.2677 39.9619 37.5676 39.8619 37.8676L39.3619 39.4674C39.062 40.3674 40.4618 40.6673 40.6618 39.8674L41.4617 37.4677C41.5617 37.0677 41.7617 36.5677 41.4617 36.1678C41.0618 35.6678 40.1618 35.5678 39.6619 35.2679L38.362 34.6679C39.3619 33.1681 39.9619 31.5682 40.0619 29.9684C40.7618 30.0684 41.8617 29.1685 42.7616 27.7686C43.4615 26.5687 43.7615 25.3689 43.6615 24.6689C44.0615 24.169 44.1614 22.8691 43.6615 21.5693C43.4615 20.5694 42.9616 19.6694 42.3616 19.2695Z" fill="#191A1B"/>
</svg>
