<svg width="48" height="48" viewBox="0 0 48 48" fill="none" xmlns="http://www.w3.org/2000/svg">
<path fill-rule="evenodd" clip-rule="evenodd" d="M26.7421 29.6441C27.0597 29.6307 27.3766 29.6853 27.6714 29.8044C27.9662 29.9235 28.2322 30.1042 28.4514 30.3345C28.6706 30.5648 28.8381 30.8393 28.9425 31.1396C29.0469 31.4399 29.0859 31.7591 29.0569 32.0757C29.0569 33.7534 27.9526 34.5179 26.7208 34.5179C25.4679 34.5179 24.4061 33.7534 24.4061 32.0757C24.4061 30.4511 25.4997 29.6335 26.7421 29.6335V29.6441ZM33.2405 37.2468C33.421 37.0026 33.6015 36.7159 33.6227 36.3973C33.63 36.3004 33.6173 36.2031 33.5855 36.1112C33.5537 36.0194 33.5034 35.9351 33.4377 35.8635C33.372 35.7918 33.2924 35.7344 33.2037 35.6947C33.115 35.6551 33.0191 35.634 32.9219 35.6328C32.6034 35.6328 32.253 35.7815 32.1786 36.1956H31.7539C31.8282 35.5585 32.253 35.2081 32.9644 35.2081C33.4422 35.2081 33.8138 35.3992 33.9837 35.739C34.1961 36.185 34.0899 36.8008 33.6652 37.3317L33.5378 37.5229L32.4972 38.9032H34.1961V39.328H31.722L33.2617 37.2043L33.2405 37.2468ZM16.9096 33.7852C17.0688 34.5285 17.9289 34.7833 18.6616 34.7833C20.0632 34.7833 20.3605 34.1463 20.3605 33.6153C20.3605 32.596 19.2243 32.511 18.4704 32.4473C16.6335 32.2881 15.8159 31.7041 15.8159 30.5148C15.8159 28.8796 17.2493 28.285 18.5766 28.285C19.2137 28.285 21.21 28.4336 21.3374 30.2175H20.1481C19.9782 29.6653 19.373 29.3149 18.5554 29.3149C17.8121 29.3149 17.0264 29.7184 17.0264 30.483C17.0264 31.3643 17.9608 31.4704 18.7041 31.5448C20.5304 31.7041 21.5922 32.0757 21.5922 33.6047C21.5922 35.4629 19.7446 35.7708 18.651 35.7921C17.2281 35.7921 15.8053 35.155 15.6778 33.7534H16.8883L16.9096 33.7852ZM18.2899 7.60059C18.2793 6.64495 18.9058 5.85919 19.6915 5.84858L28.0163 5.76363C28.4198 5.76363 28.7065 5.97599 28.887 6.13527C29.2268 6.45382 29.4179 6.95288 29.4179 7.48379L29.5241 18.6648L31.5097 23.4643H16.3893L18.4067 18.5799L18.3006 7.57935L18.2899 7.60059ZM30.5009 32.0757C30.521 32.5787 30.4356 33.0804 30.2503 33.5485C30.065 34.0166 29.7838 34.4408 29.4248 34.7938C29.0658 35.1467 28.637 35.4207 28.1658 35.5981C27.6947 35.7756 27.1916 35.8525 26.689 35.8239C24.8096 35.8239 22.9089 34.6559 22.9089 32.0757C22.9089 29.4955 24.8839 28.3274 26.7315 28.3274C28.5366 28.3274 30.5116 29.4955 30.5116 32.0757H30.5009ZM38.1673 34.8577L31.3292 18.3144L31.223 7.48379C31.2124 6.48567 30.8195 5.54065 30.1399 4.88231C29.5347 4.29831 28.7595 3.97976 27.9738 4.001L19.6491 4.08594C17.8758 4.10718 16.4424 5.67868 16.4636 7.62183L16.5698 18.2719L9.71038 34.8577C9.1971 35.8788 8.95486 37.0147 9.00692 38.1563C9.05899 39.298 9.4036 40.4071 10.0077 41.3773C11.0695 43.0444 12.7154 44 14.5523 44H33.3466C34.2664 43.994 35.1689 43.7491 35.9656 43.2893C36.7623 42.8295 37.4258 42.1707 37.8913 41.3773C38.4934 40.4084 38.837 39.3012 38.889 38.1616C38.9411 37.022 38.6999 35.8881 38.1886 34.8683L38.1673 34.8577Z" fill="#191A1B"/>
</svg>
