<svg width="48" height="48" viewBox="0 0 48 48" fill="none" xmlns="http://www.w3.org/2000/svg">
<path fill-rule="evenodd" clip-rule="evenodd" d="M16.2492 19.6C16.6574 19.7632 17.5655 20.5183 16.2799 21.5692L16.2697 21.559C15.0351 22.5589 8.14785 21.2937 8.14785 21.2937C7.77033 20.957 12.9434 14.5289 18.2899 10.366C18.304 10.3519 18.3196 10.3365 18.336 10.3203C18.486 10.1723 18.7134 9.94778 18.6674 9.85584C18.5733 9.77024 18.3283 9.97192 18.1735 10.0993C18.1438 10.1238 18.1174 10.1455 18.096 10.1619C14.7393 12.8157 11.6807 15.8263 8.97431 19.1408C7.50819 21.3148 6.47256 23.7497 5.92353 26.3137C5.8215 26.6708 4.92361 26.5688 5.00524 26.2117C5.5154 24.018 6.38268 22.1202 7.50504 20.2428C6.90305 18.6307 5.59703 14.8248 6.31126 13.8351C7.22955 12.5291 8.24988 13.1209 8.45394 13.5494C8.46186 13.566 8.47031 13.5839 8.47929 13.6029C8.70184 14.0737 9.24886 15.2309 9.98443 14.9269C10.6454 14.6537 10.6594 13.4745 10.6706 12.5205C10.6724 12.37 10.6741 12.2252 10.6783 12.0904C10.7395 10.4987 10.8823 9.20284 11.5557 8.92735C12.5455 8.53962 12.9842 8.89674 13.3311 9.66198C13.3985 9.8106 13.4589 9.97037 13.5189 10.1288C13.7676 10.7863 14.0077 11.421 14.6983 11.1415C15.4753 10.8253 15.2284 9.60522 15.0766 8.85525C15.0569 8.75818 15.0389 8.66898 15.0249 8.59064C14.8208 7.46828 15.4738 5.32559 16.6574 5.12153C17.2455 5.01651 17.4417 5.53028 17.637 6.04125C17.8211 6.52321 18.0043 7.00269 18.5144 6.95812C19.3835 6.88217 20.0502 6.04562 20.5781 5.38332C20.6885 5.24476 20.7929 5.11383 20.8917 4.99909C22.1978 3.49921 23.3507 4.05018 23.6976 4.35628C24.0445 4.66238 24.7894 5.83576 23.3609 7.24381C23.2678 7.33397 23.1673 7.42634 23.0639 7.52137C22.4654 8.07168 21.7695 8.71148 21.8304 9.52934C21.8651 9.99465 22.4137 10.0805 22.9647 10.1668C23.5495 10.2583 24.137 10.3503 24.116 10.8966C24.065 11.9883 21.8406 12.9066 20.5958 12.9066C19.8306 12.9066 17.6777 12.9576 17.5553 13.8249C17.4485 14.6007 18.1062 14.5821 18.8117 14.5623C19.1176 14.5537 19.4325 14.5448 19.698 14.6004C20.5754 14.784 21.055 15.1207 20.7795 16.0696C20.5958 16.7124 19.2082 17.0492 17.4736 17.3553C17.2146 17.4046 16.8721 17.4468 16.4988 17.4927C15.3278 17.637 13.8532 17.8185 13.6984 18.3756C13.5405 18.9442 14.9108 19.2683 15.7274 19.4615C15.9658 19.5179 16.157 19.5631 16.2492 19.6ZM23.4551 16.038C25.1284 12.4363 30.8422 11.4976 36.1684 13.9055V13.9157C40.0456 15.6707 42.6474 18.7317 43.1576 21.6498C43.2531 22.2027 39.3431 20.9582 35.2956 19.6701C31.1259 18.343 26.8103 16.9694 26.5773 17.4665C26.343 17.9663 30.2477 20.3311 33.9997 22.6033C37.6008 24.7841 41.0611 26.8798 40.5864 27.1596C38.0151 28.6901 33.9338 28.7207 30.0566 26.9555C24.7203 24.5067 21.7817 19.6398 23.4551 16.038ZM22.8414 24.7321L23.2291 25.3443L23.2393 25.3749C23.678 26.1095 23.6882 26.4667 23.3413 26.8442C22.9944 27.2217 10.5974 34.6395 10.0975 34.8333C9.59753 35.0272 9.38326 34.7517 8.93431 34.0375L8.54659 33.4049C7.75073 32.1091 8.85269 30.4051 9.46488 29.6297C9.46488 29.6297 10.9342 27.7319 12.6687 26.3442C12.5904 26.2679 12.5219 26.1822 12.4646 26.0891C12.2096 25.6708 12.3422 24.4464 12.5463 24.0791C12.6279 23.926 13.6788 23.8342 13.9033 23.8546C14.0903 23.8743 14.0993 24.0031 14.1123 24.1884C14.1262 24.3874 14.1448 24.6516 14.3931 24.9158C14.4604 24.988 14.5156 25.0707 14.5563 25.1606C16.6174 24.1913 19.0151 23.8342 19.0151 23.8342C19.0674 23.8291 19.1232 23.8234 19.1822 23.8173L19.1823 23.8173C20.1829 23.7143 22.0899 23.5181 22.8414 24.7321ZM13.7503 33.9048L24.1576 27.6196L24.1882 27.6094C25.2596 28.4257 26.1778 29.5276 26.9941 30.8133C29.147 34.2722 28.6368 38.5984 26.0146 41.3532C25.7933 41.5878 25.668 41.9165 25.542 42.2468C25.3777 42.6779 25.2123 43.1118 24.831 43.3429C24.4663 43.5605 23.8947 43.5611 23.345 43.5617C22.9413 43.5621 22.5493 43.5626 22.2598 43.649C20.381 44.1903 18.3768 44.1036 16.5518 43.4019C14.7267 42.7003 13.1806 41.4221 12.1483 39.7615C11.3321 38.4759 10.7607 37.1597 10.5158 35.8537L12.0463 34.9354C12.0463 34.9354 12.934 37.7923 16.1684 40.2921C17.5357 41.3634 19.4743 41.5573 20.5967 41.5675C20.6519 41.5718 20.7069 41.5564 20.7519 41.5239C20.7969 41.4915 20.829 41.4442 20.8424 41.3904C20.8559 41.3367 20.8498 41.2798 20.8254 41.2301C20.801 41.1803 20.7597 41.1408 20.7089 41.1186C19.5399 40.5087 18.4238 39.8022 17.3724 39.0065C15.4848 37.527 13.7503 33.9048 13.7503 33.9048ZM28.0451 18.1312C28.0469 18.1336 28.049 18.1362 28.0513 18.1389C28.0491 18.1397 28.047 18.1405 28.0451 18.1414V18.1312ZM28.0513 18.1389C28.7019 17.9183 41.1461 22.5798 41.1461 22.5798C41.1461 22.5798 41.3399 23.345 40.9828 24.1103C40.6155 24.8959 40.0033 25.253 40.0033 25.253C39.3333 24.9688 28.5131 18.6752 28.0513 18.1389Z" fill="#191A1B"/>
</svg>
