<svg width="48" height="48" viewBox="0 0 48 48" fill="none" xmlns="http://www.w3.org/2000/svg">
<path fill-rule="evenodd" clip-rule="evenodd" d="M24.9665 22.9995C25.9178 21.8357 27.6818 21.4565 28.5371 21.3392C28.799 21.3025 29.0172 21.4869 29.0324 21.7414C29.0804 22.5428 29.1219 24.2336 28.1651 25.4037C27.2978 26.4649 25.4825 26.8441 24.6414 26.9698V29.0303C24.6414 28.8124 24.8061 28.6019 24.9665 28.406C25.9178 27.2421 27.6818 26.8629 28.5371 26.7446C28.799 26.7089 29.0172 26.8933 29.0324 27.1479C29.0804 27.9482 29.1219 29.64 28.1651 30.8091C27.2978 31.8713 25.4825 32.2505 24.6414 32.3762V37.2903C24.6414 37.4883 24.3097 37.6842 24.1024 37.6842H23.7271C23.5209 37.6842 22.9591 37.4883 22.9591 37.2903V32.3731C22.9591 32.3867 23.042 32.3919 22.982 32.3836C22.1005 32.2641 20.3168 31.8902 19.4332 30.8091C18.4775 29.64 18.496 27.9482 18.544 27.1479C18.5604 26.8933 18.8222 26.7089 19.0851 26.7446C19.9405 26.8629 21.5605 27.2421 22.5118 28.406C22.7955 28.7527 22.9591 29.1445 22.9591 29.5426V26.9666C22.9591 26.9803 23.042 26.9855 22.982 26.9771C22.1005 26.8577 20.3168 26.4837 19.4332 25.4037C18.4775 24.2336 18.496 22.5428 18.544 21.7414C18.5604 21.4869 18.8222 21.3025 19.0851 21.3392C19.9405 21.4565 21.5605 21.8357 22.5118 22.9995C22.7955 23.3463 22.9591 23.7381 22.9591 24.1361V21.5602C22.9591 21.5738 23.042 21.579 22.982 21.5707C22.1005 21.4523 20.3168 21.0783 19.4332 19.9972C18.4775 18.8271 18.496 17.1363 18.544 16.335C18.5604 16.0815 18.8222 15.896 19.0851 15.9327C19.9405 16.05 21.5605 16.4303 22.5118 17.5931C22.7955 17.9409 22.9591 18.3316 22.9591 18.7307V17.0106C22.118 16.3035 21.5834 15.0821 21.5889 13.89C21.5965 12.4024 22.7649 11.0584 23.3202 10.4603C23.4969 10.2706 23.8526 10.2675 24.0348 10.4519C24.6283 11.0542 25.9036 12.4286 25.896 13.9078C25.8905 15.212 25.4825 16.3978 24.6414 17.063V18.2174C24.6414 18.0006 24.8061 17.789 24.9665 17.5931C25.9178 16.4303 27.6818 16.05 28.5371 15.9327C28.799 15.896 29.0172 16.0815 29.0324 16.335C29.0804 17.1363 29.1219 18.8271 28.1651 19.9972C27.2978 21.0584 25.4825 21.4376 24.6414 21.5633V23.6239C24.6414 23.406 24.8061 23.1954 24.9665 22.9995ZM36.5664 9.16882L37.7185 6.52729C37.8341 5.38563 36.9119 4.78547 35.9908 5.02532L33.8019 6.16698C33.8019 6.16698 27.813 4.12456 22.9743 4.00411C18.1366 3.88471 13.0688 6.40684 13.0688 6.40684L10.7644 5.44533C9.72776 5.20547 9.15218 5.98683 9.38221 6.88759L10.6499 9.28927C10.6499 9.28927 8 18.6572 8 24.7824C8 29.4244 9.2677 36.1927 9.9588 38.3545L8.86388 40.9971C8.74937 41.8371 8.9794 42.3179 9.9588 42.1974L12.3777 41.5973C12.3777 41.5973 19.5188 44 23.4354 44C27.352 44 33.8019 42.078 33.8019 42.078L36.2208 42.7986C37.0274 42.918 37.5458 42.7986 37.4885 41.7177L37.0274 38.7148C37.8341 36.7929 39.3318 31.1484 39.5618 25.8235C39.8431 19.3223 36.5664 9.16882 36.5664 9.16882Z" fill="#191A1B"/>
</svg>
