<svg width="128" height="128" viewBox="0 0 128 128" fill="none" xmlns="http://www.w3.org/2000/svg">
<path d="M87.9509 38.1067C87.9331 38.4444 87.8798 38.8 87.8087 39.1733C87.8087 39.1733 87.4531 39.3867 82.102 40.08C80.8931 40.24 84.3953 40.08 76.8042 40.5067C66.2976 41.0933 69.5509 40.8444 69.5509 40.8444C69.9242 40.6667 70.2265 40.5067 70.5642 40.3467C66.2442 40.4889 61.1242 40.5244 55.0976 40.4178C54.6709 40.4178 54.2442 40.4178 53.8176 40.4C53.3909 40.3822 52.9642 40.3822 52.5553 40.3644C52.1465 40.3467 51.7198 40.3467 51.3109 40.3289C50.902 40.3111 50.4931 40.3111 50.0842 40.2933C49.6754 40.2755 49.2842 40.2578 48.8753 40.2578C48.4665 40.2578 48.0931 40.2222 47.6842 40.2044C47.2753 40.1867 46.902 40.1689 46.5287 40.1511C46.1553 40.1333 45.7642 40.1155 45.3909 40.0978C45.0176 40.08 44.6442 40.0622 44.2709 40.0444C43.8976 40.0267 43.542 40.0089 43.1865 39.9733C42.8309 39.9378 42.4754 39.9378 42.1198 39.9022C41.7642 39.8667 41.4265 39.8489 41.0709 39.8311C40.7154 39.8133 40.3954 39.7778 40.0576 39.76C39.7198 39.7422 39.3998 39.7067 39.062 39.6889C38.7242 39.6711 38.422 39.6355 38.0842 39.6178C37.7465 39.6 37.462 39.5644 37.142 39.5289C36.822 39.4933 36.5376 39.4755 36.2176 39.44C35.8976 39.4044 35.6309 39.3867 35.3287 39.3511C35.0265 39.3155 34.7598 39.2978 34.4576 39.2622C34.1553 39.2267 33.9065 39.2089 33.622 39.1733C33.3376 39.1378 33.0887 39.12 32.8042 39.0844C32.5198 39.0489 32.2887 39.0311 32.022 38.9955C31.7554 38.96 31.5242 38.9244 31.2753 38.9067C31.0265 38.8889 30.7954 38.8355 30.5465 38.8178C30.2976 38.8 30.0842 38.7467 29.8531 38.7289C29.622 38.7111 29.4087 38.6578 29.1776 38.6222C28.9465 38.5867 28.7509 38.5511 28.5376 38.5155C28.3242 38.48 28.1287 38.4444 27.9331 38.4089C27.7376 38.3733 27.542 38.3378 27.3642 38.3022C27.1865 38.2667 26.9909 38.2311 26.8131 38.1955C26.6353 38.16 26.4753 38.1244 26.2976 38.0889C26.1376 38.0533 25.9776 38.0178 25.8176 37.9822C25.6753 37.9467 25.5153 37.9111 25.3731 37.8755C25.2309 37.84 25.0887 37.8044 24.9465 37.7689C24.822 37.7333 24.6798 37.6978 24.5553 37.6622C24.4309 37.6267 24.3242 37.5911 24.1998 37.5555C24.0931 37.52 23.9865 37.4844 23.8798 37.4489C23.7909 37.4133 23.6842 37.3778 23.5953 37.3422C23.5065 37.3067 23.4176 37.2711 23.3465 37.2533C23.2754 37.2178 23.2042 37.2 23.1331 37.1644C23.062 37.1289 23.0087 37.1111 22.9553 37.0755C22.902 37.04 22.8487 37.0222 22.8131 36.9867C22.7242 36.9333 22.6709 36.8444 22.5998 36.7733C22.5998 36.7911 22.5998 36.8089 22.5998 36.8444C22.4042 36.7378 22.2265 36.6311 22.0309 36.5244C21.942 36.4711 21.8353 36.4178 21.7465 36.3644C21.7109 36.3644 21.7109 36.3289 21.6931 36.3644C21.6931 36.3822 21.6753 36.4178 21.6576 36.4355C21.6398 36.4711 21.622 36.5244 21.6042 36.5778C21.5331 36.8089 21.5865 37.0755 21.7109 37.2889C21.782 37.3955 21.8887 37.52 22.0309 37.6267C23.2931 38.6755 27.382 39.4755 32.6265 40.08C39.4887 40.8622 48.2887 41.3067 55.1153 41.4133C56.9287 41.4489 59.1687 41.4667 61.622 41.4667C71.6309 41.4667 85.2487 41.04 88.4309 38.8711" fill="white"/>
<g opacity="0.3" style="mix-blend-mode:multiply">
<path d="M66.9375 116.453C67.222 117.324 66.2797 118.391 64.8753 118.835C63.4531 119.28 62.0842 118.942 61.8175 118.071C61.5509 117.2 62.4753 116.133 63.8797 115.689C64.2353 115.582 64.5731 115.511 64.9109 115.493C64.8753 115.369 64.8398 115.226 64.822 115.102C61.782 115.066 58.6531 115.031 55.4531 115.031C53.1953 115.031 50.9731 115.031 48.7864 115.066C49.0886 115.226 49.3197 115.457 49.4264 115.76C49.6931 116.631 48.7686 117.697 47.3642 118.142C45.942 118.586 44.5731 118.249 44.3064 117.377C44.0575 116.56 44.8398 115.582 46.0842 115.102C19.9331 115.475 0.0219727 117.413 0.0219727 119.76C0.0219727 122.373 24.8575 124.471 55.4709 124.471C86.0842 124.471 110.92 122.355 110.92 119.76C110.92 117.466 91.5597 115.546 65.942 115.12C65.9775 115.297 66.0309 115.475 66.0842 115.653C66.5286 115.813 66.8486 116.08 66.9731 116.453H66.9375Z" fill="#4D4D4F"/>
</g>
<path d="M77.142 66.1066C76.8398 66.1066 76.6086 65.84 76.6264 65.5378C76.6264 65.2355 76.8575 65.04 77.1953 65.0222C79.6486 65.1466 82.2264 65.1289 84.4842 64.1155L88.2353 40.3111L88.4309 38.8711H88.4131C85.2309 41.0578 71.5953 41.4667 61.6042 41.4667C59.1509 41.4667 56.9109 41.4489 55.0975 41.4133C48.2709 41.2889 39.4709 40.8622 32.6086 40.08L42.4575 107.44C43.8798 107.778 45.4264 108.08 47.0975 108.329C47.2398 106.267 47.5598 104.809 47.5775 104.684L48.6264 104.916C48.6264 104.916 48.3064 106.427 48.1642 108.489C50.742 108.844 53.5153 109.093 56.4486 109.218C59.2575 109.324 61.942 109.307 64.4131 109.164C64.5909 106.924 65.0886 105.431 65.1242 105.324L66.1553 105.662C66.1553 105.662 65.7109 107.049 65.5153 109.093C73.4264 108.542 78.9198 106.8 78.8842 104.524C78.8842 104.116 78.6709 103.707 78.3331 103.298L84.3064 65.3422C82.6353 65.9644 80.8753 66.16 79.1153 66.16C78.4575 66.16 77.8175 66.1422 77.1598 66.1066H77.142ZM47.2931 53.7333C46.3864 53.8222 45.5331 52.72 45.3731 51.2444C45.2131 49.7689 45.8175 48.5067 46.7242 48.4C47.6309 48.3111 48.4842 49.4133 48.6442 50.8889C48.8042 52.3644 48.1998 53.6267 47.2931 53.7333ZM58.0131 61.6978C57.6931 61.7511 57.3909 61.7689 57.0709 61.7689C54.6353 61.7689 52.4842 60.1333 52.0931 57.8044C52.0753 57.6622 52.0931 57.52 52.182 57.4133C52.2709 57.2889 52.3953 57.2178 52.5198 57.2L61.6753 55.6355C61.8175 55.6178 61.9597 55.6355 62.0664 55.7244C62.1909 55.8133 62.262 55.9378 62.2798 56.0622C62.7242 58.6933 60.8042 61.2178 57.9953 61.6978H58.0131ZM65.1598 52.5244C64.2531 52.6133 63.3998 51.5111 63.2398 50.0355C63.0798 48.56 63.6842 47.2978 64.5909 47.1911C65.4975 47.1022 66.3509 48.2044 66.5109 49.68C66.6709 51.1555 66.0664 52.4178 65.1598 52.5244Z" fill="#DF5551"/>
<g opacity="0.2" style="mix-blend-mode:multiply">
<path d="M33.8175 102.711C33.8708 105.804 41.6042 107.298 42.4575 107.564V107.44C37.2131 106.213 33.8531 104.489 33.8175 102.729V102.711Z" fill="#A32035"/>
</g>
<path d="M21.9954 37.6267C21.9954 37.6267 21.9954 37.6622 21.9954 37.68L26.9909 63.7956C27.1331 63.8667 27.2576 63.9556 27.3998 64.0267C29.6931 65.1289 32.3776 65.1644 34.9198 65.0222C35.1865 65.0222 35.4709 65.2355 35.4887 65.5378C35.4887 65.84 35.2754 66.0889 34.9731 66.1067C34.3331 66.1422 33.6754 66.16 33.0176 66.16C31.062 66.16 29.0709 65.9289 27.2398 65.1111L34.2265 101.644C33.942 101.982 33.7998 102.338 33.8176 102.711C33.8531 104.489 37.2309 106.196 42.4398 107.422L32.5909 40.0622C27.3643 39.4578 23.2576 38.6578 21.9954 37.6089V37.6267Z" fill="#DF5551"/>
<g opacity="0.2" style="mix-blend-mode:multiply">
<path d="M21.9954 37.6267C21.9954 37.6267 21.9954 37.6622 21.9954 37.68L26.9909 63.7956C27.1331 63.8667 27.2576 63.9556 27.3998 64.0267C29.6931 65.1289 32.3776 65.1644 34.9198 65.0222C35.1865 65.0222 35.4709 65.2355 35.4887 65.5378C35.4887 65.84 35.2754 66.0889 34.9731 66.1067C34.3331 66.1422 33.6754 66.16 33.0176 66.16C31.062 66.16 29.0709 65.9289 27.2398 65.1111L34.2265 101.644C33.942 101.982 33.7998 102.338 33.8176 102.711C33.8531 104.489 37.2309 106.196 42.4398 107.422L32.5909 40.0622C27.3643 39.4578 23.2576 38.6578 21.9954 37.6089V37.6267Z" fill="#A32035"/>
</g>
<path d="M22.9198 37.111C22.9198 37.111 23.0976 37.1821 23.1687 37.2177C23.2398 37.2532 23.3287 37.2888 23.3998 37.3065C23.4887 37.3421 23.5776 37.3777 23.6665 37.3954C23.7731 37.431 23.862 37.4665 23.9687 37.5021C24.0753 37.5377 24.182 37.5732 24.3065 37.6088C24.4309 37.6443 24.5553 37.6799 24.6798 37.7154C24.8042 37.751 24.9465 37.7865 25.0709 37.8221C25.2131 37.8577 25.3553 37.8932 25.4976 37.9288C25.6576 37.9643 25.7998 37.9999 25.9598 38.0354C26.1198 38.071 26.2976 38.1065 26.4576 38.1421C26.6353 38.1777 26.8131 38.2132 26.9909 38.2488C27.1687 38.2843 27.3642 38.3199 27.542 38.3554C27.7376 38.391 27.9331 38.4265 28.1287 38.4621C28.342 38.4977 28.5376 38.5332 28.7509 38.5688C28.9642 38.6043 29.1776 38.6399 29.3909 38.6754C29.6042 38.711 29.8353 38.7465 30.0665 38.7821C30.2976 38.8177 30.5287 38.8532 30.7776 38.871C31.0265 38.8888 31.2753 38.9421 31.5065 38.9599C31.7376 38.9776 32.022 39.031 32.2709 39.0488C32.5198 39.0665 32.8042 39.1199 33.0709 39.1377C33.3376 39.1554 33.622 39.191 33.8887 39.2265C34.1553 39.2621 34.4576 39.2799 34.742 39.3154C35.0265 39.351 35.3287 39.3688 35.6131 39.4043C35.8976 39.4399 36.2176 39.4577 36.5198 39.4932C36.822 39.5288 37.142 39.5465 37.4442 39.5821C37.7465 39.6177 38.0842 39.6354 38.4042 39.671C38.7242 39.7065 39.062 39.7243 39.382 39.7421C39.702 39.7599 40.0576 39.7954 40.3776 39.8132C40.6976 39.831 41.0709 39.8665 41.4087 39.8843C41.7465 39.9021 42.102 39.9377 42.4576 39.9554C42.8131 39.9732 43.1687 39.991 43.542 40.0265C43.9153 40.0621 44.2709 40.0621 44.6442 40.0799C45.0176 40.0977 45.3909 40.1154 45.7642 40.1332C46.1376 40.151 46.5287 40.1688 46.902 40.1865C47.2753 40.2043 47.6842 40.2221 48.0753 40.2399C48.4665 40.2577 48.8753 40.2754 49.2665 40.2932C49.6576 40.311 50.0665 40.3288 50.4753 40.3288C50.8842 40.3288 51.2931 40.3465 51.702 40.3643C52.1109 40.3821 52.5376 40.3821 52.9642 40.3999C53.3909 40.4177 53.8176 40.4177 54.2442 40.4354C54.5287 40.4354 54.8309 40.4354 55.1153 40.4354C61.142 40.5421 66.262 40.4888 70.582 40.3643C87.9865 31.5465 61.6042 25.2177 57.1598 20.8799C52.6265 16.4532 53.5865 7.81321 60.3242 6.01765C64.6442 4.8621 68.6087 9.1821 67.6131 10.6754C67.8976 10.5154 68.1465 10.1599 68.2353 9.48432C68.2353 9.46654 68.2353 9.44876 68.2353 9.43098C68.8398 6.1421 64.1642 3.99098 61.5153 3.63543C59.542 3.36876 55.2753 3.40432 51.6487 6.15987C46.8131 9.85765 44.342 18.4977 27.2753 27.3688C22.0309 30.0888 20.6976 34.5688 21.7109 36.4354L22.2087 36.7021C22.3331 36.7732 22.4753 36.8443 22.5998 36.9154" fill="#B7A59C"/>
<path d="M66.7419 10.5156C66.7419 10.5156 66.653 10.3911 66.6353 10.3022C66.6353 10.3911 66.6886 10.4622 66.7419 10.5156Z" fill="#B7A59C"/>
<path opacity="0.4" d="M66.7419 10.5156C66.9375 10.8356 67.453 10.8178 67.5597 10.6578C67.5597 10.6578 67.5597 10.6401 67.5597 10.6223C67.2397 10.8001 66.9019 10.7112 66.7241 10.5156H66.7419Z" fill="white"/>
<path d="M60.2708 5.96408C53.5508 7.75963 52.573 16.3996 57.1063 20.8263C61.5686 25.1819 87.933 31.493 70.5286 40.3107C81.4441 39.9552 87.0263 38.9774 87.933 38.0885C88.3775 31.9907 80.253 29.573 80.253 29.573C87.6663 24.6307 67.9508 17.1463 67.9508 17.1463C67.9508 17.1463 67.9508 17.1463 67.933 17.1463C67.5241 16.933 67.133 16.7196 66.7419 16.5063C65.533 15.7952 63.7374 14.5685 62.6708 13.0396C62.6352 12.9863 62.5819 12.9152 62.5463 12.8619C62.4574 12.7196 62.3686 12.5774 62.2797 12.4174C62.2797 12.4174 62.2797 12.3819 62.2619 12.3819C61.373 10.6219 61.693 9.73296 62.0486 9.32408C62.1908 9.21741 62.3152 9.11074 62.4397 9.02185C63.293 8.52408 63.933 8.48852 64.2708 8.52408C64.7152 8.59519 65.2486 8.77296 65.7463 9.1463C65.7819 9.18185 65.8174 9.19963 65.853 9.23519C66.013 9.39519 66.1552 9.55519 66.2797 9.69741C66.3152 9.75074 66.3508 9.7863 66.3863 9.83963C66.4219 9.89296 66.4574 9.9463 66.493 9.99963C66.5463 10.0885 66.5819 10.1952 66.6174 10.3019C66.6174 10.3907 66.6708 10.4619 66.7241 10.5152C66.8841 10.7107 67.2397 10.7996 67.5597 10.6219C68.5374 9.12852 64.5908 4.80852 60.2708 5.96408Z" fill="#B7A59C"/>
<path opacity="0.4" d="M60.2708 5.96408C53.5508 7.75963 52.573 16.3996 57.1063 20.8263C61.5686 25.1819 87.933 31.493 70.5286 40.3107C81.4441 39.9552 87.0263 38.9774 87.933 38.0885C88.3775 31.9907 80.253 29.573 80.253 29.573C87.6663 24.6307 67.9508 17.1463 67.9508 17.1463C67.9508 17.1463 67.9508 17.1463 67.933 17.1463C67.5241 16.933 67.133 16.7196 66.7419 16.5063C65.533 15.7952 63.7374 14.5685 62.6708 13.0396C62.6352 12.9863 62.5819 12.9152 62.5463 12.8619C62.4574 12.7196 62.3686 12.5774 62.2797 12.4174C62.2797 12.4174 62.2797 12.3819 62.2619 12.3819C61.373 10.6219 61.693 9.73296 62.0486 9.32408C62.1908 9.21741 62.3152 9.11074 62.4397 9.02185C63.293 8.52408 63.933 8.48852 64.2708 8.52408C64.7152 8.59519 65.2486 8.77296 65.7463 9.1463C65.7819 9.18185 65.8174 9.19963 65.853 9.23519C66.013 9.39519 66.1552 9.55519 66.2797 9.69741C66.3152 9.75074 66.3508 9.7863 66.3863 9.83963C66.4219 9.89296 66.4574 9.9463 66.493 9.99963C66.5463 10.0885 66.5819 10.1952 66.6174 10.3019C66.6174 10.3907 66.6708 10.4619 66.7241 10.5152C66.8841 10.7107 67.2397 10.7996 67.5597 10.6219C68.5374 9.12852 64.5908 4.80852 60.2708 5.96408Z" fill="white"/>
<path d="M70.5463 40.3289C70.2085 40.4889 69.8885 40.6666 69.533 40.8266C69.533 40.8266 66.2796 41.0933 76.7863 40.4889C84.3774 40.0622 80.893 40.2222 82.0841 40.0622C87.4174 39.3689 87.7908 39.1555 87.7908 39.1555C87.8796 38.7822 87.9152 38.4444 87.933 38.0889C87.0441 38.9778 81.4441 39.9555 70.5285 40.3111L70.5463 40.3289Z" fill="white"/>
<path opacity="0.4" d="M70.5463 40.3289C70.2085 40.4889 69.8885 40.6666 69.533 40.8266C69.533 40.8266 66.2796 41.0933 76.7863 40.4889C84.3774 40.0622 80.893 40.2222 82.0841 40.0622C87.4174 39.3689 87.7908 39.1555 87.7908 39.1555C87.8796 38.7822 87.9152 38.4444 87.933 38.0889C87.0441 38.9778 81.4441 39.9555 70.5285 40.3111L70.5463 40.3289Z" fill="white"/>
<path d="M65.1064 105.307C65.0708 105.413 64.573 106.907 64.3953 109.147C64.253 110.8 64.2886 112.862 64.8042 115.102C64.8397 115.227 64.8753 115.369 64.893 115.493C64.5553 115.511 64.2175 115.564 63.8619 115.689C62.4397 116.133 61.5153 117.2 61.7997 118.071C62.0842 118.942 63.453 119.28 64.8575 118.836C66.2797 118.391 67.2042 117.324 66.9197 116.453C66.7953 116.08 66.4753 115.813 66.0308 115.653C65.9775 115.476 65.9419 115.298 65.8886 115.12C65.3375 112.862 65.3197 110.747 65.4797 109.076C65.6575 107.013 66.1019 105.662 66.1197 105.644L65.0886 105.307H65.1064Z" fill="#221F1F"/>
<path d="M44.271 117.395C44.5376 118.266 45.9243 118.604 47.3287 118.16C48.751 117.715 49.6754 116.649 49.391 115.777C49.3021 115.475 49.071 115.244 48.751 115.084C48.6799 115.049 48.6087 115.013 48.5199 114.977C48.0043 112.755 48.0043 110.373 48.1287 108.489C48.271 106.426 48.591 104.951 48.591 104.915L47.5421 104.684C47.5243 104.809 47.2043 106.266 47.0621 108.329C46.9199 110.195 46.9199 112.542 47.3821 114.817C47.0443 114.817 46.6887 114.889 46.3154 115.013C46.2087 115.049 46.1199 115.084 46.031 115.12C44.7865 115.617 43.9865 116.595 44.2532 117.395H44.271Z" fill="#221F1F"/>
<path d="M64.5909 47.173C63.6842 47.2619 63.0798 48.5419 63.2398 50.0175C63.3998 51.493 64.2531 52.613 65.1598 52.5064C66.0664 52.4175 66.6709 51.1375 66.5109 49.6619C66.3509 48.1864 65.4976 47.0664 64.5909 47.173Z" fill="#221F1F"/>
<path d="M46.7242 48.4001C45.8175 48.489 45.2131 49.769 45.3731 51.2445C45.5331 52.7201 46.3864 53.8401 47.2931 53.7334C48.1998 53.6445 48.8042 52.3645 48.6442 50.889C48.4842 49.4134 47.6309 48.2934 46.7242 48.4001Z" fill="#221F1F"/>
<path d="M62.0664 55.7245C61.9598 55.6356 61.7998 55.6178 61.6753 55.6356L52.5198 57.2C52.3776 57.2178 52.2531 57.3067 52.182 57.4134C52.0931 57.52 52.0753 57.68 52.0931 57.8045C52.502 60.1334 54.6353 61.7689 57.0709 61.7689C57.3731 61.7689 57.6931 61.7511 58.0131 61.6978C60.822 61.2178 62.742 58.6934 62.2976 56.0623C62.2798 55.92 62.1909 55.7956 62.0842 55.7245H62.0664Z" fill="#221F1F"/>
<path d="M92.4665 53.9287C91.4354 54.1065 90.6887 54.6576 90.6354 55.3509C90.5998 55.8487 90.9376 56.3287 91.5065 56.6665C91.382 56.8798 91.2576 57.0932 91.1153 57.3065C89.5331 59.6887 87.5776 62.6398 84.7154 64.0087C84.6442 64.0443 84.5553 64.062 84.4842 64.0976C82.2442 65.1109 79.6665 65.1287 77.1954 65.0043C76.8576 65.0043 76.6442 65.2176 76.6265 65.5198C76.6265 65.822 76.8398 66.0709 77.142 66.0887C77.782 66.1243 78.4398 66.142 79.0976 66.142C80.8576 66.142 82.6353 65.9465 84.2887 65.3243C84.5909 65.2176 84.8931 65.1109 85.1776 64.9865C88.3065 63.4754 90.3509 60.382 92.0042 57.9109C92.1465 57.6976 92.342 57.4132 92.5198 57.0754C92.662 57.1109 92.822 57.1287 92.9642 57.1465L92.4665 53.9287Z" fill="#221F1F"/>
<path d="M34.973 66.1065C35.2753 66.1065 35.5064 65.8398 35.4886 65.5376C35.4886 65.2354 35.1864 65.022 34.9197 65.022C32.3775 65.1643 29.7108 65.1287 27.3997 64.0265C27.2575 63.9554 27.133 63.8665 26.9908 63.7954C24.3597 62.3376 22.5108 59.582 20.9997 57.3243C20.733 56.9332 20.5019 56.542 20.3419 56.1509C20.893 55.5287 21.1064 54.8354 20.8397 54.302C20.413 53.4843 19.0086 53.3954 17.693 54.0887C16.3775 54.782 15.6486 55.9909 16.0752 56.8087C16.5019 57.6265 17.9064 57.7154 19.2219 57.022C19.3108 56.9687 19.3819 56.9154 19.4708 56.8798C19.6841 57.3065 19.9153 57.6798 20.093 57.9465C21.7464 60.4354 23.7908 63.5287 26.9197 65.022C27.0264 65.0754 27.133 65.0931 27.2397 65.1465C29.0708 65.9465 31.0441 66.1954 33.0175 66.1954C33.6753 66.1954 34.333 66.1776 34.973 66.142V66.1065Z" fill="#221F1F"/>
<path d="M102.013 28.4712L107.666 27.6001C108.324 27.4934 108.769 26.889 108.68 26.2312C108.573 25.5734 107.969 25.129 107.311 25.2178L101.657 26.089C101 26.1956 100.555 26.8001 100.644 27.4578C100.751 28.1156 101.355 28.5601 102.013 28.4712Z" fill="white"/>
<path d="M119.382 28.7377C118.724 27.8666 120.2 27.6533 119.382 26.96L90.9374 30.5155C89.9597 32.0622 91.2752 35.8133 90.9374 37.6266L98.0485 73.1822C98.5285 74.0711 99.1863 72.4177 99.8263 73.1822L126.493 69.6266C126.6 69.3955 126.404 68.0977 126.493 67.8488L119.382 28.7377ZM98.7241 63.5822L121.337 60.08L121.942 63.9911L99.3285 67.4933L98.7241 63.5822Z" fill="white"/>
<path d="M111.613 71.8308C110.458 72.0086 109.675 73.0931 109.853 74.2486C110.031 75.4042 111.115 76.1864 112.271 76.0086C113.426 75.8308 114.209 74.7464 114.031 73.5908C113.853 72.4353 112.769 71.6531 111.613 71.8308Z" fill="white"/>
<path d="M127.933 71.4401L120.804 25.3068C120.484 23.2268 118.529 21.8045 116.449 22.1245L91.9686 25.9112C89.8886 26.2312 88.4664 28.1868 88.7864 30.2668L92.4486 53.9468L92.9464 57.1645L95.9153 76.4001C96.2353 78.4801 98.1909 79.9023 100.271 79.5823L124.751 75.7957C126.831 75.4757 128.253 73.5201 127.933 71.4401ZM101.658 26.089L107.311 25.2179C107.969 25.1112 108.591 25.5734 108.68 26.2312C108.786 26.889 108.324 27.5112 107.666 27.6001L102.013 28.4712C101.355 28.5779 100.733 28.1157 100.644 27.4579C100.538 26.8001 101 26.1779 101.658 26.089ZM112.253 75.9912C111.098 76.169 110.013 75.3868 109.835 74.2312C109.658 73.0757 110.44 71.9912 111.595 71.8134C112.751 71.6357 113.835 72.4179 114.013 73.5734C114.191 74.729 113.409 75.8134 112.253 75.9912ZM124.146 68.169L99.4531 71.9912L98.1731 72.1868L97.7642 69.5023L92.6442 36.3468L91.9331 31.689L94.6531 31.2623L116.466 27.8845L118.298 27.6001L118.706 30.2312L124.449 67.4223L124.555 68.0801L124.164 68.1334L124.146 68.169Z" fill="#58595B"/>
<path d="M121.357 60.0891L98.7454 63.5854L99.3512 67.5033L121.962 64.007L121.357 60.0891Z" fill="#00A9E7"/>
</svg>
