<svg width="128" height="128" viewBox="0 0 128 128" fill="none" xmlns="http://www.w3.org/2000/svg">
<path d="M70.0905 121.152C71.6407 121.643 72.6414 122.8 72.3471 123.762C72.0527 124.704 70.5614 125.077 69.0112 124.606C67.461 124.115 66.4602 122.957 66.7546 121.996C66.8919 121.584 67.2451 121.289 67.7161 121.132C67.7946 120.818 67.8731 120.504 67.9516 120.21C64.8511 120.073 61.5545 119.975 58.1009 119.975C54.6472 119.975 51.3899 120.053 48.3287 120.19C48.3876 120.563 48.466 120.956 48.5445 121.329C49.0155 121.505 49.3687 121.8 49.4864 122.192C49.7808 123.134 48.78 124.311 47.2298 124.802C45.6796 125.292 44.1883 124.92 43.8939 123.958C43.5996 122.997 44.6003 121.839 46.1505 121.348C46.543 121.23 46.9355 121.152 47.3083 121.132C47.2494 120.838 47.1906 120.524 47.1513 120.23C36.084 120.818 28.2349 122.27 28.2349 123.958C28.2349 126.175 41.598 127.981 58.1009 127.981C74.6037 127.981 87.9669 126.175 87.9669 123.958C87.9669 122.27 80.1766 120.818 69.1485 120.23C69.1093 120.465 69.0504 120.701 68.9916 120.936C69.3448 120.936 69.7372 121.015 70.1101 121.152H70.0905Z" fill="#989898"/>
<path d="M67.9517 120.191C67.8928 120.504 67.7947 120.799 67.7162 121.113C67.2453 121.289 66.8921 121.584 66.7547 121.976C66.4603 122.918 67.4611 124.095 69.0113 124.586C70.5615 125.077 72.0529 124.704 72.3472 123.742C72.6416 122.8 71.6408 121.623 70.0906 121.132C69.7177 121.015 69.3253 120.936 68.9721 120.917C69.0309 120.681 69.0898 120.446 69.1291 120.21C69.2272 119.778 69.3057 119.347 69.3645 118.915L68.1479 119.111C68.089 119.445 68.0302 119.798 67.9517 120.132V120.191Z" fill="#211E1F"/>
<path d="M46.1507 121.348C44.6005 121.839 43.5998 122.997 43.8941 123.958C44.1884 124.92 45.6798 125.273 47.23 124.802C48.7802 124.311 49.781 123.154 49.4866 122.192C49.3689 121.8 49.0157 121.505 48.5447 121.329C48.4662 120.956 48.3877 120.583 48.3289 120.191C47.9953 118.111 48.0149 115.991 48.1326 114.264C47.7402 114.206 47.3477 114.147 46.9553 114.088C46.8179 115.874 46.8179 118.071 47.1515 120.249C47.1907 120.544 47.2496 120.858 47.3085 121.152C46.9356 121.152 46.5432 121.231 46.1507 121.368V121.348Z" fill="#211E1F"/>
<path d="M57.1393 115.03C60.7892 115.167 64.2428 115.108 67.3629 114.873C66.4798 105.964 64.3213 84.2608 64.2428 82.0435C64.2428 81.8669 64.2232 81.6706 64.2036 81.4744C63.9289 81.7884 63.5756 81.965 63.2028 81.965C62.3394 81.965 61.5937 80.9642 61.4368 79.6298C61.1817 79.6691 60.9462 79.6691 60.7107 79.6691C60.279 79.6691 59.8865 79.6298 59.6118 79.6102C56.3741 79.2963 52.371 78.9038 49.3294 76.6668C46.8766 74.8615 45.4049 72.1535 44.1686 69.5044C44.0313 69.2101 44.1686 68.8569 44.463 68.7195C44.7573 68.5822 45.1105 68.7195 45.2479 69.0139C46.4056 71.5256 47.7989 74.0766 50.0359 75.7249C52.8223 77.7657 56.6488 78.1385 59.7492 78.4525C60.3575 78.5113 60.9462 78.531 61.4564 78.4525C61.6134 77.1181 62.3394 76.1174 63.2028 76.1174C63.4187 76.1174 63.6345 76.1958 63.8307 76.3136C63.9485 74.2728 64.596 72.1928 66.7349 70.5641C67.6572 70.1324 86.7895 61.4591 88.3005 60.8508C88.3593 60.8311 88.4182 60.7919 88.4967 60.7723L91.7541 40.1094L91.9699 38.5396H91.9503C88.4771 40.9139 73.6618 41.3652 62.7711 41.3652C60.1024 41.3652 57.6495 41.3456 55.6873 41.3064C48.2502 41.169 38.6938 40.7177 31.2175 39.8543L41.9316 113.146C43.4818 113.519 45.1694 113.833 46.9747 114.107C47.3672 114.166 47.7596 114.225 48.1521 114.284C50.9385 114.676 53.9801 114.951 57.159 115.069L57.1393 115.03ZM66.0089 47.5464C66.99 47.4483 67.9319 48.665 68.1085 50.2544C68.2851 51.8635 67.618 53.2371 66.6368 53.3548C65.6557 53.4529 64.7138 52.2363 64.5372 50.6469C64.3606 49.0378 65.0277 47.6642 66.0089 47.5464ZM51.7823 57.9466C51.8804 57.8288 51.9981 57.7307 52.1551 57.7111L62.1039 56.0039C62.4179 55.945 62.7122 56.1609 62.7711 56.4749C63.0066 57.8681 62.6534 59.2613 61.7703 60.4387C60.8873 61.5964 59.5922 62.3617 58.1205 62.6168C57.7869 62.6757 57.4337 62.6953 57.1001 62.6953C54.451 62.6953 52.1159 60.9096 51.6842 58.3783C51.6646 58.2213 51.6842 58.0643 51.7823 57.9466ZM46.5626 48.8808C47.5438 48.7827 48.4857 49.9993 48.6623 51.5888C48.8389 53.1782 48.1717 54.5714 47.1905 54.6892C46.2094 54.7873 45.2675 53.5707 45.0909 51.9812C44.9143 50.3721 45.5815 48.9985 46.5626 48.8808Z" fill="#DF5551"/>
<g opacity="0.2" style="mix-blend-mode:multiply">
<path d="M32.5127 107.985C32.5716 111.34 40.9898 112.969 41.9121 113.263V113.126C36.2214 111.792 32.5519 109.928 32.5127 107.985Z" fill="#A32035"/>
</g>
<path d="M19.6597 37.166C19.6597 37.166 19.6597 37.2053 19.6597 37.2249L32.964 106.827C32.6696 107.2 32.5126 107.592 32.5126 107.985C32.5519 109.908 36.2214 111.772 41.8924 113.126L31.1783 39.8347C25.4877 39.1872 21.0333 38.3041 19.6597 37.166Z" fill="#DF5551"/>
<g opacity="0.2" style="mix-blend-mode:multiply">
<path d="M19.6597 37.166C19.6597 37.166 19.6597 37.2053 19.6597 37.2249L32.964 106.827C32.6696 107.2 32.5126 107.592 32.5126 107.985C32.5519 109.908 36.2214 111.772 41.8924 113.126L31.1783 39.8347C25.4877 39.1872 21.0333 38.3041 19.6597 37.166Z" fill="#A32035"/>
</g>
<path d="M20.268 36.2242C20.9156 37.637 34.6908 39.8151 55.6677 40.1684C62.2217 40.2861 67.7946 40.2272 72.4845 40.0899C91.4206 30.4943 62.7123 23.6067 57.8655 18.8775C52.9205 14.0503 53.9801 4.65096 61.2995 2.70829C66.0089 1.45243 70.3064 6.16192 69.2467 7.79062C69.5411 7.61401 69.8158 7.24118 69.9139 6.49551C69.9139 6.47589 69.9139 6.45626 69.9139 6.43664C70.5811 2.84565 65.4791 0.510532 62.6142 0.137697C60.4557 -0.156646 55.8247 -0.1174 51.8805 2.8849C46.6216 6.90759 43.9332 16.3069 25.3504 25.9614C19.6401 28.9048 19.1299 34.2619 20.2288 36.283H20.268C20.268 36.283 20.268 36.2438 20.268 36.2242Z" fill="#B7A59C"/>
<path d="M31.1784 39.8348C38.6547 40.6982 48.211 41.1691 55.6481 41.2869C57.63 41.3261 60.0632 41.3458 62.7319 41.3458C73.6226 41.3458 88.4379 40.8944 91.9112 38.5201C92.3821 38.1865 92.6568 37.8333 92.6764 37.4408H91.5579C91.5579 37.4408 91.4991 37.5978 91.4206 37.6763C91.401 38.0491 91.3617 38.4219 91.2636 38.834C91.2636 38.834 90.8711 39.0695 85.0628 39.8152C83.748 39.9918 87.5549 39.8152 79.2936 40.2861C67.8731 40.9337 71.4053 40.659 71.4053 40.659C71.7977 40.4823 72.1509 40.2861 72.5041 40.1095C67.8143 40.2665 62.2414 40.3057 55.6873 40.188C34.7301 39.8348 20.9352 37.6567 20.2877 36.2438C20.2877 36.2634 20.2877 36.3027 20.2877 36.3223H20.2484L19.3065 35.7925C19.1299 36.1261 19.1299 36.4793 19.3065 36.7932C19.385 36.911 19.5028 37.0483 19.6401 37.1661C21.0137 38.3042 25.4681 39.1872 31.1587 39.8348H31.1784Z" fill="white"/>
<path opacity="0.4" d="M68.3441 7.65332C68.5599 7.98691 69.1094 7.98691 69.2271 7.8103C69.2271 7.8103 69.2271 7.79068 69.2271 7.77106C68.8739 7.96729 68.5011 7.86917 68.3245 7.65332H68.3441Z" fill="white"/>
<path d="M61.3191 2.70808C53.9997 4.65075 52.9401 14.0697 57.8851 18.8773C62.7319 23.6064 91.4205 30.4941 72.5041 40.0897C84.3759 39.7168 90.459 38.6376 91.4402 37.676C91.9307 31.0435 83.1004 28.414 83.1004 28.414C91.1654 23.0374 69.7176 14.8939 69.7176 14.8939H69.698C69.2663 14.6388 68.815 14.4229 68.4029 14.1875C67.0882 13.4222 65.1455 12.0878 63.9878 10.4002C63.9485 10.3414 63.8897 10.2629 63.8504 10.204C63.7523 10.047 63.6542 9.89006 63.5757 9.71345C63.5757 9.71345 63.5757 9.69383 63.5561 9.6742C62.5749 7.75116 62.9281 6.78964 63.3206 6.33832C63.4776 6.22058 63.6149 6.12246 63.7523 6.00473C64.6746 5.45529 65.381 5.43566 65.7342 5.47491C66.2248 5.5534 66.8135 5.73001 67.3237 6.14209C67.3629 6.16171 67.4021 6.20096 67.4414 6.2402C67.618 6.39718 67.775 6.57379 67.9123 6.7504C67.9516 6.80926 67.9908 6.84851 68.0301 6.90738C68.0693 6.96625 68.1086 7.02512 68.1478 7.08398C68.2067 7.1821 68.2459 7.29984 68.2852 7.41757C68.2852 7.51569 68.344 7.59418 68.4029 7.65305C68.5795 7.8689 68.9523 7.96701 69.3056 7.77079C70.3848 6.14209 66.0678 1.45222 61.3583 2.68846L61.3191 2.70808Z" fill="#B7A59C"/>
<path opacity="0.4" d="M61.3191 2.70808C53.9997 4.65075 52.9401 14.0697 57.8851 18.8773C62.7319 23.6064 91.4205 30.4941 72.5041 40.0897C84.3759 39.7168 90.459 38.6376 91.4402 37.676C91.9307 31.0435 83.1004 28.414 83.1004 28.414C91.1654 23.0374 69.7176 14.8939 69.7176 14.8939H69.698C69.2663 14.6388 68.815 14.4229 68.4029 14.1875C67.0882 13.4222 65.1455 12.0878 63.9878 10.4002C63.9485 10.3414 63.8897 10.2629 63.8504 10.204C63.7523 10.047 63.6542 9.89006 63.5757 9.71345C63.5757 9.71345 63.5757 9.69383 63.5561 9.6742C62.5749 7.75116 62.9281 6.78964 63.3206 6.33832C63.4776 6.22058 63.6149 6.12246 63.7523 6.00473C64.6746 5.45529 65.381 5.43566 65.7342 5.47491C66.2248 5.5534 66.8135 5.73001 67.3237 6.14209C67.3629 6.16171 67.4021 6.20096 67.4414 6.2402C67.618 6.39718 67.775 6.57379 67.9123 6.7504C67.9516 6.80926 67.9908 6.84851 68.0301 6.90738C68.0693 6.96625 68.1086 7.02512 68.1478 7.08398C68.2067 7.1821 68.2459 7.29984 68.2852 7.41757C68.2852 7.51569 68.344 7.59418 68.4029 7.65305C68.5795 7.8689 68.9523 7.96701 69.3056 7.77079C70.3848 6.14209 66.0678 1.45222 61.3583 2.68846L61.3191 2.70808Z" fill="white"/>
<path d="M71.3857 40.6394C71.3857 40.6394 67.8536 40.9141 79.2741 40.2666C87.5354 39.7956 83.7285 39.9722 85.0433 39.7956C90.8516 39.0303 91.2441 38.8145 91.2441 38.8145C91.3422 38.422 91.3815 38.0296 91.4011 37.6567C90.4396 38.6183 84.3368 39.6975 72.465 40.0704C72.1118 40.247 71.7586 40.4432 71.3661 40.6198L71.3857 40.6394Z" fill="white"/>
<path opacity="0.4" d="M71.3857 40.6394C71.3857 40.6394 67.8536 40.9141 79.2741 40.2666C87.5354 39.7956 83.7285 39.9722 85.0433 39.7956C90.8516 39.0303 91.2441 38.8145 91.2441 38.8145C91.3422 38.422 91.3815 38.0296 91.4011 37.6567C90.4396 38.6183 84.3368 39.6975 72.465 40.0704C72.1118 40.247 71.7586 40.4432 71.3661 40.6198L71.3857 40.6394Z" fill="white"/>
<path d="M66.6173 53.3548C67.5984 53.2567 68.2656 51.8635 68.089 50.2544C67.9124 48.6453 66.9901 47.4287 65.9893 47.5464C65.0082 47.6446 64.341 49.0378 64.5176 50.6469C64.6942 52.2559 65.6165 53.4726 66.6173 53.3548Z" fill="#211E1F"/>
<path d="M47.1905 54.6893C48.1717 54.5912 48.8388 53.198 48.6622 51.5889C48.4856 49.9798 47.5437 48.7632 46.5626 48.8809C45.5814 48.979 44.9143 50.3723 45.0909 51.9813C45.2675 53.5904 46.2094 54.807 47.1905 54.6893Z" fill="#211E1F"/>
<path d="M103.332 106.376L108.218 107.632L108.1 107.318L102.056 105.768L103.332 106.376Z" fill="white"/>
<path d="M93.3043 62.5777C93.2454 62.4403 93.2061 62.303 93.108 62.1656C92.4997 61.2237 91.911 60.8901 91.3027 60.8901C90.6944 60.8901 90.1057 61.1845 89.4386 61.5181C89.1835 61.6358 88.948 61.7535 88.7125 61.8517C87.2212 62.46 67.4806 71.408 67.2843 71.4865C64.3213 73.7627 64.7922 77.2752 65.1651 80.0813C65.2632 80.7877 65.3417 81.4549 65.3613 82.024C65.4398 84.5161 68.3243 113.44 68.7757 117.934L96.5224 113.283L91.8325 66.4238L92.1269 66.051C92.1269 66.051 92.4212 65.8351 92.7156 65.5015C92.6763 65.3053 92.6567 65.1091 92.6567 64.9128C92.6175 63.9709 92.8726 63.1271 93.2846 62.5777H93.3043ZM85.2589 83.6723C85.1804 84.3983 85.1019 85.144 85.043 85.87C84.9449 87.3614 84.8272 89.5003 84.8076 93.2286V95.6815C84.8076 95.9954 84.8076 96.3094 84.8076 96.643C84.8076 97.7223 84.7683 99.4098 84.7683 100.018C84.7683 100.98 84.6702 101.568 83.8264 102.059C83.8264 102.059 83.3947 102.334 82.806 102.373C81.5305 102.471 81.2362 101.47 80.8437 100.705C80.2354 99.5276 79.1954 96.5449 78.7441 94.7788C78.7048 94.6022 78.646 94.4256 78.6067 94.2294C78.6067 94.1705 78.5675 94.1117 78.5675 94.0528C78.5479 93.9547 78.5282 93.9154 78.5086 93.8958C78.489 93.8369 78.4497 93.8369 78.3909 93.8566C78.332 93.8762 78.3124 93.9547 78.2731 94.249C78.2339 94.7788 78.175 95.8188 78.1554 96.7411C78.1162 98.2913 78.0573 100.057 78.0769 101.058C78.0769 102 78.0377 102.942 78.0377 103.864C78.0377 104.708 77.3901 105.375 76.8995 105.65C76.3697 105.925 76.0558 106.023 75.5848 106.023C74.9765 106.023 74.4663 105.336 74.1523 104.708C73.9757 104.355 73.6421 103.707 73.3674 102.863C72.8376 101.196 72.504 100.018 72.1508 98.3109C71.7387 96.3094 71.2678 93.3856 71.0127 91.7373C70.9146 91.2075 70.8164 90.658 70.6987 90.1282C70.5614 89.5395 70.4436 89.1667 70.3063 88.9312C70.1885 88.7154 70.0904 88.6173 69.8745 88.421C69.7961 88.3622 69.7372 88.3229 69.7176 88.264C69.541 87.9305 70.1493 87.1455 71.0912 86.6746C71.6799 86.3802 72.2097 86.2429 72.7395 86.5176C73.0927 86.7727 73.2104 87.0867 73.3478 87.7538C73.387 87.9697 73.4459 88.3033 73.4852 88.6369C73.6421 89.6965 73.7991 91.5411 73.9757 92.6007C74.172 94.0528 74.4074 95.7011 74.7018 97.1728C74.8588 97.8989 75.1531 99.2725 75.2708 99.4687C75.3297 99.5668 75.3886 99.6257 75.4671 99.5864C75.5456 99.5472 75.5848 99.4687 75.6241 99.0762C75.6241 98.9193 75.6241 98.7623 75.6241 98.6249C75.6241 98.4679 75.6241 98.3109 75.6241 98.1736C75.6241 98.1736 75.7222 95.9562 75.8203 94.1313C75.9773 92.3652 76.1146 90.5403 76.2324 89.5003C76.4286 87.9697 76.4482 86.8708 77.292 86.4391C78.1358 85.9878 79.0581 86.2036 79.3916 86.8512C79.5682 87.1848 79.6075 87.4006 79.9018 88.7939C80.3924 91.2271 80.9811 93.0913 81.4717 94.9162C81.7071 95.7011 81.9034 96.3094 82.0604 96.6038C82.1192 96.7411 82.2173 96.7607 82.2566 96.7215C82.3743 96.6626 82.3743 96.5645 82.3743 96.2113C82.3743 96.0347 82.3743 95.8777 82.3743 95.7011C82.3351 94.5826 82.2958 93.4445 82.2566 92.326C82.1977 89.8535 82.2173 88.3818 82.3351 86.0663C82.4528 83.2995 82.7079 82.0043 83.5713 81.5923C84.3759 81.1998 85.0234 81.8081 85.2393 82.5145C85.3177 82.75 85.3177 83.2994 85.2393 83.7312L85.2589 83.6723Z" fill="white"/>
<path d="M83.6108 81.5528C82.7474 81.9649 82.4923 83.26 82.3745 86.0268C82.2764 88.3423 82.2568 89.814 82.2961 92.2865C82.3353 93.405 82.3745 94.5432 82.4138 95.6617C82.4138 95.8383 82.4138 95.9952 82.4138 96.1719C82.4138 96.5251 82.4138 96.6232 82.2961 96.682C82.2372 96.7017 82.1587 96.682 82.0998 96.5643C81.9625 96.2896 81.7466 95.6813 81.5111 94.8767C81.0206 93.0518 80.4319 91.1876 79.9413 88.7544C79.6666 87.3612 79.6077 87.1453 79.4311 86.8117C79.0975 86.1642 78.1753 85.9483 77.3315 86.3997C76.4877 86.851 76.4484 87.9302 76.2718 89.4608C76.1345 90.5008 75.9971 92.3258 75.8598 94.0918C75.7616 95.9168 75.6635 98.1341 75.6635 98.1341C75.6635 98.2911 75.6635 98.4481 75.6635 98.5855C75.6635 98.7425 75.6635 98.8994 75.6635 99.0368C75.6243 99.4293 75.585 99.5077 75.5065 99.547C75.428 99.5862 75.3496 99.547 75.3103 99.4292C75.2122 99.233 74.8982 97.8594 74.7412 97.1334C74.4273 95.6617 74.2114 94.0133 74.0152 92.5612C73.8582 91.5016 73.7012 89.6374 73.5246 88.5974C73.4854 88.2835 73.4265 87.9499 73.3873 87.7144C73.2499 87.0472 73.1322 86.7529 72.779 86.4782C72.2491 86.1838 71.7193 86.3408 71.1306 86.6351C70.1887 87.1061 69.5804 87.891 69.757 88.2246C69.7767 88.2835 69.8552 88.3031 69.914 88.3816C70.1103 88.5778 70.228 88.6759 70.3457 88.8918C70.4831 89.1469 70.6008 89.5001 70.7382 90.0888C70.8363 90.6186 70.9344 91.168 71.0522 91.6978C71.3072 93.3265 71.7782 96.27 72.1903 98.2715C72.5435 99.9983 72.8771 101.176 73.4069 102.824C73.662 103.668 74.0152 104.315 74.1918 104.669C74.5058 105.296 75.016 105.964 75.6243 105.983C76.0756 105.983 76.4092 105.885 76.939 105.61C77.4296 105.355 78.0968 104.669 78.0771 103.825C78.0771 102.883 78.1164 101.941 78.1164 101.019C78.0968 100.018 78.1556 98.2519 78.1949 96.7017C78.1949 95.7794 78.2734 94.759 78.3126 94.2096C78.3519 93.9348 78.3715 93.8564 78.4304 93.8171C78.4892 93.7975 78.5285 93.8171 78.5481 93.8564C78.5481 93.876 78.5873 93.9152 78.607 94.0133C78.607 94.0722 78.6462 94.1311 78.6462 94.1899C78.6854 94.3666 78.7443 94.5432 78.7836 94.7394C79.2349 96.5054 80.2749 99.4881 80.8832 100.665C81.2757 101.431 81.57 102.432 82.8455 102.333C83.4342 102.294 83.8659 102.019 83.8659 102.019C84.7097 101.529 84.8274 100.94 84.8078 99.9787C84.8078 99.3704 84.847 97.6828 84.847 96.6036C84.847 96.27 84.847 95.956 84.847 95.642V93.1892C84.847 89.4608 84.9648 87.3219 85.0825 85.8306C85.161 85.1046 85.2199 84.3589 85.2984 83.6328C85.3965 83.2011 85.3768 82.6517 85.2984 82.4162C85.0825 81.7098 84.4349 81.1015 83.6304 81.4939L83.6108 81.5528Z" fill="white"/>
<path d="M83.6108 81.5528C82.7474 81.9649 82.4923 83.26 82.3745 86.0268C82.2764 88.3423 82.2568 89.814 82.2961 92.2865C82.3353 93.405 82.3745 94.5432 82.4138 95.6617C82.4138 95.8383 82.4138 95.9952 82.4138 96.1719C82.4138 96.5251 82.4138 96.6232 82.2961 96.682C82.2372 96.7017 82.1587 96.682 82.0998 96.5643C81.9625 96.2896 81.7466 95.6813 81.5111 94.8767C81.0206 93.0518 80.4319 91.1876 79.9413 88.7544C79.6666 87.3612 79.6077 87.1453 79.4311 86.8117C79.0975 86.1642 78.1753 85.9483 77.3315 86.3997C76.4877 86.851 76.4484 87.9302 76.2718 89.4608C76.1345 90.5008 75.9971 92.3258 75.8598 94.0918C75.7616 95.9168 75.6635 98.1341 75.6635 98.1341C75.6635 98.2911 75.6635 98.4481 75.6635 98.5855C75.6635 98.7425 75.6635 98.8994 75.6635 99.0368C75.6243 99.4293 75.585 99.5077 75.5065 99.547C75.428 99.5862 75.3496 99.547 75.3103 99.4292C75.2122 99.233 74.8982 97.8594 74.7412 97.1334C74.4273 95.6617 74.2114 94.0133 74.0152 92.5612C73.8582 91.5016 73.7012 89.6374 73.5246 88.5974C73.4854 88.2835 73.4265 87.9499 73.3873 87.7144C73.2499 87.0472 73.1322 86.7529 72.779 86.4782C72.2491 86.1838 71.7193 86.3408 71.1306 86.6351C70.1887 87.1061 69.5804 87.891 69.757 88.2246C69.7767 88.2835 69.8552 88.3031 69.914 88.3816C70.1103 88.5778 70.228 88.6759 70.3457 88.8918C70.4831 89.1469 70.6008 89.5001 70.7382 90.0888C70.8363 90.6186 70.9344 91.168 71.0522 91.6978C71.3072 93.3265 71.7782 96.27 72.1903 98.2715C72.5435 99.9983 72.8771 101.176 73.4069 102.824C73.662 103.668 74.0152 104.315 74.1918 104.669C74.5058 105.296 75.016 105.964 75.6243 105.983C76.0756 105.983 76.4092 105.885 76.939 105.61C77.4296 105.355 78.0968 104.669 78.0771 103.825C78.0771 102.883 78.1164 101.941 78.1164 101.019C78.0968 100.018 78.1556 98.2519 78.1949 96.7017C78.1949 95.7794 78.2734 94.759 78.3126 94.2096C78.3519 93.9348 78.3715 93.8564 78.4304 93.8171C78.4892 93.7975 78.5285 93.8171 78.5481 93.8564C78.5481 93.876 78.5873 93.9152 78.607 94.0133C78.607 94.0722 78.6462 94.1311 78.6462 94.1899C78.6854 94.3666 78.7443 94.5432 78.7836 94.7394C79.2349 96.5054 80.2749 99.4881 80.8832 100.665C81.2757 101.431 81.57 102.432 82.8455 102.333C83.4342 102.294 83.8659 102.019 83.8659 102.019C84.7097 101.529 84.8274 100.94 84.8078 99.9787C84.8078 99.3704 84.847 97.6828 84.847 96.6036C84.847 96.27 84.847 95.956 84.847 95.642V93.1892C84.847 89.4608 84.9648 87.3219 85.0825 85.8306C85.161 85.1046 85.2199 84.3589 85.2984 83.6328C85.3965 83.2011 85.3768 82.6517 85.2984 82.4162C85.0825 81.7098 84.4349 81.1015 83.6304 81.4939L83.6108 81.5528Z" fill="#DB4848"/>
<path d="M103.332 106.376L102.056 105.767L108.12 107.318L108.826 107.494L93.0688 66.8945V66.7571C93.0688 66.7571 93.108 66.7179 93.1277 66.6983C92.9511 66.3647 92.8137 65.9722 92.7548 65.5209C92.4605 65.8349 92.2054 66.0507 92.1661 66.0703L91.8718 66.4432L96.5617 113.303L68.8149 117.953C68.3636 113.46 65.4594 84.5355 65.4005 82.0434C65.4005 81.4743 65.3024 80.8071 65.2043 80.1007C64.8315 77.2946 64.3802 73.7821 67.3236 71.5059C67.5198 71.4077 87.2604 62.4793 88.7518 61.871C88.9872 61.7729 89.2227 61.6552 89.4778 61.5374C90.145 61.2039 90.7533 60.9095 91.342 60.9095C91.9503 60.9095 92.539 61.2431 93.1473 62.185C93.2454 62.3224 93.2846 62.4597 93.3435 62.5971C93.5986 62.2635 93.9126 62.028 94.2658 61.9692C94.2069 61.8318 94.1481 61.7141 94.0696 61.5767C92.3427 58.908 90.3216 59.8891 88.9872 60.5367C88.8303 60.6152 88.6733 60.6937 88.5163 60.7525C88.4574 60.7722 88.3986 60.8114 88.3201 60.831C86.8091 61.459 67.6768 70.1126 66.7545 70.5443C64.6156 72.173 63.9681 74.2531 63.8503 76.2938C64.5371 76.7059 65.0277 77.7656 65.0277 79.0214C65.0277 80.0418 64.7137 80.9445 64.2232 81.4743C64.2232 81.6705 64.2624 81.8667 64.2624 82.0434C64.3213 84.2607 66.4798 105.964 67.3825 114.872C67.5983 116.972 67.7357 118.346 67.7553 118.62L67.8142 119.209L68.1674 119.15L69.384 118.954L97.0719 114.323V114.46L97.5232 114.244L97.7194 114.205V114.146L108.649 108.907L103.332 106.376Z" fill="#CFD1D2"/>
<path d="M61.4369 78.4525C60.9267 78.531 60.3184 78.5113 59.7297 78.4525C56.6489 78.1581 52.8028 77.7657 50.0164 75.7249C47.7794 74.0766 46.3861 71.5256 45.2284 69.0139C45.091 68.7195 44.7378 68.5822 44.4435 68.7195C44.1491 68.8569 44.0314 69.2101 44.1491 69.5044C45.3854 72.1535 46.8571 74.8615 49.3099 76.6668C52.3515 78.9038 56.3742 79.2963 59.5923 79.6102C59.8867 79.6298 60.2595 79.6691 60.6912 79.6691C60.9267 79.6691 61.1622 79.6691 61.4172 79.6299C61.5939 80.9642 62.3199 81.965 63.1833 81.965C63.5561 81.965 63.8897 81.7884 64.1841 81.4744C64.6746 80.9446 64.9886 80.0419 64.9886 79.0215C64.9886 77.7657 64.498 76.706 63.8112 76.294C63.615 76.1762 63.3992 76.0977 63.1833 76.0977C62.3199 76.0977 61.5939 77.0985 61.4369 78.4329V78.4525Z" fill="#211E1F"/>
<path d="M92.6567 64.9127C92.6567 65.109 92.6764 65.3248 92.7156 65.5014C92.7941 65.9528 92.9315 66.3452 93.0884 66.6788C93.4416 67.3656 93.9715 67.7973 94.5405 67.7777C95.5413 67.7384 96.3066 66.4041 96.2477 64.795C96.1889 63.1859 95.3451 61.8908 94.3639 61.9301C94.3051 61.9301 94.2658 61.9497 94.2266 61.9497C93.8734 62.0086 93.5594 62.2244 93.3043 62.5776C92.8922 63.1271 92.6371 63.9709 92.6764 64.9127H92.6567Z" fill="#211E1F"/>
<path d="M57.1001 62.6952C57.4337 62.6952 57.7869 62.6756 58.1205 62.6167C59.5922 62.3616 60.8873 61.5963 61.7704 60.4386C62.6534 59.2808 63.0262 57.868 62.7711 56.4748C62.7123 56.1608 62.4179 55.945 62.1039 56.0038L52.1551 57.711C51.9982 57.7306 51.8608 57.8288 51.7823 57.9465C51.7038 58.0642 51.6646 58.2212 51.6842 58.3782C52.1159 60.9095 54.451 62.6952 57.1001 62.6952Z" fill="#211E1F"/>
</svg>
