<svg width="128" height="128" viewBox="0 0 128 128" fill="none" xmlns="http://www.w3.org/2000/svg">
<g opacity="0.3" style="mix-blend-mode:multiply">
<path d="M86.3208 118.391C86.3601 118.509 86.3797 118.647 86.4189 118.764C86.8507 118.921 87.1842 119.176 87.302 119.549C87.5767 120.452 86.6348 121.551 85.1631 122.022C83.711 122.493 82.2785 122.12 82.0038 121.237C81.7291 120.334 82.671 119.235 84.1427 118.764C84.4959 118.647 84.8491 118.588 85.2023 118.568C85.2023 118.49 85.1631 118.411 85.1435 118.333C81.4936 118.195 77.6279 118.117 73.6248 118.117C71.9176 118.117 70.2497 118.117 68.6014 118.156C68.8957 118.333 69.1508 118.529 69.2489 118.823C69.5237 119.726 68.5818 120.825 67.11 121.296C65.658 121.767 64.2255 121.394 63.9508 120.511C63.6957 119.706 64.4413 118.745 65.6383 118.215C47.1732 118.666 33.241 120.668 33.241 123.042C33.241 125.77 51.3136 127.967 73.6248 127.967C95.936 127.967 114.009 125.77 114.009 123.042C114.009 120.864 102.392 119.019 86.3208 118.372V118.391Z" fill="#4D4D4F"/>
</g>
<path d="M85.1436 118.352C85.1436 118.352 85.1828 118.509 85.2024 118.588C84.8688 118.588 84.5156 118.666 84.1428 118.784C82.6907 119.255 81.7292 120.354 82.0039 121.256C82.2786 122.159 83.7111 122.512 85.1632 122.041C86.6153 121.57 87.5768 120.471 87.3021 119.569C87.1843 119.196 86.8507 118.941 86.419 118.784C86.3798 118.666 86.3602 118.529 86.3209 118.411C85.2024 113.976 86.0462 110.052 86.3798 108.835C85.9873 108.855 85.5949 108.894 85.1828 108.913C84.7903 110.483 84.1428 114.153 85.1239 118.352H85.1436Z" fill="#231F20"/>
<path d="M63.9507 120.53C64.2254 121.433 65.6579 121.786 67.11 121.315C68.5621 120.844 69.5236 119.746 69.2489 118.843C69.1508 118.549 68.9153 118.333 68.6013 118.176C68.5228 118.136 68.4443 118.097 68.3658 118.058C67.4632 114.153 68.0715 109.718 68.3266 108.207C67.9538 108.148 67.5809 108.109 67.2081 108.05C66.9334 109.62 66.3447 113.878 67.1492 117.862C66.796 117.862 66.4428 117.94 66.07 118.058C65.913 118.117 65.756 118.176 65.6186 118.235C64.4216 118.764 63.676 119.726 63.9311 120.53H63.9507Z" fill="#231F20"/>
<path d="M44.9166 65.6846C43.5626 65.0371 42.4441 64.0559 41.4434 62.957L41.7181 64.8016C42.5422 65.5472 43.4253 66.2144 44.4457 66.705C45.4464 67.1956 46.5061 67.4899 47.5657 67.6665L47.3302 66.4499C46.5061 66.2733 45.7015 66.0574 44.9362 65.6846H44.9166Z" fill="#231F20"/>
<path d="M42.0124 91.7828L45.3679 93.5292L45.3483 93.2741L41.1882 91.1353L42.0124 91.7828Z" fill="white"/>
<path d="M37.774 57.8551C37.1657 59.268 35.9687 60.0921 35.1053 59.7193C34.5166 59.4642 34.2615 58.6793 34.34 57.7766C29.2576 58.7774 21.7617 60.2884 21.6636 60.308C19.1126 61.4657 18.8772 64.0952 18.6613 66.2145C18.6024 66.7443 18.5632 67.2349 18.4847 67.6666C18.1119 69.4915 15.345 91.0374 14.9133 94.3929L35.9098 95.688L40.4231 60.9359V60.7789L40.6782 60.5631C40.7567 60.5239 42.6993 59.6997 42.0321 57.8944C41.4631 56.3442 40.58 56.5404 39.4615 56.7955C39.2653 56.8348 39.0691 56.8936 38.8729 56.9132C38.7551 56.9329 38.4215 56.9917 38.0094 57.0702C37.9506 57.3449 37.8917 57.6 37.774 57.8748V57.8551ZM32.6917 72.1995C32.515 72.7097 32.3384 73.2395 32.1618 73.7693C31.8282 74.8289 31.3965 76.3791 30.749 79.0871L30.3369 80.8728C30.278 81.0886 30.2388 81.3241 30.1799 81.5596C30.0033 82.3445 29.6894 83.5807 29.5912 84.0124C29.4343 84.7189 29.2576 85.1309 28.5512 85.3468C28.5512 85.3468 28.1784 85.4645 27.7467 85.4056C26.8048 85.2683 26.7459 84.4834 26.5889 83.8554C26.3535 82.8939 26.0984 80.5392 26.0591 79.1852C26.0591 79.0478 26.0591 78.9105 26.0591 78.7731C26.0591 78.7339 26.0591 78.675 26.0591 78.6358C26.0591 78.5573 26.0591 78.5376 26.0591 78.518C26.0591 78.4788 26.0199 78.4592 25.9806 78.4788C25.9414 78.4788 25.9021 78.5376 25.8236 78.7339C25.7059 79.1263 25.4901 79.872 25.3135 80.5196C25.0191 81.6381 24.6855 82.9135 24.5285 83.6396C24.3519 84.3264 24.1949 84.9936 24.0183 85.6804C23.881 86.2887 23.2923 86.6811 22.8802 86.7793C22.4485 86.897 22.1934 86.9166 21.8598 86.8381C21.4281 86.7204 21.1534 86.1513 21.0357 85.6411C20.9572 85.3468 20.8198 84.817 20.7806 84.1694C20.6825 82.8743 20.6432 81.952 20.6628 80.6373C20.7021 79.1263 20.8394 76.8893 20.9376 75.6531C20.9376 75.241 20.9768 74.8289 20.9964 74.4168C20.9964 73.9655 20.9768 73.6712 20.9179 73.4749C20.8787 73.2983 20.8198 73.2002 20.7021 73.0236C20.6628 72.9647 20.6236 72.9255 20.604 72.8863C20.5451 72.6115 21.1142 72.1406 21.8794 71.964C22.3504 71.8462 22.7625 71.8266 23.0961 72.1406C23.3119 72.3957 23.3512 72.6312 23.3315 73.1414C23.3315 73.318 23.3119 73.5534 23.2923 73.8085C23.2334 74.5934 23.0372 75.9867 22.9783 76.7716C22.8802 77.8705 22.7625 79.0871 22.7429 80.2252C22.7429 80.7747 22.7232 81.8343 22.7625 81.9913C22.7821 82.0698 22.8213 82.1286 22.8802 82.109C22.9391 82.0894 22.9783 82.0305 23.0764 81.7558C23.0961 81.6381 23.1353 81.5399 23.1549 81.4222C23.1746 81.3045 23.2138 81.2064 23.2334 81.0886C23.2334 81.0886 23.6848 79.4795 24.0576 78.1648C24.4697 76.9089 24.8817 75.5942 25.1368 74.8682C25.5293 73.7889 25.7452 72.9844 26.432 72.8078C27.1188 72.6312 27.7663 72.9451 27.884 73.4553C27.9429 73.73 27.9625 73.887 27.9233 74.9467C27.8644 76.7912 27.9822 78.2629 28.041 79.6758C28.0803 80.2841 28.1195 80.7747 28.1784 80.9905C28.198 81.0886 28.2569 81.1279 28.2961 81.1082C28.3942 81.0886 28.4139 81.0101 28.4727 80.755C28.4924 80.6373 28.512 80.4999 28.5512 80.3822C28.7082 79.558 28.8848 78.7339 29.0418 77.9097C29.4146 76.1044 29.6894 75.0252 30.1407 73.3572C30.6901 71.3753 31.1022 70.4726 31.789 70.3157C32.4366 70.1587 32.8094 70.7277 32.8486 71.2576C32.8486 71.4342 32.7701 71.8462 32.6328 72.1406L32.6917 72.1995Z" fill="white"/>
<path d="M31.8477 70.3745C31.1609 70.5315 30.7488 71.4341 30.1993 73.4161C29.7284 75.084 29.4733 76.1633 29.1005 77.9686C28.9435 78.7927 28.7669 79.6169 28.6099 80.441C28.5903 80.5588 28.5706 80.6961 28.5314 80.8139C28.4725 81.069 28.4529 81.1475 28.3548 81.1671C28.3156 81.1671 28.2567 81.1475 28.2371 81.0494C28.1782 80.8139 28.1389 80.3429 28.0997 79.7346C28.0605 78.3218 27.9427 76.8697 27.982 75.0055C28.0016 73.9459 28.0016 73.7889 27.9427 73.5142C27.8054 72.9844 27.1774 72.6704 26.4906 72.8666C25.8038 73.0432 25.588 73.8478 25.1955 74.927C24.9208 75.6531 24.5087 76.9678 24.1163 78.2237C23.7434 79.5384 23.2921 81.1475 23.2921 81.1475C23.2725 81.2652 23.2332 81.3633 23.2136 81.4811C23.194 81.5988 23.1547 81.6969 23.1351 81.8146C23.037 82.0894 22.9978 82.1482 22.9389 82.1679C22.88 82.1679 22.8408 82.1286 22.8211 82.0501C22.7819 81.8931 22.7819 80.8335 22.8015 80.2841C22.8211 79.1459 22.9389 77.9293 23.037 76.8304C23.0959 76.0455 23.2921 74.6523 23.351 73.8674C23.3706 73.6319 23.3902 73.3768 23.3902 73.2002C23.3902 72.69 23.3706 72.4545 23.1547 72.1994C22.8211 71.9051 22.4091 71.9247 21.9381 72.0228C21.1728 72.1994 20.6038 72.69 20.6626 72.9451C20.6626 72.9843 20.7215 73.0236 20.7607 73.0825C20.8785 73.2591 20.9374 73.3572 20.9766 73.5338C21.0355 73.73 21.0551 74.0244 21.0551 74.4757C21.0551 74.8878 21.0158 75.2999 20.9962 75.7119C20.8981 76.9482 20.7607 79.1656 20.7215 80.6961C20.6823 82.0109 20.7215 82.9135 20.8392 84.2283C20.8981 84.8758 21.0158 85.4056 21.0943 85.7C21.2317 86.2102 21.4868 86.7792 21.9185 86.897C22.2521 86.9755 22.5072 86.9558 22.9389 86.8381C23.3313 86.74 23.9397 86.3475 24.077 85.7392C24.2536 85.0524 24.4106 84.3852 24.5872 83.6984C24.7442 82.9724 25.0778 81.6773 25.3721 80.5784C25.5291 79.9112 25.7646 79.1656 25.8823 78.7927C25.9608 78.5965 25.9804 78.5376 26.0393 78.5376C26.0785 78.5376 26.1178 78.5376 26.1178 78.5769C26.1178 78.5965 26.1178 78.6357 26.1178 78.6946C26.1178 78.7339 26.1178 78.7927 26.1178 78.832C26.1178 78.9693 26.1178 79.1067 26.1178 79.2441C26.157 80.6177 26.4121 82.9528 26.6476 83.9143C26.8046 84.5422 26.8438 85.3271 27.8054 85.4645C28.2371 85.5234 28.6099 85.4056 28.6099 85.4056C29.3163 85.1898 29.4929 84.7777 29.6499 84.0713C29.748 83.6199 30.062 82.4033 30.2386 81.6184C30.2975 81.3829 30.3367 81.1475 30.3956 80.9316L30.8077 79.1459C31.4552 76.438 31.8869 74.8878 32.2205 73.8281C32.3971 73.2983 32.5737 72.7881 32.7503 72.2583C32.8877 71.964 32.9662 71.5519 32.9662 71.3753C32.9269 70.8258 32.5541 70.2764 31.9065 70.4334L31.8477 70.3745Z" fill="white"/>
<path d="M31.8477 70.3745C31.1609 70.5315 30.7488 71.4341 30.1993 73.4161C29.7284 75.084 29.4733 76.1633 29.1005 77.9686C28.9435 78.7927 28.7669 79.6169 28.6099 80.441C28.5903 80.5588 28.5706 80.6961 28.5314 80.8139C28.4725 81.069 28.4529 81.1475 28.3548 81.1671C28.3156 81.1671 28.2567 81.1475 28.2371 81.0494C28.1782 80.8139 28.1389 80.3429 28.0997 79.7346C28.0605 78.3218 27.9427 76.8697 27.982 75.0055C28.0016 73.9459 28.0016 73.7889 27.9427 73.5142C27.8054 72.9844 27.1774 72.6704 26.4906 72.8666C25.8038 73.0432 25.588 73.8478 25.1955 74.927C24.9208 75.6531 24.5087 76.9678 24.1163 78.2237C23.7434 79.5384 23.2921 81.1475 23.2921 81.1475C23.2725 81.2652 23.2332 81.3633 23.2136 81.4811C23.194 81.5988 23.1547 81.6969 23.1351 81.8146C23.037 82.0894 22.9978 82.1482 22.9389 82.1679C22.88 82.1679 22.8408 82.1286 22.8211 82.0501C22.7819 81.8931 22.7819 80.8335 22.8015 80.2841C22.8211 79.1459 22.9389 77.9293 23.037 76.8304C23.0959 76.0455 23.2921 74.6523 23.351 73.8674C23.3706 73.6319 23.3902 73.3768 23.3902 73.2002C23.3902 72.69 23.3706 72.4545 23.1547 72.1994C22.8211 71.9051 22.4091 71.9247 21.9381 72.0228C21.1728 72.1994 20.6038 72.69 20.6626 72.9451C20.6626 72.9843 20.7215 73.0236 20.7607 73.0825C20.8785 73.2591 20.9374 73.3572 20.9766 73.5338C21.0355 73.73 21.0551 74.0244 21.0551 74.4757C21.0551 74.8878 21.0158 75.2999 20.9962 75.7119C20.8981 76.9482 20.7607 79.1656 20.7215 80.6961C20.6823 82.0109 20.7215 82.9135 20.8392 84.2283C20.8981 84.8758 21.0158 85.4056 21.0943 85.7C21.2317 86.2102 21.4868 86.7792 21.9185 86.897C22.2521 86.9755 22.5072 86.9558 22.9389 86.8381C23.3313 86.74 23.9397 86.3475 24.077 85.7392C24.2536 85.0524 24.4106 84.3852 24.5872 83.6984C24.7442 82.9724 25.0778 81.6773 25.3721 80.5784C25.5291 79.9112 25.7646 79.1656 25.8823 78.7927C25.9608 78.5965 25.9804 78.5376 26.0393 78.5376C26.0785 78.5376 26.1178 78.5376 26.1178 78.5769C26.1178 78.5965 26.1178 78.6357 26.1178 78.6946C26.1178 78.7339 26.1178 78.7927 26.1178 78.832C26.1178 78.9693 26.1178 79.1067 26.1178 79.2441C26.157 80.6177 26.4121 82.9528 26.6476 83.9143C26.8046 84.5422 26.8438 85.3271 27.8054 85.4645C28.2371 85.5234 28.6099 85.4056 28.6099 85.4056C29.3163 85.1898 29.4929 84.7777 29.6499 84.0713C29.748 83.6199 30.062 82.4033 30.2386 81.6184C30.2975 81.3829 30.3367 81.1475 30.3956 80.9316L30.8077 79.1459C31.4552 76.438 31.8869 74.8878 32.2205 73.8281C32.3971 73.2983 32.5737 72.7881 32.7503 72.2583C32.8877 71.964 32.9662 71.5519 32.9662 71.3753C32.9269 70.8258 32.5541 70.2764 31.9065 70.4334L31.8477 70.3745Z" fill="#DB4848"/>
<path d="M41.1883 61.2891V61.1714C42.1694 60.6808 43.4841 59.4446 42.7973 57.5608C41.9928 55.3434 40.3641 55.6966 39.2848 55.9517C39.1082 55.991 38.912 56.0302 38.755 56.0694C38.6569 56.0694 38.4018 56.1283 38.1075 56.1872C38.1075 56.4619 38.1075 56.7366 38.029 57.031C38.4411 56.9525 38.7747 56.8936 38.8924 56.874C39.0886 56.8347 39.2848 56.7955 39.4811 56.7562C40.5996 56.5011 41.4826 56.3049 42.0517 57.8551C42.7189 59.6604 40.7762 60.5042 40.6977 60.5238L40.423 60.7397V60.8967L35.9293 95.6488L14.9329 94.3537C15.3646 90.9982 18.1314 69.4522 18.5042 67.6273C18.5827 67.2152 18.6416 66.705 18.6808 66.1752C18.8771 64.056 19.1322 61.4265 21.6831 60.2687C21.8009 60.2491 29.2772 58.7382 34.3595 57.7374C34.3791 57.443 34.4576 57.1683 34.5557 56.8544C29.5715 57.8355 21.9382 59.3661 21.428 59.4838C18.3669 60.877 18.0725 63.8793 17.8567 66.0771C17.8174 66.5873 17.7586 67.0583 17.6801 67.4311C17.2876 69.4326 14.1872 93.6276 14.0498 94.6676L13.991 95.0993L36.1452 96.4729V96.571L36.4984 96.4926H36.6358V96.4533L45.4857 94.491L42.0517 91.7438L41.2275 91.0766L45.3679 93.2352L45.8585 93.4903L41.7377 64.7624L41.463 62.9178L41.2275 61.2695L41.1883 61.2891Z" fill="#D0D2D3"/>
<path d="M34.3398 57.757C34.2613 58.6597 34.5164 59.4446 35.1051 59.6997C35.9685 60.0725 37.1655 59.2484 37.7738 57.8355C37.8915 57.5608 37.9504 57.2861 38.0093 57.031C38.0681 56.7366 38.1074 56.4423 38.0877 56.1872C38.0877 55.4612 37.8326 54.8528 37.3225 54.6174C36.459 54.2445 35.2621 55.0687 34.6537 56.4815C34.5949 56.6189 34.5753 56.7563 34.536 56.8936C34.4379 57.188 34.3594 57.4823 34.3398 57.7767V57.757Z" fill="#231F20"/>
<path d="M76.8431 108.973C79.7866 109.09 82.6123 109.051 85.2025 108.914C85.5949 108.894 86.007 108.875 86.3995 108.835C94.4449 108.247 100.018 106.461 99.9785 104.126C99.9785 103.694 99.7627 103.282 99.4094 102.87L109.633 37.9772L109.829 36.4858C106.552 38.7425 92.5022 39.1742 82.1806 39.1742C79.6492 39.1742 77.3337 39.1546 75.4695 39.1153C68.4249 38.9976 59.3788 38.5462 52.2949 37.7417L62.4399 107.148C63.9117 107.501 65.5207 107.795 67.2475 108.07C67.6204 108.129 67.9932 108.188 68.3661 108.227C70.9955 108.58 73.8605 108.855 76.8628 108.973H76.8431ZM87.6161 79.146C87.9889 78.2826 89.441 78.0863 90.8342 78.6946C91.6192 79.0478 92.2275 79.5777 92.5414 80.1271L98.2713 78.3022C99.5664 77.8116 100.391 77.0267 100.763 75.8689C101.96 72.0817 97.82 65.979 97.7807 65.9005C97.6041 65.6454 97.663 65.2922 97.9377 65.1156C98.1928 64.939 98.546 64.9979 98.7226 65.253C98.8992 65.5277 103.216 71.8855 101.843 76.2025C101.372 77.6939 100.292 78.7535 98.6441 79.3618L92.7377 81.2456C92.7377 81.2456 92.7377 81.3241 92.6984 81.3633C92.3256 82.2267 90.8735 82.423 89.4803 81.8147C88.087 81.2064 87.2433 80.0094 87.6161 79.146ZM83.9466 47.926C84.8885 47.8279 85.7715 48.9856 85.9285 50.4966C86.0855 52.0075 85.4576 53.3223 84.5353 53.4204C83.613 53.5185 82.7104 52.3607 82.5534 50.8498C82.3964 49.3388 83.0243 48.0241 83.9466 47.926ZM70.348 58.2476L79.7866 56.6385C80.0809 56.5797 80.3752 56.7955 80.4341 57.0899C80.9051 59.7978 78.9232 62.4076 76.019 62.8982C75.6854 62.9571 75.3714 62.9767 75.0378 62.9767C73.9782 62.9767 72.9382 62.6824 72.0552 62.1133C70.8974 61.348 70.1321 60.2099 69.8966 58.8952C69.8378 58.6008 70.0536 58.3065 70.348 58.2476ZM66.129 54.6762C65.1871 54.7744 64.3041 53.6166 64.1471 52.1056C63.9902 50.5947 64.6181 49.28 65.5404 49.1818C66.4626 49.0837 67.3653 50.2415 67.5223 51.7524C67.6793 53.2634 67.0513 54.5781 66.129 54.6762Z" fill="#DF5551"/>
<g opacity="0.2" style="mix-blend-mode:multiply">
<path d="M53.531 102.281C53.5899 105.46 61.5568 107.01 62.4398 107.266V107.128C57.0435 105.853 53.5703 104.087 53.531 102.262V102.281Z" fill="#A32035"/>
</g>
<path d="M41.3452 35.1709C41.3452 35.1709 41.3452 35.2298 41.3452 35.2494L47.3106 66.4301L47.546 67.6468L53.9627 101.163C53.688 101.516 53.531 101.889 53.531 102.262C53.5703 104.086 57.0435 105.852 62.4202 107.128L52.2752 37.7219C46.8396 37.0939 42.6207 36.2502 41.3648 35.1709H41.3452Z" fill="#DF5551"/>
<g opacity="0.2" style="mix-blend-mode:multiply">
<path d="M41.3452 35.1709C41.3452 35.1709 41.3452 35.2298 41.3452 35.2494L47.3106 66.4301L47.546 67.6468L53.9627 101.163C53.688 101.516 53.531 101.889 53.531 102.262C53.5703 104.086 57.0435 105.852 62.4202 107.128L52.2752 37.7219C46.8396 37.0939 42.6207 36.2502 41.3648 35.1709H41.3452Z" fill="#A32035"/>
</g>
<path d="M41.9338 34.3271C42.5618 35.6614 55.611 37.7218 75.4497 38.0554C81.6701 38.1536 86.9487 38.1143 91.4031 37.9769C109.299 28.8916 82.1411 22.3768 77.5493 17.9027C72.8791 13.3306 73.8799 4.42184 80.8067 2.57729C85.2611 1.38029 89.3427 5.83468 88.3223 7.38489C88.6166 7.22791 88.8717 6.85507 88.9502 6.16827C88.9502 6.14865 88.9502 6.12903 88.9502 6.1094C89.5782 2.71465 84.7509 0.497262 82.043 0.14405C80.0022 -0.13067 75.6067 -0.111048 71.8783 2.75389C66.8941 6.56073 64.3431 15.4695 46.761 24.5941C41.3451 27.4002 40.8546 32.4825 41.8946 34.4056H41.9338C41.9338 34.4056 41.9338 34.3663 41.9338 34.3467V34.3271Z" fill="#B7A59C"/>
<path d="M87.459 7.24768C87.459 7.24768 87.3608 7.12994 87.3608 7.01221C87.3608 7.0907 87.4001 7.16919 87.459 7.24768Z" fill="#B7A59C"/>
<path d="M52.2556 37.7416C59.3394 38.5657 68.3856 38.9975 75.4302 39.1152C77.2944 39.1544 79.6099 39.1741 82.1412 39.1741C92.4629 39.1741 106.513 38.7424 109.79 36.4857C110.241 36.1718 110.496 35.8382 110.496 35.4653H109.437C109.437 35.4653 109.397 35.6027 109.319 35.6812C109.299 36.0344 109.26 36.4072 109.162 36.7801C109.162 36.7801 108.789 36.9959 103.295 37.722C102.058 37.8789 105.669 37.722 97.8199 38.1537C86.9881 38.762 90.3436 38.5069 90.3436 38.5069C90.7164 38.3303 91.05 38.1537 91.4032 37.9771C86.9488 38.1144 81.6703 38.1733 75.4498 38.0556C55.6111 37.722 42.5619 35.6419 41.934 34.3272C41.934 34.3468 41.934 34.3861 41.934 34.4057H41.8947L41.0117 33.8955C40.8351 34.2095 40.8547 34.5431 41.0117 34.857C41.0705 34.9748 41.2079 35.0729 41.3453 35.171C42.6011 36.2503 46.82 37.094 52.2556 37.722V37.7416Z" fill="white"/>
<path opacity="0.4" d="M87.4591 7.24756C87.6749 7.56152 88.1851 7.56152 88.3029 7.40454C88.3029 7.40454 88.3029 7.38492 88.3029 7.3653C87.9693 7.5419 87.6161 7.46341 87.4395 7.24756H87.4591Z" fill="white"/>
<path d="M80.7872 2.57741C73.8604 4.42196 72.8596 13.3307 77.5298 17.9029C82.1216 22.3769 109.28 28.8917 91.3836 37.9771C102.647 37.6239 108.416 36.6035 109.299 35.6812C109.751 29.4215 101.391 26.9098 101.391 26.9098C109.025 21.8078 88.7149 14.096 88.7149 14.096H88.6953C88.2832 13.8606 87.8711 13.6447 87.459 13.4289C86.2228 12.7028 84.3586 11.4469 83.2793 9.85749C83.2401 9.79862 83.1812 9.73975 83.142 9.66126C83.0439 9.50428 82.9654 9.36692 82.8673 9.20994C82.8673 9.20994 82.8673 9.19031 82.8476 9.17069C81.9254 7.36539 82.259 6.44311 82.6122 6.01141C82.7495 5.89367 82.8869 5.79556 83.0242 5.69744C83.9073 5.18725 84.5745 5.148 84.908 5.18725C85.3594 5.26574 85.9284 5.44234 86.419 5.81518C86.4582 5.8348 86.4779 5.87405 86.5171 5.91329C86.6741 6.07028 86.8311 6.22726 86.9684 6.40387C87.0077 6.46273 87.0469 6.50198 87.0862 6.54123C87.1254 6.60009 87.1647 6.63934 87.1843 6.69821C87.2432 6.79632 87.2824 6.89444 87.302 7.01217C87.302 7.11029 87.3609 7.16916 87.4001 7.24765C87.5767 7.4635 87.93 7.54199 88.2636 7.36539C89.2839 5.81518 85.2024 1.38041 80.748 2.55778L80.7872 2.57741Z" fill="#B7A59C"/>
<path opacity="0.4" d="M80.7872 2.57741C73.8604 4.42196 72.8596 13.3307 77.5298 17.9029C82.1216 22.3769 109.28 28.8917 91.3836 37.9771C102.647 37.6239 108.416 36.6035 109.299 35.6812C109.751 29.4215 101.391 26.9098 101.391 26.9098C109.025 21.8078 88.7149 14.096 88.7149 14.096H88.6953C88.2832 13.8606 87.8711 13.6447 87.459 13.4289C86.2228 12.7028 84.3586 11.4469 83.2793 9.85749C83.2401 9.79862 83.1812 9.73975 83.142 9.66126C83.0439 9.50428 82.9654 9.36692 82.8673 9.20994C82.8673 9.20994 82.8673 9.19031 82.8476 9.17069C81.9254 7.36539 82.259 6.44311 82.6122 6.01141C82.7495 5.89367 82.8869 5.79556 83.0242 5.69744C83.9073 5.18725 84.5745 5.148 84.908 5.18725C85.3594 5.26574 85.9284 5.44234 86.419 5.81518C86.4582 5.8348 86.4779 5.87405 86.5171 5.91329C86.6741 6.07028 86.8311 6.22726 86.9684 6.40387C87.0077 6.46273 87.0469 6.50198 87.0862 6.54123C87.1254 6.60009 87.1647 6.63934 87.1843 6.69821C87.2432 6.79632 87.2824 6.89444 87.302 7.01217C87.302 7.11029 87.3609 7.16916 87.4001 7.24765C87.5767 7.4635 87.93 7.54199 88.2636 7.36539C89.2839 5.81518 85.2024 1.38041 80.748 2.55778L80.7872 2.57741Z" fill="white"/>
<path d="M91.4033 37.977C91.0501 38.1536 90.7165 38.3302 90.3437 38.5068C90.3437 38.5068 87.0078 38.7816 97.82 38.1536C105.65 37.7023 102.039 37.8789 103.295 37.7219C108.789 36.9959 109.162 36.78 109.162 36.78C109.24 36.4072 109.28 36.0344 109.319 35.6812C108.436 36.6034 102.686 37.6238 91.4033 37.977Z" fill="white"/>
<path opacity="0.4" d="M91.4033 37.977C91.0501 38.1536 90.7165 38.3302 90.3437 38.5068C90.3437 38.5068 87.0078 38.7816 97.82 38.1536C105.65 37.7023 102.039 37.8789 103.295 37.7219C108.789 36.9959 109.162 36.78 109.162 36.78C109.24 36.4072 109.28 36.0344 109.319 35.6812C108.436 36.6034 102.686 37.6238 91.4033 37.977Z" fill="white"/>
<path d="M72.055 62.1129C72.938 62.682 73.9584 62.9763 75.0376 62.9763C75.3712 62.9763 75.6852 62.9567 76.0188 62.8978C78.923 62.4073 80.9049 59.7974 80.4339 57.0895C80.375 56.7951 80.0807 56.5793 79.7864 56.6381L70.3478 58.2472C70.0534 58.3061 69.8376 58.5808 69.8964 58.8948C70.1319 60.2095 70.8972 61.3672 72.055 62.1129Z" fill="#231F20"/>
<path d="M84.5352 53.4201C85.4771 53.322 86.105 52.0073 85.9284 50.4963C85.7714 48.9854 84.8688 47.8276 83.9465 47.9257C83.0242 48.0238 82.3767 49.3386 82.5533 50.8495C82.7103 52.3605 83.6129 53.5182 84.5352 53.4201Z" fill="#231F20"/>
<path d="M67.5222 51.7522C67.3652 50.2412 66.4625 49.0835 65.5402 49.1816C64.618 49.2797 63.9704 50.5944 64.147 52.1054C64.304 53.6164 65.2067 54.7741 66.1289 54.676C67.0708 54.5779 67.6791 53.2631 67.5222 51.7522Z" fill="#231F20"/>
<path d="M89.4801 81.8142C90.8929 82.4226 92.3254 82.2263 92.6982 81.3629C92.6982 81.3237 92.7179 81.2844 92.7375 81.2452L98.644 79.3614C100.292 78.7531 101.372 77.6934 101.842 76.2021C103.216 71.8851 98.8991 65.5273 98.7225 65.2525C98.5458 64.9974 98.1926 64.9386 97.9375 65.1152C97.6824 65.2918 97.604 65.645 97.7806 65.9001C97.8198 65.959 101.96 72.0617 100.763 75.8685C100.39 77.0263 99.5859 77.8308 98.2711 78.3018L92.5413 80.1267C92.2273 79.5772 91.6386 79.0474 90.8341 78.6942C89.4212 78.0859 87.9887 78.2821 87.6159 79.1455C87.2431 80.0089 88.0672 81.2059 89.4801 81.8142Z" fill="#231F20"/>
</svg>
