<svg width="128" height="128" viewBox="0 0 128 128" fill="none" xmlns="http://www.w3.org/2000/svg">
<g clip-path="url(#clip0_336_108)">
<path d="M52.6742 128.009C70.5564 128.009 85.0528 126.573 85.0528 124.8C85.0528 123.028 70.5564 121.591 52.6742 121.591C34.792 121.591 20.2957 123.028 20.2957 124.8C20.2957 126.573 34.792 128.009 52.6742 128.009Z" fill="#989898"/>
<path d="M57.5958 113.893L57.2893 113.01C59.2183 112.361 60.5344 111.333 61.2194 109.927C62.2471 107.818 61.4718 105.546 61.4538 105.528L62.3372 105.222C62.3733 105.33 63.2566 107.872 62.0668 110.342C61.2735 111.982 59.7772 113.172 57.5958 113.911V113.893Z" fill="#211E1F"/>
<path d="M60.3614 116.28C61.0086 115.816 60.9265 114.594 60.1779 113.55C59.4293 112.506 58.2977 112.036 57.6505 112.501C57.0032 112.965 57.0854 114.187 57.834 115.231C58.5826 116.275 59.7141 116.745 60.3614 116.28Z" fill="#211E1F"/>
<path d="M37.6386 110.45L36.7012 110.414C36.8274 107.674 37.6567 105.763 39.2071 104.735C41.5147 103.203 44.4893 104.284 44.6155 104.338L44.291 105.222C44.291 105.222 41.6229 104.248 39.7119 105.528C38.4319 106.376 37.7288 108.034 37.6206 110.468L37.6386 110.45Z" fill="#211E1F"/>
<path d="M37.6266 111.5C38.0794 110.844 37.59 109.721 36.5334 108.991C35.4768 108.261 34.2531 108.2 33.8002 108.855C33.3474 109.51 33.8368 110.634 34.8934 111.364C35.95 112.094 37.1737 112.155 37.6266 111.5Z" fill="#211E1F"/>
<path d="M82.042 46.684L73.4606 101.255C73.7671 101.598 73.9294 101.958 73.9474 102.319C74.0015 104.987 65.2939 106.808 54.513 106.375C43.7322 105.943 34.9525 103.437 34.8984 100.75C34.8984 100.426 35.0246 100.119 35.2589 99.813L24.6403 44.3944C24.5863 44.124 24.5863 43.6011 24.9108 43.6733C45.6071 48.8473 82.2043 45.422 82.2043 45.422L82.024 46.6659" fill="#DF5551"/>
<g opacity="0.2" style="mix-blend-mode:multiply">
<path d="M42.3801 104.969C41.6409 104.753 34.9344 103.455 34.8984 100.769C34.8984 100.444 35.0246 100.138 35.2589 99.8313L24.6403 44.3947C24.5863 44.1243 24.5863 43.5834 24.9108 43.6736C28.5705 44.8634 33.6364 45.242 33.6364 45.242" fill="#A32035"/>
</g>
<path d="M25.5957 44.0339C24.4059 42.8079 24.478 37.9944 29.4177 35.4164C44.2188 27.7364 46.3642 20.2367 50.5467 17.0457C53.6836 14.6479 57.3794 14.6299 59.0921 14.8463C61.3816 15.1527 65.438 17.0096 64.9152 19.8761C64.9152 19.8761 64.9152 19.9122 64.9152 19.9302C64.7349 21.4085 63.6171 21.1561 63.5811 20.6694C63.545 20.5792 63.509 20.4891 63.4729 20.3989C63.4549 20.3629 63.4188 20.3088 63.3828 20.2727C63.3467 20.2367 63.3287 20.1826 63.2926 20.1465C63.1845 20.0023 63.0583 19.8761 62.914 19.7319C62.878 19.7139 62.8599 19.6778 62.8239 19.6598C62.4092 19.3353 61.9405 19.191 61.5439 19.1189C61.2554 19.0829 60.6966 19.1189 59.9574 19.5516C59.8492 19.6237 59.723 19.7139 59.6149 19.804C59.3084 20.1646 59.038 20.9398 59.8132 22.4541C59.8132 22.4541 59.8132 22.4722 59.8132 22.4902C59.8853 22.6164 59.9574 22.7426 60.0295 22.8688C60.0656 22.9229 60.1016 22.977 60.1377 23.031C61.0571 24.3651 62.6256 25.4288 63.6532 26.0417C63.9957 26.222 64.3383 26.4203 64.6808 26.6006H64.6988C64.6988 26.6006 81.7895 33.0908 75.3715 37.3815C75.3715 37.3815 83.2318 39.7251 81.8977 45.6744C81.8977 45.6744 81.5912 45.9448 76.958 46.4677C69.1698 47.333 65.3298 46.9003 58.7495 47.2789C49.6453 47.8018 40.9197 46.8282 30.5715 45.8547C29.9766 45.8006 25.9563 44.4125 25.5957 44.0339Z" fill="#B7A59C"/>
<path d="M58.966 47.6937C56.8206 47.6937 54.8916 47.6757 53.3051 47.6396C42.3981 47.4594 25.704 46.3416 24.3699 44.0701C24.2257 43.8177 24.2077 43.5292 24.3699 43.2588L25.1451 43.6734C25.1451 43.6734 25.1451 43.6194 25.1451 43.6013C25.6679 44.7191 36.6291 46.4498 53.3412 46.7382C73.0099 47.0627 81.8978 45.6385 81.9339 44.5208H82.8172C82.7632 47.1889 68.8454 47.6577 58.984 47.6577L58.966 47.6937Z" fill="white"/>
<path opacity="0.4" d="M66.1052 47.1347C82.9795 39.2564 59.2725 33.6496 55.3423 29.8096C51.4122 25.9696 52.2595 18.4699 58.0826 16.9195C61.8505 15.9099 65.3119 19.7138 64.3925 20.9938C64.2663 21.1561 63.6353 21.1561 63.5993 20.6874C63.5632 20.5972 63.5271 20.5071 63.4911 20.4169C63.4731 20.3809 63.437 20.3268 63.4009 20.2907C63.3649 20.2547 63.3469 20.2006 63.3108 20.1645C63.2026 20.0203 63.0764 19.8941 62.9322 19.7499C62.8962 19.7319 62.8781 19.6958 62.8421 19.6778C62.4274 19.3533 61.9587 19.209 61.5621 19.1369C61.2736 19.1009 60.7147 19.1369 59.9756 19.5696C59.8674 19.6417 59.7412 19.7319 59.6331 19.822C59.3266 20.1826 59.0562 20.9578 59.8314 22.4721C59.8314 22.4721 59.8314 22.4902 59.8314 22.5082C59.9035 22.6344 59.9756 22.7606 60.0477 22.8868C60.0838 22.9409 60.1198 22.995 60.1559 23.049C61.0753 24.3831 62.6438 25.4468 63.6714 26.0597C64.0139 26.24 64.3564 26.4383 64.699 26.6186H64.717C64.717 26.6186 81.8077 33.1088 75.3897 37.3995C75.3897 37.3995 83.25 39.7431 81.9159 45.6924C81.9159 45.6924 81.6094 45.8727 76.9762 46.4857C75.9305 46.6299 78.9593 46.4857 72.379 46.8643C63.2747 47.3871 66.0871 47.1527 66.0871 47.1527L66.1052 47.1347Z" fill="white"/>
<path d="M62.0148 55.5758C62.7979 55.5025 63.3357 54.4064 63.216 53.1276C63.0962 51.8487 62.3643 50.8715 61.5811 50.9448C60.798 51.0182 60.2602 52.1143 60.3799 53.3931C60.4997 54.672 61.2316 55.6492 62.0148 55.5758Z" fill="#211E1F"/>
<path d="M46.5309 56.4211C47.3141 56.3477 47.8518 55.2516 47.7321 53.9728C47.6123 52.694 46.8804 51.7167 46.0972 51.7901C45.3141 51.8634 44.7763 52.9595 44.896 54.2384C45.0158 55.5172 45.7478 56.4944 46.5309 56.4211Z" fill="#211E1F"/>
<path d="M21.8404 60.2913C22.9728 59.6854 23.5863 58.6248 23.2105 57.9225C22.8347 57.2202 21.612 57.1421 20.4795 57.748C19.347 58.354 18.7336 59.4146 19.1094 60.1169C19.4852 60.8192 20.7079 60.8973 21.8404 60.2913Z" fill="#211E1F"/>
<path d="M50.9795 59.6827C51.322 61.7018 53.3772 63.0539 55.5767 62.6754C57.7761 62.2968 59.2544 60.3497 58.9119 58.3306L50.9795 59.7007V59.6827Z" fill="#211E1F"/>
<path d="M54.8374 63.1981C53.9541 63.1981 53.0887 62.9457 52.3315 62.4589C51.358 61.8279 50.709 60.8544 50.5287 59.7547C50.5107 59.6285 50.5287 59.5023 50.6008 59.4121C50.6729 59.304 50.7811 59.2499 50.9073 59.2319L58.8397 57.8797C59.0921 57.8257 59.3265 58.0059 59.3805 58.2583C59.7772 60.5299 58.1005 62.7293 55.6667 63.144C55.3963 63.1981 55.1259 63.2161 54.8374 63.2161V63.1981ZM51.5563 60.0431C51.7727 60.7102 52.2234 61.269 52.8544 61.6837C53.6296 62.1885 54.567 62.3688 55.5045 62.2065C57.2713 61.9 58.5332 60.4578 58.4972 58.8533L51.5563 60.0431Z" fill="#211E1F"/>
<path d="M31.4369 69.5981C31.3107 69.5981 31.1665 69.5441 31.0763 69.4359L22.4589 58.9255C22.2966 58.7272 22.3327 58.4387 22.531 58.2584C22.7293 58.0962 23.0177 58.1322 23.198 58.3305L31.8155 68.841C31.9777 69.0393 31.9417 69.3277 31.7434 69.508C31.6532 69.5801 31.5451 69.6162 31.4549 69.6162L31.4369 69.5981Z" fill="#211E1F"/>
<path d="M89.8389 59.7891C90.2319 59.0963 89.6447 58.0209 88.5275 57.3873C87.4103 56.7536 86.186 56.8016 85.7931 57.4945C85.4001 58.1874 85.9872 59.2627 87.1045 59.8963C88.2217 60.53 89.446 60.482 89.8389 59.7891Z" fill="#211E1F"/>
<path d="M77.3007 68.9668C77.1925 68.9668 77.0843 68.9307 76.9942 68.8586C76.7959 68.6964 76.7778 68.3899 76.9401 68.1916L85.81 57.8975C85.9722 57.6992 86.2787 57.6812 86.477 57.8434C86.6753 58.0057 86.6933 58.3121 86.5311 58.5104L77.6612 68.8045C77.5711 68.9127 77.4449 68.9668 77.3007 68.9668Z" fill="#211E1F"/>
<path d="M40.6133 39.2386L37.819 39.7795C37.819 39.7795 31.9959 11.3851 32.1401 10.8082C32.2843 10.2313 34.4477 9.96089 34.9345 10.2674C35.4212 10.5739 40.5953 39.2386 40.5953 39.2386H40.6133Z" fill="#00A9E7"/>
<mask id="mask0_336_108" style="mask-type:luminance" maskUnits="userSpaceOnUse" x="32" y="10" width="9" height="30">
<path d="M40.6133 39.2386L37.819 39.7795C37.819 39.7795 31.9959 11.3851 32.1401 10.8082C32.2843 10.2313 34.4477 9.96089 34.9345 10.2674C35.4212 10.5739 40.5953 39.2386 40.5953 39.2386H40.6133Z" fill="white"/>
</mask>
<g mask="url(#mask0_336_108)">
<path d="M32.8072 15.207L32.5007 14.9906L35.9261 10.3394L36.2326 10.5557L32.8072 15.207Z" fill="white"/>
<path d="M33.1678 16.5951L32.8613 16.3788L36.2867 11.7275L36.5932 11.9439L33.1678 16.5951Z" fill="white"/>
<path d="M33.348 18.2177L33.0415 17.9833L36.4669 13.3501L36.7733 13.5664L33.348 18.2177Z" fill="white"/>
<path d="M33.7086 19.6059L33.4021 19.3715L36.8275 14.7383L37.1339 14.9546L33.7086 19.6059Z" fill="white"/>
<path d="M33.9791 21.0839L33.6726 20.8676L37.098 16.2163L37.4044 16.4507L33.9791 21.0839Z" fill="white"/>
<path d="M34.3397 22.4721L34.0332 22.2558L37.4586 17.6045L37.747 17.8208L34.3397 22.4721Z" fill="white"/>
<path d="M34.5199 24.0947L34.2134 23.8783L37.6387 19.2271L37.9272 19.4434L34.5199 24.0947Z" fill="white"/>
<path d="M34.8805 25.4828L34.574 25.2485L37.9993 20.6152L38.2878 20.8316L34.8805 25.4828Z" fill="white"/>
<path d="M35.1329 26.9794L34.8445 26.7451L38.2518 22.1118L38.5583 22.3282L35.1329 26.9794Z" fill="white"/>
<path d="M35.4933 28.3676L35.2048 28.1332L38.6122 23.4819L38.9186 23.7163L35.4933 28.3676Z" fill="white"/>
<path d="M35.6737 29.9721L35.3853 29.7558L38.7926 25.1045L39.0991 25.3389L35.6737 29.9721Z" fill="white"/>
<path d="M36.0343 31.3603L35.7278 31.1439L39.1531 26.4927L39.4596 26.709L36.0343 31.3603Z" fill="white"/>
<path d="M36.3048 32.8564L35.9983 32.622L39.4236 27.9888L39.7301 28.2051L36.3048 32.8564Z" fill="white"/>
<path d="M36.6651 34.2446L36.3586 34.0102L39.784 29.377L40.0905 29.5933L36.6651 34.2446Z" fill="white"/>
<path d="M36.8455 35.8671L36.5391 35.6327L39.9644 30.9814L40.2709 31.2158L36.8455 35.8671Z" fill="white"/>
<path d="M37.2061 37.2372L36.8997 37.0209L40.325 32.3696L40.6315 32.604L37.2061 37.2372Z" fill="white"/>
<path d="M37.2962 38.9863L36.9897 38.7519L40.4151 34.1187L40.7216 34.335L37.2962 38.9863Z" fill="white"/>
<path d="M37.6568 40.3744L37.3503 40.1401L40.7757 35.5068L41.0822 35.7232L37.6568 40.3744Z" fill="white"/>
<path d="M31.6534 13.1337L31.3469 12.9174L34.7723 8.26611L35.0788 8.50048L31.6534 13.1337Z" fill="white"/>
<path d="M32.014 14.5219L31.7075 14.3056L35.1329 9.6543L35.4393 9.87063L32.014 14.5219Z" fill="white"/>
</g>
<path d="M38.6483 39.4547L37.8009 39.7071L36.4849 33.3251L35.3131 27.52L34.2314 21.9854L33.1316 16.2885L32.1221 10.9521L33.0055 11.0783L38.6483 39.4547Z" fill="#00A9E7"/>
<path d="M32.2301 10.6457C32.2301 10.6457 31.7253 11.2587 32.9332 11.0784C34.1411 10.8981 35.0966 10.6097 35.0245 10.4294C34.9524 10.2491 34.7 9.9967 33.5822 10.1229C32.4645 10.2491 32.2301 10.6457 32.2301 10.6457Z" fill="#00A9E7"/>
<path d="M37.0618 40.4467C37.0618 40.4467 37.5125 38.4275 40.7035 37.9588C43.8944 37.49 44.9761 39.7796 44.9761 39.7796" fill="#B7A59C"/>
<path d="M32.5185 0.00923911C32.5185 0.00923911 29.7061 2.26276 29.6521 5.45375C29.598 8.64473 31.4008 10.2853 34.3935 8.7529C35.6374 8.12191 37.4222 5.56191 34.5016 3.79515C32.6087 2.65938 32.5185 -0.00878906 32.5185 -0.00878906V0.00923911Z" fill="#FAAD19"/>
<path d="M33.4382 10.718C33.4382 10.718 33.0596 10.2313 33.1137 9.18565C33.1497 8.23015 33.1137 7.90565 33.1137 7.90565L33.4923 7.85156C33.4923 7.85156 33.5464 8.21213 33.4923 9.20368C33.4562 10.0871 33.7447 10.4837 33.7447 10.4837L33.4562 10.718H33.4382Z" fill="#004987"/>
<path d="M32.086 3.10986C32.086 3.10986 29.3637 7.43662 32.3564 8.22986C34.4296 8.78874 35.2589 6.37296 34.5198 5.48958C33.2398 3.95719 32.086 3.12789 32.086 3.12789V3.10986Z" fill="#FAEC22"/>
<path d="M87.9626 55.8202L103.26 60.4795L108.817 42.2333L93.5202 37.574L87.9626 55.8202Z" fill="#CCCBCB"/>
<path d="M83.7839 57.1498L99.0811 61.8091L104.639 43.5629L89.3414 38.9036L83.7839 57.1498Z" fill="#F2F2F2"/>
<path d="M103.946 60.3497L99.0606 61.8821L104.469 43.4754L89.3975 39.0404L93.4538 37.3818L109.517 42.1052L103.946 60.3497Z" fill="#CCCBCB"/>
<path d="M109.571 42.2134L104.235 60.3858L99.0605 61.8821L104.469 43.5835L109.571 42.2134Z" fill="#B2B3B3"/>
<path d="M86.0264 49.5325L101.224 54.4542L102.252 50.7945L87.1081 45.999L86.0264 49.5325Z" fill="#A32035"/>
<path d="M99.5473 41.9609L93.5619 60.0611L89.3794 58.9975L95.4008 40.771L99.5473 41.9609Z" fill="#CE0E2D"/>
<path d="M103.189 40.2483L99.5474 41.9609L95.4009 40.7711L98.9164 38.9683L103.189 40.2483Z" fill="#A32035"/>
<path d="M107.191 50.1816L102.251 50.7946L101.224 54.4543L106.182 53.643L107.191 50.1816Z" fill="#65192E"/>
<path d="M99.5835 39.7614C99.5835 39.7614 104.938 34.6234 102.306 33.2713C98.0331 31.0719 99.5835 39.7614 99.5835 39.7614Z" fill="#CE0E2D"/>
<path d="M99.5654 39.635C99.5654 39.635 106.939 38.7516 105.641 36.0835C103.55 31.7567 99.5654 39.635 99.5654 39.635Z" fill="#65192E"/>
<path d="M99.4393 39.7074C99.4393 39.7074 93.6703 35.0381 96.1762 33.4697C100.251 30.9277 99.4393 39.7074 99.4393 39.7074Z" fill="#65192E"/>
<path d="M99.6555 39.6532C99.6555 39.6532 106.308 42.9343 106.686 39.9957C107.299 35.2182 99.6555 39.6532 99.6555 39.6532Z" fill="#A32035"/>
<path d="M99.6555 39.7433C99.6555 39.7433 97.6724 32.5862 95.2386 34.2628C91.2724 36.985 99.6555 39.7433 99.6555 39.7433Z" fill="#A32035"/>
<path d="M90.8579 38.4994L106.488 43.1506L107.949 42.5918L92.8771 37.7422L90.8579 38.4994Z" fill="#65192E"/>
<path d="M99.5293 39.5989C99.5293 39.5989 103.784 45.6744 105.515 43.2946C108.345 39.4006 99.5293 39.5989 99.5293 39.5989Z" fill="#CE0E2D"/>
<path d="M99.7636 39.6351C99.7636 39.6351 92.6785 41.8525 92.7687 38.9139C92.8949 34.1004 99.7636 39.6351 99.7636 39.6351Z" fill="#CE0E2D"/>
<path d="M106.488 43.1507L101.278 61.287L102.973 60.8002L107.949 42.5918L106.488 43.1507Z" fill="#A32035"/>
</g>
<defs>
<clipPath id="clip0_336_108">
<rect width="128" height="128" fill="white"/>
</clipPath>
</defs>
</svg>
