<svg width="128" height="128" viewBox="0 0 128 128" fill="none" xmlns="http://www.w3.org/2000/svg">
<g clip-path="url(#clip0_336_101)">
<path d="M49.2565 114.633C49.2187 115.899 48.7649 117.128 47.9897 118.301C48.4246 118.32 48.8784 118.338 49.2943 118.357C49.975 117.166 50.3531 115.937 50.3909 114.652C50.3909 114.065 50.3342 113.517 50.2397 112.988C49.8804 113.045 49.4834 113.082 49.1053 113.12C49.1998 113.593 49.2754 114.103 49.2565 114.633Z" fill="#211E1F"/>
<path d="M28.0241 112.742C27.6459 112.685 27.2678 112.628 26.8897 112.572C26.7573 114.254 26.7384 116.315 27.0409 118.376C27.4191 118.357 27.7972 118.338 28.1942 118.319C27.8917 116.372 27.9106 114.387 28.0241 112.742Z" fill="#211E1F"/>
<path d="M64.2874 66.6092L62.6614 61.769V61.5611L64.0605 61.2964L64.6467 63.1492L65.1382 65.1156L66.5373 60.956L67.0667 60.8615L70.2053 40.9525L70.4133 39.4399H70.3944C67.0289 41.7466 52.6786 42.1814 42.1474 42.1814C39.5571 42.1814 37.2127 42.1625 35.3031 42.1247C28.1184 41.9924 18.854 41.5386 11.6316 40.7067L22.0115 111.627C23.5052 111.986 25.1501 112.288 26.9084 112.553C27.2865 112.61 27.6647 112.667 28.0428 112.723C30.7465 113.101 33.6771 113.366 36.7589 113.48C41.2966 113.669 45.5128 113.498 49.1052 113.101C49.4833 113.064 49.8803 113.007 50.2396 112.969C56.4032 112.156 60.4115 110.549 60.3737 108.545C60.3737 108.11 60.1657 107.675 59.7876 107.259L62.3211 91.1504C61.7917 89.6568 61.3379 88.1064 61.0354 86.5182C59.7498 79.6361 60.9031 72.6784 64.2874 66.5903V66.6092ZM24.6585 50.9921C24.4883 49.4417 25.1311 48.0993 26.0954 48.0048C27.0408 47.9103 27.9483 49.0825 28.1184 50.6329C28.2886 52.1832 27.6458 53.5256 26.6815 53.6201C25.7362 53.7147 24.8286 52.5425 24.6585 50.9921ZM28.3642 46.7758C27.5323 46.5111 25.9063 46.7758 24.6396 47.5888C23.8266 48.1182 22.8245 49.1203 22.6543 50.8408C22.6354 51.0488 22.4653 51.2001 22.2573 51.2001H22.2195C21.9926 51.1812 21.8413 50.9732 21.8602 50.7652C22.0682 48.7422 23.2594 47.551 24.2047 46.9271C25.7551 45.9061 27.5891 45.6981 28.61 46.0007C28.818 46.0574 28.9314 46.2843 28.8747 46.4922C28.7991 46.7002 28.5911 46.8137 28.3642 46.7569V46.7758ZM39.5761 57.099C37.2883 57.4394 35.3031 57.515 35.3031 57.515C35.3031 57.515 36.2295 55.4352 39.0278 54.4899C41.9583 53.5067 42.4877 55.2272 42.4877 55.2272C42.4877 55.2272 41.8638 56.7776 39.5761 57.1179V57.099ZM42.1096 44.507C42.0529 44.299 42.1852 44.0721 42.3932 44.0154C44.3595 43.486 45.891 44.1667 46.8174 44.8284C48.33 45.9061 49.1808 47.551 49.2564 48.6098C49.2564 48.8367 49.1052 49.0258 48.8783 49.0447C48.8783 49.0447 48.8783 49.0447 48.8594 49.0447C48.6514 49.0447 48.4812 48.8745 48.4623 48.6665C48.4056 47.7968 47.5926 46.3599 46.3636 45.4902C45.5696 44.923 44.2839 44.3557 42.6201 44.7906C42.4121 44.8473 42.1852 44.715 42.1285 44.507H42.1096ZM45.475 52.3345C44.5297 52.429 43.6221 51.2568 43.452 49.7064C43.2818 48.156 43.9246 46.8137 44.8889 46.7191C45.8343 46.6246 46.7418 47.7968 46.9119 49.3472C47.0821 50.8975 46.4393 52.2399 45.475 52.3345Z" fill="#DF5551"/>
<g opacity="0.2" style="mix-blend-mode:multiply">
<path d="M12.9175 106.673C12.9742 109.925 21.1231 111.513 22.0117 111.778V111.645C16.4909 110.341 12.9364 108.545 12.9175 106.673Z" fill="#A32035"/>
</g>
<path d="M0.476562 38.1167C0.476562 38.1167 0.476562 38.1545 0.476562 38.1734L6.09192 67.517C7.1129 67.1578 8.26622 67.0065 9.41955 66.912C9.72206 66.8931 10.0057 67.1199 10.0246 67.4414C10.0435 67.7628 9.81659 68.0275 9.49517 68.0464C8.32294 68.1409 7.22634 68.2922 6.31881 68.6703L8.00153 77.4999C8.00153 77.4999 8.02043 77.4999 8.03934 77.4999C9.5708 77.1784 10.9699 77.67 11.1779 78.6154C11.3859 79.5607 10.3082 80.5817 8.77671 80.922C8.7389 80.922 8.70108 80.922 8.66327 80.922L13.3711 105.558C13.0875 105.917 12.9173 106.295 12.9362 106.692C12.9741 108.564 16.5286 110.36 22.0116 111.665L11.6317 40.7069C6.12974 40.0641 1.80005 39.2133 0.476562 38.1167Z" fill="#DF5551"/>
<g opacity="0.2" style="mix-blend-mode:multiply">
<path d="M0.476562 38.1167C0.476562 38.1167 0.476562 38.1545 0.476562 38.1734L6.09192 67.517C7.1129 67.1578 8.26622 67.0065 9.41955 66.912C9.72206 66.8931 10.0057 67.1199 10.0246 67.4414C10.0435 67.7628 9.81659 68.0275 9.49517 68.0464C8.32294 68.1409 7.22634 68.2922 6.31881 68.6703L8.00153 77.4999C8.00153 77.4999 8.02043 77.4999 8.03934 77.4999C9.5708 77.1784 10.9699 77.67 11.1779 78.6154C11.3859 79.5607 10.3082 80.5817 8.77671 80.922C8.7389 80.922 8.70108 80.922 8.66327 80.922L13.3711 105.558C13.0875 105.917 12.9173 106.295 12.9362 106.692C12.9741 108.564 16.5286 110.36 22.0116 111.665L11.6317 40.7069C6.12974 40.0641 1.80005 39.2133 0.476562 38.1167Z" fill="#A32035"/>
</g>
<path d="M47.6115 9.56722C47.6115 9.56722 47.517 9.43487 47.498 9.34033C47.498 9.43487 47.5548 9.51049 47.6115 9.56722Z" fill="#B7A59C"/>
<path d="M1.08151 37.2278C1.70544 38.5891 15.0348 40.7067 35.3409 41.047C41.6936 41.1605 47.0821 41.1038 51.6387 40.9525C69.9406 31.6692 42.1852 25.0139 37.4774 20.4196C32.6939 15.7495 33.7149 6.65531 40.805 4.76461C45.3616 3.55457 49.5211 8.09223 48.4812 9.68042C48.7648 9.51026 49.0484 9.15102 49.1241 8.43256C49.1241 8.41365 49.1241 8.39475 49.1241 8.37584C49.7669 4.89696 44.8322 2.64704 42.0529 2.2689C39.9731 1.98529 35.4732 2.02311 31.673 4.93478C26.587 8.82961 23.9778 17.9238 5.99732 27.2639C0.476492 30.1377 -0.0339949 35.3182 1.02479 37.2846H1.06261C1.06261 37.2846 1.06261 37.2467 1.06261 37.2278H1.08151Z" fill="#B7A59C"/>
<path d="M11.6317 40.7065C18.8541 41.5384 28.1185 41.9922 35.3032 42.1245C37.2128 42.1623 39.5762 42.1812 42.1475 42.1812C52.6787 42.1812 67.029 41.7464 70.3945 39.4397C70.8482 39.1183 71.1129 38.778 71.1318 38.3809H70.0541C70.0541 38.3809 69.9974 38.5322 69.9218 38.6267C69.9029 38.986 69.8462 39.3641 69.7705 39.7422C69.7705 39.7422 69.3924 39.9691 63.7581 40.7065C62.4914 40.8767 66.1782 40.7065 58.1806 41.1603C47.12 41.7842 50.5422 41.5195 50.5422 41.5195C50.9203 41.3304 51.2606 41.1603 51.6199 40.9901C47.0822 41.1414 41.6748 41.1792 35.3221 41.0846C15.0349 40.7443 1.68664 38.6267 1.06272 37.2654C1.06272 37.2843 1.06272 37.3221 1.06272 37.3411H1.0249L0.117368 36.8306C-0.0527945 37.152 -0.0527945 37.4923 0.117368 37.8137C0.192996 37.9272 0.306437 38.0595 0.438786 38.173C1.76227 39.2696 6.07306 40.1204 11.5939 40.7632L11.6317 40.7065Z" fill="white"/>
<path opacity="0.4" d="M47.6117 9.56689C47.8197 9.88831 48.349 9.88831 48.4625 9.71815C48.4625 9.71815 48.4625 9.69924 48.4625 9.68034C48.1222 9.86941 47.7629 9.77487 47.5928 9.56689H47.6117Z" fill="white"/>
<path d="M40.7862 4.76449C33.715 6.65518 32.6751 15.7494 37.4586 20.4194C42.1475 24.9949 69.9218 31.6502 51.6199 40.9524C63.1153 40.5742 68.9954 39.5533 69.9218 38.6079C70.3945 32.1985 61.8485 29.646 61.8485 29.646C69.6571 24.4466 48.8784 16.5435 48.8784 16.5435C48.8784 16.5435 48.8784 16.5435 48.8595 16.5435C48.4435 16.3166 48.0087 16.0897 47.6116 15.8629C46.3448 15.1255 44.4541 13.8209 43.3386 12.2138C43.3008 12.1571 43.2441 12.0815 43.2063 12.0248C43.1118 11.8735 43.0172 11.7222 42.9416 11.5521C42.9416 11.5521 42.9416 11.5332 42.9227 11.5143C41.9773 9.66139 42.3177 8.73495 42.6958 8.30009C42.8471 8.18665 42.9794 8.09211 43.1118 7.97867C44.0004 7.44927 44.6999 7.43037 45.0403 7.46818C45.5129 7.54381 46.0801 7.71397 46.5906 8.11102C46.6284 8.12992 46.6663 8.16774 46.7041 8.20555C46.8742 8.35681 47.0255 8.52697 47.1578 8.69713C47.1957 8.75385 47.2335 8.79167 47.2713 8.84839C47.3091 8.90511 47.3469 8.96183 47.3847 9.01855C47.4414 9.11309 47.4793 9.22653 47.5171 9.33997C47.5171 9.4345 47.5738 9.51013 47.6305 9.56685C47.8007 9.77483 48.1599 9.86936 48.5002 9.68029C49.5401 8.11102 45.3617 3.55444 40.824 4.76449H40.7862Z" fill="#B7A59C"/>
<path opacity="0.4" d="M40.7862 4.76449C33.715 6.65518 32.6751 15.7494 37.4586 20.4194C42.1475 24.9949 69.9218 31.6502 51.6199 40.9524C63.1153 40.5742 68.9954 39.5533 69.9218 38.6079C70.3945 32.1985 61.8485 29.646 61.8485 29.646C69.6571 24.4466 48.8784 16.5435 48.8784 16.5435C48.8784 16.5435 48.8784 16.5435 48.8595 16.5435C48.4435 16.3166 48.0087 16.0897 47.6116 15.8629C46.3448 15.1255 44.4541 13.8209 43.3386 12.2138C43.3008 12.1571 43.2441 12.0815 43.2063 12.0248C43.1118 11.8735 43.0172 11.7222 42.9416 11.5521C42.9416 11.5521 42.9416 11.5332 42.9227 11.5143C41.9773 9.66139 42.3177 8.73495 42.6958 8.30009C42.8471 8.18665 42.9794 8.09211 43.1118 7.97867C44.0004 7.44927 44.6999 7.43037 45.0403 7.46818C45.5129 7.54381 46.0801 7.71397 46.5906 8.11102C46.6284 8.12992 46.6663 8.16774 46.7041 8.20555C46.8742 8.35681 47.0255 8.52697 47.1578 8.69713C47.1957 8.75385 47.2335 8.79167 47.2713 8.84839C47.3091 8.90511 47.3469 8.96183 47.3847 9.01855C47.4414 9.11309 47.4793 9.22653 47.5171 9.33997C47.5171 9.4345 47.5738 9.51013 47.6305 9.56685C47.8007 9.77483 48.1599 9.86936 48.5002 9.68029C49.5401 8.11102 45.3617 3.55444 40.824 4.76449H40.7862Z" fill="white"/>
<path d="M51.62 40.9527C51.2608 41.1229 50.9393 41.312 50.5423 41.4821C50.5423 41.4821 47.1201 41.7468 58.1807 41.1229C66.1783 40.6691 62.4915 40.8393 63.7582 40.6691C69.3736 39.9317 69.7707 39.7049 69.7707 39.7049C69.8652 39.3267 69.903 38.9486 69.9219 38.5894C68.9766 39.5347 63.0965 40.5557 51.62 40.9338V40.9527Z" fill="white"/>
<path opacity="0.4" d="M51.62 40.9527C51.2608 41.1229 50.9393 41.312 50.5423 41.4821C50.5423 41.4821 47.1201 41.7468 58.1807 41.1229C66.1783 40.6691 62.4915 40.8393 63.7582 40.6691C69.3736 39.9317 69.7707 39.7049 69.7707 39.7049C69.8652 39.3267 69.903 38.9486 69.9219 38.5894C68.9766 39.5347 63.0965 40.5557 51.62 40.9338V40.9527Z" fill="white"/>
<path d="M11.178 78.5961C10.9701 77.6508 9.57094 77.1592 8.03947 77.4806C8.03947 77.4806 8.02057 77.4806 8.00166 77.4806C7.66134 77.5562 7.33992 77.6697 7.05631 77.802C5.69501 76.7621 3.464 74.4933 3.86104 72.0354C4.16355 70.1069 5.08999 69.1615 6.31894 68.651C7.22648 68.2729 8.32308 68.1216 9.49531 68.0271C9.81673 68.0082 10.0436 67.7246 10.0247 67.4221C10.0058 67.1007 9.72219 66.8738 9.41968 66.8927C8.26636 66.9872 7.11304 67.1196 6.09206 67.4977C4.44716 68.1027 3.14258 69.2939 2.72662 71.8652C2.27286 74.7202 4.48497 77.197 6.09206 78.5016C5.73283 78.8986 5.54376 79.3335 5.63829 79.7683C5.82736 80.6948 7.16976 81.1674 8.6634 80.9027C8.70122 80.9027 8.73903 80.9027 8.77685 80.9027C10.3083 80.5813 11.386 79.5414 11.178 78.5961Z" fill="#211E1F"/>
<path d="M48.8595 119.095C50.4288 119.189 51.6388 120.04 51.5821 121.004C51.5254 121.969 50.2208 122.668 48.6515 122.592C47.0823 122.498 45.8722 121.647 45.91 120.683C45.9478 120.116 46.4205 119.624 47.139 119.359C47.4415 119 47.7251 118.66 47.952 118.301C44.9269 118.149 41.656 118.074 38.2527 118.074C34.8495 118.074 31.295 118.168 28.1564 118.32C28.2131 118.735 28.3077 119.17 28.4022 119.586C28.856 119.756 29.1963 120.04 29.3097 120.418C29.5933 121.345 28.6291 122.46 27.1354 122.933C25.6418 123.405 24.2049 123.046 23.9023 122.12C23.6187 121.193 24.583 120.078 26.0766 119.605C26.4548 119.492 26.8329 119.416 27.1922 119.397C27.1165 119.057 27.0598 118.717 27.0031 118.357C16.6232 118.943 9.34399 120.324 9.34399 121.95C9.34399 124.105 22.2763 125.844 38.2527 125.844C54.2291 125.844 67.1614 124.105 67.1614 121.95C67.1614 120.324 59.7688 118.943 49.2565 118.357C49.1053 118.603 48.9351 118.868 48.765 119.114C48.7839 119.114 48.8028 119.114 48.8217 119.114L48.8595 119.095Z" fill="#989898"/>
<path d="M47.1578 119.359C46.4394 119.643 45.9667 120.116 45.9289 120.683C45.8722 121.647 47.1011 122.498 48.6704 122.593C50.2397 122.687 51.5443 121.969 51.601 121.004C51.6577 120.04 50.4287 119.189 48.8784 119.095C48.8595 119.095 48.8406 119.095 48.8216 119.095C48.9918 118.849 49.162 118.603 49.3132 118.338C48.8784 118.32 48.4435 118.301 48.0086 118.282C47.7629 118.641 47.4982 119 47.1957 119.341L47.1578 119.359Z" fill="#211E1F"/>
<path d="M47.1578 119.359C46.4394 119.643 45.9667 120.116 45.9289 120.683C45.8722 121.647 47.1011 122.498 48.6704 122.593C50.2397 122.687 51.5443 121.969 51.601 121.004C51.6577 120.04 50.4287 119.189 48.8784 119.095C48.8595 119.095 48.8406 119.095 48.8216 119.095C48.9918 118.849 49.162 118.603 49.3132 118.338C48.8784 118.32 48.4435 118.301 48.0086 118.282C47.7629 118.641 47.4982 119 47.1957 119.341L47.1578 119.359Z" fill="#989898"/>
<path d="M26.1145 119.605C24.6209 120.078 23.6377 121.213 23.9402 122.12C24.2238 123.047 25.6797 123.406 27.1733 122.933C28.667 122.46 29.6501 121.326 29.3476 120.418C29.2342 120.021 28.8938 119.757 28.4401 119.587C28.3455 119.171 28.2699 118.755 28.1943 118.32C27.8161 118.339 27.4191 118.358 27.041 118.377C27.0977 118.717 27.1544 119.076 27.23 119.416C26.8708 119.416 26.4927 119.492 26.1145 119.624V119.605Z" fill="#211E1F"/>
<path d="M26.1145 119.605C24.6209 120.078 23.6377 121.213 23.9402 122.12C24.2238 123.047 25.6797 123.406 27.1733 122.933C28.667 122.46 29.6501 121.326 29.3476 120.418C29.2342 120.021 28.8938 119.757 28.4401 119.587C28.3455 119.171 28.2699 118.755 28.1943 118.32C27.8161 118.339 27.4191 118.358 27.041 118.377C27.0977 118.717 27.1544 119.076 27.23 119.416C26.8708 119.416 26.4927 119.492 26.1145 119.624V119.605Z" fill="#989898"/>
<path d="M115.771 56.9098C115.771 57.3635 115.771 57.7039 115.752 58.1387L111.82 58.8761L111.952 53.809C107.755 51.5591 103.009 50.2734 98.0742 50.2734C96.2969 50.2734 94.5007 50.4436 92.6857 50.765L85.104 52.183C81.9465 52.7692 78.9592 53.8847 76.2366 55.3972C75.9341 55.9455 75.5182 56.3048 75.0266 56.3237C74.9132 56.3237 74.8186 56.3237 74.7241 56.2858C72.9468 57.4203 71.3019 58.7437 69.8083 60.2563L71.0372 60.0294C71.0372 60.0294 71.0372 60.1807 71.0372 60.2374L68.8251 66.9305L68.1067 67.0628L66.8021 63.8297C66.8021 63.8297 66.8021 63.8297 66.8021 63.8486L65.5164 67.5355L64.7034 67.6867L64.59 67.3653C64.1173 68.2539 63.7013 69.1615 63.3232 70.0879L118.494 59.8214L118.588 60.3697L63.0774 70.6929C61.1867 75.6655 60.6384 81.0728 61.6405 86.4046C62.5858 91.4528 64.7979 96.0471 68.0499 99.8853L67.5205 96.9925L73.93 95.8014L75.1211 102.211L71.075 102.967C71.5288 103.383 72.0204 103.761 72.512 104.139L75.3858 103.61L75.9152 106.446C76.5959 106.843 77.3143 107.202 78.0139 107.543L77.2198 103.307L83.6293 102.116L84.8204 108.526L81.8331 109.074C86.3329 110.492 91.1353 110.795 95.881 109.906L103.463 108.488C111.139 107.051 117.832 102.702 122.294 96.1984C122.975 95.1963 123.58 94.1565 124.128 93.1166L118.815 94.0997L117.624 87.6903L124.033 86.4991L124.96 91.4339C127.361 86.0643 128.079 80.1086 126.983 74.2285C125.395 65.6637 120.214 58.687 113.294 54.4897L113.219 57.3257L115.809 56.8341L115.771 56.9098ZM75.6694 60.3697L73.1926 60.8235L73.1548 62.1281L75.4615 61.6932C75.4425 62.1092 75.4425 62.5062 75.4236 62.9033L73.117 63.3381L73.0792 64.8129L75.6127 64.3402L75.5749 65.5881L71.699 66.3065C71.7557 64.1511 71.7935 61.9957 71.8691 59.8404L75.6694 59.1408L75.6316 60.3508L75.6694 60.3697ZM82.0411 64.4158L81.7007 64.4725L78.203 61.3718L78.1084 65.1343L76.7849 65.3801L76.9551 58.895L77.3143 58.8194L80.7554 61.9201L80.8499 58.1765L82.1734 57.9307L82.0033 64.4158H82.0411ZM85.7846 63.7163L83.478 64.1511L83.6482 57.7039L85.9548 57.269C87.6375 56.9476 88.6396 57.9875 88.8854 59.311C89.2257 61.126 88.3182 63.2625 85.7846 63.7352V63.7163ZM94.5953 55.851L92.3643 59.9916L92.3075 62.5062L90.9841 62.752L91.0408 60.1618L88.9988 56.8909V56.6829L90.379 56.4182L91.1164 57.6471L91.6836 58.7816H91.7214L92.3643 57.3824L93.1394 55.9077L94.5953 55.643V55.851ZM97.8284 58.9706L94.7276 59.5378L94.7654 58.4223L97.8662 57.8551L97.8284 58.9706ZM101.856 59.5567C102.631 59.4055 103.179 58.9328 103.425 58.1009L104.786 57.8551C104.465 59.6135 103.255 60.5399 101.837 60.8046C100.192 61.1071 98.717 60.2185 98.7548 58.082C98.8304 55.8321 100.343 54.4708 102.007 54.1683C103.349 53.9225 104.559 54.3952 104.824 55.9455L103.576 56.1724C103.33 55.3594 102.782 55.2649 101.988 55.4161C100.797 55.643 100.135 56.6829 100.097 57.874C100.059 58.9517 100.646 59.7836 101.837 59.5567H101.856ZM111.196 58.9895L109.853 59.2353L109.437 58.2522L106.847 58.7437L106.336 59.8971L104.881 60.1618V59.9727L107.906 53.1095L108.511 52.996L111.196 58.8005V58.9895ZM106.204 73.113L112.614 71.9219L113.805 78.3313L107.395 79.5225L106.204 73.113ZM107.112 88.2197L100.683 89.4108L99.4922 83.0014L105.902 81.8102L107.093 88.2197H107.112ZM111.063 63.5461L112.254 69.9556L105.845 71.1467L104.654 64.7372L111.063 63.5461ZM105.561 79.8439L99.1519 81.035L97.9607 74.6256L104.37 73.4344L105.561 79.8439ZM98.6225 89.8268L92.213 91.0179L91.0219 84.6084L97.4313 83.4173L98.6225 89.8268ZM102.801 65.0587L103.992 71.4681L97.5826 72.6593L96.3914 66.2498L102.801 65.0587ZM95.881 75.0415L97.0721 81.451L90.6626 82.6421L89.4715 76.2327L95.881 75.0415ZM87.6186 76.5352L88.8098 82.9446L82.4003 84.1358L81.2092 77.7263L87.6186 76.5352ZM64.4576 80.846L70.8671 79.6548L72.0582 86.0643L65.6488 87.2554L64.4576 80.846ZM67.1991 95.6312L66.008 89.2217L72.4174 88.0306L73.6086 94.4401L67.1991 95.6312ZM72.7199 79.3334L79.1294 78.1423L80.3205 84.5517L73.9111 85.7429L72.7199 79.3334ZM74.2703 87.7092L80.6798 86.518L81.8709 92.9275L75.4615 94.1186L74.2703 87.7092ZM76.9173 101.946L75.7261 95.5367L82.1356 94.3455L83.3267 100.755L76.9173 101.946ZM82.7595 86.1021L89.169 84.911L90.3601 91.3204L83.9507 92.5116L82.7595 86.1021ZM84.2154 93.9107L90.6248 92.7195L91.816 99.1479L85.3876 100.339L84.1965 93.9296L84.2154 93.9107ZM86.8434 108.148L85.6523 101.738L92.0617 100.547L93.2529 106.956L86.8434 108.148ZM92.4588 92.417L98.8683 91.2259L100.059 97.6353L93.631 98.8265L92.4399 92.417H92.4588ZM96.8263 106.351C96.8263 106.351 96.8074 106.351 96.7885 106.351L95.1247 106.654L94.8411 105.122C94.5007 104.612 94.3306 104.064 94.3684 103.459C94.3684 103.326 94.4251 103.194 94.444 103.062L93.9146 100.226L96.5238 99.734C97.2612 99.0155 97.9418 98.524 97.9985 98.4861C98.1498 98.3727 98.3578 98.4105 98.4523 98.5618C98.5468 98.713 98.5279 98.921 98.3767 99.0155C98.3767 99.0155 98.112 99.2046 97.7716 99.4882L100.343 99.0155L100.494 99.8664C100.872 100.018 101.118 100.282 101.232 100.528C101.515 101.114 101.383 101.927 101.024 102.74L101.515 105.425L97.7906 106.125C97.4502 106.257 97.1099 106.333 96.8074 106.333L96.8263 106.351ZM102.139 97.2194L100.948 90.8099L107.357 89.6188L108.549 96.0282L102.139 97.2194ZM107.755 81.4888L114.164 80.2977L115.355 86.7071L108.927 87.8983L107.736 81.4888H107.755ZM110.401 95.7257L109.21 89.3163L115.62 88.1251L116.811 94.5346L110.401 95.7257ZM123.75 85.1567L117.34 86.3479L116.149 79.9384L122.559 78.7473L123.75 85.1567ZM122.181 76.781L115.771 77.9721L114.58 71.5627L120.989 70.3715L122.181 76.781ZM119.439 61.9957L120.63 68.4052L114.221 69.5963L113.03 63.1869L119.439 61.9957Z" fill="#F2F2F2"/>
<path d="M68.3524 64.5485L68.9196 62.3742C69.0898 61.7503 69.3167 61.1264 69.5436 60.5024C68.9007 61.1642 68.2768 61.8637 67.6907 62.5822L68.3335 64.5296L68.3524 64.5485Z" fill="#F2F2F2"/>
<path d="M85.9549 58.4983L84.9339 58.6874L84.8394 62.6389L85.8036 62.4499C87.1271 62.2041 87.7888 60.8806 87.562 59.7273C87.4107 58.9143 87.0515 58.2714 85.9549 58.4794V58.4983Z" fill="#F2F2F2"/>
<path d="M107.282 57.496L108.984 57.1745L108.19 55.1704L107.282 57.496Z" fill="#F2F2F2"/>
<path d="M76.2367 55.3972C78.9782 53.8657 81.9466 52.7691 85.104 52.183L92.6857 50.765C94.5008 50.4247 96.2969 50.2734 98.0742 50.2734C103.028 50.2734 107.773 51.5591 111.952 53.809V53.1662C106.223 50.1411 99.4544 48.931 92.5723 50.1978L84.9906 51.6158C82.0033 52.1641 79.1483 53.1662 76.5203 54.5653C76.4447 54.8678 76.3501 55.1514 76.2178 55.3972H76.2367Z" fill="#989898"/>
<path d="M77.9572 107.581C77.2388 107.24 76.5392 106.881 75.8586 106.484L75.3292 103.648L72.4553 104.177C71.9637 103.799 71.4911 103.402 71.0184 103.005L75.0645 102.249L73.8733 95.8393L67.4639 97.0304L67.9933 99.9232C64.7602 96.0851 62.5292 91.4907 61.5838 86.4425C60.5818 81.0919 61.1301 75.7034 63.0208 70.7309L62.7182 70.7876L62.6237 70.2393L63.2665 70.1259C63.6447 69.1994 64.0606 68.2919 64.5333 67.4032L64.2875 66.647C60.9221 72.7161 59.7688 79.6928 61.0355 86.5749C61.338 88.1631 61.7918 89.7134 62.3212 91.2071C63.6258 94.8561 65.611 98.1648 68.2013 101.039L68.655 103.497L70.3377 103.194C70.7915 103.61 71.2453 104.007 71.7179 104.385L68.9197 104.896L70.1109 111.305L76.5392 110.114L76.0098 107.278C76.6905 107.656 77.39 108.015 78.1085 108.337L77.9761 107.637L77.9572 107.581Z" fill="#989898"/>
<path d="M67.6907 62.6012C68.2769 61.8638 68.9008 61.1832 69.5436 60.5214C69.5625 60.4458 69.6004 60.3702 69.6193 60.2945L69.7894 60.2567C71.2831 58.7442 72.9469 57.4207 74.7052 56.2863C74.4972 56.2295 74.3082 56.1161 74.138 55.9648C71.6423 57.5908 69.4113 59.6139 67.4639 61.9583L67.6907 62.6012Z" fill="#989898"/>
<path d="M118.532 60.3886L118.437 59.8403L63.2666 70.0879L62.6238 70.2202L62.7183 70.7685L63.0397 70.7118L118.532 60.3886Z" fill="#CE0E2D"/>
<path d="M103.992 71.4685L102.801 65.0591L96.3916 66.2502L97.5827 72.6597L103.992 71.4685ZM98.6983 66.6662L100.324 67.6682L102.064 66.8931L101.61 68.7459L102.896 70.164L100.986 70.3152L100.022 71.979L99.2844 70.2207L97.4126 69.8236L98.8684 68.5758L98.6604 66.6662H98.6983Z" fill="#CCCBCB"/>
<path d="M111.048 63.5677L104.635 64.7598L105.827 71.1728L112.24 69.9808L111.048 63.5677Z" fill="#CCCBCB"/>
<path d="M119.431 61.9881L113.018 63.1802L114.21 69.5932L120.623 68.4012L119.431 61.9881Z" fill="#989898"/>
<path d="M70.8581 79.6424L64.4451 80.8345L65.6371 87.2475L72.0502 86.0555L70.8581 79.6424Z" fill="#989898"/>
<path d="M79.1242 78.1575L72.7112 79.3496L73.9032 85.7627L80.3163 84.5706L79.1242 78.1575Z" fill="#CCCBCB"/>
<path d="M87.6118 76.5579L81.1987 77.75L82.3908 84.163L88.8038 82.971L87.6118 76.5579Z" fill="#CCCBCB"/>
<path d="M95.8745 75.0355L89.4614 76.2275L90.6535 82.6406L97.0665 81.4485L95.8745 75.0355Z" fill="#CCCBCB"/>
<path d="M104.362 73.4354L97.9487 74.6274L99.1408 81.0405L105.554 79.8484L104.362 73.4354Z" fill="#CCCBCB"/>
<path d="M112.609 71.9354L106.196 73.1274L107.388 79.5405L113.801 78.3484L112.609 71.9354Z" fill="#CCCBCB"/>
<path d="M120.973 70.3743L114.56 71.5664L115.752 77.9795L122.165 76.7874L120.973 70.3743Z" fill="#989898"/>
<path d="M72.4192 88.0252L66.0061 89.2173L67.1982 95.6303L73.6112 94.4383L72.4192 88.0252Z" fill="#989898"/>
<path d="M80.6853 86.5218L74.2722 87.7139L75.4643 94.1269L81.8773 92.9349L80.6853 86.5218Z" fill="#CCCBCB"/>
<path d="M89.154 84.9251L82.741 86.1172L83.933 92.5302L90.3461 91.3382L89.154 84.9251Z" fill="#CCCBCB"/>
<path d="M97.4167 83.4217L91.0037 84.6138L92.1957 91.0268L98.6088 89.8348L97.4167 83.4217Z" fill="#CCCBCB"/>
<path d="M105.904 81.8026L99.4912 82.9946L100.683 89.4077L107.096 88.2156L105.904 81.8026Z" fill="#CCCBCB"/>
<path d="M114.167 80.2996L107.754 81.4917L108.946 87.9047L115.359 86.7127L114.167 80.2996Z" fill="#CCCBCB"/>
<path d="M122.553 78.7381L116.14 79.9302L117.332 86.3432L123.745 85.1512L122.553 78.7381Z" fill="#989898"/>
<path d="M82.1259 94.3333L75.7129 95.5254L76.905 101.938L83.318 100.746L82.1259 94.3333Z" fill="#CCCBCB"/>
<path d="M90.6132 92.7332L84.2002 93.9253L85.3923 100.338L91.8053 99.1463L90.6132 92.7332Z" fill="#CCCBCB"/>
<path d="M98.8759 91.2298L92.4629 92.4219L93.655 98.8349L100.068 97.6429L98.8759 91.2298Z" fill="#CCCBCB"/>
<path d="M107.363 89.6107L100.95 90.8027L102.143 97.2158L108.556 96.0237L107.363 89.6107Z" fill="#CCCBCB"/>
<path d="M115.63 88.1263L109.217 89.3184L110.409 95.7314L116.822 94.5393L115.63 88.1263Z" fill="#CCCBCB"/>
<path d="M125.092 92.4173C127.796 86.7452 128.666 80.4303 127.512 74.1721C125.867 65.3425 120.46 58.139 113.275 53.9038V54.5466C120.176 58.744 125.357 65.7206 126.945 74.2855C128.042 80.1656 127.304 86.1023 124.922 91.4908L123.996 86.5561L117.586 87.7472L118.777 94.1567L124.09 93.1735C123.542 94.2323 122.937 95.2722 122.256 96.2554C117.794 102.74 111.12 107.108 103.425 108.545L95.8432 109.963C91.0975 110.852 86.2952 110.549 81.7953 109.131L80.6609 109.339C83.8183 110.436 87.1082 111.022 90.4547 111.022C92.2698 111.022 94.1226 110.852 95.9377 110.511L103.519 109.093C111.347 107.637 118.172 103.194 122.71 96.5768C123.485 95.4424 124.166 94.2512 124.771 93.0412L125.187 92.9655L125.092 92.4173Z" fill="#989898"/>
<path d="M81.8143 109.131L84.7827 108.564L83.5916 102.154L77.1821 103.345L77.9573 107.581L78.0897 108.299L78.3733 109.755L80.6799 109.339L81.8143 109.131Z" fill="#CCCBCB"/>
<path d="M92.0725 100.541L85.6594 101.733L86.8515 108.146L93.2645 106.954L92.0725 100.541Z" fill="#CCCBCB"/>
<path d="M95.0114 103.497C94.9735 104.177 95.2382 104.763 95.8244 105.293C96.713 106.087 97.8474 105.463 98.4335 105.009C99.9272 103.875 101.062 101.719 100.627 100.812C100.343 100.226 99.3978 100.32 98.6415 100.509C98.4524 100.547 98.2823 100.453 98.2444 100.263C98.2066 100.093 98.3012 99.9043 98.4902 99.8664C99.4356 99.6206 100.06 99.6774 100.494 99.8664L100.343 99.0156L97.7718 99.4883C96.8264 100.263 95.1059 101.889 95.0114 103.478V103.497ZM98.0365 104.896C97.7718 104.952 97.526 104.82 97.4882 104.536C97.4314 104.253 97.6205 104.064 97.8852 104.007C98.1499 103.95 98.3768 104.083 98.4335 104.366C98.4902 104.65 98.3201 104.858 98.0554 104.896H98.0365ZM98.736 101.776C98.8306 102.305 98.5469 102.589 98.339 102.967C98.2255 103.175 98.131 103.421 98.1877 103.705L97.4314 103.837C97.3369 103.383 97.4693 103.043 97.6583 102.74C97.8285 102.457 98.0176 102.23 97.9608 101.965C97.9041 101.719 97.6961 101.625 97.4314 101.663C97.1478 101.719 96.9588 101.889 97.0344 102.305L96.3159 102.438C96.1458 101.568 96.6373 101.058 97.2991 100.925C98.0743 100.774 98.6226 101.171 98.736 101.776Z" fill="#CCCBCB"/>
<path d="M101.024 102.759C100.57 103.799 99.757 104.858 98.8495 105.558C98.5091 105.822 98.1499 106.011 97.8096 106.144L101.534 105.444L101.043 102.759H101.024Z" fill="#CCCBCB"/>
<path d="M96.5428 99.7344L93.9336 100.226L94.463 103.062C94.7088 101.795 95.673 100.604 96.5617 99.7344H96.5428Z" fill="#CCCBCB"/>
<path d="M94.8223 105.123L95.1059 106.654L96.7697 106.352C96.2592 106.352 95.7865 106.162 95.3895 105.803C95.1626 105.595 94.9735 105.368 94.8223 105.141V105.123Z" fill="#CCCBCB"/>
<path d="M99.322 70.2205L100.059 71.9789L101.005 70.3151L102.914 70.1638L101.648 68.7458L102.082 66.8929L100.343 67.6681L98.6981 66.666L98.906 68.5756L97.4502 69.8235L99.322 70.2205Z" fill="#CE0E2D"/>
<path d="M65.1572 65.1344L64.6656 63.187L64.0795 61.3341L62.6804 61.5988V61.8068L64.3064 66.647L64.5522 67.4033L64.6656 67.7247L65.4786 67.5734L66.7643 63.8866V63.8677L68.0689 67.1008L68.7874 66.9684L70.9995 60.2754C70.9995 60.2754 70.9995 60.1619 70.9995 60.0674L69.7705 60.2943L69.6004 60.3321C69.6004 60.3321 69.5436 60.4833 69.5247 60.559C69.3168 61.1829 69.071 61.7879 68.9008 62.4308L68.3336 64.5861L67.6908 62.6387L67.4639 61.9959L67.1046 60.8993L66.5752 60.9938L65.1761 65.1534L65.1572 65.1344Z" fill="#CE0E2D"/>
<path d="M71.718 66.3255L75.5939 65.6071L75.6318 64.3592L73.0982 64.8319L73.136 63.3571L75.4427 62.9223C75.4427 62.5252 75.4427 62.1282 75.4805 61.7122L73.1739 62.1471L73.2117 60.8425L75.6885 60.3888L75.7263 59.1787L71.926 59.8783C71.8504 62.0337 71.8126 64.1891 71.7558 66.3444L71.718 66.3255Z" fill="#CE0E2D"/>
<path d="M80.7554 61.9391L77.3143 58.8194L76.9551 58.8951L76.7849 65.3801L78.1084 65.1343L78.2029 61.3719L81.7007 64.4915L82.041 64.4159L82.1923 57.9497L80.8688 58.1955L80.7554 61.9391Z" fill="#CE0E2D"/>
<path d="M85.9548 57.2501L83.6482 57.685L83.478 64.1323L85.7847 63.6974C88.3182 63.2247 89.2068 61.1072 88.8854 59.2732C88.6396 57.9497 87.6565 56.9287 85.9548 57.2312V57.2501ZM85.8036 62.4685L84.8393 62.6575L84.9339 58.706L85.9548 58.5169C87.0514 58.3089 87.4107 58.9518 87.5619 59.7648C87.7699 60.9181 87.1271 62.2416 85.8036 62.4874V62.4685Z" fill="#CE0E2D"/>
<path d="M92.3645 57.3825L91.7216 58.7816H91.6649L91.1166 57.6472L90.3792 56.4183L88.999 56.6829V56.8909L91.041 60.1618L90.9843 62.7521L92.3077 62.4874L92.3645 59.9728L94.5955 55.851L94.6144 55.6431L93.1396 55.9078L92.3645 57.3825Z" fill="#CE0E2D"/>
<path d="M94.7278 59.5382L97.8285 58.971L97.8663 57.8555L94.7656 58.4227L94.7278 59.5382Z" fill="#CE0E2D"/>
<path d="M101.988 55.4162C102.782 55.2649 103.311 55.3594 103.576 56.1724L104.824 55.9456C104.559 54.3952 103.349 53.9225 102.007 54.1683C100.324 54.4897 98.8116 55.851 98.7549 58.082C98.7171 60.2185 100.173 61.1072 101.837 60.8046C103.255 60.5399 104.465 59.6135 104.786 57.8552L103.425 58.101C103.179 58.9329 102.631 59.4055 101.856 59.5568C100.664 59.7837 100.078 58.9518 100.116 57.8741C100.135 56.7018 100.816 55.643 102.007 55.4162H101.988Z" fill="#CE0E2D"/>
<path d="M107.906 53.1095L104.881 59.9728V60.1618L106.318 59.8971L106.828 58.7438L109.419 58.2522L109.834 59.2354L111.177 58.9896V58.8005L108.511 52.9961L107.906 53.1095ZM107.282 57.4959L108.171 55.1893L108.965 57.1934L107.282 57.5149V57.4959Z" fill="#CE0E2D"/>
<path d="M111.952 53.8091L111.82 58.8762L115.752 58.1388C115.752 57.685 115.752 57.3447 115.771 56.9098L113.181 57.4014L113.257 54.5654V53.9225L113.313 52.1831L111.99 52.4289V53.1852L111.952 53.828V53.8091Z" fill="#CE0E2D"/>
<path d="M97.8852 104.007C97.6205 104.064 97.4503 104.253 97.4882 104.536C97.5449 104.82 97.7718 104.933 98.0365 104.896C98.3011 104.839 98.4713 104.65 98.4146 104.366C98.3579 104.083 98.131 103.969 97.8663 104.007H97.8852Z" fill="#666667"/>
<path d="M96.3159 102.438L97.0343 102.306C96.9776 101.909 97.1667 101.72 97.4314 101.663C97.6961 101.606 97.9041 101.72 97.9608 101.965C98.0175 102.249 97.8284 102.457 97.6583 102.74C97.4692 103.043 97.3558 103.402 97.4314 103.837L98.1877 103.705C98.1309 103.421 98.2066 103.175 98.3389 102.967C98.5469 102.608 98.8305 102.306 98.736 101.776C98.6225 101.19 98.0742 100.793 97.299 100.925C96.6184 101.058 96.1457 101.568 96.3159 102.438Z" fill="#666667"/>
<path d="M101.024 102.759C101.383 101.946 101.515 101.133 101.232 100.547C101.099 100.282 100.873 100.037 100.494 99.8853C100.06 99.7151 99.4356 99.6584 98.4903 99.8853C98.3201 99.9231 98.2067 100.112 98.2445 100.282C98.2823 100.452 98.4525 100.547 98.6415 100.528C99.3978 100.339 100.343 100.226 100.627 100.831C101.062 101.738 99.9461 103.894 98.4336 105.028C97.8285 105.482 96.713 106.106 95.8244 105.312C95.2383 104.782 94.9547 104.196 95.0114 103.515C95.1059 101.927 96.8265 100.301 97.7718 99.526C98.1311 99.2424 98.3768 99.0534 98.3768 99.0534C98.5281 98.9399 98.5659 98.7508 98.4525 98.5996C98.339 98.4483 98.1311 98.4105 97.9987 98.524C97.942 98.5618 97.2613 99.0534 96.524 99.7718C95.6353 100.623 94.6711 101.833 94.4253 103.099C94.4064 103.232 94.3497 103.364 94.3497 103.496C94.3119 104.102 94.482 104.65 94.8223 105.16C94.9736 105.387 95.1627 105.614 95.3895 105.822C95.7866 106.181 96.2593 106.351 96.7698 106.37C96.7698 106.37 96.7887 106.37 96.8076 106.37C97.129 106.37 97.4504 106.295 97.7907 106.162C98.1311 106.03 98.4714 105.841 98.8306 105.576C99.7381 104.896 100.57 103.837 101.005 102.778L101.024 102.759Z" fill="#CE0E2D"/>
<path d="M74.7053 56.286C74.7999 56.3049 74.9133 56.3238 75.0078 56.3238C75.4994 56.3049 75.9343 55.9457 76.2179 55.3974C76.3502 55.1516 76.4448 54.868 76.5204 54.5655C76.596 54.2062 76.6338 53.8281 76.6149 53.4121C76.5393 51.8429 75.7074 50.6139 74.7432 50.6517C73.7789 50.6895 73.0604 51.9941 73.1172 53.5634C73.155 54.6033 73.552 55.5108 74.1003 55.9646C74.2705 56.1158 74.4785 56.2293 74.6675 56.286H74.7053Z" fill="#211E1F"/>
<path d="M44.8889 46.7192C43.9436 46.8137 43.3007 48.1561 43.452 49.7065C43.6032 51.2569 44.5297 52.4291 45.475 52.3346C46.4204 52.24 47.0632 50.8976 46.912 49.3473C46.7418 47.7969 45.8343 46.6247 44.8889 46.7192Z" fill="#211E1F"/>
<path d="M28.0997 50.6139C27.9295 49.0635 27.022 47.8913 26.0767 47.9858C25.1313 48.0803 24.4885 49.4227 24.6397 50.9731C24.8099 52.5235 25.7174 53.6957 26.6628 53.6012C27.6081 53.5066 28.251 52.1642 28.0997 50.6139Z" fill="#211E1F"/>
<path d="M28.61 46.0005C27.589 45.698 25.7551 45.906 24.2047 46.927C23.2593 47.5509 22.0682 48.7231 21.8602 50.7651C21.8413 50.9919 21.9926 51.181 22.2195 51.1999H22.2573C22.4653 51.1999 22.6354 51.0487 22.6543 50.8407C22.8434 49.1202 23.8455 48.1181 24.6396 47.5887C25.9063 46.7568 27.5323 46.511 28.3642 46.7757C28.5722 46.8324 28.7991 46.719 28.8747 46.511C28.9314 46.303 28.818 46.0761 28.61 46.0194V46.0005Z" fill="#211E1F"/>
<path d="M46.3449 45.4903C47.5927 46.3789 48.3868 47.7969 48.4435 48.6666C48.4435 48.8746 48.6326 49.0448 48.8406 49.0448C48.8406 49.0448 48.8406 49.0448 48.8595 49.0448C49.0864 49.0448 49.2376 48.8368 49.2376 48.6099C49.162 47.5511 48.3112 45.9062 46.7986 44.8285C45.8722 44.1668 44.3596 43.4861 42.3744 44.0155C42.1664 44.0723 42.0341 44.2991 42.0908 44.5071C42.1475 44.7151 42.3744 44.8474 42.5824 44.7907C44.2651 44.337 45.5508 44.9231 46.326 45.4903H46.3449Z" fill="#211E1F"/>
<path d="M39.0467 54.4898C36.2485 55.4352 35.322 57.5149 35.322 57.5149C35.322 57.5149 37.3073 57.4393 39.595 57.099C41.8827 56.7587 42.5067 55.2083 42.5067 55.2083C42.5067 55.2083 41.9773 53.4878 39.0467 54.4709V54.4898Z" fill="#211E1F"/>
</g>
<defs>
<clipPath id="clip0_336_101">
<rect width="128" height="128" fill="white"/>
</clipPath>
</defs>
</svg>
