<svg width="128" height="128" viewBox="0 0 128 128" fill="none" xmlns="http://www.w3.org/2000/svg">
<g clip-path="url(#clip0_159_305)">
<path d="M21.5618 0.117188H20.5342V36.2186H21.5618V0.117188Z" fill="#D0D2D3"/>
<path d="M70.2019 0H69.1743V36.2186H70.2019V0Z" fill="#D0D2D3"/>
<path d="M73.1314 27.3667H17.9111C15.4866 27.3667 13.5212 29.3321 13.5212 31.7566V45.1875C13.5212 47.612 15.4866 49.5774 17.9111 49.5774H73.1314C75.5558 49.5774 77.5212 47.612 77.5212 45.1875V31.7566C77.5212 29.3321 75.5558 27.3667 73.1314 27.3667Z" fill="#53A4E0"/>
<path d="M31.1619 42.3752V34.7583H34.5151C36.336 34.7583 37.2734 36.1825 37.2283 37.6248C37.2283 39.022 36.3089 40.4101 34.5151 40.4101H33.154V42.3932H31.1709L31.1619 42.3752ZM34.5151 38.6614C35.0379 38.6614 35.3444 38.1025 35.3444 37.5527C35.3444 37.0028 35.065 36.471 34.5151 36.471H33.1179V38.6614H34.5151Z" fill="white"/>
<path d="M41.6992 40.7795V42.384H37.7871V40.7795H38.7516V36.3716H37.8773V34.7671H41.6091V36.3716H40.7347V40.7795H41.6992Z" fill="white"/>
<path d="M46.2422 34.6411C47.8017 34.6411 49.5144 35.4884 49.8118 37.5256H47.9008C47.6304 36.7414 47.0535 36.4349 46.2422 36.4349C45.0975 36.4349 44.3493 37.3093 44.3493 38.5713C44.3493 39.671 45.0884 40.6806 46.2422 40.6806C47.0715 40.6806 47.7206 40.302 47.9189 39.4727H49.8299C49.5414 41.636 47.8558 42.5014 46.2422 42.5014C44.3042 42.5014 42.3572 41.1493 42.3572 38.5803C42.3572 35.9572 44.2952 34.6411 46.2422 34.6411Z" fill="white"/>
<path d="M53.8322 39.4457C53.5167 39.4727 53.2012 39.4818 52.8857 39.4818V42.3933H50.9026V34.7674H52.8857V37.7511C53.2012 37.7511 53.724 37.7691 53.9944 37.6339C54.337 37.4626 54.4632 37.0029 54.6795 36.0925C54.8958 35.182 55.644 34.4158 57.4198 34.7854V36.1375C56.942 36.1015 56.6175 36.2187 56.5003 36.6784C56.257 37.5888 55.9865 38.2378 55.5719 38.7066C56.293 39.8423 57.0051 40.9781 57.7353 42.1139V42.4113H55.4908L53.8322 39.4547V39.4457Z" fill="white"/>
<path d="M58.4023 39.8691V34.7671H60.3854V39.842C60.3854 40.473 60.9353 40.7434 61.5032 40.7434C62.0711 40.7434 62.5939 40.473 62.5939 39.842V34.7671H64.568V39.8691C64.568 41.5817 63.0897 42.4831 61.5032 42.4831C59.9167 42.4831 58.4023 41.5727 58.4023 39.8691Z" fill="white"/>
<path d="M66.0645 42.3752V34.7583H69.4177C71.2385 34.7583 72.176 36.1825 72.1309 37.6248C72.1309 39.022 71.2115 40.4101 69.4177 40.4101H68.0566V42.3932H66.0735L66.0645 42.3752ZM69.4177 38.6614C69.9405 38.6614 70.247 38.1025 70.247 37.5527C70.247 37.0028 69.9675 36.471 69.4177 36.471H68.0205V38.6614H69.4177Z" fill="white"/>
<path d="M19.1371 47.0623H26.9613C27.6284 47.0623 28.1692 46.5215 28.1692 45.8545V31.0443C28.1692 30.3773 27.6284 29.8364 26.9613 29.8364H19.1371C18.47 29.8364 17.9292 30.3773 17.9292 31.0443V45.8545C17.9292 46.5215 18.47 47.0623 19.1371 47.0623Z" fill="white"/>
<path d="M26.9702 47.216H19.137C18.3888 47.216 17.7759 46.603 17.7759 45.8458V31.0357C17.7759 30.2785 18.3888 29.6655 19.137 29.6655H26.9612C27.7094 29.6655 28.3224 30.2785 28.3224 31.0357V45.8458C28.3224 46.603 27.7094 47.216 26.9612 47.216H26.9702ZM19.146 29.981C18.5691 29.981 18.1004 30.4498 18.1004 31.0357V45.8458C18.1004 46.4227 18.5691 46.9005 19.146 46.9005H26.9702C27.5471 46.9005 28.0159 46.4317 28.0159 45.8458V31.0357C28.0159 30.4588 27.5471 29.981 26.9702 29.981H19.137H19.146Z" fill="white"/>
<path d="M27.2678 31.6396H18.8396V44.638H27.2678V31.6396Z" fill="#53A4E0"/>
<path d="M22.3911 45.8458C22.3911 46.1162 22.5534 46.3596 22.8058 46.4677C23.0582 46.5759 23.3466 46.5128 23.5359 46.3235C23.7252 46.1342 23.7883 45.8458 23.6801 45.5934C23.581 45.341 23.3376 45.1787 23.0672 45.1787C22.6976 45.1787 22.4001 45.4762 22.4001 45.8458" fill="#53A4E0"/>
<path d="M23.9596 30.9454H22.1478C22.0306 30.9454 21.9404 30.8553 21.9404 30.7381C21.9404 30.6209 22.0306 30.5308 22.1478 30.5308H23.9506C24.0678 30.5308 24.1579 30.6209 24.1579 30.7381C24.1579 30.8553 24.0678 30.9454 23.9506 30.9454H23.9596Z" fill="#53A4E0"/>
<path d="M25.1134 38.6433C25.3928 37.4444 25.5911 36.7594 25.7353 36.2906C25.8165 36.0563 25.8886 35.8309 25.9787 35.5965C26.0328 35.4704 26.0689 35.3442 26.0689 35.2089C26.0508 34.9656 25.8886 34.7132 25.6001 34.7943C25.3117 34.8754 25.1044 35.263 24.861 36.1464C24.6537 36.8856 24.5365 37.3633 24.3652 38.1565C24.2931 38.5261 24.221 38.8957 24.1489 39.2563C24.1489 39.3103 24.1308 39.3644 24.1128 39.4185C24.0858 39.5357 24.0768 39.5627 24.0407 39.5718C24.0046 39.5808 23.9956 39.5718 23.9866 39.5177C23.9506 39.3284 23.9325 39.1301 23.9235 38.9318C23.9055 38.3098 23.8514 37.6608 23.8784 36.8405C23.9055 36.6242 23.8965 36.3988 23.8604 36.1734C23.8153 36.0473 23.7252 35.9481 23.599 35.885C23.4728 35.8219 23.3376 35.8219 23.2114 35.876C22.9049 35.9571 22.8148 36.3087 22.6435 36.7864C22.5263 37.1109 22.346 37.6878 22.1658 38.2467C21.9855 38.8056 21.8052 39.5357 21.8052 39.5357L21.7691 39.6799L21.7331 39.8242C21.688 39.9413 21.67 39.9684 21.6429 39.9774C21.6159 39.9864 21.5979 39.9594 21.5889 39.9233C21.5708 39.6619 21.5708 39.4005 21.5889 39.1391C21.5889 38.6433 21.652 38.0934 21.688 37.6067C21.7151 37.2551 21.8052 36.6422 21.8322 36.2906C21.8322 36.1825 21.8503 36.0743 21.8503 36.0022C21.8773 35.8489 21.8503 35.6867 21.7511 35.5605C21.5979 35.4433 21.3906 35.4163 21.2103 35.4794C20.8768 35.5605 20.6244 35.7768 20.6514 35.894C20.6604 35.912 20.6784 35.9391 20.6875 35.9571C20.7325 36.0112 20.7686 36.0833 20.7866 36.1554C20.8137 36.2906 20.8227 36.4349 20.8227 36.5701L20.8046 37.1109C20.7596 37.6608 20.6965 38.6433 20.6784 39.3194C20.6694 39.8422 20.6784 40.365 20.7235 40.8788C20.7415 41.0951 20.7776 41.3205 20.8407 41.5278C20.8948 41.7532 21.012 42.0056 21.2013 42.0596C21.3455 42.0957 21.4987 42.0957 21.6429 42.0506C21.8773 41.9785 22.0666 41.7982 22.1387 41.5549L22.3641 40.6534C22.4362 40.3289 22.5804 39.7611 22.7156 39.2653C22.7877 38.9768 22.8869 38.6433 22.941 38.472C22.968 38.3819 22.986 38.3639 23.0041 38.3549C23.0041 38.3549 23.0221 38.3549 23.0311 38.3549C23.0311 38.3549 23.0401 38.3639 23.0491 38.3729C23.0491 38.3909 23.0491 38.4089 23.0491 38.427C23.0491 38.445 23.0491 38.463 23.0491 38.4901V38.6794C23.0762 39.3734 23.1573 40.0675 23.2925 40.7526C23.3646 41.032 23.3827 41.3746 23.7973 41.4377C23.9145 41.4557 24.0317 41.4377 24.1489 41.4106C24.4553 41.3115 24.5365 41.1312 24.6176 40.8157C24.6627 40.6174 24.8069 40.0765 24.879 39.725C24.897 39.6168 24.9241 39.5177 24.9421 39.4185L25.1224 38.6343L25.1134 38.6433Z" fill="white"/>
<g opacity="0.3">
<path d="M76.079 128C97.2867 128 114.479 126.523 114.479 124.701C114.479 122.879 97.2867 121.402 76.079 121.402C54.8712 121.402 37.679 122.879 37.679 124.701C37.679 126.523 54.8712 128 76.079 128Z" fill="#4D4D4F"/>
</g>
<path d="M82.8576 122.24C82.1455 119.77 82.1455 117.138 82.8576 114.668L83.5697 114.911C82.9207 117.237 82.9207 119.698 83.5697 122.023L82.8576 122.24Z" fill="#231F20"/>
<path d="M82.7053 124.011C83.6737 123.705 84.3044 122.969 84.114 122.366C83.9235 121.763 82.9841 121.522 82.0157 121.828C81.0473 122.134 80.4166 122.871 80.607 123.473C80.7975 124.076 81.7369 124.317 82.7053 124.011Z" fill="#231F20"/>
<path d="M70.8777 121.753C70.0214 118.337 70.8417 114.407 70.8777 114.235L71.6079 114.398C71.6079 114.398 70.7876 118.328 71.6079 121.564L70.8777 121.753Z" fill="#231F20"/>
<path d="M70.7234 123.54C71.6918 123.235 72.3225 122.498 72.132 121.895C71.9416 121.292 71.0022 121.051 70.0337 121.357C69.0653 121.663 68.4346 122.4 68.6251 123.003C68.8155 123.606 69.755 123.846 70.7234 123.54Z" fill="#231F20"/>
<path d="M98.8846 67.7679L92.115 111.189C92.3404 111.414 92.4756 111.712 92.4936 112.027C92.5297 114.154 85.67 115.606 77.1697 115.263C68.6694 114.921 61.7466 112.919 61.7105 110.792C61.7105 110.522 61.8187 110.26 61.999 110.053L53.6429 65.947C53.6069 65.7217 53.5978 65.316 53.8683 65.3791C70.1838 69.4986 99.0288 66.7673 99.0288 66.7673L98.8936 67.7589" fill="#DD5553"/>
<g opacity="0.2">
<path d="M67.6147 114.127C67.0288 113.947 61.7465 112.92 61.7105 110.792C61.7105 110.522 61.8186 110.26 61.9989 110.053L53.6429 65.9472C53.6068 65.7219 53.6068 65.2982 53.8682 65.3793C56.7437 66.3258 60.7369 66.6233 60.7369 66.6233" fill="#A12036"/>
</g>
<path d="M54.2017 65.6585C53.2643 64.685 53.3183 60.845 57.2214 58.7988C68.8857 52.6873 70.5803 46.729 73.8795 44.178C76.3493 42.267 79.2609 42.258 80.613 42.4383C82.4158 42.6817 85.6158 44.16 85.2012 46.4315V46.4676C85.0569 47.6484 84.1826 47.4411 84.1465 47.0535C84.1285 46.9814 84.0924 46.9093 84.0654 46.8462C84.0474 46.8101 84.0203 46.774 83.9933 46.738C83.9752 46.7019 83.9482 46.6749 83.9212 46.6388C83.831 46.5217 83.7319 46.4135 83.6237 46.3143C83.5966 46.2963 83.5786 46.2693 83.5516 46.2512H83.5426C83.2541 46.0169 82.9026 45.8636 82.542 45.8095C82.1003 45.7825 81.6586 45.8997 81.289 46.1431C81.1989 46.2062 81.1088 46.2693 81.0186 46.3504C80.7752 46.6388 80.5589 47.2428 81.1719 48.4597V48.4867C81.235 48.5949 81.2981 48.694 81.3612 48.7932L81.4423 48.9194C82.1724 49.9831 83.3983 50.8304 84.2186 51.3171C84.48 51.4704 84.7595 51.6146 85.0299 51.7678H85.0479C85.0479 51.7678 98.524 56.9329 93.4671 60.3402C93.4671 60.3402 99.6688 62.2062 98.6051 66.9386C98.6051 66.9386 98.3617 67.1639 94.711 67.5695C88.5634 68.2636 85.5437 67.9121 80.3606 68.2095C73.1854 68.6242 66.3076 67.858 58.1499 67.0738C57.6721 67.0287 54.5082 65.938 54.2107 65.6405L54.2017 65.6585Z" fill="#B7A59C"/>
<path d="M80.5679 68.5701C79.1617 68.5701 77.7195 68.5611 76.2412 68.5341C67.6508 68.3808 54.4722 67.5065 53.4355 65.6856C53.3184 65.4873 53.3184 65.2349 53.4355 65.0366L54.0395 65.3882C54.0395 65.3882 54.0395 65.3521 54.0395 65.3341C54.4541 66.2265 63.1167 67.6056 76.2592 67.831C82.5601 67.9392 88.266 67.813 92.3043 67.4794C98.6953 66.9476 98.7944 66.0913 98.7944 66.0823L99.5065 66.1003C99.4975 66.551 99.4705 67.6056 92.3674 68.2006C89.2575 68.453 85.1741 68.5882 80.586 68.5882L80.5679 68.5701Z" fill="white"/>
<g opacity="0.4">
<path d="M86.1207 68.1194C99.4075 61.8636 80.7393 57.3926 77.6385 54.3278C74.5376 51.263 75.2047 45.3138 79.7928 44.0788C82.7675 43.2766 85.4898 46.2963 84.7686 47.3149C84.6785 47.4501 84.1737 47.4501 84.1376 47.0625C84.1196 46.9904 84.0836 46.9183 84.0565 46.8552C84.0385 46.8191 84.0114 46.783 83.9844 46.747C83.9664 46.7109 83.9393 46.6839 83.9123 46.6478C83.8221 46.5307 83.723 46.4225 83.6148 46.3233C83.5878 46.3053 83.5698 46.2783 83.5427 46.2602H83.5337C83.2452 46.0259 82.8937 45.8726 82.5331 45.8185C82.0914 45.7915 81.6498 45.9087 81.2802 46.1521C81.19 46.2152 81.0999 46.2783 81.0098 46.3594C80.7664 46.6478 80.55 47.2518 81.163 48.4687V48.4957C81.2261 48.6039 81.2892 48.703 81.3523 48.8022L81.4334 48.9284C82.1636 49.9921 83.3895 50.8394 84.2098 51.3261C84.4712 51.4794 84.7506 51.6236 85.021 51.7768H85.039C85.039 51.7768 98.5151 56.9419 93.4582 60.3492C93.4582 60.3492 99.6599 62.2152 98.5962 66.9475C98.5962 66.9475 98.3438 67.0918 94.7021 67.5785C93.8819 67.6867 96.2706 67.5785 91.0785 67.867C83.9033 68.2816 86.1117 68.1014 86.1117 68.1014L86.1207 68.1194Z" fill="white"/>
</g>
<path d="M72.9331 81.7038C73.2035 83.3173 74.8261 84.39 76.5568 84.0835C78.2785 83.777 79.4593 82.2356 79.1889 80.6221L72.9421 81.7038H72.9331Z" fill="#231F20"/>
<path d="M75.9799 84.4978C74.3123 84.4978 72.852 83.3801 72.5725 81.7576C72.5545 81.6584 72.5725 81.5592 72.6356 81.4781C72.6897 81.397 72.7799 81.3429 72.879 81.3249L79.1348 80.2432C79.3331 80.2161 79.5224 80.3514 79.5585 80.5497C79.8649 82.3615 78.5489 84.1102 76.6289 84.4347C76.4125 84.4708 76.2052 84.4888 75.9889 84.4888L75.9799 84.4978ZM73.3928 82.0009C73.7985 83.1998 75.1055 83.948 76.4937 83.7046C77.8818 83.4612 78.8734 82.3164 78.8554 81.0454L73.3928 81.9919V82.0009Z" fill="#231F20"/>
<path d="M82.2716 78.0957C82.8904 78.0298 83.3044 77.1537 83.1963 76.1388C83.0882 75.124 82.499 74.3548 81.8802 74.4207C81.2614 74.4866 80.8474 75.3627 80.9555 76.3775C81.0636 77.3923 81.6528 78.1616 82.2716 78.0957Z" fill="#231F20"/>
<path d="M70.0717 78.9414C70.6905 78.8755 71.1045 77.9994 70.9964 76.9846C70.8883 75.9697 70.299 75.2005 69.6802 75.2664C69.0614 75.3323 68.6474 76.2084 68.7555 77.2232C68.8636 78.2381 69.4529 79.0073 70.0717 78.9414Z" fill="#231F20"/>
<path d="M94.7201 88.5542C96.1353 88.5542 97.5685 88.3919 98.8756 87.7519C101.012 86.7153 102.418 84.5789 103.536 82.8663C103.86 82.3795 104.527 81.3609 104.131 80.3964C104.086 80.2612 103.969 80.1621 103.833 80.144C103.698 80.126 103.554 80.1801 103.473 80.2973C103.392 80.4144 103.383 80.5677 103.446 80.6939C103.671 81.2167 103.32 81.8477 102.923 82.4516C101.787 84.1733 100.507 86.1294 98.5601 87.0759C96.9826 87.842 95.1618 87.8601 93.4311 87.7699C93.2327 87.7699 93.0705 87.9232 93.0525 88.1305C93.0344 88.3378 93.1877 88.5091 93.386 88.5271C93.8277 88.5542 94.2784 88.5632 94.7201 88.5632V88.5542Z" fill="#231F20"/>
<path d="M106.411 80.6129C109.453 80.6129 111.919 80.2093 111.919 79.7115C111.919 79.2136 109.453 78.8101 106.411 78.8101C103.37 78.8101 100.904 79.2136 100.904 79.7115C100.904 80.2093 103.37 80.6129 106.411 80.6129Z" fill="#CBCBCB"/>
<path d="M106.853 79.9369L105.943 79.6755L107.782 73.0771L108.692 73.3295L106.853 79.9369Z" fill="#E5E5E5"/>
<path d="M105.798 79.7565L107.7 72.9419L108.827 73.2574L106.925 80.072L105.798 79.7565ZM107.854 73.2123L106.078 79.5943L106.772 79.7926L108.548 73.4106L107.854 73.2123Z" fill="#CFD1D2"/>
<path d="M101.111 80.1262L102.743 93.3138C102.688 93.3859 102.652 93.476 102.652 93.5662C102.652 94.2152 104.302 94.6569 106.348 94.5487C108.394 94.4405 110.062 93.8366 110.08 93.1876C110.08 93.1064 110.053 93.0343 110.008 92.9622L112.018 79.5763C112.018 79.5132 111.964 79.7025 111.901 79.7205C105.239 81.0997 101.075 79.8287 101.075 79.8287L101.102 80.1262" fill="#DD5553"/>
<path d="M112.099 79.4683L111.928 79.4953C111.928 79.4953 111.82 79.7207 110.314 79.955C109.08 80.1263 107.845 80.2254 106.601 80.2435C105.348 80.2795 104.086 80.2435 102.833 80.1173C101.282 79.946 101.174 79.7207 101.174 79.7026H101.003C101.003 79.8198 101.003 80.1083 102.725 80.3066C104.014 80.4418 105.312 80.4869 106.61 80.4508C107.827 80.4328 109.043 80.3426 110.26 80.1804C111.306 80.0271 111.91 79.8468 112.054 79.6305C112.081 79.5854 112.099 79.5314 112.099 79.4773V79.4683Z" fill="white"/>
<path d="M57.9426 85.3181C56.7166 85.3181 55.4907 85.1739 54.355 84.624C52.5161 83.7316 51.3082 81.8927 50.3347 80.4144C50.0552 79.9908 49.4783 79.1074 49.8209 78.2871C49.893 78.1248 50.0823 78.0437 50.2445 78.1158C50.3257 78.1519 50.3888 78.215 50.4158 78.2961C50.4519 78.3772 50.4519 78.4674 50.4158 78.5485C50.2265 78.9992 50.524 79.5401 50.8665 80.0719C51.84 81.5592 52.9488 83.2358 54.6344 84.0561C55.9955 84.7232 57.564 84.7232 59.0603 84.651C59.2226 84.6601 59.3488 84.7953 59.3578 84.9575C59.3578 85.1198 59.2586 85.264 59.0964 85.3001C58.7088 85.3271 58.3212 85.3361 57.9335 85.3361L57.9426 85.3181Z" fill="#231F20"/>
<path d="M54.7067 100.633L52.2638 98.7133L54.923 100.101L52.2368 81.3792V81.2891C52.2368 81.2891 53.6069 80.7212 53.1472 79.4502C52.6875 78.1792 51.7771 78.6209 51.083 78.7381C50.3889 78.8553 41.2306 80.7031 41.2306 80.7031C39.2024 81.6316 39.4548 83.9662 39.2385 85.1291C39.0131 86.2919 37.1472 100.814 37.1472 100.814L49.6137 101.598L52.1557 81.9741L50.3619 101.526L54.6976 100.633H54.7067Z" fill="white"/>
<path d="M46.5488 91.7725C46.9184 90.2041 47.1708 89.3117 47.3601 88.7077C47.4592 88.4103 47.5584 88.1128 47.6666 87.8153C47.7387 87.6531 47.7837 87.4818 47.7837 87.3015C47.7657 86.986 47.5584 86.6705 47.1798 86.7517C46.8012 86.8328 46.5488 87.3646 46.2333 88.5094C45.9719 89.4739 45.8187 90.0959 45.6023 91.1325L45.3229 92.5567C45.3139 92.6289 45.2959 92.701 45.2778 92.7821C45.2508 92.9263 45.2328 92.9714 45.1787 92.9804C45.1246 92.9894 45.1246 92.9714 45.1066 92.9083C45.0615 92.6559 45.0344 92.4035 45.0254 92.1421C44.9984 91.3308 44.9353 90.4835 44.9623 89.4198C44.9804 88.8069 44.9804 88.7077 44.9353 88.5545C44.8632 88.257 44.4936 88.0767 44.106 88.1759C43.7184 88.2751 43.5922 88.7348 43.3668 89.3658C43.2136 89.7894 42.9792 90.5376 42.7449 91.2677C42.5105 91.9979 42.2761 92.9353 42.2761 92.9353C42.2581 92.9984 42.2491 93.0615 42.2311 93.1246L42.186 93.3139C42.1319 93.4672 42.1139 93.5032 42.0688 93.5122C42.0328 93.5213 42.0057 93.4942 41.9967 93.4401C41.9787 93.0976 41.9697 92.7551 41.9877 92.4215C41.9967 91.7725 42.0598 91.0604 42.1229 90.4294C42.159 89.9787 42.2671 89.1765 42.3032 88.7167C42.3122 88.5815 42.3212 88.4373 42.3302 88.3382C42.3302 88.0497 42.3212 87.9055 42.195 87.7613C41.9967 87.608 41.7263 87.572 41.4919 87.6621C41.0502 87.7613 40.7257 88.0407 40.7618 88.1939C40.7798 88.221 40.7888 88.248 40.8159 88.2751C40.8699 88.3472 40.915 88.4373 40.9421 88.5275C40.9781 88.7077 40.9961 88.888 40.9871 89.0773C40.9871 89.3027 40.9691 89.546 40.9601 89.7804C40.906 90.4925 40.8249 91.7725 40.7978 92.6559C40.7798 93.332 40.7978 94.017 40.8609 94.6931C40.888 94.9815 40.933 95.261 41.0051 95.5404C41.0773 95.8379 41.2305 96.1624 41.4739 96.2345C41.6632 96.2796 41.8615 96.2796 42.0418 96.2165C42.3482 96.1353 42.6006 95.892 42.6908 95.5765C42.7899 95.1889 42.8801 94.7922 42.9792 94.4046C43.0784 94.017 43.2587 93.2418 43.4209 92.6018C43.5201 92.2232 43.6463 91.7906 43.7094 91.5652C43.7454 91.457 43.7725 91.421 43.7905 91.412C43.7995 91.412 43.8085 91.412 43.8175 91.412C43.8266 91.412 43.8356 91.43 43.8356 91.439C43.8356 91.466 43.8356 91.4841 43.8356 91.5111V91.8266C43.8626 92.737 43.9618 93.6384 44.133 94.5218C44.2232 94.8824 44.2502 95.3331 44.8001 95.4142C44.9533 95.4322 45.1066 95.4232 45.2598 95.3782C45.6564 95.252 45.7646 95.0176 45.8547 94.612C45.9088 94.3506 46.0981 93.6475 46.1882 93.1967L46.2784 92.7911L46.5308 91.7455L46.5488 91.7725Z" fill="#D9484A"/>
<path d="M52.4892 81.3789L49.6047 101.886L55.0492 100.579L52.5163 98.722L55.0492 100.579L52.4892 81.3789Z" fill="#CFD1D2"/>
<path d="M49.6045 101.886L36.9578 101.039L36.9848 100.786C37.0569 100.191 38.8327 86.2375 39.058 85.0837C39.1031 84.8584 39.1302 84.588 39.1572 84.2995C39.2744 83.0285 39.4457 81.2888 41.1944 80.4956C41.618 80.4054 50.4158 78.6206 51.1099 78.5125C51.209 78.4944 51.3082 78.4764 51.4164 78.4494C52.0383 78.3142 52.9668 78.0978 53.4265 79.3778C53.8141 80.4685 53.0569 81.1897 52.5161 81.4601L49.6045 101.886ZM37.4896 100.597L49.4873 101.345L52.0654 81.2978V81.1987L52.2096 81.0725C52.2547 81.0544 53.3634 80.5767 52.9848 79.5311C52.6603 78.6387 52.1555 78.7558 51.5155 78.9001C51.3983 78.9271 51.2902 78.9542 51.182 78.9722C50.5059 79.0894 41.4378 80.9192 41.3386 80.9373C39.8873 81.6043 39.7431 83.1277 39.6259 84.3446C39.5989 84.6511 39.5718 84.9305 39.5178 85.1739C39.3014 86.2285 37.724 98.6589 37.4716 100.588L37.4896 100.597Z" fill="#CFD1D2"/>
<path d="M50.5533 79.5265C50.9069 78.7194 50.7944 77.8902 50.3019 77.6745C49.8094 77.4587 49.1235 77.9381 48.7699 78.7452C48.4163 79.5523 48.5289 80.3815 49.0213 80.5972C49.5138 80.813 50.1997 80.3336 50.5533 79.5265Z" fill="#231F20"/>
</g>
<defs>
<clipPath id="clip0_159_305">
<rect width="100.958" height="128" fill="white" transform="translate(13.5212)"/>
</clipPath>
</defs>
</svg>
