<svg width="128" height="128" viewBox="0 0 128 128" fill="none" xmlns="http://www.w3.org/2000/svg">
<g clip-path="url(#clip0_1264_185)">
<path d="M58.4404 0.117188H57.4128V36.2186H58.4404V0.117188Z" fill="#D0D2D3"/>
<path d="M107.08 0H106.053V36.2186H107.08V0Z" fill="#D0D2D3"/>
<path d="M110.01 27.3667H54.7898C52.3653 27.3667 50.3999 29.3321 50.3999 31.7566V45.1875C50.3999 47.612 52.3653 49.5774 54.7898 49.5774H110.01C112.434 49.5774 114.4 47.612 114.4 45.1875V31.7566C114.4 29.3321 112.434 27.3667 110.01 27.3667Z" fill="#53A4E0"/>
<path d="M68.0405 42.3752V34.7583H71.3938C73.2146 34.7583 74.1521 36.1825 74.107 37.6248C74.107 39.022 73.1876 40.4101 71.3938 40.4101H70.0326V42.3932H68.0495L68.0405 42.3752ZM71.3938 38.6614C71.9166 38.6614 72.2231 38.1025 72.2231 37.5527C72.2231 37.0028 71.9436 36.471 71.3938 36.471H69.9966V38.6614H71.3938Z" fill="white"/>
<path d="M78.578 40.7795V42.384H74.6659V40.7795H75.6304V36.3716H74.756V34.7671H78.4879V36.3716H77.6135V40.7795H78.578Z" fill="white"/>
<path d="M83.121 34.6411C84.6805 34.6411 86.3931 35.4884 86.6906 37.5256H84.7796C84.5092 36.7414 83.9323 36.4349 83.121 36.4349C81.9762 36.4349 81.2281 37.3093 81.2281 38.5713C81.2281 39.671 81.9672 40.6806 83.121 40.6806C83.9503 40.6806 84.5993 40.302 84.7977 39.4727H86.7086C86.4202 41.636 84.7346 42.5014 83.121 42.5014C81.183 42.5014 79.236 41.1493 79.236 38.5803C79.236 35.9572 81.174 34.6411 83.121 34.6411Z" fill="white"/>
<path d="M90.7108 39.4457C90.3953 39.4727 90.0798 39.4818 89.7643 39.4818V42.3933H87.7812V34.7674H89.7643V37.7511C90.0798 37.7511 90.6027 37.7691 90.8731 37.6339C91.2156 37.4626 91.3418 37.0029 91.5582 36.0925C91.7745 35.182 92.5227 34.4158 94.2984 34.7854V36.1375C93.8207 36.1015 93.4962 36.2187 93.379 36.6784C93.1356 37.5888 92.8652 38.2378 92.4505 38.7066C93.1717 39.8423 93.8838 40.9781 94.6139 42.1139V42.4113H92.3694L90.7108 39.4547V39.4457Z" fill="white"/>
<path d="M95.281 39.8691V34.7671H97.2641V39.842C97.2641 40.473 97.814 40.7434 98.3818 40.7434C98.9497 40.7434 99.4726 40.473 99.4726 39.842V34.7671H101.447V39.8691C101.447 41.5817 99.9683 42.4831 98.3818 42.4831C96.7954 42.4831 95.281 41.5727 95.281 39.8691Z" fill="white"/>
<path d="M102.943 42.3752V34.7583H106.296C108.117 34.7583 109.055 36.1825 109.009 37.6248C109.009 39.022 108.09 40.4101 106.296 40.4101H104.935V42.3932H102.952L102.943 42.3752ZM106.296 38.6614C106.819 38.6614 107.126 38.1025 107.126 37.5527C107.126 37.0028 106.846 36.471 106.296 36.471H104.899V38.6614H106.296Z" fill="white"/>
<path d="M56.0157 47.0628H63.84C64.507 47.0628 65.0479 46.522 65.0479 45.8549V31.0448C65.0479 30.3778 64.507 29.8369 63.84 29.8369H56.0157C55.3487 29.8369 54.8079 30.3778 54.8079 31.0448V45.8549C54.8079 46.522 55.3487 47.0628 56.0157 47.0628Z" fill="white"/>
<path d="M63.8489 47.2155H56.0157C55.2675 47.2155 54.6545 46.6025 54.6545 45.8453V31.0352C54.6545 30.278 55.2675 29.665 56.0157 29.665H63.8399C64.5881 29.665 65.201 30.278 65.201 31.0352V45.8453C65.201 46.6025 64.5881 47.2155 63.8399 47.2155H63.8489ZM56.0247 29.9805C55.4478 29.9805 54.979 30.4493 54.979 31.0352V45.8453C54.979 46.4222 55.4478 46.9 56.0247 46.9H63.8489C64.4258 46.9 64.8945 46.4312 64.8945 45.8453V31.0352C64.8945 30.4583 64.4258 29.9805 63.8489 29.9805H56.0157H56.0247Z" fill="white"/>
<path d="M64.1464 31.6396H55.7183V44.638H64.1464V31.6396Z" fill="#53A4E0"/>
<path d="M59.2698 45.8458C59.2698 46.1162 59.432 46.3596 59.6844 46.4677C59.9368 46.5759 60.2253 46.5128 60.4146 46.3235C60.6039 46.1342 60.667 45.8458 60.5588 45.5934C60.4596 45.341 60.2163 45.1787 59.9458 45.1787C59.5763 45.1787 59.2788 45.4762 59.2788 45.8458" fill="#53A4E0"/>
<path d="M60.8382 30.9454H59.0264C58.9092 30.9454 58.8191 30.8553 58.8191 30.7381C58.8191 30.6209 58.9092 30.5308 59.0264 30.5308H60.8292C60.9464 30.5308 61.0366 30.6209 61.0366 30.7381C61.0366 30.8553 60.9464 30.9454 60.8292 30.9454H60.8382Z" fill="#53A4E0"/>
<path d="M61.992 38.6433C62.2715 37.4444 62.4698 36.7594 62.614 36.2906C62.6951 36.0563 62.7672 35.8309 62.8574 35.5965C62.9115 35.4704 62.9475 35.3442 62.9475 35.2089C62.9295 34.9656 62.7672 34.7132 62.4788 34.7943C62.1903 34.8754 61.983 35.263 61.7396 36.1464C61.5323 36.8856 61.4151 37.3633 61.2439 38.1565C61.1718 38.5261 61.0996 38.8957 61.0275 39.2563C61.0275 39.3103 61.0095 39.3644 60.9915 39.4185C60.9644 39.5357 60.9554 39.5627 60.9194 39.5718C60.8833 39.5808 60.8743 39.5718 60.8653 39.5177C60.8292 39.3284 60.8112 39.1301 60.8022 38.9318C60.7841 38.3098 60.7301 37.6608 60.7571 36.8405C60.7841 36.6242 60.7751 36.3988 60.7391 36.1734C60.694 36.0473 60.6039 35.9481 60.4777 35.885C60.3515 35.8219 60.2163 35.8219 60.0901 35.876C59.7836 35.9571 59.6934 36.3087 59.5222 36.7864C59.405 37.1109 59.2247 37.6878 59.0444 38.2467C58.8641 38.8056 58.6839 39.5357 58.6839 39.5357L58.6478 39.6799L58.6118 39.8242C58.5667 39.9413 58.5487 39.9684 58.5216 39.9774C58.4946 39.9864 58.4765 39.9594 58.4675 39.9233C58.4495 39.6619 58.4495 39.4005 58.4675 39.1391C58.4675 38.6433 58.5306 38.0934 58.5667 37.6067C58.5937 37.2551 58.6839 36.6422 58.7109 36.2906C58.7109 36.1825 58.7289 36.0743 58.7289 36.0022C58.756 35.8489 58.7289 35.6867 58.6298 35.5605C58.4765 35.4433 58.2692 35.4163 58.0889 35.4794C57.7554 35.5605 57.503 35.7768 57.5301 35.894C57.5391 35.912 57.5571 35.9391 57.5661 35.9571C57.6112 36.0112 57.6472 36.0833 57.6653 36.1554C57.6923 36.2906 57.7013 36.4349 57.7013 36.5701L57.6833 37.1109C57.6382 37.6608 57.5751 38.6433 57.5571 39.3194C57.5481 39.8422 57.5571 40.365 57.6022 40.8788C57.6202 41.0951 57.6563 41.3205 57.7194 41.5278C57.7734 41.7532 57.8906 42.0056 58.0799 42.0596C58.2241 42.0957 58.3774 42.0957 58.5216 42.0506C58.756 41.9785 58.9453 41.7982 59.0174 41.5549L59.2427 40.6534C59.3149 40.3289 59.4591 39.7611 59.5943 39.2653C59.6664 38.9768 59.7656 38.6433 59.8196 38.472C59.8467 38.3819 59.8647 38.3639 59.8827 38.3549C59.8827 38.3549 59.9008 38.3549 59.9098 38.3549C59.9098 38.3549 59.9188 38.3639 59.9278 38.3729C59.9278 38.3909 59.9278 38.4089 59.9278 38.427C59.9278 38.445 59.9278 38.463 59.9278 38.4901V38.6794C59.9549 39.3734 60.036 40.0675 60.1712 40.7526C60.2433 41.032 60.2613 41.3746 60.676 41.4377C60.7932 41.4557 60.9103 41.4377 61.0275 41.4106C61.334 41.3115 61.4151 41.1312 61.4963 40.8157C61.5413 40.6174 61.6856 40.0765 61.7577 39.725C61.7757 39.6168 61.8027 39.5177 61.8208 39.4185L62.001 38.6343L61.992 38.6433Z" fill="white"/>
<g opacity="0.3">
<path d="M52.7212 128C73.9289 128 91.1212 126.523 91.1212 124.701C91.1212 122.878 73.9289 121.401 52.7212 121.401C31.5134 121.401 14.3212 122.878 14.3212 124.701C14.3212 126.523 31.5134 128 52.7212 128Z" fill="#4D4D4F"/>
</g>
<path d="M59.4998 122.24C58.7877 119.77 58.7877 117.138 59.4998 114.668L60.2119 114.911C59.5629 117.237 59.5629 119.698 60.2119 122.023L59.4998 122.24Z" fill="#231F20"/>
<path d="M59.3476 124.011C60.3161 123.705 60.9467 122.969 60.7563 122.366C60.5659 121.763 59.6264 121.522 58.658 121.828C57.6896 122.134 57.0589 122.871 57.2494 123.473C57.4398 124.076 58.3792 124.317 59.3476 124.011Z" fill="#231F20"/>
<path d="M47.5201 121.753C46.6637 118.337 47.484 114.407 47.5201 114.235L48.2502 114.398C48.2502 114.398 47.4299 118.328 48.2502 121.564L47.5201 121.753Z" fill="#231F20"/>
<path d="M47.3657 123.54C48.3341 123.235 48.9648 122.498 48.7744 121.895C48.5839 121.292 47.6445 121.051 46.6761 121.357C45.7077 121.663 45.077 122.4 45.2674 123.003C45.4579 123.606 46.3973 123.846 47.3657 123.54Z" fill="#231F20"/>
<path d="M75.5268 67.7679L68.7572 111.189C68.9826 111.414 69.1178 111.712 69.1358 112.027C69.1719 114.154 62.3122 115.606 53.8119 115.263C45.3116 114.921 38.3888 112.919 38.3527 110.792C38.3527 110.522 38.4609 110.26 38.6412 110.053L30.2851 65.947C30.2491 65.7217 30.24 65.316 30.5105 65.3791C46.826 69.4986 75.671 66.7673 75.671 66.7673L75.5358 67.7589" fill="#DD5553"/>
<g opacity="0.2">
<path d="M44.2569 114.127C43.671 113.947 38.3887 112.92 38.3527 110.792C38.3527 110.522 38.4608 110.26 38.6411 110.053L30.2851 65.9472C30.249 65.7219 30.249 65.2982 30.5104 65.3793C33.3859 66.3258 37.3792 66.6233 37.3792 66.6233" fill="#A12036"/>
</g>
<path d="M30.8441 65.6585C29.9066 64.685 29.9607 60.845 33.8638 58.7988C45.528 52.6873 47.2226 46.729 50.5218 44.178C52.9917 42.267 55.9032 42.258 57.2553 42.4383C59.0581 42.6817 62.2581 44.16 61.8435 46.4315V46.4676C61.6993 47.6484 60.8249 47.4411 60.7888 47.0535C60.7708 46.9814 60.7348 46.9093 60.7077 46.8462C60.6897 46.8101 60.6626 46.774 60.6356 46.738C60.6176 46.7019 60.5905 46.6749 60.5635 46.6388C60.4733 46.5217 60.3742 46.4135 60.266 46.3143C60.239 46.2963 60.221 46.2693 60.1939 46.2512H60.1849C59.8965 46.0169 59.5449 45.8636 59.1843 45.8095C58.7426 45.7825 58.301 45.8997 57.9314 46.1431C57.8412 46.2062 57.7511 46.2693 57.661 46.3504C57.4176 46.6388 57.2012 47.2428 57.8142 48.4597V48.4867C57.8773 48.5949 57.9404 48.694 58.0035 48.7932L58.0846 48.9194C58.8148 49.9831 60.0407 50.8304 60.861 51.3171C61.1224 51.4704 61.4018 51.6146 61.6722 51.7678H61.6903C61.6903 51.7678 75.1663 56.9329 70.1094 60.3402C70.1094 60.3402 76.3111 62.2062 75.2474 66.9386C75.2474 66.9386 75.0041 67.1639 71.3534 67.5695C65.2057 68.2636 62.186 67.9121 57.0029 68.2095C49.8277 68.6242 42.95 67.858 34.7922 67.0738C34.3145 67.0287 31.1505 65.938 30.8531 65.6405L30.8441 65.6585Z" fill="#B7A59C"/>
<path d="M57.2101 68.5701C55.804 68.5701 54.3617 68.5611 52.8834 68.5341C44.293 68.3808 31.1144 67.5065 30.0778 65.6856C29.9606 65.4873 29.9606 65.2349 30.0778 65.0366L30.6817 65.3882C30.6817 65.3882 30.6817 65.3521 30.6817 65.3341C31.0963 66.2265 39.7589 67.6056 52.9014 67.831C59.2023 67.9392 64.9082 67.813 68.9465 67.4794C75.3375 66.9476 75.4366 66.0913 75.4366 66.0823L76.1487 66.1003C76.1397 66.551 76.1127 67.6056 69.0096 68.2006C65.8997 68.453 61.8164 68.5882 57.2282 68.5882L57.2101 68.5701Z" fill="white"/>
<g opacity="0.4">
<path d="M62.7628 68.1194C76.0496 61.8636 57.3814 57.3926 54.2806 54.3278C51.1797 51.263 51.8468 45.3138 56.4349 44.0788C59.4096 43.2766 62.1318 46.2963 61.4107 47.3149C61.3206 47.4501 60.8158 47.4501 60.7797 47.0625C60.7617 46.9904 60.7256 46.9183 60.6986 46.8552C60.6806 46.8191 60.6535 46.783 60.6265 46.747C60.6085 46.7109 60.5814 46.6839 60.5544 46.6478C60.4642 46.5307 60.3651 46.4225 60.2569 46.3233C60.2299 46.3053 60.2118 46.2783 60.1848 46.2602H60.1758C59.8873 46.0259 59.5358 45.8726 59.1752 45.8185C58.7335 45.7915 58.2918 45.9087 57.9223 46.1521C57.8321 46.2152 57.742 46.2783 57.6518 46.3594C57.4085 46.6478 57.1921 47.2518 57.8051 48.4687V48.4957C57.8682 48.6039 57.9313 48.703 57.9944 48.8022L58.0755 48.9284C58.8056 49.9921 60.0316 50.8394 60.8518 51.3261C61.1132 51.4794 61.3927 51.6236 61.6631 51.7768H61.6811C61.6811 51.7768 75.1572 56.9419 70.1003 60.3492C70.1003 60.3492 76.302 62.2152 75.2383 66.9475C75.2383 66.9475 74.9859 67.0918 71.3442 67.5785C70.524 67.6867 72.9127 67.5785 67.7206 67.867C60.5454 68.2816 62.7538 68.1014 62.7538 68.1014L62.7628 68.1194Z" fill="white"/>
</g>
<path d="M49.5752 81.7038C49.8456 83.3173 51.4682 84.39 53.1989 84.0835C54.9205 83.777 56.1014 82.2356 55.831 80.6221L49.5842 81.7038H49.5752Z" fill="#231F20"/>
<path d="M52.622 84.4978C50.9544 84.4978 49.4941 83.3801 49.2146 81.7576C49.1966 81.6584 49.2146 81.5592 49.2777 81.4781C49.3318 81.397 49.422 81.3429 49.5211 81.3249L55.7769 80.2432C55.9752 80.2161 56.1645 80.3514 56.2005 80.5497C56.507 82.3615 55.191 84.1102 53.271 84.4347C53.0546 84.4708 52.8473 84.4888 52.631 84.4888L52.622 84.4978ZM50.0349 82.0009C50.4405 83.1998 51.7476 83.948 53.1358 83.7046C54.5239 83.4612 55.5155 82.3164 55.4975 81.0454L50.0349 81.9919V82.0009Z" fill="#231F20"/>
<path d="M58.9137 78.0957C59.5325 78.0298 59.9465 77.1537 59.8384 76.1388C59.7303 75.124 59.1411 74.3548 58.5223 74.4207C57.9035 74.4866 57.4895 75.3627 57.5976 76.3775C57.7057 77.3923 58.2949 78.1616 58.9137 78.0957Z" fill="#231F20"/>
<path d="M46.7138 78.9414C47.3326 78.8755 47.7466 77.9994 47.6385 76.9846C47.5304 75.9697 46.9411 75.2005 46.3223 75.2664C45.7035 75.3323 45.2895 76.2084 45.3976 77.2232C45.5057 78.2381 46.095 79.0073 46.7138 78.9414Z" fill="#231F20"/>
<path d="M71.3623 88.5546C72.7775 88.5546 74.2107 88.3924 75.5178 87.7524C77.6541 86.7158 79.0603 84.5794 80.1781 82.8668C80.5026 82.38 81.1696 81.3614 80.773 80.3969C80.7279 80.2617 80.6107 80.1625 80.4755 80.1445C80.3403 80.1265 80.1961 80.1806 80.115 80.2977C80.0338 80.4149 80.0248 80.5682 80.0879 80.6944C80.3133 81.2172 79.9617 81.8482 79.5651 82.4521C78.4293 84.1738 77.1493 86.1299 75.2023 87.0763C73.6248 87.8425 71.804 87.8606 70.0733 87.7704C69.875 87.7704 69.7127 87.9237 69.6947 88.131C69.6767 88.3383 69.8299 88.5096 70.0282 88.5276C70.4699 88.5546 70.9206 88.5637 71.3623 88.5637V88.5546Z" fill="#231F20"/>
<path d="M83.0535 80.6129C86.0953 80.6129 88.5611 80.2093 88.5611 79.7115C88.5611 79.2136 86.0953 78.8101 83.0535 78.8101C80.0117 78.8101 77.5459 79.2136 77.5459 79.7115C77.5459 80.2093 80.0117 80.6129 83.0535 80.6129Z" fill="#CBCBCB"/>
<path d="M83.4953 79.9369L82.5848 79.6755L84.4237 73.0771L85.3341 73.3295L83.4953 79.9369Z" fill="#E5E5E5"/>
<path d="M82.4407 79.7565L84.3426 72.9419L85.4694 73.2574L83.5674 80.072L82.4407 79.7565ZM84.4959 73.2123L82.7201 79.5943L83.4142 79.7926L85.19 73.4106L84.4959 73.2123Z" fill="#CFD1D2"/>
<path d="M77.7533 80.1262L79.3849 93.3138C79.3308 93.3859 79.2947 93.476 79.2947 93.5662C79.2947 94.2152 80.9443 94.6569 82.9905 94.5487C85.0367 94.4405 86.7043 93.8366 86.7224 93.1876C86.7224 93.1064 86.6953 93.0343 86.6502 92.9622L88.6604 79.5763C88.6604 79.5132 88.6063 79.7025 88.5432 79.7205C81.8818 81.0997 77.7173 79.8287 77.7173 79.8287L77.7443 80.1262" fill="#DD5553"/>
<path d="M88.7415 79.4683L88.5702 79.4953C88.5702 79.4953 88.462 79.7207 86.9567 79.955C85.7218 80.1263 84.4868 80.2254 83.2429 80.2435C81.9899 80.2795 80.728 80.2435 79.475 80.1173C77.9246 79.946 77.8164 79.7207 77.8164 79.7026H77.6451C77.6451 79.8198 77.6451 80.1083 79.3668 80.3066C80.6558 80.4418 81.9539 80.4869 83.2519 80.4508C84.4688 80.4328 85.6857 80.3426 86.9026 80.1804C87.9482 80.0271 88.5522 79.8468 88.6964 79.6305C88.7234 79.5854 88.7415 79.5314 88.7415 79.4773V79.4683Z" fill="white"/>
<path d="M34.5849 85.3181C33.359 85.3181 32.1331 85.1739 30.9973 84.624C29.1584 83.7316 27.9505 81.8927 26.977 80.4144C26.6976 79.9908 26.1207 79.1074 26.4632 78.2871C26.5353 78.1248 26.7246 78.0437 26.8869 78.1158C26.968 78.1519 27.0311 78.215 27.0581 78.2961C27.0942 78.3772 27.0942 78.4674 27.0581 78.5485C26.8688 78.9992 27.1663 79.5401 27.5088 80.0719C28.4824 81.5592 29.5911 83.2358 31.2767 84.0561C32.6379 84.7232 34.2063 84.7232 35.7026 84.651C35.8649 84.6601 35.9911 84.7953 36.0001 84.9575C36.0001 85.1198 35.901 85.264 35.7387 85.3001C35.3511 85.3271 34.9635 85.3361 34.5759 85.3361L34.5849 85.3181Z" fill="#231F20"/>
<path d="M31.3487 100.633L28.9059 98.7133L31.5651 100.101L28.8789 81.3792V81.2891C28.8789 81.2891 30.249 80.7212 29.7893 79.4502C29.3296 78.1792 28.4192 78.6209 27.7251 78.7381C27.031 78.8553 17.8727 80.7031 17.8727 80.7031C15.8445 81.6316 16.0969 83.9662 15.8806 85.1291C15.6552 86.2919 13.7893 100.814 13.7893 100.814L26.2558 101.598L28.7978 81.9741L27.004 101.526L31.3397 100.633H31.3487Z" fill="white"/>
<path d="M23.191 91.7725C23.5606 90.2041 23.813 89.3117 24.0023 88.7077C24.1014 88.4103 24.2006 88.1128 24.3088 87.8153C24.3809 87.6531 24.426 87.4818 24.426 87.3015C24.4079 86.986 24.2006 86.6705 23.822 86.7517C23.4434 86.8328 23.191 87.3646 22.8755 88.5094C22.6141 89.4739 22.4609 90.0959 22.2445 91.1325L21.9651 92.5567C21.9561 92.6289 21.9381 92.701 21.92 92.7821C21.893 92.9263 21.875 92.9714 21.8209 92.9804C21.7668 92.9894 21.7668 92.9714 21.7488 92.9083C21.7037 92.6559 21.6767 92.4035 21.6676 92.1421C21.6406 91.3308 21.5775 90.4835 21.6045 89.4198C21.6226 88.8069 21.6226 88.7077 21.5775 88.5545C21.5054 88.257 21.1358 88.0767 20.7482 88.1759C20.3606 88.2751 20.2344 88.7348 20.0091 89.3658C19.8558 89.7894 19.6214 90.5376 19.3871 91.2677C19.1527 91.9979 18.9183 92.9353 18.9183 92.9353C18.9003 92.9984 18.8913 93.0615 18.8733 93.1246L18.8282 93.3139C18.7741 93.4672 18.7561 93.5032 18.711 93.5122C18.675 93.5213 18.6479 93.4942 18.6389 93.4401C18.6209 93.0976 18.6119 92.7551 18.6299 92.4215C18.6389 91.7725 18.702 91.0604 18.7651 90.4294C18.8012 89.9787 18.9093 89.1765 18.9454 88.7167C18.9544 88.5815 18.9634 88.4373 18.9724 88.3382C18.9724 88.0497 18.9634 87.9055 18.8372 87.7613C18.6389 87.608 18.3685 87.572 18.1341 87.6621C17.6924 87.7613 17.3679 88.0407 17.404 88.1939C17.422 88.221 17.431 88.248 17.4581 88.2751C17.5122 88.3472 17.5572 88.4373 17.5843 88.5275C17.6203 88.7077 17.6383 88.888 17.6293 89.0773C17.6293 89.3027 17.6113 89.546 17.6023 89.7804C17.5482 90.4925 17.4671 91.7725 17.44 92.6559C17.422 93.332 17.44 94.017 17.5031 94.6931C17.5302 94.9815 17.5752 95.261 17.6474 95.5404C17.7195 95.8379 17.8727 96.1624 18.1161 96.2345C18.3054 96.2796 18.5037 96.2796 18.684 96.2165C18.9905 96.1353 19.2429 95.892 19.333 95.5765C19.4322 95.1889 19.5223 94.7922 19.6214 94.4046C19.7206 94.017 19.9009 93.2418 20.0631 92.6018C20.1623 92.2232 20.2885 91.7906 20.3516 91.5652C20.3876 91.457 20.4147 91.421 20.4327 91.412C20.4417 91.412 20.4507 91.412 20.4598 91.412C20.4688 91.412 20.4778 91.43 20.4778 91.439C20.4778 91.466 20.4778 91.4841 20.4778 91.5111V91.8266C20.5048 92.737 20.604 93.6384 20.7752 94.5218C20.8654 94.8824 20.8924 95.3331 21.4423 95.4142C21.5955 95.4322 21.7488 95.4232 21.902 95.3782C22.2986 95.252 22.4068 95.0176 22.4969 94.612C22.551 94.3506 22.7403 93.6475 22.8305 93.1967L22.9206 92.7911L23.173 91.7455L23.191 91.7725Z" fill="#D9484A"/>
<path d="M29.1313 81.3794L26.2468 101.886L31.6913 100.579L29.1584 98.7225L31.6913 100.579L29.1313 81.3794Z" fill="#CFD1D2"/>
<path d="M26.2469 101.886L13.6001 101.039L13.6271 100.786C13.6993 100.191 15.475 86.2375 15.7004 85.0837C15.7454 84.8584 15.7725 84.588 15.7995 84.2995C15.9167 83.0285 16.088 81.2888 17.8367 80.4956C18.2604 80.4054 27.0581 78.6206 27.7522 78.5125C27.8514 78.4944 27.9505 78.4764 28.0587 78.4494C28.6807 78.3142 29.6091 78.0978 30.0688 79.3778C30.4564 80.4685 29.6993 81.1897 29.1584 81.4601L26.2469 101.886ZM14.1319 100.597L26.1297 101.345L28.7077 81.2978V81.1987L28.8519 81.0725C28.897 81.0544 30.0057 80.5767 29.6271 79.5311C29.3026 78.6387 28.7978 78.7558 28.1578 78.9001C28.0407 78.9271 27.9325 78.9542 27.8243 78.9722C27.1483 79.0894 18.0801 80.9192 17.9809 80.9373C16.5297 81.6043 16.3854 83.1277 16.2683 84.3446C16.2412 84.6511 16.2142 84.9305 16.1601 85.1739C15.9438 86.2285 14.3663 98.6589 14.1139 100.588L14.1319 100.597Z" fill="#CFD1D2"/>
<path d="M27.1954 79.5265C27.549 78.7194 27.4365 77.8902 26.944 77.6745C26.4515 77.4587 25.7656 77.9381 25.412 78.7452C25.0584 79.5523 25.171 80.3815 25.6634 80.5972C26.1559 80.813 26.8418 80.3336 27.1954 79.5265Z" fill="#231F20"/>
</g>
<defs>
<clipPath id="clip0_1264_185">
<rect width="100.958" height="128" fill="white" transform="translate(13.5211)"/>
</clipPath>
</defs>
</svg>
