<svg width="128" height="128" viewBox="0 0 128 128" fill="none" xmlns="http://www.w3.org/2000/svg">
<g clip-path="url(#clip0_336_121)">
<path d="M75.1904 69.5793C75.897 69.5536 76.5008 70.4658 76.5522 71.622C76.5522 71.879 76.5393 72.1103 76.5008 72.3415L113.103 81.9386L128.007 25.114L119.836 22.9684L119.27 25.114L124.859 26.5786L124.114 29.405L113.348 72.9068L109.121 75.3607L105.151 77.6732L75.2289 69.2581L72.9292 68.6543L86.5861 16.5447L92.3161 18.0478L92.8814 15.9023L84.2479 13.6411L69.3447 70.4658L73.9827 71.6863C73.957 70.5429 74.4966 69.605 75.1904 69.5921V69.5793Z" fill="#C69C6D"/>
<path d="M110.701 73.4852L104.663 77.0182V76.9925L75.2161 69.2583L105.138 77.6735L109.108 75.3609L113.335 72.907L124.114 29.4053L112.885 72.2133L110.701 73.4852Z" fill="#998675"/>
<path d="M116.341 27.0796L93.8833 21.1312C92.65 20.81 91.9048 19.5252 92.2389 18.3047L92.3031 18.0349L86.5731 16.5317L72.9033 68.6413L75.203 69.2452L104.662 76.9665L106.333 70.4528L112.872 72.1873L124.101 29.3793L124.846 26.5528L119.257 25.0882L119.167 25.4094C118.846 26.6427 117.561 27.3879 116.341 27.0539V27.0796ZM120.837 33.5162L89.6437 66.7271C89.2325 67.1639 88.6672 67.3951 88.0891 67.3951C87.9863 67.3951 87.8835 67.3951 87.7808 67.3694C87.087 67.2667 86.496 66.8427 86.1748 66.226L79.9695 53.9823C79.4299 52.9288 79.8538 51.6441 80.9073 51.1045C81.9608 50.5649 83.2456 50.9888 83.7852 52.0423L88.6159 61.5624L117.728 30.5741C118.538 29.7133 119.887 29.6748 120.748 30.4842C121.608 31.2936 121.647 32.6425 120.837 33.5033V33.5162Z" fill="white"/>
<path d="M92.239 18.3049L119.18 25.4352L119.27 25.1141L119.836 22.9685L119.977 22.4289C120.298 21.1956 119.566 19.9237 118.332 19.6025L115.622 18.883V18.8573C114.106 18.6774 114.889 16.2236 113.939 15.9666L102.401 12.8575C101.541 12.6263 100.821 14.5148 99.3052 14.5662L95.862 13.6541C94.6287 13.3329 93.3567 14.0652 93.0356 15.2985L92.8814 15.8895L92.3161 18.0351L92.2519 18.3049H92.239ZM106.307 15.7354C106.436 15.2343 106.962 14.926 107.463 15.0673C107.964 15.1958 108.273 15.7225 108.131 16.2236C107.99 16.7246 107.476 17.033 106.975 16.8916C106.474 16.7632 106.166 16.2364 106.307 15.7354Z" fill="#999999"/>
<path d="M110.701 73.4848L112.872 72.2129L106.333 70.4785L104.663 76.9922V77.0179L110.701 73.4848Z" fill="#E6E6E6"/>
<path d="M93.8835 21.1443L116.341 27.0927C117.574 27.4139 118.846 26.6816 119.167 25.4483L92.2262 18.3179C91.905 19.5512 92.6373 20.8231 93.8706 21.1443H93.8835Z" fill="#808080"/>
<g opacity="0.3" style="mix-blend-mode:multiply">
<path d="M52.7456 108.79C52.964 109.471 52.2446 110.293 51.1397 110.64C50.0348 110.987 48.9685 110.717 48.7629 110.049C48.5445 109.368 49.264 108.546 50.3688 108.199C50.6386 108.109 50.9084 108.07 51.1654 108.058C51.1397 107.968 51.114 107.878 51.1011 107.788C48.673 107.749 46.1805 107.736 43.6239 107.736C41.9537 107.736 40.3092 107.736 38.6904 107.762C38.9088 107.89 39.0759 108.058 39.1401 108.276C39.3585 108.957 38.639 109.779 37.5341 110.126C36.4293 110.473 35.3629 110.203 35.1574 109.535C34.9646 108.918 35.5428 108.173 36.4807 107.788C15.7833 108.083 -0.00634766 109.612 -0.00634766 111.449C-0.00634766 113.505 19.5219 115.162 43.611 115.162C67.7002 115.162 87.2284 113.505 87.2284 111.449C87.2284 109.638 72.0555 108.135 51.9619 107.801C51.9876 107.929 52.0262 108.058 52.0647 108.186C52.3988 108.314 52.6557 108.52 52.7456 108.803V108.79Z" fill="#4D4D4F"/>
</g>
<path d="M51.0883 107.775C51.114 107.865 51.1396 107.955 51.1525 108.045C50.8955 108.058 50.6257 108.109 50.3559 108.186C49.2511 108.533 48.5316 109.368 48.75 110.036C48.9684 110.717 50.0348 110.974 51.1268 110.627C52.2188 110.28 52.9511 109.445 52.7327 108.777C52.6428 108.494 52.3859 108.276 52.0518 108.16C52.0133 108.032 51.9876 107.903 51.949 107.775C50.9855 103.831 52.1032 100.426 52.1161 100.4L51.6022 100.233C51.4865 100.233 51.3837 100.246 51.2681 100.259C51.0754 100.914 50.2275 104.049 51.0754 107.775H51.0883Z" fill="#231F20"/>
<path d="M35.1574 109.522C35.3758 110.203 36.4422 110.46 37.5342 110.113C38.6391 109.767 39.3586 108.931 39.1402 108.263C39.0759 108.045 38.9089 107.878 38.6905 107.75C38.6263 107.711 38.5492 107.672 38.4849 107.647C37.7269 104.319 38.4078 100.503 38.5235 99.9125C38.2408 99.874 37.9582 99.8354 37.6755 99.7969C37.5214 100.555 36.8918 104.152 37.5728 107.505C37.3158 107.505 37.0332 107.57 36.7505 107.66C36.6477 107.685 36.5578 107.724 36.4679 107.762C35.53 108.148 34.939 108.893 35.1446 109.51L35.1574 109.522Z" fill="#231F20"/>
<path d="M23.5302 76.7612C23.5302 76.7612 23.5045 76.7869 23.4917 76.7998L26.8578 94.3881C26.8578 94.3881 26.8834 94.3495 26.8963 94.3238L23.5431 76.7612H23.5302Z" fill="#DF5551"/>
<path d="M17.4279 44.8735C17.4279 44.8735 17.3893 44.8478 17.3765 44.835V44.8607L23.2992 75.7975C23.2992 75.7975 23.3249 75.7718 23.3377 75.759L17.4279 44.8735Z" fill="#DF5551"/>
<path d="M62.3814 73.4724C62.2529 73.2797 62.3043 73.0099 62.497 72.8814C62.6897 72.753 62.9595 72.8043 63.088 72.9971C63.088 73.0099 63.6148 73.7551 64.3985 74.6544L68.7666 46.9037L68.9208 45.7988C66.5569 47.4433 56.7413 47.8159 48.4161 47.8159C46.5147 47.8159 44.6903 47.7902 43.0459 47.7645C37.7655 47.6746 30.9563 47.3405 25.6375 46.7367L33.2689 98.9234C32.6137 98.7307 26.691 97.5744 26.5753 95.2104C26.5753 95.249 26.5496 95.3004 26.5496 95.3389C26.5882 97.1761 31.2004 98.9234 37.6756 99.8099C37.9582 99.8484 38.2409 99.8869 38.5235 99.9255C40.2836 100.144 42.1594 100.298 44.1122 100.375C46.6817 100.478 49.0971 100.439 51.294 100.272C51.4096 100.272 51.5252 100.26 51.628 100.247C57.4993 99.7842 61.5463 98.4609 61.5206 96.7393C61.5206 96.4181 61.3664 96.0969 61.0838 95.7886L64.2443 75.7464C63.1651 74.6159 62.4585 73.5752 62.3943 73.4724H62.3814ZM36.2495 60.2395C35.5429 60.3165 34.8748 59.4429 34.7592 58.2995C34.6436 57.1561 35.1061 56.1668 35.8127 56.0897C36.5193 56.0126 37.1874 56.8862 37.303 58.0297C37.4186 59.1731 36.9561 60.1624 36.2495 60.2395ZM44.5619 66.4191C44.3178 66.4577 44.0737 66.4834 43.8296 66.4834C41.9281 66.4834 40.2708 65.2115 39.9625 63.4C39.9239 63.1687 40.0781 62.9503 40.3093 62.9117L47.414 61.6912C47.5297 61.6784 47.6324 61.6912 47.7224 61.7555C47.8123 61.8197 47.8765 61.9225 47.8894 62.0253C48.2363 64.068 46.746 66.0337 44.5619 66.4063V66.4191ZM50.112 59.2887C49.4054 59.3658 48.7373 58.4922 48.6217 57.3488C48.5061 56.2053 48.9686 55.2161 49.6752 55.139C50.3818 55.0619 51.0499 55.9355 51.1655 57.079C51.2811 58.2224 50.8186 59.2117 50.112 59.2887Z" fill="#DF5551"/>
<g opacity="0.2" style="mix-blend-mode:multiply">
<path d="M26.8449 94.3882C26.665 94.6323 26.5494 94.8892 26.5623 95.159C26.5623 95.1719 26.5623 95.1847 26.5623 95.2104C26.5879 94.9663 26.6779 94.7351 26.8577 94.5038L26.832 94.3882H26.8449Z" fill="#A32035"/>
</g>
<g opacity="0.2" style="mix-blend-mode:multiply">
<path d="M17.7103 44.0642C17.7103 44.0642 17.6589 44.0514 17.6332 44.0385C17.5818 44.0257 17.5561 44.0385 17.5176 44.0514L17.7745 44.1927C17.7745 44.1927 17.7231 44.1028 17.7103 44.0642Z" fill="#A32035"/>
</g>
<path d="M33.2687 98.9231L25.6373 46.7364C21.6417 46.2739 18.4812 45.6572 17.4277 44.8735L23.3376 75.759C24.4425 74.6156 25.1876 73.5107 25.2133 73.485C25.3418 73.2923 25.6116 73.2409 25.8043 73.3694C25.997 73.4978 26.0484 73.7676 25.92 73.9604C25.8429 74.0631 24.905 75.4507 23.5432 76.7611L26.8964 94.3237C26.8964 94.3237 26.8707 94.3622 26.8578 94.3879L26.8835 94.5036C26.7037 94.7348 26.6137 94.9661 26.588 95.2102C26.7037 97.5741 32.6264 98.7304 33.2816 98.9231H33.2687Z" fill="#DF5551"/>
<g opacity="0.2" style="mix-blend-mode:multiply">
<path d="M33.2687 98.9231L25.6373 46.7364C21.6417 46.2739 18.4812 45.6572 17.4277 44.8735L23.3376 75.759C24.4425 74.6156 25.1876 73.5107 25.2133 73.485C25.3418 73.2923 25.6116 73.2409 25.8043 73.3694C25.997 73.4978 26.0484 73.7676 25.92 73.9604C25.8429 74.0631 24.905 75.4507 23.5432 76.7611L26.8964 94.3237C26.8964 94.3237 26.8707 94.3622 26.8578 94.3879L26.8835 94.5036C26.7037 94.7348 26.6137 94.9661 26.588 95.2102C26.7037 97.5741 32.6264 98.7304 33.2816 98.9231H33.2687Z" fill="#A32035"/>
</g>
<path d="M52.1032 23.7779C52.1032 23.7779 52.039 23.6879 52.0261 23.6108C52.0261 23.6751 52.0647 23.7265 52.1032 23.7779Z" fill="#B7A59C"/>
<path d="M17.8131 44.2185C17.8131 44.2185 17.8131 44.1672 17.8131 44.1543C18.2885 45.1564 28.1169 46.711 43.0585 46.9679C47.7479 47.045 51.7178 47.0193 55.071 46.9037C68.5481 40.0688 48.0948 35.161 44.6388 31.7821C41.1186 28.339 41.8766 21.6326 47.0927 20.245C50.4459 19.3457 53.5164 22.6989 52.7584 23.868C52.9768 23.7524 53.1696 23.4698 53.2338 22.943C53.2338 22.9302 53.2338 22.9173 53.2338 22.9045C53.7091 20.3478 50.0733 18.6776 48.0305 18.4078C46.4888 18.2023 43.187 18.228 40.3734 20.3735C36.6219 23.2385 34.7076 29.9449 21.449 36.8312C17.4919 38.8868 17.0294 42.5484 17.7232 44.0901C17.7489 44.1415 17.7617 44.18 17.7874 44.2185H17.826H17.8131Z" fill="#B7A59C"/>
<path d="M25.6245 46.7364C30.9434 47.3402 37.7526 47.6743 43.0329 47.7642C44.6774 47.7899 46.5018 47.8156 48.4032 47.8156C56.7284 47.8156 66.5568 47.443 68.9079 45.7985C69.2419 45.5673 69.4346 45.2975 69.4346 45.0148H68.6381C68.6381 45.0148 68.5995 45.1176 68.5481 45.1818C68.5353 45.4516 68.4968 45.7214 68.4325 46.0169C68.4325 46.0169 68.1499 46.184 64.013 46.7236C63.0751 46.852 65.7988 46.7236 59.9018 47.0576C51.7564 47.5201 54.2745 47.3145 54.2745 47.3145C54.5572 47.1861 54.8141 47.0447 55.0711 46.9163C51.7179 47.019 47.7351 47.0576 43.0586 46.9805C28.1298 46.7236 18.2886 45.169 17.8132 44.1669C17.8132 44.1797 17.8132 44.2183 17.8132 44.2311H17.7747L17.5177 44.077L17.1066 43.8457C16.9781 44.077 16.9781 44.3339 17.1066 44.5652C17.158 44.6551 17.2479 44.745 17.3507 44.835C17.3636 44.8478 17.3893 44.8607 17.4021 44.8735C18.4556 45.6572 21.6032 46.2739 25.6117 46.7364H25.6245Z" fill="white"/>
<path opacity="0.4" d="M52.1032 23.7778C52.2574 24.0219 52.6428 24.0091 52.7327 23.8935C52.7327 23.8935 52.7327 23.8806 52.7327 23.8678C52.4886 24.0091 52.2188 23.932 52.0903 23.7778H52.1032Z" fill="white"/>
<path d="M47.08 20.2449C41.8639 21.6324 41.1059 28.3388 44.6261 31.782C48.0821 35.148 68.5354 40.0558 55.0583 46.9035C63.5505 46.6337 67.8801 45.8629 68.5482 45.1691C68.8822 40.4541 62.5869 38.5655 62.5869 38.5655C68.3426 34.7241 53.0412 28.917 53.0412 28.917C53.0412 28.917 53.0412 28.917 53.0284 28.917C52.72 28.75 52.3988 28.5829 52.1034 28.4159C51.1655 27.8763 49.778 26.9128 48.9557 25.7179C48.9172 25.6666 48.8915 25.628 48.8529 25.5766C48.7758 25.461 48.7116 25.3454 48.6474 25.2297C48.6474 25.2297 48.6474 25.204 48.6345 25.204C47.9408 23.8422 48.1849 23.1484 48.4675 22.8272C48.5703 22.7373 48.6731 22.6731 48.7758 22.596C49.4311 22.2106 49.945 22.1849 50.1891 22.2106C50.536 22.262 50.9471 22.4033 51.3325 22.6859C51.3325 22.6859 51.3325 22.6859 51.3325 22.6988C51.3582 22.7245 51.3839 22.7502 51.4096 22.763C51.5252 22.8786 51.6408 23.0071 51.7436 23.1227C51.7693 23.1613 51.8079 23.1998 51.8336 23.2384C51.8592 23.2769 51.8849 23.3155 51.9106 23.354C51.9492 23.4311 51.9749 23.5082 52.0006 23.5852C52.0006 23.6623 52.0391 23.7009 52.0777 23.7523C52.2061 23.9064 52.4759 23.9835 52.72 23.8422C53.478 22.6859 50.4075 19.3327 47.0543 20.2192L47.08 20.2449Z" fill="#B7A59C"/>
<path opacity="0.4" d="M47.08 20.2449C41.8639 21.6324 41.1059 28.3388 44.6261 31.782C48.0821 35.148 68.5354 40.0558 55.0583 46.9035C63.5505 46.6337 67.8801 45.8629 68.5482 45.1691C68.8822 40.4541 62.5869 38.5655 62.5869 38.5655C68.3426 34.7241 53.0412 28.917 53.0412 28.917C53.0412 28.917 53.0412 28.917 53.0284 28.917C52.72 28.75 52.3988 28.5829 52.1034 28.4159C51.1655 27.8763 49.778 26.9128 48.9557 25.7179C48.9172 25.6666 48.8915 25.628 48.8529 25.5766C48.7758 25.461 48.7116 25.3454 48.6474 25.2297C48.6474 25.2297 48.6474 25.204 48.6345 25.204C47.9408 23.8422 48.1849 23.1484 48.4675 22.8272C48.5703 22.7373 48.6731 22.6731 48.7758 22.596C49.4311 22.2106 49.945 22.1849 50.1891 22.2106C50.536 22.262 50.9471 22.4033 51.3325 22.6859C51.3325 22.6859 51.3325 22.6859 51.3325 22.6988C51.3582 22.7245 51.3839 22.7502 51.4096 22.763C51.5252 22.8786 51.6408 23.0071 51.7436 23.1227C51.7693 23.1613 51.8079 23.1998 51.8336 23.2384C51.8592 23.2769 51.8849 23.3155 51.9106 23.354C51.9492 23.4311 51.9749 23.5082 52.0006 23.5852C52.0006 23.6623 52.0391 23.7009 52.0777 23.7523C52.2061 23.9064 52.4759 23.9835 52.72 23.8422C53.478 22.6859 50.4075 19.3327 47.0543 20.2192L47.08 20.2449Z" fill="white"/>
<path d="M55.0711 46.9034C54.8142 47.0318 54.5572 47.1732 54.2746 47.3016C54.2746 47.3016 51.7564 47.5072 59.9018 47.0447C65.7988 46.7107 63.088 46.8391 64.013 46.7107C68.1628 46.1711 68.4325 46.004 68.4325 46.004C68.4968 45.7214 68.5225 45.4387 68.5482 45.1689C67.893 45.8627 63.5505 46.6207 55.0583 46.9034H55.0711Z" fill="white"/>
<path opacity="0.4" d="M55.0711 46.9034C54.8142 47.0318 54.5572 47.1732 54.2746 47.3016C54.2746 47.3016 51.7564 47.5072 59.9018 47.0447C65.7988 46.7107 63.088 46.8391 64.013 46.7107C68.1628 46.1711 68.4325 46.004 68.4325 46.004C68.4968 45.7214 68.5225 45.4387 68.5482 45.1689C67.893 45.8627 63.5505 46.6207 55.0583 46.9034H55.0711Z" fill="white"/>
<path d="M49.6623 55.1518C48.9556 55.2289 48.4931 56.2182 48.6088 57.3616C48.7244 58.505 49.4053 59.3658 50.0991 59.3016C50.7928 59.2373 51.2682 58.2352 51.1526 57.0918C51.0369 55.9484 50.356 55.0876 49.6623 55.1518Z" fill="#231F20"/>
<path d="M35.8126 56.0893C35.106 56.1664 34.6435 57.1557 34.7591 58.2991C34.8748 59.4425 35.5557 60.3033 36.2495 60.2391C36.9561 60.162 37.4186 59.1727 37.303 58.0293C37.1873 56.8859 36.5064 56.0251 35.8126 56.0893Z" fill="#231F20"/>
<path d="M47.7224 61.7679C47.6324 61.7037 47.5168 61.678 47.414 61.7037L40.3093 62.9242C40.0781 62.9628 39.9239 63.1812 39.9624 63.4124C40.2708 65.2239 41.9281 66.4958 43.8296 66.4958C44.0737 66.4958 44.3178 66.4701 44.5619 66.4316C46.7459 66.059 48.2363 64.0933 47.8894 62.0506C47.8765 61.9478 47.8123 61.845 47.7224 61.7808V61.7679Z" fill="#231F20"/>
<path d="M25.9072 73.9604C26.0357 73.7677 25.9843 73.4979 25.7916 73.3695C25.5989 73.241 25.3291 73.2924 25.2006 73.4851C25.1878 73.5108 24.4426 74.6028 23.3249 75.7591C23.312 75.7719 23.2992 75.7848 23.2863 75.7976C22.1172 76.9925 20.5755 78.2387 19.0595 78.3414C18.1473 78.3928 17.3636 78.0588 16.6699 77.2879L13.5993 73.5622C13.7663 73.4337 13.8819 73.2667 13.9205 73.074C14.0747 72.3802 13.291 71.6222 12.1604 71.3652C12.1475 71.3652 12.1347 71.3652 12.1218 71.3652L12.5586 73.9476C12.6357 73.9476 12.7257 73.9476 12.8027 73.9219L16.0403 77.8532C16.8626 78.7526 17.8133 79.2151 18.8668 79.2151C18.9567 79.2151 19.0466 79.2151 19.1366 79.2151C20.7297 79.0995 22.2714 77.9946 23.5047 76.8254C23.5176 76.8126 23.5304 76.7997 23.5433 76.7869C24.9051 75.4636 25.8558 74.0889 25.9201 73.9861L25.9072 73.9604Z" fill="#231F20"/>
<path d="M62.4969 72.8811C62.3042 73.0096 62.2528 73.2794 62.3812 73.4721C62.4455 73.562 63.1521 74.6027 64.2313 75.7461C65.516 77.0951 67.3147 78.5726 69.1647 78.7139C69.2547 78.7139 69.3446 78.7139 69.4345 78.7139C70.5009 78.7139 71.4516 78.2514 72.2738 77.3392L75.2288 73.7419C75.2288 73.7419 75.293 73.7547 75.3316 73.7419C75.884 73.729 76.3337 73.1252 76.4878 72.3287C76.5264 72.1103 76.5521 71.8662 76.5392 71.6092C76.5007 70.4529 75.8968 69.5408 75.1774 69.5664C74.4708 69.5921 73.9312 70.53 73.9697 71.6606C73.9697 71.6606 73.9697 71.6863 73.9697 71.6991C73.9954 72.3415 74.201 72.9068 74.4965 73.2794L71.6315 76.7739C70.9248 77.5576 70.1283 77.9173 69.229 77.8531C67.4303 77.7246 65.5931 76.0159 64.3983 74.6541C63.6018 73.7547 63.1007 73.0096 63.0879 72.9967C62.9594 72.804 62.6896 72.7526 62.4969 72.8811Z" fill="#231F20"/>
<path d="M117.729 30.5871L88.6161 61.5754L83.7854 52.0553C83.2458 51.0018 81.961 50.5779 80.9075 51.1175C79.854 51.6571 79.4301 52.9418 79.9697 53.9953L86.175 66.239C86.4962 66.8557 87.0872 67.2925 87.781 67.3824C87.8837 67.3953 87.9865 67.4081 88.0893 67.4081C88.6803 67.4081 89.2456 67.164 89.6439 66.7401L120.838 33.5292C121.647 32.6684 121.609 31.3194 120.748 30.51C119.887 29.7006 118.538 29.7392 117.729 30.5999V30.5871Z" fill="#00A9E7"/>
<path d="M14.7682 91.8311L12.1602 92.2807L12.1473 92.2679L11.2737 92.178L14.7682 98.9743L13.8689 97.2142L14.9481 97.0343L14.7682 98.9743L15.5005 91.4585L14.7554 91.8054L14.7682 91.8311Z" fill="#D7B299"/>
<path d="M6.58453 38.5783L6.43036 37.6662C6.43036 37.6662 6.01924 36.4328 3.83516 36.8568C2.26776 37.1523 2.19067 38.3856 2.19067 38.3856L3.05146 43.499L2.34484 39.3107L6.58453 38.5912V38.5783Z" fill="#DF5551"/>
<path d="M12.1089 71.3524L7.29102 42.7666L6.50732 42.9079L14.7554 91.8056L15.5006 91.4588L12.5457 73.9347L12.1089 71.3524Z" fill="#95D4E9"/>
<path d="M3.89941 43.3445L11.1583 86.4095L12.1604 92.2679H12.1475L12.1604 92.2808L14.7684 91.8311L14.7556 91.8054L6.50746 42.9077L3.89941 43.3445Z" fill="#00A9E7"/>
<path d="M12.1602 92.268L11.1581 86.4095L3.84782 43.3574L3.05127 43.4859L11.2737 92.1781L12.1473 92.268H12.1602Z" fill="#95D4E9"/>
<path d="M3.89928 43.3446L6.50733 42.9077L7.29103 42.7664L6.58441 38.5781L2.34473 39.2976L3.05134 43.4859L3.84789 43.3574L3.89928 43.3446Z" fill="#999999"/>
<path d="M13.8689 97.2145L14.7682 98.9746L14.9481 97.0347L13.8689 97.2145Z" fill="#00A9E7"/>
</g>
<defs>
<clipPath id="clip0_336_121">
<rect width="128" height="128" fill="white"/>
</clipPath>
</defs>
</svg>
