<svg width="128" height="128" viewBox="0 0 128 128" fill="none" xmlns="http://www.w3.org/2000/svg">
<g clip-path="url(#clip0_336_100)">
<path d="M30.166 49.9922L28.1133 50.875L30.4647 56.3429L32.5175 55.4601L30.166 49.9922Z" fill="#8C549D"/>
<path d="M110.711 96.626L109.743 98.6401L115.108 101.218L116.076 99.2034L110.711 96.626Z" fill="#CE0E2D"/>
<path d="M126.888 71.3779L121.733 74.354L122.85 76.2892L128.005 73.3131L126.888 71.3779Z" fill="#62BA46"/>
<path d="M72.6236 21.1616L69.8164 26.4102L71.7868 27.464L74.594 22.2155L72.6236 21.1616Z" fill="#F48021"/>
<path d="M45.944 26.5503L44.0281 27.7002L47.091 32.8038L49.0069 31.6539L45.944 26.5503Z" fill="#F391BC"/>
<path d="M17.6754 77.0949L11.7305 77.3867L11.84 79.6185L17.785 79.3267L17.6754 77.0949Z" fill="#00A9E7"/>
<path d="M59.5861 13.9092L57.3845 14.2915L58.4027 20.1559L60.6043 19.7736L59.5861 13.9092Z" fill="#CE0E2D"/>
<path d="M81.6288 29.2363L79.9226 30.6792L83.766 35.2241L85.4722 33.7812L81.6288 29.2363Z" fill="#624024"/>
<path d="M55.5952 30.0806L55.4653 36.0312L57.6993 36.08L57.8292 30.1293L55.5952 30.0806Z" fill="#62BA46"/>
<path d="M43.098 40.8815L38.301 44.4053L39.6239 46.2061L44.4209 42.6824L43.098 40.8815Z" fill="#00A0DF"/>
<path d="M1.03978 67.2099L-0.00512695 69.1851L5.25611 71.9684L6.30102 69.9932L1.03978 67.2099Z" fill="black"/>
<path d="M11.6986 55.9887L9.76343 57.106L12.7395 62.2606L14.6746 61.1434L11.6986 55.9887Z" fill="#EDEDEE"/>
<path d="M96.0064 33.5667L95.7236 35.7832L101.628 36.5364L101.911 34.3199L96.0064 33.5667Z" fill="#CE0E2D"/>
<path d="M6.21238 95.3102L3.23633 100.465L5.17147 101.582L8.14753 96.4274L6.21238 95.3102Z" fill="#8C549D"/>
<path d="M106.654 60.757L102.445 64.9658L104.025 66.5459L108.234 62.3371L106.654 60.757Z" fill="#8C549D"/>
<path d="M107.699 47.9526L102.154 50.1157L102.966 52.1975L108.512 50.0344L107.699 47.9526Z" fill="black"/>
<path d="M92.9008 43.1321L88.9119 47.5498L90.5703 49.0473L94.5593 44.6296L92.9008 43.1321Z" fill="#F391BC"/>
<path d="M22.9231 60.4167L17.9956 63.7554L19.249 65.6052L24.1765 62.2665L22.9231 60.4167Z" fill="#FCBA24"/>
<path d="M9.45443 82.2319L4.84253 85.9946L6.25511 87.726L10.867 83.9633L9.45443 82.2319Z" fill="#CE0E2D"/>
<path d="M112.597 70.6119L111.298 72.4297L116.14 75.8912L117.439 74.0734L112.597 70.6119Z" fill="#00A9E7"/>
<path d="M24.418 33.6391L23.4744 35.6646L28.8697 38.1781L29.8133 36.1527L24.418 33.6391Z" fill="#624024"/>
<path d="M14.9995 95.6998L13.7471 97.5503L18.6764 100.886L19.9288 99.0359L14.9995 95.6998Z" fill="#F391BC"/>
<path d="M123.336 54.943L118.732 58.7153L120.148 60.4437L124.752 56.6714L123.336 54.943Z" fill="#FCBA24"/>
<path d="M119.465 85.9473L117.885 87.5273L122.094 91.7361L123.674 90.1561L119.465 85.9473Z" fill="#EDEDEE"/>
<path d="M93.7883 93.801C93.4917 93.7812 93.2741 93.5044 93.2939 93.2078C93.3137 92.9112 93.6103 92.6739 93.8872 92.7134C94.3617 92.753 94.955 92.7134 95.5878 92.5948L98.3957 74.7187L98.5935 73.2554H98.5737C95.3307 75.4701 81.449 75.9051 71.2652 75.9051C68.7736 75.9051 66.4995 75.8854 64.6407 75.8458C57.6801 75.7272 48.7421 75.2921 41.7617 74.4814L47.3381 112.547C50.0077 113.457 53.0529 114.05 56.4739 114.09C72.9856 114.268 78.8981 101.671 93.986 102.719L95.39 93.7417C94.9945 93.801 94.599 93.8406 94.2629 93.8406C94.1047 93.8406 93.9267 93.8406 93.7883 93.8208V93.801ZM51.4907 92.4168C49.889 92.575 48.4653 91.4083 48.3071 89.8066C48.1489 88.2049 49.3156 86.7811 50.9173 86.6229C52.519 86.4647 53.9428 87.6314 54.101 89.2331C54.2592 90.8349 53.0925 92.2586 51.4907 92.4168ZM56.7112 86.1483C55.7818 86.2274 54.9315 85.0805 54.7931 83.5776C54.6547 82.0748 55.2874 80.7894 56.2168 80.7103C57.1462 80.6312 57.9965 81.7782 58.135 83.281C58.2734 84.7839 57.6406 86.0692 56.7112 86.1483ZM67.4289 93.9988C67.1126 94.0581 66.7764 94.0779 66.4798 94.0779C63.9882 94.0779 61.813 92.4168 61.4175 90.0439C61.3977 89.9055 61.4175 89.7473 61.5164 89.6286C61.6153 89.51 61.7339 89.4309 61.8723 89.4111L71.1861 87.8094C71.3245 87.8094 71.4827 87.8094 71.6014 87.9082C71.72 88.0071 71.7991 88.1258 71.8189 88.2642C72.2737 90.9337 70.316 93.5044 67.4487 93.9988H67.4289ZM74.9037 85.1398C73.9743 85.2189 73.124 84.072 72.9856 82.5691C72.8471 81.0663 73.4799 79.7809 74.4093 79.7018C75.3387 79.6227 76.189 80.7697 76.3274 82.2725C76.4659 83.7754 75.8331 85.0607 74.9037 85.1398ZM81.6665 89.7275C80.0648 89.8857 78.6411 88.719 78.4829 87.1173C78.3247 85.5155 79.4914 84.0918 81.0931 83.9336C82.6948 83.7754 84.1186 84.9421 84.2768 86.5438C84.435 88.1455 83.2683 89.5693 81.6665 89.7275Z" fill="#DF5551"/>
<path d="M31.0044 71.9304C31.0044 71.9304 31.0044 71.9897 31.0044 72.0095L35.1966 93.8998C36.7983 94.2953 38.2616 94.4535 39.2701 94.236C39.5667 94.1569 39.8633 94.3546 39.9227 94.6513C39.982 94.9479 39.804 95.2445 39.5074 95.3038C39.1317 95.3829 38.6967 95.4225 38.2221 95.4225C37.3915 95.4225 36.4424 95.3038 35.4536 95.0863L37.7277 107.03C40.1204 109.067 43.3239 111.143 47.3776 112.508L41.8012 74.4418C36.4226 73.8288 32.2502 72.9785 31.0242 71.9106L31.0044 71.9304Z" fill="#DF5551"/>
<g opacity="0.2" style="mix-blend-mode:multiply">
<path d="M31.0044 71.9304C31.0044 71.9304 31.0044 71.9897 31.0044 72.0095L35.1966 93.8998C36.7983 94.2953 38.2616 94.4535 39.2701 94.236C39.5667 94.1569 39.8633 94.3546 39.9227 94.6513C39.982 94.9479 39.804 95.2445 39.5074 95.3038C39.1317 95.3829 38.6967 95.4225 38.2221 95.4225C37.3915 95.4225 36.4424 95.3038 35.4536 95.0863L37.7277 107.03C40.1204 109.067 43.3239 111.143 47.3776 112.508L41.8012 74.4418C36.4226 73.8288 32.2502 72.9785 31.0242 71.9106L31.0044 71.9304Z" fill="#A32035"/>
</g>
<path d="M31.578 71.0998C32.191 72.405 45.0642 74.4615 64.6804 74.7977C70.8105 74.8965 76.0309 74.857 80.4209 74.7186C98.119 65.741 71.2851 59.3143 66.7567 54.8848C62.1295 50.3762 63.1182 41.5766 69.9602 39.7573C74.3699 38.5907 78.3841 42.9806 77.3954 44.5032C77.6722 44.345 77.9293 43.9891 78.0282 43.297C78.0282 43.2772 78.0282 43.2574 78.0282 43.2376C78.6609 39.876 73.8755 37.7008 71.206 37.3449C69.189 37.068 64.8584 37.1076 61.1606 39.9155C56.2367 43.6727 53.7254 52.4723 36.3436 61.4895C31.0045 64.2579 30.5102 69.2806 31.5384 71.1789H31.578C31.578 71.1789 31.578 71.1394 31.578 71.1196V71.0998Z" fill="#B7A59C"/>
<path d="M76.5449 44.365C76.5449 44.365 76.446 44.2463 76.446 44.1475C76.446 44.2266 76.4856 44.3057 76.5449 44.365Z" fill="#B7A59C"/>
<path d="M41.7814 74.4615C48.7618 75.2722 57.7197 75.7073 64.6605 75.8259C66.4995 75.8655 68.7736 75.8853 71.2849 75.8853C81.4688 75.8853 95.3504 75.4502 98.5934 73.2355C99.0482 72.9389 99.3053 72.6027 99.3053 72.227H98.2573C98.2573 72.227 98.2177 72.3654 98.1188 72.4643C98.0991 72.8202 98.0595 73.1762 97.9804 73.5321C97.9804 73.5321 97.6047 73.7496 92.1865 74.4615C90.9605 74.6197 94.5199 74.4615 86.7881 74.8965C76.0901 75.5095 79.3924 75.2327 79.3924 75.2327C79.7682 75.0547 80.0845 74.8965 80.4207 74.7186C76.0308 74.857 70.8103 74.8965 64.6803 74.7977C45.064 74.4615 32.1908 72.4247 31.5778 71.0998C31.5778 71.0998 31.5778 71.1592 31.5778 71.1789H31.5383L30.6682 70.6846C30.51 70.9812 30.51 71.3174 30.6682 71.6337C30.7275 71.7326 30.866 71.8315 30.9846 71.9501C32.2106 73.018 36.4028 73.8683 41.7617 74.4813L41.7814 74.4615Z" fill="white"/>
<path opacity="0.4" d="M76.5449 44.365C76.7427 44.6814 77.2568 44.6814 77.3754 44.5034C77.3754 44.5034 77.3754 44.4836 77.3754 44.4639C77.0591 44.6418 76.7031 44.5627 76.5251 44.3452L76.5449 44.365Z" fill="white"/>
<path d="M69.9601 39.7378C63.1181 41.5571 62.1294 50.3567 66.7566 54.8653C71.285 59.2948 98.1387 65.7215 80.4208 74.6991C91.534 74.3431 97.2093 73.3346 98.1189 72.4448C98.5737 66.2356 90.308 63.7836 90.308 63.7836C97.8618 58.7608 77.7908 51.1279 77.7908 51.1279C77.7908 51.1279 77.7908 51.1279 77.771 51.1279C77.3557 50.9104 76.9602 50.6929 76.5648 50.4754C75.3387 49.7635 73.4997 48.5177 72.4319 46.9357C72.3923 46.8764 72.3528 46.8171 72.3132 46.738C72.2144 46.5996 72.1353 46.4414 72.0562 46.2832C72.0562 46.2832 72.0562 46.2634 72.0364 46.2436C71.1268 44.4441 71.4432 43.5543 71.8189 43.1193C71.9573 43.0006 72.0957 42.9017 72.2341 42.8226C73.1042 42.3085 73.7568 42.2887 74.0929 42.3283C74.5478 42.4074 75.1014 42.5656 75.5958 42.9611C75.6354 42.9808 75.6551 43.0204 75.6947 43.0599C75.8529 43.2181 76.0111 43.3763 76.1297 43.5345C76.1693 43.5741 76.2088 43.6334 76.2484 43.6729C76.2879 43.7323 76.3275 43.7718 76.3472 43.8311C76.3868 43.93 76.4461 44.0289 76.4659 44.1475C76.4659 44.2464 76.5252 44.3057 76.5648 44.365C76.7427 44.5628 77.0789 44.6617 77.4151 44.4837C78.4236 42.9611 74.3896 38.5711 69.9799 39.7378H69.9601Z" fill="#B7A59C"/>
<path opacity="0.4" d="M69.9601 39.7378C63.1181 41.5571 62.1294 50.3567 66.7566 54.8653C71.285 59.2948 98.1387 65.7215 80.4208 74.6991C91.534 74.3431 97.2093 73.3346 98.1189 72.4448C98.5737 66.2356 90.308 63.7836 90.308 63.7836C97.8618 58.7608 77.7908 51.1279 77.7908 51.1279C77.7908 51.1279 77.7908 51.1279 77.771 51.1279C77.3557 50.9104 76.9602 50.6929 76.5648 50.4754C75.3387 49.7635 73.4997 48.5177 72.4319 46.9357C72.3923 46.8764 72.3528 46.8171 72.3132 46.738C72.2144 46.5996 72.1353 46.4414 72.0562 46.2832C72.0562 46.2832 72.0562 46.2634 72.0364 46.2436C71.1268 44.4441 71.4432 43.5543 71.8189 43.1193C71.9573 43.0006 72.0957 42.9017 72.2341 42.8226C73.1042 42.3085 73.7568 42.2887 74.0929 42.3283C74.5478 42.4074 75.1014 42.5656 75.5958 42.9611C75.6354 42.9808 75.6551 43.0204 75.6947 43.0599C75.8529 43.2181 76.0111 43.3763 76.1297 43.5345C76.1693 43.5741 76.2088 43.6334 76.2484 43.6729C76.2879 43.7323 76.3275 43.7718 76.3472 43.8311C76.3868 43.93 76.4461 44.0289 76.4659 44.1475C76.4659 44.2464 76.5252 44.3057 76.5648 44.365C76.7427 44.5628 77.0789 44.6617 77.4151 44.4837C78.4236 42.9611 74.3896 38.5711 69.9799 39.7378H69.9601Z" fill="white"/>
<path d="M80.4208 74.7186C80.0846 74.8966 79.7683 75.0548 79.3925 75.2328C79.3925 75.2328 76.0902 75.4898 86.7882 74.8966C94.52 74.4616 90.9606 74.6198 92.1866 74.4616C97.6246 73.7497 97.9805 73.5322 97.9805 73.5322C98.0596 73.1565 98.0992 72.8005 98.1189 72.4644C97.2093 73.374 91.5143 74.3627 80.4208 74.7186Z" fill="white"/>
<path opacity="0.4" d="M80.4208 74.7186C80.0846 74.8966 79.7683 75.0548 79.3925 75.2328C79.3925 75.2328 76.0902 75.4898 86.7882 74.8966C94.52 74.4616 90.9606 74.6198 92.1866 74.4616C97.6246 73.7497 97.9805 73.5322 97.9805 73.5322C98.0596 73.1565 98.0992 72.8005 98.1189 72.4644C97.2093 73.374 91.5143 74.3627 80.4208 74.7186Z" fill="white"/>
<path d="M74.3895 79.7016C73.4601 79.7807 72.8273 81.066 72.9658 82.5689C73.1042 84.0718 73.9743 85.2187 74.8839 85.1396C75.8133 85.0605 76.4461 83.7751 76.3076 82.2723C76.1692 80.7694 75.2991 79.6225 74.3895 79.7016Z" fill="#211E1F"/>
<path d="M56.1971 80.7104C55.2677 80.7895 54.635 82.0748 54.7734 83.5777C54.9118 85.0806 55.7819 86.2275 56.6915 86.1484C57.6209 86.0693 58.2537 84.7839 58.1153 83.2811C57.9768 81.7782 57.1068 80.6313 56.1971 80.7104Z" fill="#211E1F"/>
<path d="M39.4877 95.3237C39.7843 95.2644 39.982 94.9678 39.9029 94.6712C39.8436 94.3745 39.547 94.1768 39.2504 94.2559C38.2419 94.4734 36.7786 94.3152 35.1769 93.9197C31.479 92.9903 27.0298 90.6767 25.8038 88.1258C26.6145 87.849 27.1682 87.3151 27.188 86.6823C27.188 85.7529 25.9817 84.9817 24.4591 84.9619C22.9365 84.9619 21.7104 85.6936 21.7104 86.623C21.7104 87.5524 22.9167 88.3236 24.4393 88.3433C24.5382 88.3433 24.6173 88.3433 24.7162 88.3433C26.0213 91.4875 31.2022 94.2164 35.4141 95.1458C36.4029 95.3633 37.352 95.4819 38.1826 95.4819C38.6572 95.4819 39.0922 95.4424 39.4679 95.3633L39.4877 95.3237Z" fill="#211E1F"/>
<path d="M50.8975 86.6228C49.2958 86.781 48.1291 88.2047 48.2873 89.8064C48.4455 91.4082 49.8693 92.5749 51.471 92.4167C53.0727 92.2585 54.2394 90.8347 54.0812 89.233C53.923 87.6313 52.4993 86.4646 50.8975 86.6228Z" fill="#DF5551"/>
<path opacity="0.5" d="M50.8975 86.6228C49.2958 86.781 48.1291 88.2047 48.2873 89.8064C48.4455 91.4082 49.8693 92.5749 51.471 92.4167C53.0727 92.2585 54.2394 90.8347 54.0812 89.233C53.923 87.6313 52.4993 86.4646 50.8975 86.6228Z" fill="#CE0E2D"/>
<path d="M81.0931 83.9333C79.4914 84.0915 78.3247 85.5153 78.4829 87.117C78.6411 88.7187 80.0648 89.8854 81.6666 89.7272C83.2683 89.569 84.435 88.1453 84.2768 86.5435C84.1186 84.9418 82.6948 83.7751 81.0931 83.9333Z" fill="#DF5551"/>
<path opacity="0.5" d="M81.0931 83.9333C79.4914 84.0915 78.3247 85.5153 78.4829 87.117C78.6411 88.7187 80.0648 89.8854 81.6666 89.7272C83.2683 89.569 84.435 88.1453 84.2768 86.5435C84.1186 84.9418 82.6948 83.7751 81.0931 83.9333Z" fill="#CE0E2D"/>
<path d="M71.5619 87.9081C71.4433 87.829 71.3049 87.7895 71.1467 87.8092L61.8329 89.411C61.6945 89.4307 61.5561 89.5098 61.477 89.6285C61.3979 89.7471 61.3583 89.8856 61.3781 90.0438C61.7933 92.4167 63.9685 94.0777 66.4403 94.0777C66.7567 94.0777 67.0731 94.058 67.3895 93.9986C70.2568 93.5043 72.2145 90.9336 71.7597 88.264C71.7399 88.1256 71.6608 87.9872 71.5422 87.9081H71.5619Z" fill="#211E1F"/>
<path d="M110.458 83.1227C110.34 82.1933 109.034 81.6 107.532 81.7978C106.029 81.9955 104.902 82.8854 105.02 83.8148C105.099 84.4278 105.732 84.8628 106.563 85.0606C105.435 88.3629 99.4438 91.8827 95.6076 92.5946C94.9748 92.7133 94.4013 92.7726 93.907 92.7133C93.6104 92.6737 93.3335 92.911 93.3137 93.2076C93.294 93.5042 93.5115 93.7811 93.8081 93.8009C93.9663 93.8009 94.1245 93.8206 94.2827 93.8206C94.6386 93.8206 95.0144 93.7811 95.4098 93.7218C99.7404 93.0692 106.543 89.0945 107.67 85.1199C107.769 85.1199 107.848 85.1199 107.947 85.1199C109.45 84.9221 110.577 84.0323 110.458 83.1029V83.1227Z" fill="#211E1F"/>
</g>
<defs>
<clipPath id="clip0_336_100">
<rect width="128" height="128" fill="white"/>
</clipPath>
</defs>
</svg>
