<svg width="128" height="128" viewBox="0 0 128 128" fill="none" xmlns="http://www.w3.org/2000/svg">
<g clip-path="url(#clip0_336_113)">
<path d="M74.8328 122.693C76.0268 123.075 76.8069 123.967 76.584 124.715C76.3452 125.447 75.199 125.734 74.0049 125.368C72.8109 124.985 72.0308 124.094 72.2537 123.346C72.3492 123.043 72.6358 122.836 72.986 122.693C73.0497 122.438 73.1134 122.199 73.1771 121.945C70.7731 121.833 68.2099 121.77 65.5353 121.77C62.8606 121.77 60.3452 121.833 57.9572 121.945C58.0049 122.247 58.0686 122.55 58.1323 122.852C58.4825 122.995 58.7532 123.186 58.8487 123.505C59.0875 124.237 58.3074 125.145 57.0975 125.527C55.8875 125.909 54.7412 125.622 54.5184 124.874C54.2796 124.142 55.0597 123.234 56.2696 122.852C56.5721 122.757 56.8746 122.709 57.1611 122.693C57.1134 122.454 57.0815 122.231 57.0338 121.992C48.4527 122.454 42.3711 123.569 42.3711 124.89C42.3711 126.609 52.7353 128.01 65.5194 128.01C78.3034 128.01 88.6676 126.609 88.6676 124.89C88.6676 123.584 82.6179 122.454 74.0845 121.992C74.0527 122.168 74.0049 122.359 73.9572 122.534C74.2278 122.534 74.5303 122.597 74.8169 122.693H74.8328Z" fill="#989898"/>
<path d="M73.1771 121.944C73.1293 122.183 73.0656 122.438 72.986 122.693C72.6358 122.836 72.3492 123.043 72.2537 123.345C72.0149 124.078 72.795 124.985 74.0049 125.367C75.1989 125.749 76.3611 125.463 76.584 124.715C76.8228 123.982 76.0427 123.075 74.8328 122.693C74.5303 122.597 74.2437 122.549 73.9731 122.533C74.0208 122.358 74.0527 122.167 74.1004 121.992C74.4348 120.416 74.4984 118.935 74.4348 117.678C74.1323 117.71 73.8298 117.741 73.5114 117.773C73.5751 118.983 73.5114 120.416 73.1771 121.944Z" fill="#211E1F"/>
<path d="M56.2695 122.852C55.0754 123.234 54.2953 124.126 54.5182 124.874C54.757 125.606 55.9033 125.893 57.0973 125.527C58.2914 125.161 59.0715 124.253 58.8486 123.505C58.753 123.202 58.4665 122.995 58.1321 122.852C58.0685 122.55 58.0048 122.247 57.957 121.945C57.7023 120.337 57.7023 118.697 57.7978 117.344C57.4953 117.296 57.1928 117.264 56.8904 117.216C56.7948 118.601 56.7789 120.305 57.0336 121.992C57.0655 122.231 57.1132 122.454 57.161 122.693C56.8744 122.693 56.572 122.757 56.2695 122.852Z" fill="#211E1F"/>
<path d="M82.2357 81.6022C81.981 81.6022 81.7899 81.3793 81.8059 81.1246C81.8059 80.8699 81.981 80.6948 82.2835 80.6948C84.3531 80.8062 86.5342 80.7744 88.4287 79.9147L91.581 59.855L91.7561 58.645H91.7402C89.0496 60.4918 77.571 60.842 69.1173 60.842C67.0477 60.842 65.1531 60.8261 63.6248 60.7943C57.8616 60.6987 50.4586 60.3326 44.6636 59.6639L52.974 116.468C54.168 116.754 55.4894 116.993 56.8904 117.216C57.1929 117.264 57.4954 117.312 57.7979 117.344C59.9631 117.646 62.3193 117.853 64.787 117.948C67.9392 118.076 70.8845 117.996 73.4954 117.773C73.8138 117.742 74.1163 117.71 74.4188 117.678C80.0069 117.073 83.7322 115.72 83.7004 114C83.7004 113.65 83.5253 113.3 83.2228 112.965L88.2536 80.9654C86.8526 81.4908 85.3561 81.65 83.8596 81.65C83.3024 81.65 82.7611 81.6341 82.2198 81.6022H82.2357ZM57.0815 71.1744C56.3173 71.254 55.585 70.3147 55.4576 69.0729C55.3302 67.8311 55.8397 66.7644 56.6039 66.6689C57.3681 66.5893 58.1004 67.5286 58.2278 68.7704C58.3551 70.0122 57.8457 71.0788 57.0815 71.1744ZM66.1084 77.8928C65.8377 77.9405 65.583 77.9565 65.3123 77.9565C63.2586 77.9565 61.4437 76.5714 61.1093 74.6132C61.0934 74.5017 61.1093 74.3744 61.1889 74.2789C61.2526 74.1833 61.3641 74.1196 61.4755 74.0878L69.1969 72.7664C69.4516 72.7186 69.6745 72.8938 69.7223 73.1326C70.1044 75.3455 68.4805 77.4789 66.1084 77.8928ZM72.1422 70.1555C71.378 70.2351 70.6457 69.2958 70.5183 68.054C70.3909 66.8122 70.9004 65.7455 71.6646 65.65C72.4287 65.5704 73.1611 66.5097 73.2884 67.7515C73.4158 68.9933 72.9064 70.0599 72.1422 70.1555Z" fill="#DF5551"/>
<g opacity="0.2" style="mix-blend-mode:multiply">
<path d="M45.6985 112.488C45.7462 115.099 52.2736 116.356 52.99 116.579V116.468C48.5801 115.433 45.7303 113.984 45.6985 112.488Z" fill="#A32035"/>
</g>
<path d="M35.7322 57.5623C35.7322 57.5623 35.7322 57.6101 35.7322 57.626L39.9511 79.6439C40.0625 79.7076 40.174 79.7872 40.3013 79.8349C42.2436 80.7742 44.5043 80.7902 46.6376 80.6787C46.9401 80.6787 47.0993 80.8538 47.1153 81.1086C47.1153 81.3633 46.9401 81.5703 46.6854 81.5862C46.1441 81.618 45.5869 81.6339 45.0456 81.6339C43.3899 81.6339 41.7182 81.427 40.174 80.7583L46.0645 111.564C45.8257 111.851 45.7143 112.153 45.7143 112.472C45.7461 113.968 48.5799 115.417 52.9899 116.452L44.6794 59.6479C40.2217 59.1384 36.767 58.4379 35.7481 57.5464L35.7322 57.5623Z" fill="#DF5551"/>
<g opacity="0.2" style="mix-blend-mode:multiply">
<path d="M35.7322 57.5623C35.7322 57.5623 35.7322 57.6101 35.7322 57.626L39.9511 79.6439C40.0625 79.7076 40.174 79.7872 40.3013 79.8349C42.2436 80.7742 44.5043 80.7902 46.6376 80.6787C46.9401 80.6787 47.0993 80.8538 47.1153 81.1086C47.1153 81.3633 46.9401 81.5703 46.6854 81.5862C46.1441 81.618 45.5869 81.6339 45.0456 81.6339C43.3899 81.6339 41.7182 81.427 40.174 80.7583L46.0645 111.564C45.8257 111.851 45.7143 112.153 45.7143 112.472C45.7461 113.968 48.5799 115.417 52.9899 116.452L44.6794 59.6479C40.2217 59.1384 36.767 58.4379 35.7481 57.5464L35.7322 57.5623Z" fill="#A32035"/>
</g>
<path d="M36.2097 56.8777C36.7192 57.9603 47.3858 59.6638 63.6406 59.9344C68.7351 60.014 73.0495 59.9822 76.6953 59.8548C91.342 52.42 69.1172 47.0867 65.36 43.425C61.5391 39.6837 62.351 32.3921 68.0187 30.8797C71.6644 29.9086 75.0077 33.5543 74.1799 34.812C74.4187 34.6847 74.6256 34.3822 74.7052 33.8091C74.7052 33.7931 74.7052 33.7772 74.7052 33.7613C75.2147 30.9752 71.2664 29.1603 69.0376 28.8737C67.3659 28.6508 63.7679 28.6668 60.7271 31.0071C56.6515 34.1275 54.5659 41.4031 40.1739 48.8857C35.748 51.1782 35.3341 55.3334 36.1938 56.9096H36.2256C36.2256 56.9096 36.2256 56.8777 36.2256 56.8618L36.2097 56.8777Z" fill="#B7A59C"/>
<path d="M73.4795 34.7325C73.4795 34.7325 73.3999 34.6211 73.3999 34.5415C73.3999 34.6052 73.4317 34.6689 73.4795 34.7325Z" fill="#B7A59C"/>
<path d="M44.6637 59.6639C50.4587 60.3325 57.8617 60.6987 63.6249 60.7942C65.1532 60.826 67.0478 60.842 69.1174 60.842C77.5552 60.842 89.0497 60.4917 91.7403 58.6449C92.1065 58.3902 92.3293 58.1196 92.3293 57.8012H91.4697C91.4697 57.8012 91.4378 57.9126 91.3582 57.9922C91.3423 58.2788 91.3104 58.5813 91.2308 58.8838C91.2308 58.8838 90.9284 59.0589 86.4229 59.6479C85.404 59.7753 88.3652 59.6479 81.9492 60.0141C73.0975 60.5076 75.8199 60.3007 75.8199 60.3007C76.1383 60.1574 76.4089 60.0141 76.6955 59.8708C73.0497 59.9823 68.7353 60.03 63.6408 59.9504C47.3861 59.6798 36.7035 57.9763 36.2099 56.8937C36.2099 56.9096 36.2099 56.9415 36.2099 56.9574H36.1781L35.4617 56.5435C35.3184 56.7982 35.3343 57.0688 35.4617 57.3236C35.5094 57.4032 35.6209 57.4987 35.7164 57.5783C36.7353 58.4698 40.19 59.1544 44.6478 59.6798L44.6637 59.6639Z" fill="white"/>
<path opacity="0.4" d="M73.4795 34.7324C73.6547 35.0031 74.0686 34.9871 74.1641 34.8598C74.1641 34.8598 74.1641 34.8439 74.1641 34.8279C73.8935 34.9712 73.6069 34.9075 73.4636 34.7324H73.4795Z" fill="white"/>
<path d="M68.0187 30.8958C62.351 32.4083 61.5232 39.6998 65.36 43.4411C69.1172 47.1028 91.3421 52.4361 76.6953 59.8709C85.8814 59.5685 90.5938 58.7565 91.358 58.0083C91.7401 52.866 84.8943 50.8282 84.8943 50.8282C91.151 46.657 74.5142 40.3366 74.5142 40.3366C74.5142 40.3366 74.5142 40.3366 74.4983 40.3366C74.164 40.1615 73.8137 39.9864 73.4953 39.7953C72.4764 39.2063 70.964 38.1714 70.0724 36.866C70.0406 36.8182 69.9928 36.7545 69.961 36.7068C69.8814 36.5794 69.8018 36.452 69.7381 36.3406C69.7381 36.3406 69.7381 36.3247 69.7222 36.3088C68.9739 34.8282 69.2286 34.0799 69.5311 33.7297C69.6426 33.6341 69.754 33.5545 69.8655 33.4749C70.5819 33.0451 71.1232 33.0292 71.4097 33.061C71.7918 33.1247 72.2376 33.268 72.6515 33.5864C72.6834 33.6023 72.6993 33.6341 72.7311 33.666C72.8585 33.7933 72.9859 33.9366 73.0973 34.064C73.1291 34.1117 73.161 34.1436 73.1928 34.1913C73.2247 34.2391 73.2565 34.2869 73.2884 34.3187C73.3361 34.3983 73.368 34.4779 73.3998 34.5734C73.3998 34.653 73.4476 34.7008 73.4794 34.7645C73.6227 34.9396 73.9092 35.0192 74.1799 34.86C75.0078 33.6023 71.6804 29.9565 68.0187 30.9277V30.8958Z" fill="#B7A59C"/>
<path opacity="0.4" d="M68.0187 30.8958C62.351 32.4083 61.5232 39.6998 65.36 43.4411C69.1172 47.1028 91.3421 52.4361 76.6953 59.8709C85.8814 59.5685 90.5938 58.7565 91.358 58.0083C91.7401 52.866 84.8943 50.8282 84.8943 50.8282C91.151 46.657 74.5142 40.3366 74.5142 40.3366C74.5142 40.3366 74.5142 40.3366 74.4983 40.3366C74.164 40.1615 73.8137 39.9864 73.4953 39.7953C72.4764 39.2063 70.964 38.1714 70.0724 36.866C70.0406 36.8182 69.9928 36.7545 69.961 36.7068C69.8814 36.5794 69.8018 36.452 69.7381 36.3406C69.7381 36.3406 69.7381 36.3247 69.7222 36.3088C68.9739 34.8282 69.2286 34.0799 69.5311 33.7297C69.6426 33.6341 69.754 33.5545 69.8655 33.4749C70.5819 33.0451 71.1232 33.0292 71.4097 33.061C71.7918 33.1247 72.2376 33.268 72.6515 33.5864C72.6834 33.6023 72.6993 33.6341 72.7311 33.666C72.8585 33.7933 72.9859 33.9366 73.0973 34.064C73.1291 34.1117 73.161 34.1436 73.1928 34.1913C73.2247 34.2391 73.2565 34.2869 73.2884 34.3187C73.3361 34.3983 73.368 34.4779 73.3998 34.5734C73.3998 34.653 73.4476 34.7008 73.4794 34.7645C73.6227 34.9396 73.9092 35.0192 74.1799 34.86C75.0078 33.6023 71.6804 29.9565 68.0187 30.9277V30.8958Z" fill="white"/>
<path d="M76.6954 59.8547C76.4089 59.998 76.1382 60.1412 75.8198 60.2845C75.8198 60.2845 73.0815 60.5074 81.9492 59.998C88.3651 59.6318 85.4039 59.7751 86.4228 59.6318C90.9283 59.0427 91.2308 58.8676 91.2308 58.8676C91.2944 58.5651 91.3263 58.2626 91.3581 57.9761C90.6099 58.7243 85.8974 59.5522 76.6954 59.8388V59.8547Z" fill="white"/>
<path opacity="0.4" d="M76.6954 59.8547C76.4089 59.998 76.1382 60.1412 75.8198 60.2845C75.8198 60.2845 73.0815 60.5074 81.9492 59.998C88.3651 59.6318 85.4039 59.7751 86.4228 59.6318C90.9283 59.0427 91.2308 58.8676 91.2308 58.8676C91.2944 58.5651 91.3263 58.2626 91.3581 57.9761C90.6099 58.7243 85.8974 59.5522 76.6954 59.8388V59.8547Z" fill="white"/>
<path d="M73.2884 67.7512C73.1611 66.5094 72.4287 65.5701 71.6645 65.6497C70.9004 65.7293 70.3909 66.8119 70.5183 68.0537C70.6456 69.2955 71.378 70.2348 72.1422 70.1552C72.9063 70.0756 73.4158 68.993 73.2884 67.7512Z" fill="#211E1F"/>
<path d="M56.6038 66.6849C55.8396 66.7645 55.3301 67.8471 55.4575 69.0889C55.5849 70.3307 56.3172 71.27 57.0814 71.1904C57.8456 71.1108 58.355 70.0282 58.2276 68.7864C58.1003 67.5446 57.3679 66.6053 56.6038 66.6849Z" fill="#211E1F"/>
<path d="M69.1968 72.7823L61.4755 74.1037C61.364 74.1196 61.2526 74.1833 61.1889 74.2947C61.1252 74.3903 61.0934 74.5176 61.1093 74.6291C61.4436 76.5873 63.2426 77.9723 65.3123 77.9723C65.567 77.9723 65.8376 77.9564 66.1083 77.9087C68.4804 77.4947 70.1043 75.3614 69.7222 73.1485C69.6745 72.9097 69.4516 72.7345 69.1968 72.7823Z" fill="#211E1F"/>
<path d="M95.2109 73.9921C95.4019 74.0398 95.593 74.0717 95.7999 74.0876C97.0576 74.1672 98.1084 73.61 98.1562 72.8458C98.2039 72.0816 97.2328 71.3811 95.9751 71.3015C94.7173 71.2219 93.6666 71.7791 93.6188 72.5433C93.587 72.9732 93.8736 73.3552 94.3512 73.6577C94.2557 73.8329 94.1283 74.0239 94.0168 74.199C92.6159 76.3005 91.0397 78.6886 88.6198 79.8508C88.5562 79.8826 88.4925 79.8985 88.4288 79.9145C86.5343 80.7582 84.3532 80.806 82.2835 80.6945C81.981 80.6945 81.8218 80.8697 81.8059 81.1244C81.8059 81.3791 81.981 81.5861 82.2358 81.602C82.777 81.6339 83.3343 81.6498 83.8756 81.6498C85.3562 81.6498 86.8527 81.4746 88.2696 80.9652C88.5243 80.8697 88.779 80.7901 89.0178 80.6786C91.6447 79.405 93.38 76.7941 94.7651 74.7085C94.8925 74.5334 95.0358 74.2786 95.195 74.008L95.2109 73.9921Z" fill="#211E1F"/>
<path d="M46.6855 81.6022C46.9402 81.6022 47.1313 81.3793 47.1154 81.1246C47.1154 80.8699 46.9402 80.6948 46.6378 80.6948C44.5044 80.8062 42.2437 80.7903 40.3014 79.851C40.1741 79.7873 40.0786 79.7236 39.9512 79.6599C37.7383 78.45 36.2417 76.2052 34.9044 74.1992C34.6815 73.8649 34.4905 73.5306 34.3472 73.2122C34.8089 72.6868 34.9999 72.0977 34.7611 71.652C34.395 70.9674 33.2169 70.8878 32.1024 71.4769C30.988 72.0659 30.383 73.0848 30.7492 73.7694C31.1154 74.454 32.2935 74.5336 33.4079 73.9445C33.4875 73.9127 33.5512 73.8649 33.6149 73.8171C33.79 74.1833 33.997 74.4858 34.1402 74.7087C35.5253 76.8102 37.2606 79.4211 39.8875 80.6788C39.9671 80.7266 40.0626 80.7425 40.1582 80.7744C41.7024 81.4589 43.3741 81.65 45.0298 81.65C45.587 81.65 46.1283 81.6341 46.6696 81.6022H46.6855Z" fill="#211E1F"/>
<path d="M34.7973 27.7278L32.8062 28.6562L35.2821 33.966L37.2733 33.0375L34.7973 27.7278Z" fill="#A32035"/>
<path d="M99.8108 52.5593L98.991 54.5977L104.427 56.7838L105.246 54.7455L99.8108 52.5593Z" fill="#CE0E2D"/>
<path d="M25.303 50.2152L23.978 51.9678L28.6515 55.501L29.9764 53.7484L25.303 50.2152Z" fill="#CE0E2D"/>
<path d="M81.988 32.7211L80.7566 34.5405L85.6085 37.8243L86.8399 36.0048L81.988 32.7211Z" fill="#CE0E2D"/>
<path d="M72.5814 5.86786L70.3901 6.02686L70.8141 11.8702L73.0054 11.7112L72.5814 5.86786Z" fill="#CE0E2D"/>
<path d="M24.9847 37.2423L23.8862 39.145L28.96 42.0744L30.0585 40.1717L24.9847 37.2423Z" fill="#00A9E7"/>
<path d="M56.151 9.80824L53.9863 10.1841L54.9886 15.9564L57.1532 15.5806L56.151 9.80824Z" fill="#00A9E7"/>
<path d="M17.4582 61.5489L15.6394 62.7812L18.9257 67.6315L20.7445 66.3991L17.4582 61.5489Z" fill="#00A9E7"/>
<path d="M99.4305 23.0198L93.8704 24.8662L94.5628 26.9513L100.123 25.1049L99.4305 23.0198Z" fill="#A32035"/>
<path d="M37.6338 11.078L36.4023 12.8975L41.2543 16.1812L42.4857 14.3618L37.6338 11.078Z" fill="#00A9E7"/>
<path d="M115.207 47.6028L110.01 50.3071L111.024 52.2561L116.221 49.5517L115.207 47.6028Z" fill="#A32035"/>
<path d="M74.5296 17.1031L72.0425 22.4077L74.0317 23.3404L76.5188 18.0358L74.5296 17.1031Z" fill="#00A9E7"/>
<path d="M46.4282 31.2269L45.1968 33.0464L50.0487 36.3302L51.2801 34.5107L46.4282 31.2269Z" fill="#00A9E7"/>
<path d="M105.448 37.2698L104.004 42.9478L106.133 43.4893L107.577 37.8114L105.448 37.2698Z" fill="#A32035"/>
<path d="M94.0847 90.6346L92.8533 92.4541L97.7052 95.7379L98.9366 93.9184L94.0847 90.6346Z" fill="#00A9E7"/>
<path d="M52.7706 21.4446L47.3125 23.5737L48.1109 25.6205L53.5691 23.4914L52.7706 21.4446Z" fill="#CE0E2D"/>
<path d="M60.5359 -0.0105923L60.1436 5.83496L62.3356 5.9821L62.728 0.136543L60.5359 -0.0105923Z" fill="#A32035"/>
<path d="M88.5353 19.1468L83.6851 22.4331L84.9174 24.2519L89.7676 20.9656L88.5353 19.1468Z" fill="#00A9E7"/>
<path d="M13.789 72.6698L12.5576 74.4893L17.4096 77.773L18.641 75.9536L13.789 72.6698Z" fill="#CE0E2D"/>
<path d="M24.1864 85.7687L21.9951 85.9277L22.4191 91.7711L24.6104 91.6121L24.1864 85.7687Z" fill="#A32035"/>
<path d="M96.1259 40.2478L90.5654 42.0933L91.2575 44.1784L96.8179 42.333L96.1259 40.2478Z" fill="#00A9E7"/>
<path d="M106.896 69.7095H104.699V75.5682H106.896V69.7095Z" fill="#A32035"/>
<path d="M10.8601 40.3963L9.62866 42.2158L14.4806 45.4996L15.712 43.6801L10.8601 40.3963Z" fill="#CE0E2D"/>
<path d="M113.519 58.7235L112.288 60.543L117.14 63.8267L118.371 62.0073L113.519 58.7235Z" fill="#00A9E7"/>
<path d="M113.514 73.0252L112.283 74.8447L117.135 78.1285L118.366 76.309L113.514 73.0252Z" fill="#CE0E2D"/>
</g>
<defs>
<clipPath id="clip0_336_113">
<rect width="128" height="128" fill="white"/>
</clipPath>
</defs>
</svg>
