<svg width="128" height="128" viewBox="0 0 128 128" fill="none" xmlns="http://www.w3.org/2000/svg">
<g clip-path="url(#clip0_159_306)">
<path d="M101.092 39.7734H95.2805V104.848H101.092V39.7734Z" fill="#4D4D4D"/>
<path d="M98.018 76.5571C98.534 76.5571 98.9524 76.1388 98.9524 75.6228C98.9524 75.1068 98.534 74.6885 98.018 74.6885C97.502 74.6885 97.0837 75.1068 97.0837 75.6228C97.0837 76.1388 97.502 76.5571 98.018 76.5571Z" fill="#B3B3B3"/>
<path d="M98.018 84.8725C98.534 84.8725 98.9524 84.4542 98.9524 83.9382C98.9524 83.4222 98.534 83.0039 98.018 83.0039C97.502 83.0039 97.0837 83.4222 97.0837 83.9382C97.0837 84.4542 97.502 84.8725 98.018 84.8725Z" fill="#B3B3B3"/>
<path opacity="0.3" d="M102.138 106.511C108.939 106.511 114.453 105.741 114.453 104.792C114.453 103.842 108.939 103.073 102.138 103.073C95.3375 103.073 89.8242 103.842 89.8242 104.792C89.8242 105.741 95.3375 106.511 102.138 106.511Z" fill="#4D4D4F"/>
<path d="M105.605 105.492H90.4502C89.0767 105.492 87.9556 104.381 87.9556 102.998V98.2235C87.9556 96.8501 93.4399 91.1602 94.804 91.1602H99.7839C101.157 91.1602 108.09 96.439 108.09 97.8124V103.007C108.09 104.381 106.978 105.502 105.595 105.502L105.605 105.492Z" fill="#4D4D4D"/>
<path d="M110.267 3.19533V63.7477C110.267 65.5136 108.837 66.9431 107.072 66.9431H90.553C88.7872 66.9431 87.3577 65.5136 87.3577 63.7477V3.19533C87.3577 1.42949 88.7872 0 90.553 0H107.072C108.837 0 110.267 1.42949 110.267 3.19533Z" fill="#00A9E7"/>
<path d="M104.231 6.32506C104.269 6.24097 104.297 6.15688 104.297 6.06345C104.278 5.95133 104.269 5.83922 104.278 5.7271C104.343 5.52155 104.605 5.57761 104.67 5.61498C104.895 5.7271 104.848 6.06345 104.829 6.14754C104.745 6.50258 104.549 6.67075 104.325 6.58666C104.203 6.53995 104.213 6.39046 104.222 6.32506H104.231ZM101.597 9.95951C101.69 9.91279 101.774 9.95951 102.054 9.96885C102.26 9.98754 102.465 9.93148 102.634 9.81936C103.007 9.51104 102.989 8.92243 103.026 8.59542C103.026 8.59542 102.484 9.28681 102.082 9.05323C101.419 8.67951 101.765 6.80155 102.129 6.49323C102.409 6.2036 102.736 6.30637 102.764 6.49323C102.83 6.82958 102.54 6.8763 102.419 7.77323C102.4 7.90404 102.372 8.27776 102.521 8.27776C102.671 8.27776 102.82 8.05352 102.933 7.8106C103.026 7.60506 103.101 7.39017 103.166 7.16593C103.4 6.31571 103.689 6.28769 103.876 6.3344C104.054 6.38112 104.082 6.61469 104.054 6.8109C104.035 6.92301 103.876 7.51163 103.764 8.17498C103.699 8.58608 103.689 8.99717 103.624 9.3709C103.521 9.94082 103.222 10.464 102.503 10.6322C102.101 10.7256 101.484 10.707 101.466 10.1931C101.466 10.0997 101.503 10.0062 101.597 9.95951ZM105.24 7.65177C105.175 7.6144 104.941 7.4836 104.941 7.40885C104.941 7.23133 105.296 7.08185 105.399 7.11922C105.474 7.14725 105.399 7.32477 105.539 7.4182C105.633 7.47425 105.754 7.4836 105.857 7.42754C105.96 7.38082 106.025 7.27805 106.034 7.16593C106.165 6.65206 105.876 6.21294 105.128 6.44652C104.596 6.61469 104.063 7.21265 104.157 7.62374C104.231 7.94141 104.586 8.07221 104.839 8.20301C105.007 8.2871 105.11 8.34316 105.081 8.40856C105.053 8.47396 104.951 8.49265 104.764 8.48331C104.53 8.47396 104.409 8.24039 104.203 8.32447C104.063 8.36185 103.96 8.4833 103.951 8.62345C103.932 8.829 104.016 9.16535 104.53 9.21206C104.951 9.26812 105.38 9.12798 105.689 8.83834C105.904 8.65148 105.969 8.33382 105.838 8.08155C105.679 7.87601 105.465 7.72652 105.222 7.63309L105.24 7.65177ZM101.568 6.34374C101.718 5.28798 102.166 4.63396 101.755 4.54987C101.55 4.53119 101.363 4.64331 101.27 4.83017C101.083 5.21323 100.933 6.28768 100.933 6.28768C99.9335 6.54929 99.214 7.40885 99.13 8.43659C98.6815 8.04418 99.3355 6.93236 98.8964 6.64272C98.5974 6.43717 98.0368 6.8763 97.8032 7.25002C97.9714 6.84827 98.1116 6.59601 97.8873 6.47455C97.7472 6.3998 97.3548 6.45586 97.1586 7.06316C96.8783 7.96944 96.7848 8.9598 96.953 9.20272C97.0932 9.39893 97.4108 9.28681 97.5323 9.08126C97.6538 8.87571 97.7752 7.67046 98.3171 7.53966C98.177 8.37119 98.3451 8.99717 98.6441 9.0906C98.859 9.13732 99.0832 9.03455 99.186 8.83834C99.513 9.41761 100.55 8.63279 100.672 8.40856C100.634 8.67951 100.69 8.9598 100.849 9.18404C100.971 9.32418 101.167 9.36155 101.335 9.26812C101.475 9.19338 101.559 9.04389 101.54 8.88506C101.522 8.78228 101.41 8.70754 101.372 8.44593C101.363 7.97878 101.391 7.51163 101.456 7.05382C101.54 7.05382 101.634 7.01644 101.69 6.96039C101.755 6.89498 101.783 6.8109 101.783 6.72681C101.802 6.56798 101.718 6.40914 101.568 6.34374ZM100.382 7.93206C100.279 8.05352 99.9708 8.34316 99.8774 8.30579C99.784 8.26842 99.8774 7.94141 100.027 7.6798C100.195 7.37148 100.475 7.1379 100.812 7.03513C100.756 7.36214 100.606 7.6798 100.391 7.93206H100.382ZM96.5513 8.72623C96.4392 8.66082 96.3083 8.72622 96.1869 8.81966C96.0935 8.8944 95.9813 8.94112 95.8599 8.94112C95.7197 8.93177 95.673 8.84769 95.6543 8.6982C96.7942 8.34316 96.9717 7.23133 96.8689 6.93236C96.8035 6.75484 96.6914 6.58666 96.3084 6.64272C95.8973 6.69878 95.3086 7.12856 95.019 8.16564C94.9256 8.16564 94.8415 8.14695 94.7481 8.12827C95.1124 6.57732 95.4394 5.82053 95.4768 5.62433C95.5329 5.36272 95.346 5.15717 95.1218 5.21323C94.8975 5.26929 94.7481 5.56827 94.5519 6.24097C94.393 6.80155 94.2996 7.16593 94.1688 7.77323L94.0006 8.60477C93.9819 8.68885 93.9632 8.84769 93.9072 8.84769C93.8511 8.84769 93.8418 8.66082 93.8418 8.60477C93.8138 8.21236 93.767 7.36214 93.7857 6.77352C93.8044 6.60535 93.8044 6.43717 93.767 6.269C93.683 6.07279 93.4681 5.97936 93.2625 6.04476C93.0289 6.10082 92.9542 6.37177 92.814 6.73615C92.7206 6.97907 92.5805 7.4182 92.4403 7.84798C92.3002 8.26841 92.1133 9.00652 92.1133 9.04389C92.0946 9.11863 92.0666 9.15601 92.0386 9.15601C92.0105 9.15601 92.0012 9.04389 91.9919 8.98783C91.9919 8.93177 91.9825 8.57674 92.0105 8.10024C92.0573 7.4182 92.16 6.54929 92.1881 6.32506C92.2348 5.95133 92.2067 5.64301 91.6929 5.75513C91.4313 5.81119 91.1697 5.98871 91.2911 6.11017C91.3752 6.25031 91.4126 6.40914 91.3939 6.57732C91.3939 6.71747 91.2911 8.1563 91.2818 8.65148C91.2724 9.0906 91.2631 10.6509 91.6929 10.7256C92.0012 10.8004 92.3189 10.6322 92.431 10.3332C92.487 10.109 92.7767 8.97849 92.8701 8.59542C92.9262 8.37119 93.0009 8.12827 93.0383 7.99747C93.0663 7.93206 93.0757 7.91338 93.0943 7.91338C93.113 7.91338 93.1317 7.91338 93.1317 8.01615C93.1317 8.58608 93.2065 9.16535 93.3186 9.72593C93.3746 9.93148 93.4213 10.2305 93.711 10.2491C94.2062 10.2772 94.2903 10.0156 94.337 9.78199C94.3743 9.6325 94.5799 8.80097 94.5892 8.72623C94.6359 8.74491 94.9162 8.78228 94.9162 8.78228C94.9162 8.78228 94.9629 9.38958 95.3554 9.57644C95.7478 9.76331 96.3457 9.55776 96.5886 9.03455C96.6167 8.97849 96.654 8.79163 96.5326 8.73557L96.5513 8.72623ZM95.8879 7.59571C96.0374 7.35279 96.2243 7.20331 96.299 7.25002C96.3738 7.29674 96.3177 7.52097 96.2149 7.68914C96.0841 7.91338 95.8786 8.08155 95.6357 8.18433C95.6824 7.96944 95.7665 7.76389 95.8786 7.58637L95.8879 7.59571Z" fill="#1F3D7B"/>
<path d="M105.81 9.22155C105.81 9.11878 105.848 9.02535 105.932 8.96929C106.016 8.91323 106.128 8.91323 106.212 8.96929C106.296 9.02535 106.343 9.11878 106.333 9.22155C106.333 9.32433 106.296 9.41776 106.212 9.47382C106.128 9.52987 106.016 9.52987 105.932 9.47382C105.848 9.41776 105.801 9.32433 105.81 9.22155ZM106.296 9.22155C106.296 9.10009 106.203 9.00666 106.081 9.00666C105.96 9.00666 105.866 9.10009 105.866 9.22155C105.866 9.34301 105.96 9.43644 106.081 9.43644C106.203 9.43644 106.296 9.34301 106.296 9.22155ZM106.193 9.34301H106.156L106.091 9.24958H106.034V9.35236H105.997V9.09075H106.1C106.1 9.09075 106.147 9.09075 106.165 9.10944C106.184 9.12812 106.193 9.14681 106.193 9.17484C106.193 9.21221 106.165 9.24024 106.137 9.24958L106.203 9.33367L106.193 9.34301ZM106.025 9.2309H106.091C106.091 9.2309 106.119 9.2309 106.128 9.22155C106.137 9.21221 106.147 9.20287 106.147 9.18418C106.147 9.16549 106.147 9.15615 106.128 9.14681C106.119 9.13746 106.1 9.12812 106.091 9.13746H106.025V9.2309Z" fill="#1F3D7B"/>
<path d="M90.0767 60.3747V57.5063H91.338C91.9266 57.5063 92.4031 57.9828 92.4031 58.5715C92.4031 59.1601 91.9266 59.6366 91.338 59.6366H90.8241V60.3747H90.0767ZM91.338 58.9826C91.5342 58.9826 91.6463 58.777 91.6463 58.5715C91.6463 58.3659 91.5435 58.1697 91.338 58.1697H90.8148V59.0012H91.338V58.9826Z" fill="white"/>
<path d="M92.8888 60.0198L92.7206 60.3749H91.9358V60.2721L93.2532 57.4785H93.5989L94.9069 60.2721V60.3749H94.1314L93.9632 60.0198H92.8888ZM93.1317 59.3938H93.7297L93.4307 58.7025L93.1317 59.3938Z" fill="white"/>
<path d="M97.4574 60.2628V60.3656H96.6633L96.1775 59.4687H95.785V60.3656H95.0376V57.4973H96.2989C96.5792 57.4786 96.8408 57.5814 97.0464 57.7776C97.2426 57.9738 97.3547 58.2354 97.3453 58.5157C97.3453 58.8427 97.1865 59.1604 96.9156 59.3472L97.4668 60.2628H97.4574ZM96.2802 58.8614C96.3737 58.8614 96.4577 58.8147 96.5138 58.7493C96.5699 58.6839 96.5979 58.5904 96.5885 58.5063C96.5979 58.4129 96.5699 58.3288 96.5138 58.2634C96.4577 58.198 96.3737 58.1606 96.2802 58.1606H95.7664V58.8707H96.2802V58.8614Z" fill="white"/>
<path d="M98.8498 59.2722C98.7283 59.2816 98.6162 59.2909 98.4948 59.2816V60.3747H97.7473V57.5064H98.4948V58.6276C98.6349 58.6369 98.775 58.6276 98.9059 58.5809C99.0367 58.5155 99.0834 58.3473 99.1675 58.0016C99.2515 57.6559 99.5318 57.3756 100.205 57.5064V58.0109C100.027 58.0016 99.9056 58.039 99.8588 58.2165C99.8028 58.4968 99.6813 58.7584 99.5038 58.9826C99.7841 59.3937 100.046 59.8422 100.326 60.2626V60.3747H99.4851L98.8591 59.2629L98.8498 59.2722Z" fill="white"/>
<path d="M101.933 59.7674V60.3747H100.447V59.7674H100.812V58.1043H100.485V57.5063H101.886V58.1136H101.559V59.7767L101.933 59.7674Z" fill="white"/>
<path d="M103.045 58.8985V60.3747H102.288V57.4971H102.531L104.026 58.9079V57.5064H104.773V60.3841H104.549L103.045 58.8985Z" fill="white"/>
<path d="M106.567 57.4692C107.137 57.4692 107.735 57.7589 107.884 58.4596H107.156C107.043 58.2447 106.81 58.1233 106.567 58.1419C106.1 58.1419 105.848 58.5157 105.848 58.9548C105.848 59.4313 106.128 59.7396 106.567 59.7396C106.829 59.777 107.081 59.6368 107.193 59.3939H106.576V58.7679H107.931C107.959 59.0482 107.931 59.3285 107.856 59.5995C107.651 60.1974 107.109 60.431 106.576 60.431C105.763 60.431 105.1 59.7676 105.1 58.9548C105.1 58.1419 105.763 57.4786 106.576 57.4786L106.567 57.4692Z" fill="white"/>
<path d="M91.9263 56.1333C90.8986 56.1333 89.9363 55.4699 89.9363 54.1152C89.9363 52.7605 90.9266 52.1064 91.9357 52.1064C92.9447 52.1064 93.9164 52.7698 93.9164 54.1152C93.9164 55.3018 93.0942 56.1333 91.917 56.1333H91.9263ZM91.9263 55.171C92.1973 55.171 92.4589 55.0589 92.6458 54.8533C92.8326 54.6478 92.9261 54.3862 92.9074 54.1152C92.9354 53.7508 92.7485 53.4051 92.4402 53.2089C92.1319 53.0221 91.7395 53.0221 91.4218 53.2089C91.1135 53.3958 90.9266 53.7508 90.9547 54.1152C90.9547 54.8066 91.4405 55.171 91.9357 55.171H91.9263Z" fill="white"/>
<path d="M97.5976 55.9088V56.0583H96.5231L95.8598 54.853H95.3272V56.0676H94.3088V52.1716H96.0186C96.3923 52.1529 96.7567 52.293 97.0183 52.5546C97.2799 52.8162 97.4294 53.1806 97.4201 53.5544C97.4201 54.0028 97.2052 54.4326 96.8408 54.6849L97.5976 55.9181V55.9088ZM96.0093 54.0122C96.1307 54.0122 96.2428 53.9468 96.3269 53.8533C96.4017 53.7599 96.4391 53.6384 96.4297 53.517C96.4484 53.3955 96.411 53.2741 96.3269 53.19C96.2428 53.1059 96.1307 53.0498 96.0093 53.0498H95.2992V54.0122H96.0093Z" fill="white"/>
<path d="M99.4008 52.1812C100.671 52.1812 101.316 53.1435 101.316 54.1058C101.316 55.0682 100.69 56.0679 99.4008 56.0679H97.9153V52.1812H99.4008ZM99.4008 55.1522C100.027 55.1522 100.307 54.6384 100.307 54.1152C100.307 53.592 99.9988 53.0968 99.4008 53.0968H98.943V55.1522H99.4008Z" fill="white"/>
<path d="M104.119 53.0595H102.708V53.6107H104.007V54.4983H102.708V55.1336H104.157V56.0679H101.681V52.1719H104.119V53.0595Z" fill="white"/>
<path d="M107.912 55.9088V56.0583H106.829L106.165 54.853H105.623V56.0676H104.605V52.1716H106.315C106.688 52.1529 107.053 52.293 107.314 52.5546C107.576 52.8162 107.726 53.1806 107.716 53.5544C107.716 54.0028 107.501 54.4326 107.137 54.6849L107.903 55.9181L107.912 55.9088ZM106.324 54.0122C106.446 54.0122 106.558 53.9468 106.642 53.8533C106.717 53.7599 106.754 53.6384 106.745 53.517C106.754 53.3955 106.717 53.2834 106.642 53.19C106.567 53.0965 106.446 53.0498 106.333 53.0498H105.642V54.0122H106.333H106.324Z" fill="white"/>
<path d="M93.2064 47.145H93.5428V50.6954H92.6085V49.0603L91.8517 49.8639H91.7489L90.9921 49.0697V50.6954H90.0671V47.145H90.3941L91.8049 48.6773L93.2064 47.145Z" fill="white"/>
<path d="M95.6917 50.7611C94.7574 50.7611 93.8792 50.1632 93.8792 48.9299C93.8792 47.6966 94.7854 47.0986 95.7104 47.0986C96.7008 47.136 97.4762 47.9489 97.4762 48.9392C97.4762 49.9296 96.6821 50.7331 95.701 50.7611H95.6917ZM95.6917 49.8829C95.944 49.8829 96.1775 49.7801 96.3457 49.6026C96.5139 49.4251 96.598 49.1821 96.5793 48.9299C96.5419 48.444 96.1308 48.0797 95.645 48.0983C95.1591 48.117 94.7854 48.5281 94.7948 49.014C94.8041 49.4998 95.1965 49.8829 95.6824 49.8922L95.6917 49.8829Z" fill="white"/>
<path d="M100.251 48.836C100.531 48.9855 100.7 49.2752 100.69 49.5928C100.69 50.2001 100.298 50.6766 99.5692 50.6766H97.8594V47.1543H99.429C100.092 47.1543 100.55 47.5654 100.55 48.2287C100.55 48.4623 100.438 48.6772 100.251 48.8267V48.836ZM98.7843 47.9391V48.5371H99.3543C99.429 48.5371 99.5038 48.509 99.5505 48.453C99.6065 48.3969 99.6346 48.3315 99.6252 48.2568C99.6346 48.182 99.6065 48.0979 99.5598 48.0419C99.5038 47.9858 99.429 47.9485 99.3543 47.9485H98.7843V47.9391ZM98.7843 49.2845V49.8731H99.4944C99.5692 49.8731 99.6346 49.8451 99.6906 49.789C99.7467 49.733 99.7747 49.6676 99.7747 49.5928C99.784 49.5087 99.756 49.434 99.7093 49.3779C99.6626 49.3219 99.5785 49.2845 99.5038 49.2845H98.7937H98.7843Z" fill="white"/>
<path d="M102.737 49.9478V50.6953H100.905V49.9478H101.354V47.8923H100.943V47.1636H102.69V47.911H102.269V49.9665L102.737 49.9478Z" fill="white"/>
<path d="M104.054 49.8637H105.334V50.6953H103.138V47.1636H104.063L104.054 49.8637Z" fill="white"/>
<path d="M107.782 47.9577H106.492V48.4623H107.679V49.2751H106.492V49.8637H107.828V50.6953H105.567V47.1636H107.782V47.9577Z" fill="white"/>
<path d="M92.5711 42.1744H105.007C106.062 42.1744 106.922 41.3148 106.922 40.2591V16.7986C106.922 15.7429 106.062 14.8833 105.007 14.8833H92.5711C91.5153 14.8833 90.6558 15.7429 90.6558 16.7986V40.2591C90.6558 40.7636 90.852 41.2588 91.2163 41.6138C91.5714 41.9782 92.0666 42.1744 92.5711 42.1744Z" fill="white"/>
<path d="M105.493 17.752H92.0947V38.3441H105.493V17.752Z" fill="#00A9E7"/>
<path d="M97.7378 40.2594C97.7378 40.6892 97.9994 41.0722 98.3918 41.2404C98.7842 41.4086 99.242 41.3151 99.5503 41.0162C99.8587 40.7172 99.9428 40.2594 99.7839 39.8576C99.6158 39.4652 99.2327 39.2036 98.8029 39.2036C98.2143 39.2036 97.7471 39.6801 97.7378 40.2594Z" fill="#00A9E7"/>
<path d="M102.064 28.8515C102.512 26.9455 102.82 25.871 103.054 25.1143C103.185 24.7499 103.306 24.3855 103.428 24.0211C103.521 23.8249 103.568 23.61 103.577 23.3951C103.549 23.0121 103.297 22.629 102.839 22.7318C102.381 22.8345 102.064 23.4699 101.681 24.8713C101.354 26.0486 101.167 26.796 100.905 28.0667L100.559 29.8045C100.541 29.8886 100.522 29.982 100.503 30.0661C100.466 30.2436 100.447 30.2997 100.382 30.309C100.354 30.309 100.307 30.2903 100.289 30.2249C100.232 29.9166 100.204 29.6083 100.195 29.3C100.167 28.3096 100.083 27.2818 100.12 25.9925C100.139 25.2544 100.139 25.1329 100.092 24.9554C99.9989 24.591 99.5598 24.3668 99.0739 24.4976C98.5881 24.6191 98.4479 25.1797 98.1676 25.9551C97.9808 26.469 97.6911 27.3846 97.4109 28.2722C97.1399 29.1972 96.8316 30.3183 96.8316 30.3183C96.8129 30.3931 96.7942 30.4678 96.7755 30.5519C96.7568 30.6267 96.7382 30.7014 96.7195 30.7855C96.6541 30.9724 96.626 31.0097 96.5793 31.0284C96.5326 31.0471 96.5046 31.0004 96.4952 30.9443C96.4672 30.5332 96.4672 30.1128 96.4766 29.7017C96.4952 28.9075 96.57 28.048 96.6447 27.2818C96.6821 26.7306 96.8222 25.7589 96.869 25.2077C96.8876 25.0395 96.897 24.862 96.9063 24.7405C96.9063 24.3855 96.8876 24.2173 96.7382 24.0398C96.5046 23.8343 96.2149 23.8436 95.8786 23.9183C95.346 24.0398 94.9443 24.3855 94.991 24.5724C95.0097 24.6097 95.0284 24.6378 95.0564 24.6658C95.1218 24.7592 95.1779 24.8527 95.2152 24.9648C95.262 25.1797 95.2806 25.4039 95.2806 25.6281C95.2806 25.9084 95.262 26.1981 95.2433 26.4877C95.1779 27.3566 95.0751 28.9169 95.0471 29.982C95.0284 30.8042 95.0471 31.6357 95.1218 32.4579C95.1498 32.8129 95.2152 33.1586 95.3087 33.495C95.4021 33.85 95.5796 34.2518 95.8879 34.3265C96.1215 34.3826 96.3738 34.3732 96.598 34.2891C96.9811 34.1864 97.2801 33.8967 97.3922 33.5137C97.5043 33.0372 97.6257 32.5607 97.7472 32.0842C97.85 31.5797 98.0929 30.6734 98.2984 29.8886C98.4106 29.4214 98.5694 28.8982 98.6535 28.6272C98.7002 28.4871 98.7282 28.4497 98.7563 28.4497C98.7656 28.4404 98.7843 28.4404 98.803 28.4497C98.8123 28.4591 98.8217 28.4778 98.8123 28.4964C98.8123 28.5245 98.8123 28.5525 98.8123 28.5805V28.9729C98.8497 30.0661 98.9805 31.1592 99.1954 32.2337C99.3075 32.6728 99.3355 33.224 99.9989 33.3175C100.186 33.3455 100.382 33.3268 100.559 33.2801C101.045 33.1306 101.185 32.841 101.288 32.3458C101.363 32.0375 101.578 31.1779 101.699 30.6173L101.811 30.1315L102.101 28.8795L102.064 28.8515Z" fill="white"/>
<path d="M97.3548 16.7429C97.1213 16.7429 96.925 16.5467 96.925 16.3131C96.925 16.0795 97.1119 15.8833 97.3548 15.8833H100.232C100.466 15.8833 100.662 16.0795 100.662 16.3131C100.662 16.5467 100.475 16.7429 100.232 16.7429H97.3548Z" fill="#00A9E7"/>
<path d="M32.6541 77.4352L54.2646 102.512C54.2085 102.746 54.2459 102.988 54.3486 103.203C55.1708 104.577 60.1787 102.764 65.5416 99.1485C70.9046 95.5327 74.5857 91.4872 73.7635 90.1044C73.6514 89.9362 73.4832 89.8054 73.287 89.7493L61.1878 58.1885C61.1317 58.039 60.9635 57.768 60.8234 57.9082C51.9008 67.0644 32.1682 76.8466 32.1682 76.8466L32.6541 77.4258" fill="#DF5551"/>
<path opacity="0.2" d="M71.2783 94.6078C71.5866 94.2621 74.5951 91.4872 73.7729 90.1138C73.6608 89.9456 73.4926 89.8148 73.2964 89.7588L61.1971 58.1979C61.1411 58.0484 60.9635 57.7681 60.8327 57.9176C59.3378 59.6741 56.8806 61.4586 56.8806 61.4586" fill="#A32035"/>
<path d="M60.7206 58.2258C60.9355 57.2354 59.3846 54.7969 56.0491 55.0491C46.0801 55.7966 42.6231 52.6573 39.4838 52.349C37.1294 52.1154 35.2328 53.2739 34.4292 53.928C33.3641 54.7969 31.8786 57.0299 33.0465 58.3192C33.0465 58.3192 33.0558 58.3379 33.0652 58.3472C33.6257 59.048 34.1116 58.5621 33.9808 58.3005C33.9621 58.2445 33.9528 58.1884 33.9528 58.1323C33.9528 58.1043 33.9528 58.0669 33.9528 58.0389C33.9528 58.0109 33.9528 57.9735 33.9621 57.9455C33.9808 57.8334 33.9995 57.7306 34.0275 57.6185C34.0275 57.5904 34.0368 57.5718 34.0462 57.5531C34.0462 57.5531 34.0462 57.5531 34.0462 57.5437C34.149 57.2821 34.3078 57.0485 34.5227 56.871C34.7936 56.6748 35.13 56.5814 35.4663 56.5907C35.5504 56.5907 35.6345 56.6001 35.7279 56.6094C35.9989 56.6935 36.3819 57.0018 36.466 58.0202V58.0389V58.422C36.4193 59.3937 35.9615 60.4214 35.6252 61.0661C35.513 61.2716 35.3916 61.4678 35.2701 61.6734C35.2701 61.6734 28.6085 70.3718 33.2333 70.5306C33.2333 70.5306 29.9633 74.2024 32.5233 76.8091C32.5233 76.8091 32.7662 76.8465 35.2888 75.6506C39.5399 73.6325 41.3525 72.203 44.8281 70.325C49.6304 67.7183 53.7787 64.4856 58.7399 60.7204C59.0295 60.5055 60.6459 58.5341 60.7113 58.2258H60.7206Z" fill="#B7A59C"/>
<path d="M60.8514 57.7495C61.9072 58.3475 55.3951 63.5609 47.4628 68.6529C39.5399 73.7448 32.5046 77.5007 31.8225 76.4637" stroke="white" stroke-width="0.57"/>
<path opacity="0.4" d="M41.0534 72.5583C29.9725 73.8664 40.2779 63.5423 41.0721 60.3469C41.8663 57.1516 39.0727 53.6012 35.6158 54.6477C33.3734 55.3204 32.8128 58.3475 33.6817 58.7026C33.7939 58.7493 34.1209 58.5531 33.9901 58.2915C33.9714 58.2354 33.962 58.1793 33.962 58.1233C33.962 58.0953 33.962 58.0579 33.962 58.0299C33.962 58.0018 33.962 57.9645 33.9714 57.9364C33.9901 57.8243 34.0087 57.7215 34.0368 57.6094C34.0368 57.5814 34.0461 57.5627 34.0555 57.544C34.0555 57.544 34.0555 57.544 34.0555 57.5347C34.1582 57.2731 34.3171 57.0395 34.532 56.862C34.8029 56.6658 35.1393 56.5723 35.4756 56.5817C35.5597 56.5817 35.6438 56.591 35.7372 56.6004C36.0082 56.6845 36.3912 56.9928 36.4753 58.0112V58.0299V58.4129C36.4286 59.3846 35.9708 60.4123 35.6344 61.057C35.5223 61.2626 35.4009 61.4588 35.2794 61.6643C35.2794 61.6643 28.6178 70.3627 33.2426 70.5215C33.2426 70.5215 29.9725 74.1934 32.5325 76.8001C32.5325 76.8001 32.7474 76.8001 35.2981 75.6415C35.8774 75.3799 34.289 76.2675 37.7553 74.3802C42.5576 71.7735 41.0534 72.549 41.0534 72.549V72.5583Z" fill="white"/>
<path opacity="0.3" d="M64 128C94.9602 128 120.058 125.867 120.058 123.235C120.058 120.604 94.9602 118.47 64 118.47C33.0398 118.47 7.94165 120.604 7.94165 123.235C7.94165 125.867 33.0398 128 64 128Z" fill="#4D4D4F"/>
<path d="M83.5738 81.9761L77.2766 77.4541L78.5099 75.0996C78.7715 74.5951 78.65 73.9784 78.2109 73.6234L77.37 73.0255C76.9402 72.7171 76.3703 72.876 76.1087 73.3805L71.8296 81.5557C71.568 82.0602 71.6894 82.6768 72.1286 83.0319L72.9694 83.6392C73.3992 83.9475 73.9692 83.7887 74.2308 83.2841L75.8004 80.2757L82.107 84.7884C82.5367 85.0967 83.1067 84.9379 83.3683 84.4333L83.8821 83.4523C84.1438 82.9478 84.0129 82.3405 83.5738 81.9855V81.9761Z" fill="#231F20"/>
<path d="M91.5993 125.141C100.913 125.141 108.464 117.988 108.464 109.164C108.464 100.34 100.913 93.1875 91.5993 93.1875C82.2855 93.1875 74.7351 100.34 74.7351 109.164C74.7351 117.988 82.2855 125.141 91.5993 125.141Z" fill="white"/>
<path d="M34.2798 125.141C43.5936 125.141 51.144 117.988 51.144 109.164C51.144 100.34 43.5936 93.1875 34.2798 93.1875C24.9659 93.1875 17.4155 100.34 17.4155 109.164C17.4155 117.988 24.9659 125.141 34.2798 125.141Z" fill="white"/>
<path d="M78.0894 110.09C78.0894 110.211 78.108 110.323 78.108 110.445C78.3042 117.545 84.4146 123.245 91.9358 123.245C99.4569 123.245 105.567 117.545 105.764 110.445C105.764 110.323 105.782 110.211 105.782 110.09C105.782 102.821 99.5784 96.9438 91.9358 96.9438C84.2932 96.9438 78.0894 102.83 78.0894 110.09ZM84.0222 110.09C84.0222 105.941 87.5632 102.568 91.9358 102.568C96.3083 102.568 99.8494 105.932 99.8494 110.09C99.8494 110.211 99.84 110.323 99.8307 110.445C99.6345 114.434 96.1775 117.611 91.9264 117.611C87.6753 117.611 84.2278 114.434 84.0315 110.445C84.0315 110.323 84.0129 110.211 84.0129 110.09H84.0222Z" fill="#231F20"/>
<path d="M20.153 109.538C20.153 109.725 20.125 109.903 20.125 110.09C20.125 117.349 26.3288 123.245 33.9714 123.245C40.7265 123.245 46.351 118.648 47.5656 112.565C47.7338 111.753 47.8178 110.921 47.8178 110.09C47.8178 102.83 41.6141 96.9438 33.9621 96.9438C26.3101 96.9438 20.452 102.54 20.1437 109.548L20.153 109.538ZM26.0485 110.09C26.0485 105.941 29.5895 102.568 33.9621 102.568C38.3346 102.568 41.8757 105.932 41.8757 110.09C41.8757 110.93 41.7262 111.771 41.4272 112.565C40.3527 115.499 37.419 117.611 33.9527 117.611C29.7203 117.611 26.2727 114.453 26.0578 110.482C26.0578 110.351 26.0485 110.22 26.0485 110.09Z" fill="#231F20"/>
<path d="M106.988 89.4131C106.988 89.4131 103.362 94.1033 105.95 96.8969C108.538 99.6811 111.22 101.335 111.631 99.4756C112.042 97.6163 112.509 95.1964 110.491 92.3562C108.473 89.5159 106.978 89.4131 106.978 89.4131H106.988Z" fill="white"/>
<path d="M11.1277 103.942C11.5762 107.427 13.3981 109.51 15.9674 110.145L17.8921 110.594V110.454C17.8921 110.36 17.8734 110.229 17.8734 110.071C17.8734 101.568 25.0956 94.6546 33.9621 94.6546C42.8287 94.6546 50.0509 101.568 50.0509 110.071C50.0509 110.239 50.0416 110.37 50.0322 110.454V110.5C49.9855 112.042 49.7052 113.556 49.1913 115.013H76.6973C76.1834 113.565 75.9032 112.042 75.8564 110.51V110.463C75.8564 110.37 75.8378 110.239 75.8378 110.08C75.8378 101.578 83.06 94.6639 91.9265 94.6639C100.793 94.6639 108.015 101.578 108.015 110.08C108.015 110.248 108.006 110.379 107.997 110.463V110.51C107.95 112.051 107.67 113.565 107.156 115.022H115.284C116.321 115.022 117.153 113.845 117.153 112.388V106.829C117.153 105.371 116.312 104.194 115.284 104.194H113.752V104.128L111.883 94.4958C111.724 93.6362 111.463 92.8047 111.108 92.0105C109.015 87.3577 106.39 84.3398 94.0848 79.9486C94.0848 79.9486 79.8553 66.0555 73.3058 62.4584C71.9978 61.739 70.8486 61.113 69.8862 60.5991C67.7747 60.814 68.8118 62.6639 68.8118 62.6639H68.7931C73.4366 65.4201 80.6962 71.2596 80.6962 72.0537L79.1359 80.7988C79.1359 81.5276 78.7061 82.1069 78.1829 82.1069H14.7154C14.0147 85.76 13.6316 89.4692 13.5662 93.1877C12.1087 93.6923 11.464 94.1594 11.109 95.8692C10.7727 97.6163 10.6792 100.503 11.137 103.951L11.1277 103.942ZM107.137 94.1688L108.211 91.3004C108.464 90.6277 108.922 90.525 109.239 91.0575C110.089 92.4777 111.089 96.0187 111.108 97.934C111.108 98.3825 110.902 98.6815 110.706 98.5787L107.529 96.8409C106.997 96.5512 106.782 95.1217 107.146 94.1781H107.137V94.1688ZM80.7055 82.0882L82.0509 76.4263C83.6392 76.1086 86.274 78.2762 85.648 80.8829C85.2649 82.4245 80.7055 82.0882 80.7055 82.0882Z" fill="#00A9E7"/>
<path d="M50.9954 85.907C51.642 85.4816 51.9363 84.7873 51.6527 84.3563C51.3691 83.9252 50.615 83.9206 49.9684 84.346C49.3218 84.7714 49.0275 85.4657 49.3111 85.8968C49.5947 86.3278 50.3488 86.3324 50.9954 85.907Z" fill="#231F20"/>
<path d="M46.463 81.1167C46.463 81.1167 43.4452 83.8449 47.117 84.8352L49.6957 85.2557" stroke="#231F20" stroke-width="0.5" stroke-linecap="round" stroke-linejoin="round"/>
<path d="M48.5841 75.5386C48.5841 75.5386 48.3038 74.2679 49.6492 73.4177C50.6208 72.8104 51.8354 73.343 51.8354 73.343" stroke="#231F20" stroke-width="0.7" stroke-linecap="round" stroke-linejoin="round"/>
<path d="M55.6192 71.4653C55.6192 71.4653 55.3389 70.1947 56.6843 69.3445C57.6467 68.7372 58.8706 69.2697 58.8706 69.2697" stroke="#231F20" stroke-width="0.7" stroke-linecap="round" stroke-linejoin="round"/>
<path d="M53.9937 77.3045C53.9937 77.3045 54.6944 78.7527 56.6658 77.6128C58.6372 76.4729 57.8991 75.0435 57.8991 75.0435" stroke="#231F20" stroke-width="0.7" stroke-linecap="round" stroke-linejoin="round"/>
</g>
<defs>
<clipPath id="clip0_159_306">
<rect width="112.117" height="128" fill="white" transform="translate(7.94165)"/>
</clipPath>
</defs>
</svg>
