<svg width="128" height="128" viewBox="0 0 128 128" fill="none" xmlns="http://www.w3.org/2000/svg">
<g clip-path="url(#clip0_159_307)">
<path d="M77.4131 46.252C77.5637 46.8973 77.0904 47.532 76.6601 47.9837C75.5092 49.5111 73.9818 50.6943 72.25 51.4042C70.7657 51.7484 69.2168 51.6946 67.7539 51.2429" stroke="#231F20" stroke-width="0.62" stroke-linecap="round" stroke-linejoin="round"/>
<path d="M79.0871 48.1756C79.4481 47.7039 79.171 46.8853 78.4681 46.3473C77.7653 45.8094 76.9028 45.7557 76.5417 46.2274C76.1806 46.6991 76.4577 47.5177 77.1606 48.0556C77.8635 48.5936 78.726 48.6473 79.0871 48.1756Z" fill="#231F20"/>
<path d="M77.4131 46.252C77.5637 46.8973 77.0904 47.532 76.6601 47.9837C75.5092 49.5111 73.9818 50.6943 72.25 51.4042C70.7657 51.7484 69.2168 51.6946 67.7539 51.2429" stroke="#231F20" stroke-width="0.62" stroke-linecap="round" stroke-linejoin="round"/>
<path d="M79.0871 48.1756C79.4481 47.7039 79.171 46.8853 78.4681 46.3473C77.7653 45.8094 76.9028 45.7557 76.5417 46.2274C76.1806 46.6991 76.4577 47.5177 77.1606 48.0556C77.8635 48.5936 78.726 48.6473 79.0871 48.1756Z" fill="#231F20"/>
<path d="M77.4131 46.252C77.5637 46.8973 77.0904 47.532 76.6601 47.9837C75.5092 49.5111 73.9818 50.6943 72.25 51.4042C70.7657 51.7484 69.2168 51.6946 67.7539 51.2429" stroke="#231F20" stroke-width="0.62" stroke-linecap="round" stroke-linejoin="round"/>
<path d="M79.0871 48.1756C79.4481 47.7039 79.171 46.8853 78.4681 46.3473C77.7653 45.8094 76.9028 45.7557 76.5417 46.2274C76.1806 46.6991 76.4577 47.5177 77.1606 48.0556C77.8635 48.5936 78.726 48.6473 79.0871 48.1756Z" fill="#231F20"/>
<path d="M29.4722 45.4882L48.7475 77.983C48.6507 78.2412 48.6507 78.5316 48.7475 78.7897C49.3821 80.5 55.3626 79.4459 62.0961 76.4449C68.8295 73.4439 73.7452 69.5931 73.0998 67.8936C73.0245 67.657 72.8632 67.4634 72.648 67.345L65.28 29.4721C65.28 29.3 65.1186 28.9558 64.925 29.0956C53.1253 37.6361 29.0527 44.7245 29.0527 44.7245L29.483 45.4775" fill="#DF5551"/>
<path opacity="0.2" d="M69.5073 73.143C69.9053 72.7988 73.7023 70.228 73.0676 68.4962C73.0031 68.2596 72.8633 68.066 72.6696 67.9369L65.5382 29.4616C65.5382 29.2788 65.3661 28.9238 65.194 29.0744C63.6451 30.3329 61.9779 31.4193 60.2246 32.3336" fill="#A32035"/>
<path d="M65.5488 29.5365C65.9468 28.4824 64.6776 25.3308 60.8591 24.9436C49.4252 23.7927 46.0692 19.5009 42.5734 18.5328C40.5297 18.0058 38.3569 18.2962 36.5176 19.3288C35.13 20.1248 33.0003 22.3836 34.0759 24.0938C34.5707 25.0189 35.2161 24.5564 35.1193 24.2337V24.0185C35.1193 24.0185 35.1193 23.954 35.1193 23.911V23.7927C35.1515 23.6743 35.2053 23.5453 35.2591 23.4377V23.3732C35.4204 23.0935 35.6571 22.8569 35.9367 22.6955C36.2917 22.5342 36.6897 22.4804 37.0662 22.5557L37.3566 22.631C37.647 22.7816 38.0127 23.2226 37.9159 24.4165C37.9159 24.5241 37.9159 24.6209 37.9159 24.7285C37.9159 24.7715 37.9159 24.8145 37.9159 24.8575C37.6147 25.9009 37.1092 26.8797 36.4208 27.7187C36.2594 27.9338 36.0766 28.1382 35.9045 28.3426C35.9045 28.3426 26.5895 36.9799 31.8278 38.0985C31.8278 38.0985 27.3747 41.6481 29.7734 45.1762C30.9243 45.0579 32.0537 44.7997 33.1401 44.4125C38.3784 42.9496 40.7663 41.6804 45.0581 40.2068C51.0386 38.1846 56.3845 35.3127 62.8383 31.9782C63.8278 31.2683 64.7529 30.4508 65.5704 29.5473L65.5488 29.5365Z" fill="#B7A59C"/>
<path d="M65.5166 29.042C66.5923 29.967 58.1916 34.6783 48.2205 38.9701C38.2494 43.2618 29.5476 46.1875 29.0312 44.8538" stroke="white" stroke-width="0.59"/>
<path opacity="0.4" d="M40.1425 42.0571C27.4931 41.3257 41.0568 31.5912 42.5735 28.1169C44.0901 24.6426 41.6699 20.0174 37.5718 20.4692C34.9365 20.8026 33.7103 24.1371 34.603 24.7287C34.7106 24.804 35.1193 24.6426 35.0118 24.32V24.1586C35.0118 24.1586 35.0118 24.0941 35.0118 24.0618V23.9435C35.044 23.8252 35.0978 23.7068 35.1516 23.5885V23.524C35.313 23.2443 35.5388 23.0077 35.8185 22.8463C36.1627 22.685 36.5499 22.6312 36.9264 22.7065L37.2168 22.7818C37.5072 22.9324 37.8622 23.3626 37.7654 24.5566C37.7654 24.6534 37.7654 24.761 37.7654 24.8578C37.7654 24.9008 37.7654 24.9438 37.7654 24.9868C37.475 26.0302 36.9694 26.9983 36.2918 27.8265C36.1304 28.0416 35.9583 28.246 35.7755 28.4504C35.7755 28.4504 26.6111 37.0339 31.7634 38.1526C31.7634 38.1526 27.3748 41.6806 29.7412 45.1872C30.8598 45.0043 31.9677 44.7569 33.0541 44.4235C33.7533 44.2299 31.8064 44.929 36.0551 43.4662C41.9819 41.4763 40.1425 42.0679 40.1425 42.0679V42.0571Z" fill="white"/>
<path opacity="0.3" d="M64 109.714C99.3462 109.714 128 107.306 128 104.336C128 101.366 99.3462 98.958 64 98.958C28.6538 98.958 0 101.366 0 104.336C0 107.306 28.6538 109.714 64 109.714Z" fill="#4D4D4F"/>
<path d="M86.6204 56.8038L79.4675 51.5655L80.8658 48.8334C81.167 48.2633 81.0379 47.5426 80.5431 47.1339L79.5858 46.4347C79.3491 46.2626 79.048 46.2196 78.7791 46.2949C78.4994 46.3809 78.2735 46.5853 78.166 46.8542L73.3041 56.3735C73.0029 56.9544 73.1428 57.6643 73.6376 58.073L74.5841 58.7722C74.8207 58.9335 75.1219 58.9873 75.3908 58.912C75.6705 58.8367 75.8964 58.6323 76.0147 58.3634L77.7895 54.8139L84.9532 60.0522C85.1898 60.2243 85.491 60.2673 85.7599 60.192C86.0396 60.106 86.2655 59.9016 86.373 59.6327L86.9646 58.5033C87.2658 57.9224 87.1152 57.2125 86.6097 56.8038H86.6204Z" fill="#231F20"/>
<path d="M96.2688 106.487C106.665 106.487 115.092 98.5415 115.092 88.7396C115.092 78.9377 106.665 70.9917 96.2688 70.9917C85.8729 70.9917 77.4453 78.9377 77.4453 88.7396C77.4453 98.5415 85.8729 106.487 96.2688 106.487Z" fill="white"/>
<path d="M29.5799 106.487C39.9758 106.487 48.4034 98.5415 48.4034 88.7396C48.4034 78.9377 39.9758 70.9917 29.5799 70.9917C19.1839 70.9917 10.7563 78.9377 10.7563 88.7396C10.7563 98.5415 19.1839 106.487 29.5799 106.487Z" fill="white"/>
<path d="M96.2796 74.2183C104.917 74.2183 111.865 80.9087 111.865 89.2448V89.6536C111.424 98.022 104.519 104.519 96.2796 104.336C87.7928 104.336 80.8981 97.7961 80.6722 89.6536V89.2448C80.6507 80.9087 87.6423 74.2183 96.2796 74.2183ZM87.3733 89.7073C87.696 94.4294 91.6221 98.0542 96.2796 97.9359C100.948 98.065 104.885 94.4401 105.197 89.7073V89.2986C105.143 86.9537 104.175 84.7164 102.497 83.103C100.819 81.4788 98.5814 80.6075 96.2688 80.672C93.9562 80.6075 91.7081 81.4788 90.0409 83.103C88.3629 84.7272 87.3949 86.9537 87.3411 89.2986C87.3518 89.3524 87.3626 89.5137 87.3733 89.6428V89.7073Z" fill="#231F20"/>
<path d="M29.5798 74.2182C38.1848 74.2182 45.1764 80.9624 45.1764 89.3523C45.1764 90.3096 45.0796 91.2562 44.886 92.192C43.2403 99.4095 36.8511 104.476 29.5798 104.325C20.8995 104.325 13.9832 97.5809 13.9832 89.191V88.5564C14.5963 80.317 21.4588 74.0138 29.5798 74.2182ZM20.6736 89.7611C21.0178 94.4723 24.9331 98.0649 29.5798 97.9359C33.2907 97.9789 36.6467 95.677 37.9805 92.149C38.3247 91.2239 38.4968 90.2343 38.4968 89.2448C38.3139 84.3614 34.3771 80.4999 29.5798 80.4999C24.7825 80.4999 20.8349 84.3614 20.6628 89.2448C20.6521 89.3631 20.6736 89.5459 20.6736 89.6965V89.7611Z" fill="#231F20"/>
<path d="M19.8131 59.719L22.4053 57.2343L19.5334 59.0737L20.6628 37.6256V37.5288C20.6628 37.5288 19.0494 37.034 19.4258 35.5389C19.8023 34.0545 20.8995 34.4632 21.6954 34.517C22.4914 34.5708 33.1186 35.754 33.1186 35.754C35.5926 36.593 35.4742 39.2713 35.8615 40.5405C36.2487 41.8205 39.809 58.0626 39.809 58.0626L25.6968 60.2246L20.7381 38.3032L24.8363 60.1923L19.8131 59.6975V59.719Z" fill="white"/>
<path d="M33.7426 48.5648C33.9147 46.704 34.0652 45.6391 34.1943 44.9077C34.2481 44.542 34.3234 44.187 34.3987 43.8213C34.4632 43.6277 34.4847 43.4233 34.4525 43.219C34.3664 42.864 34.0868 42.5306 33.6673 42.6812C33.2478 42.8317 33.0434 43.4879 32.8821 44.8539C32.7207 45.9941 32.6454 46.7255 32.5701 47.9733C32.5271 48.5326 32.5056 49.0919 32.4626 49.6512L32.5163 49.8879C32.5378 49.9632 32.4948 50.1138 32.4303 50.146C32.3765 50.1675 32.4303 50.146 32.3335 50.0815C32.2474 49.8018 32.1829 49.5114 32.1291 49.221C31.914 48.3067 31.6989 47.3494 31.6236 46.1017C31.5913 45.7682 31.516 45.4455 31.3977 45.1228C31.1933 44.7679 30.7415 44.628 30.3758 44.8217C29.9348 45.0045 29.8703 45.5531 29.7089 46.2738C29.6014 46.7793 29.44 47.6398 29.3002 48.5541C29.1604 49.4684 29.0205 50.5655 29.0205 50.5655L28.999 50.7914L28.9775 51.0173C28.9452 51.1894 28.9237 51.2324 28.8807 51.2647C28.8377 51.2862 28.8807 51.2647 28.7839 51.2001C28.6871 51.1356 28.601 50.4149 28.601 50.0277C28.515 49.2748 28.4827 48.4573 28.4397 47.7259C28.3967 46.9944 28.4074 46.2522 28.3752 45.7252C28.3429 45.5746 28.2999 45.4025 28.3536 45.2842C28.3536 45.0475 28.2676 44.8109 28.1063 44.6388C27.8481 44.499 27.5362 44.499 27.278 44.6388C26.794 44.8324 26.4605 45.2089 26.5251 45.3702C26.5358 45.4025 26.5466 45.4348 26.5466 45.467C26.6326 45.5423 26.6972 45.6284 26.7402 45.7359C26.8155 45.9403 26.8585 46.1447 26.88 46.349L26.9553 47.1665C26.9984 47.984 27.1167 49.4791 27.235 50.4795C27.321 51.2647 27.4501 52.0391 27.633 52.8028C27.7083 53.1255 27.8158 53.4482 27.9449 53.7601C28.0202 54.0936 28.2891 54.4378 28.5903 54.4701C28.8162 54.4808 29.0528 54.427 29.2572 54.3195C29.6014 54.1689 29.838 53.8569 29.8918 53.4805C29.9563 53.0072 29.9994 52.5447 30.0424 52.0822C30.0854 51.6196 30.1822 50.7484 30.2683 49.9524C30.3221 49.5006 30.3973 48.9843 30.4404 48.7154C30.4834 48.4465 30.4726 48.5433 30.5157 48.5326L30.5802 48.7907L30.6447 49.0704C30.8168 50.103 31.0857 51.1248 31.4299 52.1144C31.5268 52.5232 31.6451 53.0287 32.3227 53.0287C32.5056 53.0287 32.6777 52.9857 32.839 52.9104C33.28 52.706 33.3661 52.4156 33.3984 51.9316C33.4306 51.4583 33.5167 50.7806 33.5705 50.2536C33.5382 50.0922 33.592 49.9417 33.6027 49.7803L33.7641 48.5648H33.7426Z" fill="#DB4848"/>
<path d="M20.48 37.647L25.8151 61.3108L19.6517 60.4718L22.2117 57.9226L19.3613 59.8265L20.48 37.647Z" fill="#CFD1D2"/>
<path d="M20.6305 37.6253V37.5285C19.7485 37.2918 19.2107 36.4206 19.3935 35.5278C19.7915 34.0434 20.8671 34.4629 21.6739 34.506C22.4806 34.5597 33.097 35.7429 33.097 35.7429C35.5065 36.5712 35.4527 39.2387 35.8399 40.5402C36.2271 41.831 39.7982 58.073 39.7982 58.073L25.6644 60.235L20.6197 37.55" stroke="#CFD1D2" stroke-width="0.67"/>
<path d="M112.898 64.5376C112.898 64.5376 109.015 70.1201 111.79 73.4223C114.555 76.7245 117.491 78.7574 117.911 76.4878C118.75 73.6267 118.309 70.4966 116.727 68.0334C114.512 64.6667 112.909 64.5376 112.909 64.5376H112.898Z" fill="white"/>
<path d="M3.53876 72.7343C3.68935 71.1961 4.84027 69.9484 6.35691 69.658C6.41069 65.3985 6.84095 61.1497 7.6154 56.9548H80.2742C80.8658 56.9548 81.3391 56.2879 81.3606 55.4596L83.1462 45.381C83.1462 44.4559 74.8746 37.8193 69.5609 34.6139C69.5609 34.6139 68.3778 32.4949 70.8194 32.269L74.7347 34.3988C82.2857 38.5292 98.4739 54.4701 98.4739 54.4701C112.554 59.504 115.544 62.9568 117.932 68.3242C118.33 69.2385 118.631 70.1958 118.814 71.1853L120.955 82.2213C120.955 82.2213 120.955 82.2751 120.955 82.2966H122.654C123.837 82.2966 124.795 83.6411 124.795 85.3191V91.6331C124.795 93.3111 123.837 94.6556 122.654 94.6556H113.371C113.952 92.9884 114.275 91.2458 114.329 89.4926V89.0516C114.329 79.2956 106.079 71.4112 95.9354 71.4112C85.7922 71.4112 77.5529 79.3386 77.5529 89.0516V89.4926C77.6067 91.2566 77.9294 92.9991 78.5102 94.6556H47.0588C47.6396 92.9884 47.9623 91.2458 48.0161 89.4926C48.0161 89.342 48.0161 89.2022 48.0161 89.0516C48.0161 79.2956 39.766 71.4112 29.6228 71.4112C19.4796 71.4112 11.2295 79.3386 11.2295 89.0516V89.6539L9.1428 89.1161C6.19557 88.3847 4.10884 86.0075 3.6033 81.9954C3.11927 78.9299 3.09775 75.8106 3.53876 72.7343ZM113.737 73.8422L117.394 75.8106C117.609 75.9289 117.857 75.5847 117.846 75.0684C117.652 72.3255 116.921 69.658 115.705 67.1948C115.34 66.5924 114.823 66.7 114.533 67.4744L113.275 70.7766C112.898 71.8522 113.135 73.4872 113.748 73.8099L113.726 73.8529L113.737 73.8422ZM88.7179 55.5779C89.4601 52.5769 86.4376 50.06 84.6305 50.4364L83.0924 56.9225C83.0924 56.9225 88.3092 57.299 88.7394 55.5349L88.7179 55.5779Z" fill="#00A9E7"/>
<path d="M49.2471 61.2196C49.9866 60.7331 50.3213 59.9364 49.9949 59.4401C49.6684 58.9438 48.8042 58.9359 48.0648 59.4224C47.3253 59.9089 46.9905 60.7055 47.317 61.2018C47.6435 61.6981 48.5076 61.7061 49.2471 61.2196Z" fill="#231F20"/>
<path d="M44.4558 55.9326C44.4558 55.9326 40.7772 58.7615 45.2518 59.7941L48.4141 60.2351" stroke="#231F20" stroke-width="0.5" stroke-linecap="round" stroke-linejoin="round"/>
<path d="M60.2094 44.6825C60.771 44.4887 60.9921 43.6533 60.7034 42.8166C60.4146 41.9799 59.7253 41.4587 59.1638 41.6525C58.6022 41.8463 58.3811 42.6817 58.6698 43.5184C58.9586 44.3551 59.6479 44.8763 60.2094 44.6825Z" fill="#231F20"/>
<path d="M50.0139 47.7851C50.5754 47.5913 50.7966 46.7559 50.5078 45.9192C50.2191 45.0824 49.5298 44.5613 48.9682 44.7551C48.4066 44.9489 48.1855 45.7842 48.4743 46.621C48.763 47.4577 49.4523 47.9789 50.0139 47.7851Z" fill="#231F20"/>
<path d="M53.7815 49.3391C54.5452 50.4255 56.0618 50.8557 57.3849 50.3502C58.6971 49.8554 59.4178 48.5754 59.0844 47.3276L53.7922 49.3391H53.7815Z" fill="#231F20" stroke="#231F20" stroke-width="0.61" stroke-linecap="round" stroke-linejoin="round"/>
</g>
<defs>
<clipPath id="clip0_159_307">
<rect width="128" height="91.4286" fill="white" transform="translate(0 18.2856)"/>
</clipPath>
</defs>
</svg>
