<svg width="128" height="128" viewBox="0 0 128 128" fill="none" xmlns="http://www.w3.org/2000/svg">
<g clip-path="url(#clip0_159_308)">
<g opacity="0.3" style="mix-blend-mode:multiply">
<path d="M82.0341 114.294C107.42 114.294 128 112.541 128 110.378C128 108.215 107.42 106.462 82.0341 106.462C56.6478 106.462 36.0681 108.215 36.0681 110.378C36.0681 112.541 56.6478 114.294 82.0341 114.294Z" fill="#4D4D4F"/>
</g>
<path d="M74.5442 98.6294C74.5442 98.6294 75.9256 102.698 74.5442 107.336" stroke="#231F20" stroke-width="0.71" stroke-miterlimit="10"/>
<path d="M77.6684 108.916C77.8939 108.202 77.1354 107.325 75.9741 106.958C74.8128 106.592 73.6885 106.873 73.4629 107.587C73.2373 108.301 73.9959 109.178 75.1572 109.545C76.3185 109.911 77.4428 109.63 77.6684 108.916Z" fill="#231F20"/>
<path d="M88.8904 98.0591C88.8904 98.0591 89.9042 102.774 88.8904 106.766" stroke="#231F20" stroke-width="0.71" stroke-miterlimit="10"/>
<path d="M92.0146 108.349C92.2401 107.635 91.4816 106.759 90.3203 106.392C89.159 106.025 88.0347 106.307 87.8091 107.021C87.5835 107.735 88.3421 108.611 89.5034 108.978C90.6647 109.345 91.789 109.063 92.0146 108.349Z" fill="#231F20"/>
<path d="M54.8752 43.8306L62.9861 95.3347C62.6946 95.6642 62.5425 95.9937 62.5298 96.3359C62.4791 98.8579 70.6914 100.581 80.8681 100.176C91.0447 99.7704 99.333 97.4005 99.371 94.8658C99.371 94.5617 99.257 94.2702 99.0288 93.9914L109.028 41.6761C109.066 41.4227 109.079 40.9284 108.762 41.0044C89.2324 45.8963 54.6978 42.652 54.6978 42.652L54.8625 43.8306" fill="#DF5551"/>
<g opacity="0.2" style="mix-blend-mode:multiply">
<path d="M92.2993 98.655C92.9963 98.4396 99.3203 97.223 99.371 94.6883C99.371 94.3841 99.2569 94.0927 99.0288 93.8138L109.028 41.4986C109.066 41.2451 109.079 40.7255 108.762 40.8269C105.302 41.9548 100.537 42.3097 100.537 42.3097" fill="#A32035"/>
</g>
<path d="M108.369 41.3338C109.484 40.1806 109.421 35.6309 104.757 33.1976C90.7912 25.9485 88.7635 18.8768 84.8221 15.8606C81.8565 13.5921 78.3714 13.5794 76.7492 13.7948C74.5948 14.0863 70.7548 15.8352 71.2617 18.5346C71.2617 18.5473 71.2617 18.56 71.2617 18.5853C71.4264 19.9794 72.4783 19.7386 72.529 19.2824C72.5544 19.1936 72.5924 19.1176 72.6304 19.0289C72.6557 18.9909 72.6811 18.9402 72.7191 18.9022C72.7445 18.8641 72.7825 18.8261 72.8078 18.7881C72.9092 18.6614 73.0359 18.5346 73.1627 18.4079C73.188 18.3825 73.2134 18.3572 73.2514 18.3319C73.2514 18.3319 73.2514 18.3319 73.2514 18.3192C73.6443 18.015 74.0878 17.8756 74.4553 17.8123C74.7215 17.7869 75.2538 17.8123 75.9508 18.2178C76.0522 18.2938 76.1662 18.3699 76.2803 18.4586C76.5718 18.8008 76.8252 19.5231 76.1029 20.9679C76.1029 20.9679 76.1029 20.9932 76.0902 21.0059C76.0268 21.1326 75.9508 21.2467 75.8748 21.3734C75.8367 21.4241 75.8114 21.4748 75.7734 21.5255C74.9116 22.7802 73.4288 23.794 72.453 24.3643C72.1361 24.5418 71.8066 24.7192 71.4771 24.8839H71.4518C71.4518 24.8839 55.3187 31.0051 61.3892 35.0479C61.3892 35.0479 53.9627 37.253 55.23 42.88C55.23 42.88 55.5215 43.1334 59.8938 43.6277C67.2569 44.4515 70.8688 44.0332 77.0787 44.3881C85.6712 44.8697 93.8961 43.9699 103.68 43.0447C104.238 42.994 108.04 41.6887 108.382 41.3338H108.369Z" fill="#B7A59C"/>
<path d="M108.952 40.8013C109.865 42.4868 96.8238 44.071 81.996 44.3244C67.1556 44.5779 54.6345 43.7795 54.5964 41.8278" stroke="white" stroke-width="0.67" stroke-miterlimit="10"/>
<path opacity="0.4" d="M70.1591 44.2485C54.2415 36.822 76.5971 31.5119 80.3104 27.8873C84.0236 24.2627 83.2252 17.1911 77.725 15.7336C74.1638 14.7831 70.9068 18.3697 71.7686 19.5736C71.8827 19.7257 72.4783 19.7384 72.5163 19.2821C72.5417 19.1934 72.5797 19.1174 72.6177 19.0287C72.6431 18.9907 72.6684 18.94 72.7064 18.902C72.7318 18.8639 72.7698 18.8259 72.7951 18.7879C72.8965 18.6612 73.0233 18.5344 73.15 18.4077C73.1753 18.3823 73.2007 18.357 73.2387 18.3317C73.2387 18.3317 73.2387 18.3317 73.2387 18.319C73.6316 18.0148 74.0751 17.8754 74.4427 17.812C74.7088 17.7867 75.2411 17.812 75.9381 18.2176C76.0395 18.2936 76.1535 18.3697 76.2676 18.4584C76.5591 18.8006 76.8126 19.5229 76.0902 20.9677C76.0902 20.9677 76.0902 20.993 76.0775 21.0057C76.0141 21.1324 75.9381 21.2465 75.8621 21.3732C75.824 21.4239 75.7987 21.4746 75.7607 21.5253C74.8989 22.78 73.4161 23.7938 72.4403 24.3641C72.1234 24.5416 71.7939 24.719 71.4644 24.8837H71.4391C71.4391 24.8837 55.306 31.0049 61.3765 35.0477C61.3765 35.0477 53.95 37.2528 55.2173 42.8798C55.2173 42.8798 55.5088 43.0572 59.8811 43.6275C60.8696 43.7542 58.0054 43.6275 64.2153 43.9823C72.8078 44.4639 70.1464 44.2612 70.1464 44.2612L70.1591 44.2485Z" fill="white"/>
<path d="M51.2634 56.8331C51.162 57.0866 51.1113 57.34 51.1113 57.5808C51.1113 57.9991 51.2381 58.4046 51.4028 58.7594C51.5676 59.127 51.783 59.4565 51.9731 59.7606C52.7082 60.8632 53.4686 62.0038 54.3684 63.0303C55.2682 64.0569 56.2947 64.9567 57.562 65.565C59.1462 66.3254 60.8697 66.5155 62.568 66.5155C63.1002 66.5155 63.6198 66.5028 64.1394 66.4648C64.3929 66.4521 64.5703 66.2367 64.5577 65.9959C64.545 65.7424 64.3295 65.565 64.0888 65.5777C63.5818 65.603 63.0749 65.6284 62.5553 65.6284C60.9204 65.6284 59.3363 65.4383 57.9295 64.7666C56.8143 64.2343 55.8638 63.4105 55.0274 62.4474C54.1783 61.4842 53.4305 60.3816 52.7082 59.2791C52.5181 59.0002 52.3406 58.6961 52.2012 58.4046C52.0745 58.1131 51.9985 57.8343 51.9985 57.5935C51.9985 57.4541 52.0238 57.3147 52.0745 57.188C52.1759 56.9598 52.0745 56.6937 51.8337 56.605C51.6056 56.5036 51.3394 56.605 51.2507 56.8458L51.2634 56.8331Z" fill="#231F20"/>
<path d="M51.6815 60.7872C52.7587 60.2042 53.329 59.203 52.9742 58.544C52.6193 57.885 51.466 57.8216 50.3888 58.3919C49.3116 58.9749 48.7413 59.9761 49.0835 60.6351C49.4383 61.2941 50.5916 61.3575 51.6688 60.7872" fill="#231F20"/>
<path d="M100.474 65.1466C100.562 65.2353 101.411 66.0338 102.299 67.1617C102.742 67.7193 103.211 68.3656 103.591 69.05C103.984 69.7217 104.288 70.4314 104.44 71.1157C104.592 71.8001 104.605 72.4464 104.402 73.0421C104.199 73.625 103.794 74.1827 103.046 74.6769L103.287 75.0571L103.059 74.6769L97.546 77.9466C97.3306 78.0734 97.2672 78.3522 97.394 78.5549C97.5207 78.7704 97.7995 78.8338 98.0023 78.707L103.515 75.4373H103.528C104.415 74.8417 104.973 74.1193 105.239 73.3336C105.505 72.5478 105.492 71.7241 105.302 70.913C105.112 70.0892 104.744 69.2781 104.314 68.5304C103.008 66.2872 101.069 64.5003 101.057 64.4876C100.879 64.3229 100.588 64.3355 100.423 64.513C100.258 64.6904 100.271 64.9819 100.448 65.1466H100.474Z" fill="#231F20"/>
<path d="M99.3457 79.0367C99.1682 77.8327 98.4205 76.9456 97.6855 77.047C96.9504 77.161 96.4815 78.2256 96.6589 79.4295C96.8363 80.6335 97.5841 81.5206 98.3191 81.4192C99.0542 81.3052 99.5231 80.2406 99.3457 79.0367Z" fill="#231F20"/>
<path d="M42.557 49.0164L43.8595 48.639C43.8796 48.6332 43.8913 48.6121 43.8854 48.5919L39.9914 35.1534C39.9855 35.1333 39.9644 35.1217 39.9443 35.1275L38.6418 35.5049C38.6216 35.5108 38.61 35.5318 38.6159 35.552L42.5099 48.9905C42.5158 49.0106 42.5368 49.0223 42.557 49.0164Z" fill="#FFDF40"/>
<path d="M46.3544 47.9896L47.6568 47.6121C47.677 47.6063 47.6886 47.5852 47.6828 47.565L43.7887 34.1266C43.7829 34.1064 43.7618 34.0948 43.7416 34.1006L42.4392 34.4781C42.419 34.4839 42.4074 34.505 42.4132 34.5252L46.3073 47.9636C46.3131 47.9838 46.3342 47.9954 46.3544 47.9896Z" fill="#FFDF40"/>
<path d="M41.5683 49.0391H42.9244C42.9454 49.0391 42.9624 49.022 42.9624 49.001V35.0098C42.9624 34.9888 42.9454 34.9717 42.9244 34.9717H41.5683C41.5473 34.9717 41.5303 34.9888 41.5303 35.0098V49.001C41.5303 49.022 41.5473 49.0391 41.5683 49.0391Z" fill="#FFDF40"/>
<path d="M47.7917 49.266L49.1454 49.1863C49.1664 49.1851 49.1823 49.1671 49.1811 49.1461L48.3587 35.179C48.3574 35.1581 48.3394 35.1421 48.3185 35.1433L46.9648 35.223C46.9438 35.2243 46.9278 35.2423 46.9291 35.2632L47.7515 49.2303C47.7527 49.2513 47.7707 49.2673 47.7917 49.266Z" fill="#FFDF40"/>
<path d="M40.6347 49.4423L41.9884 49.3626C42.0094 49.3614 42.0254 49.3434 42.0241 49.3224L41.2017 35.3553C41.2004 35.3343 41.1824 35.3184 41.1615 35.3196L39.8078 35.3993C39.7868 35.4005 39.7708 35.4185 39.7721 35.4395L40.5945 49.4066C40.5958 49.4275 40.6138 49.4435 40.6347 49.4423Z" fill="#FFDF40"/>
<path d="M44.0268 49.0391H45.3829C45.4039 49.0391 45.4209 49.022 45.4209 49.001V35.0098C45.4209 34.9888 45.4039 34.9717 45.3829 34.9717H44.0268C44.0058 34.9717 43.9888 34.9888 43.9888 35.0098V49.001C43.9888 49.022 44.0058 49.0391 44.0268 49.0391Z" fill="#FFDF40"/>
<path d="M44.5685 48.6065L45.8463 49.0605C45.866 49.0675 45.8878 49.0572 45.8948 49.0374L50.579 35.8535C50.586 35.8338 50.5757 35.812 50.5559 35.805L49.2781 35.351C49.2583 35.344 49.2366 35.3543 49.2296 35.3741L44.5454 48.558C44.5383 48.5778 44.5487 48.5995 44.5685 48.6065Z" fill="#FFDF40"/>
<path d="M43.2453 49.9735L44.4758 49.4037C44.4948 49.3948 44.5031 49.3722 44.4943 49.3532L38.6145 36.6573C38.6057 36.6383 38.5831 36.63 38.564 36.6388L37.3336 37.2087C37.3145 37.2175 37.3062 37.2401 37.315 37.2592L43.1948 49.955C43.2036 49.9741 43.2262 49.9824 43.2453 49.9735Z" fill="#FFDF40"/>
<path d="M52.245 37.8571L51.1707 37.0296C51.1541 37.0167 51.1302 37.0198 51.1174 37.0365L42.5788 48.1201C42.566 48.1368 42.5691 48.1606 42.5857 48.1735L43.6599 49.001C43.6766 49.0138 43.7004 49.0107 43.7132 48.9941L52.2519 37.9104C52.2647 37.8938 52.2616 37.8699 52.245 37.8571Z" fill="#FFDF40"/>
<path d="M39.5863 48.074L40.8888 47.6966C40.9089 47.6908 40.9206 47.6697 40.9147 47.6495L37.0206 34.2111C37.0148 34.1909 36.9937 34.1793 36.9735 34.1851L35.6711 34.5625C35.6509 34.5684 35.6393 34.5895 35.6452 34.6096L39.5392 48.0481C39.5451 48.0683 39.5661 48.0799 39.5863 48.074Z" fill="#FFDF40"/>
<path d="M38.5774 48.0889H39.9334C39.9544 48.0889 39.9714 48.0718 39.9714 48.0508V34.0596C39.9714 34.0386 39.9544 34.0215 39.9334 34.0215H38.5774C38.5564 34.0215 38.5394 34.0386 38.5394 34.0596V48.0508C38.5394 48.0718 38.5564 48.0889 38.5774 48.0889Z" fill="#FFDF40"/>
<path d="M37.6684 48.4926L39.0221 48.4129C39.0431 48.4116 39.0591 48.3937 39.0578 48.3727L38.2354 34.4056C38.2341 34.3846 38.2161 34.3686 38.1952 34.3699L36.8415 34.4496C36.8205 34.4508 36.8045 34.4688 36.8058 34.4898L37.6282 48.4569C37.6295 48.4778 37.6475 48.4938 37.6684 48.4926Z" fill="#FFDF40"/>
<path d="M41.3951 47.7388L42.7503 47.6918C42.7713 47.691 42.7877 47.6734 42.787 47.6524L42.3012 33.6696C42.3004 33.6486 42.2828 33.6322 42.2618 33.6329L40.9066 33.68C40.8856 33.6807 40.8692 33.6983 40.8699 33.7193L41.3558 47.7022C41.3565 47.7231 41.3741 47.7396 41.3951 47.7388Z" fill="#FFDF40"/>
<path d="M46.5683 48.9424L47.8831 49.2744C47.9034 49.2795 47.9241 49.2672 47.9292 49.2468L51.3543 35.6812C51.3594 35.6609 51.3471 35.6402 51.3267 35.6351L50.012 35.3031C49.9916 35.298 49.9709 35.3103 49.9658 35.3307L46.5407 48.8963C46.5356 48.9166 46.5479 48.9373 46.5683 48.9424Z" fill="#FFDF40"/>
<path d="M45.5735 47.7861L46.9055 48.0402C46.9261 48.0442 46.9461 48.0306 46.95 48.01L49.5717 34.2666C49.5756 34.2459 49.5621 34.226 49.5415 34.2221L48.2095 33.968C48.1888 33.9641 48.1689 33.9776 48.165 33.9982L45.5433 47.7417C45.5393 47.7623 45.5529 47.7822 45.5735 47.7861Z" fill="#FFDF40"/>
<path d="M47.8649 47.7803L49.1975 47.529C49.2181 47.5251 49.2317 47.5052 49.2278 47.4846L46.6349 33.7357C46.631 33.7151 46.6111 33.7015 46.5905 33.7054L45.2579 33.9567C45.2373 33.9606 45.2237 33.9805 45.2276 34.0011L47.8205 47.75C47.8244 47.7706 47.8443 47.7842 47.8649 47.7803Z" fill="#FFDF40"/>
<path d="M40.2774 49.0319L41.508 48.4623C41.527 48.4534 41.5353 48.4308 41.5265 48.4118L35.649 35.7149C35.6401 35.6959 35.6176 35.6876 35.5985 35.6964L34.3679 36.266C34.3489 36.2749 34.3406 36.2975 34.3494 36.3165L40.2269 49.0134C40.2357 49.0324 40.2583 49.0407 40.2774 49.0319Z" fill="#FFDF40"/>
<path d="M41.715 49.0186L42.9927 49.4726C43.0125 49.4797 43.0343 49.4693 43.0413 49.4495L47.7255 36.2657C47.7325 36.2459 47.7222 36.2241 47.7024 36.2171L46.4246 35.7631C46.4048 35.7561 46.3831 35.7664 46.3761 35.7862L41.6919 48.9701C41.6848 48.9899 41.6952 49.0116 41.715 49.0186Z" fill="#FFDF40"/>
<path d="M40.223 47.4298L41.5008 47.8838C41.5206 47.8908 41.5423 47.8804 41.5494 47.8607L46.2335 34.6768C46.2406 34.657 46.2302 34.6353 46.2104 34.6282L44.9327 34.1742C44.9129 34.1672 44.8911 34.1776 44.8841 34.1973L40.1999 47.3812C40.1929 47.401 40.2032 47.4227 40.223 47.4298Z" fill="#FFDF40"/>
<path d="M39.1731 55.414H48.0444L51.4789 39.3569H35.2698L39.1731 55.414Z" fill="white" stroke="#D0D2D3" stroke-width="0.64" stroke-miterlimit="10"/>
<path d="M38.9196 51.3838C36.9426 55.9588 32.773 56.7066 27.9445 56.7066C23.116 56.7066 18.9465 55.9462 16.9695 51.3838H38.9196Z" fill="#C68938"/>
<path d="M38.1973 52.6001C37.9185 52.6254 17.7046 52.6508 17.7046 52.6508L27.8939 54.7292L38.1846 52.6001H38.1973Z" fill="#F5D343"/>
<path d="M16.6907 52.5117L27.9445 53.5382L39.2111 52.5117V49.394L27.9445 50.4206L16.6907 49.394V52.5117Z" fill="#603813"/>
<path d="M27.9446 53.5382V50.4206L39.2111 49.394V52.5117L27.9446 53.5382Z" fill="#3B221D"/>
<path d="M39.2111 49.3179C38.9323 49.3432 16.6907 49.3179 16.6907 49.3179L27.9572 50.4585L39.2237 49.3179H39.2111Z" fill="#F5D343"/>
<path d="M29.0471 49.6094H38.2478C38.2618 49.6094 38.2732 49.598 38.2732 49.584V48.6589C38.2732 48.6449 38.2618 48.6335 38.2478 48.6335H29.0471C29.0331 48.6335 29.0217 48.6449 29.0217 48.6589V49.584C29.0217 49.598 29.0331 49.6094 29.0471 49.6094Z" fill="#DE3134"/>
<path d="M18.6171 49.6094H27.8179C27.8319 49.6094 27.8433 49.598 27.8433 49.584V48.6589C27.8433 48.6449 27.8319 48.6335 27.8179 48.6335H18.6171C18.6031 48.6335 18.5918 48.6449 18.5918 48.6589V49.584C18.5918 49.598 18.6031 49.6094 18.6171 49.6094Z" fill="#DE3134"/>
<path d="M39.5025 48.6715C38.9322 48.9883 38.2605 49.0137 37.6142 49.039C35.7512 49.0897 33.8883 49.1404 32.0253 49.001C31.3409 48.9503 30.6312 48.8743 29.9722 49.0644C29.3512 49.2418 28.7556 49.6473 28.1092 49.5586C27.7417 49.5079 27.4122 49.3052 27.0574 49.1784C26.6645 49.0517 26.2463 49.0264 25.8281 49.0137C23.5469 48.925 21.2657 48.9757 18.9718 49.0137C18.11 49.0264 17.2483 49.0517 16.3865 49.0644C16.7413 48.9123 16.9188 48.5068 17.2229 48.266C17.5271 48.0378 17.9199 47.9745 18.3001 47.9365C24.2566 47.2901 30.289 47.4042 36.2201 48.266C36.8538 48.3547 37.4114 48.3673 38.0451 48.3293C38.5647 48.2913 39.0209 48.5068 39.5279 48.6715H39.5025Z" fill="#97C952"/>
<path d="M17.261 48.2915C19.162 43.7165 23.1794 42.9688 27.8432 42.9688C32.5069 42.9688 36.5244 43.7291 38.4253 48.2915H17.261Z" fill="#C68938"/>
<path d="M28.0079 47.1003C31.3185 47.1003 34.0023 46.3683 34.0023 45.4654C34.0023 44.5625 31.3185 43.8306 28.0079 43.8306C24.6972 43.8306 22.0134 44.5625 22.0134 45.4654C22.0134 46.3683 24.6972 47.1003 28.0079 47.1003Z" fill="#EBC28B"/>
<path d="M76.764 53.3893C76.8923 52.1853 76.3925 51.1449 75.6478 51.0656C74.9031 50.9862 74.1954 51.898 74.0672 53.1021C73.9389 54.3061 74.4387 55.3465 75.1834 55.4259C75.9281 55.5052 76.6358 54.5934 76.764 53.3893Z" fill="#231F20"/>
<path d="M91.3709 54.3889C91.4992 53.1848 90.9995 52.1444 90.2547 52.0651C89.51 51.9858 88.8024 52.8975 88.6741 54.1016C88.5459 55.3057 89.0456 56.346 89.7903 56.4254C90.535 56.5047 91.2427 55.5929 91.3709 54.3889Z" fill="#231F20"/>
<path d="M85.4431 59.6975C85.1136 61.6111 83.1745 62.8658 81.1088 62.5109C79.0431 62.1561 77.6363 60.3184 77.9658 58.4048L85.4431 59.6848V59.6975Z" fill="#231F20" stroke="#231F20" stroke-width="0.7" stroke-linecap="round" stroke-linejoin="round"/>
<path d="M15.2839 33.0964C20.4074 33.0964 24.5607 32.6198 24.5607 32.0318C24.5607 31.4439 20.4074 30.9673 15.2839 30.9673C10.1605 30.9673 6.00708 31.4439 6.00708 32.0318C6.00708 32.6198 10.1605 33.0964 15.2839 33.0964Z" fill="#CCCCCC"/>
<path d="M14.4826 31.9841L16.0198 32.4165L19.1184 21.4L17.5813 20.9677L14.4826 31.9841Z" fill="#E6E6E6" stroke="#D0D2D3" stroke-width="0.21" stroke-miterlimit="10"/>
<path d="M6.34928 32.7288L9.09938 54.7296C8.99799 54.869 8.9473 55.0084 8.9473 55.1604C8.93462 56.2377 11.7227 56.9727 15.1699 56.7953C18.6297 56.6179 21.4305 55.604 21.4558 54.5268C21.4558 54.4 21.4178 54.2733 21.3418 54.1466L24.7382 31.7909C24.7509 31.6896 24.6495 32.0064 24.5354 32.0317C13.3196 34.3383 6.29858 32.2092 6.29858 32.2092L6.34928 32.7161" fill="#DF5551"/>
<path d="M24.8649 31.626L24.5734 31.664V31.6386C24.5734 31.6513 24.3833 32.0442 21.8486 32.4244C20.1377 32.6779 17.9073 32.8553 15.588 32.906C13.2435 32.9567 10.9877 32.8806 9.22607 32.6905C6.61537 32.4117 6.43795 32.0188 6.42527 32.0062C6.42527 32.0062 6.42527 32.0062 6.42527 32.0188H6.13379C6.13379 32.2216 6.13379 32.7032 9.03597 33.0327C10.8229 33.2355 13.1421 33.3242 15.588 33.2735C17.8566 33.2228 20.0364 33.0581 21.7473 32.8173C23.5088 32.5638 24.5227 32.247 24.7762 31.9048C24.8522 31.8034 24.8522 31.702 24.8522 31.6386L24.8649 31.626Z" fill="white"/>
<path d="M0.11396 59.0259L61.3005 59.0259C61.3635 59.0259 61.4146 58.9748 61.4146 58.9118V55.414C61.4146 55.351 61.3635 55.2999 61.3005 55.2999L0.11396 55.2999C0.0509644 55.2999 -9.91821e-05 55.351 -9.91821e-05 55.414V58.9118C-9.91821e-05 58.9748 0.0509644 59.0259 0.11396 59.0259Z" fill="#3B221D"/>
</g>
<defs>
<clipPath id="clip0_159_308">
<rect width="128" height="100.588" fill="white" transform="translate(0 13.7061)"/>
</clipPath>
</defs>
</svg>
