<svg width="128" height="128" viewBox="0 0 128 128" fill="none" xmlns="http://www.w3.org/2000/svg">
<g clip-path="url(#clip0_159_309)">
<path d="M127.988 26.0346C127.891 21.7128 124.506 18.231 120.342 18.231H107.937C103.712 18.231 100.292 21.8102 100.292 26.2173V26.3268C100.292 26.7286 100.328 27.1303 100.389 27.5199V94.6974H128V26.0346H127.988Z" fill="#D0D2D3"/>
<path d="M123.483 31.2939H105.003V45.4039H123.483V31.2939Z" fill="#66CCF1"/>
<path d="M114.876 20.0815H113.756C113.635 20.0815 113.537 20.1797 113.537 20.3007C113.537 20.4217 113.635 20.5198 113.756 20.5198H114.876C114.997 20.5198 115.095 20.4217 115.095 20.3007C115.095 20.1797 114.997 20.0815 114.876 20.0815Z" fill="#6B6B6B"/>
<path d="M115.996 20.7271H112.624C112.503 20.7271 112.405 20.8252 112.405 20.9462C112.405 21.0672 112.503 21.1653 112.624 21.1653H115.996C116.117 21.1653 116.215 21.0672 116.215 20.9462C116.215 20.8252 116.117 20.7271 115.996 20.7271Z" fill="#6B6B6B"/>
<path d="M116.495 21.3599H112.125C112.004 21.3599 111.906 21.458 111.906 21.579C111.906 21.7 112.004 21.7981 112.125 21.7981H116.495C116.616 21.7981 116.715 21.7 116.715 21.579C116.715 21.458 116.616 21.3599 116.495 21.3599Z" fill="#6B6B6B"/>
<path d="M75.4803 54.0356C75.6264 54.6565 75.1516 55.2409 74.7133 55.7157C73.4228 57.0792 72.0593 58.5036 70.2575 59.0149C68.7844 59.441 67.2018 59.1975 65.7043 58.8566" stroke="#231F20" stroke-width="0.52" stroke-linecap="round" stroke-linejoin="round"/>
<path d="M77.3561 55.6687C77.679 55.2469 77.3823 54.4777 76.6936 53.9505C76.0048 53.4233 75.1847 53.3379 74.8619 53.7597C74.5391 54.1815 74.8357 54.9508 75.5245 55.478C76.2132 56.0051 77.0333 56.0905 77.3561 55.6687Z" fill="#231F20"/>
<path d="M75.4803 54.0356C75.6264 54.6565 75.1516 55.2409 74.7133 55.7157C73.4228 57.0792 72.0593 58.5036 70.2575 59.0149C68.7844 59.441 67.2018 59.1975 65.7043 58.8566" stroke="#231F20" stroke-width="0.52" stroke-linecap="round" stroke-linejoin="round"/>
<path d="M77.3561 55.6687C77.679 55.2469 77.3823 54.4777 76.6936 53.9505C76.0048 53.4233 75.1847 53.3379 74.8619 53.7597C74.5391 54.1815 74.8357 54.9508 75.5245 55.478C76.2132 56.0051 77.0333 56.0905 77.3561 55.6687Z" fill="#231F20"/>
<path d="M75.4803 54.0356C75.6264 54.6565 75.1516 55.2409 74.7133 55.7157C73.4228 57.0792 72.0593 58.5036 70.2575 59.0149C68.7844 59.441 67.2018 59.1975 65.7043 58.8566" stroke="#231F20" stroke-width="0.52" stroke-linecap="round" stroke-linejoin="round"/>
<path d="M77.3561 55.6687C77.679 55.2469 77.3823 54.4777 76.6936 53.9505C76.0048 53.4233 75.1847 53.3379 74.8619 53.7597C74.5391 54.1815 74.8357 54.9508 75.5245 55.478C76.2132 56.0051 77.0333 56.0905 77.3561 55.6687Z" fill="#231F20"/>
<path d="M116.727 22.0054H111.893C111.772 22.0054 111.674 22.1035 111.674 22.2245C111.674 22.3455 111.772 22.4436 111.893 22.4436H116.727C116.848 22.4436 116.946 22.3455 116.946 22.2245C116.946 22.1035 116.848 22.0054 116.727 22.0054Z" fill="#6B6B6B"/>
<path d="M116.8 22.6382H111.833C111.712 22.6382 111.614 22.7363 111.614 22.8573C111.614 22.9783 111.712 23.0765 111.833 23.0765H116.8C116.921 23.0765 117.019 22.9783 117.019 22.8573C117.019 22.7363 116.921 22.6382 116.8 22.6382Z" fill="#6B6B6B"/>
<path d="M113.756 25.645H114.876C114.997 25.645 115.095 25.5469 115.095 25.4259C115.095 25.3049 114.997 25.2067 114.876 25.2067H113.756C113.635 25.2067 113.537 25.3049 113.537 25.4259C113.537 25.5469 113.635 25.645 113.756 25.645Z" fill="#6B6B6B"/>
<path d="M112.636 25H116.008C116.129 25 116.228 24.9019 116.228 24.7809C116.228 24.6598 116.129 24.5617 116.008 24.5617H112.636C112.515 24.5617 112.417 24.6598 112.417 24.7809C112.417 24.9019 112.515 25 112.636 25Z" fill="#6B6B6B"/>
<path d="M112.137 24.3672H116.507C116.628 24.3672 116.727 24.2691 116.727 24.1481C116.727 24.027 116.628 23.9289 116.507 23.9289H112.137C112.016 23.9289 111.918 24.027 111.918 24.1481C111.918 24.2691 112.016 24.3672 112.137 24.3672Z" fill="#6B6B6B"/>
<path d="M28.8165 53.2079L47.7474 85.0679C47.6379 85.3601 47.6257 85.6279 47.7109 85.847C48.344 87.5271 54.2241 86.4923 60.8226 83.5461C67.4332 80.5999 72.2785 76.8381 71.6333 75.1702C71.5602 74.9633 71.402 74.805 71.1828 74.6833L63.9879 37.5153C63.9513 37.3448 63.8296 37.004 63.6348 37.1379C52.0328 45.5138 28.3904 52.4896 28.3904 52.4896L28.8043 53.2201" fill="#DF5551"/>
<g opacity="0.2" style="mix-blend-mode:multiply">
<path d="M68.0298 79.6257C68.4316 79.3092 72.2786 76.8256 71.6455 75.1456C71.5725 74.9386 71.4142 74.7803 71.1951 74.6586L64.0001 37.4906C63.9636 37.3202 63.8297 36.9671 63.6471 37.1132C61.6627 38.7689 58.6069 40.2542 58.6069 40.2542" fill="#A32035"/>
</g>
<path d="M63.4645 37.4421C63.9027 36.3829 62.6609 33.4002 58.9356 33.0228C47.8084 31.915 44.6065 27.7879 41.1978 26.8383C38.6412 26.12 36.3402 27.0331 35.3298 27.6053C33.9784 28.3601 31.921 30.5393 32.9558 32.1828C32.9558 32.1828 32.9558 32.2072 32.968 32.2072C33.4549 33.0837 34.0758 32.6454 33.9906 32.3411C33.9906 32.2802 33.9906 32.2193 33.9906 32.1463C33.9906 32.1098 34.0028 32.0732 34.015 32.0367C34.015 32.0002 34.0271 31.9758 34.0393 31.9393C34.0758 31.8298 34.1245 31.708 34.1732 31.5984C34.1854 31.5741 34.1976 31.5497 34.2097 31.5254C34.2097 31.5254 34.2097 31.5254 34.2097 31.5132C34.3924 31.2089 34.648 31.0019 34.8672 30.868C35.0376 30.7828 35.3906 30.6488 35.9628 30.7341C36.0481 30.7584 36.1454 30.7828 36.2428 30.8071C36.5228 30.9532 36.8881 31.3671 36.7785 32.5115C36.7785 32.5115 36.7785 32.5237 36.7785 32.5359C36.7785 32.6333 36.7542 32.7306 36.7298 32.828C36.7298 32.8646 36.7176 32.9133 36.7055 32.9498C36.462 34.0089 35.7559 35.0559 35.2567 35.7012C35.0985 35.9081 34.928 36.1029 34.7454 36.3099C34.7454 36.3099 25.7121 44.6127 30.7888 45.6719C30.7888 45.6719 26.4791 49.0928 28.7922 52.4651C28.7922 52.4651 29.0479 52.5625 32.0671 51.7225C37.1437 50.3224 39.4203 49.105 43.6083 47.6928C49.4032 45.7449 54.6016 42.9814 60.7983 39.7917C61.1513 39.6091 63.3184 37.7464 63.4523 37.4177L63.4645 37.4421Z" fill="#B7A59C"/>
<path d="M63.7078 36.9429C64.7548 37.8072 56.5615 42.2995 46.8465 46.3779C37.1193 50.4563 28.646 53.232 28.0981 51.9537" stroke="white" stroke-width="0.49" stroke-miterlimit="10"/>
<path opacity="0.4" d="M39.0186 49.4582C26.5521 48.7521 39.9073 39.3536 41.4047 35.9813C42.9022 32.6091 40.5038 28.1533 36.4985 28.6403C33.9054 28.9568 32.7001 32.1708 33.5767 32.743C33.6862 32.816 34.088 32.6578 33.9906 32.3534C33.9906 32.2925 33.9906 32.2317 33.9906 32.1586C33.9906 32.1221 34.0028 32.0856 34.015 32.049C34.015 32.0125 34.0271 31.9882 34.0393 31.9516C34.0758 31.8421 34.1245 31.7203 34.1732 31.6108C34.1854 31.5864 34.1976 31.5621 34.2097 31.5377C34.2097 31.5377 34.2097 31.5377 34.2097 31.5255C34.3924 31.2212 34.648 31.0142 34.8672 30.8803C35.0376 30.7951 35.3906 30.6612 35.9628 30.7464C36.0481 30.7707 36.1454 30.7951 36.2428 30.8194C36.5228 30.9655 36.8881 31.3795 36.7785 32.5238C36.7785 32.5238 36.7785 32.536 36.7785 32.5482C36.7785 32.6456 36.7542 32.743 36.7298 32.8404C36.7298 32.8769 36.7176 32.9256 36.7055 32.9621C36.462 34.0213 35.7559 35.0683 35.2567 35.7135C35.0985 35.9204 34.928 36.1152 34.7454 36.3222C34.7454 36.3222 25.7121 44.625 30.7888 45.6842C30.7888 45.6842 26.4791 49.1052 28.7922 52.4774C28.7922 52.4774 29.0357 52.5139 32.0671 51.7348C32.7488 51.5644 30.8253 52.2339 35.0254 50.8217C40.8204 48.8738 39.0186 49.4339 39.0186 49.4339V49.4582Z" fill="white"/>
<path d="M111.906 23.7217H116.739C116.86 23.7217 116.958 23.6236 116.958 23.5025C116.958 23.3815 116.86 23.2834 116.739 23.2834H111.906C111.785 23.2834 111.687 23.3815 111.687 23.5025C111.687 23.6236 111.785 23.7217 111.906 23.7217Z" fill="#6B6B6B"/>
<path d="M114.815 51.6982H113.695C113.574 51.6982 113.476 51.7964 113.476 51.9174C113.476 52.0384 113.574 52.1365 113.695 52.1365H114.815C114.936 52.1365 115.034 52.0384 115.034 51.9174C115.034 51.7964 114.936 51.6982 114.815 51.6982Z" fill="#6B6B6B"/>
<path d="M115.935 52.3311H112.563C112.442 52.3311 112.344 52.4292 112.344 52.5502C112.344 52.6712 112.442 52.7693 112.563 52.7693H115.935C116.056 52.7693 116.155 52.6712 116.155 52.5502C116.155 52.4292 116.056 52.3311 115.935 52.3311Z" fill="#6B6B6B"/>
<path d="M116.434 52.9766H112.064C111.943 52.9766 111.845 53.0747 111.845 53.1957C111.845 53.3167 111.943 53.4148 112.064 53.4148H116.434C116.555 53.4148 116.654 53.3167 116.654 53.1957C116.654 53.0747 116.555 52.9766 116.434 52.9766Z" fill="#6B6B6B"/>
<path d="M116.666 53.6094H111.833C111.712 53.6094 111.614 53.7075 111.614 53.8285C111.614 53.9495 111.712 54.0476 111.833 54.0476H116.666C116.787 54.0476 116.885 53.9495 116.885 53.8285C116.885 53.7075 116.787 53.6094 116.666 53.6094Z" fill="#6B6B6B"/>
<path d="M116.739 54.2549H111.772C111.651 54.2549 111.552 54.353 111.552 54.474C111.552 54.595 111.651 54.6932 111.772 54.6932H116.739C116.86 54.6932 116.958 54.595 116.958 54.474C116.958 54.353 116.86 54.2549 116.739 54.2549Z" fill="#6B6B6B"/>
<path d="M113.683 57.2373H114.803C114.924 57.2373 115.022 57.1392 115.022 57.0182C115.022 56.8971 114.924 56.799 114.803 56.799H113.683C113.562 56.799 113.464 56.8971 113.464 57.0182C113.464 57.1392 113.562 57.2373 113.683 57.2373Z" fill="#6B6B6B"/>
<path d="M112.563 56.6045H115.935C116.056 56.6045 116.155 56.5064 116.155 56.3854C116.155 56.2643 116.056 56.1662 115.935 56.1662H112.563C112.442 56.1662 112.344 56.2643 112.344 56.3854C112.344 56.5064 112.442 56.6045 112.563 56.6045Z" fill="#6B6B6B"/>
<path d="M112.064 55.959H116.434C116.555 55.959 116.654 55.8609 116.654 55.7398C116.654 55.6188 116.555 55.5207 116.434 55.5207H112.064C111.943 55.5207 111.845 55.6188 111.845 55.7398C111.845 55.8609 111.943 55.959 112.064 55.959Z" fill="#6B6B6B"/>
<path d="M111.833 55.3262H116.666C116.787 55.3262 116.885 55.2281 116.885 55.107C116.885 54.986 116.787 54.8879 116.666 54.8879H111.833C111.712 54.8879 111.614 54.986 111.614 55.107C111.614 55.2281 111.712 55.3262 111.833 55.3262Z" fill="#6B6B6B"/>
<path d="M101.448 27.4712L126.856 27.4712C126.95 27.4712 127.026 27.3976 127.026 27.3068C127.026 27.2161 126.95 27.1425 126.856 27.1425L101.448 27.1425C101.354 27.1425 101.278 27.2161 101.278 27.3068C101.278 27.3976 101.354 27.4712 101.448 27.4712Z" fill="#6B6B6B"/>
<path d="M93.8877 111.279C104.498 111.279 113.099 102.678 113.099 92.0679C113.099 81.458 104.498 72.8569 93.8877 72.8569C83.2778 72.8569 74.6768 81.458 74.6768 92.0679C74.6768 102.678 83.2778 111.279 93.8877 111.279Z" fill="white"/>
<path d="M29.559 111.279C39.9941 111.279 48.4534 102.82 48.4534 92.3847C48.4534 81.9496 39.9941 73.4902 29.559 73.4902C19.1239 73.4902 10.6646 81.9496 10.6646 92.3847C10.6646 102.82 19.1239 111.279 29.559 111.279Z" fill="white"/>
<path d="M71.2437 35.1531C71.4872 32.2313 69.5515 29.5164 66.7514 28.7129C65.8749 28.4573 65.4975 29.8208 66.374 30.0764C68.6019 30.7095 70.0263 32.84 69.8315 35.1531C69.795 35.5305 70.1846 35.8592 70.5376 35.8592C70.9515 35.8592 71.2072 35.5305 71.2437 35.1531Z" fill="#00A9E7"/>
<path d="M73.995 34.9097C74.3115 31.0383 71.7793 27.4591 68.0661 26.3999C67.1896 26.1443 66.8122 27.5078 67.6887 27.7635C70.8419 28.6643 72.8506 31.6714 72.5828 34.9219C72.5462 35.2993 72.9358 35.628 73.2889 35.628C73.7028 35.628 73.9585 35.2993 73.995 34.9219V34.9097Z" fill="#00A9E7"/>
<path d="M68.6505 35.0317C68.7966 33.2786 67.6157 31.6595 65.9356 31.1725C65.5826 31.0751 65.1565 31.2942 65.0713 31.6716C64.9861 32.049 65.1808 32.4264 65.5704 32.536C65.6556 32.5604 65.7287 32.5847 65.8017 32.6091C65.8261 32.6091 65.8626 32.6456 65.8991 32.6456C65.7652 32.6212 65.8383 32.6212 65.8991 32.6456C66.0452 32.7186 66.1791 32.7917 66.3131 32.8769C66.3374 32.8891 66.447 32.9743 66.3617 32.9134C66.2887 32.8525 66.3617 32.9134 66.3861 32.9378C66.447 32.9865 66.5078 33.0473 66.5687 33.1082C66.6174 33.1569 66.6783 33.2178 66.727 33.2665C66.7513 33.303 66.7757 33.3273 66.8122 33.3639C66.7148 33.2299 66.8731 33.4369 66.8122 33.3639C66.9096 33.4978 66.9826 33.6317 67.0557 33.7778C67.0557 33.79 67.1165 33.9361 67.0922 33.8387C67.0679 33.7413 67.1044 33.8874 67.1166 33.8995C67.1409 33.9726 67.1652 34.0578 67.1896 34.1308C67.2139 34.2161 67.2383 34.3013 67.2505 34.3865C67.2505 34.4109 67.2505 34.5082 67.2748 34.5204C67.2505 34.5082 67.2626 34.3865 67.2748 34.4961C67.2748 34.6787 67.287 34.8491 67.2748 35.0317C67.2383 35.397 67.6157 35.75 67.9809 35.7378C68.3948 35.7135 68.6505 35.4213 68.687 35.0317H68.6505Z" fill="#00A9E7"/>
<path d="M100.462 15.0778C97.601 15.6743 95.5313 18.304 95.5679 21.2136C95.5679 22.1267 96.9922 22.1267 96.9801 21.2136C96.9679 20.1058 97.321 18.9614 98.0514 18.097C98.7819 17.2327 99.7315 16.6726 100.839 16.4413C101.217 16.3683 101.424 15.9178 101.338 15.577C101.229 15.1874 100.839 15.0048 100.474 15.0778H100.462Z" fill="#00A9E7"/>
<path d="M99.4393 12.5095C95.6531 13.3008 92.9139 16.7583 92.9626 20.6175C92.9626 21.5306 94.3869 21.5306 94.3748 20.6175C94.3382 17.3426 96.627 14.5426 99.8166 13.873C100.705 13.6904 100.328 12.3268 99.4393 12.5095Z" fill="#00A9E7"/>
<path d="M101.083 17.5981C99.3662 17.9634 98.1244 19.546 98.1488 21.2869C98.1488 21.6522 98.4653 22.0052 98.8549 21.993C99.2445 21.9809 99.561 21.6765 99.561 21.2869C99.561 21.2017 99.561 21.1165 99.561 21.0435C99.561 21.0069 99.561 20.9582 99.561 20.9217C99.561 20.8365 99.5366 21.0678 99.561 20.9339C99.5853 20.7756 99.634 20.6052 99.6827 20.4469C99.6827 20.4226 99.7436 20.3252 99.7314 20.3008C99.7314 20.3252 99.6706 20.4226 99.7193 20.3373C99.7558 20.2643 99.7923 20.1913 99.8288 20.1182C99.8654 20.0452 99.9141 19.9721 99.9627 19.9112C99.9749 19.8869 100.048 19.8139 100.048 19.7895C99.9627 19.8869 100.048 19.8382 100.048 19.7895C100.145 19.6678 100.267 19.5582 100.377 19.4486C100.401 19.4243 100.45 19.3999 100.474 19.3756C100.377 19.4486 100.425 19.4243 100.474 19.3756C100.535 19.3269 100.608 19.2904 100.669 19.2417C100.73 19.193 100.803 19.1686 100.876 19.1321C100.888 19.1321 100.961 19.0712 100.985 19.0834C100.949 19.0834 100.839 19.1443 100.973 19.0834C101.131 19.0225 101.29 18.9738 101.448 18.9495C101.813 18.8764 102.057 18.426 101.947 18.0851C101.825 17.7077 101.46 17.5129 101.083 17.586V17.5981Z" fill="#00A9E7"/>
<path d="M116.276 87.9894C116.276 87.9894 117.128 71.9681 109.446 70.4585C109.446 70.4585 105.904 76.1073 106.476 76.4847C107.048 76.8621 110.786 83.838 110.786 83.838L116.276 88.0016V87.9894Z" fill="white" stroke="#D0D2D3" stroke-width="0.37" stroke-miterlimit="10"/>
<g opacity="0.3" style="mix-blend-mode:multiply">
<path d="M62.7095 115.504C97.343 115.504 125.419 113.116 125.419 110.171C125.419 107.226 97.343 104.839 62.7095 104.839C28.076 104.839 0 107.226 0 110.171C0 113.116 28.076 115.504 62.7095 115.504Z" fill="#4D4D4F"/>
</g>
<path d="M84.6111 63.9456L77.5622 58.8811L78.9379 56.2393C79.2301 55.6793 79.084 54.9366 78.597 54.5836L77.6596 53.914C77.1848 53.5731 76.5396 53.7435 76.2474 54.3157L71.4629 63.4829C71.1707 64.043 71.3168 64.7856 71.8038 65.1386L72.7412 65.8082C73.216 66.1491 73.8612 65.9787 74.1534 65.4065L75.9065 62.0464L82.9554 67.1109C83.4302 67.4517 84.0754 67.2813 84.3676 66.7091L84.9398 65.6013C85.232 65.0412 85.0859 64.2986 84.5989 63.9456H84.6111Z" fill="#231F20"/>
<path d="M78.4629 95.4403C78.4629 95.5742 78.4751 95.7081 78.4872 95.8421C78.7064 103.792 85.5483 110.183 93.9607 110.183C102.373 110.183 109.215 103.804 109.434 95.8421C109.434 95.7081 109.459 95.5742 109.459 95.4403C109.459 87.3079 102.519 80.7095 93.9607 80.7095C85.4022 80.7095 78.4751 87.3079 78.4751 95.4403H78.4629ZM85.0979 95.4403C85.0979 90.7897 89.0667 87.0157 93.9485 87.0157C98.8426 87.0157 102.811 90.7897 102.811 95.4403C102.811 95.5742 102.799 95.7081 102.787 95.8421C102.568 100.31 98.6965 103.865 93.9485 103.865C89.2006 103.865 85.3292 100.31 85.11 95.8421C85.11 95.7081 85.0857 95.5742 85.0857 95.4403H85.0979Z" fill="#231F20"/>
<path d="M13.6596 94.8194C13.6596 95.0264 13.623 95.2211 13.623 95.4281C13.623 103.56 20.5624 110.159 29.1087 110.159C36.6689 110.159 42.9508 105.009 44.3143 98.1917C44.4969 97.2908 44.5943 96.3655 44.5943 95.4281C44.5943 87.2957 37.655 80.6973 29.0965 80.6973C20.7572 80.6973 13.9761 86.967 13.6352 94.8194H13.6596ZM20.258 95.4281C20.258 90.7775 24.2268 87.0035 29.1209 87.0035C34.0149 87.0035 37.9837 90.7775 37.9837 95.4281C37.9837 96.402 37.8011 97.3273 37.4846 98.1917C36.2793 101.479 32.9923 103.841 29.1209 103.841C24.3851 103.841 20.5258 100.31 20.2824 95.8542C20.2824 95.7081 20.258 95.562 20.258 95.4159V95.4281Z" fill="#231F20"/>
<path d="M44.4603 74.184C48.7904 74.184 52.3005 72.636 52.3005 70.7265C52.3005 68.817 48.7904 67.269 44.4603 67.269C40.1303 67.269 36.6201 68.817 36.6201 70.7265C36.6201 72.636 40.1303 74.184 44.4603 74.184Z" fill="#58595B"/>
<path d="M3.56703 88.5494C4.07835 92.4573 6.09928 94.7826 8.98457 95.5008L11.1272 96.0122C11.1272 96.0122 11.1272 95.9391 11.1272 95.9026V95.8539C11.1272 95.7565 11.1029 95.5982 11.1029 95.4156C11.1029 85.8954 19.1744 78.1525 29.1086 78.1525C39.0428 78.1525 47.1143 85.8954 47.1143 95.4156C47.1143 95.5982 47.1143 95.7443 47.1021 95.8539V95.9026C47.0534 97.6435 46.7247 99.3479 46.1647 100.955H76.929C76.369 99.3479 76.0403 97.6435 75.9916 95.9026V95.8539C75.9916 95.7565 75.9673 95.5982 75.9673 95.4156C75.9673 85.8954 84.0388 78.1525 93.973 78.1525C103.895 78.1525 111.979 85.8954 111.979 95.4156C111.979 95.5982 111.979 95.7443 111.966 95.8539V95.9026C111.918 97.6435 111.589 99.3479 111.029 100.955H113.415H114.474H120.123C121.28 100.955 122.217 99.6401 122.217 98.0087V91.7755C122.217 90.1442 121.28 88.8294 120.123 88.8294H118.407C118.407 88.8294 118.407 88.7807 118.407 88.7563L116.313 77.9699C116.118 76.9838 115.838 76.0464 115.448 75.182C113.111 69.9715 110.177 66.587 96.4078 61.6686C96.4078 61.6686 80.4961 46.0978 73.1672 42.0559C71.6941 41.2524 70.4158 40.5463 69.3445 39.9741C66.9827 40.2176 68.1392 42.2872 68.1392 42.2872H68.1271C73.3254 45.3917 81.4335 51.9292 81.4335 52.8179L79.6804 62.6182C79.6804 63.4339 79.1934 64.0913 78.6213 64.0791H7.58453C6.86625 67.8044 6.37928 71.9559 6.29406 76.4968C4.66271 77.0569 3.94443 77.5925 3.54268 79.5039C3.16528 81.4518 3.06789 84.6901 3.56703 88.5494ZM110.98 77.6047C110.98 77.6047 111.723 75.6203 112.186 74.3907C112.466 73.6359 112.977 73.5263 113.33 74.1107C114.28 75.7055 115.4 79.6622 115.424 81.8048C115.424 82.304 115.193 82.6448 114.974 82.5231L111.419 80.5752C110.822 80.2465 110.579 78.6517 110.98 77.5925V77.6047ZM81.397 64.0791L82.9066 57.7363C84.684 57.3711 87.6302 59.806 86.9241 62.74C86.5102 64.4687 81.397 64.0913 81.397 64.0913V64.0791Z" fill="#00A9E7"/>
<path d="M48.1141 68.2717C48.8387 67.795 49.1894 67.0488 48.8975 66.605C48.6056 66.1613 47.7815 66.188 47.0569 66.6647C46.3323 67.1414 45.9815 67.8876 46.2735 68.3313C46.5654 68.7751 47.3895 68.7484 48.1141 68.2717Z" fill="#231F20"/>
<path d="M43.0847 62.9839C43.0847 62.9839 39.7125 66.0396 43.8152 67.1597L46.7005 67.6344" stroke="#231F20" stroke-width="0.42" stroke-linecap="round" stroke-linejoin="round"/>
<path d="M58.8875 52.2774C59.3897 52.1041 59.5691 51.3041 59.2883 50.4906C59.0076 49.677 58.3729 49.158 57.8708 49.3313C57.3687 49.5045 57.1893 50.3045 57.47 51.1181C57.7508 51.9316 58.3854 52.4506 58.8875 52.2774Z" fill="#231F20"/>
<path d="M48.9249 55.2998C49.427 55.1265 49.6064 54.3266 49.3257 53.513C49.0449 52.6995 48.4103 52.1804 47.9082 52.3537C47.4061 52.527 47.2266 53.327 47.5074 54.1405C47.7881 54.9541 48.4228 55.4731 48.9249 55.2998Z" fill="#231F20"/>
<path d="M52.4587 56.8723C52.9944 58.1384 54.5405 58.7106 55.9162 58.1384C57.2919 57.5663 57.9737 56.0688 57.438 54.7905L52.4587 56.8723Z" fill="#231F20" stroke="#231F20" stroke-width="0.52" stroke-linecap="round" stroke-linejoin="round"/>
<path d="M55.5388 70.1058C55.2953 69.8258 54.9666 69.6797 54.6258 69.6797H50.2187C49.9265 69.6797 49.6465 69.7893 49.4152 69.9962C48.9039 70.4588 48.8673 71.2623 49.3056 71.7858C49.5491 72.0658 49.8778 72.2119 50.2187 72.2119H54.6258C54.9179 72.2119 55.1979 72.1024 55.4293 71.8954C55.9406 71.4328 55.9771 70.6293 55.5388 70.1058Z" fill="#58595B"/>
</g>
<defs>
<clipPath id="clip0_159_309">
<rect width="128" height="103.006" fill="white" transform="translate(0 12.4971)"/>
</clipPath>
</defs>
</svg>
