<svg width="128" height="128" viewBox="0 0 128 128" fill="none" xmlns="http://www.w3.org/2000/svg">
<path d="M114.777 113.602V115.834L95.4901 118.434L84.7584 119.885L61.4745 123.034L48.9222 116.299L39.6689 111.33C39.6141 111.33 39.5594 111.33 39.4909 111.344L35.8772 123.171C45.021 124.293 56.8615 124.964 69.8244 124.964C98.7479 124.964 122.196 121.596 122.196 117.462C122.196 116.053 119.486 114.738 114.763 113.602H114.777Z" fill="#C3DDED"/>
<path d="M63.0351 71.4287C62.3781 71.4698 61.8853 71.4698 61.4609 71.4424L61.4883 71.5793L63.0488 71.415L63.0351 71.4287Z" fill="#9C9EA1"/>
<path d="M95.4766 68.1297L114.065 66.2407L95.2576 62.2026L94.2446 68.2529L95.4766 68.1297Z" fill="#9C9EA1"/>
<path d="M48.9223 67.0344L54.2608 68.9782C54.1239 68.9234 53.987 68.855 53.8638 68.8002C53.4395 68.6223 53.0699 68.458 52.7962 68.3348C52.7688 68.3348 52.7414 68.3074 52.7277 68.3074L52.5908 68.2527L51.3315 61.1621L36.5891 62.5583L48.7855 66.9934L48.9223 67.0481V67.0344Z" fill="#9C9EA1"/>
<path d="M98.9806 30.4868C97.8171 30.8017 96.1882 31.0618 94.176 31.2534C90.1379 31.6367 84.5667 31.8009 78.3112 31.7462C76.6001 31.7325 74.848 31.7051 73.0685 31.6504C64.4996 31.4313 56.5193 30.7606 51.4819 29.9256C51.6873 29.953 51.8652 29.9941 52.0705 30.0214C53.1656 30.1994 53.4531 30.2541 54.6166 30.4047L61.4471 71.4425C61.8714 71.4698 62.3642 71.4698 63.0212 71.4288C63.0349 71.4288 63.0623 71.4288 63.076 71.4288L84.7447 69.2523V69.1839L94.2307 68.2531L95.2437 62.2165L97.0369 51.5533C95.6406 52.046 94.1623 52.1966 92.6976 52.1829C92.1638 52.1829 91.6299 52.1555 91.0961 52.1145C90.8497 52.1008 90.6581 51.8818 90.6718 51.6354C90.6854 51.389 90.9045 51.1974 91.1508 51.211C91.671 51.2384 92.1912 51.2658 92.6976 51.2658C94.2718 51.2795 95.8186 51.1015 97.1874 50.5129L100.5 30.7743L100.664 29.6519C100.568 29.7477 100.473 29.8435 100.349 29.9256C99.9935 30.1446 99.5281 30.3226 98.9532 30.4868H98.9806ZM86.9622 45.6399C86.9622 47.1867 85.7029 48.446 84.1561 48.446C82.6093 48.446 81.35 47.1867 81.35 45.6399C81.35 44.0931 82.6093 42.8338 84.1561 42.8338C85.7029 42.8338 86.9622 44.0931 86.9622 45.6399ZM80.8161 36.3181C81.569 36.2497 82.2808 37.1805 82.404 38.3987C82.5272 39.617 82.007 40.671 81.2542 40.7531C80.5013 40.8216 79.7895 39.8908 79.6663 38.6725C79.5431 37.4542 80.0633 36.4002 80.8161 36.3181ZM79.6389 44.4627C80.0222 46.8445 78.2564 49.1167 75.6693 49.5411C73.0959 49.9654 70.6867 48.3639 70.3034 45.9821L79.6389 44.4627ZM65.9779 37.1942C66.7308 37.1257 67.4426 38.0565 67.5658 39.2748C67.689 40.4931 67.1688 41.5471 66.416 41.6292C65.6631 41.7113 64.9513 40.7668 64.8281 39.5486C64.7049 38.3303 65.2251 37.2763 65.9779 37.1942ZM65.1977 43.395C66.7445 43.395 68.0038 44.6543 68.0038 46.2011C68.0038 47.7479 66.7445 49.0072 65.1977 49.0072C63.6509 49.0072 62.3916 47.7479 62.3916 46.2011C62.3916 44.6543 63.6509 43.395 65.1977 43.395Z" fill="#DF5551"/>
<path d="M46.0339 28.4199C46.0339 28.4199 46.4172 28.68 46.472 28.7074C46.8826 28.9264 47.129 28.9675 47.6902 29.1591C48.5252 29.4329 49.8393 29.6793 51.3176 29.912C49.6614 29.6382 48.3199 29.337 47.348 29.0222C46.7868 28.8306 46.3625 28.6526 46.0339 28.4199Z" fill="#DF5551"/>
<path d="M45.8014 28.2417L46.0204 28.4196C45.8562 28.2964 45.7056 28.1595 45.6098 27.9679C45.5687 27.8721 45.5277 27.7489 45.5277 27.6257C45.5277 27.5709 45.555 27.5162 45.5687 27.4614C45.4592 27.5572 45.4455 27.7626 45.4592 27.9542C45.4866 27.8173 45.7056 28.1185 45.7877 28.2417H45.8014Z" fill="#DF5551"/>
<path d="M45.4866 28.064C45.4866 28.064 45.4866 28.0914 45.4866 28.105L49.3193 49.7464L45.4866 28.0503V28.064Z" fill="#DF5551"/>
<path d="M49.5247 50.8823L51.3315 61.1486L52.5909 68.2392L49.5247 50.8823Z" fill="#DF5551"/>
<path d="M95.2712 20.3848C95.2301 20.508 95.1754 20.6175 95.1069 20.727C95.1754 20.6175 95.2301 20.4943 95.2712 20.3848Z" fill="#B8A69B"/>
<path d="M95.0659 22.2324C95.1344 22.2598 95.2165 22.3009 95.2849 22.3282C95.2028 22.2872 95.1344 22.2598 95.0659 22.2324Z" fill="#B8A69B"/>
<path d="M94.2856 21.9175C94.2856 21.9175 94.3678 21.9449 94.4225 21.9722C94.3815 21.9585 94.3267 21.9312 94.2856 21.9175Z" fill="#B8A69B"/>
<path d="M94.6277 22.0547C94.6277 22.0547 94.7509 22.1094 94.8056 22.1231C94.7509 22.0958 94.6824 22.0684 94.6277 22.0547Z" fill="#B8A69B"/>
<path d="M96.1609 22.7666C96.243 22.8214 96.3388 22.8624 96.4347 22.9172C96.3388 22.8624 96.2567 22.8214 96.1609 22.7666Z" fill="#B8A69B"/>
<path d="M100.308 28.9674C100.308 28.9674 100.308 28.9126 100.308 28.8853C100.281 28.9126 100.24 28.94 100.199 28.9674H100.295H100.308Z" fill="#B8A69B"/>
<path d="M94.9974 20.9048C94.9153 21.0143 94.8195 21.1238 94.7236 21.2333C94.8331 21.1238 94.929 21.0143 94.9974 20.9048Z" fill="#B8A69B"/>
<path d="M79.1873 7.40787C79.2558 7.53107 79.3242 7.65426 79.3926 7.77746C79.3105 7.65426 79.2421 7.53107 79.1873 7.40787V7.38049C79.0778 7.20254 79.0094 7.0246 78.9409 6.87402C78.9957 7.03828 79.0778 7.20254 79.1599 7.38049V7.40787H79.1873Z" fill="#B8A69B"/>
<path d="M95.3944 19.7686C95.3944 19.9328 95.367 20.0971 95.3123 20.2613C95.3533 20.0971 95.3807 19.9328 95.3944 19.7686Z" fill="#B8A69B"/>
<path d="M79.5021 7.94208C79.461 7.88732 79.4336 7.83257 79.3926 7.7915C79.42 7.84626 79.461 7.90101 79.5021 7.94208Z" fill="#B8A69B"/>
<path d="M83.8413 11.3913C83.5128 11.2133 83.1705 11.0354 82.8557 10.8438C83.1705 11.0217 83.5128 11.1996 83.8413 11.3913Z" fill="#B8A69B"/>
<path d="M79.0093 4.83477C79.1188 4.73895 79.2283 4.67051 79.3378 4.58838C79.2283 4.65682 79.1188 4.73895 79.0093 4.83477Z" fill="#B8A69B"/>
<path d="M100.281 27.7764C100.295 27.8859 100.295 28.0091 100.308 28.1323C100.308 28.0091 100.308 27.8996 100.281 27.7764Z" fill="#B8A69B"/>
<path d="M82.0891 4.7251C82.0891 4.7251 82.1439 4.77985 82.1712 4.79354C82.2944 4.91673 82.4176 5.05362 82.5271 5.1905C82.4176 5.05362 82.2944 4.93042 82.1712 4.79354C82.1439 4.76616 82.1165 4.73879 82.0891 4.7251Z" fill="#B8A69B"/>
<path d="M99.7747 26.1611C99.7747 26.1611 99.802 26.2296 99.8157 26.257C99.802 26.2296 99.7883 26.1885 99.7747 26.1611Z" fill="#B8A69B"/>
<path d="M98.0225 24.0396C98.1046 24.108 98.2004 24.1901 98.2825 24.2586C98.2004 24.1764 98.1183 24.108 98.0225 24.0396Z" fill="#B8A69B"/>
<path d="M99.186 25.2578C99.186 25.2578 99.2955 25.3947 99.3366 25.4631C99.2819 25.3947 99.2271 25.3263 99.186 25.2578Z" fill="#B8A69B"/>
<path d="M92.8071 16.1685C93.0809 16.3738 93.3273 16.5791 93.5737 16.7981C93.341 16.5928 93.0809 16.3738 92.8071 16.1685Z" fill="#B8A69B"/>
<path d="M80.214 4.24609C80.1318 4.25978 80.036 4.28716 79.9402 4.32822C80.036 4.30085 80.1318 4.27347 80.214 4.24609Z" fill="#B8A69B"/>
<path d="M80.5562 4.19141C80.5562 4.19141 80.4193 4.19141 80.3372 4.21878C80.4193 4.21878 80.4877 4.19141 80.5562 4.19141Z" fill="#B8A69B"/>
<path d="M78.804 6.42236C78.8313 6.51818 78.8587 6.614 78.8998 6.72351C78.8587 6.62769 78.8313 6.51818 78.804 6.42236Z" fill="#B8A69B"/>
<path d="M91.7942 15.4429C92.0953 15.6345 92.3691 15.8398 92.6429 16.0452C92.3691 15.8398 92.0816 15.6345 91.7942 15.4429Z" fill="#B8A69B"/>
<path d="M90.7949 14.8135C91.0961 14.9914 91.3835 15.1831 91.671 15.3747C91.3835 15.1831 91.0961 15.0051 90.7949 14.8135Z" fill="#B8A69B"/>
<path d="M87.592 13.0752C87.8658 13.2121 88.1533 13.3627 88.4544 13.5132C88.167 13.3627 87.8795 13.2258 87.592 13.0752Z" fill="#B8A69B"/>
<path d="M82.9516 5.92948C82.8831 5.86104 82.8284 5.7926 82.8147 5.69678C82.8147 5.7926 82.8831 5.87473 82.9516 5.92948Z" fill="#B8A69B"/>
<path d="M88.605 13.5815C88.9061 13.7458 89.221 13.9101 89.5358 14.0743C89.221 13.8964 88.9198 13.7321 88.605 13.5815Z" fill="#B8A69B"/>
<path d="M85.7166 12.1851C85.9493 12.2809 86.1956 12.4041 86.4557 12.5136C86.1956 12.3904 85.9493 12.2809 85.7166 12.1851Z" fill="#B8A69B"/>
<path d="M86.6338 12.6094C86.9076 12.7326 87.1813 12.8695 87.4825 13.02C87.195 12.8831 86.9076 12.7463 86.6338 12.6094Z" fill="#B8A69B"/>
<path d="M84.0193 11.46C84.0193 11.46 84.1835 11.5284 84.2931 11.5695C84.1835 11.5284 84.0877 11.4873 84.0193 11.46Z" fill="#B8A69B"/>
<path d="M85.0049 11.8706C85.1691 11.939 85.3608 12.0212 85.5661 12.117C85.3608 12.0349 85.1828 11.9527 85.0049 11.8706Z" fill="#B8A69B"/>
<path d="M83.2528 6.05285C83.1433 6.05285 83.0474 6.01178 82.979 5.95703C83.0611 6.01178 83.157 6.03916 83.2528 6.05285Z" fill="#B8A69B"/>
<path d="M84.4299 11.6377C84.5531 11.6924 84.7037 11.7472 84.868 11.8293C84.7037 11.7609 84.5531 11.6924 84.4299 11.6377Z" fill="#B8A69B"/>
<path d="M95.2849 19.0981C95.3534 19.3035 95.3944 19.5225 95.3944 19.7278C95.3944 19.5225 95.3534 19.3172 95.2849 19.0981Z" fill="#B8A69B"/>
<path d="M78.7219 6.03906C78.7219 6.1075 78.7493 6.18963 78.763 6.25808C78.7493 6.17595 78.7356 6.1075 78.7219 6.03906Z" fill="#B8A69B"/>
<path d="M93.6697 16.894C93.8887 17.0994 94.1077 17.3047 94.2993 17.51C94.1077 17.3047 93.9024 17.0994 93.6697 16.894Z" fill="#B8A69B"/>
<path d="M46.3077 27.6256H46.3351L46.3761 27.5982C46.3761 27.5982 46.3761 27.6119 46.4035 27.6393C46.4446 27.694 46.5541 27.7761 46.7183 27.8583C47.0469 28.0362 47.567 28.2279 48.2651 28.4195C49.6477 28.7891 51.6735 29.1587 54.1511 29.4872C59.1063 30.1305 65.8684 30.637 73.0685 30.815C74.848 30.856 76.6001 30.8971 78.2974 30.9108C85.4975 30.9792 91.7805 30.7602 95.7912 30.2401C97.1326 30.0621 98.214 29.8568 98.9669 29.6241C99.4049 29.4872 99.7334 29.3503 99.9387 29.2134C100.048 29.145 100.117 29.0765 100.144 29.0355C100.171 28.9944 100.171 28.9807 100.171 28.9807C100.171 28.9807 100.171 28.9807 100.144 28.9944C99.9388 29.1313 99.6102 29.2682 99.1722 29.4051C98.4057 29.6378 97.3106 29.8568 95.9554 30.0347C93.382 30.3633 89.9052 30.5823 85.8397 30.6781C100.363 23.478 78.4617 18.03 74.7932 14.3889C71.0563 10.6794 71.9323 3.50666 77.5309 2.06938C77.9415 1.95988 78.3522 1.91881 78.7628 1.91881C81.829 1.94619 84.2929 4.90288 83.5675 5.99795C83.8002 5.87475 84.0055 5.57361 84.0876 5.01238V4.97132C84.6215 2.23364 80.7477 0.413089 78.5575 0.111945C76.9149 -0.120758 73.3696 -0.134446 70.3445 2.13782C66.3064 5.16295 64.1847 12.322 49.9214 19.5631C45.5275 21.7943 45.1031 25.8872 45.9381 27.4476L46.3077 27.653V27.6256Z" fill="#B8A69B"/>
<path d="M78.7765 1.90527C78.3796 1.90527 77.9689 1.94634 77.5446 2.05585C71.946 3.49312 71.07 10.6658 74.8069 14.3754C78.4754 18.0165 100.377 23.4645 85.8534 30.6646C89.9189 30.5687 93.3957 30.3634 95.9691 30.0212C97.3243 29.8433 98.4194 29.6379 99.1859 29.3915C99.6239 29.2546 99.9661 29.1178 100.158 28.9809C100.158 28.9809 100.158 28.9809 100.185 28.9672C100.185 28.9672 100.267 28.9124 100.295 28.8851C100.295 28.8577 100.295 28.844 100.295 28.8303C100.295 28.8303 100.295 28.8029 100.295 28.7892C100.295 28.7208 100.295 28.6387 100.295 28.5702C100.295 28.4197 100.267 28.2828 100.267 28.1459C100.267 28.0227 100.267 27.9132 100.24 27.79C100.213 27.5984 100.171 27.4204 100.117 27.2288C100.089 27.1329 100.076 27.0371 100.048 26.9413C99.9661 26.7086 99.884 26.4896 99.7745 26.2706C99.7608 26.2432 99.7471 26.2021 99.7334 26.1748C99.6103 25.9284 99.4597 25.6957 99.3091 25.4767C99.2543 25.4082 99.1996 25.3398 99.1585 25.2713C99.049 25.1208 98.9395 24.9702 98.8026 24.8333C98.7342 24.7512 98.6521 24.6827 98.5836 24.6006C98.4741 24.4911 98.3646 24.3679 98.2414 24.2584C98.1593 24.1763 98.0771 24.1078 97.9813 24.0394C97.8718 23.9436 97.7486 23.8477 97.6391 23.7519C97.5433 23.6835 97.4612 23.615 97.3654 23.5466C97.2422 23.4645 97.1326 23.3823 97.0095 23.3002C96.9136 23.2455 96.8178 23.177 96.7357 23.1223C96.6262 23.0538 96.503 22.9854 96.3935 22.9169C96.2977 22.8622 96.2155 22.8074 96.1197 22.7664C96.0102 22.7116 95.9007 22.6432 95.7912 22.5884C95.7091 22.5473 95.6269 22.5063 95.5448 22.4652C95.4353 22.4105 95.3395 22.3694 95.2437 22.3283C95.1752 22.2873 95.0931 22.2599 95.0246 22.2325C94.9288 22.1914 94.8467 22.1504 94.7646 22.123C94.7098 22.0956 94.6414 22.0683 94.5866 22.0546C94.5045 22.0272 94.436 21.9998 94.3813 21.9724C94.3402 21.9587 94.2855 21.9314 94.2444 21.9177C94.1896 21.904 94.1486 21.8903 94.1075 21.8766C94.0117 21.8492 93.9433 21.8219 93.9433 21.8219C94.1623 21.6713 94.3539 21.5207 94.5182 21.3701C94.5729 21.3291 94.614 21.2743 94.6551 21.2333C94.7646 21.1238 94.8604 21.0142 94.9288 20.9047C94.9699 20.85 95.011 20.7952 95.0383 20.7405C95.1068 20.631 95.1615 20.5078 95.2026 20.3983C95.2163 20.3572 95.2437 20.3025 95.2573 20.2614C95.2984 20.0971 95.3258 19.9329 95.3395 19.7686V19.7412C95.3395 19.5359 95.2984 19.3306 95.23 19.1116C95.23 19.0705 95.2163 19.0431 95.2026 19.0021C95.1205 18.783 95.0246 18.5777 94.8878 18.3587C94.8604 18.3176 94.833 18.2766 94.8056 18.2355C94.6687 18.0165 94.5045 17.8112 94.3129 17.5922C94.2992 17.5648 94.2718 17.5511 94.2444 17.5237C94.0528 17.3184 93.8474 17.1131 93.6147 16.9077C93.5737 16.8804 93.5463 16.8393 93.5189 16.8119C93.2862 16.6066 93.0261 16.3876 92.7524 16.1823C92.6976 16.1412 92.6429 16.1001 92.5881 16.0591C92.3143 15.8537 92.0269 15.6484 91.7394 15.4568C91.6984 15.4294 91.6573 15.402 91.6162 15.3746C91.3288 15.183 91.0413 15.005 90.7402 14.8134C90.6991 14.786 90.6581 14.7723 90.6307 14.745C90.3158 14.5533 90.001 14.3754 89.6862 14.1974C89.6177 14.1564 89.5493 14.129 89.4945 14.0879C89.1797 13.91 88.8786 13.7457 88.5637 13.5951C88.509 13.5678 88.4542 13.5404 88.3995 13.513C88.112 13.3624 87.8246 13.2119 87.5371 13.075C87.496 13.0613 87.4687 13.0339 87.4276 13.0202C87.1401 12.8834 86.8527 12.7465 86.5789 12.6096C86.5105 12.5822 86.4557 12.5548 86.3873 12.5275C86.1272 12.4043 85.8808 12.2948 85.6481 12.1989C85.5934 12.1716 85.5386 12.1579 85.4975 12.1305C85.2922 12.0484 85.1143 11.9662 84.9363 11.8841C84.8952 11.8704 84.8542 11.843 84.7994 11.8293C84.6352 11.7609 84.4846 11.6925 84.3614 11.6377C84.3066 11.6103 84.2656 11.5966 84.2245 11.583C84.115 11.5419 84.0192 11.5008 83.9507 11.4734C83.8823 11.4461 83.8686 11.4324 83.8412 11.4324L83.8002 11.4187H83.7865C83.458 11.2407 83.1158 11.0628 82.8009 10.8712C82.3081 10.57 81.6785 10.1731 81.0762 9.68027C80.4739 9.18749 79.8853 8.61258 79.4473 7.96922C79.4062 7.91447 79.3788 7.85972 79.3378 7.81865C79.2556 7.69546 79.1872 7.57226 79.1324 7.44907V7.42169C79.0229 7.24374 78.9545 7.07948 78.886 6.91522C78.8724 6.86047 78.8587 6.8194 78.8313 6.76465C78.7902 6.66883 78.7628 6.55932 78.7355 6.4635C78.7218 6.40875 78.7081 6.354 78.7081 6.29924C78.6944 6.21711 78.6807 6.14867 78.667 6.08023C78.667 6.02547 78.667 5.98441 78.667 5.92966C78.667 5.8749 78.667 5.82015 78.667 5.77908C78.667 5.77908 78.667 5.77908 78.667 5.76539C78.667 5.56007 78.7081 5.38212 78.7628 5.24524C78.7628 5.24524 78.7628 5.24524 78.7628 5.23155C78.8176 5.08098 78.8997 4.97147 78.9682 4.88934C79.0777 4.79352 79.1872 4.72508 79.2967 4.64295C79.461 4.54713 79.6115 4.47869 79.7621 4.42393C79.8032 4.41025 79.8579 4.39656 79.899 4.38287C79.9948 4.35549 80.0906 4.32812 80.1728 4.30074C80.2138 4.30074 80.2549 4.28705 80.2959 4.27336C80.3781 4.27336 80.4465 4.24599 80.515 4.24599C80.5423 4.24599 80.5834 4.24599 80.6108 4.24599C80.6108 4.24599 80.6382 4.24599 80.6518 4.24599C80.7203 4.24599 80.775 4.24599 80.8298 4.24599C81.1994 4.31443 81.6511 4.45131 82.0481 4.76614C82.0481 4.76614 82.1028 4.83459 82.1302 4.84827C82.2534 4.97147 82.3766 5.10835 82.4861 5.24524C82.5135 5.2863 82.5545 5.32737 82.5819 5.36843C82.6093 5.4095 82.6367 5.45056 82.664 5.49163C82.7051 5.57376 82.7325 5.65589 82.7599 5.73802C82.7599 5.83384 82.8283 5.91597 82.8967 5.97072C82.8967 5.97072 82.9104 5.98441 82.9241 5.9981C83.0062 6.05285 83.1021 6.08023 83.1979 6.09392C83.1979 6.09392 83.2116 6.09392 83.2253 6.09392C83.2253 6.09392 83.2526 6.09392 83.2663 6.09392C83.3348 6.09392 83.4032 6.06654 83.4717 6.03916C83.4853 6.03916 83.499 6.03916 83.5264 6.03916C84.2519 4.94409 81.788 1.9874 78.7218 1.96003L78.7765 1.90527Z" fill="#D3C8C4"/>
<path d="M81.2541 40.753C82.007 40.6846 82.5271 39.6306 82.4039 38.3986C82.2807 37.1803 81.5826 36.2358 80.8161 36.318C80.0632 36.3864 79.5431 37.4404 79.6663 38.6724C79.7895 39.8906 80.4876 40.8351 81.2541 40.753Z" fill="#201E1E"/>
<path d="M66.4023 41.629C67.1552 41.5606 67.6753 40.5066 67.5521 39.2746C67.4289 38.0427 66.7308 37.1119 65.9643 37.194C65.2114 37.2624 64.6913 38.3165 64.8145 39.5484C64.9377 40.7667 65.6358 41.7112 66.4023 41.629Z" fill="#201E1E"/>
<path d="M91.1646 51.2244C90.9182 51.2107 90.6992 51.4024 90.6855 51.6487C90.6718 51.8951 90.8635 52.1142 91.1098 52.1278C91.63 52.1552 92.1775 52.1826 92.7114 52.1963C94.1624 52.1963 95.6407 52.0594 97.0506 51.5666C97.3107 51.4708 97.5571 51.4024 97.8035 51.2792C99.0902 50.6769 100.144 49.7598 101.061 48.7331C101.978 47.7065 102.772 46.5567 103.525 45.4479C103.731 45.1468 103.95 44.8046 104.114 44.435C104.182 44.2707 104.251 44.1064 104.305 43.9285C104.497 43.8737 104.702 43.819 104.894 43.7095C105.989 43.1483 106.605 42.1353 106.249 41.4646C105.907 40.7939 104.73 40.698 103.635 41.2593C102.54 41.8205 101.924 42.8334 102.28 43.5042C102.458 43.8327 102.827 44.0243 103.293 44.0654C103.156 44.3528 102.978 44.654 102.786 44.9278C102.033 46.0365 101.267 47.1453 100.404 48.1171C99.5282 49.089 98.57 49.9103 97.4339 50.4442C97.3654 50.4715 97.297 50.4989 97.2286 50.5263C95.8597 51.1286 94.3129 51.2928 92.7388 51.2792C92.2186 51.2792 91.6984 51.2518 91.192 51.2244H91.1646Z" fill="#201E1E"/>
<path d="M49.3192 49.7597C48.3884 49.2122 47.5808 48.4867 46.8553 47.6517C46.0066 46.6661 45.2538 45.53 44.5283 44.4212C44.3366 44.1338 44.1587 43.8326 44.0218 43.5315C44.0081 43.5041 44.0081 43.4767 43.9944 43.4357C44.4598 42.9292 44.6515 42.3406 44.4188 41.9026C44.0766 41.2319 42.8994 41.136 41.8043 41.6973C40.7092 42.2585 40.0933 43.2714 40.4491 43.9422C40.805 44.6129 41.9686 44.7087 43.0636 44.1475C43.1458 44.1064 43.2142 44.0653 43.2826 44.0243C43.4332 44.3391 43.6112 44.6539 43.7891 44.914C44.5146 46.0365 45.2948 47.2 46.1983 48.2403C47.1017 49.2806 48.142 50.2114 49.415 50.8411C49.4561 50.8685 49.4972 50.8685 49.5519 50.8958L49.3603 49.7734L49.3192 49.7597Z" fill="#201E1E"/>
<path d="M52.7277 68.294C52.7277 68.294 52.7825 68.3214 52.7961 68.3214C52.7277 68.294 52.6456 68.253 52.5908 68.2256C52.5908 68.2256 52.714 68.2803 52.7277 68.2803V68.294Z" fill="#9C9EA1"/>
<path opacity="0.2" d="M52.7277 68.294C52.7277 68.294 52.7825 68.3214 52.7961 68.3214C52.7277 68.294 52.6456 68.253 52.5908 68.2256C52.5908 68.2256 52.714 68.2803 52.7277 68.2803V68.294Z" fill="#A32035"/>
<path d="M53.8638 68.8003C53.987 68.855 54.1238 68.9098 54.2607 68.9782L54.3292 69.0056C54.1649 68.9372 54.0143 68.8687 53.8638 68.814V68.8003Z" fill="#9C9EA1"/>
<path opacity="0.2" d="M53.8638 68.8003C53.987 68.855 54.1238 68.9098 54.2607 68.9782L54.3292 69.0056C54.1649 68.9372 54.0143 68.8687 53.8638 68.814V68.8003Z" fill="#A32035"/>
<path d="M61.4472 71.4425C61.2555 71.4425 61.0913 71.4151 60.927 71.3877L61.4745 71.593L61.4472 71.4561V71.4425Z" fill="#9C9EA1"/>
<path opacity="0.2" d="M61.4472 71.4425C61.2555 71.4425 61.0913 71.4151 60.927 71.3877L61.4745 71.593L61.4472 71.4561V71.4425Z" fill="#A32035"/>
<path d="M49.7848 50.0197C51.1947 50.7178 52.8099 50.9231 54.4662 50.9368C54.9864 50.9368 55.5065 50.9368 56.013 50.9094C56.2594 50.9094 56.4647 51.0874 56.4784 51.3338C56.4784 51.5802 56.3004 51.7855 56.054 51.7992C55.5339 51.8266 54.9864 51.8403 54.4525 51.8266C52.7825 51.8129 51.0715 51.5939 49.511 50.8684L52.5772 68.2252C52.5772 68.2252 52.7141 68.28 52.7825 68.3211C53.0837 68.4443 53.4396 68.6085 53.8502 68.7865C54.0008 68.8549 54.1514 68.9234 54.3156 68.9781L60.8997 71.3736C61.064 71.4009 61.2419 71.4146 61.4199 71.4283L54.5894 30.3906C53.4259 30.24 53.1247 30.1852 52.0434 30.0073C51.838 29.9799 51.6464 29.9389 51.4548 29.9115C51.4274 29.9115 51.3863 29.9115 51.3589 29.8978C51.3316 29.8978 51.3042 29.8978 51.2768 29.8841C49.7985 29.6377 48.4844 29.405 47.6494 29.1312C47.0882 28.9396 46.8418 28.8985 46.4311 28.6795C46.3901 28.6521 46.0342 28.4331 45.9931 28.3921L45.7741 28.2141C45.7056 28.0909 45.4866 27.7761 45.4456 27.9267C45.4456 27.9677 45.4456 28.0088 45.4456 28.0362L49.2783 49.7322C49.4289 49.8281 49.5794 49.9239 49.7437 49.9923L49.7848 50.0197Z" fill="#DF5551"/>
<path opacity="0.2" d="M49.7848 50.0197C51.1947 50.7178 52.8099 50.9231 54.4662 50.9368C54.9864 50.9368 55.5065 50.9368 56.013 50.9094C56.2594 50.9094 56.4647 51.0874 56.4784 51.3338C56.4784 51.5802 56.3004 51.7855 56.054 51.7992C55.5339 51.8266 54.9864 51.8403 54.4525 51.8266C52.7825 51.8129 51.0715 51.5939 49.511 50.8684L52.5772 68.2252C52.5772 68.2252 52.7141 68.28 52.7825 68.3211C53.0837 68.4443 53.4396 68.6085 53.8502 68.7865C54.0008 68.8549 54.1514 68.9234 54.3156 68.9781L60.8997 71.3736C61.064 71.4009 61.2419 71.4146 61.4199 71.4283L54.5894 30.3906C53.4259 30.24 53.1247 30.1852 52.0434 30.0073C51.838 29.9799 51.6464 29.9389 51.4548 29.9115C51.4274 29.9115 51.3863 29.9115 51.3589 29.8978C51.3316 29.8978 51.3042 29.8978 51.2768 29.8841C49.7985 29.6377 48.4844 29.405 47.6494 29.1312C47.0882 28.9396 46.8418 28.8985 46.4311 28.6795C46.3901 28.6521 46.0342 28.4331 45.9931 28.3921L45.7741 28.2141C45.7056 28.0909 45.4866 27.7761 45.4456 27.9267C45.4456 27.9677 45.4456 28.0088 45.4456 28.0362L49.2783 49.7322C49.4289 49.8281 49.5794 49.9239 49.7437 49.9923L49.7848 50.0197Z" fill="#A32035"/>
<path d="M56.0677 51.813C56.3141 51.813 56.5057 51.594 56.492 51.3476C56.492 51.1012 56.273 50.9096 56.0266 50.9233C55.5065 50.9506 54.9863 50.9643 54.4798 50.9506C52.8235 50.937 51.2083 50.7316 49.7984 50.0335C49.6342 49.9514 49.4836 49.8556 49.333 49.7734L49.5246 50.8959C51.0851 51.6351 52.7962 51.8404 54.4661 51.8541C55 51.8541 55.5338 51.8541 56.0677 51.8267V51.813Z" fill="#201E1E"/>
<path opacity="0.2" d="M56.0677 51.813C56.3141 51.813 56.5057 51.594 56.492 51.3476C56.492 51.1012 56.273 50.9096 56.0266 50.9233C55.5065 50.9506 54.9863 50.9643 54.4798 50.9506C52.8235 50.937 51.2083 50.7316 49.7984 50.0335C49.6342 49.9514 49.4836 49.8556 49.333 49.7734L49.5246 50.8959C51.0851 51.6351 52.7962 51.8404 54.4661 51.8541C55 51.8541 55.5338 51.8541 56.0677 51.8267V51.813Z" fill="#A32035"/>
<path d="M45.6233 27.9682C45.7191 28.1598 45.856 28.2967 46.034 28.4199C46.3488 28.6526 46.7868 28.8305 47.3481 29.0222C48.3062 29.337 49.6614 29.6382 51.3177 29.9119C51.3451 29.9119 51.3724 29.9119 51.3998 29.9256C51.4272 29.9256 51.4683 29.9256 51.4956 29.9393C56.533 30.7743 64.4996 31.4313 73.0822 31.664C74.8754 31.7051 76.6275 31.7462 78.3249 31.7599C84.5804 31.8146 90.1516 31.664 94.1897 31.2671C96.2019 31.0754 97.8445 30.8154 98.9943 30.5005C99.5692 30.3363 100.035 30.1583 100.391 29.9393C100.514 29.8572 100.61 29.7614 100.705 29.6655C100.746 29.6245 100.801 29.5971 100.842 29.5423C100.965 29.3918 101.048 29.2001 101.048 28.9811L100.322 28.9537H100.226C100.226 28.9537 100.226 28.9674 100.199 29.0085C100.171 29.0496 100.103 29.118 99.9935 29.1864C99.7882 29.3233 99.4597 29.4602 99.0217 29.5971C98.2551 29.8298 97.1737 30.0351 95.846 30.2131C91.8353 30.7332 85.5386 30.9522 78.3522 30.8838C76.6549 30.8701 74.9028 30.8427 73.1233 30.788C65.9369 30.5963 59.1611 30.1036 54.2059 29.4602C51.7283 29.1317 49.7025 28.7758 48.3199 28.3925C47.6355 28.2009 47.1017 28.0092 46.7731 27.8313C46.6089 27.7492 46.4994 27.667 46.4583 27.6123C46.4309 27.5849 46.4309 27.5712 46.4309 27.5712H46.3899L46.3625 27.5986L45.9929 27.3933L45.6918 27.229C45.6918 27.229 45.6507 27.3659 45.637 27.4343C45.6233 27.4891 45.5959 27.5438 45.5959 27.5986C45.5959 27.7218 45.6233 27.8313 45.6781 27.9408L45.6233 27.9682Z" fill="white"/>
<path d="M75.6693 49.5408C78.2427 49.1164 80.0222 46.8442 79.6389 44.4624L70.3035 45.9818C70.6867 48.3636 73.0959 49.9514 75.6693 49.5408Z" fill="#201E1E"/>
<path d="M29.8817 43.7783L33.8514 41.4923C34.2209 41.287 34.3441 40.8079 34.1251 40.452C33.9061 40.0961 33.4407 39.9592 33.0848 40.1782L29.1152 42.4642C28.7456 42.6695 28.6224 43.1486 28.8414 43.5045C29.0467 43.8741 29.5258 43.9973 29.8817 43.7783Z" fill="#6BC3E7"/>
<path d="M31.1958 35.1542C31.4012 34.7846 31.278 34.3192 30.9221 34.1139L26.9525 31.8279C26.5829 31.6226 26.1175 31.7458 25.9121 32.1017C25.7068 32.4576 25.83 32.9367 26.1859 33.142L30.1555 35.4279C30.5251 35.6333 30.9905 35.5101 31.1958 35.1542Z" fill="#0081B1"/>
<path d="M36.5344 32.1293L35.9869 36.6738C35.9321 37.0845 36.2333 37.4678 36.6576 37.5225C37.0683 37.5773 37.4516 37.2761 37.5063 36.8518L38.0538 32.3073C38.1086 31.8966 37.8075 31.5133 37.3831 31.4586C36.9725 31.4038 36.5892 31.705 36.5344 32.1293Z" fill="#0081B1"/>
<path d="M30.9494 26.3803L34.919 24.0944C35.2886 23.889 35.4118 23.4099 35.1927 23.054C34.9737 22.6981 34.5083 22.5613 34.1524 22.7803L30.1828 25.0662C29.8132 25.2716 29.69 25.7507 29.909 26.1066C30.1144 26.4761 30.5935 26.5993 30.9494 26.3803Z" fill="#6BC3E7"/>
<path d="M42.5982 29.6244C42.8035 29.2548 42.6803 28.7894 42.3244 28.5841L38.3548 26.2981C37.9852 26.0928 37.5198 26.216 37.3145 26.5719C37.1092 26.9278 37.2323 27.4069 37.5882 27.6122L41.5579 29.8982C41.9275 30.1035 42.3929 29.9803 42.5982 29.6244Z" fill="#0081B1"/>
<path d="M24.5434 24.751C24.954 24.8058 25.3373 24.5047 25.392 24.0803L25.9396 19.5358C25.9943 19.1251 25.6932 18.7418 25.2689 18.6871C24.8582 18.6323 24.4749 18.9335 24.4202 19.3578L23.8726 23.9024C23.8179 24.313 24.119 24.6963 24.5434 24.751Z" fill="#0081B1"/>
<path d="M32.1678 14.9364L36.1375 17.2224C36.5071 17.4277 36.9725 17.3045 37.1778 16.9486C37.3831 16.5927 37.2599 16.1136 36.904 15.9083L32.9344 13.6223C32.5648 13.417 32.0994 13.5402 31.8941 13.8961C31.6887 14.2657 31.8119 14.7311 32.1678 14.9364Z" fill="#0081B1"/>
<path d="M41.7907 22.0001C42.2151 22.0001 42.5573 21.6578 42.5573 21.2335V16.6479C42.5573 16.2236 42.2151 15.8813 41.7907 15.8813C41.3664 15.8813 41.0242 16.2236 41.0242 16.6479V21.2335C41.0242 21.6578 41.3664 22.0001 41.7907 22.0001Z" fill="#6BC3E7"/>
<path d="M26.9525 15.4842C27.1578 15.8538 27.6369 15.9769 27.9928 15.7579C28.3624 15.5526 28.4856 15.0735 28.2666 14.7176L25.9806 10.748C25.7753 10.3784 25.2962 10.2552 24.9403 10.4742C24.5844 10.6932 24.4475 11.1586 24.6665 11.5145L26.9525 15.4842Z" fill="#6BC3E7"/>
<path d="M84.7585 69.252L63.0898 71.4284L61.4746 71.5927V123.034L84.7585 119.885V69.252Z" fill="#F6F6F6"/>
<path d="M95.4902 118.448L114.777 115.834V113.603V66.2407L95.4902 68.1708V118.448Z" fill="#F6F6F6"/>
<path d="M84.7585 69.1839V69.2523V119.886L95.4902 118.448V68.171V68.1299H95.4765L94.2446 68.2531L84.7585 69.1839Z" fill="#6BC3E7"/>
<path d="M44.7884 65.529L48.7855 66.98L36.5891 62.5449V64.5571L44.7884 67.7739V65.529Z" fill="#D0D2D3"/>
<path d="M61.4746 71.5929L60.9271 71.3876L54.3293 68.9921L54.2745 68.9647L48.9224 67.0347V69.4028L51.9475 70.58L48.9224 80.463V116.285L61.4746 123.034V71.5929Z" fill="#D0D2D3"/>
<path d="M44.7883 94.0278L42.4202 101.775L41.2841 105.526L39.532 111.248L39.6826 111.33L48.9222 116.285L44.7883 114.013V94.0278Z" fill="#D0D2D3"/>
<path d="M48.9222 80.4629L44.7883 94.0281V114.013L48.9222 116.285V80.4629Z" fill="#0081B1"/>
<path d="M46.1572 68.3075L48.9222 69.4026V67.0345L48.7853 66.9798L44.7883 65.5288V67.7737L45.2264 67.9517L46.1572 68.3075Z" fill="#0081B1"/>
<path d="M9.95153 99.832C9.95153 99.832 6.9264 96.7658 11.8816 94.8768C14.9478 93.7133 16.7273 92.8372 17.6307 92.3581L11.1561 87.7314L5.80396 108.113L12.1006 114.711L15.1668 104.5L9.95153 99.832Z" fill="#E6E7E8"/>
<path d="M18.3972 82.2286C16.5082 76.8765 21.6003 76.8491 21.6003 76.8491L23.2292 77.5609L27.7737 62.4216L18.671 59.0405L12.3469 83.1321L19.7523 87.0059C19.5607 85.9656 19.1774 84.4325 18.3835 82.2149L18.3972 82.2286Z" fill="#E6E7E8"/>
<path d="M31.0864 89.3878C29.9229 89.7027 28.0202 90.1407 26.2271 90.4145L33.2766 94.0966L34.5359 89.908C33.3176 89.4289 32.0446 89.1277 31.0864 89.3878Z" fill="#E6E7E8"/>
<path d="M30.9494 101.872L22.9144 96.1226L22.7364 96.6838C23.2566 98.915 23.6125 101.707 24.2421 103.583C25.3783 107.019 28.7319 108.853 28.7319 108.853L24.9813 108.743L26.1311 112.466C26.1311 112.466 21.9288 111.454 19.9714 107.21C19.8755 107.005 19.7934 106.786 19.7113 106.567L15.988 118.777L23.503 126.661L30.9357 101.872H30.9494Z" fill="#E6E7E8"/>
<path d="M41.2842 67.4318L31.2095 63.6948L32.6331 64.2424L27.7875 80.1346C28.3761 81.7772 27.719 83.6662 26.6924 85.3498C28.6224 84.2821 31.1822 83.5703 32.5236 83.4882C33.5776 83.4198 34.9602 83.6388 36.2742 84.1042L41.2705 67.4318H41.2842Z" fill="#E6E7E8"/>
<path d="M39.532 111.248L41.2841 105.526L30.9494 101.872L23.5029 126.675L34.4263 127.989L35.8909 123.171L39.5046 111.344L39.532 111.248Z" fill="#F6F6F6"/>
<path d="M41.2843 67.4317L36.288 84.1041C37.5747 84.5558 38.7793 85.2539 39.5459 86.1437C39.5459 86.1437 37.6569 85.3908 36.1238 86.9239C36.1238 86.9239 38.0128 90.4418 38.4508 91.9475C38.4508 91.9475 36.5755 90.6745 34.5496 89.8943L33.2903 94.0829L43.6661 97.6967L42.4204 101.762L44.7885 94.0145L48.9224 80.4493L51.9339 70.5663L41.2706 67.418L41.2843 67.4317Z" fill="#F6F6F6"/>
<path d="M27.7873 62.4215L27.4451 62.2983L27.7873 62.4078L27.801 62.3805L28.1432 62.5174L41.9001 66.6376L45.2263 67.9516L44.7883 67.7737L36.589 64.5569L35.7266 64.2147L18.6846 59.0542L27.7873 62.4215Z" fill="white"/>
<path d="M32.3045 64.1055L31.2095 63.6948L41.2841 67.4317L51.9474 70.5801L48.9222 69.4029L46.1572 68.3078L32.3045 64.1055Z" fill="white"/>
<path d="M42.4203 101.776L43.666 97.7104L33.2765 94.0967L30.9495 101.872L41.2842 105.526L42.4203 101.776Z" fill="#6BC3E7"/>
<path d="M19.1639 100.461C18.2057 102.788 16.8916 104.773 15.249 104.568L15.1532 104.486L12.087 114.697L12.0459 114.821L15.9197 118.996L15.9882 118.776L19.7114 106.566C18.9996 104.609 18.9312 102.405 19.1502 100.448L19.1639 100.461Z" fill="#0081B1"/>
<path d="M22.7363 96.6973L22.9143 96.1361L22.531 95.8623C22.5994 96.1361 22.6679 96.4098 22.7363 96.711V96.6973Z" fill="#0081B1"/>
<path d="M26.1038 78.8064L27.3905 79.3676C27.5548 79.614 27.678 79.8877 27.7738 80.1478L32.6195 64.2556L31.1959 63.7081L27.7738 62.4351L23.2292 77.5744L26.1038 78.82V78.8064Z" fill="#0081B1"/>
<path d="M27.801 62.3804L27.7874 62.4077L28.1433 62.5173L27.801 62.3804Z" fill="#0081B1"/>
<path d="M17.9865 92.1529C17.9865 92.1529 17.9181 92.0708 17.8907 92.0434C17.3021 91.2084 18.0823 89.0046 19.3417 88.5666C19.5196 88.4981 19.7249 88.4981 19.9303 88.5255C19.9303 88.2244 19.8892 87.7453 19.766 87.0335L12.3606 83.1597L11.156 87.7316L17.6306 92.3583C17.7675 92.2761 17.8907 92.2214 17.9865 92.1529Z" fill="#0089CF"/>
<path d="M33.2765 94.0967L26.227 90.4146C25.1319 90.5788 24.0779 90.6883 23.2703 90.6609C23.4209 91.7149 22.3806 93.029 21.614 93.6998C21.9836 94.1925 22.2711 94.9454 22.5174 95.8625L22.9007 96.1363L30.9358 101.885L33.2628 94.1104L33.2765 94.0967Z" fill="#0089CF"/>
<path d="M27.7874 80.1479C27.6915 79.8878 27.5683 79.6141 27.4041 79.3677C27.4041 79.3677 24.6801 78.9296 24.3653 84.2407C24.2284 86.5404 23.8862 87.9503 23.5303 88.799C23.804 88.4431 24.0915 87.9913 24.3516 87.4575C24.7212 86.6636 25.6109 85.9518 26.706 85.3632C27.7326 83.6795 28.3896 81.8042 27.801 80.1479H27.7874Z" fill="#0089CF"/>
<path d="M26.1038 78.8066L27.4042 79.3679L26.1038 78.8066Z" fill="#0089CF"/>
<path d="M20.4916 95.2324C19.643 96.4918 18.0688 98.0112 16.7684 99.818C14.8383 102.528 15.249 104.568 15.249 104.568C16.8916 104.773 18.192 102.788 19.1639 100.461C19.4103 98.2302 19.9989 96.3275 20.3821 95.4925C20.4232 95.3967 20.4643 95.3146 20.4916 95.2188V95.2324Z" fill="#0089CF"/>
<path d="M22.3257 89.6614C22.3257 89.6614 21.8603 88.6758 20.5051 88.6621L22.3257 89.6614Z" fill="#0089CF"/>
<path d="M19.7933 93.7271C18.6435 93.0426 18.2876 92.5088 18.2876 92.5088C18.6709 93.5765 19.7933 93.7271 19.7933 93.7271Z" fill="#0089CF"/>
<path d="M21.6139 93.6995C22.3804 93.0151 23.4207 91.701 23.2702 90.6607C24.0778 90.6881 25.1318 90.5786 26.2269 90.4143C28.0063 90.1405 29.909 89.7025 31.0862 89.3877C32.0307 89.1276 33.3174 89.4287 34.5357 89.9078C36.5616 90.7018 38.4369 91.9611 38.4369 91.9611C38.0126 90.4554 36.1099 86.9375 36.1099 86.9375C37.6293 85.3907 39.532 86.1572 39.532 86.1572C38.7791 85.2675 37.5608 84.5694 36.2741 84.1176C34.96 83.6522 33.5775 83.4332 32.5235 83.5017C31.1821 83.5838 28.6223 84.2956 26.6923 85.3633C25.6109 85.9656 24.7211 86.6774 24.3379 87.4576C24.0778 88.0051 23.804 88.4432 23.5166 88.7991C23.8588 87.9367 24.2147 86.5268 24.3516 84.2408C24.6664 78.9298 27.3904 79.3678 27.3904 79.3678L26.1037 78.8066L23.2291 77.5609L21.6002 76.8491C21.6002 76.8491 16.5081 76.8765 18.3971 82.2287C19.1773 84.4599 19.5743 85.9793 19.7659 87.0196C19.9028 87.7314 19.9302 88.2242 19.9302 88.5116C19.7112 88.4842 19.5059 88.4842 19.3416 88.5527C18.096 88.9907 17.3157 91.2082 17.8906 92.0295C17.918 92.0706 17.9591 92.1117 17.9865 92.139C17.8906 92.1938 17.7674 92.2622 17.6306 92.3444C16.7271 92.8371 14.9613 93.6995 11.8814 94.863C6.92625 96.752 9.95138 99.8182 9.95138 99.8182L15.1667 104.486L15.2625 104.568C15.2625 104.568 14.8518 102.515 16.7819 99.8182C18.0823 97.9977 19.6564 96.4919 20.5051 95.2326C20.4641 95.3284 20.4367 95.4106 20.3956 95.5064C20.0123 96.3414 19.4237 98.2441 19.1773 100.475C18.9583 102.433 19.0268 104.65 19.7386 106.594C19.8207 106.813 19.9028 107.032 19.9987 107.237C21.9424 111.481 26.1584 112.494 26.1584 112.494L25.0086 108.77L28.7592 108.88C28.7592 108.88 25.4056 107.046 24.2694 103.61C23.6534 101.721 23.2839 98.9422 22.7637 96.711C22.6953 96.4235 22.6268 96.136 22.5584 95.8623C22.312 94.9588 22.0245 94.1923 21.6549 93.6995H21.6139ZM20.5051 88.6622C21.8603 88.6759 22.3257 89.6614 22.3257 89.6614L20.5051 88.6622ZM19.7933 93.7269C19.7933 93.7269 18.6709 93.5763 18.2876 92.5086C18.2876 92.5086 18.6435 93.0425 19.7933 93.7269Z" fill="#6BC3E7"/>
<path d="M32.3047 64.1052L46.1573 68.3075L45.2265 67.9516L41.9002 66.6376L28.1434 62.5174L27.7875 62.4078L27.4453 62.2983L27.7875 62.4215L31.2096 63.6946L32.3047 64.1052Z" fill="#6BC3E7"/>
<path d="M115.598 16.1958L119.924 14.6764C120.321 14.5395 120.526 14.1015 120.389 13.7045C120.253 13.3076 119.814 13.1023 119.418 13.2391L115.092 14.7585C114.695 14.8954 114.49 15.3335 114.627 15.7304C114.763 16.1274 115.201 16.3327 115.598 16.1958Z" fill="#6BC3E7"/>
<path d="M116.529 21.4659C116.255 21.7807 116.297 22.2735 116.611 22.5472L120.088 25.5313C120.403 25.8051 120.896 25.764 121.17 25.4492C121.443 25.1343 121.402 24.6416 121.087 24.3678L117.611 21.3837C117.296 21.11 116.803 21.151 116.529 21.4659Z" fill="#0081B1"/>
<path d="M110.643 19.0705L109.261 23.4371C109.137 23.8341 109.356 24.2721 109.753 24.3953C110.15 24.5185 110.588 24.2995 110.712 23.9025L112.094 19.5359C112.217 19.139 111.998 18.7009 111.601 18.5777C111.204 18.4546 110.766 18.6736 110.643 19.0705Z" fill="#0081B1"/>
<path d="M116.119 30.5961C115.982 30.1992 115.544 29.9939 115.147 30.1307L110.821 31.6501C110.424 31.787 110.219 32.2251 110.356 32.622C110.493 33.019 110.931 33.2243 111.328 33.0874L115.653 31.568C116.05 31.4311 116.256 30.9931 116.119 30.5961Z" fill="#6BC3E7"/>
<path d="M108.932 28.7754C109.206 28.4605 109.165 27.9677 108.85 27.694L105.373 24.7099C105.058 24.4361 104.565 24.4772 104.292 24.792C104.018 25.1069 104.059 25.5996 104.374 25.8734L107.851 28.8575C108.166 29.1312 108.658 29.0902 108.932 28.7754Z" fill="#0081B1"/>
<path d="M120.143 31.0066L118.76 35.3732C118.637 35.7701 118.856 36.2081 119.253 36.3313C119.65 36.4545 120.088 36.2355 120.211 35.8386L121.594 31.472C121.717 31.075 121.498 30.637 121.101 30.5138C120.704 30.3906 120.266 30.6096 120.143 31.0066Z" fill="#0081B1"/>
<path d="M111.478 41.9576C111.793 42.2313 112.286 42.1903 112.559 41.8754C112.833 41.5606 112.792 41.0678 112.477 40.7941L109.001 37.81C108.686 37.5362 108.193 37.5773 107.919 37.8921C107.645 38.207 107.686 38.6997 108.001 38.9735L111.478 41.9576Z" fill="#0081B1"/>
<path d="M102.553 38.4398C102.964 38.5219 103.361 38.2481 103.443 37.8375L104.292 33.334C104.374 32.9234 104.1 32.5264 103.69 32.4443C103.279 32.3621 102.882 32.6359 102.8 33.0465L101.951 37.55C101.869 37.9607 102.143 38.3576 102.553 38.4398Z" fill="#6BC3E7"/>
<path d="M104.018 19.0019C104.155 19.3988 104.593 19.6042 104.99 19.4673C105.387 19.3304 105.592 18.8924 105.455 18.4954L103.936 14.1699C103.799 13.7729 103.361 13.5676 102.964 13.7045C102.567 13.8414 102.362 14.2794 102.499 14.6763L104.018 19.0019Z" fill="#6BC3E7"/>
<path d="M105.825 8.20205L109.794 10.488C110.164 10.6933 110.629 10.5701 110.835 10.2142C111.04 9.84465 110.917 9.37925 110.561 9.17392L106.591 6.88797C106.222 6.68264 105.756 6.80583 105.551 7.16173C105.346 7.53132 105.469 7.99672 105.825 8.20205Z" fill="#0081B1"/>
<path d="M37.4103 11.3228C37.821 11.3776 38.2042 11.0764 38.259 10.6521L38.8065 6.10755C38.8613 5.6969 38.5601 5.31362 38.1358 5.25887C37.7251 5.20412 37.3419 5.50526 37.2871 5.9296L36.7396 10.4741C36.6848 10.8848 36.986 11.2681 37.4103 11.3228Z" fill="#0081B1"/>
<path d="M45.0758 10.871L49.0454 13.157C49.415 13.3623 49.8804 13.2391 50.0857 12.8832C50.2911 12.5273 50.1679 12.0482 49.812 11.8429L45.8423 9.55691C45.4728 9.35158 45.0074 9.47478 44.802 9.83068C44.5967 10.2003 44.7199 10.6657 45.0758 10.871Z" fill="#0081B1"/>
<path d="M96.9685 12.0208C97.3654 12.144 97.8035 11.925 97.9267 11.528L99.3092 7.16142C99.4324 6.76446 99.2134 6.32643 98.8164 6.20323C98.4194 6.08004 97.9814 6.29905 97.8582 6.69602L96.4757 11.0626C96.3525 11.4596 96.5715 11.8976 96.9685 12.0208Z" fill="#0081B1"/>
<path d="M81.3364 45.6396C81.3364 47.1864 82.5958 48.4457 84.1425 48.4457C85.6893 48.4457 86.9487 47.1864 86.9487 45.6396C86.9487 44.0928 85.6893 42.8335 84.1425 42.8335C82.5958 42.8335 81.3364 44.0928 81.3364 45.6396Z" fill="#DF5551"/>
<path opacity="0.48" d="M81.3364 45.6396C81.3364 47.1864 82.5958 48.4457 84.1425 48.4457C85.6893 48.4457 86.9487 47.1864 86.9487 45.6396C86.9487 44.0928 85.6893 42.8335 84.1425 42.8335C82.5958 42.8335 81.3364 44.0928 81.3364 45.6396Z" fill="#C31D31"/>
<path d="M65.1977 49.0209C66.7445 49.0209 68.0038 47.7616 68.0038 46.2148C68.0038 44.668 66.7445 43.4087 65.1977 43.4087C63.6509 43.4087 62.3916 44.668 62.3916 46.2148C62.3916 47.7616 63.6509 49.0209 65.1977 49.0209Z" fill="#DF5551"/>
<path opacity="0.48" d="M65.1977 49.0209C66.7445 49.0209 68.0038 47.7616 68.0038 46.2148C68.0038 44.668 66.7445 43.4087 65.1977 43.4087C63.6509 43.4087 62.3916 44.668 62.3916 46.2148C62.3916 47.7616 63.6509 49.0209 65.1977 49.0209Z" fill="#C31D31"/>
</svg>
