<svg width="128" height="128" viewBox="0 0 128 128" fill="none" xmlns="http://www.w3.org/2000/svg">
<path d="M71.748 113.807C71.6973 114.077 71.6297 114.348 71.5621 114.618C71.8833 114.635 72.2213 114.703 72.5594 114.804C73.9286 115.244 74.8245 116.275 74.554 117.12C74.2836 117.965 72.9651 118.303 71.5959 117.864C70.2267 117.424 69.3308 116.393 69.6013 115.548C69.7196 115.193 70.0239 114.923 70.4465 114.77C70.531 114.449 70.6155 114.111 70.6831 113.79C68.6716 113.756 66.6094 113.739 64.5133 113.739C60.5579 113.739 56.7715 113.807 53.2048 113.925C53.2556 114.263 53.3232 114.618 53.4077 114.956C53.8303 115.108 54.1345 115.362 54.236 115.734C54.5064 116.579 53.6105 117.61 52.2413 118.05C50.8722 118.489 49.5368 118.151 49.2832 117.306C49.0128 116.461 49.9087 115.43 51.2778 114.99C51.6328 114.872 51.9709 114.821 52.309 114.804C52.2582 114.534 52.2075 114.246 52.1568 113.976C38.2959 114.483 28.3735 115.785 28.3735 117.323C28.3735 119.301 44.5502 120.889 64.5133 120.889C84.4764 120.889 100.653 119.284 100.653 117.323C100.653 115.599 88.2459 114.145 71.7649 113.824L71.748 113.807Z" fill="#989898"/>
<path d="M70.6832 113.79C70.6156 114.111 70.5311 114.432 70.4466 114.771C70.024 114.923 69.7028 115.176 69.6014 115.548C69.3309 116.393 70.2268 117.424 71.596 117.864C72.9652 118.303 74.3006 117.965 74.5541 117.12C74.8077 116.275 73.9287 115.244 72.5595 114.804C72.2214 114.703 71.8834 114.635 71.5622 114.618C71.6298 114.348 71.6805 114.077 71.7481 113.807C72.1031 112.066 72.1538 110.426 72.0862 109.057C71.7481 109.091 71.3932 109.125 71.0382 109.159C71.1058 110.511 71.0382 112.1 70.6832 113.79Z" fill="#211E1F"/>
<path d="M51.2779 114.973C49.9087 115.413 49.0128 116.444 49.2833 117.289C49.5537 118.134 50.8722 118.472 52.2414 118.033C53.6106 117.593 54.5065 116.562 54.236 115.717C54.1177 115.362 53.8134 115.109 53.4077 114.94C53.3232 114.601 53.2725 114.263 53.2049 113.908C52.9175 112.066 52.9175 110.19 53.0359 108.651C52.6809 108.601 52.3428 108.55 51.9878 108.499C51.8695 110.071 51.8526 112.015 52.1569 113.942C52.2076 114.213 52.2414 114.5 52.309 114.77C51.9879 114.77 51.6329 114.838 51.2779 114.956V114.973Z" fill="#211E1F"/>
<path d="M85.6428 80.9801C85.6428 80.9801 85.7104 81.0816 85.7442 81.1323L85.8457 80.5068C85.778 80.659 85.7273 80.8111 85.6428 80.9801Z" fill="#DF5551"/>
<path d="M87.1134 72.3594C86.9782 72.3256 86.8598 72.3087 86.7246 72.2917C86.8091 72.7312 86.8598 73.1876 86.9105 73.644L87.1134 72.3594Z" fill="#DF5551"/>
<path d="M61.0481 109.361C64.6486 109.513 68.0462 109.412 71.0381 109.158C71.3931 109.125 71.7481 109.091 72.0861 109.057C78.4926 108.364 82.7692 106.809 82.7354 104.831C82.7354 104.425 82.5325 104.037 82.1945 103.648L85.5076 82.6367C85.2878 82.8058 85.0174 82.941 84.6962 83.0086C82.093 88.0797 76.1768 96.3962 63.1949 104.932C54.5741 100.047 48.8438 95.0608 45.0574 90.8349L47.5253 107.654C48.8945 107.975 50.3989 108.263 52.0216 108.516C52.3597 108.567 52.7147 108.617 53.0697 108.668C55.5545 109.006 58.259 109.26 61.0819 109.361H61.0481Z" fill="#DF5551"/>
<path d="M59.7126 43.8095C53.1033 43.6911 44.6009 43.2855 37.9578 42.5079L41.3554 65.6996C43.6374 63.3331 46.7307 61.8287 50.1959 61.7103C55.1656 61.5413 59.5774 64.2797 61.9777 68.4379C64.1076 64.1275 68.3334 61.1018 73.2862 60.9497C79.5405 60.7468 84.9158 65.1248 86.4879 71.1932C86.7076 71.227 86.9781 71.2608 87.2654 71.3284L91.7618 42.7276L91.9477 41.3416C91.9477 41.3416 91.9308 41.3416 91.9139 41.3416C88.8205 43.4545 75.6358 43.8602 65.9669 43.8602C63.6004 43.8602 61.4368 43.8433 59.6788 43.8095H59.7126ZM46.3081 60.0369C44.7868 60.189 43.4345 59.0734 43.2824 57.569C43.1302 56.0476 44.2459 54.6954 45.7503 54.5432C47.2716 54.3911 48.6239 55.5067 48.776 57.0111C48.9282 58.5325 47.8125 59.8847 46.3081 60.0369ZM76.9542 51.3992C78.4756 51.247 79.8279 52.3627 79.98 53.8671C80.1321 55.3884 79.0165 56.7407 77.5121 56.8928C75.9907 57.045 74.6385 55.9293 74.4863 54.4249C74.3342 52.9036 75.4498 51.5513 76.9542 51.3992ZM52.1567 53.6135C51.2778 53.698 50.4664 52.5993 50.3312 51.1794C50.1959 49.7595 50.8045 48.5256 51.6834 48.441C52.5624 48.3565 53.3738 49.4553 53.509 50.8752C53.6443 52.2951 53.0357 53.529 52.1567 53.6135ZM68.9589 47.4944C69.8379 47.4099 70.6492 48.5087 70.7845 49.9286C70.9197 51.3485 70.3112 52.5824 69.4322 52.6669C68.5532 52.7514 67.7418 51.6527 67.6066 50.2328C67.4714 48.8129 68.0799 47.579 68.9589 47.4944ZM66.474 55.6251C66.6938 56.859 66.3726 58.1099 65.5782 59.141C64.8006 60.1552 63.6512 60.8482 62.3327 61.068C62.0284 61.1187 61.7242 61.1525 61.4199 61.1525C59.0534 61.1525 56.9912 59.5636 56.6024 57.3154C56.5855 57.1802 56.6024 57.0449 56.6869 56.9266C56.7714 56.8083 56.8897 56.7407 57.025 56.7238L65.8655 55.2025C66.1529 55.1518 66.4064 55.3377 66.4571 55.6251H66.474Z" fill="#DF5551"/>
<g opacity="0.2" style="mix-blend-mode:multiply">
<path d="M39.158 103.09C39.2087 106.082 46.6969 107.536 47.5083 107.772V107.654C42.4372 106.471 39.1749 104.814 39.158 103.09Z" fill="#A32035"/>
</g>
<path d="M38.279 70.6523C38.9552 68.776 40.0201 67.0856 41.3724 65.6995L37.9748 42.5079C32.9206 41.9331 28.9483 41.1387 27.7312 40.1414C27.7312 40.1414 27.7312 40.1752 27.7312 40.1921L33.7827 71.8355C35.4054 70.8551 37.2986 70.6185 37.9748 70.5677C38.0931 70.5677 38.1776 70.6015 38.279 70.6692V70.6523Z" fill="#DF5551"/>
<g opacity="0.2" style="mix-blend-mode:multiply">
<path d="M38.279 70.6523C38.9552 68.776 40.0201 67.0856 41.3724 65.6995L37.9748 42.5079C32.9206 41.9331 28.9483 41.1387 27.7312 40.1414C27.7312 40.1414 27.7312 40.1752 27.7312 40.1921L33.7827 71.8355C35.4054 70.8551 37.2986 70.6185 37.9748 70.5677C38.0931 70.5677 38.1776 70.6015 38.279 70.6692V70.6523Z" fill="#A32035"/>
</g>
<path d="M37.4339 76.0445C37.3832 74.5062 37.586 73.0187 37.9748 71.6157C36.707 71.7171 35.1519 72.1397 34.0024 72.968L35.304 79.797C36.2168 80.2872 37.1803 80.6253 38.0762 80.8282C38.1269 80.6929 38.1776 80.5746 38.2621 80.4563C38.0593 79.9323 37.9917 79.6449 37.9917 79.6449C37.6536 78.5124 37.4677 77.2953 37.417 76.0445H37.4339Z" fill="#DF5551"/>
<g opacity="0.2" style="mix-blend-mode:multiply">
<path d="M37.4339 76.0445C37.3832 74.5062 37.586 73.0187 37.9748 71.6157C36.707 71.7171 35.1519 72.1397 34.0024 72.968L35.304 79.797C36.2168 80.2872 37.1803 80.6253 38.0762 80.8282C38.1269 80.6929 38.1776 80.5746 38.2621 80.4563C38.0593 79.9323 37.9917 79.6449 37.9917 79.6449C37.6536 78.5124 37.4677 77.2953 37.417 76.0445H37.4339Z" fill="#A32035"/>
</g>
<path d="M39.1412 82.3832C38.8032 82.2818 38.5327 82.1297 38.3299 81.9268C37.434 81.7578 36.4705 81.4535 35.5408 81.0479L39.5638 102.042C39.2934 102.38 39.1581 102.718 39.1581 103.073C39.1919 104.797 42.4543 106.454 47.4916 107.637L45.0237 90.8181C41.9303 87.3529 40.1216 84.3778 39.1243 82.3663L39.1412 82.3832Z" fill="#DF5551"/>
<g opacity="0.2" style="mix-blend-mode:multiply">
<path d="M39.1412 82.3832C38.8032 82.2818 38.5327 82.1297 38.3299 81.9268C37.434 81.7578 36.4705 81.4535 35.5408 81.0479L39.5638 102.042C39.2934 102.38 39.1581 102.718 39.1581 103.073C39.1919 104.797 42.4543 106.454 47.4916 107.637L45.0237 90.8181C41.9303 87.3529 40.1216 84.3778 39.1243 82.3663L39.1412 82.3832Z" fill="#A32035"/>
</g>
<path d="M71.0043 13.9068C71.0043 13.9068 70.9197 13.7884 70.9028 13.687C70.9028 13.7715 70.9535 13.8391 71.0043 13.9068Z" fill="#B7A59C"/>
<path d="M28.2722 39.313C28.8469 40.5639 41.0851 42.5078 59.7297 42.829C65.5614 42.9304 70.5142 42.8797 74.6893 42.7444C91.5084 34.2081 66.0009 28.106 61.6905 23.897C57.2956 19.6204 58.2422 11.2531 64.7501 9.51206C68.9252 8.39643 72.7623 12.5716 71.7988 14.0253C72.0693 13.8732 72.3059 13.5351 72.3905 12.8759C72.3905 12.859 72.3905 12.8421 72.3905 12.8252C72.9821 9.63039 68.4519 7.55125 65.8995 7.21318C63.9894 6.95963 59.8649 6.97653 56.3659 9.6642C51.7005 13.2308 49.3002 21.5981 32.7854 30.1682C27.7144 32.8052 27.258 37.555 28.2384 39.3637H28.2722C28.2722 39.3637 28.2722 39.3299 28.2722 39.313Z" fill="#B7A59C"/>
<path d="M37.9748 42.5077C44.6179 43.2683 53.1204 43.6909 59.7297 43.8093C61.4876 43.8431 63.6344 43.86 66.0178 43.86C75.7035 43.86 88.8714 43.4543 91.9647 41.3413C92.3873 41.054 92.6409 40.7328 92.6409 40.3778H91.6605C91.6605 40.3778 91.6097 40.5131 91.5421 40.5976C91.5252 40.9357 91.4745 41.2737 91.4069 41.6287C91.4069 41.6287 91.0519 41.8315 85.8963 42.5077C84.73 42.6598 88.1107 42.5077 80.7746 42.9134C70.6155 43.4881 73.7596 43.2345 73.7596 43.2345C74.1146 43.0655 74.4188 42.9134 74.74 42.7443C70.5648 42.8796 65.6121 42.9134 59.7804 42.8288C41.1358 42.5077 28.8976 40.5638 28.3229 39.3129C28.3229 39.3298 28.3229 39.3636 28.3229 39.3805H28.2891L27.4608 38.9072C27.3086 39.1946 27.3086 39.5158 27.4608 39.8031C27.5284 39.9214 27.6298 40.0229 27.765 40.1243C28.9821 41.1385 32.9544 41.9161 38.0086 42.4908L37.9748 42.5077Z" fill="white"/>
<path opacity="0.4" d="M71.0044 13.907C71.2072 14.2113 71.6805 14.1944 71.7989 14.0423C71.7989 14.0423 71.7989 14.0254 71.7989 14.0085C71.4946 14.1775 71.1565 14.093 71.0044 13.8901V13.907Z" fill="white"/>
<path d="M64.75 9.51206C58.2421 11.2362 57.3124 19.6035 61.6904 23.897C66.0008 28.106 91.5083 34.225 74.6893 42.7444C85.2371 42.4064 90.6462 41.4598 91.5083 40.5977C91.9309 34.6983 84.0876 32.3657 84.0876 32.3657C91.2547 27.582 72.1875 20.3472 72.1875 20.3472C72.1875 20.3472 72.1875 20.3472 72.1706 20.3472C71.7818 20.1444 71.3931 19.9416 71.0212 19.7218C69.8548 19.0457 68.1138 17.8455 67.0996 16.358C67.0658 16.2904 67.015 16.2397 66.9812 16.1721C66.8967 16.0368 66.8122 15.8847 66.7277 15.7495C66.7277 15.7495 66.7277 15.7157 66.7108 15.7157C65.8487 14.0084 66.153 13.1632 66.491 12.7575C66.6263 12.6561 66.7446 12.5547 66.8798 12.4702C67.7081 11.98 68.3335 11.9631 68.6547 11.9969C69.0773 12.0645 69.6013 12.2335 70.0746 12.5885C70.1084 12.6223 70.1422 12.6392 70.176 12.673C70.3281 12.8252 70.4634 12.9773 70.5986 13.1294C70.6324 13.1801 70.6662 13.2139 70.7 13.2647C70.7338 13.3154 70.7676 13.3661 70.8014 13.4168C70.8522 13.5182 70.886 13.6027 70.9198 13.7041C70.9198 13.7887 70.9705 13.8563 71.0212 13.9239C71.1733 14.1267 71.5114 14.2112 71.8157 14.0422C72.7623 12.5885 68.9421 8.41333 64.7669 9.52897L64.75 9.51206Z" fill="#B7A59C"/>
<path opacity="0.4" d="M64.75 9.51206C58.2421 11.2362 57.3124 19.6035 61.6904 23.897C66.0008 28.106 91.5083 34.225 74.6893 42.7444C85.2371 42.4064 90.6462 41.4598 91.5083 40.5977C91.9309 34.6983 84.0876 32.3657 84.0876 32.3657C91.2547 27.582 72.1875 20.3472 72.1875 20.3472C72.1875 20.3472 72.1875 20.3472 72.1706 20.3472C71.7818 20.1444 71.3931 19.9416 71.0212 19.7218C69.8548 19.0457 68.1138 17.8455 67.0996 16.358C67.0658 16.2904 67.015 16.2397 66.9812 16.1721C66.8967 16.0368 66.8122 15.8847 66.7277 15.7495C66.7277 15.7495 66.7277 15.7157 66.7108 15.7157C65.8487 14.0084 66.153 13.1632 66.491 12.7575C66.6263 12.6561 66.7446 12.5547 66.8798 12.4702C67.7081 11.98 68.3335 11.9631 68.6547 11.9969C69.0773 12.0645 69.6013 12.2335 70.0746 12.5885C70.1084 12.6223 70.1422 12.6392 70.176 12.673C70.3281 12.8252 70.4634 12.9773 70.5986 13.1294C70.6324 13.1801 70.6662 13.2139 70.7 13.2647C70.7338 13.3154 70.7676 13.3661 70.8014 13.4168C70.8522 13.5182 70.886 13.6027 70.9198 13.7041C70.9198 13.7887 70.9705 13.8563 71.0212 13.9239C71.1733 14.1267 71.5114 14.2112 71.8157 14.0422C72.7623 12.5885 68.9421 8.41333 64.7669 9.52897L64.75 9.51206Z" fill="white"/>
<path d="M74.6892 42.7444C74.3681 42.9134 74.0638 43.0656 73.7088 43.2346C73.7088 43.2346 70.5648 43.4882 80.7238 42.9134C88.0769 42.4909 84.6961 42.6599 85.8456 42.5078C91.0181 41.8316 91.3561 41.6288 91.3561 41.6288C91.4407 41.2738 91.4745 40.9357 91.4914 40.5977C90.6293 41.4597 85.2202 42.4063 74.6723 42.7444H74.6892Z" fill="white"/>
<path opacity="0.4" d="M74.6892 42.7444C74.3681 42.9134 74.0638 43.0656 73.7088 43.2346C73.7088 43.2346 70.5648 43.4882 80.7238 42.9134C88.0769 42.4909 84.6961 42.6599 85.8456 42.5078C91.0181 41.8316 91.3561 41.6288 91.3561 41.6288C91.4407 41.2738 91.4745 40.9357 91.4914 40.5977C90.6293 41.4597 85.2202 42.4063 74.6723 42.7444H74.6892Z" fill="white"/>
<path d="M69.4491 52.65C70.3281 52.5654 70.9366 51.3484 70.8014 49.9116C70.6662 48.4917 69.8548 47.393 68.9758 47.4775C68.0968 47.562 67.4883 48.779 67.6235 50.2158C67.7588 51.6357 68.5701 52.7345 69.4491 52.65Z" fill="#211E1F"/>
<path d="M51.6836 48.4408C50.8046 48.5254 50.1961 49.7424 50.3313 51.1792C50.4665 52.5991 51.2779 53.6978 52.1569 53.6133C53.0359 53.5288 53.6444 52.3118 53.5092 50.875C53.374 49.4551 52.5626 48.3563 51.6836 48.4408Z" fill="#211E1F"/>
<path d="M86.7414 72.2918C86.8597 72.3088 86.995 72.3426 87.1302 72.3595C88.5163 72.6468 89.9869 73.2723 90.849 74.3372C91.4913 75.1316 91.728 76.1121 91.5758 77.2446C91.4237 78.3602 90.4095 79.2561 89.5981 79.8139C88.4487 80.5915 87.0964 81.1324 85.8962 81.4029C85.8624 81.3014 85.8117 81.2169 85.761 81.1155C85.7272 81.0648 85.6934 81.0141 85.6596 80.9634C85.2877 80.4732 84.5947 80.0506 83.7326 79.8646C82.3296 79.5604 81.028 80.0168 80.859 80.8788C80.673 81.7409 81.6703 82.6875 83.0733 82.9918C83.665 83.127 84.2228 83.1101 84.713 82.9918C85.0342 82.9073 85.3215 82.7889 85.5244 82.6199C85.5751 82.5861 85.6089 82.5523 85.6596 82.5016C87.1809 82.2311 88.8882 81.5719 90.2066 80.6591C91.6265 79.6956 92.4548 78.5462 92.6238 77.3798C92.8267 75.943 92.5055 74.7091 91.6772 73.6779C90.494 72.2073 88.6346 71.5819 87.2992 71.3283C87.0119 71.2776 86.7414 71.2269 86.5217 71.1931C86.6231 71.5481 86.6907 71.92 86.7583 72.2918H86.7414Z" fill="#211E1F"/>
<path d="M86.9781 74.4047C86.9781 74.1512 86.9442 73.8976 86.9104 73.644L85.8286 80.49C86.454 78.9179 86.64 78.0221 86.64 78.0221C86.8935 76.8557 87.0119 75.6556 86.9781 74.4047Z" fill="#CE0E2D"/>
<path d="M83.0565 83.0255C81.6535 82.7212 80.6562 81.7746 80.8421 80.9126C81.028 80.0505 82.3127 79.5941 83.7157 79.8983C84.5609 80.0843 85.2539 80.5069 85.6427 80.9971C85.7103 80.828 85.7779 80.6759 85.8456 80.5238L86.9274 73.6778C86.8936 73.2214 86.826 72.7651 86.7414 72.3256C86.4541 72.2748 86.1836 72.241 85.9132 72.2241C85.6258 72.2072 85.4061 71.9537 85.4399 71.6663C85.4568 71.379 85.7272 71.1592 85.9977 71.193C86.1329 71.193 86.3019 71.2268 86.5048 71.2437C84.9159 65.1754 79.5405 60.7973 73.3031 61.0002C68.3335 61.1692 64.1076 64.178 61.9946 68.4885C59.5943 64.3133 55.1825 61.5918 50.2129 61.7608C46.7476 61.8792 43.6543 63.3836 41.3723 65.7501L45.0404 90.8857C48.8268 95.1284 54.5571 100.098 63.1779 104.983C76.1767 96.4469 82.0761 88.1304 84.6792 83.0593C84.2059 83.1776 83.6312 83.1945 83.0396 83.0593L83.0565 83.0255Z" fill="#DF5551"/>
<path d="M83.0565 83.0255C81.6535 82.7212 80.6562 81.7746 80.8421 80.9126C81.028 80.0505 82.3127 79.5941 83.7157 79.8983C84.5609 80.0843 85.2539 80.5069 85.6427 80.9971C85.7103 80.828 85.7779 80.6759 85.8456 80.5238L86.9274 73.6778C86.8936 73.2214 86.826 72.7651 86.7414 72.3256C86.4541 72.2748 86.1836 72.241 85.9132 72.2241C85.6258 72.2072 85.4061 71.9537 85.4399 71.6663C85.4568 71.379 85.7272 71.1592 85.9977 71.193C86.1329 71.193 86.3019 71.2268 86.5048 71.2437C84.9159 65.1754 79.5405 60.7973 73.3031 61.0002C68.3335 61.1692 64.1076 64.178 61.9946 68.4885C59.5943 64.3133 55.1825 61.5918 50.2129 61.7608C46.7476 61.8792 43.6543 63.3836 41.3723 65.7501L45.0404 90.8857C48.8268 95.1284 54.5571 100.098 63.1779 104.983C76.1767 96.4469 82.0761 88.1304 84.6792 83.0593C84.2059 83.1776 83.6312 83.1945 83.0396 83.0593L83.0565 83.0255Z" fill="#CE0E2D"/>
<path d="M38.2791 70.6522C38.4144 70.7367 38.5327 70.855 38.5327 71.041C38.5496 71.3283 38.3467 71.5819 38.0594 71.5988C38.0256 71.5988 38.0087 71.5988 37.9749 71.5988C37.5861 73.0018 37.3832 74.4893 37.4339 76.0275C37.4678 77.2784 37.6706 78.4785 38.0087 79.628C38.0087 79.628 38.0932 79.9153 38.2791 80.4394C38.651 79.9323 39.3609 79.4759 40.2399 79.2899C41.6429 78.9857 42.9445 79.442 43.1135 80.3041C43.2995 81.1662 42.3022 82.1128 40.8992 82.4171C40.2399 82.5523 39.6314 82.5354 39.1243 82.3833C40.1216 84.3948 41.9303 87.3698 45.0236 90.835L41.3556 65.6995C40.0033 67.0856 38.9384 68.7759 38.2622 70.6522H38.2791Z" fill="#DF5551"/>
<g opacity="0.2" style="mix-blend-mode:multiply">
<path d="M38.2791 70.6522C38.4144 70.7367 38.5327 70.855 38.5327 71.041C38.5496 71.3283 38.3467 71.5819 38.0594 71.5988C38.0256 71.5988 38.0087 71.5988 37.9749 71.5988C37.5861 73.0018 37.3832 74.4893 37.4339 76.0275C37.4678 77.2784 37.6706 78.4785 38.0087 79.628C38.0087 79.628 38.0932 79.9153 38.2791 80.4394C38.651 79.9323 39.3609 79.4759 40.2399 79.2899C41.6429 78.9857 42.9445 79.442 43.1135 80.3041C43.2995 81.1662 42.3022 82.1128 40.8992 82.4171C40.2399 82.5523 39.6314 82.5354 39.1243 82.3833C40.1216 84.3948 41.9303 87.3698 45.0236 90.835L41.3556 65.6995C40.0033 67.0856 38.9384 68.7759 38.2622 70.6522H38.2791Z" fill="#A32035"/>
</g>
<path d="M38.2791 70.6522C38.4144 70.7367 38.5327 70.855 38.5327 71.041C38.5496 71.3283 38.3467 71.5819 38.0594 71.5988C38.0256 71.5988 38.0087 71.5988 37.9749 71.5988C37.5861 73.0018 37.3832 74.4893 37.4339 76.0275C37.4678 77.2784 37.6706 78.4785 38.0087 79.628C38.0087 79.628 38.0932 79.9153 38.2791 80.4394C38.651 79.9323 39.3609 79.4759 40.2399 79.2899C41.6429 78.9857 42.9445 79.442 43.1135 80.3041C43.2995 81.1662 42.3022 82.1128 40.8992 82.4171C40.2399 82.5523 39.6314 82.5354 39.1243 82.3833C40.1216 84.3948 41.9303 87.3698 45.0236 90.835L41.3556 65.6995C40.0033 67.0856 38.9384 68.7759 38.2622 70.6522H38.2791Z" fill="#CE0E2D"/>
<path d="M38.5327 71.0409C38.5327 70.8718 38.4143 70.7366 38.2791 70.6521C38.1608 70.9564 38.0763 71.2775 37.9749 71.5987C38.0087 71.5987 38.0256 71.5987 38.0594 71.5987C38.3467 71.5818 38.5665 71.3282 38.5327 71.0409Z" fill="#211E1F"/>
<path d="M38.5327 71.0409C38.5327 70.8718 38.4143 70.7366 38.2791 70.6521C38.1608 70.9564 38.0763 71.2775 37.9749 71.5987C38.0087 71.5987 38.0256 71.5987 38.0594 71.5987C38.3467 71.5818 38.5665 71.3282 38.5327 71.0409Z" fill="#CE0E2D"/>
<path d="M85.4231 71.6326C85.4062 71.9199 85.609 72.1735 85.8964 72.1904C86.1669 72.2073 86.4373 72.258 86.7247 72.2918C86.6571 71.9199 86.5725 71.5649 86.488 71.1931C86.2852 71.1593 86.0992 71.1424 85.9809 71.1424C85.6936 71.1085 85.44 71.3283 85.4231 71.6157V71.6326Z" fill="#211E1F"/>
<path d="M85.4231 71.6326C85.4062 71.9199 85.609 72.1735 85.8964 72.1904C86.1669 72.2073 86.4373 72.258 86.7247 72.2918C86.6571 71.9199 86.5725 71.5649 86.488 71.1931C86.2852 71.1593 86.0992 71.1424 85.9809 71.1424C85.6936 71.1085 85.44 71.3283 85.4231 71.6157V71.6326Z" fill="#CE0E2D"/>
<path d="M39.1412 82.3833C39.6483 82.5354 40.2737 82.5692 40.916 82.4171C42.319 82.1128 43.3163 81.1662 43.1304 80.3041C42.9445 79.442 41.6598 78.9857 40.2568 79.2899C39.3778 79.4759 38.6679 79.9153 38.296 80.4394C38.2115 80.5577 38.1439 80.6929 38.1101 80.8112C37.2142 80.6084 36.2507 80.2703 35.3379 79.7801C35.0167 79.6111 34.6955 79.4251 34.4082 79.2223C33.5968 78.6645 32.5826 77.7686 32.4305 76.653C32.2783 75.5204 32.515 74.54 33.1573 73.7456C33.4109 73.4413 33.6982 73.1708 34.0363 72.9511C35.1857 72.1228 36.7409 71.7171 38.0086 71.5988C38.0931 71.2776 38.1946 70.9565 38.3129 70.6522C38.2284 70.6015 38.127 70.5508 38.0086 70.5508C37.3325 70.6015 35.4393 70.8381 33.8166 71.8185C33.2756 72.1566 32.7685 72.5623 32.3459 73.0863C31.5177 74.1174 31.1965 75.3683 31.3993 76.7882C31.5684 77.9714 32.3967 79.104 33.8166 80.0675C34.3575 80.4394 34.9491 80.7436 35.5745 81.0141C36.4873 81.4198 37.4508 81.7409 38.3636 81.8931C38.5664 82.0959 38.8369 82.248 39.175 82.3495L39.1412 82.3833Z" fill="#211E1F"/>
<path d="M45.7674 54.5263C44.2461 54.6784 43.1473 56.0307 43.2995 57.552C43.4516 59.0733 44.8039 60.1721 46.3252 60.0199C47.8465 59.8678 48.9453 58.5155 48.7931 56.9942C48.641 55.4729 47.2887 54.3741 45.7674 54.5263Z" fill="#DF5551"/>
<path opacity="0.5" d="M45.7674 54.5263C44.2461 54.6784 43.1473 56.0307 43.2995 57.552C43.4516 59.0733 44.8039 60.1721 46.3252 60.0199C47.8465 59.8678 48.9453 58.5155 48.7931 56.9942C48.641 55.4729 47.2887 54.3741 45.7674 54.5263Z" fill="#CE0E2D"/>
<path d="M77.4954 56.8927C79.0167 56.7406 80.1154 55.3883 79.9633 53.867C79.8112 52.3457 78.4589 51.2469 76.9376 51.3991C75.4162 51.5512 74.3175 52.9035 74.4696 54.4248C74.6218 55.9461 75.9741 57.0449 77.4954 56.8927Z" fill="#DF5551"/>
<path opacity="0.5" d="M77.4954 56.8927C79.0167 56.7406 80.1154 55.3883 79.9633 53.867C79.8112 52.3457 78.4589 51.2469 76.9376 51.3991C75.4162 51.5512 74.3175 52.9035 74.4696 54.4248C74.6218 55.9461 75.9741 57.0449 77.4954 56.8927Z" fill="#CE0E2D"/>
<path d="M57.042 56.7237C56.9068 56.7406 56.7884 56.8252 56.7039 56.9266C56.6194 57.0449 56.5856 57.1801 56.6194 57.3154C57.0082 59.5635 59.0704 61.1525 61.4369 61.1525C61.7412 61.1525 62.0454 61.1356 62.3497 61.0679C63.6682 60.8482 64.8176 60.1552 65.5952 59.1409C66.3897 58.1098 66.7108 56.859 66.4911 55.625C66.4404 55.3376 66.1699 55.1517 65.8994 55.2024L57.0589 56.7237H57.042Z" fill="#211E1F"/>
</svg>
