<svg width="128" height="128" viewBox="0 0 128 128" fill="none" xmlns="http://www.w3.org/2000/svg">
<path d="M63.0981 122.395C62.8072 123.326 61.3332 123.694 59.8011 123.229C58.269 122.744 57.2799 121.6 57.5708 120.65C57.629 120.436 57.7648 120.262 57.9393 120.126C55.4569 120.087 52.8775 120.048 50.2593 120.048C46.6908 120.048 43.2581 120.107 39.9611 120.184C40.2132 120.359 40.4072 120.572 40.5041 120.843C40.7951 121.774 39.806 122.938 38.2738 123.423C36.7417 123.908 35.2678 123.539 34.9769 122.589C34.7248 121.794 35.4035 120.843 36.5478 120.281C21.1102 120.843 10.0557 122.298 10.0557 124.024C10.0557 126.216 28.0532 128 50.2593 128C72.4654 128 90.4629 126.216 90.4629 124.024C90.4629 122.22 78.3611 120.708 61.7599 120.223C62.7684 120.805 63.3308 121.658 63.0981 122.395Z" fill="#989898"/>
<path d="M58.521 119.796C58.2883 119.874 58.0944 119.99 57.9392 120.126C57.7647 120.281 57.6483 120.456 57.5707 120.65C57.2798 121.58 58.2689 122.744 59.801 123.229C61.3332 123.714 62.8071 123.345 63.098 122.395C63.3307 121.658 62.7489 120.785 61.7598 120.223C61.4883 120.068 61.1974 119.932 60.8677 119.835C60.4992 119.719 60.1113 119.641 59.7623 119.622C60.3247 117.333 60.441 115.2 60.3441 113.435C59.9562 113.474 59.5683 113.513 59.1804 113.551C59.2774 115.336 59.161 117.508 58.521 119.796Z" fill="#211E1F"/>
<path d="M34.9575 122.589C35.2484 123.52 36.7223 123.888 38.2544 123.423C39.7866 122.938 40.7756 121.794 40.4847 120.844C40.4072 120.572 40.2132 120.359 39.9417 120.184C39.8253 120.107 39.6896 120.049 39.5538 119.99C39.0108 117.605 38.9914 115.045 39.1466 113.009C38.7587 112.95 38.3708 112.892 37.9829 112.834C37.8278 114.851 37.8278 117.372 38.332 119.816C37.9635 119.816 37.5756 119.893 37.1878 120.029C36.955 120.107 36.7417 120.204 36.5284 120.301C35.3841 120.863 34.7053 121.813 34.9575 122.608V122.589Z" fill="#211E1F"/>
<path d="M74.6374 67.3166C74.4823 67.0256 74.5986 66.6766 74.8895 66.5408C75.1804 66.3856 75.5295 66.502 75.6653 66.7929C76.1501 67.7238 76.8483 68.4414 77.6435 68.9844L82.2592 39.6609L82.4726 38.1094H82.4532C79.0204 40.456 64.3586 40.9215 53.595 40.9215C50.9574 40.9215 48.5332 40.9021 46.5938 40.8633C39.2435 40.7275 29.7792 40.2815 22.3901 39.4282L32.9986 111.903C34.5307 112.272 36.1986 112.582 38.0023 112.853C38.3901 112.912 38.778 112.97 39.1659 113.028C41.9392 113.416 44.9259 113.687 48.0871 113.804C52.1017 113.959 55.8835 113.862 59.1998 113.571C59.6071 113.532 59.9756 113.493 60.3635 113.455C67.481 112.698 72.252 110.953 72.2132 108.761C72.2132 108.315 71.9998 107.869 71.612 107.442L77.4689 70.245C76.3247 69.5856 75.355 68.6547 74.6568 67.3553L74.6374 67.3166ZM51.7526 64.5432C51.7526 64.5432 51.9465 64.6014 52.0241 64.6402C52.3732 64.7954 52.5671 65.0281 52.6641 65.2802L46.8265 67.782C46.652 67.4911 46.4968 67.1614 46.3804 66.8317L51.7332 64.5432H51.7526ZM46.2059 65.5905C46.3029 64.2717 47.9901 63.845 49.8132 64.0584L46.2059 65.5905ZM48.6301 67.1226L49.7162 67.3166L49.8713 67.782L52.5477 66.6378C52.3344 67.1614 51.9659 67.7044 51.5974 68.1893L50.201 68.7905L50.5889 69.9347C50.5889 69.9347 50.7053 70.8462 49.1538 70.8656C47.9901 70.8656 48.2035 69.9153 48.378 69.4111C48.2035 69.3335 47.9126 69.1202 47.5829 68.7711L48.5526 68.3638L48.6301 67.142V67.1226ZM50.7635 70.4584L51.1126 71.4474L47.1756 73.1347L47.6023 71.7965L50.7635 70.439V70.4584ZM51.5004 72.5917L51.8495 73.5808L46.2253 75.9856L46.652 74.6474L51.5004 72.5723V72.5917ZM52.2374 74.7056L52.5865 75.6947L45.3138 78.7977L45.7404 77.4595L52.2374 74.6862V74.7056ZM52.9744 76.8196L53.3235 77.8086L46.012 80.9311L45.4107 80.0389L52.9744 76.8002V76.8196ZM53.7307 78.9335L53.9635 79.6123L53.6726 80.0971L47.3113 82.8123L46.7101 81.9201L53.7307 78.9141V78.9335ZM52.6059 81.862L51.675 83.3941L48.5913 84.7129L47.9901 83.8207L52.6059 81.8426V81.862ZM50.6277 85.1395L49.7938 86.5165L49.2507 85.7213L50.6083 85.1395H50.6277ZM43.1223 55.8742C43.0641 55.5639 43.2774 55.273 43.5877 55.2148L53.4398 53.5275C53.595 53.5081 53.7501 53.5275 53.8665 53.6245C53.9829 53.7214 54.0798 53.8378 54.0992 53.993C54.5841 56.8245 52.5089 59.5396 49.4835 60.0632C49.1344 60.1214 48.8047 60.1602 48.4556 60.1602C47.3501 60.1602 46.2835 59.8499 45.3526 59.2487C44.1307 58.4536 43.3356 57.2705 43.1029 55.8936L43.1223 55.8742ZM66.2398 47.7287C66.2398 47.7287 65.3089 47.6124 64.6689 47.4766C64.7077 47.7287 64.7271 47.9809 64.7077 48.233C64.6107 49.6487 63.7768 50.9093 62.361 51.7821C61.178 52.519 59.6847 52.9263 58.1138 52.9263C57.8811 52.9263 57.6483 52.9263 57.4156 52.9069C55.5926 52.7711 53.9053 52.1311 52.6835 51.0839C52.0823 50.5796 51.6556 50.0172 51.3453 49.416C50.5695 48.873 49.0568 48.039 47.2532 48.2524C45.4107 48.4657 44.2277 49.4354 43.6847 49.9978C43.5101 50.8705 43.0835 51.7045 42.3853 52.4608C41.2798 53.6439 39.6895 54.4778 37.9053 54.8269C37.3235 54.9433 36.7417 55.0014 36.1792 55.0014C33.1344 55.0014 30.5744 53.4305 30.1089 51.0451C30.0313 50.6766 30.0313 50.2887 30.0701 49.9202C29.4689 50.1142 28.6156 50.3275 28.6156 50.3275C28.6156 50.3275 27.7429 48.8148 28.4023 48.7372C29.1198 48.6402 30.1865 48.233 30.7101 48.0196C30.9235 47.6706 31.1562 47.3409 31.4665 47.0112C32.572 45.8281 34.1623 44.9942 35.9465 44.6451C37.7501 44.296 39.5344 44.49 40.9889 45.1687C42.2495 45.77 43.1223 46.6815 43.5295 47.7869C44.0532 47.496 45.4495 46.7978 47.2532 46.7009C48.7659 46.6039 50.2204 46.9336 50.9186 47.1275C51.1901 44.3348 54.4483 42.2791 58.1913 42.57C60.8095 42.7639 62.9817 44.0245 64.0483 45.7312C64.6301 45.8863 65.6192 46.1384 66.2786 46.1384C66.9574 46.1384 66.2592 47.7481 66.2592 47.7481L66.2398 47.7287Z" fill="#DF5551"/>
<path d="M58.1138 43.4622C54.8168 43.2101 51.9853 44.9167 51.8108 47.2634C51.7332 48.3689 52.2568 49.4549 53.2847 50.347C54.3708 51.2585 55.8447 51.8404 57.4738 51.9567C59.1029 52.0731 60.6544 51.724 61.8568 50.987C63.0204 50.2695 63.6992 49.261 63.7768 48.1555C63.9514 45.8283 61.4108 43.7143 58.0944 43.4816L58.1138 43.4622ZM57.3962 50.6767C56.4265 50.7737 55.515 49.5519 55.3598 47.9616C55.2047 46.3713 55.8835 45.0137 56.8532 44.9167C57.8229 44.8198 58.7344 46.0416 58.8895 47.6319C59.0447 49.2222 58.3659 50.5798 57.3962 50.6767Z" fill="#DF5551"/>
<path d="M40.5623 45.9835C39.709 45.5763 38.7199 45.3823 37.6726 45.3823C37.149 45.3823 36.6253 45.4405 36.1017 45.5375C34.492 45.8478 33.0956 46.5847 32.1259 47.6126C31.195 48.6017 30.8071 49.7459 31.0205 50.832C31.4665 53.1399 34.4726 54.4974 37.7114 53.8768C39.3211 53.5665 40.7175 52.8296 41.6871 51.8017C42.6181 50.8126 43.0059 49.6684 42.7926 48.5823C42.5793 47.4963 41.7841 46.5847 40.5623 46.0029V45.9835ZM38.1768 51.7435C37.2072 51.8405 36.2956 50.6187 36.1405 49.0284C35.9853 47.4381 36.6641 46.0805 37.6338 45.9835C38.6035 45.8866 39.515 47.1084 39.6702 48.6987C39.8253 50.289 39.1465 51.6465 38.1768 51.7435Z" fill="#DF5551"/>
<g opacity="0.2" style="mix-blend-mode:multiply">
<path d="M23.709 106.803C23.7672 110.119 32.0872 111.748 33.0181 112.02V111.884C27.3744 110.565 23.7478 108.723 23.709 106.803Z" fill="#A32035"/>
</g>
<path d="M10.9867 36.752C10.9867 36.752 10.9867 36.7907 10.9867 36.8101L16.4364 65.2803C17.0182 64.7761 17.4255 64.4852 17.4836 64.4464C17.7552 64.2719 18.1043 64.33 18.2982 64.6016C18.4727 64.8731 18.4146 65.2222 18.143 65.4161C18.143 65.4161 17.503 65.8815 16.6885 66.6379L24.1552 105.658C23.8643 106.027 23.6897 106.415 23.7091 106.822C23.7479 108.742 27.3746 110.584 32.9794 111.903L22.3709 39.3895C16.7467 38.7495 12.3249 37.8768 10.9673 36.752H10.9867Z" fill="#DF5551"/>
<g opacity="0.2" style="mix-blend-mode:multiply">
<path d="M10.9867 36.752C10.9867 36.752 10.9867 36.7907 10.9867 36.8101L16.4364 65.2803C17.0182 64.7761 17.4255 64.4852 17.4836 64.4464C17.7552 64.2719 18.1043 64.33 18.2982 64.6016C18.4727 64.8731 18.4146 65.2222 18.143 65.4161C18.143 65.4161 17.503 65.8815 16.6885 66.6379L24.1552 105.658C23.8643 106.027 23.6897 106.415 23.7091 106.822C23.7479 108.742 27.3746 110.584 32.9794 111.903L22.3709 39.3895C16.7467 38.7495 12.3249 37.8768 10.9673 36.752H10.9867Z" fill="#A32035"/>
</g>
<path d="M59.1418 7.56427C59.1418 7.56427 59.0448 7.42851 59.0254 7.33154C59.0254 7.42851 59.0836 7.50609 59.1418 7.56427Z" fill="#B7A59C"/>
<path d="M11.5877 35.8403C12.2277 37.2367 25.8616 39.3894 46.5938 39.7385C53.0907 39.8548 58.5986 39.7967 63.2531 39.6415C81.9489 30.1579 53.5756 23.3506 48.7853 18.6767C43.898 13.9058 44.9453 4.59677 52.1792 2.67678C56.8337 1.43557 61.1004 6.0901 60.0337 7.69979C60.3247 7.52525 60.5962 7.15676 60.6931 6.4198C60.6931 6.4004 60.6931 6.38101 60.6931 6.36161C61.3525 2.81254 56.3101 0.504665 53.4786 0.116787C51.3453 -0.174121 46.7683 -0.135333 42.8701 2.83193C37.6725 6.80767 35.0156 16.0973 16.6301 25.6391C10.9671 28.587 10.4628 33.8815 11.5489 35.8985H11.5877C11.5877 35.8985 11.5877 35.8597 11.5877 35.8403Z" fill="#B7A59C"/>
<path d="M22.3707 39.3892C29.7598 40.2425 39.224 40.708 46.5743 40.8243C48.5331 40.8631 50.938 40.8825 53.5755 40.8825C64.3392 40.8825 79.001 40.4364 82.4337 38.0704C82.8992 37.7407 83.1707 37.3916 83.1901 37.0037H82.0846C82.0846 37.0037 82.0265 37.1589 81.9489 37.2365C81.9295 37.6049 81.8907 37.9734 81.7937 38.3807C81.7937 38.3807 81.4059 38.6134 75.6652 39.3504C74.3658 39.5249 78.1283 39.3504 69.9634 39.8158C58.6568 40.4558 62.1477 40.1843 62.1477 40.1843C62.5355 39.9904 62.8846 39.8158 63.2531 39.6413C58.618 39.7965 53.0907 39.8352 46.5937 39.7383C25.8616 39.3892 12.2277 37.2171 11.5877 35.8401C11.5877 35.8595 11.5877 35.8983 11.5877 35.9177H11.5489L10.618 35.394C10.4434 35.7237 10.4434 36.0728 10.618 36.4025C10.6955 36.5189 10.8119 36.6546 10.9477 36.771C12.3052 37.8959 16.7077 38.7686 22.3513 39.4086L22.3707 39.3892Z" fill="white"/>
<path opacity="0.4" d="M59.1417 7.56396C59.355 7.89366 59.8981 7.89366 60.0144 7.71912C60.0144 7.71912 60.0144 7.69972 60.0144 7.68033C59.6653 7.87427 59.2969 7.7773 59.1223 7.56396H59.1417Z" fill="white"/>
<path d="M52.1794 2.67687C44.9454 4.59686 43.8981 13.9059 48.7854 18.6768C53.5757 23.3507 81.9491 30.158 63.2533 39.6416C74.9866 39.2537 80.9987 38.2064 81.9684 37.2561C82.4533 30.701 73.7066 28.0828 73.7066 28.0828C81.6775 22.7689 60.4606 14.7011 60.4606 14.7011C60.4606 14.7011 60.4606 14.7011 60.4412 14.7011C60.0145 14.4683 59.5684 14.2356 59.1612 14.0029C57.8618 13.2465 55.9224 11.9277 54.7975 10.2599C54.7587 10.2017 54.7006 10.1241 54.6618 10.0659C54.5648 9.91078 54.4678 9.75563 54.3903 9.58109C54.3903 9.58109 54.3903 9.56169 54.3709 9.5423C53.4012 7.6417 53.7503 6.6914 54.1381 6.24534C54.2933 6.12898 54.429 6.03201 54.5648 5.91564C55.4763 5.37261 56.1745 5.35322 56.5236 5.39201C57.0084 5.46958 57.5903 5.64413 58.0945 6.0514C58.1333 6.07079 58.1721 6.10958 58.2109 6.14837C58.3854 6.30352 58.5406 6.47807 58.6763 6.65261C58.7151 6.71079 58.7539 6.74958 58.7927 6.80776C58.8315 6.86594 58.8703 6.92412 58.9091 6.98231C58.9672 7.07928 59.006 7.19564 59.0448 7.312C59.0448 7.40897 59.103 7.48655 59.1612 7.54473C59.3357 7.75806 59.7042 7.85503 60.0533 7.66109C61.12 6.0514 56.8533 1.39687 52.1987 2.63808L52.1794 2.67687Z" fill="#B7A59C"/>
<path opacity="0.4" d="M52.1794 2.67687C44.9454 4.59686 43.8981 13.9059 48.7854 18.6768C53.5757 23.3507 81.9491 30.158 63.2533 39.6416C74.9866 39.2537 80.9987 38.2064 81.9684 37.2561C82.4533 30.701 73.7066 28.0828 73.7066 28.0828C81.6775 22.7689 60.4606 14.7011 60.4606 14.7011C60.4606 14.7011 60.4606 14.7011 60.4412 14.7011C60.0145 14.4683 59.5684 14.2356 59.1612 14.0029C57.8618 13.2465 55.9224 11.9277 54.7975 10.2599C54.7587 10.2017 54.7006 10.1241 54.6618 10.0659C54.5648 9.91078 54.4678 9.75563 54.3903 9.58109C54.3903 9.58109 54.3903 9.56169 54.3709 9.5423C53.4012 7.6417 53.7503 6.6914 54.1381 6.24534C54.2933 6.12898 54.429 6.03201 54.5648 5.91564C55.4763 5.37261 56.1745 5.35322 56.5236 5.39201C57.0084 5.46958 57.5903 5.64413 58.0945 6.0514C58.1333 6.07079 58.1721 6.10958 58.2109 6.14837C58.3854 6.30352 58.5406 6.47807 58.6763 6.65261C58.7151 6.71079 58.7539 6.74958 58.7927 6.80776C58.8315 6.86594 58.8703 6.92412 58.9091 6.98231C58.9672 7.07928 59.006 7.19564 59.0448 7.312C59.0448 7.40897 59.103 7.48655 59.1612 7.54473C59.3357 7.75806 59.7042 7.85503 60.0533 7.66109C61.12 6.0514 56.8533 1.39687 52.1987 2.63808L52.1794 2.67687Z" fill="white"/>
<path d="M63.2531 39.6417C62.8847 39.8162 62.555 40.0101 62.1477 40.1847C62.1477 40.1847 58.6568 40.4562 69.9634 39.8162C78.1477 39.3507 74.3853 39.5253 75.6653 39.3507C81.4059 38.5944 81.7937 38.3811 81.7937 38.3811C81.8907 37.9932 81.9295 37.6053 81.9489 37.2368C80.9792 38.1871 74.9671 39.2538 63.2337 39.6223L63.2531 39.6417Z" fill="white"/>
<path opacity="0.4" d="M63.2531 39.6417C62.8847 39.8162 62.555 40.0101 62.1477 40.1847C62.1477 40.1847 58.6568 40.4562 69.9634 39.8162C78.1477 39.3507 74.3853 39.5253 75.6653 39.3507C81.4059 38.5944 81.7937 38.3811 81.7937 38.3811C81.8907 37.9932 81.9295 37.6053 81.9489 37.2368C80.9792 38.1871 74.9671 39.2538 63.2337 39.6223L63.2531 39.6417Z" fill="white"/>
<path d="M56.8726 44.9362C55.9029 45.0331 55.2241 46.3907 55.3793 47.981C55.5344 49.5713 56.446 50.7737 57.4157 50.6961C58.3853 50.5992 59.0641 49.2416 58.909 47.6513C58.7538 46.061 57.8423 44.8586 56.8726 44.9362Z" fill="#211E1F"/>
<path d="M37.6338 46.0026C36.6642 46.0995 35.9854 47.4571 36.1405 49.0474C36.2957 50.6377 37.2072 51.8401 38.1769 51.7626C39.1466 51.6656 39.8254 50.308 39.6702 48.7177C39.5151 47.1274 38.6035 45.925 37.6338 46.0026Z" fill="#211E1F"/>
<path d="M48.475 60.1411C48.8047 60.1411 49.1538 60.1023 49.5029 60.0441C52.5283 59.5205 54.6035 56.8053 54.1186 53.9738C54.0992 53.8187 54.0023 53.6829 53.8859 53.6053C53.7695 53.5278 53.6144 53.489 53.4592 53.5084L43.6071 55.1956C43.2968 55.2538 43.0835 55.5447 43.1417 55.855C43.3744 57.232 44.1695 58.415 45.3914 59.2102C46.3029 59.8114 47.3889 60.1217 48.4944 60.1217L48.475 60.1411Z" fill="#211E1F"/>
<path d="M89.7454 66.5604C89.6097 67.7046 87.903 69.0234 85.5563 69.741C82.9187 70.5361 79.8351 70.4585 77.6436 68.9846C76.8485 68.4416 76.1697 67.7434 75.6654 66.7931C75.5103 66.5022 75.1612 66.3858 74.8897 66.541C74.5987 66.6961 74.5018 67.0452 74.6375 67.3167C75.3163 68.6161 76.3054 69.5664 77.4497 70.2064C78.8654 71.021 80.5139 71.3894 82.1818 71.3894C83.4424 71.3894 84.703 71.1955 85.886 70.827C88.2133 70.1288 90.4824 68.6937 90.8703 66.9288C90.9866 66.9482 91.0836 66.9676 91.2 66.987C92.7903 67.181 94.1672 66.541 94.2836 65.5713C94.303 65.4161 94.2836 65.2416 94.2254 65.0864H88.543C88.5818 65.6488 89.0278 66.1725 89.726 66.541L89.7454 66.5604Z" fill="#211E1F"/>
<path d="M18.298 64.6016C18.1235 64.33 17.755 64.2719 17.4835 64.4464C17.4253 64.4852 16.9986 64.7761 16.4362 65.2803C14.6907 66.7931 11.4326 70.2064 11.7623 74.5312C12.0338 78.1191 13.178 80.0391 13.8956 80.9118C13.0035 81.6488 12.5768 82.6185 12.9453 83.2972C13.4107 84.17 14.9235 84.2669 16.3392 83.53C17.755 82.793 18.5307 81.4742 18.0653 80.6015C17.6386 79.7676 16.2423 79.6706 14.8847 80.2912C14.3223 79.6512 13.178 77.9251 12.9065 74.4342C12.6544 71.0403 15.0398 68.17 16.6883 66.6185C17.5029 65.8621 18.1235 65.4161 18.1429 65.3967C18.4144 65.2222 18.4726 64.8537 18.298 64.5822V64.6016Z" fill="#211E1F"/>
<path d="M115.791 60.4121V41.3867H86.1187V60.3539L115.791 60.4121ZM100.567 58.6667C99.4035 58.6667 98.492 57.9297 98.492 56.7855C98.492 55.6412 99.4035 54.8849 100.567 54.8849C101.731 54.8849 102.565 55.6218 102.565 56.7855C102.565 57.9491 101.711 58.6667 100.567 58.6667ZM100.412 43.7528C103.437 43.6946 105.299 45.6922 105.299 48.1164C105.299 51.1806 102.235 51.8788 102.41 54.3418H98.7441C98.4144 51.1031 101.576 50.56 101.75 48.1746C101.77 47.4182 101.033 47.0303 100.334 47.0303C99.6168 47.0497 98.9187 47.457 98.9187 48.4461H95.8156C95.7574 45.3625 97.852 43.811 100.412 43.7528Z" fill="#00A9E7"/>
<path d="M117.925 64.0001L116.257 60.5674V40.9214H85.6533V60.5868L83.0933 64.0195H83.1321L117.905 64.0001H117.925ZM87.3405 63.1856L88.7951 60.8583H112.165L113.503 63.0304L87.3405 63.1662V63.1856ZM115.791 41.3868V60.4122L86.1187 60.354V41.3868H115.791ZM116.063 61.634L113.038 61.5953L112.553 60.8971H115.578L116.063 61.634ZM113.852 63.0886L113.542 62.5456L116.509 62.4874L117.013 63.0498L113.852 63.0886ZM113.425 62.3128L113.115 61.7698H116.082L116.509 62.3128H113.425ZM86.7005 60.8389H88.1163L86.526 63.2049H84.703L86.6811 60.8389H86.7005Z" fill="#808080"/>
<path d="M117.944 64.0194L117.925 64V64.0194H117.944Z" fill="#808080"/>
<path d="M100.315 47.0308C100.994 47.0308 101.75 47.3992 101.731 48.175C101.556 50.5604 98.3951 51.0841 98.7248 54.3422H102.39C102.216 51.8792 105.28 51.181 105.28 48.1168C105.28 45.6926 103.418 43.695 100.393 43.7532C97.8327 43.8114 95.7382 45.3629 95.7963 48.4465H98.8994C98.8994 47.4768 99.5782 47.0695 100.315 47.0308Z" fill="white"/>
<path d="M100.567 54.8657C99.4035 54.8657 98.4919 55.6027 98.4919 56.7663C98.4919 57.93 99.4035 58.6475 100.567 58.6475C101.731 58.6475 102.565 57.9106 102.565 56.7663C102.565 55.6221 101.711 54.8657 100.567 54.8657Z" fill="white"/>
<path d="M117.925 64.0194V64H83.1514V64.0194V65.1055H88.5817H94.2641H117.925V64.0194Z" fill="#4D4E4E"/>
<path d="M88.1164 60.8389H86.7006L84.7224 63.2049H86.5454L88.1164 60.8389Z" fill="#4D4E4E"/>
<path d="M112.165 60.8584H88.7951L87.3406 63.1857L113.503 63.0499L112.165 60.8584Z" fill="#4D4E4E"/>
<path d="M115.597 60.8973L112.572 60.8779L113.037 61.5955L116.063 61.6343L115.597 60.8973Z" fill="#4D4E4E"/>
<path d="M113.115 61.77L113.425 62.313H116.509L116.082 61.77H113.115Z" fill="#4D4E4E"/>
<path d="M113.542 62.5455L113.852 63.0885L117.013 63.0497L116.509 62.4873L113.542 62.5455Z" fill="#4D4E4E"/>
<path d="M66.2593 46.0996C65.5805 46.0996 64.6108 45.8475 64.0289 45.6923C62.9623 44.0051 60.7902 42.7251 58.172 42.5311C54.4096 42.2596 51.1708 44.296 50.8993 47.0887C50.2011 46.8947 48.7271 46.565 47.2338 46.662C45.4496 46.759 44.0338 47.4572 43.5102 47.7481C43.1029 46.6426 42.2302 45.7311 40.9696 45.1299C39.515 44.4511 37.7308 44.2572 35.9271 44.6063C34.1235 44.9554 32.5332 45.7893 31.4471 46.9723C31.1562 47.302 30.9041 47.6317 30.6908 47.9808C30.1671 48.1941 29.1005 48.6014 28.3829 48.6984C27.7235 48.7953 28.5962 50.2887 28.5962 50.2887C28.5962 50.2887 29.4302 50.0753 30.0508 49.8814C30.012 50.2499 30.0314 50.6378 30.0896 51.0062C30.5356 53.3723 33.115 54.9626 36.1599 54.9626C36.7223 54.9626 37.3041 54.9044 37.8859 54.788C39.6896 54.439 41.2799 53.605 42.3659 52.422C43.0835 51.6656 43.4908 50.8123 43.6653 49.959C44.2083 49.3966 45.3914 48.4269 47.2338 48.2135C49.0568 48.0002 50.5502 48.8341 51.3259 49.3772C51.6362 49.9784 52.0823 50.5408 52.6641 51.045C53.8859 52.0923 55.5732 52.7323 57.3962 52.8681C57.629 52.8681 57.8617 52.8874 58.0944 52.8874C59.6653 52.8874 61.1586 52.4996 62.3417 51.7432C63.7574 50.8705 64.5914 49.6099 64.6883 48.1941C64.6883 47.942 64.6883 47.6899 64.6496 47.4378C65.2896 47.5735 66.2205 47.6899 66.2205 47.6899C66.2205 47.6899 66.9186 46.0996 66.2399 46.0802L66.2593 46.0996ZM41.6871 51.8014C40.7174 52.8293 39.3017 53.5662 37.7114 53.8765C34.4532 54.4971 31.4471 53.1396 31.0205 50.8317C30.8071 49.7456 31.2144 48.6014 32.1259 47.6123C33.0956 46.5844 34.5114 45.8475 36.1017 45.5372C36.6253 45.4402 37.149 45.382 37.6726 45.382C38.7199 45.382 39.709 45.5953 40.5623 45.9832C41.7841 46.565 42.5793 47.4766 42.7926 48.5626C43.0059 49.6487 42.5986 50.7929 41.6871 51.782V51.8014ZM61.8762 50.9675C60.6738 51.7044 59.1223 52.0535 57.4932 51.9371C55.8641 51.8208 54.3708 51.239 53.3041 50.3275C52.2762 49.4547 51.7332 48.3493 51.8302 47.2438C52.0047 44.9166 54.8362 43.1905 58.1332 43.4426C61.4302 43.6947 63.9708 45.7893 63.8156 48.1166C63.738 49.222 63.0592 50.2305 61.8956 50.9481L61.8762 50.9675Z" fill="#242222"/>
<path d="M51.1126 71.4476L50.7635 70.4585L47.6023 71.7967L47.1562 73.1348L51.1126 71.4476Z" fill="#CE0E2D"/>
<path d="M51.8496 73.5809L51.5005 72.5918L46.6714 74.6669L46.2253 75.9857L51.8496 73.5809Z" fill="#CE0E2D"/>
<path d="M52.5867 75.6947L52.2376 74.7056L45.7406 77.4789L45.314 78.8171L52.5867 75.6947Z" fill="#CE0E2D"/>
<path d="M53.3236 77.8278L52.9745 76.8193L45.4109 80.0581L46.0121 80.9502L53.3236 77.8278Z" fill="#CE0E2D"/>
<path d="M53.6727 80.0972L53.9636 79.6124L53.7309 78.9336L46.6909 81.9396L47.2921 82.8318L53.6727 80.0972Z" fill="#CE0E2D"/>
<path d="M51.6751 83.4133L52.606 81.8618L47.9902 83.84L48.5914 84.7321L51.6751 83.4133Z" fill="#CE0E2D"/>
<path d="M50.6278 85.1396L49.2703 85.7215L49.8133 86.5166L50.6278 85.1396Z" fill="#CE0E2D"/>
<g style="mix-blend-mode:multiply">
<path d="M48.6302 69.4499C48.6302 69.4499 48.5138 69.4499 48.4944 69.4499C48.475 69.4499 48.4169 69.4305 48.3781 69.4111C48.2035 69.896 48.0096 70.8657 49.1538 70.8657C50.7053 70.8463 50.589 69.9348 50.589 69.9348L50.2011 68.7905L48.6302 69.4693V69.4499Z" fill="#333333"/>
</g>
<g style="mix-blend-mode:multiply">
<path d="M49.7164 67.3165L48.6303 67.1226L48.5527 68.3444L49.8715 67.782L49.7164 67.3165Z" fill="#333333"/>
</g>
<path d="M46.2061 65.5907L49.8133 64.0586C48.0097 63.8452 46.303 64.2719 46.2061 65.5907Z" fill="#CE0E2D"/>
<path d="M52.6834 65.2995C52.5865 65.0279 52.3925 64.8146 52.0434 64.6595C51.9465 64.6207 51.8495 64.6013 51.7719 64.5625L46.4192 66.851C46.5356 67.1807 46.6907 67.5104 46.8652 67.8013L52.7028 65.2995H52.6834Z" fill="#CE0E2D"/>
<path d="M48.3974 69.4109C48.3974 69.4109 48.475 69.4497 48.5138 69.4497C48.5526 69.4497 48.6108 69.4497 48.6496 69.4497L50.2205 68.7709L51.6168 68.1697C51.9853 67.6848 52.3538 67.1418 52.5671 66.6182L49.8908 67.7624L48.572 68.3248L47.6023 68.7321C47.932 69.0812 48.2423 69.3139 48.3974 69.3721V69.4109Z" fill="#CE0E2D"/>
</svg>
