<svg width="128" height="128" viewBox="0 0 128 128" fill="none" xmlns="http://www.w3.org/2000/svg">
<path d="M71.6405 122.148V117.677C70.0452 117.659 68.4127 117.64 66.7617 117.64C66.706 117.955 66.6318 118.289 66.5391 118.605C66.8915 118.623 67.2626 118.698 67.6336 118.809C69.1547 119.291 70.1379 120.423 69.8411 121.369C69.5443 122.315 68.0788 122.667 66.5762 122.185C65.055 121.703 64.0718 120.571 64.3686 119.625C64.4985 119.235 64.8324 118.939 65.3147 118.772C65.426 118.382 65.5188 118.011 65.593 117.64C58.5808 117.64 52.0139 117.844 46.3559 118.178C46.4115 118.438 46.4672 118.716 46.5228 118.976C46.9866 119.143 47.3205 119.44 47.4504 119.829C47.7472 120.757 46.764 121.907 45.2428 122.389C43.7217 122.871 42.2562 122.5 41.9779 121.573C41.6811 120.645 42.6643 119.495 44.1855 119.013C44.575 118.883 44.946 118.827 45.317 118.809C45.2799 118.623 45.2428 118.438 45.2243 118.252C34.0568 118.957 26.6179 120.182 26.6179 121.591C26.6179 123.762 44.4637 125.543 66.502 125.543C68.9321 125.543 71.3066 125.524 73.6255 125.469C72.7721 124.652 72.0672 123.576 71.6962 122.148H71.6405Z" fill="#989898"/>
<path d="M67.0957 112.483C66.7061 112.52 66.3351 112.558 65.927 112.595C66.0012 114.079 65.927 115.804 65.556 117.659C65.4818 118.03 65.389 118.401 65.2777 118.791C64.814 118.958 64.4615 119.254 64.3316 119.644C64.0348 120.572 65.018 121.722 66.5392 122.204C68.0603 122.686 69.5259 122.315 69.8041 121.388C70.0824 120.46 69.1177 119.31 67.5966 118.828C67.2256 118.716 66.8545 118.642 66.5021 118.624C66.5763 118.29 66.6505 117.974 66.7247 117.659C67.0957 115.767 67.1699 113.986 67.0772 112.483H67.0957Z" fill="#211E1F"/>
<path d="M44.1298 119.013C42.6086 119.495 41.6254 120.627 41.9222 121.573C42.219 122.501 43.6845 122.872 45.1872 122.389C46.7083 121.907 47.6915 120.775 47.3947 119.829C47.2648 119.44 46.9309 119.143 46.4672 118.976C46.4115 118.716 46.3558 118.457 46.3002 118.178C45.9292 116.045 45.9292 113.837 46.059 112.038C45.6695 111.982 45.2799 111.927 44.9089 111.871C44.779 113.708 44.7605 116.008 45.1501 118.253C45.1872 118.438 45.2057 118.624 45.2428 118.809C44.8903 118.809 44.5008 118.883 44.1112 119.013H44.1298Z" fill="#211E1F"/>
<path d="M54.9264 112.836C58.9148 113.002 62.6435 112.891 65.9456 112.613C66.3351 112.576 66.7247 112.539 67.1143 112.502C68.7653 112.335 70.2864 112.093 71.6406 111.834V96.8819C71.6406 94.8599 75.1096 93.4686 78.0963 92.8378C78.3004 92.7636 78.523 92.6894 78.727 92.6338C78.727 89.5358 79.265 84.7868 82.0105 81.6889C82.0661 81.6147 82.1404 81.5776 82.2146 81.5033L82.6412 78.7949C82.3259 78.7949 81.9919 78.7764 81.658 78.7022C80.0998 78.3683 79.0238 77.3294 79.2279 76.3648C79.4319 75.4187 80.8603 74.8993 82.4001 75.2332C82.6783 75.2889 82.9195 75.3816 83.1606 75.4744L84.5705 66.4958C83.5688 65.9578 82.2888 65.7909 80.916 65.6796C80.6006 65.661 80.3595 65.3828 80.378 65.0674C80.3966 64.752 80.6377 64.4923 80.9902 64.5294C82.3073 64.6407 83.6059 64.8262 84.7375 65.3086L88.8372 39.3005L89.0412 37.7607H89.0227C85.6093 40.0981 71.0841 40.5434 60.3989 40.5434C57.7647 40.5434 55.3902 40.5248 53.4424 40.4877C46.1519 40.3578 36.7653 39.8941 29.4377 39.0593L39.956 110.943C41.4772 111.296 43.1282 111.611 44.909 111.889C45.2801 111.945 45.6696 112.001 46.0592 112.056C48.8047 112.427 51.7728 112.706 54.9079 112.836H54.9264ZM63.6082 46.628C64.5728 46.5167 65.5004 47.7225 65.6673 49.2807C65.8343 50.8576 65.185 52.2118 64.2204 52.3231C63.2557 52.4344 62.3282 51.2286 62.1612 49.6703C61.9943 48.0935 62.6435 46.7393 63.6082 46.628ZM54.5925 58.5561C54.5925 58.5561 55.5386 56.868 58.5624 55.8477C61.883 54.7347 62.7919 56.0518 62.8847 56.2187C63.0517 56.497 62.9589 56.8494 62.6806 57.0164C62.4024 57.1833 62.0499 57.0906 61.883 56.8123C61.883 56.8123 61.2708 56.1631 58.9148 56.9422C56.3734 57.7955 55.5943 59.0941 55.5943 59.1126C55.483 59.2981 55.2975 59.4094 55.0934 59.4094C55.0006 59.4094 54.9079 59.3909 54.8151 59.3352C54.5369 59.1868 54.4441 58.8344 54.5925 58.5561ZM43.1096 50.9689C42.9427 49.392 43.5919 48.0378 44.5566 47.9265C45.5212 47.8152 46.4488 49.021 46.6157 50.5793C46.7827 52.1376 46.1334 53.5103 45.1688 53.6216C44.2041 53.7329 43.2766 52.5271 43.1096 50.9689Z" fill="#DF5551"/>
<g opacity="0.2" style="mix-blend-mode:multiply">
<path d="M30.7734 105.897C30.8291 109.199 39.0842 110.795 39.9931 111.073V110.943C34.4094 109.626 30.8105 107.808 30.7734 105.916V105.897Z" fill="#A32035"/>
</g>
<path d="M18.1589 36.4438C18.1589 36.4438 18.1589 36.481 18.1589 36.4995L23.854 66.2363C24.8928 65.8653 26.043 65.7169 27.2117 65.6241C27.5085 65.587 27.8053 65.8282 27.8239 66.1621C27.8424 66.4775 27.6198 66.7557 27.2859 66.7743C26.0986 66.867 24.9856 67.0154 24.0581 67.405L25.7647 76.3465C25.7647 76.3465 25.7833 76.3465 25.8018 76.3465C27.3601 76.0125 28.7699 76.5134 28.974 77.4781C29.1781 78.4241 28.0836 79.4815 26.5439 79.8154C26.5068 79.8154 26.4697 79.8154 26.4326 79.8154L31.2001 104.785C30.9033 105.156 30.7549 105.527 30.7549 105.935C30.792 107.827 34.3908 109.664 39.956 110.962L29.4563 39.0595C23.8726 38.4102 19.4946 37.5569 18.1589 36.4438Z" fill="#DF5551"/>
<g opacity="0.2" style="mix-blend-mode:multiply">
<path d="M18.1589 36.4438C18.1589 36.4438 18.1589 36.481 18.1589 36.4995L23.854 66.2363C24.8928 65.8653 26.043 65.7169 27.2117 65.6241C27.5085 65.587 27.8053 65.8282 27.8239 66.1621C27.8424 66.4775 27.6198 66.7557 27.2859 66.7743C26.0986 66.867 24.9856 67.0154 24.0581 67.405L25.7647 76.3465C25.7647 76.3465 25.7833 76.3465 25.8018 76.3465C27.3601 76.0125 28.7699 76.5134 28.974 77.4781C29.1781 78.4241 28.0836 79.4815 26.5439 79.8154C26.5068 79.8154 26.4697 79.8154 26.4326 79.8154L31.2001 104.785C30.9033 105.156 30.7549 105.527 30.7549 105.935C30.792 107.827 34.3908 109.664 39.956 110.962L29.4563 39.0595C23.8726 38.4102 19.4946 37.5569 18.1589 36.4438Z" fill="#A32035"/>
</g>
<path d="M65.9084 7.50483C65.9084 7.50483 65.8157 7.37498 65.7971 7.26367C65.7971 7.35643 65.8528 7.43063 65.9084 7.50483Z" fill="#B7A59C"/>
<path d="M18.7525 35.5347C19.3832 36.9075 32.9067 39.0594 53.4609 39.4118C59.898 39.5231 65.3705 39.4675 69.9711 39.3191C88.5218 29.9139 60.3803 23.1614 55.6314 18.5237C50.7896 13.7933 51.8285 4.57358 59.0076 2.66286C63.6267 1.43851 67.8377 6.03909 66.7989 7.63445C67.0957 7.4675 67.374 7.09648 67.4482 6.373C67.4482 6.35445 67.4482 6.3359 67.4482 6.31735C68.0974 2.79272 63.0887 0.510976 60.2876 0.121411C58.1728 -0.15685 53.6279 -0.1383 49.7693 2.82982C44.6122 6.76257 41.978 15.9823 23.7427 25.4617C18.1403 28.3371 17.6395 33.5869 18.7154 35.5904H18.7525C18.7525 35.5904 18.7525 35.5533 18.7525 35.5347Z" fill="#B7A59C"/>
<path d="M29.4562 39.0592C36.7838 39.894 46.1704 40.3578 53.4609 40.4876C55.3901 40.5247 57.7832 40.5433 60.4174 40.5433C71.1026 40.5433 85.6278 40.0981 89.0412 37.7607C89.5049 37.4453 89.7832 37.0928 89.7832 36.7033H88.6887C88.6887 36.7033 88.633 36.8517 88.5588 36.9444C88.5403 37.3154 88.4846 37.6865 88.4104 38.076C88.4104 38.076 88.0209 38.2986 82.3258 39.0407C81.0458 39.2076 84.7745 39.0407 76.6678 39.5044C65.4632 40.1352 68.9136 39.8569 68.9136 39.8569C69.3032 39.6714 69.6371 39.4859 70.0081 39.3189C65.4075 39.4673 59.9351 39.523 53.498 39.4117C32.9252 39.0592 19.4203 36.9259 18.7896 35.5346C18.7896 35.5531 18.7896 35.5902 18.7896 35.6088H18.7525L17.8435 35.0894C17.6765 35.4047 17.6765 35.7572 17.8435 36.0725C17.9177 36.2024 18.029 36.3137 18.1774 36.425C19.513 37.538 23.891 38.4099 29.4748 39.0407L29.4562 39.0592Z" fill="white"/>
<path opacity="0.4" d="M65.9084 7.50439C66.1311 7.8383 66.6505 7.81975 66.7803 7.6528C66.7803 7.6528 66.7803 7.63425 66.7803 7.6157C66.4464 7.8012 66.0754 7.70845 65.8899 7.48584L65.9084 7.50439Z" fill="white"/>
<path d="M59.0076 2.64433C51.8285 4.55506 50.7896 13.7748 55.6314 18.5052C60.3803 23.1429 88.5218 29.8953 69.9711 39.3006C81.6209 38.9296 87.5757 37.8722 88.5403 36.9261C89.0227 30.4333 80.3595 27.8362 80.3595 27.8362C88.2806 22.5678 67.2256 14.5724 67.2256 14.5724C67.2256 14.5724 67.2256 14.5724 67.207 14.5724C66.7803 14.3498 66.3537 14.1272 65.927 13.8861C64.647 13.144 62.7177 11.8269 61.5861 10.1759C61.549 10.1017 61.4934 10.0461 61.4563 9.97187C61.3635 9.82346 61.2708 9.65651 61.178 9.48955C61.178 9.48955 61.178 9.45245 61.1595 9.45245C60.2134 7.57882 60.5473 6.63274 60.9183 6.18752C61.0667 6.07622 61.1966 5.96491 61.345 5.87216C62.254 5.33419 62.9403 5.31564 63.2928 5.35274C63.7751 5.42694 64.3502 5.61245 64.8511 6.02056C64.8882 6.05766 64.9253 6.07622 64.9624 6.11332C65.1293 6.28027 65.2963 6.44723 65.4261 6.61419C65.4632 6.66984 65.5003 6.70694 65.5374 6.76259C65.5745 6.81824 65.6117 6.8739 65.6488 6.92955C65.7044 7.04085 65.7415 7.13361 65.7786 7.24491C65.7786 7.35622 65.8343 7.41187 65.8899 7.48607C66.0754 7.70868 66.4279 7.80143 66.7803 7.61593C67.8377 6.02056 63.6082 1.40143 58.989 2.64433H59.0076Z" fill="#B7A59C"/>
<path opacity="0.4" d="M59.0076 2.64433C51.8285 4.55506 50.7896 13.7748 55.6314 18.5052C60.3803 23.1429 88.5218 29.8953 69.9711 39.3006C81.6209 38.9296 87.5757 37.8722 88.5403 36.9261C89.0227 30.4333 80.3595 27.8362 80.3595 27.8362C88.2806 22.5678 67.2256 14.5724 67.2256 14.5724C67.2256 14.5724 67.2256 14.5724 67.207 14.5724C66.7803 14.3498 66.3537 14.1272 65.927 13.8861C64.647 13.144 62.7177 11.8269 61.5861 10.1759C61.549 10.1017 61.4934 10.0461 61.4563 9.97187C61.3635 9.82346 61.2708 9.65651 61.178 9.48955C61.178 9.48955 61.178 9.45245 61.1595 9.45245C60.2134 7.57882 60.5473 6.63274 60.9183 6.18752C61.0667 6.07622 61.1966 5.96491 61.345 5.87216C62.254 5.33419 62.9403 5.31564 63.2928 5.35274C63.7751 5.42694 64.3502 5.61245 64.8511 6.02056C64.8882 6.05766 64.9253 6.07622 64.9624 6.11332C65.1293 6.28027 65.2963 6.44723 65.4261 6.61419C65.4632 6.66984 65.5003 6.70694 65.5374 6.76259C65.5745 6.81824 65.6117 6.8739 65.6488 6.92955C65.7044 7.04085 65.7415 7.13361 65.7786 7.24491C65.7786 7.35622 65.8343 7.41187 65.8899 7.48607C66.0754 7.70868 66.4279 7.80143 66.7803 7.61593C67.8377 6.02056 63.6082 1.40143 58.989 2.64433H59.0076Z" fill="white"/>
<path d="M69.9897 39.3193C69.6372 39.5048 69.2847 39.6718 68.8952 39.8573C68.8952 39.8573 65.4262 40.1355 76.6494 39.5048C84.7561 39.0411 81.0274 39.2266 82.3074 39.0411C88.0024 38.299 88.392 38.0764 88.392 38.0764C88.4847 37.6869 88.5219 37.3158 88.5404 36.9448C87.5943 37.8909 81.621 38.9483 69.9711 39.3193H69.9897Z" fill="white"/>
<path opacity="0.4" d="M69.9897 39.3193C69.6372 39.5048 69.2847 39.6718 68.8952 39.8573C68.8952 39.8573 65.4262 40.1355 76.6494 39.5048C84.7561 39.0411 81.0274 39.2266 82.3074 39.0411C88.0024 38.299 88.392 38.0764 88.392 38.0764C88.4847 37.6869 88.5219 37.3158 88.5404 36.9448C87.5943 37.8909 81.621 38.9483 69.9711 39.3193H69.9897Z" fill="white"/>
<path d="M64.2203 52.3229C65.185 52.2116 65.8342 50.8574 65.6673 49.2806C65.5003 47.7038 64.5728 46.5165 63.6081 46.6278C62.6435 46.7391 61.9942 48.0933 62.1612 49.6702C62.3281 51.247 63.2557 52.4342 64.2203 52.3229Z" fill="#211E1F"/>
<path d="M46.6158 50.598C46.4488 49.0212 45.5213 47.8339 44.5566 47.9452C43.592 48.0565 42.9427 49.4107 43.1097 50.9875C43.2766 52.5643 44.2042 53.7516 45.1688 53.6403C46.1334 53.529 46.7827 52.1748 46.6158 50.598Z" fill="#211E1F"/>
<path d="M28.9925 77.4409C28.7884 76.4948 27.36 75.9753 25.8203 76.3093C25.8203 76.3093 25.8017 76.3093 25.7832 76.3093C25.4307 76.3835 25.1154 76.4948 24.8186 76.6432C23.6313 75.7342 21.1455 73.471 21.5722 70.7997C21.8875 68.8519 22.8151 67.8872 24.058 67.3678C24.9855 66.9782 26.0986 66.8298 27.2858 66.7371C27.6012 66.7185 27.8423 66.4403 27.8238 66.1249C27.8052 65.8096 27.5084 65.5684 27.2116 65.5869C26.0429 65.6797 24.8742 65.8281 23.8539 66.1991C22.1844 66.8113 20.8673 68.0171 20.4406 70.6142C19.9583 73.6936 22.407 76.1794 23.8539 77.3295C23.4829 77.7191 23.2974 78.1829 23.3901 78.6281C23.5942 79.5556 24.9484 80.0565 26.451 79.7782C26.4881 79.7782 26.5252 79.7782 26.5623 79.7782C28.1206 79.4443 29.1965 78.4055 28.9925 77.4409Z" fill="#211E1F"/>
<path d="M55.0933 59.4096C55.2974 59.4096 55.4829 59.2983 55.5942 59.1128C55.5942 59.1128 56.3733 57.7957 58.9147 56.9424C61.2707 56.1633 61.8643 56.8125 61.8829 56.8125C62.0498 57.0908 62.4023 57.165 62.6805 57.0166C62.9588 56.8496 63.033 56.4972 62.8846 56.2189C62.7918 56.0705 61.8829 54.7349 58.5623 55.8479C55.5385 56.8682 54.6295 58.4821 54.5924 58.5563C54.444 58.8346 54.5368 59.187 54.815 59.3354C54.9078 59.3911 55.0005 59.4096 55.0933 59.4096Z" fill="#211E1F"/>
<path d="M80.378 65.0488C80.3594 65.3642 80.5821 65.6425 80.916 65.661C82.2887 65.7723 83.5687 65.9393 84.5705 66.4772C85.6093 67.0338 86.3699 67.9984 86.6481 69.7236C87.0748 72.3949 84.589 74.6581 83.4018 75.5671C83.3276 75.53 83.2534 75.4929 83.1606 75.4743C82.9194 75.3816 82.6783 75.2888 82.4 75.2332C80.8418 74.8993 79.4319 75.4001 79.2278 76.3648C79.0238 77.3109 80.1183 78.3683 81.658 78.7022C81.9919 78.7764 82.3258 78.7949 82.6412 78.7949C83.7728 78.7949 84.6818 78.3126 84.8487 77.5706C84.9415 77.1254 84.756 76.6801 84.3849 76.272C85.8134 75.1033 88.2806 72.6361 87.7983 69.5567C87.4273 67.1636 86.2586 65.9578 84.7745 65.3085C83.6429 64.8077 82.3444 64.6222 81.0273 64.5294C80.6748 64.4923 80.4336 64.752 80.4151 65.0674L80.378 65.0488Z" fill="#211E1F"/>
<path d="M74.72 122.649V97.7724C74.72 95.5277 76.1113 93.5985 78.0777 92.8193C75.1096 93.4501 71.6221 94.8414 71.6221 96.8634V122.148C71.9931 123.576 72.698 124.652 73.5513 125.469C75.0354 126.878 77.0018 127.528 78.727 127.806C76.4267 127.212 74.7015 125.135 74.7015 122.649H74.72Z" fill="#004987"/>
<path d="M105.106 127.992C105.793 127.992 106.442 127.843 107.035 127.565C106.405 127.843 105.7 127.992 104.958 127.992H105.106Z" fill="#004987"/>
<path d="M105.106 92.4297H104.958C105.7 92.4297 106.405 92.5781 107.035 92.8564C106.442 92.5966 105.793 92.4297 105.106 92.4297Z" fill="#004987"/>
<path d="M94.3282 84.1005C96.3687 86.3823 96.814 90.0368 96.8696 92.4298H98.1682C98.1682 90.0553 97.7786 86.0855 95.6082 83.6739C94.3653 82.2826 92.6957 81.6147 90.5067 81.6147C89.4122 81.6147 88.4661 81.8188 87.6499 82.2084C88.1322 82.1156 88.6516 82.0414 89.2267 82.0414C91.4157 82.0414 93.0853 82.7092 94.3282 84.1005Z" fill="#004987"/>
<path d="M78.7085 92.6153C79.1166 92.504 79.5618 92.4298 80.007 92.4298C80.007 89.3503 80.4708 84.4344 83.2905 81.2437C84.1439 80.2605 85.1641 79.537 86.2957 79.0176C84.7004 79.4628 83.3276 80.279 82.196 81.4848C82.1404 81.559 82.0476 81.5961 81.992 81.6703C79.265 84.7869 78.727 89.5173 78.7085 92.6153Z" fill="#004987"/>
<path d="M107.017 92.8382C106.386 92.5599 105.681 92.4115 104.939 92.4115H101.619C101.619 89.5361 101.099 84.6202 98.1866 81.3553C96.2759 79.2219 93.6974 78.146 90.5066 78.146C88.9484 78.146 87.5385 78.4428 86.2956 78.9993C85.164 79.5187 84.1437 80.2422 83.2904 81.2254C80.4892 84.4161 80.0069 89.3321 80.0069 92.4115C79.5617 92.4115 79.135 92.4857 78.7084 92.597C78.4858 92.6527 78.2817 92.7083 78.0777 92.8011C76.1113 93.5802 74.72 95.5095 74.72 97.7541V122.631C74.72 125.116 76.4266 127.194 78.7455 127.788C79.1721 127.899 79.6174 127.973 80.0626 127.973H104.939C105.681 127.973 106.386 127.825 107.017 127.547C108.928 126.73 110.282 124.838 110.282 122.631V97.7541C110.282 95.5466 108.928 93.6358 107.017 92.8382ZM83.4574 92.4301C83.4574 89.8701 83.7913 85.8816 85.8875 83.5072C86.3884 82.9321 86.982 82.5054 87.6498 82.2086C88.4661 81.819 89.4121 81.615 90.5066 81.615C92.6956 81.615 94.3652 82.2828 95.6081 83.6741C97.7785 86.0857 98.1495 90.0741 98.1681 92.4301H83.4574ZM87.52 107.085C87.52 104.154 89.8945 101.761 92.844 101.761C95.7936 101.761 98.1681 104.136 98.1681 107.085C98.1681 109.552 96.48 111.612 94.1797 112.205L95.7008 118.642H89.9872L91.5084 112.205C89.2266 111.612 87.52 109.552 87.52 107.085Z" fill="#00A9E7"/>
<path d="M89.9687 118.642H95.6823L94.1612 112.205C96.4429 111.611 98.1496 109.552 98.1496 107.085C98.1496 104.154 95.7751 101.761 92.8255 101.761C89.876 101.761 87.5015 104.135 87.5015 107.085C87.5015 109.552 89.1896 111.611 91.4899 112.205L89.9687 118.642Z" fill="#004987"/>
</svg>
