<svg width="128" height="128" viewBox="0 0 128 128" fill="none" xmlns="http://www.w3.org/2000/svg">
<g clip-path="url(#clip0_336_122)">
<g opacity="0.3" style="mix-blend-mode:multiply">
<path d="M61.2355 112.218C61.4852 113.008 60.6392 113.993 59.3495 114.395C58.0598 114.797 56.7978 114.492 56.5482 113.688C56.2986 112.883 57.1445 111.912 58.4342 111.51C58.7532 111.413 59.0722 111.358 59.3634 111.344C59.3356 111.233 59.3079 111.122 59.2802 111.011C56.673 110.969 53.9965 110.956 51.2784 110.956C49.0596 110.956 46.8685 110.956 44.719 110.997C44.9686 111.15 45.1627 111.344 45.2321 111.593C45.4817 112.384 44.6358 113.369 43.3461 113.771C42.0563 114.173 40.7944 113.868 40.5448 113.063C40.3229 112.342 40.9885 111.483 42.0702 111.025C18.1482 111.399 -0.00476074 113.174 -0.00476074 115.31C-0.00476074 117.723 22.9465 119.678 51.2646 119.678C79.5827 119.678 102.534 117.723 102.534 115.31C102.534 113.161 84.3116 111.385 60.3064 111.011C60.348 111.164 60.3896 111.316 60.4312 111.469C60.8195 111.607 61.1246 111.857 61.2217 112.19L61.2355 112.218Z" fill="#4D4D4F"/>
</g>
<path d="M127.801 37.5393C123.724 32.4775 119.633 27.4019 115.556 22.3401C115.306 22.035 114.918 22.0628 114.682 22.4233C106.639 34.5161 90.0528 36.0138 82.0233 48.1065C81.7876 48.4532 81.8153 49.0079 82.0649 49.313C83.1605 50.6721 84.2561 52.0311 85.3516 53.3902C85.8093 53.2792 86.3778 53.3347 86.9603 53.5427C85.8093 52.0866 84.6582 50.6305 83.5072 49.1744C83.2853 48.897 83.2853 48.3978 83.5072 48.0788C91.4119 36.8736 106.805 35.154 114.724 23.9488C114.959 23.6298 115.306 23.5744 115.528 23.8517C119.106 28.3726 122.684 32.9074 126.262 37.4283C126.484 37.7057 126.484 38.2049 126.262 38.5239C118.357 49.7291 102.964 51.4487 95.0452 62.6539C94.8233 62.9728 94.4628 63.0283 94.2409 62.751C92.4797 60.5182 90.7046 58.2855 88.9434 56.0528C88.9295 56.1083 88.9157 56.1637 88.8879 56.2192C88.7354 56.5104 88.4441 56.6907 88.0836 56.7739C90.1638 59.3533 92.2301 61.9189 94.3102 64.4983C94.5599 64.8173 94.9482 64.7757 95.1839 64.4151C103.227 52.3224 119.813 50.8246 127.843 38.7319C128.078 38.3852 128.051 37.8305 127.801 37.5254V37.5393Z" fill="#91CC95"/>
<path d="M88.9573 56.0528C90.7185 58.2855 92.4936 60.5182 94.2548 62.7509C94.4767 63.0283 94.8373 62.9867 95.0592 62.6539C102.964 51.4487 118.357 49.729 126.276 38.5238C126.498 38.2049 126.498 37.7056 126.276 37.4283C122.698 32.9074 119.12 28.3726 115.542 23.8517C115.32 23.5743 114.96 23.6159 114.738 23.9488C106.833 35.154 91.4397 36.8736 83.5212 48.0788C83.2993 48.3977 83.2993 48.897 83.5212 49.1743C84.6722 50.6305 85.8232 52.0866 86.9742 53.5427C87.1268 53.5982 87.2793 53.6675 87.4457 53.7507C88.5552 54.3332 89.1931 55.3316 88.9712 56.0666L88.9573 56.0528ZM100.495 36.1663C103.435 34.0861 108.039 35.5284 110.771 39.3975C113.517 43.2666 113.351 48.0788 110.411 50.1728C107.471 52.253 102.867 50.8107 100.135 46.9416C97.389 43.0725 97.5554 38.2604 100.495 36.1663Z" fill="#82B987"/>
<path d="M104.753 42.8785L103.047 40.313C102.354 40.8677 101.743 41.8107 102.34 42.6983C102.922 43.5719 103.865 43.2668 104.753 42.8785Z" fill="#91CC95"/>
<path d="M109.038 43.9188C108.345 42.8787 107.415 43.2809 106.389 43.6969L108.206 46.4289C108.969 45.7771 109.676 44.8757 109.024 43.9049L109.038 43.9188Z" fill="#91CC95"/>
<path d="M110.411 50.1594C113.351 48.0792 113.503 43.2532 110.771 39.3841C108.026 35.5149 103.435 34.0727 100.495 36.1529C97.5553 38.233 97.4028 43.059 100.135 46.9282C102.881 50.7973 107.471 52.2395 110.411 50.1594ZM102.132 38.9542L101.549 38.0805L102.312 37.5674L102.908 38.4688C104.489 37.6228 106.472 37.5119 107.61 39.1483L106.195 40.0913C105.529 39.2315 104.642 39.3841 103.796 39.814L105.571 42.4766C107.429 41.5336 109.246 40.965 110.549 42.9342C111.687 44.6538 110.619 46.6231 109.121 47.8157L109.704 48.6894L108.941 49.2025L108.358 48.3427C106.653 49.2718 104.517 49.4798 103.31 47.7464L104.753 46.7895C105.377 47.6354 106.597 47.469 107.457 46.9836L105.571 44.1407C103.893 45.0144 102.021 45.472 100.87 43.7386C99.7049 41.9912 100.648 40.1052 102.132 38.968V38.9542Z" fill="#91CC95"/>
<path d="M71.678 64.7204C71.4007 64.7065 71.1927 64.4707 71.2065 64.1934C71.2065 63.916 71.4284 63.6803 71.7335 63.7219C73.6611 63.8189 75.672 63.8189 77.5025 63.2226L80.914 41.5472L81.0943 40.2437C81.0943 40.2437 81.0527 40.2437 81.0111 40.2437C79.3331 41.3115 73.8692 42.6012 57.3249 42.6012C55.3695 42.6012 53.2616 42.5873 50.9734 42.5457C44.8161 42.4348 36.8698 42.0465 30.6709 41.3392L35.9545 77.4649L36.1903 77.5342C36.4676 77.0488 36.9946 76.5773 37.688 76.2723C38.9361 75.7314 40.212 75.9117 40.5448 76.6744C40.8776 77.4371 40.1426 78.505 38.9084 79.0458C37.7574 79.5451 36.5786 79.4202 36.1487 78.7962L39.5602 102.122C40.7112 102.399 41.9732 102.635 43.3045 102.857C43.4154 102.039 43.5264 101.512 43.5402 101.442L44.511 101.65C44.511 101.65 44.4 102.177 44.2891 103.009C46.7298 103.356 49.3925 103.606 52.2076 103.717C54.6484 103.814 56.9782 103.8 59.1415 103.689C59.3218 102.704 59.5298 102.08 59.5437 102.011L60.4867 102.33C60.4867 102.33 60.3203 102.829 60.1678 103.633C67.4206 103.148 72.4824 101.567 72.4408 99.487C72.4408 99.1126 72.2605 98.7381 71.9415 98.3776L77.3084 64.2766C76.0187 64.6233 74.6735 64.7342 73.3838 64.7342C72.7875 64.7342 72.205 64.7065 71.6503 64.6788L71.678 64.7204ZM42.1396 55.1516C41.3075 55.2348 40.5309 54.2224 40.3784 52.8772C40.2258 51.5321 40.7944 50.3672 41.6126 50.284C42.4447 50.2007 43.2213 51.2131 43.3738 52.5583C43.5125 53.9035 42.9578 55.0684 42.1396 55.1516ZM51.9164 62.4322C51.6252 62.4876 51.334 62.5015 51.0566 62.5015C50.1136 62.5015 49.2122 62.238 48.4217 61.7249C47.3955 61.0593 46.716 60.0469 46.5079 58.882C46.4663 58.6185 46.6466 58.355 46.9101 58.3134L55.2585 56.885C55.3834 56.8712 55.522 56.885 55.633 56.9682C55.7439 57.0515 55.8133 57.1624 55.841 57.2872C56.257 59.6863 54.4958 61.9884 51.9303 62.4322H51.9164ZM58.4343 54.0421C57.6022 54.1253 56.8256 53.113 56.6731 51.7678C56.5344 50.4226 57.0891 49.2577 57.9073 49.1745C58.7255 49.0913 59.516 50.1037 59.6685 51.4489C59.8072 52.794 59.2525 53.9589 58.4343 54.0421Z" fill="#DF5551"/>
<g opacity="0.2" style="mix-blend-mode:multiply">
<path d="M31.7942 97.8921C31.8497 100.68 38.8252 102.039 39.6018 102.26V102.15C34.8728 101.04 31.8358 99.4869 31.7942 97.8921Z" fill="#A32035"/>
</g>
<path d="M36.0654 78.6713C36.0654 78.6713 36.0515 78.602 36.0377 78.5604L30.8234 76.8963C29.3395 76.3415 28.3965 75.4124 27.9805 74.095C26.774 70.2813 30.5876 64.651 30.754 64.4152C30.9066 64.1795 31.2255 64.124 31.4474 64.2904C31.6693 64.443 31.7386 64.7619 31.5722 64.9838C31.5306 65.0393 27.8695 70.4477 28.9373 73.8037C29.2563 74.8299 29.9913 75.5372 31.1562 75.9671L35.9683 77.5064L30.6847 41.3808C25.9696 40.8399 22.2669 40.1049 21.1298 39.1758C21.1298 39.1758 21.1298 39.1896 21.1298 39.2035L32.1685 96.9491C31.9189 97.2542 31.7802 97.587 31.7941 97.9199C31.8219 99.5285 34.8728 101.068 39.574 102.177L36.1625 78.8516C36.1625 78.8516 36.0931 78.7545 36.0654 78.6991V78.6713Z" fill="#DF5551"/>
<g opacity="0.2" style="mix-blend-mode:multiply">
<path d="M36.0654 78.6713C36.0654 78.6713 36.0515 78.602 36.0377 78.5604L30.8234 76.8963C29.3395 76.3415 28.3965 75.4124 27.9805 74.095C26.774 70.2813 30.5876 64.651 30.754 64.4152C30.9066 64.1795 31.2255 64.124 31.4474 64.2904C31.6693 64.443 31.7386 64.7619 31.5722 64.9838C31.5306 65.0393 27.8695 70.4477 28.9373 73.8037C29.2563 74.8299 29.9913 75.5372 31.1562 75.9671L35.9683 77.5064L30.6847 41.3808C25.9696 40.8399 22.2669 40.1049 21.1298 39.1758C21.1298 39.1758 21.1298 39.1896 21.1298 39.2035L32.1685 96.9491C31.9189 97.2542 31.7802 97.587 31.7941 97.9199C31.8219 99.5285 34.8728 101.068 39.574 102.177L36.1625 78.8516C36.1625 78.8516 36.0931 78.7545 36.0654 78.6991V78.6713Z" fill="#A32035"/>
</g>
<path d="M21.6429 38.3576C22.1976 39.5225 33.6386 41.3254 51.0011 41.6304C56.4512 41.7275 61.083 41.6859 64.9937 41.5611C80.6505 33.601 56.8672 27.9013 52.8455 23.9767C48.7545 19.9828 49.6282 12.1752 55.6884 10.5527C59.5991 9.51257 63.1632 13.4094 62.2756 14.7685C62.5253 14.6298 62.761 14.3108 62.8303 13.7007C62.8303 13.6868 62.8303 13.6729 62.8303 13.6452C63.3851 10.6636 59.1415 8.72211 56.7701 8.41701C54.9812 8.18126 51.1398 8.19513 47.867 10.7052C43.5125 14.0335 41.2659 21.8411 25.8587 29.8428C21.1159 32.3113 20.686 36.749 21.6013 38.4408L21.6429 38.4686C21.6429 38.4686 21.6429 38.4131 21.6429 38.3854V38.3576Z" fill="#B7A59C"/>
<path d="M61.5129 14.6575C61.5129 14.6575 61.4297 14.5466 61.4297 14.4634C61.4297 14.5327 61.4713 14.6021 61.5129 14.6575Z" fill="#B7A59C"/>
<path d="M30.6847 41.3671C36.8836 42.0744 44.816 42.4627 50.9872 42.5736C53.2615 42.6152 55.3833 42.6291 57.3387 42.6291C73.883 42.6291 79.333 41.3394 81.0249 40.2716C81.5658 39.9249 81.7183 39.6059 81.7183 39.3702L80.7753 39.3424C80.7753 39.3424 80.7337 39.4811 80.6782 39.5366C80.6505 39.8556 80.6228 40.1745 80.5396 40.5212C80.5396 40.5212 80.2067 40.7154 75.3946 41.3394C74.3129 41.4781 77.4609 41.3394 70.6102 41.7277C61.1246 42.2686 64.0507 42.0328 64.0507 42.0328C64.3835 41.8803 64.6886 41.7138 64.9937 41.5613C61.0969 41.6861 56.465 41.7277 51.0011 41.6306C33.6386 41.3255 22.2115 39.5227 21.6429 38.3578C21.6429 38.3717 21.6429 38.4133 21.6429 38.441L21.6013 38.4133L20.8108 37.9834C20.6583 38.2608 20.6722 38.5658 20.8247 38.8293C20.894 38.9403 20.9911 39.0374 21.1159 39.1483C22.267 40.0913 25.9697 40.8124 30.6709 41.3533L30.6847 41.3671Z" fill="white"/>
<path opacity="0.4" d="M61.5129 14.6577C61.6932 14.9351 62.1508 14.9351 62.2479 14.7825C62.2479 14.7825 62.2479 14.7687 62.2479 14.7548C61.9567 14.9212 61.6516 14.838 61.499 14.6577H61.5129Z" fill="white"/>
<path d="M55.6746 10.5527C49.6004 12.1753 48.7268 19.969 52.8316 23.9768C56.8533 27.9014 80.6366 33.6011 64.9799 41.5612C74.8954 41.2422 79.9294 40.3408 80.6644 39.5365C81.0388 34.0587 73.7305 31.8676 73.7305 31.8676C80.4286 27.4021 62.6223 20.6485 62.6223 20.6485C62.6223 20.6485 62.6085 20.6485 62.5946 20.6485C62.234 20.4544 61.8735 20.2602 61.5129 20.0661C60.4312 19.4281 58.8087 18.3187 57.8379 16.9319C57.7963 16.8765 57.7547 16.821 57.727 16.7655C57.6438 16.6407 57.5606 16.502 57.4912 16.3634C57.4912 16.3634 57.4912 16.3356 57.4774 16.3218C56.673 14.7408 56.9504 13.9365 57.2832 13.5621C57.408 13.465 57.519 13.3818 57.6438 13.2986C58.4065 12.8409 59.0028 12.8271 59.2941 12.8548C59.6962 12.9241 60.1816 13.0767 60.6254 13.4095C60.6254 13.4095 60.6254 13.4095 60.6254 13.4234C60.667 13.4511 60.6808 13.4789 60.7224 13.5066C60.8611 13.6453 60.9998 13.7839 61.1107 13.9365C61.1523 13.9781 61.1801 14.0197 61.2078 14.0613C61.2494 14.1029 61.2772 14.1584 61.3049 14.2C61.3465 14.2832 61.3881 14.3803 61.4158 14.4773C61.4158 14.5605 61.4713 14.616 61.499 14.6715C61.6516 14.8518 61.9567 14.935 62.2479 14.7686C63.1354 13.4234 59.5714 9.51266 55.6607 10.5527H55.6746Z" fill="#B7A59C"/>
<path opacity="0.4" d="M55.6746 10.5527C49.6004 12.1753 48.7268 19.969 52.8316 23.9768C56.8533 27.9014 80.6366 33.6011 64.9799 41.5612C74.8954 41.2422 79.9294 40.3408 80.6644 39.5365C81.0388 34.0587 73.7305 31.8676 73.7305 31.8676C80.4286 27.4021 62.6223 20.6485 62.6223 20.6485C62.6223 20.6485 62.6085 20.6485 62.5946 20.6485C62.234 20.4544 61.8735 20.2602 61.5129 20.0661C60.4312 19.4281 58.8087 18.3187 57.8379 16.9319C57.7963 16.8765 57.7547 16.821 57.727 16.7655C57.6438 16.6407 57.5606 16.502 57.4912 16.3634C57.4912 16.3634 57.4912 16.3356 57.4774 16.3218C56.673 14.7408 56.9504 13.9365 57.2832 13.5621C57.408 13.465 57.519 13.3818 57.6438 13.2986C58.4065 12.8409 59.0028 12.8271 59.2941 12.8548C59.6962 12.9241 60.1816 13.0767 60.6254 13.4095C60.6254 13.4095 60.6254 13.4095 60.6254 13.4234C60.667 13.4511 60.6808 13.4789 60.7224 13.5066C60.8611 13.6453 60.9998 13.7839 61.1107 13.9365C61.1523 13.9781 61.1801 14.0197 61.2078 14.0613C61.2494 14.1029 61.2772 14.1584 61.3049 14.2C61.3465 14.2832 61.3881 14.3803 61.4158 14.4773C61.4158 14.5605 61.4713 14.616 61.499 14.6715C61.6516 14.8518 61.9567 14.935 62.2479 14.7686C63.1354 13.4234 59.5714 9.51266 55.6607 10.5527H55.6746Z" fill="white"/>
<path d="M64.9798 41.5613C64.6748 41.7139 64.3835 41.8803 64.0368 42.0328C64.0368 42.0328 61.1107 42.2686 70.5963 41.7277C77.4609 41.3394 74.299 41.4781 75.3807 41.3394C80.2067 40.7015 80.5257 40.5212 80.5257 40.5212C80.6089 40.1884 80.6366 39.8556 80.6644 39.5366C79.9294 40.341 74.9092 41.2285 64.9798 41.5613Z" fill="white"/>
<path opacity="0.4" d="M64.9798 41.5613C64.6748 41.7139 64.3835 41.8803 64.0368 42.0328C64.0368 42.0328 61.1107 42.2686 70.5963 41.7277C77.4609 41.3394 74.299 41.4781 75.3807 41.3394C80.2067 40.7015 80.5257 40.5212 80.5257 40.5212C80.6089 40.1884 80.6366 39.8556 80.6644 39.5366C79.9294 40.341 74.9092 41.2285 64.9798 41.5613Z" fill="white"/>
<path d="M59.5575 102.053C59.5575 102.053 59.3356 102.732 59.1553 103.731C58.8502 105.367 58.6006 108.03 59.2802 111.025C59.3079 111.136 59.3356 111.247 59.3634 111.358C59.0583 111.372 58.7532 111.427 58.4342 111.524C57.1445 111.927 56.2986 112.911 56.5482 113.702C56.7978 114.492 58.0459 114.811 59.3495 114.409C60.6531 114.007 61.4851 113.022 61.2355 112.232C61.1246 111.899 60.8333 111.649 60.445 111.511C60.4034 111.358 60.3618 111.205 60.3202 111.053C59.5852 108.002 59.8903 105.242 60.1954 103.689C60.348 102.885 60.5144 102.399 60.5144 102.386L59.5714 102.067L59.5575 102.053Z" fill="#231F20"/>
<path d="M40.5586 113.078C40.8082 113.868 42.0563 114.187 43.3599 113.785C44.6635 113.383 45.4955 112.398 45.2459 111.608C45.1627 111.358 44.9824 111.164 44.7328 111.011C44.6496 110.97 44.5664 110.914 44.4693 110.887C43.8175 108.016 44.0672 104.826 44.3168 103.065C44.4277 102.233 44.5387 101.72 44.5387 101.706L43.5679 101.498C43.5679 101.498 43.4431 102.094 43.3322 102.913C43.0825 104.66 42.819 107.78 43.4154 110.748C43.1103 110.762 42.7774 110.817 42.4585 110.928C42.3337 110.97 42.2227 111.011 42.0979 111.067C41.0162 111.524 40.3367 112.384 40.5725 113.105L40.5586 113.078Z" fill="#231F20"/>
<path d="M57.9073 49.1747C57.0752 49.2579 56.5205 50.4228 56.6731 51.768C56.8117 53.1132 57.6022 54.1255 58.4343 54.0423C59.2664 53.9591 59.8211 52.7942 59.6685 51.449C59.5298 50.1038 58.7394 49.0915 57.9073 49.1747Z" fill="#231F20"/>
<path d="M41.6264 50.2841C40.7944 50.3673 40.2396 51.5322 40.3922 52.8774C40.5447 54.2225 41.3213 55.2349 42.1534 55.1517C42.9855 55.0685 43.5402 53.9036 43.3876 52.5584C43.249 51.2132 42.4585 50.2009 41.6264 50.2841Z" fill="#231F20"/>
<path d="M55.619 56.9544C55.5081 56.885 55.3833 56.8573 55.2446 56.8711L46.8962 58.2995C46.6327 58.3411 46.4524 58.6046 46.494 58.8681C46.6882 60.033 47.3677 61.0454 48.4078 61.711C49.1844 62.2241 50.0996 62.4876 51.0427 62.4876C51.3339 62.4876 51.6251 62.4599 51.9025 62.4183C54.468 61.9745 56.2292 59.6724 55.8132 57.2733C55.7854 57.1485 55.7161 57.0237 55.6052 56.9544H55.619Z" fill="#231F20"/>
<path d="M88.9019 56.2195C88.9019 56.2195 88.9435 56.1086 88.9573 56.0531C89.1792 55.3181 88.5413 54.3196 87.4319 53.7372C87.2793 53.654 87.1268 53.5846 86.9604 53.5292C86.3779 53.3073 85.8094 53.2657 85.3517 53.3766C84.9912 53.4598 84.6999 53.654 84.5474 53.9313C84.2978 54.4167 84.4919 55.0546 84.9911 55.6093C84.8386 55.9699 84.6306 56.3305 84.3948 56.691C82.8832 58.9654 81.1636 61.5586 78.5704 62.8067C78.2237 62.9732 77.8631 63.1118 77.4887 63.2228C75.6581 63.8191 73.6473 63.8191 71.7196 63.722C71.4146 63.6804 71.2065 63.9162 71.1927 64.1935C71.1788 64.4709 71.3868 64.7066 71.6642 64.7205C72.2189 64.7482 72.8013 64.776 73.3977 64.776C74.6874 64.776 76.0325 64.6512 77.3222 64.3183C77.8908 64.1658 78.4594 63.9855 79.0003 63.722C81.8432 62.3491 83.7153 59.5339 85.2269 57.2596C85.3795 57.0239 85.6013 56.691 85.7955 56.2889C85.8648 56.3305 85.9342 56.3859 86.0174 56.4275C86.7524 56.8158 87.5151 56.9268 88.0837 56.7881C88.4442 56.7049 88.7355 56.5108 88.888 56.2334L88.9019 56.2195Z" fill="#231F20"/>
<path d="M28.9236 73.7898C27.8558 70.4338 31.5307 65.0254 31.5585 64.9699C31.711 64.748 31.6555 64.429 31.4337 64.2765C31.2118 64.124 30.8928 64.1794 30.7403 64.4013C30.5738 64.6371 26.7602 70.2674 27.9667 74.0811C28.3827 75.3985 29.3396 76.3415 30.8096 76.8824L36.0239 78.5465C36.0239 78.5465 36.0239 78.6297 36.0516 78.6574C36.0794 78.7129 36.121 78.7545 36.1487 78.81C36.5786 79.434 37.7574 79.5588 38.9084 79.0596C40.1565 78.5188 40.8915 77.4509 40.5448 76.6882C40.212 75.9255 38.9361 75.7452 37.688 76.286C36.9946 76.5911 36.4677 77.0626 36.1903 77.548L35.9546 77.4787L31.1424 75.9393C29.9775 75.5094 29.2425 74.8022 28.9236 73.776V73.7898Z" fill="#231F20"/>
<path d="M105.571 44.1129L107.457 46.9558C106.597 47.4273 105.377 47.6076 104.753 46.7617L103.311 47.7185C104.517 49.452 106.653 49.244 108.358 48.3148L108.941 49.1747L109.704 48.6615L109.121 47.7879C110.619 46.5952 111.687 44.626 110.55 42.9064C109.246 40.9372 107.429 41.5196 105.571 42.4488L103.796 39.7861C104.656 39.3701 105.529 39.2037 106.195 40.0635L107.61 39.1205C106.472 37.4979 104.489 37.595 102.908 38.441L102.312 37.5396L101.549 38.0527L102.132 38.9263C100.648 40.0635 99.7049 41.9495 100.87 43.6969C102.021 45.4303 103.893 44.9588 105.571 44.099V44.1129ZM109.038 43.9187C109.676 44.8895 108.982 45.7909 108.22 46.4427L106.403 43.7107C107.429 43.2947 108.358 42.8925 109.052 43.9326L109.038 43.9187ZM103.047 40.2992L104.753 42.8648C103.865 43.2531 102.922 43.5582 102.34 42.6845C101.743 41.797 102.34 40.854 103.047 40.2992Z" fill="#82B987"/>
</g>
<defs>
<clipPath id="clip0_336_122">
<rect width="128" height="128" fill="white"/>
</clipPath>
</defs>
</svg>
