<svg width="128" height="128" viewBox="0 0 128 128" fill="none" xmlns="http://www.w3.org/2000/svg">
<g clip-path="url(#clip0_336_123)">
<g opacity="0.3" style="mix-blend-mode:multiply">
<path d="M47.1338 120.195C48.0382 120.279 48.8923 120.513 49.7297 120.865C49.8971 120.295 50.0311 119.743 50.1316 119.19C47.0836 119.475 44.404 119.86 42.1934 120.312C42.7628 120.396 43.3322 120.412 43.9351 120.379C45.0069 120.295 46.062 120.111 47.1506 120.195H47.1338Z" fill="#4D4D4F"/>
</g>
<g opacity="0.3" style="mix-blend-mode:multiply">
<path d="M91.1963 123.293C91.1963 121.334 84.0787 119.642 73.98 118.956C73.9633 119.307 73.9298 119.676 73.8628 120.061C74.0637 120.011 74.2815 119.96 74.5159 119.944C75.9897 119.793 77.2457 120.413 77.3462 121.317C77.43 122.221 76.3246 123.075 74.8509 123.226C73.3771 123.377 72.1211 122.757 72.0206 121.853C71.9871 121.451 72.188 121.066 72.5397 120.748C72.6905 120.094 72.7742 119.458 72.8077 118.889C69.9104 118.721 66.8289 118.621 63.5799 118.621C59.2256 118.621 55.1392 118.788 51.4716 119.106C51.3543 119.776 51.2036 120.463 51.0026 121.166C51.3041 121.2 51.6055 121.267 51.907 121.384C53.297 121.886 54.1846 122.975 53.8832 123.829C53.5817 124.683 52.2085 124.985 50.8184 124.482C50.383 124.331 49.9978 124.114 49.6796 123.863C49.6461 123.93 49.5791 123.98 49.4786 123.997C44.9736 124.633 40.3178 124.717 35.9468 123.327C35.9468 125.922 48.3231 128.016 63.5799 128.016C78.8367 128.016 91.213 125.922 91.213 123.327L91.1963 123.293Z" fill="#4D4D4F"/>
</g>
<path d="M91.4306 38.3671C90.8612 37.9149 90.1913 37.7475 89.6554 37.7475C89.4377 37.7475 89.2535 37.781 89.1027 37.8145C88.8683 37.8814 88.6506 38.0154 88.3659 38.0154C88.3659 38.0154 88.3659 38.0154 88.3491 38.0154C87.7964 38.0154 87.3778 37.647 87.1768 37.1613C87.0596 36.8599 87.0428 36.5082 87.1433 36.1732C87.2773 35.7378 87.4615 35.3526 87.5452 34.8837C87.696 34.0631 87.8132 33.1252 86.9926 32.2711C86.4567 31.7017 85.5523 31.5175 84.8154 31.5175C84.6814 31.5175 84.5642 31.5175 84.447 31.5175C84.3967 31.5175 84.3465 31.5175 84.313 31.5175C83.7603 31.5175 82.9397 31.2495 82.4875 30.4959C82.4206 30.3786 82.3536 30.2447 82.3033 30.1107C81.8511 28.8881 82.9397 28.6704 82.6718 27.5148C82.454 26.5435 81.4325 25.6056 80.7291 25.3879C80.4444 25.3042 80.1932 25.2707 79.9252 25.2539C79.0041 25.1702 78.3342 24.3496 78.4514 23.4285C78.5017 23.1103 78.5854 22.8088 78.6524 22.5241C78.7696 22.0552 78.8031 21.3518 78.5519 20.6987C78.4514 20.414 78.3007 20.146 78.0997 19.8948C77.6978 19.3924 77.2959 19.2584 76.9274 19.2584C76.8939 19.2584 76.8772 19.2584 76.8437 19.2584C76.5925 19.2584 76.3748 19.3421 76.157 19.4091C76.0398 19.4426 75.9226 19.4761 75.7719 19.4761C75.2359 19.4761 74.566 19.1747 74.1641 18.354C73.7454 17.4832 74.0971 16.8133 73.8627 15.9927C73.8292 15.8587 73.7789 15.7247 73.6952 15.5907C73.511 15.3228 73.3267 15.1888 73.1593 15.1051C73.0588 15.0716 72.975 15.0381 72.8746 15.0381C72.6234 15.0381 72.3721 15.172 72.1209 15.306C71.8697 15.44 71.6185 15.574 71.3506 15.574C71.0826 15.574 70.8146 15.44 70.5299 15.0716C70.0443 14.4352 69.994 13.6648 69.7261 12.9279C69.3241 11.8226 68.269 11.002 67.6159 11.002C67.2977 11.002 67.08 11.1862 67.0632 11.6216C67.0632 11.8393 67.0967 12.1073 67.2307 12.3585C67.4317 12.7604 67.8001 13.0451 68.0513 13.4136C68.8385 14.5524 68.4868 16.1266 69.4079 16.964C69.6256 17.165 69.8265 17.2152 70.0108 17.2152C70.1447 17.2152 70.2787 17.1817 70.4127 17.1482C70.4797 17.1482 70.5467 17.1315 70.5969 17.1315C71.0491 17.1315 71.4343 17.4999 71.4343 17.9689V18.2536C71.451 19.5431 72.7908 19.7106 72.8243 19.7106C73.5277 19.8446 73.9631 20.5982 73.7789 21.3016C73.6952 21.6198 73.5779 21.9212 73.5277 22.2897C73.4272 23.0935 73.5612 24.3161 74.3148 25.1702C75.5709 26.6105 76.9107 25.2205 77.949 26.9287C78.9706 28.6034 77.2121 29.1058 77.7145 30.8308C78.0662 32.0031 79.2218 32.9577 80.0759 33.2927C80.5616 33.4769 81.0473 33.6109 81.5329 33.8621C81.5497 33.8621 81.5832 33.8788 81.5999 33.8956C82.4206 34.3478 82.9062 35.2019 82.8895 36.1062C82.8895 36.3072 82.856 36.5082 82.8057 36.7091C82.7053 37.1111 82.5545 37.4963 82.5378 37.9652C82.4373 39.6902 83.3919 41.7333 85.6025 42.3195C86.1887 42.4702 87.1601 42.621 87.8132 43.4248C88.1314 43.81 88.2654 44.2454 88.3491 44.6809C89.8564 44.4967 91.0287 44.2957 91.9665 44.0947C93.0551 42.4535 93.6078 40.0419 91.3636 38.2834L91.4306 38.3671Z" fill="#E0D8D4"/>
<path d="M29.6328 47.0089L29.5324 46.5232C29.3481 46.5399 29.1807 46.5734 29.0132 46.5902C29.1974 46.7577 29.4151 46.8916 29.6328 47.0089Z" fill="white"/>
<path d="M36.0973 41.8174C35.4609 41.7839 34.8245 41.7504 34.1714 41.7336C34.8078 41.7671 35.4442 41.7839 36.0973 41.8174Z" fill="#E0D8D4"/>
<path d="M31.7431 39.8242C31.8603 40.3936 32.0446 40.7453 32.1785 41.0133C34.5064 41.0133 36.8343 41.1472 39.1622 41.3649C39.3297 40.762 39.8656 40.2429 40.5857 40.2429C40.6862 40.2429 40.8034 40.2429 40.9207 40.2764C41.3058 40.3601 41.6743 40.4438 42.0762 40.4606C42.1265 40.4606 42.16 40.4606 42.2102 40.4606C43.2653 40.4606 44.6553 39.8409 45.0907 38.6854C45.5262 37.5298 44.7056 36.7594 44.1194 36.0393C43.9687 35.8551 43.8347 35.6039 43.751 35.3359C43.5332 34.5823 43.6505 33.6444 44.4376 33.1253C44.7056 32.941 44.9568 32.8908 45.208 32.8908C45.5262 32.8908 45.8276 32.9913 46.1458 33.0918C46.464 33.1922 46.7822 33.2927 47.1004 33.2927C47.2846 33.2927 47.4856 33.2592 47.7033 33.1755C48.7082 32.7401 49.1771 31.3165 49.0096 30.3954C48.9594 30.1275 48.8756 29.8763 48.7919 29.6418C48.3565 28.4862 49.2441 27.2637 50.4332 27.2637C50.5001 27.2637 50.5671 27.2637 50.6509 27.2637C50.8016 27.2804 50.9523 27.2972 51.103 27.3139C51.237 27.3307 51.3878 27.3474 51.5385 27.3474C52.3758 27.3474 53.3639 27.0627 53.8496 26.2086C54.4358 25.187 53.7826 24.3496 53.23 23.6965C52.694 23.0433 52.3591 21.8208 53.2635 21.0504C54.1511 20.28 55.3401 20.8494 56.211 20.0121C57.0986 18.7393 55.3066 18.0861 54.821 17.098C54.7037 16.8636 54.6535 16.6124 54.7372 16.3277C54.7372 16.3277 54.7372 16.3109 54.7372 16.2942C54.7707 16.1937 54.821 16.0765 54.8879 15.976C55.3401 15.2558 56.211 15.0716 56.9144 14.6194C57.9862 13.916 58.4886 12.459 58.1704 11.6552C58.0364 11.2867 57.735 11.0522 57.2661 11.0522H57.2326C56.6799 11.0522 56.0268 12.0906 55.7421 12.4758C55.6416 12.6097 55.5076 12.7437 55.3736 12.8442C54.7875 13.2964 53.9333 13.5309 53.23 13.8323C52.6438 14.0835 52.1581 14.385 51.9907 14.9041C51.8902 15.2223 51.9572 15.4903 52.0744 15.7415C52.1916 15.9592 52.3423 16.1602 52.4931 16.3612C52.7108 16.6794 52.6605 17.0813 52.4428 17.3492C52.3089 17.5 52.1414 17.6005 51.9237 17.634C50.2992 17.8852 50.7681 19.6604 50.7681 19.6604C50.8183 20.816 50.2154 21.0504 49.4618 21.0504C49.0934 21.0504 48.6747 21.0002 48.2727 20.9499C48.189 20.9499 48.1053 20.9499 48.0215 20.9499C47.0669 20.9499 45.8779 21.4189 45.3755 22.4237C44.4543 24.2157 46.8827 25.6727 45.5094 27.2469C45.1242 27.6824 44.7056 27.8331 44.2869 27.8331C43.9017 27.8331 43.483 27.7159 43.0643 27.5986C42.6456 27.4814 42.2102 27.3642 41.7748 27.3642C41.4566 27.3642 41.1384 27.4312 40.8034 27.5986C39.6311 28.2183 39.2459 29.826 39.3632 30.9481C39.4301 31.5343 39.5474 32.1204 39.5641 32.7066C39.5809 33.3765 39.3129 33.9794 38.8607 34.3813C38.4755 34.733 37.9564 34.9507 37.387 34.9507C37.3032 34.9507 37.2195 34.9507 37.1358 34.9507C36.6501 34.9005 36.1477 34.7832 35.6452 34.7832C35.5615 34.7832 35.4778 34.7832 35.394 34.7832C33.3174 34.9507 31.3579 37.9652 31.7431 39.8242Z" fill="#E0D8D4"/>
<path d="M48.8253 121.987C48.9091 121.752 49.0765 121.568 49.311 121.417C48.2224 120.982 47.0836 120.798 45.928 120.865C44.8562 120.932 43.7844 121.133 42.6958 121.082C41.1215 120.999 39.6478 120.362 38.442 119.374C38.375 120.748 37.6548 121.987 36.4993 122.74C40.6024 123.963 44.9399 123.896 49.1603 123.31C48.8253 122.874 48.6913 122.406 48.8421 121.987H48.8253Z" fill="#EBE5D0"/>
<path d="M49.445 123.946C49.5455 123.946 49.6124 123.879 49.6459 123.812C49.445 123.645 49.2608 123.477 49.1268 123.31C44.9064 123.896 40.5689 123.963 36.4658 122.74C37.6213 122.004 38.3415 120.748 38.4085 119.374C39.6143 120.379 41.088 121.016 42.6623 121.082C43.7509 121.133 44.8227 120.932 45.8945 120.865C47.0669 120.798 48.2057 120.965 49.2775 121.417C49.3612 121.35 49.4617 121.3 49.579 121.267C49.6292 121.133 49.6627 120.999 49.6962 120.865C48.8588 120.513 48.0047 120.279 47.1003 120.195C46.0285 120.111 44.9567 120.295 43.8849 120.379C43.2987 120.429 42.7125 120.379 42.1431 120.312C40.6861 120.111 39.3463 119.492 38.2577 118.369C37.9898 118.101 37.6381 118.386 37.6883 118.704C37.9228 120.295 36.9515 121.92 35.4442 122.489C35.126 122.607 35.1092 123.042 35.4442 123.142C35.5782 123.193 35.7289 123.226 35.8629 123.276C40.2339 124.683 44.8897 124.583 49.3947 123.946H49.445Z" fill="#B7A59D"/>
<path d="M49.6125 121.267C49.4953 121.317 49.4116 121.367 49.3111 121.418C49.0766 121.568 48.9092 121.752 48.8254 121.987C48.6747 122.406 48.8254 122.875 49.1436 123.31C49.2776 123.494 49.4618 123.662 49.6628 123.812C49.981 124.064 50.3662 124.281 50.8016 124.432C52.1916 124.934 53.5649 124.633 53.8664 123.779C54.1678 122.925 53.297 121.819 51.8902 121.334C51.5887 121.217 51.2705 121.166 50.9858 121.116C51.1868 120.413 51.3375 119.726 51.4547 119.056C51.8902 116.511 51.7395 114.266 51.5217 112.793C51.0696 112.709 50.6174 112.608 50.182 112.525C50.4164 113.915 50.6676 116.377 50.1485 119.173C50.048 119.726 49.914 120.279 49.7465 120.848C49.713 120.982 49.6628 121.116 49.6293 121.25L49.6125 121.267Z" fill="#231F20"/>
<path d="M72.791 118.872C72.7575 119.441 72.6737 120.061 72.523 120.731C72.1713 121.049 71.9703 121.434 72.0038 121.836C72.0876 122.74 73.3604 123.36 74.8341 123.209C76.3079 123.059 77.43 122.204 77.3295 121.3C77.2458 120.396 75.973 119.776 74.4992 119.927C74.2647 119.944 74.0638 119.994 73.846 120.044C73.8963 119.659 73.9465 119.29 73.9633 118.939C74.0638 116.778 73.4943 115.12 72.7072 113.915C72.2718 113.948 71.8196 113.982 71.3674 114.015C72.2215 115.137 72.8914 116.711 72.791 118.872Z" fill="#231F20"/>
<path d="M51.1366 48.7004C47.3684 48.0138 43.5668 47.4276 39.7651 46.9922L43.0979 69.8021C44.0357 70.204 44.9736 70.6227 45.9114 71.0414C49.7131 72.7329 53.6152 74.0727 57.6848 74.9938C59.0581 75.312 60.4314 75.5799 61.8214 75.8311C64.0488 75.8311 66.2594 75.6469 68.4534 75.2952C76.5926 73.9722 84.4638 70.6562 91.2465 65.9669C91.3302 65.9167 91.414 65.9167 91.4977 65.9334L92.2178 61.3614C87.1769 59 82.0857 56.7559 76.8438 54.9304C68.5203 52.0331 59.8117 50.2747 51.1533 48.7004H51.1366ZM45.2918 61.0097C45.476 61.0097 45.6267 61.1772 45.6267 61.3447C45.6267 61.5456 45.4592 61.6796 45.2918 61.6796C45.1243 61.6796 44.9736 61.6964 44.8061 61.7131C44.8061 62.1653 44.8563 62.6175 44.8563 63.0696C44.8563 63.5051 44.1864 63.5051 44.1697 63.0696C44.1697 62.6342 44.1362 62.1988 44.1194 61.7466C43.9185 61.7466 43.7175 61.7801 43.5165 61.7801C43.3323 61.7801 43.1816 61.6126 43.1816 61.4452C43.1816 61.2442 43.3491 61.1102 43.5165 61.1102C43.7175 61.1102 43.9017 61.0767 44.1027 61.0767C44.086 60.4906 44.0692 59.8876 44.0357 59.3015C43.818 59.3015 43.617 59.3015 43.3993 59.2847C43.2151 59.2847 43.0644 59.134 43.0644 58.9498C43.0644 58.7656 43.2318 58.5981 43.3993 58.6148C43.6003 58.6148 43.8012 58.6149 44.019 58.6316C43.9855 57.9785 43.9687 57.3086 43.9185 56.6554H43.2318C43.0476 56.6554 42.8969 56.5047 42.8969 56.3205C42.8969 56.1362 43.0644 55.9855 43.2318 55.9855H43.8682C43.8347 55.3826 43.7678 54.7797 43.7175 54.1768H42.9639C42.7797 54.1768 42.6289 54.0261 42.6289 53.8419C42.6289 53.6576 42.7964 53.5069 42.9639 53.5069H43.6673C43.6003 52.7868 43.5668 52.0666 43.4998 51.3465C43.4496 50.9111 44.1362 50.9111 44.1864 51.3465C44.2534 52.0666 44.3037 52.7868 44.3539 53.5069H44.9233C45.1075 53.5069 45.2583 53.6576 45.2583 53.8419C45.2583 54.0261 45.0908 54.1768 44.9233 54.1768H44.4042C44.4544 54.7797 44.5046 55.3826 44.5549 55.9855H45.1913C45.3755 55.9855 45.5262 56.1362 45.5262 56.3205C45.5262 56.5047 45.3588 56.6554 45.1913 56.6554H44.6051C44.6554 57.3253 44.6721 57.9784 44.7056 58.6483C44.9233 58.6483 45.1578 58.6483 45.3755 58.6651C45.5597 58.6651 45.7104 58.8158 45.7104 59C45.7104 59.1843 45.543 59.3517 45.3755 59.335C45.1578 59.335 44.9568 59.335 44.7391 59.3182C44.7558 59.8876 44.7893 60.4571 44.8061 61.0265C44.9736 61.0265 45.141 61.0097 45.3253 60.993L45.2918 61.0097ZM53.6487 67.8594C53.6487 67.8594 53.5315 67.8594 53.4812 67.8594C52.3424 67.8594 51.3878 67.022 51.3041 65.9167C51.2203 64.7611 52.1414 63.7563 53.3472 63.6558C53.3975 63.6558 53.4645 63.6558 53.5147 63.6558C54.6535 63.6558 55.6081 64.4932 55.6919 65.5985C55.7756 66.7541 54.8545 67.7589 53.6487 67.8594ZM55.4239 60.9092C54.5196 61.0097 53.6654 59.9044 53.5147 58.4306C53.364 56.9736 53.9669 55.7008 54.8712 55.6003C55.7756 55.4998 56.6297 56.6219 56.7804 58.0789C56.9312 59.536 56.3283 60.8088 55.4239 60.9092ZM68.6543 68.9982C68.3194 69.2494 67.9174 69.4504 67.4987 69.6179C67.4987 70.7232 66.6446 71.661 65.4723 71.7615C64.2833 71.8453 63.2784 71.0246 63.1444 69.9026C61.5199 69.4504 60.1802 68.3451 60.0462 66.4359C60.0294 66.1679 60.2304 65.9502 60.4984 65.9334C60.7496 65.9334 60.984 66.1177 61.0008 66.3856C61.1013 67.8594 62.1396 68.613 63.2617 68.948C63.5631 68.2111 64.2665 67.6584 65.1541 67.5914C66.0585 67.5244 66.8624 67.9934 67.2475 68.7135C67.549 68.5795 67.8337 68.4288 68.0682 68.2613C68.9223 67.6417 69.3242 66.8211 69.2572 65.833C69.2405 65.565 69.4414 65.3473 69.7094 65.3305C69.9606 65.3305 70.1951 65.5148 70.2118 65.7827C70.2956 67.089 69.7596 68.2278 68.6376 69.0485L68.6543 68.9982ZM71.2669 57.2081C71.1162 55.751 71.7191 54.4783 72.6234 54.3778C73.5278 54.2773 74.3819 55.3994 74.5326 56.8564C74.6834 58.3134 74.0805 59.5862 73.1761 59.6867C72.2717 59.7872 71.4176 58.6651 71.2669 57.2081ZM79.0712 61.6294C79.3224 61.6629 79.5736 61.7466 79.8081 61.8471C79.9253 61.4284 80.0593 61.0097 80.21 60.591C80.1597 60.5575 80.0928 60.524 80.0425 60.4906H80.009L79.9085 60.4403C79.8415 60.4236 79.7746 60.3901 79.6908 60.3733C79.5066 60.3231 79.4061 60.1221 79.4564 59.9546C79.5066 59.7704 79.7076 59.6699 79.875 59.7202C80.0928 59.7704 80.2937 59.8542 80.4947 59.9546C80.6287 59.6364 80.7627 59.3182 80.9134 59C80.8799 58.9833 80.8464 58.9498 80.8129 58.9331C80.6957 58.8493 80.5784 58.7656 80.4445 58.6818C80.277 58.5814 80.2267 58.3804 80.3272 58.2129C80.411 58.0622 80.6454 57.9952 80.7962 58.0957C80.9469 58.1962 81.0809 58.3301 81.2316 58.4306C81.3991 58.1292 81.5498 57.8445 81.7173 57.543C81.9517 57.1746 82.5379 57.5095 82.3034 57.8947C82.1024 58.2129 81.935 58.5311 81.7675 58.8493C81.935 58.9833 82.1024 59.1005 82.2699 59.2345C82.4039 59.3685 82.3871 59.5862 82.2699 59.7202C82.1359 59.8541 81.9182 59.8374 81.7842 59.7202C81.6838 59.6197 81.5665 59.5192 81.466 59.4355C81.3153 59.7369 81.1981 60.0384 81.0641 60.3566C81.2651 60.524 81.4493 60.725 81.6 60.926C81.7005 61.0767 81.6335 61.2944 81.4828 61.3949C81.3153 61.4954 81.1143 61.4284 81.0139 61.2777L80.9469 61.1772L80.9134 61.1269C80.9134 61.1269 80.8464 61.0432 80.8129 61.0097C80.6789 61.3949 80.5449 61.7633 80.4445 62.1485C80.6119 62.2658 80.8129 62.3663 80.9469 62.517C81.0809 62.651 81.0809 62.8519 80.9469 63.0027C80.8296 63.1366 80.5784 63.1366 80.4612 63.0027C80.411 62.9524 80.3607 62.8854 80.2937 62.8352H80.277C80.1932 63.1701 80.0928 63.5386 80.0425 63.907C79.9755 64.3424 79.3056 64.1582 79.3894 63.7228C79.4564 63.2874 79.5736 62.8687 79.6741 62.4332C79.6071 62.3998 79.5401 62.383 79.4731 62.3663C79.4061 62.3495 79.3391 62.3328 79.2554 62.316H79.1382C79.1382 62.316 79.0879 62.2825 79.1382 62.2993H79.0879C78.9037 62.2658 78.753 62.1485 78.753 61.9476C78.753 61.7801 78.9204 61.5791 79.0879 61.6126L79.0712 61.6294ZM77.6811 64.0912C77.7649 65.2468 76.8438 66.2516 75.638 66.3521C75.5877 66.3521 75.5207 66.3521 75.4705 66.3521C74.3317 66.3521 73.3771 65.5148 73.2933 64.4094C73.2096 63.2539 74.1307 62.249 75.3365 62.1485C75.3868 62.1485 75.4537 62.1485 75.504 62.1485C76.6428 62.1485 77.5974 62.9859 77.6811 64.0912Z" fill="#E15554"/>
<path d="M68.2524 46.8583C69.743 47.2268 71.2167 47.5952 72.7072 47.9972C77.162 49.2197 81.5163 50.6432 85.8037 52.385C87.9808 53.2726 90.158 54.2104 92.2346 55.3325C92.4524 55.4497 92.8041 55.5837 93.1055 55.7512L94.6965 45.6023L94.8807 44.3127C91.5648 46.3894 79.1382 46.8583 68.6041 46.8583C68.4869 46.8583 68.3864 46.8583 68.2692 46.8583H68.2524Z" fill="#E15554"/>
<path d="M63.0941 114.082C66.0249 114.199 68.8049 114.166 71.3505 114.015C71.8027 113.982 72.2549 113.948 72.6903 113.915C80.2266 113.328 85.4183 111.62 85.3848 109.41C85.3848 108.991 85.1838 108.589 84.8321 108.187L84.9829 107.266C84.7484 107.266 84.4972 107.232 84.2795 107.216C83.8943 107.182 83.5259 107.149 83.1407 107.115C83.1072 107.115 83.1072 107.165 83.0737 107.165C79.5567 108.02 75.9895 108.673 72.3889 109.125C65.9746 109.929 59.4934 110.063 53.0624 109.594C51.6556 109.493 50.2489 109.359 48.8421 109.175L49.2943 112.206C48.4402 111.955 40.7531 110.465 40.7029 107.383C40.7029 107.266 40.7364 107.165 40.7699 107.048C40.7699 107.048 40.7364 107.048 40.7364 107.031C40.6526 107.216 40.6191 107.417 40.6191 107.601C40.6526 109.477 44.4375 111.285 50.1819 112.508C50.6173 112.608 51.0695 112.692 51.5217 112.776C54.9046 113.412 58.8738 113.881 63.1108 114.049L63.0941 114.082Z" fill="#E15554"/>
<path d="M29.6833 46.5065C29.6833 46.5065 29.5828 46.5065 29.5493 46.5232L33.5352 67.3569C33.5352 67.3569 33.6357 67.3569 33.6859 67.3569L29.7 46.4897L29.6833 46.5065Z" fill="#E15554"/>
<path d="M39.2291 46.9252C37.2529 46.7075 35.2767 46.5233 33.2838 46.4563C32.0947 46.406 30.8722 46.3893 29.6831 46.5065L33.669 67.3737C36.985 67.4407 40.0832 68.5293 43.0977 69.8188L39.765 47.009C39.5808 46.9922 39.4133 46.9587 39.2291 46.942V46.9252Z" fill="#CF494A"/>
<path d="M43.014 107.986C43.014 107.986 42.9805 107.986 42.9638 107.986C42.2604 107.768 41.4565 107.467 40.7699 107.082C40.7364 107.199 40.7029 107.3 40.7029 107.417C40.7531 110.482 48.4402 111.972 49.2943 112.24L48.8421 109.209C47.1171 108.991 45.3921 108.69 43.7007 108.221C43.4829 108.154 43.2485 108.087 42.9973 108.02L43.014 107.986Z" fill="#CF494A"/>
<path d="M74.5327 56.8564C74.382 55.3994 73.5279 54.2774 72.6235 54.3778C71.7192 54.4783 71.1163 55.7344 71.267 57.2081C71.4177 58.6652 72.2886 59.7872 73.1762 59.6868C74.0805 59.5863 74.6834 58.3302 74.5327 56.8564Z" fill="#231F20"/>
<path d="M54.8713 55.6003C53.967 55.7007 53.3641 56.9568 53.5148 58.4306C53.6655 59.8876 54.5196 61.0096 55.424 60.9092C56.3283 60.8087 56.9312 59.5526 56.7805 58.0789C56.6298 56.6218 55.7757 55.4998 54.8713 55.6003Z" fill="#231F20"/>
<path d="M65.355 69.1656C66.0081 69.1154 66.678 68.9479 67.2642 68.6799C66.879 67.9598 66.0584 67.4909 65.1708 67.5579C64.2832 67.6249 63.5798 68.1775 63.2783 68.9144C64.0152 69.1321 64.7856 69.1991 65.355 69.1489V69.1656Z" fill="#A21F36"/>
<path d="M64.9364 70.1371C64.3334 70.1371 63.7305 70.0533 63.1611 69.9026C63.2951 71.0247 64.3 71.8453 65.489 71.7616C66.6613 71.6778 67.5322 70.7232 67.5154 69.6179C66.8623 69.8859 66.1589 70.0701 65.4388 70.1203C65.2713 70.1203 65.1038 70.1203 64.9531 70.1203L64.9364 70.1371Z" fill="#A21F36"/>
<path d="M75.3197 62.1484C74.1139 62.2322 73.1928 63.2538 73.2765 64.4093C73.3603 65.5147 74.3149 66.352 75.4537 66.352C75.5039 66.352 75.5709 66.352 75.6212 66.352C76.827 66.2683 77.7481 65.2467 77.6643 64.0911C77.5806 62.9858 76.626 62.1484 75.4872 62.1484C75.4369 62.1484 75.3699 62.1484 75.3197 62.1484Z" fill="#CF494A"/>
<path d="M53.5148 63.6558C53.5148 63.6558 53.3975 63.6558 53.3473 63.6558C52.1415 63.7395 51.2204 64.7611 51.3041 65.9167C51.3879 67.022 52.3424 67.8593 53.4813 67.8593C53.5315 67.8593 53.5985 67.8593 53.6487 67.8593C54.8546 67.7756 55.7757 66.754 55.6919 65.5985C55.6082 64.4931 54.6536 63.6558 53.5148 63.6558Z" fill="#CF494A"/>
<path d="M69.7262 65.2804C69.4583 65.2972 69.2573 65.5316 69.274 65.7828C69.341 66.7709 68.9391 67.5916 68.085 68.2112C67.8505 68.3954 67.5658 68.5294 67.2643 68.6634C66.6782 68.9313 66.0083 69.0988 65.3551 69.1491C64.7857 69.1826 64.0154 69.1491 63.2785 68.9146C62.1564 68.5629 61.1181 67.826 61.0176 66.3523C61.0008 66.0843 60.7496 65.9001 60.5152 65.9001C60.2472 65.9168 60.0462 66.1513 60.063 66.4025C60.197 68.3117 61.5368 69.4338 63.1612 69.8692C63.7307 70.0199 64.3336 70.1037 64.9365 70.1037C65.1039 70.1037 65.2714 70.1037 65.4221 70.1037C66.1423 70.0534 66.8457 69.8692 67.4988 69.6012C67.9175 69.4338 68.3194 69.216 68.6544 68.9816C69.7764 68.161 70.3291 67.0221 70.2286 65.7159C70.2119 65.4479 69.9607 65.2637 69.7262 65.2637V65.2804Z" fill="#231F20"/>
<path d="M45.3588 59.3685C45.543 59.3685 45.7105 59.201 45.6938 59.0336C45.6938 58.8494 45.543 58.6986 45.3588 58.6986C45.1411 58.6986 44.9066 58.6986 44.6889 58.6819C44.6554 58.012 44.6387 57.3588 44.5884 56.689H45.1746C45.3588 56.689 45.5263 56.5382 45.5095 56.354C45.4928 56.1698 45.3588 56.0191 45.1746 56.0191H44.5382C44.5047 55.4161 44.4377 54.8132 44.3875 54.2103H44.9066C45.0908 54.2103 45.2583 54.0596 45.2416 53.8754C45.2416 53.6912 45.0908 53.5404 44.9066 53.5404H44.3372C44.2702 52.8203 44.2367 52.1002 44.1697 51.38C44.1195 50.9446 43.4496 50.9446 43.4831 51.38C43.5501 52.1002 43.6003 52.8203 43.6506 53.5404H42.9472C42.763 53.5404 42.5955 53.6912 42.6122 53.8754C42.6122 54.0596 42.763 54.2103 42.9472 54.2103H43.7008C43.7511 54.8132 43.8013 55.4161 43.8515 56.0191H43.2151C43.0309 56.0191 42.8635 56.1698 42.8802 56.354C42.8802 56.5382 43.0309 56.689 43.2151 56.689H43.9018C43.9353 57.3421 43.9688 57.9952 44.0023 58.6651C43.8013 58.6651 43.6003 58.6651 43.3826 58.6484C43.1984 58.6484 43.0309 58.8159 43.0477 58.9833C43.0477 59.1676 43.1984 59.3183 43.3826 59.3183C43.6003 59.3183 43.8013 59.3183 44.019 59.335C44.0525 59.9212 44.0693 60.5241 44.086 61.1103C43.885 61.1103 43.7008 61.1437 43.4999 61.1437C43.3156 61.1437 43.1482 61.2945 43.1649 61.4787C43.1649 61.6462 43.3156 61.8304 43.4999 61.8136C43.7008 61.8136 43.9018 61.7801 44.1028 61.7801C44.1028 62.2156 44.153 62.651 44.153 63.1032C44.153 63.5386 44.8396 63.5386 44.8396 63.1032C44.8396 62.651 44.8061 62.1988 44.7894 61.7467C44.9569 61.7467 45.1076 61.7299 45.2751 61.7132C45.4593 61.7132 45.6268 61.5624 45.61 61.3782C45.61 61.2107 45.4593 61.0265 45.2751 61.0433C45.1076 61.0433 44.9401 61.06 44.7559 61.0768C44.7392 60.5073 44.7224 59.9379 44.6889 59.3685C44.9066 59.3685 45.1076 59.3685 45.3253 59.3853L45.3588 59.3685Z" fill="#231F20"/>
<path d="M79.0711 62.316H79.1214H79.2386C79.2386 62.316 79.3893 62.3662 79.4563 62.3829C79.5233 62.3997 79.5903 62.4332 79.6573 62.4499C79.5568 62.8686 79.4396 63.3041 79.3726 63.7395C79.3056 64.1749 79.9587 64.3591 80.0257 63.9237C80.0927 63.5553 80.1764 63.1868 80.2602 62.8351H80.2769C80.2769 62.8351 80.3942 62.9691 80.4444 63.0194C80.5616 63.1533 80.8128 63.1533 80.9301 63.0194C81.064 62.8854 81.064 62.6677 80.9301 62.5337C80.7793 62.3829 80.5951 62.2825 80.4277 62.1652C80.5449 61.78 80.6621 61.3949 80.7961 61.0264C80.8296 61.0599 80.8631 61.0934 80.8966 61.1436L80.9301 61.1939L80.9971 61.2944C81.0975 61.4451 81.2985 61.5288 81.466 61.4116C81.6167 61.3111 81.7004 61.1102 81.5832 60.9427C81.4325 60.725 81.2483 60.5407 81.0473 60.3733C81.1813 60.0718 81.2985 59.7536 81.4492 59.4522C81.5665 59.5526 81.667 59.6364 81.7674 59.7369C81.9014 59.8541 82.1191 59.8709 82.2531 59.7369C82.3703 59.6029 82.3871 59.3852 82.2531 59.2512C82.1024 59.1172 81.9182 59 81.7507 58.866C81.9182 58.5478 82.0856 58.2129 82.2866 57.9114C82.5211 57.543 81.9349 57.1913 81.7004 57.5597C81.5162 57.8444 81.3655 58.1459 81.2148 58.4473C81.0641 58.3468 80.9301 58.2129 80.7793 58.1124C80.6286 58.0119 80.3942 58.0789 80.3104 58.2296C80.2267 58.3971 80.2769 58.5981 80.4277 58.6985C80.5449 58.7823 80.6789 58.866 80.7961 58.9497C80.8296 58.9665 80.8631 59 80.8966 59.0167C80.7458 59.3349 80.6119 59.6531 80.4779 59.9713C80.2769 59.8708 80.076 59.7871 79.8582 59.7369C79.6908 59.7034 79.4731 59.7871 79.4396 59.9713C79.4061 60.1388 79.4898 60.3398 79.674 60.39C79.741 60.4068 79.808 60.4235 79.8917 60.457L79.9922 60.4905H80.0257C80.0257 60.4905 80.1429 60.5742 80.1932 60.6077C80.0425 61.0097 79.9085 61.4284 79.7912 61.8638C79.5568 61.78 79.3223 61.6796 79.0544 61.6461C78.8701 61.6293 78.7027 61.8135 78.7194 61.981C78.7194 62.182 78.8701 62.2992 79.0544 62.316H79.0711Z" fill="#231F20"/>
<path d="M36.6835 72.6156C36.8845 72.5653 37.0855 72.5151 37.2864 72.6156C37.4707 72.6993 37.6046 72.917 37.7051 73.0845C37.9228 73.4362 38.0568 73.8381 38.1405 74.2401C38.2075 74.6085 38.2578 74.9937 38.2578 75.3956C41.7412 76.9196 45.4759 77.7403 49.1938 78.5106C55.4406 79.8002 61.6873 81.0395 68.0178 81.8434C68.0513 81.8434 68.1016 81.8434 68.1351 81.8434C68.1518 81.8434 68.1685 81.8601 68.1853 81.8601C68.7882 81.9439 69.3911 82.0276 69.994 82.0946C76.3747 82.8147 82.8727 83.3841 88.885 85.7623C88.885 84.4392 88.9855 83.1162 89.2032 81.8099C88.5333 81.073 87.6625 80.6208 86.7414 80.2691C85.6528 79.8504 84.514 79.4987 83.3919 79.214C81.0305 78.6111 78.6021 78.3097 76.1738 78.2762C76.1235 78.2762 76.1068 78.2427 76.0733 78.2259C75.8221 78.2259 75.5541 78.2594 75.3029 78.2594C73.1593 78.2594 70.9989 77.8742 68.8887 77.6063C66.5106 77.3048 64.1492 76.9531 61.7878 76.5345C61.7208 76.5345 61.6538 76.5345 61.5868 76.5345C61.5031 76.5345 61.4696 76.501 61.4194 76.4675C59.8619 76.1828 58.3044 75.8646 56.7469 75.4961C52.7275 74.5248 48.8923 73.1347 45.1242 71.4433C41.5403 69.8355 37.8726 68.1943 33.8867 68.0603C34.1044 69.8523 34.3222 71.6442 34.5399 73.4194C35.2265 73.1012 35.9466 72.7998 36.6835 72.5988V72.6156Z" fill="#EBE5D0"/>
<path d="M85.5188 98.5908C84.4469 98.6076 83.3919 98.5406 82.32 98.4066C78.7193 97.9879 75.1522 97.2678 71.5682 96.7318C67.7666 96.1624 63.9649 95.6265 60.1465 95.1241C56.5124 94.6552 52.8614 94.203 49.177 94.1193C48.1387 94.1025 47.1003 94.136 46.062 94.203C48.5071 94.9231 50.9522 95.6433 53.3974 96.3467C56.1104 97.1338 58.8235 97.9209 61.5366 98.7248C64.1826 99.4952 66.812 100.366 69.525 100.885C72.2716 101.404 75.0684 101.572 77.8485 101.84C80.4108 102.091 82.9564 102.493 85.4853 103.029C85.7867 101.522 86.0882 100.014 86.3896 98.5071C86.0882 98.5573 85.7867 98.5573 85.502 98.5573L85.5188 98.5908Z" fill="#EBE5D0"/>
<path d="M42.5283 107.115C44.0858 107.634 45.6935 108.003 47.318 108.271C53.1629 109.225 59.2254 109.343 65.1205 109.058C70.4964 108.79 75.822 108.053 81.064 106.897C80.7458 106.864 80.4443 106.83 80.1261 106.797C76.7766 106.428 73.4439 105.976 70.0944 105.675C66.678 105.373 63.2448 105.239 59.8116 105.055C53.1294 104.703 46.4304 104.369 39.7482 104.017C39.2793 105.725 41.2053 106.663 42.5283 107.115Z" fill="#EBE5D0"/>
<path d="M87.562 79.8339C88.2487 80.1521 88.8851 80.5372 89.4042 81.0397C89.421 81.0229 89.4377 81.0062 89.4712 80.9894C89.6387 80.353 89.8229 79.6999 89.9904 79.0635C89.1865 79.3649 88.3826 79.6329 87.562 79.8506V79.8339Z" fill="#EBE5D0"/>
<path d="M76.1738 102.392C73.5109 102.158 70.8314 101.923 68.2188 101.321C66.4268 100.919 64.6516 100.399 62.8931 99.8635C62.8764 99.8635 62.8764 99.897 62.8596 99.897C59.0077 100.785 55.0721 101.337 51.1197 101.522C49.1101 101.622 47.1004 101.622 45.1074 101.522C43.2652 101.438 41.423 101.254 39.5808 101.371C39.7483 102.024 39.8153 102.677 39.7818 103.347C43.3322 103.531 46.8994 103.715 50.4498 103.9C56.8641 104.235 63.3118 104.436 69.7093 104.971C72.8745 105.239 76.0398 105.658 79.205 106.01C80.8128 106.194 82.4205 106.361 84.0283 106.495C84.2962 106.512 85.1336 106.73 85.3346 106.495C85.4685 106.328 85.4183 105.625 85.4518 105.407C85.502 104.854 85.5523 104.318 85.6193 103.766C82.5043 103.096 79.3725 102.677 76.2073 102.392H76.1738Z" fill="#EBE5D0"/>
<path d="M85.8874 74.5248C86.8587 74.3405 87.8133 74.0893 88.7344 73.7544C88.8181 73.7209 88.9019 73.7544 88.9521 73.7544C89.0693 73.7041 89.1698 73.7041 89.2703 73.7544C89.7727 73.6539 90.2584 73.5032 90.7106 73.2855C90.7776 72.9338 90.8278 72.5653 90.8948 72.2136C89.1363 72.783 87.4951 73.6204 85.8706 74.4913L85.8874 74.5248Z" fill="#EBE5D0"/>
<path d="M85.8705 85.4441C85.8705 85.4441 85.8202 85.4943 85.77 85.5111C82.2363 86.1642 78.6859 86.7169 75.1187 87.1188C68.6375 87.8557 62.1897 87.8725 55.6918 87.37C53.3974 87.1858 51.103 87.0016 48.8086 86.8174C50.8685 87.37 52.9284 87.9394 55.0051 88.4921C57.6847 89.2122 60.3643 90.0329 63.0941 90.6023C65.8574 91.1717 68.6542 91.1884 71.4678 91.2387C77.0614 91.3392 82.6717 91.4396 88.2654 91.5401C88.2654 89.8319 88.4161 88.1404 88.8683 86.4992C87.8802 86.0972 86.8753 85.7623 85.8705 85.4441Z" fill="#EBE5D0"/>
<path d="M78.8198 92.0593C75.9225 92.0091 73.0252 91.9588 70.1112 91.9086C67.3646 91.8583 64.7185 91.6909 62.039 91.0712C60.9504 90.82 59.8451 90.5353 58.7565 90.2673C58.723 90.2841 58.7062 90.3176 58.6727 90.3176C52.9619 91.2387 47.2343 91.8416 41.4565 92.1095C41.1885 92.277 40.9206 92.3608 40.6358 92.3273C40.4851 92.3105 40.3511 92.2435 40.2339 92.1598C39.6478 92.1765 39.0783 92.21 38.4922 92.2268C38.6094 92.8129 38.6094 93.3991 38.4922 93.9852C40.3679 93.9852 42.2436 93.7843 44.1193 93.6168C46.0787 93.4493 48.0214 93.3991 49.9809 93.4661C53.5648 93.5833 57.132 94.0522 60.6824 94.5212C64.1156 94.9733 67.5321 95.4423 70.9486 95.9614C74.499 96.4974 78.0494 97.1505 81.5999 97.6362C82.5377 97.7701 83.4923 97.8706 84.4302 97.9041C84.8656 97.9041 85.3178 97.9209 85.77 97.9041C86.3561 97.8706 86.6743 97.8706 86.892 97.2677C87.4782 95.6097 87.9471 93.9015 88.4663 92.2268C85.2508 92.1765 82.0353 92.1095 78.8031 92.0593H78.8198Z" fill="#EBE5D0"/>
<path d="M47.3014 78.7954C44.2032 78.1256 41.1384 77.3217 38.2244 76.0991C38.1909 76.3503 38.1406 76.5848 38.0401 76.8025C37.8559 77.2212 37.5377 77.5394 37.2028 77.8408C36.8008 78.1925 36.3989 78.561 36.0137 78.9127C35.9802 78.9462 35.9467 78.9294 35.9132 78.9462C35.8797 78.9964 35.8462 79.0467 35.8127 79.0801C35.9467 79.4318 36.0974 79.8003 36.2314 80.152C36.2817 80.1855 36.3319 80.219 36.3487 80.286C36.3822 80.3529 36.3822 80.4199 36.4156 80.4869C38.978 80.8889 41.5738 80.6879 44.1529 80.5707C49.914 80.3195 55.6249 81.0898 61.3692 81.5253C60.1801 81.3243 58.9911 81.1233 57.8188 80.9056C54.3186 80.2357 50.8184 79.5323 47.3182 78.7787L47.3014 78.7954Z" fill="#EBE5D0"/>
<path d="M78.887 77.757C80.545 77.9244 82.1862 78.1924 83.8107 78.6278C84.6481 78.8456 85.5859 79.0968 86.507 79.415C85.9878 78.7786 85.7869 77.9579 85.7031 77.1373C85.6362 76.5009 85.5859 75.831 85.7869 75.2449C85.2342 75.3454 84.6815 75.4458 84.1289 75.4961C82.9566 76.1325 81.7675 76.7354 80.5282 77.2378C79.9923 77.4555 79.4396 77.623 78.9037 77.7737L78.887 77.757Z" fill="#EBE5D0"/>
<path d="M45.0908 100.852C47 100.935 48.926 100.935 50.8519 100.852C54.4526 100.701 58.0365 100.215 61.5535 99.4783C61.1013 99.3443 60.6491 99.2103 60.1969 99.0764C54.8378 97.5021 49.4786 95.9614 44.1195 94.3704C42.2103 94.5211 40.2843 94.6886 38.3584 94.6718C38.8776 96.6313 39.179 98.6242 39.2628 100.634C39.2962 100.634 39.2962 100.684 39.3297 100.701C41.2557 100.55 43.1649 100.751 45.0908 100.835V100.852Z" fill="#EBE5D0"/>
<path d="M70.1448 77.0873C72.255 77.3552 74.4154 77.7404 76.559 77.5395C78.3343 77.372 80.0257 76.7523 81.6335 75.9987C84.7318 74.5417 87.5955 72.5655 90.8948 71.5439C90.9115 70.0031 91.0288 68.4624 91.0622 66.9216C89.2703 68.1274 87.4281 69.2495 85.5189 70.2376C79.2386 73.5201 72.2382 75.8312 65.1206 76.4006C66.7953 76.6518 68.4701 76.8863 70.1616 77.104L70.1448 77.0873Z" fill="#EBE5D0"/>
<path d="M86.5907 75.1446C86.172 75.6637 86.3228 76.5178 86.3898 77.1375C86.4735 77.8911 86.641 78.6783 87.2271 79.2142C87.2271 79.2142 87.2271 79.2142 87.2271 79.2309C87.763 79.0969 88.299 78.9127 88.8181 78.7452C89.0023 78.5108 88.9856 78.1256 89.0023 77.8576C89.0191 77.4389 89.0358 77.037 89.0191 76.6183C89.0023 75.9317 88.9186 75.245 88.8014 74.5751C88.7846 74.5751 88.7511 74.5751 88.7344 74.5751C88.6506 74.5751 88.6004 74.5416 88.5502 74.5249C87.897 74.7594 87.2439 74.9603 86.5907 75.1111C86.5907 75.1111 86.5907 75.1446 86.574 75.1613L86.5907 75.1446Z" fill="#EBE5D0"/>
<path d="M47.4186 81.2237C45.0405 81.1902 42.6791 81.3912 40.301 81.4247C39.1287 81.4414 37.9563 81.4247 36.8008 81.2572C36.7505 81.2572 36.6835 81.2572 36.6333 81.2405C36.9515 82.4295 37.0687 83.6688 36.985 84.9081C40.4015 85.6283 43.9519 85.7455 47.4186 86.0135C53.8161 86.5326 60.2303 87.2193 66.6446 87.0518C72.6401 86.8843 78.5854 86.0972 84.4805 85.0421C82.4708 84.5062 80.4276 84.1043 78.3677 83.7861C74.9847 83.2836 71.5683 82.9822 68.1686 82.5635C68.0513 82.5635 67.9174 82.53 67.8001 82.5133C65.4722 82.5133 63.1611 82.3625 60.85 82.1783C56.3784 81.8266 51.9236 81.2907 47.4353 81.2237H47.4186Z" fill="#EBE5D0"/>
<path d="M39.3967 89.4299C39.3967 89.3295 39.447 89.229 39.4637 89.1117L38.3751 88.4753C38.3584 88.6093 38.3081 88.7433 38.2914 88.8773C38.2746 89.0615 38.1574 89.2122 37.9564 89.2122C37.9564 89.2122 37.9564 89.2122 37.9397 89.2122C38.0904 89.9826 38.2579 90.7697 38.4086 91.5401C38.8273 91.5401 39.246 91.5066 39.6647 91.4899C39.3967 90.9539 39.2795 90.2171 39.3967 89.4299Z" fill="#EBE5D0"/>
<path d="M41.4063 87.0184C42.3106 87.1524 42.8633 88.4419 42.6456 89.9157C42.5618 90.4851 42.3776 91.0043 42.1097 91.4062C47.1506 91.155 52.1581 90.6191 57.1488 89.8487C53.2467 88.8104 49.3613 87.6716 45.4591 86.6165C45.4089 86.6165 45.3921 86.5662 45.3587 86.5495C43.1145 86.382 40.8704 86.2313 38.643 85.9131C38.6765 85.9298 38.7267 85.9633 38.7602 85.9633C38.9779 86.0471 39.0617 86.248 38.9612 86.4657C38.8272 86.7672 38.7267 87.0687 38.6262 87.3701L39.8153 88.0735C40.2172 87.3534 40.8034 86.9347 41.3895 87.0184H41.4063Z" fill="#EBE5D0"/>
<path d="M33.7697 45.7865C36.0975 45.887 38.4087 46.1214 40.7031 46.4061C49.2777 47.4612 57.8356 49.1025 66.2428 51.1289C70.4631 52.1505 74.6165 53.3563 78.6861 54.8468C83.2748 56.5215 87.7464 58.5145 92.1844 60.5744C92.5696 59.2346 92.9548 57.8948 92.9883 56.5048C89.0024 54.1769 84.5979 52.5022 80.2436 50.9614C76.04 49.4709 71.7024 48.3488 67.3649 47.277C63.0943 46.2219 58.7735 45.3008 54.4526 44.4467C49.2777 43.4251 44.0358 42.4538 38.7604 41.9848C38.0402 41.9346 37.3201 41.8676 36.6 41.8174C36.4325 41.8174 36.2483 41.8006 36.0808 41.7839C35.4444 41.7504 34.808 41.7169 34.1549 41.7001C32.1954 41.6499 30.236 41.6666 28.2765 41.8006C28.1761 43.2074 28.377 44.5472 28.6952 45.9205C30.37 45.6692 32.0782 45.686 33.7529 45.7697L33.7697 45.7865Z" fill="#EBE5D0"/>
<path d="M98.7827 68.1777C98.8832 67.9767 98.9669 67.7255 99.0674 67.491C100.407 67.9767 101.73 67.7255 102.048 66.9049C102.383 66.0507 101.529 64.9287 100.156 64.3927C98.7827 63.8568 97.3927 64.108 97.0577 64.9454C96.8065 65.5986 97.2419 66.4024 98.0961 66.9886C97.9956 67.223 97.9118 67.4575 97.7946 67.6752C97.6774 67.8929 97.5601 68.1107 97.4429 68.3451C97.7779 68.5126 98.0626 68.7136 98.364 68.9313C98.498 68.6801 98.632 68.4289 98.766 68.1777H98.7827Z" fill="#231F20"/>
<path d="M39.8488 88.0901L38.6597 87.3867C38.5425 87.7552 38.4587 88.1236 38.375 88.492L39.4636 89.1284C39.5473 88.7433 39.6813 88.3916 39.8488 88.0901Z" fill="#EBE5D0"/>
<path d="M39.8488 88.0901L38.6597 87.3867C38.5425 87.7552 38.4587 88.1236 38.375 88.492L39.4636 89.1284C39.5473 88.7433 39.6813 88.3916 39.8488 88.0901Z" fill="#231F20"/>
<path d="M99.2516 69.5341C99.2516 69.5341 99.1846 69.5006 99.1511 69.4839C99.1846 69.5174 99.2014 69.5676 99.2181 69.6011C99.2181 69.5676 99.2349 69.5509 99.2516 69.5174V69.5341Z" fill="#EBE5D0"/>
<path d="M98.1798 70.8739C98.2468 70.7231 98.3306 70.5724 98.3975 70.4217C98.4478 70.3045 98.498 70.1872 98.565 70.07C98.5818 70.0198 98.6153 69.9695 98.632 69.9025C98.565 69.8523 98.498 69.802 98.4478 69.7685C98.3306 69.6848 98.2133 69.6011 98.0961 69.5173C97.8784 69.3666 97.6607 69.2326 97.4262 69.0987C96.9908 68.8474 96.5386 68.6465 96.0697 68.479C95.9524 68.6297 95.8519 68.7972 95.7515 68.9479C96.7898 69.1656 97.7109 69.936 98.1966 70.8906L98.1798 70.8739Z" fill="#EBE5D0"/>
<path d="M91.2296 73.9053C91.6483 74.2402 91.9665 74.7092 92.2177 75.2116C92.4857 75.7642 92.7202 76.4007 92.7202 77.0203C93.6245 76.5346 94.4954 75.982 95.316 75.3791C94.5456 74.3742 93.3231 73.7881 92.1675 73.2856C91.8828 73.4866 91.5981 73.6541 91.2799 73.8216C91.2631 73.8551 91.2464 73.8886 91.2129 73.922L91.2296 73.9053Z" fill="#EBE5D0"/>
<path d="M95.2993 69.5509C95.0481 69.9529 94.7802 70.3381 94.5122 70.7232C95.6845 70.9242 96.6056 71.6611 97.3928 72.532C97.3928 72.4817 97.3928 72.4315 97.3928 72.3812C97.51 72.1468 97.6272 71.9123 97.7444 71.6778C97.443 70.5893 96.4047 69.6179 95.2826 69.5342L95.2993 69.5509Z" fill="#EBE5D0"/>
<path d="M90.4425 74.1898C90.4425 74.1898 90.4258 74.1731 90.409 74.1731C90.1076 74.2736 89.7894 74.3573 89.4712 74.4243C89.6052 75.2114 89.6889 75.9986 89.7057 76.7857C89.7057 77.2546 89.7056 77.7403 89.6554 78.2092C89.6554 78.2929 89.6219 78.3767 89.6052 78.4604C90.409 78.159 91.1962 77.8073 91.9498 77.4221C92.134 76.7857 91.8996 76.1158 91.6149 75.5464C91.3636 75.0105 91.0119 74.4076 90.4258 74.1898H90.4425Z" fill="#EBE5D0"/>
<path d="M33.3007 87.1189C33.5351 87.2696 33.7696 87.4036 34.0208 87.5543C34.0376 87.5543 34.2218 87.6548 34.138 87.6548V87.5711C34.2218 87.4538 34.272 87.3533 34.339 87.2361C34.5902 86.7839 34.8582 86.3318 35.1596 85.9131C35.3104 85.6954 35.4778 85.4776 35.6453 85.2767C35.729 85.1762 35.8128 85.0757 35.8798 84.9752C35.863 84.8915 35.863 84.8245 35.8798 84.7408C35.796 84.6738 35.7123 84.6068 35.6788 84.5733V84.5398C34.272 84.6738 32.9657 85.3102 31.9944 86.3318C32.4298 86.5997 32.8485 86.8844 33.2839 87.1356L33.3007 87.1189Z" fill="#EBE5D0"/>
<path d="M31.3243 86.0469C31.3243 86.0469 31.3913 85.9465 31.4081 85.9297C31.4583 85.8795 31.5085 85.8125 31.5755 85.7455C31.7932 85.511 32.0445 85.3101 32.2957 85.1091C33.1833 84.4392 34.2216 84.0205 35.3102 83.853C35.1762 83.7023 35.0422 83.5683 34.925 83.4009C34.925 83.3841 34.925 83.3674 34.925 83.3339C33.3507 82.8984 31.743 83.3171 30.1353 83.5014C30.152 83.5348 30.1855 83.5683 30.1855 83.6186C30.1855 84.0205 30.2022 84.4225 30.3697 84.8076C30.5204 85.1426 30.7549 85.4105 31.0061 85.6785C31.0564 85.7287 31.2741 86.0302 31.3411 86.0302L31.3243 86.0469Z" fill="#EBE5D0"/>
<path d="M32.7313 78.0584C33.2002 78.2427 33.6357 78.4604 34.0878 78.6948C34.339 78.8288 34.6572 78.9795 34.8917 79.1638C34.9922 79.0465 35.0927 78.9293 35.1764 78.8121C35.2434 78.7283 35.3439 78.5776 35.3941 78.4436C35.2936 78.3264 35.1094 78.2259 35.0089 78.1422C34.8247 78.0082 34.6238 77.8742 34.4228 77.7402C34.0376 77.5058 33.6524 77.2881 33.2337 77.1038C33.016 77.0034 32.7983 76.9196 32.5806 76.8359C32.4968 76.8024 32.3629 76.7354 32.2791 76.7689C32.1954 76.7856 32.1451 76.8694 32.0949 76.9196C31.8604 77.1876 31.7265 77.489 31.626 77.824C31.9944 77.824 32.3796 77.9077 32.7146 78.0417L32.7313 78.0584Z" fill="#EBE5D0"/>
<path d="M34.2888 80.4868C34.3725 80.3193 34.473 80.1686 34.5568 80.0179C34.6405 79.8504 34.5902 79.8001 34.4395 79.6997C34.1046 79.4485 33.6859 79.2642 33.3174 79.08C32.9323 78.8958 32.5471 78.6948 32.1451 78.5776C31.9777 78.5273 31.7599 78.4771 31.5757 78.5106C31.3915 78.5441 31.3245 78.6948 31.2575 78.8455C31.0733 79.214 31.0231 79.6159 31.0566 80.0346C31.0566 80.0514 31.0566 80.0681 31.0566 80.0849C32.1619 80.0849 33.2672 80.1518 34.3223 80.5203L34.2888 80.4868Z" fill="#EBE5D0"/>
<path d="M35.5112 88.1405C35.7624 88.241 36.0303 88.308 36.2815 88.375C36.7337 88.4922 37.2026 88.5257 37.6716 88.5425C37.7888 87.8223 37.9898 87.1357 38.2745 86.4658C37.6883 86.2146 37.1356 85.8964 36.6165 85.5447C36.583 85.5447 36.5495 85.5447 36.516 85.5447C36.4658 85.5447 36.4323 85.4944 36.382 85.4609C36.2983 85.5614 36.1978 85.6452 36.1308 85.7289C35.6954 86.2816 35.3102 86.8677 34.9585 87.4874C34.9082 87.5878 34.858 87.7051 34.791 87.8223C34.9417 88.0065 35.2599 88.0735 35.4609 88.1573L35.5112 88.1405Z" fill="#EBE5D0"/>
<path d="M32.7814 76.1996C32.8819 76.2331 32.9824 76.2666 33.0661 76.3168C33.401 76.4508 33.7192 76.6015 34.0374 76.769C34.4729 77.0035 34.8916 77.2714 35.2935 77.5561C35.1093 77.1207 34.8078 76.7188 34.6404 76.2833C34.5566 76.0824 34.5399 75.8814 34.4561 75.6804C34.3891 75.513 34.2552 75.3622 34.1714 75.1948C34.0542 74.9938 33.9705 74.7761 33.8867 74.5583C33.3676 74.9938 32.9824 75.5464 32.7646 76.1996H32.7814Z" fill="#EBE5D0"/>
<path d="M34.5568 74.1732C34.5568 74.1732 34.5568 74.2234 34.54 74.2234C34.6238 74.5081 34.7243 74.7593 34.8917 75.0106C35.009 75.178 35.1094 75.3622 35.1597 75.5632C35.2267 75.7474 35.2602 75.9484 35.3439 76.1326C35.5951 76.7188 35.9971 77.2547 36.131 77.8743C36.2483 77.7571 36.3822 77.6566 36.4995 77.5394C36.7674 77.2882 37.0856 77.0537 37.2866 76.7355C37.6718 76.1661 37.6048 75.3288 37.5211 74.6756C37.4708 74.3239 37.4038 73.9722 37.2531 73.654C37.2029 73.5703 37.1024 73.3023 37.0186 73.2688C36.8847 73.2018 36.6 73.3526 36.466 73.4028C35.8128 73.6038 35.1764 73.8717 34.5735 74.1899L34.5568 74.1732Z" fill="#EBE5D0"/>
<path d="M28.896 82.9487C30.7717 82.9654 32.6139 82.2955 34.4728 82.5802C34.4393 82.4295 34.3891 82.2955 34.3053 82.1448C34.2049 81.9773 34.1044 81.8266 34.0541 81.6424C34.0039 81.4749 34.0206 81.3074 34.0541 81.14C32.2454 80.5538 30.3362 80.7045 28.4605 80.7715C28.3433 80.7715 28.2428 80.7715 28.1256 80.7715C26.6686 80.8218 25.2283 80.7715 23.855 80.2356C23.6205 80.939 23.3861 81.6424 23.1516 82.329C24.0727 82.3793 24.9603 82.6137 25.8647 82.7979C26.8695 82.9989 27.8744 82.9319 28.896 82.9487Z" fill="#EBE5D0"/>
<path d="M94.0767 71.3596C93.8087 71.7281 93.524 72.0798 93.2058 72.398C93.0719 72.5487 92.9044 72.6659 92.7537 72.7999C93.859 73.3023 94.9141 73.8382 95.7514 74.7258C96.1869 75.178 96.4046 75.8144 96.773 76.3336C97.175 76.9197 97.6774 77.4389 98.2468 77.8576C98.4645 78.0251 98.9167 78.4437 99.2014 78.4772C99.4526 78.494 99.6033 78.226 99.8043 78.1256C100.24 77.9078 100.441 78.1758 100.725 78.4605C101.345 79.0634 102.316 79.6496 103.187 79.3481C103.589 79.2141 103.924 78.9629 104.293 78.7787C103.388 78.293 102.501 77.8241 101.596 77.3384C100.642 76.8193 99.7038 76.2666 98.9334 75.4627C97.5267 73.989 96.3543 71.5103 94.06 71.3596H94.0767Z" fill="#EBE5D0"/>
<path d="M41.4566 92.1095C41.7078 91.942 41.9423 91.7076 42.1265 91.4061C42.3777 91.0042 42.5787 90.485 42.6624 89.9156C42.8801 88.4586 42.3275 87.1523 41.4231 87.0183C40.837 86.9346 40.2508 87.37 39.8489 88.0734C39.6814 88.3749 39.5474 88.7266 39.4637 89.1117C39.4469 89.2122 39.4134 89.3127 39.3967 89.4299C39.2795 90.2171 39.3967 90.9539 39.6646 91.4899C39.8154 91.7746 39.9996 92.009 40.2341 92.143C40.368 92.2267 40.502 92.2937 40.636 92.3105C40.9207 92.344 41.1887 92.2602 41.4566 92.0928V92.1095Z" fill="#231F20"/>
<path d="M42.9638 107.986C42.9638 107.986 42.9973 107.986 43.0141 107.986C43.2653 108.07 43.4998 108.137 43.7175 108.187C45.409 108.656 47.1172 108.957 48.8589 109.175C50.2657 109.359 51.6725 109.477 53.0792 109.594C59.5102 110.063 65.9914 109.929 72.4057 109.125C76.0064 108.673 79.5735 108.02 83.0905 107.166C83.124 107.166 83.1407 107.132 83.1575 107.115C83.5427 107.149 83.9111 107.182 84.2963 107.216C84.514 107.232 84.7485 107.266 84.9997 107.266C85.1839 107.266 85.3514 107.266 85.5189 107.216C86.0715 107.032 86.038 106.395 86.0883 105.909C86.172 104.972 86.2725 104.034 86.3562 103.096C86.3562 102.979 86.3227 102.895 86.2557 102.845C86.5739 101.304 86.8754 99.7632 87.1936 98.2057C87.1936 98.1889 87.1936 98.1722 87.1936 98.1554C87.2103 98.1387 87.2438 98.1219 87.2606 98.1052C87.5453 97.787 87.629 97.3181 87.7463 96.9161C87.9137 96.397 88.0645 95.8778 88.2319 95.3754C88.5501 94.337 88.8851 93.3154 89.2033 92.2771C89.2703 92.0761 89.1363 91.9254 88.9856 91.8752C88.9856 89.9157 89.1195 87.9898 89.7224 86.1141C89.7727 85.9634 89.7224 85.8629 89.622 85.7959C89.622 84.5063 89.7224 83.2168 89.9234 81.9272C89.9569 81.8938 89.9736 81.8603 89.9904 81.81C90.2751 80.7717 90.5598 79.7333 90.8445 78.695C91.3972 78.4605 91.9331 78.2261 92.469 77.9414C92.469 77.9414 92.5025 77.9414 92.5192 77.9246C93.6581 77.3385 94.7634 76.6686 95.8017 75.9149C96.4549 77.104 97.4095 78.1423 98.5818 78.8457C99.034 79.1137 99.3857 79.3147 99.8546 78.9797C100.156 78.762 100.106 78.7452 100.407 78.9797C100.675 79.2142 100.993 79.4319 101.295 79.6161C101.831 79.9511 102.45 80.1688 103.087 80.0683C103.891 79.9343 104.443 79.2979 105.23 79.1304C105.549 79.1304 105.766 78.7118 105.431 78.5275C104.276 77.9079 103.104 77.2882 101.948 76.6686C100.809 76.0489 99.8378 75.379 99.0005 74.3742C98.5985 73.8885 98.1966 73.3526 97.7612 72.8502C97.8784 72.8502 97.9956 72.8502 98.0626 72.6995C98.2133 72.4315 98.3473 72.1468 98.4813 71.8621C98.4813 71.8621 98.4813 71.8453 98.4813 71.8286C98.6153 71.5439 98.766 71.2759 98.9 70.9912C99.034 70.7065 99.1679 70.4218 99.2852 70.1204C99.3689 69.9194 99.3522 69.7352 99.2684 69.5677C99.2517 69.5342 99.2349 69.484 99.2014 69.4505C99.2014 69.4505 99.2014 69.417 99.1679 69.4002C98.9502 69.1993 98.6823 69.0653 98.4311 68.8811C98.1296 68.6801 97.8282 68.4624 97.51 68.2949C97.0578 68.0604 96.6056 67.8595 96.1367 67.692C96.0027 67.6418 95.919 67.692 95.8352 67.759C95.7515 67.7757 95.6845 67.8092 95.6175 67.893C94.6964 69.149 93.9595 70.5558 92.9044 71.7114C92.5025 72.1635 92.0168 72.532 91.5144 72.8502C91.5814 72.4985 91.6316 72.1468 91.6986 71.7951C91.7154 71.6611 91.6819 71.5439 91.5981 71.4602C91.6316 69.7184 91.7824 67.9767 91.7824 66.235C91.7824 66.0843 91.6651 65.9503 91.5312 65.9168C91.4474 65.8833 91.3637 65.8833 91.2799 65.9503C84.514 70.6395 76.626 73.9555 68.4868 75.2785C66.2929 75.6302 64.0822 75.8145 61.8549 75.8145C60.4648 75.5632 59.0915 75.2953 57.7183 74.9771C53.6654 74.0392 49.7633 72.7162 45.9449 71.0247C45.007 70.606 44.0692 70.1874 43.1313 69.7854C40.1168 68.4959 37.0185 67.4073 33.7026 67.3403C33.6523 67.3403 33.6021 67.3403 33.5518 67.3403C33.5518 67.3403 33.5518 67.3403 33.5351 67.3403C33.3676 67.3403 33.1666 67.491 33.2001 67.6752C33.4513 69.6849 33.6858 71.6946 33.937 73.6875C33.0662 74.2402 32.413 75.0943 32.1283 76.0992C32.0948 76.0992 32.0446 76.0992 32.0111 76.1327C31.7096 76.2834 31.4919 76.6016 31.3244 76.8695C31.1402 77.171 31.0062 77.5059 30.9392 77.8576C30.9392 77.9246 30.9392 77.9916 30.9727 78.0419C30.4871 78.4773 30.3363 79.3816 30.3866 79.9678C30.3866 79.9845 30.4033 80.0013 30.4201 80.018C28.1759 80.1018 25.9318 80.42 23.8551 79.4654C23.6541 79.3649 23.4197 79.4486 23.3527 79.6664C23.0345 80.621 22.7163 81.5588 22.4148 82.5134C22.3479 82.7311 22.5321 82.9488 22.7498 82.9488C23.8551 82.9488 24.8935 83.2503 25.9653 83.468C26.8864 83.6355 27.8075 83.5685 28.7286 83.5852C28.9966 83.5852 29.2813 83.5852 29.5492 83.5517C29.5492 83.5685 29.5325 83.5852 29.5325 83.602C29.5325 84.0374 29.566 84.5063 29.7167 84.925C29.8507 85.26 30.0516 85.5614 30.2694 85.8461C30.4871 86.1141 30.7718 86.4993 31.09 86.6333C31.2239 86.6835 31.3412 86.6835 31.4417 86.65C31.4584 86.6667 31.4584 86.7002 31.4919 86.717C32.1451 87.1357 32.7982 87.5376 33.4513 87.9395C33.7193 88.107 34.0543 88.3415 34.3892 88.2242C34.5902 88.442 34.8916 88.5424 35.1428 88.6429C35.4443 88.7602 35.7457 88.8606 36.0472 88.9444C36.4324 89.0449 36.8343 89.0951 37.2362 89.1286C37.4037 89.966 37.5712 90.7866 37.7387 91.624C37.7052 91.691 37.6884 91.7579 37.7219 91.8417C37.9396 92.5451 37.9564 93.2485 37.7889 93.9686C37.6549 94.0356 37.5544 94.1528 37.6047 94.337C38.2243 96.5142 38.5593 98.7416 38.6095 101.019C38.6095 101.17 38.7268 101.287 38.8775 101.337C39.0785 102.091 39.1789 102.845 39.0952 103.632C39.0952 103.649 39.112 103.665 39.1287 103.699C38.6095 105.256 39.5139 106.295 40.7364 106.998C40.7364 106.998 40.7699 106.998 40.7699 107.015C41.4566 107.417 42.2605 107.701 42.9638 107.919V107.986ZM30.1689 83.6522C30.1689 83.6522 30.1354 83.5852 30.1186 83.535C31.7264 83.334 33.3341 82.9321 34.9084 83.3675C34.9084 83.3843 34.9084 83.401 34.9084 83.4345C35.0256 83.602 35.1596 83.736 35.2936 83.8867C34.205 84.0542 33.1666 84.4561 32.279 85.1427C32.0278 85.3437 31.7766 85.5447 31.5589 85.7791C31.5087 85.8294 31.4584 85.8964 31.3914 85.9634C31.3747 85.9801 31.2407 86.0806 31.3077 86.0806C31.2407 86.0806 31.0062 85.7791 30.9727 85.7289C30.7215 85.4609 30.4871 85.193 30.3363 84.858C30.1689 84.4896 30.1689 84.0709 30.1521 83.669L30.1689 83.6522ZM23.8551 80.2358C25.2284 80.7717 26.6687 80.8219 28.1257 80.7717C28.2429 80.7717 28.3434 80.7717 28.4606 80.7717C30.3531 80.6879 32.2455 80.5372 34.0543 81.1401C34.0208 81.3076 34.004 81.4751 34.0543 81.6425C34.1045 81.8268 34.205 81.9942 34.3055 82.145C34.3892 82.2789 34.4394 82.4297 34.4729 82.5804C32.614 82.2957 30.7718 82.9656 28.8961 82.9488C27.8912 82.9488 26.8696 83.0158 25.8648 82.7981C24.9604 82.6139 24.0728 82.3794 23.1517 82.3292C23.3862 81.6258 23.6207 80.9224 23.8551 80.2358ZM33.8868 68.0604C37.8559 68.1944 41.5403 69.8357 45.1242 71.4434C48.8924 73.1349 52.7275 74.5249 56.7469 75.4963C58.2877 75.8647 59.8452 76.1829 61.4194 76.4676C61.4697 76.5011 61.5199 76.5346 61.5869 76.5346C61.6539 76.5346 61.7209 76.5346 61.7879 76.5346C64.1492 76.9533 66.5106 77.305 68.8887 77.6064C70.9989 77.8744 73.1593 78.2428 75.303 78.2596C75.5709 78.2596 75.8221 78.2428 76.0734 78.2261C76.1068 78.2261 76.1236 78.2763 76.1738 78.2763C78.6022 78.3098 81.0306 78.628 83.3919 79.2142C84.5308 79.4989 85.6528 79.8506 86.7414 80.2693C87.6625 80.6209 88.5334 81.0731 89.2033 81.81C89.0023 83.1163 88.8851 84.4394 88.8851 85.7624C82.8728 83.3675 76.3748 82.8149 69.9941 82.0947C69.3912 82.0277 68.7883 81.9272 68.1854 81.8603C68.1686 81.8603 68.1519 81.8435 68.1351 81.8435C68.1016 81.8435 68.0514 81.8435 68.0179 81.8435C61.6874 81.0229 55.4406 79.8003 49.1939 78.5108C45.4759 77.7404 41.7413 76.9198 38.2578 75.3958C38.2578 74.9938 38.2076 74.5919 38.1406 74.2402C38.0569 73.8383 37.9229 73.4363 37.7052 73.0846C37.6047 72.9172 37.4707 72.7162 37.2865 72.6157C37.0855 72.5152 36.8846 72.5655 36.6836 72.6157C35.9467 72.8167 35.2433 73.1014 34.5399 73.4363C34.3222 71.6444 34.1045 69.8524 33.8868 68.0772V68.0604ZM96.0529 68.4624C96.5219 68.6466 96.974 68.8308 97.4095 69.082C97.6439 69.216 97.8617 69.35 98.0794 69.5007C98.1966 69.5844 98.3138 69.6682 98.4311 69.7519C98.4813 69.7854 98.565 69.8357 98.6153 69.8859C98.5985 69.9361 98.565 70.0031 98.5483 70.0534C98.4981 70.1706 98.4478 70.2878 98.3808 70.4051C98.3138 70.5558 98.2468 70.7065 98.1631 70.8572C97.6774 69.9026 96.7563 69.1323 95.718 68.9146C95.8185 68.7638 95.9357 68.5964 96.0362 68.4456L96.0529 68.4624ZM104.293 78.7787C103.924 78.9797 103.589 79.2142 103.187 79.3482C102.316 79.6496 101.345 79.0634 100.725 78.4605C100.441 78.1758 100.24 77.9079 99.8043 78.1256C99.6034 78.2261 99.4527 78.494 99.2014 78.4773C98.9167 78.4438 98.4646 78.0251 98.2468 77.8576C97.6774 77.4222 97.1918 76.903 96.7731 76.3336C96.4046 75.8145 96.1869 75.1948 95.7515 74.7259C94.8974 73.8383 93.8423 73.3024 92.7537 72.7999C92.9044 72.666 93.0719 72.5487 93.2059 72.398C93.5241 72.0631 93.8088 71.7114 94.0768 71.3597C96.3711 71.5104 97.5267 73.989 98.9502 75.4628C99.7039 76.2666 100.642 76.8193 101.613 77.3385C102.501 77.8241 103.405 78.2931 104.309 78.7787H104.293ZM85.3179 106.496C85.1337 106.73 84.2796 106.529 84.0116 106.496C82.4038 106.362 80.7961 106.194 79.1884 106.01C76.0231 105.641 72.8746 105.24 69.6926 104.972C63.2951 104.436 56.8474 104.235 50.4332 103.9C46.8827 103.716 43.3155 103.531 39.7651 103.347C39.7986 102.677 39.7316 102.024 39.5641 101.371C41.4063 101.254 43.2485 101.438 45.0908 101.522C47.1004 101.605 49.1101 101.605 51.1031 101.522C55.0554 101.337 58.9911 100.785 62.8429 99.8972C62.8597 99.8972 62.8597 99.8804 62.8764 99.8637C64.6349 100.4 66.4101 100.919 68.2021 101.321C70.8147 101.907 73.4943 102.141 76.1571 102.393C79.3223 102.677 82.4541 103.096 85.5691 103.766C85.5189 104.318 85.4686 104.854 85.4016 105.407C85.3849 105.625 85.4184 106.328 85.2844 106.496H85.3179ZM39.2794 100.634C39.1957 98.6076 38.8942 96.6147 38.3751 94.672C40.301 94.672 42.2102 94.5213 44.1362 94.3705C49.4953 95.9615 54.8545 97.5023 60.2136 99.0765C60.6658 99.2105 61.118 99.3445 61.5701 99.4785C58.0365 100.232 54.4693 100.701 50.8686 100.852C48.9594 100.935 47.0334 100.935 45.1075 100.852C43.1816 100.768 41.2724 100.567 39.3464 100.718C39.3297 100.701 39.3129 100.668 39.2794 100.651V100.634ZM35.6787 84.5231V84.5566C35.7122 84.5901 35.796 84.6571 35.8797 84.7241C35.8462 84.8078 35.8462 84.858 35.8797 84.9418C35.796 85.059 35.7122 85.1595 35.6453 85.2432C35.4778 85.4609 35.3103 85.6619 35.1596 85.8796C34.8581 86.2983 34.5902 86.7505 34.339 87.2027C34.272 87.3199 34.2217 87.4204 34.1715 87.5376V87.6213C34.1715 87.6213 34.0543 87.5376 34.0208 87.5209C33.7863 87.3869 33.5518 87.2362 33.3006 87.0854C32.8652 86.8175 32.4298 86.5495 32.0111 86.2816C32.9824 85.26 34.2887 84.6236 35.6955 84.4896L35.6787 84.5231ZM36.4491 73.3861C36.5998 73.3359 36.8678 73.2019 37.0018 73.2521C37.1023 73.3024 37.186 73.5536 37.2362 73.6373C37.387 73.9555 37.4707 74.3072 37.5042 74.6589C37.5879 75.312 37.6549 76.1494 37.2697 76.7188C37.0688 77.0203 36.7506 77.2715 36.4826 77.5227C36.3654 77.6399 36.2314 77.7404 36.1142 77.8576C35.9969 77.2212 35.595 76.7021 35.3271 76.1159C35.2433 75.9317 35.2098 75.7475 35.1428 75.5465C35.0758 75.3455 34.9754 75.1781 34.8749 74.9938C34.7074 74.7426 34.6069 74.4747 34.5232 74.2067C34.5232 74.2067 34.5232 74.1732 34.5399 74.1565C35.1596 73.855 35.7792 73.5871 36.4324 73.3693L36.4491 73.3861ZM68.1519 82.5636C71.5516 82.9823 74.968 83.2838 78.351 83.7862C80.4109 84.0877 82.4541 84.5063 84.4638 85.0423C78.5687 86.0806 72.6234 86.8845 66.6278 87.0519C60.1969 87.2362 53.7994 86.5328 47.4019 86.0136C43.9352 85.7289 40.3847 85.6117 36.9683 84.9083C37.052 83.669 36.9348 82.4297 36.6166 81.2406C36.6668 81.2406 36.7338 81.2406 36.7841 81.2573C37.9396 81.4081 39.1287 81.4416 40.2843 81.4248C42.6624 81.3913 45.0238 81.1736 47.4019 81.2239C51.8902 81.3076 56.345 81.8268 60.8165 82.1785C63.1276 82.3627 65.4388 82.4967 67.7667 82.5134C67.8839 82.5134 68.0179 82.5469 68.1351 82.5636H68.1519ZM88.2654 91.5402C82.6718 91.4397 77.0614 91.3393 71.4678 91.2388C68.6543 91.1885 65.8742 91.1718 63.0942 90.6024C60.3643 90.033 57.6848 89.2291 55.0052 88.4922C52.9453 87.9395 50.8853 87.3701 48.8087 86.8175C51.1031 87.0017 53.3974 87.1859 55.6918 87.3701C62.1898 87.8726 68.6375 87.8558 75.1188 87.1189C78.6859 86.717 82.2364 86.1476 85.7701 85.5112C85.8203 85.5112 85.8371 85.4609 85.8706 85.4442C86.8754 85.7456 87.8802 86.0973 88.8683 86.4993C88.4162 88.1573 88.2822 89.832 88.2654 91.5402ZM35.2768 79.7333C35.4108 80.152 35.5448 80.5707 35.7625 80.8889C35.7625 80.9057 35.796 80.9224 35.8127 80.9392C36.1477 81.9942 36.3151 83.0828 36.3151 84.1881C36.3151 84.1881 36.3151 84.1881 36.2984 84.1714C36.3151 84.0709 36.2984 83.9704 36.2147 83.8867C35.9802 83.6522 35.7625 83.401 35.5615 83.1331C35.5615 82.9991 35.5113 82.8651 35.3438 82.8149C35.1596 82.7646 35.1596 82.4632 35.1093 82.3292C35.0591 82.1115 34.9586 81.9272 34.8414 81.7263C34.7241 81.5421 34.6572 81.3913 34.7241 81.1736C34.7744 80.9559 34.9084 80.7717 35.0089 80.5707C35.1596 80.3028 35.3103 80.018 35.2601 79.7333H35.2768ZM44.1362 80.5875C41.5571 80.7047 38.9612 80.9057 36.3989 80.5037C36.3821 80.4367 36.3654 80.3697 36.3319 80.3028C36.3151 80.2358 36.2482 80.2023 36.2147 80.1688C36.0807 79.8171 35.93 79.4486 35.796 79.0969C35.8295 79.0467 35.8797 79.0132 35.8965 78.963C35.93 78.963 35.9634 78.963 35.9969 78.9295C36.3989 78.5778 36.8008 78.2093 37.186 77.8576C37.521 77.5562 37.8392 77.238 38.0234 76.8193C38.1239 76.6016 38.1741 76.3671 38.2076 76.1159C41.1216 77.3552 44.1864 78.1591 47.2847 78.8122C50.7681 79.5659 54.2683 80.2693 57.7852 80.9392C58.9743 81.1569 60.1466 81.3578 61.3357 81.5588C55.6081 81.1066 49.8805 80.353 44.1194 80.6042L44.1362 80.5875ZM34.1715 75.1948C34.272 75.3623 34.3892 75.513 34.4562 75.6805C34.5399 75.8815 34.5734 76.0824 34.6404 76.2834C34.8079 76.7021 35.1093 77.1208 35.2936 77.5562C34.8916 77.2715 34.4729 76.9868 34.0375 76.7691C33.7193 76.6016 33.3844 76.4509 33.0662 76.3169C32.9657 76.2834 32.8819 76.2331 32.7815 76.1996C32.9824 75.5465 33.3844 74.9938 33.9035 74.5584C33.9705 74.7761 34.071 74.9938 34.1882 75.1948H34.1715ZM34.9754 87.4706C35.3103 86.851 35.6955 86.2648 36.1477 85.7121C36.2147 85.6284 36.2984 85.5279 36.3989 85.4442C36.4324 85.4777 36.4826 85.5279 36.5329 85.5279C36.5664 85.5279 36.5998 85.5279 36.6333 85.5279C37.1525 85.8796 37.7052 86.1978 38.2913 86.449C38.0066 87.1189 37.8057 87.8056 37.6884 88.5257C37.2195 88.5257 36.7506 88.4755 36.2984 88.3582C36.0304 88.2912 35.7792 88.2243 35.528 88.1238C35.3103 88.04 35.0089 87.9563 34.8581 87.7888C34.9084 87.6716 34.9586 87.5544 35.0256 87.4539L34.9754 87.4706ZM85.5021 103.062C82.9733 102.526 80.4277 102.125 77.8653 101.873C75.0853 101.589 72.2884 101.438 69.5419 100.919C66.8288 100.4 64.1995 99.5287 61.5534 98.7583C58.8403 97.9545 56.1273 97.1673 53.4142 96.3802C50.9691 95.6601 48.524 94.9567 46.0788 94.2365C47.1172 94.1696 48.1555 94.1361 49.1939 94.1528C52.8615 94.2198 56.5124 94.6887 60.1634 95.1577C63.9818 95.6433 67.7834 96.1792 71.5851 96.7654C75.169 97.3013 78.7362 98.0215 82.3369 98.4401C83.3919 98.5574 84.4638 98.6411 85.5356 98.6244C85.8203 98.6244 86.1385 98.6244 86.4232 98.5741C86.1218 100.081 85.8203 101.589 85.5189 103.096L85.5021 103.062ZM86.8921 97.2678C86.6744 97.8707 86.3562 97.8707 85.7701 97.9042C85.3346 97.921 84.8825 97.9042 84.4303 97.9042C83.4757 97.8707 82.5378 97.7702 81.6 97.6363C78.0328 97.1506 74.4991 96.4974 70.9487 95.9615C67.5322 95.4424 64.1157 94.9734 60.6825 94.5213C57.1321 94.0523 53.5649 93.6001 49.981 93.4662C48.0215 93.3992 46.0621 93.4662 44.1194 93.6169C42.2437 93.7844 40.368 93.9686 38.4923 93.9853C38.5928 93.3992 38.5928 92.813 38.4923 92.2269C39.0785 92.2269 39.6479 92.1766 40.234 92.1599C39.9996 92.0092 39.8153 91.7914 39.6646 91.5067C39.2459 91.5067 38.8272 91.5402 38.4086 91.557C38.2578 90.7866 38.0904 89.9995 37.9396 89.2291C37.9396 89.2291 37.9396 89.2291 37.9564 89.2291C38.1574 89.2291 38.2746 89.0784 38.2913 88.8941C38.3081 88.7602 38.3583 88.6262 38.3751 88.4922C38.4421 88.1238 38.5258 87.7553 38.6598 87.3869C38.7603 87.0854 38.8607 86.7672 38.9947 86.4825C39.0952 86.2648 38.9947 86.0638 38.7938 85.9801C38.7603 85.9801 38.71 85.9466 38.6765 85.9299C40.9039 86.2648 43.1481 86.3988 45.3922 86.5663C45.4257 86.583 45.4424 86.6333 45.4927 86.6333C49.3781 87.6883 53.2802 88.8272 57.1823 89.8655C52.1916 90.6359 47.1842 91.155 42.1432 91.423C41.9423 91.7244 41.7245 91.9757 41.4733 92.1264C47.2344 91.8584 52.9788 91.2555 58.6896 90.3344C58.7398 90.3344 58.7398 90.3009 58.7733 90.2842C59.8619 90.5689 60.9505 90.8368 62.0558 91.088C64.7354 91.7077 67.3982 91.8752 70.128 91.9254C73.0253 91.9757 75.9226 92.0259 78.8367 92.0761C82.0522 92.1264 85.2676 92.1934 88.4999 92.2436C87.9807 93.9183 87.5118 95.6266 86.9256 97.2846L86.8921 97.2678ZM89.4712 80.9894C89.4712 80.9894 89.4377 81.0229 89.4042 81.0396C88.8851 80.554 88.2487 80.152 87.562 79.8338C88.3827 79.6161 89.2033 79.3482 89.9904 79.0467C89.8229 79.6831 89.6387 80.3362 89.4712 80.9726V80.9894ZM84.1288 75.4795C84.6815 75.4293 85.2342 75.3288 85.7868 75.2283C85.5691 75.8145 85.6361 76.4844 85.7031 77.1208C85.7868 77.9414 85.9878 78.762 86.507 79.3984C85.6026 79.0802 84.6647 78.829 83.8106 78.6113C82.2029 78.1926 80.5449 77.9079 78.8869 77.7404C79.4396 77.5897 79.9922 77.4222 80.5114 77.2045C81.7507 76.7188 82.9398 76.0992 84.1121 75.4628L84.1288 75.4795ZM91.6316 75.5633C91.9163 76.1327 92.1508 76.8026 91.9666 77.439C91.1962 77.8241 90.4258 78.1758 89.622 78.4773C89.622 78.3936 89.6554 78.3266 89.6722 78.2261C89.7224 77.7572 89.7224 77.2715 89.7224 76.8026C89.7224 76.0154 89.622 75.2116 89.488 74.4412C89.8062 74.3742 90.1244 74.2905 90.4258 74.19C90.4258 74.19 90.4426 74.2067 90.4593 74.2067C91.0287 74.4412 91.3804 75.0441 91.6484 75.5633H91.6316ZM88.5669 74.5082C88.5669 74.5082 88.6674 74.5752 88.7511 74.5584C88.7678 74.5584 88.8013 74.5584 88.8181 74.5584C88.9353 75.2283 89.0191 75.9149 89.0358 76.6016C89.0358 77.0203 89.0358 77.4222 89.0191 77.8409C89.0191 78.1089 89.0191 78.494 88.8348 78.7285C88.3157 78.896 87.7797 79.0802 87.2438 79.2142C87.2438 79.2142 87.2438 79.2142 87.2438 79.1974C86.6577 78.6615 86.4735 77.8744 86.4065 77.1208C86.3395 76.5011 86.1887 75.647 86.6074 75.1278C86.6074 75.1278 86.6074 75.0943 86.6242 75.0776C87.2941 74.9269 87.9472 74.7259 88.5836 74.4914L88.5669 74.5082ZM97.4095 72.398C97.4095 72.398 97.4095 72.4985 97.4095 72.5487C96.6223 71.6611 95.718 70.941 94.5289 70.74C94.7969 70.3548 95.0648 69.9696 95.3161 69.5677C96.4381 69.6514 97.4765 70.606 97.7779 71.7114C97.6607 71.9458 97.5435 72.1803 97.4262 72.4148L97.4095 72.398ZM92.1843 73.2856C93.3399 73.8048 94.5624 74.3742 95.3328 75.379C94.5122 75.9819 93.6246 76.5346 92.737 77.0203C92.737 76.4006 92.5025 75.7642 92.2345 75.2116C91.9833 74.7091 91.6651 74.2402 91.2464 73.9053C91.2799 73.8885 91.2967 73.855 91.3134 73.8048C91.6149 73.6541 91.9163 73.4698 92.201 73.2689L92.1843 73.2856ZM89.287 73.788C89.1865 73.721 89.0693 73.721 88.9688 73.788C88.9018 73.7545 88.8348 73.7378 88.7511 73.788C87.83 74.1397 86.8754 74.3742 85.904 74.5584C87.5285 73.6708 89.1698 72.8502 90.9283 72.2808C90.8613 72.6325 90.811 73.0009 90.744 73.3526C90.2918 73.5703 89.8062 73.721 89.3038 73.8215L89.287 73.788ZM91.0455 66.9049C91.012 68.4456 90.9115 69.9864 90.878 71.5271C87.5955 72.5487 84.7317 74.5249 81.6167 75.9819C80.009 76.7356 78.3175 77.3552 76.5423 77.5227C74.4154 77.7237 72.2382 77.3385 70.128 77.0705C68.4533 76.8695 66.7618 76.6351 65.0871 76.3671C72.2047 75.7977 79.2051 73.4866 85.4854 70.2041C87.3946 69.216 89.2368 68.0939 91.0287 66.8881L91.0455 66.9049ZM32.2958 76.7691C32.3795 76.7523 32.5135 76.8193 32.5972 76.8361C32.8149 76.9198 33.0327 77.0035 33.2504 77.104C33.6523 77.2882 34.0543 77.5059 34.4394 77.7404C34.6404 77.8744 34.8414 77.9916 35.0256 78.1423C35.1261 78.2093 35.2936 78.3266 35.4108 78.4438C35.3605 78.5778 35.2433 78.7285 35.1931 78.8122C35.1093 78.9462 35.0089 79.0467 34.9084 79.1639C34.6572 78.963 34.3557 78.829 34.1045 78.695C33.6691 78.4605 33.2169 78.2428 32.748 78.0586C32.413 77.9246 32.0278 77.8241 31.6594 77.8409C31.7599 77.5059 31.8938 77.2045 32.1283 76.9365C32.1785 76.8863 32.2288 76.8026 32.3125 76.7858L32.2958 76.7691ZM31.2407 78.829C31.3077 78.6783 31.3914 78.5275 31.5589 78.494C31.7431 78.4605 31.9608 78.5108 32.1283 78.561C32.5302 78.6783 32.9322 78.8792 33.3006 79.0634C33.6691 79.2477 34.0877 79.4319 34.4227 79.6831C34.5734 79.7836 34.6237 79.8338 34.5399 80.0013C34.4562 80.1688 34.3557 80.3195 34.272 80.4702C33.2169 80.1185 32.1116 80.0348 31.0062 80.0348C31.0062 80.018 31.023 80.018 31.0062 79.9846C30.9727 79.5826 31.0397 79.1639 31.2072 78.7955L31.2407 78.829ZM39.7651 104.034C46.4473 104.385 53.1462 104.72 59.8284 105.072C63.2616 105.256 66.6948 105.39 70.1113 105.692C73.4608 105.993 76.7935 106.429 80.143 106.814C80.4612 106.847 80.7626 106.881 81.0808 106.914C75.8389 108.07 70.4965 108.823 65.1373 109.075C59.2423 109.359 53.163 109.242 47.3349 108.288C45.7104 108.02 44.1027 107.651 42.5452 107.132C41.2221 106.68 39.2962 105.742 39.7651 104.034Z" fill="#B7A59D"/>
<path d="M33.2839 46.4563C35.2768 46.5233 37.253 46.7075 39.2292 46.9252C39.4134 46.942 39.5809 46.9755 39.7651 46.9922C43.5835 47.4276 47.3684 48.0138 51.1365 48.7004C59.7949 50.2579 68.5035 52.0332 76.827 54.9305C82.0856 56.7559 87.1768 59.0001 92.201 61.3614C92.402 61.4619 92.6365 61.3782 92.7035 61.1605C93.0552 59.9379 93.4403 58.7321 93.5911 57.4593C93.6413 57.1076 93.792 56.4377 93.5911 56.1028C93.4906 55.952 93.3064 55.8348 93.0887 55.7176C92.7872 55.5501 92.4355 55.4161 92.2178 55.2989C90.1411 54.1936 87.964 53.239 85.7868 52.3514C81.4995 50.6096 77.1452 49.1694 72.6904 47.9636C71.2166 47.5616 69.7261 47.1932 68.2356 46.8247C66.4939 46.3893 64.7354 45.9706 62.9769 45.5687C75.2025 45.7529 83.4254 45.3342 88.3826 44.7313C88.2822 44.2959 88.1482 43.8605 87.8467 43.4753C87.1936 42.6714 86.2222 42.5374 85.6361 42.3699C83.4422 41.7838 82.4876 39.7406 82.5713 38.0156C82.5881 37.5634 82.7388 37.1615 82.8393 36.7596C82.8895 36.5586 82.923 36.3576 82.923 36.1567C82.923 35.2523 82.4541 34.3982 81.6335 33.946C81.6167 33.946 81.5832 33.9125 81.5665 33.9125C81.0808 33.6613 80.5784 33.5273 80.1095 33.3431C79.2553 33.0082 78.083 32.0536 77.7481 30.8813C77.2457 29.173 79.0041 28.6539 77.9825 26.9791C76.9442 25.2709 75.6044 26.6442 74.3484 25.2207C73.5947 24.3498 73.4608 23.144 73.5612 22.3401C73.6115 21.9884 73.7287 21.687 73.8125 21.352C73.9799 20.6486 73.5612 19.895 72.8579 19.761C72.8244 19.761 71.4846 19.5935 71.4678 18.304V18.0193C71.4678 17.5504 71.0826 17.1819 70.6305 17.1819C70.5635 17.1819 70.4965 17.1819 70.4462 17.1987C70.3123 17.2322 70.1783 17.2657 70.0443 17.2657C69.8601 17.2657 69.6591 17.2154 69.4414 17.0145C68.5203 16.1771 68.872 14.6028 68.0849 13.464C67.8169 13.0788 67.4652 12.8109 67.2642 12.4089C67.1303 12.141 67.0968 11.8898 67.0968 11.672C67.0968 11.2366 67.3312 11.0524 67.6494 11.0524C68.3026 11.0524 69.3409 11.8563 69.7596 12.9783C70.0275 13.7152 70.0778 14.4856 70.5635 15.122C70.8482 15.5072 71.1329 15.6244 71.3841 15.6244C71.6353 15.6244 71.9033 15.4904 72.1545 15.3565C72.4057 15.2225 72.6569 15.0885 72.9081 15.0885C73.0086 15.0885 73.0923 15.1053 73.1928 15.1555C73.3603 15.2225 73.5445 15.3732 73.7287 15.6412C73.7957 15.7751 73.8459 15.9091 73.8962 16.0431C74.1307 16.8637 73.779 17.5169 74.1976 18.4045C74.5828 19.2084 75.2695 19.5266 75.8054 19.5266C75.9394 19.5266 76.0733 19.5098 76.1906 19.4596C76.3915 19.3926 76.626 19.3088 76.8772 19.3088C76.9107 19.3088 76.9275 19.3088 76.961 19.3088C77.3294 19.3088 77.7313 19.4596 78.1333 19.9452C78.3342 20.1964 78.485 20.4644 78.5854 20.7491C78.8199 21.419 78.8032 22.1056 78.6859 22.5746C78.6189 22.8593 78.5185 23.1607 78.485 23.4789C78.3677 24.3833 79.0544 25.2207 79.9587 25.3044C80.2267 25.3211 80.4779 25.3546 80.7626 25.4384C81.466 25.6561 82.4876 26.5939 82.7053 27.5653C82.9733 28.7208 81.8847 28.9553 82.3368 30.1611C82.3871 30.2951 82.4541 30.4291 82.5211 30.5463C82.9733 31.2999 83.7939 31.5679 84.3465 31.5679C84.3968 31.5679 84.447 31.5679 84.4805 31.5679C84.5977 31.5679 84.715 31.5679 84.849 31.5679C85.5691 31.5679 86.4734 31.7521 87.0261 32.3215C87.8467 33.1756 87.7295 34.1135 87.5788 34.9341C87.495 35.403 87.3108 35.7882 87.1768 36.2237C87.0763 36.5586 87.0931 36.9103 87.2103 37.2118C87.3946 37.6974 87.83 38.0491 88.3826 38.0659C88.3826 38.0659 88.3826 38.0659 88.3994 38.0659C88.6673 38.0659 88.9018 37.9319 89.1363 37.8649C89.287 37.8147 89.4712 37.7979 89.6889 37.7979C90.2081 37.7979 90.878 37.9654 91.4642 38.4176C93.6916 40.1593 93.1389 42.5877 92.0671 44.2289C93.6246 43.8939 94.4284 43.5255 94.5624 43.2073C94.5624 43.2073 94.5624 43.1906 94.5624 43.1738C94.6127 43.0733 94.6461 42.9561 94.6796 42.8389C94.7299 42.6714 94.7801 42.4704 94.8471 42.2025C95.3998 39.5731 94.6461 35.1686 89.7224 34.0298C89.8564 32.7737 89.3875 31.4339 88.3491 30.4793C87.428 29.6252 86.239 29.2568 85.1169 29.3405C85.5523 27.2973 85.2676 24.8355 82.5713 23.3617C81.9349 23.01 81.332 22.6416 80.7459 22.2899C80.6621 20.2802 79.54 18.1365 76.5758 17.5671C76.3581 17.5336 76.1571 17.5169 75.9394 17.5001C76.0231 15.8924 75.4537 14.5358 73.444 14.0167L73.511 13.9664C72.3387 13.7655 71.1329 12.1745 70.4462 11.1529C68.3026 7.63594 67.0968 4.77214 65.4555 2.98017C62.7927 0.0493866 59.594 -0.151582 58.1034 0.0326392C56.1105 0.267102 52.5098 2.19305 52.828 5.42529V5.47553C52.9118 7.15026 53.8496 6.79857 53.9501 6.37988C53.9836 6.2794 54.0171 6.17892 54.0506 6.09518C54.0673 6.04494 54.1008 5.9947 54.1343 5.94445L54.2181 5.81047C54.3185 5.65975 54.4358 5.50902 54.5697 5.37504L54.6535 5.29131C55.0219 4.92287 55.4406 4.77214 55.7756 4.7219C56.0268 4.70515 56.5124 4.75539 57.1321 5.27456C57.2326 5.37504 57.3163 5.47553 57.4168 5.57601C57.668 5.9947 57.869 6.8823 57.1321 8.55704V8.59053C57.0651 8.69102 57.0149 8.7915 56.9646 8.89199C56.8641 9.07621 56.7469 9.26043 56.6297 9.4279C56.4957 9.62887 56.3617 9.84659 56.1942 10.0308C56.077 10.1648 55.9765 10.2988 55.8593 10.4327C55.7086 10.6002 55.5578 10.7509 55.4071 10.9184C53.9333 12.3419 52.5266 12.6434 52.5266 12.6434C51.0863 12.9448 49.9977 14.1507 49.9977 15.6077C49.9977 15.7417 50.0145 15.8756 50.0312 15.9929C48.9594 16.3111 48.1723 16.9642 48.0048 18.2035C45.0405 19.0911 42.3609 20.6654 42.6624 23.5459C39.1622 24.1321 36.1142 25.9073 36.3989 30.4123C36.4659 31.3669 35.9802 32.2545 35.0256 32.422C32.7312 32.8072 29.2143 34.5154 28.9296 41.1139C28.5946 41.1306 28.2597 41.1139 27.9247 41.1474C27.7237 41.1474 27.6065 41.2981 27.5898 41.4823C27.4223 43.1738 27.6902 44.7816 28.0922 46.4228C28.1424 46.6405 28.3601 46.6908 28.5276 46.6405C28.6783 46.607 28.8291 46.607 28.9798 46.5735C29.1473 46.5568 29.3315 46.5233 29.499 46.5065C29.499 46.5065 29.5994 46.5065 29.6329 46.4898C30.822 46.3726 32.0446 46.4061 33.2336 46.4395L33.2839 46.4563ZM28.7118 45.9539C28.3936 44.5973 28.1927 43.2408 28.2932 41.834C30.2526 41.7 32.212 41.6666 34.1715 41.7335C34.8079 41.7503 35.4443 41.7838 36.0974 41.8173C36.2649 41.8173 36.4491 41.834 36.6166 41.8508C37.3367 41.901 38.0569 41.9513 38.777 42.0182C44.0524 42.4872 49.2943 43.4585 54.4693 44.4801C58.7901 45.3342 63.0941 46.2553 67.3815 47.3104C71.7023 48.3822 76.0566 49.5043 80.2602 50.9948C84.5977 52.5356 89.0023 54.2103 93.0049 56.5382C92.9882 57.945 92.5862 59.2848 92.201 60.6078C87.7797 58.5311 83.2915 56.5549 78.7027 54.8802C74.6331 53.3897 70.4797 52.1671 66.2594 51.1623C57.869 49.1359 49.3111 47.4946 40.7197 46.4395C38.4086 46.1548 36.0974 45.9204 33.7863 45.8199C32.1115 45.7362 30.4033 45.7194 28.7286 45.9706L28.7118 45.9539ZM35.3773 34.7834C35.461 34.7834 35.5448 34.7834 35.6285 34.7834C36.1309 34.7834 36.6333 34.8839 37.119 34.9509C37.2027 34.9509 37.2865 34.9509 37.3702 34.9509C37.9229 34.9509 38.4588 34.7332 38.844 34.3815C39.2962 33.9628 39.5809 33.3766 39.5474 32.7067C39.5306 32.1038 39.3966 31.5177 39.3464 30.9482C39.2292 29.8262 39.6311 28.2184 40.7867 27.5988C41.1049 27.4313 41.4398 27.3643 41.758 27.3643C42.1935 27.3643 42.6289 27.4815 43.0476 27.5988C43.4663 27.716 43.8682 27.8332 44.2701 27.8332C44.7056 27.8332 45.1075 27.6825 45.4927 27.2471C46.866 25.6728 44.4376 24.2158 45.3587 22.4238C45.8611 21.4358 47.0502 20.9501 48.0048 20.9501C48.0885 20.9501 48.1723 20.9501 48.256 20.9501C48.6579 20.9836 49.0599 21.0506 49.4451 21.0506C50.2154 21.0506 50.8016 20.8161 50.7513 19.6605C50.7513 19.6605 50.2824 17.8853 51.9069 17.6341C52.1246 17.6006 52.3089 17.5001 52.4261 17.3494C52.6438 17.0814 52.694 16.6963 52.4763 16.3613C52.3423 16.1603 52.1749 15.9594 52.0576 15.7417C51.9237 15.4904 51.8734 15.2392 51.9739 14.9043C52.1414 14.4019 52.6271 14.0837 53.2132 13.8325C53.9333 13.5143 54.7875 13.2798 55.3569 12.8444C55.5076 12.7271 55.6248 12.6099 55.7253 12.4759C56.01 12.0907 56.6632 11.0691 57.2158 11.0524H57.2493C57.7182 11.0524 58.0197 11.2869 58.1537 11.6553C58.4719 12.4759 57.9695 13.9162 56.8976 14.6196C56.211 15.0718 55.3234 15.256 54.8712 15.9761C54.8042 16.0933 54.754 16.1938 54.7205 16.2943C54.7205 16.2943 54.7205 16.3111 54.7205 16.3278C54.6367 16.6125 54.687 16.8637 54.8042 17.0982C55.3066 18.0863 57.0986 18.7394 56.1942 20.0122C55.3401 20.8328 54.1343 20.2634 53.2467 21.0506C52.3424 21.8377 52.6773 23.0602 53.2132 23.6966C53.7491 24.3498 54.419 25.1872 53.8329 26.2087C53.3472 27.0629 52.3591 27.3476 51.5217 27.3476C51.371 27.3476 51.2203 27.3476 51.0863 27.3141C50.9356 27.2973 50.7848 27.2806 50.6341 27.2638C50.5671 27.2638 50.5001 27.2638 50.4164 27.2638C49.2273 27.2638 48.3397 28.4696 48.7752 29.642C48.8589 29.8764 48.9426 30.1276 48.9929 30.3956C49.1604 31.3167 48.6914 32.7402 47.6866 33.1756C47.4856 33.2594 47.2846 33.2929 47.0837 33.2929C46.7487 33.2929 46.4305 33.1924 46.1291 33.0919C45.8276 32.9914 45.5094 32.8909 45.1912 32.8909C44.94 32.8909 44.6888 32.9579 44.4209 33.1254C43.6337 33.6446 43.5165 34.5824 43.7342 35.3361C43.8179 35.604 43.9352 35.8552 44.1027 36.0394C44.6888 36.7596 45.5262 37.5132 45.074 38.6855C44.6386 39.8243 43.2318 40.4607 42.1935 40.4607C42.1432 40.4607 42.1097 40.4607 42.0595 40.4607C41.6575 40.444 41.2723 40.3603 40.9039 40.2765C40.7867 40.2598 40.6694 40.243 40.569 40.243C39.8488 40.243 39.3297 40.7454 39.1454 41.3651C36.8176 41.1474 34.4897 41.0134 32.1618 41.0134C32.0278 40.7454 31.8436 40.3938 31.7264 39.8243C31.3412 37.9821 33.3006 34.9509 35.3773 34.7834Z" fill="#B7A59D"/>
<path d="M94.529 43.1236V43.1571C94.395 43.4753 93.5912 43.827 92.0337 44.1787C91.0958 44.3797 89.9235 44.5807 88.4162 44.7649C83.459 45.3678 75.2361 45.7865 63.0105 45.6022C64.769 46.0042 66.5107 46.4229 68.2692 46.8583C68.3864 46.8583 68.4869 46.8583 68.6041 46.8583C79.1382 46.8583 91.5647 46.3894 94.8807 44.3127C95.4166 43.9777 95.7348 43.6093 95.7516 43.1739C95.7851 42.2863 94.864 42.0183 94.864 42.0183C94.864 42.0686 94.8472 42.0853 94.8305 42.1355C94.7635 42.4202 94.7132 42.6212 94.663 42.7719C94.6127 42.9227 94.5793 43.0399 94.5458 43.1069L94.529 43.1236Z" fill="white"/>
</g>
<defs>
<clipPath id="clip0_336_123">
<rect width="128" height="128" fill="white"/>
</clipPath>
</defs>
</svg>
