<svg width="128" height="128" viewBox="0 0 128 128" fill="none" xmlns="http://www.w3.org/2000/svg">
<g clip-path="url(#clip0_336_118)">
<g opacity="0.3" style="mix-blend-mode:multiply">
<path d="M79.322 118.039C79.4124 118.454 79.5028 118.87 79.6112 119.286C80.0813 119.449 80.4248 119.738 80.5514 120.136C80.8406 121.058 79.8643 122.197 78.3457 122.685C76.8271 123.173 75.3807 122.793 75.0915 121.871C74.8022 120.949 75.7785 119.81 77.2971 119.322C77.6768 119.196 78.0384 119.141 78.3819 119.123C78.2915 118.744 78.2011 118.382 78.1468 118.021C75.0915 117.984 71.9819 117.948 68.7999 117.948C66.1062 117.948 63.4666 117.948 60.8632 118.002C60.8994 118.183 60.9536 118.382 60.9898 118.563C61.4417 118.726 61.7852 119.015 61.9118 119.413C62.2011 120.335 61.2248 121.474 59.7062 121.962C58.2056 122.432 56.7412 122.07 56.4519 121.148C56.1627 120.226 57.1389 119.087 58.6576 118.599C59.0372 118.473 59.4169 118.418 59.7785 118.4C59.7604 118.274 59.7242 118.147 59.7062 118.021C31.4485 118.4 9.82593 120.479 9.82593 122.974C9.82593 125.74 36.2214 128 68.7999 128C101.378 128 127.774 125.758 127.774 122.974C127.774 120.515 106.875 118.454 79.34 118.039H79.322Z" fill="#4D4D4F"/>
</g>
<path d="M61.0801 107.86C61.0801 107.86 60.7366 109.469 60.592 111.657C63.3219 112.036 66.2869 112.307 69.3965 112.434C72.3795 112.561 75.236 112.524 77.8575 112.38C78.0564 109.993 78.5807 108.402 78.6168 108.294L79.7016 108.655C79.7016 108.655 79.2315 110.12 79.0326 112.307C87.4394 111.729 93.297 109.867 93.2428 107.444C93.2428 107.01 93.0259 106.576 92.6462 106.142L103.186 39.1778L103.403 37.6411C103.403 37.6411 103.385 37.6411 103.367 37.6411C99.9682 39.9552 85.4869 40.4072 74.8564 40.4072C72.2349 40.4072 69.8665 40.3891 67.9321 40.353C60.6643 40.2264 51.3174 39.7744 44.0134 38.9247L50.6485 84.2307C52.7095 84.4296 54.7163 84.6104 56.3795 84.7369C61.1343 85.1166 65.8891 85.2793 70.6439 85.2251C78.5807 85.1527 88.4157 84.3573 96.262 83.1098C95.9185 85.2793 95.8643 85.5866 95.6654 86.8702C89.2292 87.8827 81.5999 88.407 74.9648 88.6239L75.7784 89.5821C76.2846 90.1606 76.2123 91.0465 75.6338 91.5527C75.0552 92.0408 74.2055 91.9685 73.6993 91.4262V95.6386C73.6993 97.3199 72.3253 98.7301 70.6439 98.7482C65.8891 98.8024 61.1343 98.6216 56.3795 98.26C54.6982 98.1335 53.3422 96.6148 53.3422 94.9516V87.9911C52.6733 87.9188 51.9321 87.8646 51.1728 87.7923L54.4993 110.554C55.9999 110.915 57.6631 111.223 59.4349 111.494C59.5976 109.306 59.923 107.752 59.9592 107.625L61.0801 107.86ZM58.8383 53.7676C57.8801 53.8761 56.9761 52.7009 56.8134 51.1461C56.6507 49.5913 57.2835 48.2716 58.2417 48.1631C59.1999 48.0546 60.1038 49.2298 60.2665 50.7846C60.4292 52.3393 59.7965 53.6591 58.8383 53.7676ZM70.0654 62.1382C69.74 62.1924 69.3965 62.2286 69.0711 62.2286C67.9863 62.2286 66.9377 61.9212 66.0518 61.3427C64.8767 60.5653 64.0812 59.4082 63.8643 58.0704C63.81 57.763 64.0089 57.4738 64.3343 57.4195L73.9343 55.7744C74.097 55.7563 74.2417 55.7744 74.3682 55.8648C74.4948 55.9551 74.5671 56.0817 74.6033 56.2263C75.0733 58.9743 73.0485 61.632 70.1016 62.1382H70.0654ZM77.5682 52.484C76.61 52.5925 75.7061 51.4173 75.5434 49.8625C75.3807 48.3077 76.0134 46.988 76.9716 46.8795C77.9298 46.771 78.8338 47.9461 78.9965 49.5009C79.1592 51.0377 78.5264 52.3755 77.5682 52.484ZM95.9185 75.2454C95.4304 76.7641 94.3456 77.8488 92.6643 78.4635L86.6439 80.3799C86.6439 80.3799 86.6439 80.4703 86.6078 80.5064C86.2281 81.3923 84.7456 81.5912 83.3174 80.9584C81.8891 80.3256 81.0394 79.1144 81.4191 78.2285C81.7987 77.3426 83.2812 77.1437 84.7095 77.7765C85.505 78.12 86.1196 78.6624 86.4451 79.2228L92.2846 77.3607C93.6044 76.8726 94.436 76.059 94.8157 74.8839C96.0451 71.033 91.8146 64.7958 91.7784 64.7415C91.5976 64.4884 91.6699 64.1269 91.923 63.9461C92.1761 63.7653 92.5377 63.8376 92.7185 64.0907C92.8993 64.3619 97.2925 70.8342 95.9004 75.2274L95.9185 75.2454Z" fill="#DF5551"/>
<g opacity="0.2" style="mix-blend-mode:multiply">
<path d="M45.3333 105.528C45.3875 108.818 53.6135 110.409 54.5174 110.68V110.554C48.9491 109.252 45.3694 107.426 45.3333 105.528Z" fill="#A32035"/>
</g>
<path d="M42.4226 86.8883C42.1875 85.6227 41.9887 84.3934 41.7356 83.1821C44.2485 83.5798 47.5209 83.9414 50.6485 84.2487L44.0135 38.9427C38.4452 38.31 34.0881 37.4422 32.7502 36.3394C32.7502 36.3394 32.7502 36.3755 32.7502 36.3936L33.6904 41.3472L33.9254 41.1122L35.5525 42.7393L34.974 43.3178L36.6011 44.945L37.1796 44.3664L38.5175 45.7043L37.1796 47.0421L36.6011 46.4636L35.1909 47.8738L35.7695 48.4523L35.1728 49.0489L38.0655 64.1629C38.2101 64.2353 38.3548 64.3437 38.4994 64.4161C40.9582 65.5912 43.7785 65.6273 46.4904 65.4827C46.7977 65.4827 47.087 65.6997 47.087 66.0251C47.087 66.3324 46.87 66.6036 46.5446 66.6217C45.8576 66.6578 45.1706 66.6759 44.4655 66.6759C42.3864 66.6759 40.2711 66.4228 38.3186 65.5731L45.7491 104.425C45.4598 104.786 45.2971 105.166 45.2971 105.564C45.3333 107.444 48.913 109.27 54.4632 110.59L51.1367 87.8284C48.2621 87.5753 44.8994 87.3222 42.3864 86.9244L42.4226 86.8883Z" fill="#DF5551"/>
<g opacity="0.2" style="mix-blend-mode:multiply">
<path d="M42.4226 86.8883C42.1875 85.6227 41.9887 84.3934 41.7356 83.1821C44.2485 83.5798 47.5209 83.9414 50.6485 84.2487L44.0135 38.9427C38.4452 38.31 34.0881 37.4422 32.7502 36.3394C32.7502 36.3394 32.7502 36.3755 32.7502 36.3936L33.6904 41.3472L33.9254 41.1122L35.5525 42.7393L34.974 43.3178L36.6011 44.945L37.1796 44.3664L38.5175 45.7043L37.1796 47.0421L36.6011 46.4636L35.1909 47.8738L35.7695 48.4523L35.1728 49.0489L38.0655 64.1629C38.2101 64.2353 38.3548 64.3437 38.4994 64.4161C40.9582 65.5912 43.7785 65.6273 46.4904 65.4827C46.7977 65.4827 47.087 65.6997 47.087 66.0251C47.087 66.3324 46.87 66.6036 46.5446 66.6217C45.8576 66.6578 45.1706 66.6759 44.4655 66.6759C42.3864 66.6759 40.2711 66.4228 38.3186 65.5731L45.7491 104.425C45.4598 104.786 45.2971 105.166 45.2971 105.564C45.3333 107.444 48.913 109.27 54.4632 110.59L51.1367 87.8284C48.2621 87.5753 44.8994 87.3222 42.3864 86.9244L42.4226 86.8883Z" fill="#A32035"/>
</g>
<path d="M33.3649 35.4174C33.9976 36.7914 47.4666 38.9247 67.9502 39.2682C74.3502 39.3767 79.8101 39.3405 84.4022 39.1778C102.915 29.7948 74.8564 23.0694 70.1197 18.4412C65.2926 13.7226 66.3231 4.53846 73.4824 2.64016C78.0745 1.41079 82.2869 6.00285 81.2383 7.59381C81.5276 7.4311 81.7988 7.05144 81.8892 6.32828C81.8892 6.3102 81.8892 6.29212 81.8892 6.27404C82.54 2.76671 77.5502 0.488757 74.7479 0.109098C72.6508 -0.162087 68.1129 -0.144008 64.2621 2.80287C59.1276 6.72602 56.488 15.9102 38.3366 25.3474C32.7502 28.24 32.244 33.4829 33.3287 35.4716H33.3649C33.3649 35.4716 33.3649 35.4355 33.3649 35.4174Z" fill="#B7A59C"/>
<path d="M44.0135 38.9246C51.3175 39.7563 60.6644 40.2263 67.9322 40.3529C69.8666 40.389 72.235 40.4071 74.8564 40.4071C85.505 40.4071 99.9864 39.9551 103.367 37.641C103.837 37.3156 104.108 36.9721 104.108 36.5744H103.024C103.024 36.5744 102.969 36.719 102.879 36.8094C102.861 37.171 102.807 37.5506 102.716 37.9303C102.716 37.9303 102.337 38.1472 96.6598 38.8885C95.3762 39.0512 99.1005 38.8885 91.0192 39.3405C79.8463 39.9732 83.2994 39.702 83.2994 39.702C83.6791 39.5212 84.0225 39.3405 84.3841 39.1597C79.792 39.3043 74.3502 39.3585 67.9322 39.2501C47.4485 38.9066 33.9796 36.7732 33.3468 35.3992C33.3468 35.4173 33.3468 35.4715 33.3468 35.4896H33.3107L32.4067 34.9653C32.2259 35.2908 32.244 35.6343 32.4067 35.9597C32.4791 36.0862 32.6056 36.1947 32.7322 36.3213C34.07 37.4241 38.4271 38.2919 43.9954 38.9246H44.0135Z" fill="white"/>
<path opacity="0.4" d="M80.3525 7.48536C80.5695 7.81079 81.0938 7.81079 81.2203 7.63C81.2203 7.63 81.2203 7.61192 81.2203 7.59384C80.8768 7.77463 80.5153 7.68423 80.3345 7.46729L80.3525 7.48536Z" fill="white"/>
<path d="M73.4644 2.64019C66.3232 4.53848 65.2746 13.7407 70.1017 18.4412C74.8384 23.0695 102.879 29.7949 84.3842 39.1779C95.991 38.7982 101.939 37.7677 102.879 36.8095C103.349 30.3372 94.7254 27.7519 94.7254 27.7519C102.608 22.4909 81.6362 14.5362 81.6362 14.5362C81.6362 14.5362 81.6362 14.5362 81.6181 14.5362C81.1842 14.3011 80.7684 14.0842 80.3526 13.8492C79.0689 13.1079 77.1526 11.7882 76.0317 10.1611C75.9774 10.0887 75.9413 10.0345 75.9051 9.96219C75.8147 9.79947 75.7062 9.65484 75.6339 9.49213C75.6339 9.49213 75.6339 9.45597 75.6158 9.45597C74.6576 7.59384 75.0011 6.63565 75.3808 6.20175C75.5254 6.09328 75.6701 5.9848 75.8147 5.87633C76.7187 5.33396 77.4057 5.31588 77.7492 5.35204C78.2192 5.42435 78.7978 5.60514 79.304 6.00288C79.3401 6.03904 79.3763 6.0752 79.4124 6.09328C79.5752 6.25599 79.7379 6.4187 79.8825 6.59949C79.9187 6.65373 79.9548 6.70796 80.0091 6.74412C80.0452 6.79836 80.0814 6.8526 80.1175 6.90683C80.1718 7.01531 80.2079 7.12378 80.2441 7.23226C80.2441 7.34073 80.2983 7.39497 80.3526 7.46728C80.5334 7.68423 80.8949 7.77463 81.2384 7.59384C82.287 6.00288 78.0746 1.41082 73.4825 2.64019H73.4644Z" fill="#B7A59C"/>
<path opacity="0.4" d="M73.4644 2.64019C66.3232 4.53848 65.2746 13.7407 70.1017 18.4412C74.8384 23.0695 102.879 29.7949 84.3842 39.1779C95.991 38.7982 101.939 37.7677 102.879 36.8095C103.349 30.3372 94.7254 27.7519 94.7254 27.7519C102.608 22.4909 81.6362 14.5362 81.6362 14.5362C81.6362 14.5362 81.6362 14.5362 81.6181 14.5362C81.1842 14.3011 80.7684 14.0842 80.3526 13.8492C79.0689 13.1079 77.1526 11.7882 76.0317 10.1611C75.9774 10.0887 75.9413 10.0345 75.9051 9.96219C75.8147 9.79947 75.7062 9.65484 75.6339 9.49213C75.6339 9.49213 75.6339 9.45597 75.6158 9.45597C74.6576 7.59384 75.0011 6.63565 75.3808 6.20175C75.5254 6.09328 75.6701 5.9848 75.8147 5.87633C76.7187 5.33396 77.4057 5.31588 77.7492 5.35204C78.2192 5.42435 78.7978 5.60514 79.304 6.00288C79.3401 6.03904 79.3763 6.0752 79.4124 6.09328C79.5752 6.25599 79.7379 6.4187 79.8825 6.59949C79.9187 6.65373 79.9548 6.70796 80.0091 6.74412C80.0452 6.79836 80.0814 6.8526 80.1175 6.90683C80.1718 7.01531 80.2079 7.12378 80.2441 7.23226C80.2441 7.34073 80.2983 7.39497 80.3526 7.46728C80.5334 7.68423 80.8949 7.77463 81.2384 7.59384C82.287 6.00288 78.0746 1.41082 73.4825 2.64019H73.4644Z" fill="white"/>
<path d="M83.3174 39.7203C83.3174 39.7203 79.8643 39.9915 91.0371 39.3587C99.1185 38.9067 95.3942 39.0694 96.6778 38.9067C102.355 38.1655 102.734 37.9485 102.734 37.9485C102.825 37.5508 102.861 37.1892 102.897 36.8276C101.939 37.7677 95.9908 38.8163 84.4021 39.196C84.0405 39.3768 83.7151 39.5576 83.3174 39.7384V39.7203Z" fill="white"/>
<path opacity="0.4" d="M83.3174 39.7203C83.3174 39.7203 79.8643 39.9915 91.0371 39.3587C99.1185 38.9067 95.3942 39.0694 96.6778 38.9067C102.355 38.1655 102.734 37.9485 102.734 37.9485C102.825 37.5508 102.861 37.1892 102.897 36.8276C101.939 37.7677 95.9908 38.8163 84.4021 39.196C84.0405 39.3768 83.7151 39.5576 83.3174 39.7384V39.7203Z" fill="white"/>
<path d="M78.617 108.294C78.5808 108.42 78.0565 109.993 77.8577 112.38C77.7311 113.971 77.7492 115.905 78.1469 118.02C78.2192 118.382 78.2916 118.744 78.382 119.123C78.0385 119.141 77.6588 119.214 77.2972 119.322C75.7967 119.792 74.8023 120.931 75.0916 121.871C75.3808 122.793 76.8452 123.173 78.3458 122.685C79.8464 122.197 80.8407 121.076 80.5515 120.136C80.4249 119.738 80.0814 119.449 79.6113 119.286C79.5029 118.87 79.3944 118.454 79.3221 118.039C78.8882 115.887 78.8882 113.898 79.0328 112.307C79.2317 110.12 79.7017 108.674 79.7017 108.656L78.617 108.294Z" fill="#221F1F"/>
<path d="M58.6395 118.599C57.1389 119.069 56.1446 120.208 56.4339 121.148C56.7231 122.07 58.1875 122.45 59.6881 121.962C61.1887 121.492 62.183 120.353 61.8937 119.413C61.7672 119.015 61.4237 118.744 60.9717 118.563C60.9355 118.382 60.8813 118.183 60.8451 118.002C60.4293 115.815 60.4293 113.519 60.5559 111.657C60.7186 109.469 61.044 107.896 61.044 107.86L59.9231 107.625C59.887 107.752 59.5615 109.306 59.3988 111.494C59.2542 113.374 59.2542 115.724 59.67 118.02C59.6881 118.147 59.7242 118.274 59.7423 118.4C59.3807 118.4 59.0011 118.49 58.6214 118.599H58.6395Z" fill="#221F1F"/>
<path d="M46.5627 66.5855C46.8882 66.5855 47.1232 66.2963 47.1051 65.9889C47.1051 65.6635 46.7978 65.4466 46.5085 65.4466C43.7966 65.5912 40.9763 65.555 38.5175 64.3799C38.3729 64.3076 38.2283 64.2172 38.0836 64.1268C35.2995 62.5901 33.4012 59.7697 31.7198 57.2387C31.4486 56.8229 31.1955 56.407 31.0328 55.9912C31.6113 55.3404 31.8464 54.5811 31.5571 54.0206C31.2678 53.4782 30.5447 53.2794 29.713 53.3517L29.5684 53.4963L30.1469 54.0749L28.7367 55.485L28.1582 54.9065L26.748 56.3167L27.3266 56.8952L27.0373 57.1844C27.7243 57.5279 28.8091 57.4556 29.8577 56.8952C29.948 56.8409 30.0384 56.7867 30.1288 56.7325C30.3458 57.1844 30.617 57.5822 30.7978 57.8534C32.5514 60.4929 34.739 63.7833 38.0475 65.3923C38.156 65.4466 38.2644 65.4827 38.3729 65.5189C40.3254 66.3686 42.4226 66.6217 44.5198 66.6217C45.2249 66.6217 45.9119 66.6036 46.5989 66.5675L46.5627 66.5855Z" fill="#221F1F"/>
<path d="M76.9718 46.8975C76.0136 47.006 75.3808 48.3258 75.5436 49.8806C75.7063 51.4354 76.6102 52.5924 77.5684 52.502C78.5266 52.3936 79.1594 51.0738 78.9967 49.519C78.834 47.9642 77.93 46.8071 76.9718 46.8975Z" fill="#231F20"/>
<path d="M58.2418 48.1631C57.2836 48.2716 56.6509 49.5913 56.8136 51.1461C56.9763 52.6828 57.8802 53.858 58.8384 53.7676C59.7966 53.6591 60.4294 52.3393 60.2667 50.7845C60.104 49.2478 59.2 48.0727 58.2418 48.1631Z" fill="#231F20"/>
<path d="M74.3502 55.8464C74.2236 55.756 74.079 55.7199 73.9163 55.756L64.3163 57.4012C64.0089 57.4555 63.792 57.7447 63.8462 58.0521C64.0812 59.3899 64.8587 60.5651 66.0338 61.3244C66.9377 61.9029 67.9863 62.2102 69.053 62.2102C69.3784 62.2102 69.7219 62.1741 70.0473 62.1199C72.9942 61.6136 75.0191 58.956 74.549 56.208C74.531 56.0634 74.4406 55.9188 74.314 55.8464H74.3502Z" fill="#231F20"/>
<path d="M91.9411 63.9642C91.688 64.145 91.6157 64.5066 91.7965 64.7597C91.8327 64.8139 96.0632 71.0512 94.8338 74.902C94.4541 76.0772 93.6225 76.8907 92.3027 77.3789L86.4632 79.241C86.1377 78.6805 85.5411 78.1382 84.7276 77.7947C83.2993 77.1619 81.8349 77.3788 81.4372 78.2466C81.0575 79.1325 81.9072 80.3438 83.3355 80.9766C84.7637 81.6093 86.2281 81.3924 86.6259 80.5246C86.644 80.4884 86.644 80.4342 86.662 80.398L92.6824 78.4817C94.3637 77.867 95.4485 76.7822 95.9366 75.2636C97.3287 70.8704 92.9355 64.3981 92.7547 64.1269C92.5739 63.8558 92.2123 63.8015 91.9592 63.9823L91.9411 63.9642Z" fill="#231F20"/>
<path d="M42.4226 86.8884C44.9175 87.2861 48.2802 87.5392 51.1729 87.7923C51.9322 87.8646 52.6734 87.9189 53.3423 87.9912V94.9516C53.3423 96.633 54.7164 98.1335 56.3796 98.2601C61.1344 98.6397 65.8892 98.8024 70.644 98.7482C72.3254 98.7482 73.6994 97.32 73.6994 95.6386V91.4262C73.6994 91.4262 73.6813 91.4262 73.6632 91.4081L71.783 89.2025C71.548 88.9313 71.4576 88.5878 71.4576 88.2624C71.2045 88.3347 70.9514 88.4251 70.7164 88.4974C70.6802 88.4974 70.6621 88.4974 70.626 88.4974C70.4813 88.4974 70.3367 88.3889 70.3005 88.2443C70.2463 88.0635 70.3548 87.8827 70.5356 87.8285C70.9514 87.72 71.3672 87.5754 71.7649 87.4488C70.7706 87.7742 69.8124 88.0274 68.8542 88.2081C69.035 88.172 69.1977 88.2985 69.2339 88.4793C69.27 88.6601 69.1435 88.8409 68.9627 88.8771C68.4022 88.9855 67.8056 89.0759 67.209 89.1302C67.209 89.1302 67.1909 89.1302 67.1729 89.1302C67.0101 89.1302 66.8474 89.0036 66.8294 88.8228C66.8113 88.6601 66.9198 88.5155 67.0825 88.4793C66.5401 88.5336 66.0158 88.5878 65.5096 88.6059C65.6542 88.642 65.7627 88.7505 65.7627 88.8951C65.7627 89.0759 65.6181 89.2386 65.4373 89.2567C65.1299 89.2567 64.8226 89.2748 64.4972 89.2748C64.2079 89.2748 63.9367 89.2748 63.6474 89.2748C63.4666 89.2748 63.3039 89.1121 63.322 88.9313C63.322 88.8047 63.3943 88.7144 63.5028 88.6601C63.0508 88.6601 62.5988 88.624 62.1649 88.5878C62.2373 88.6601 62.2734 88.7505 62.2553 88.8409C62.2373 89.0217 62.0926 89.1483 61.9118 89.1483C61.9118 89.1483 61.8938 89.1483 61.8757 89.1483C61.2791 89.0759 60.7005 89.0036 60.122 88.8951C59.9412 88.859 59.8147 88.6782 59.8508 88.4974C59.8508 88.4251 59.9231 88.3528 59.9774 88.3166C59.5616 88.2443 59.1638 88.172 58.7842 88.0997C58.7842 88.1539 58.8203 88.2081 58.8022 88.2805C58.7661 88.4251 58.6214 88.5336 58.4768 88.5336C58.4407 88.5336 58.4226 88.5336 58.3864 88.5336C57.8079 88.3889 57.2294 88.2081 56.687 88.0273C56.5062 87.9731 56.4158 87.7742 56.47 87.5935C56.47 87.5754 56.5062 87.5573 56.5243 87.5392C56.1446 87.4307 55.783 87.3042 55.4757 87.1957C55.4214 87.3223 55.2949 87.3946 55.1683 87.3946C55.1322 87.3946 55.0779 87.3946 55.0418 87.3584C54.861 87.2861 54.6802 87.1957 54.4994 87.1234C54.3367 87.0511 54.2825 86.8884 54.3367 86.7257C54.1017 86.6172 53.957 86.563 53.957 86.563H54.4271C54.5175 86.5087 54.644 86.4545 54.7706 86.5087C54.8429 86.5449 54.9152 86.581 54.9875 86.5991L71.8553 87.3584C71.8553 87.3584 71.9096 87.268 71.9638 87.2319C72.5423 86.7257 73.4282 86.798 73.9344 87.3765L75.0011 88.624C81.6361 88.407 89.2655 87.8827 95.7017 86.8703C95.9005 85.5867 95.9367 85.2613 96.2983 83.1099C88.4339 84.3573 78.5988 85.1528 70.6802 85.2251C65.9254 85.2793 61.1706 85.0985 56.4158 84.737C54.7344 84.6104 52.7457 84.4296 50.6847 84.2308C47.557 83.9234 44.2847 83.5618 41.7717 83.1641C42.0248 84.3754 42.2237 85.6048 42.4587 86.8703L42.4226 86.8884Z" fill="#00A9E7"/>
<path d="M54.409 86.5811H53.939C53.939 86.5811 54.0655 86.6172 54.3186 86.7257C54.3186 86.7257 54.3186 86.6895 54.3186 86.6714C54.3367 86.6172 54.3909 86.5991 54.4271 86.5811H54.409Z" fill="#231F20"/>
<path d="M54.9876 86.6172C55.096 86.6714 55.1864 86.7076 55.2949 86.7618C55.4576 86.8341 55.5299 87.0149 55.4757 87.1957C55.783 87.3042 56.1446 87.4127 56.5243 87.5392C56.5966 87.4127 56.7412 87.3404 56.9039 87.3765C57.4463 87.5573 58.0068 87.72 58.5672 87.8646C58.6938 87.9008 58.748 87.9912 58.7842 88.0997C59.1638 88.172 59.5616 88.2443 59.9774 88.3166C60.0497 88.2443 60.1401 88.2081 60.2486 88.2262C60.809 88.3347 61.3876 88.407 61.9661 88.4793C62.0565 88.4793 62.1288 88.5336 62.183 88.5878C62.6169 88.624 63.0689 88.642 63.5209 88.6601C63.5751 88.624 63.6294 88.5878 63.7017 88.5878C64.2802 88.5878 64.8587 88.6059 65.4373 88.5878C65.4734 88.5878 65.4915 88.6059 65.5277 88.624C66.052 88.6059 66.5763 88.5516 67.1006 88.4974C67.1186 88.4974 67.1367 88.4793 67.1548 88.4612C67.7514 88.3889 68.3119 88.3166 68.8723 88.2081C69.8305 88.0274 70.7887 87.7742 71.783 87.4488C71.8011 87.4307 71.8192 87.3946 71.8373 87.3765L54.9695 86.6172H54.9876Z" fill="#231F20"/>
<path d="M60.2487 88.208C60.1402 88.208 60.0498 88.2261 59.9775 88.2984C59.9232 88.3526 59.869 88.4069 59.8509 88.4792C59.8148 88.66 59.9413 88.8408 60.1221 88.8769C60.7006 88.9854 61.2972 89.0577 61.8758 89.13C61.8758 89.13 61.8938 89.13 61.9119 89.13C62.0746 89.13 62.2374 89.0035 62.2554 88.8227C62.2554 88.7142 62.2193 88.6238 62.165 88.5696C62.1108 88.5154 62.0385 88.4611 61.9481 88.4611C61.3696 88.4069 60.8091 88.3165 60.2306 88.208H60.2487Z" fill="#D0D2D3"/>
<path d="M56.9039 87.3584C56.7412 87.3223 56.5965 87.3946 56.5242 87.5211C56.5242 87.5392 56.4881 87.5573 56.47 87.5754C56.4157 87.7562 56.5061 87.955 56.6869 88.0093C57.2474 88.1901 57.8259 88.3709 58.3864 88.5155C58.4225 88.5155 58.4406 88.5155 58.4768 88.5155C58.6214 88.5155 58.766 88.407 58.8022 88.2624C58.8022 88.2081 58.8022 88.1358 58.7841 88.0816C58.7479 87.9731 58.6756 87.8827 58.5672 87.8466C58.0067 87.7019 57.4462 87.5392 56.9039 87.3584Z" fill="#D0D2D3"/>
<path d="M67.1367 88.4614C67.1367 88.4614 67.1005 88.4795 67.0825 88.4976C66.9198 88.5337 66.8113 88.6784 66.8294 88.8411C66.8474 89.0219 66.9921 89.1484 67.1729 89.1484C67.1729 89.1484 67.1909 89.1484 67.209 89.1484C67.8056 89.0761 68.4022 88.9857 68.9627 88.8953C69.1435 88.8592 69.27 88.6784 69.2339 88.4976C69.1977 88.3168 69.0169 88.1902 68.8542 88.2264C68.3118 88.3349 67.7333 88.4072 67.1367 88.4795V88.4614Z" fill="#D0D2D3"/>
<path d="M54.9876 86.6173C54.9876 86.6173 54.843 86.545 54.7707 86.5269C54.6441 86.4727 54.5176 86.5269 54.4272 86.5992C54.391 86.6354 54.3368 86.6535 54.3187 86.6896C54.3187 86.6896 54.3187 86.7258 54.3187 86.7439C54.2826 86.9066 54.3187 87.0693 54.4814 87.1416C54.6622 87.232 54.843 87.3043 55.0238 87.3766C55.06 87.3947 55.1142 87.4128 55.1504 87.4128C55.2769 87.4128 55.4035 87.3405 55.4577 87.2139C55.5119 87.0512 55.4577 86.8523 55.2769 86.78C55.1684 86.7258 55.078 86.6896 54.9696 86.6354L54.9876 86.6173Z" fill="#D0D2D3"/>
<path d="M65.4192 88.5879C64.8407 88.606 64.2621 88.606 63.6836 88.5879C63.6113 88.5879 63.557 88.6241 63.5028 88.6602C63.4124 88.7145 63.3401 88.8048 63.322 88.9314C63.322 89.1122 63.4667 89.2749 63.6474 89.2749C63.9367 89.2749 64.2079 89.2749 64.4972 89.2749C64.8045 89.2749 65.1299 89.2749 65.4373 89.2568C65.6181 89.2568 65.7627 89.0941 65.7627 88.8952C65.7627 88.7506 65.6542 88.6421 65.5096 88.606C65.4734 88.606 65.4554 88.5698 65.4192 88.5698V88.5879Z" fill="#D0D2D3"/>
<path d="M71.9458 87.2316C71.9458 87.2316 71.8916 87.322 71.8373 87.3582C71.8193 87.3762 71.8012 87.4124 71.7831 87.4305C71.3673 87.557 70.9695 87.7017 70.5537 87.8101C70.3729 87.8644 70.2645 88.0452 70.3187 88.2259C70.3549 88.3706 70.4995 88.479 70.6441 88.479C70.6803 88.479 70.6984 88.479 70.7345 88.479C70.9876 88.4067 71.2407 88.3163 71.4758 88.244C71.4758 88.5875 71.5662 88.9129 71.8012 89.1841L73.6814 91.3898C73.6814 91.3898 73.6995 91.3898 73.7176 91.4079C74.2238 91.9683 75.0735 92.0225 75.652 91.5344C76.2306 91.0282 76.3029 90.1604 75.7967 89.5638L74.9831 88.6056L73.9164 87.3582C73.4102 86.7796 72.5424 86.7073 71.9458 87.2135V87.2316Z" fill="#D0D2D3"/>
<path d="M15.2135 47.4219C16.0632 48.2897 17.0756 47.7112 17.9796 47.0965L15.4666 44.5835C14.8157 45.3609 14.3457 46.5541 15.2135 47.44V47.4219Z" fill="white"/>
<path d="M20.0226 47.6386L22.6983 50.3143C23.4034 49.4104 24 48.2352 23.0599 47.2951C22.0474 46.2827 21.0892 46.9336 20.0226 47.6386Z" fill="white"/>
<path d="M26.1514 55.7561L26.73 56.3346L28.1401 54.9244L27.5616 54.3459L28.9718 52.9357L29.5503 53.5143L29.6949 53.3696L30.9605 52.1041L30.3819 51.5256L31.7921 50.1154L32.3706 50.6939L33.7808 49.2838L33.2023 48.7052L34.6124 47.2951L35.191 47.8736L36.6011 46.4634L36.0226 45.8849L36.2215 45.686L36.0226 45.4872L36.6011 44.9086L34.974 43.2815L34.3955 43.8601L32.7684 42.233L33.3469 41.6544L31.7198 40.0273L31.1413 40.6058L29.5141 38.9787L30.0927 38.4002L28.4655 36.7731L27.887 37.3516L26.2599 35.7245L26.8384 35.146L25.2113 33.5189L24.6328 34.0974L23.0057 32.4703L23.5842 31.8918L21.9571 30.2646L21.3785 30.8432L21.1797 30.6443L20.9808 30.8432L20.4023 30.2646L18.9921 31.6748L19.5706 32.2533L18.1605 33.6635L17.5819 33.085L16.1718 34.4951L16.7503 35.0737L15.3401 36.4838L14.7616 35.9053L13.3514 37.3155L13.93 37.894L12.5198 39.3042L11.9413 38.7256L10.5311 40.1358L11.1096 40.7143L9.69945 42.1245L9.12092 41.5459L7.71075 42.9561L8.28928 43.5346L6.87911 44.9448L6.30058 44.3663L4.89041 45.7764L5.46894 46.355L4.05877 47.7651L3.48024 47.1866L2.07007 48.5968L2.6486 49.1753L2.44973 49.3742L2.6486 49.573L2.07007 50.1516L3.69719 51.7787L4.27572 51.2001L5.90284 52.8272L5.32431 53.4058L6.95142 55.0329L7.52996 54.4544L9.15707 56.0815L8.57854 56.66L10.2057 58.2871L10.7842 57.7086L12.4113 59.3357L11.8328 59.9142L13.4599 61.5413L14.0384 60.9628L15.6655 62.5899L15.087 63.1684L16.7141 64.7956L17.2927 64.217L17.4915 64.4159L17.6904 64.217L18.2689 64.7956L19.6791 63.3854L19.1006 62.8069L20.5107 61.3967L21.0893 61.9752L22.4994 60.5651L21.9209 59.9865L23.3311 58.5764L23.9096 59.1549L25.3198 57.7447L24.7413 57.1662L26.1514 55.7561ZM23.2768 52.4114C21.5593 53.8397 19.191 54.5628 17.4373 52.8815L18.8475 51.4713C19.7333 52.303 21.0893 51.8148 21.939 51.0917L19.1729 48.3075C17.4735 49.6634 15.4667 50.6035 13.7853 48.9041C12.0859 47.2047 12.7187 44.8544 14.1469 43.2454L13.2972 42.3776L14.0384 41.6363L14.9243 42.5222C16.5153 41.2205 18.7209 40.6601 20.3842 42.233L19.0102 43.607C18.0701 42.7753 17.1119 43.155 16.226 43.8239L18.8113 46.4273C20.6915 44.9629 22.6079 43.8962 24.5243 45.8307C26.2057 47.512 25.4283 49.9708 24 51.6521L24.8497 52.5199L24.1085 53.2611L23.2588 52.4114H23.2768Z" fill="white"/>
<path d="M36.2214 45.6865L36.0406 45.8673L36.6192 46.4458L37.1796 47.0243L38.5175 45.6865L37.1796 44.3486L36.6192 44.9091L36.0406 45.4876L36.2214 45.6865Z" fill="#3EAFE4"/>
<path d="M32.9491 51.2547L32.3705 50.6762L31.8101 50.1157L30.3818 51.5259L30.9604 52.0863L31.5389 52.6649L32.9491 51.2547Z" fill="#3EAFE4"/>
<path d="M26.7299 56.3349L26.1514 55.7563L24.7412 57.1665L25.3197 57.745L25.8983 58.3236L27.0011 57.2027L27.3084 56.8953L26.7299 56.3349Z" fill="#3EAFE4"/>
<path d="M19.1006 62.8071L19.661 63.3857L20.2396 63.9642L21.6497 62.554L21.0893 61.9755L20.5108 61.397L19.1006 62.8071Z" fill="#3EAFE4"/>
<path d="M27.5615 54.3462L28.1401 54.9247L28.7186 55.4852L30.1288 54.075L29.5502 53.5146L28.9717 52.936L27.5615 54.3462Z" fill="#3EAFE4"/>
<path d="M21.9209 59.9868L22.4994 60.5653L23.0599 61.1439L24.4881 59.7337L23.9096 59.1552L23.3311 58.5767L21.9209 59.9868Z" fill="#3EAFE4"/>
<path d="M33.2203 48.7056L33.7808 49.266L34.3593 49.8446L35.191 49.031L35.7695 48.4344L35.191 47.8559L34.6305 47.2773L33.2203 48.7056Z" fill="#3EAFE4"/>
<path d="M17.4915 64.4162L17.2927 64.2173L16.7322 64.7958L16.1537 65.3743L17.4915 66.7122L18.8294 65.3743L18.2509 64.7958L17.6904 64.2173L17.4915 64.4162Z" fill="#3EAFE4"/>
<path d="M4.3299 51.2544L3.75137 51.8329L3.19092 52.4114L4.79996 54.0205L5.37849 53.46L5.95702 52.8815L4.3299 51.2544Z" fill="#3EAFE4"/>
<path d="M7.58419 54.5088L7.00565 55.0692L6.42712 55.6478L8.05424 57.2749L8.61469 56.6964L9.19323 56.1178L7.58419 54.5088Z" fill="#3EAFE4"/>
<path d="M10.8203 57.7451L10.2417 58.3236L9.66321 58.8841L11.2903 60.5112L11.8689 59.9327L12.4293 59.3722L10.8203 57.7451Z" fill="#3EAFE4"/>
<path d="M14.0565 60.981L13.4779 61.5595L12.9175 62.138L14.5265 63.747L15.1051 63.1866L15.6836 62.6081L14.0565 60.981Z" fill="#3EAFE4"/>
<path d="M2.522 49.4467L2.72087 49.2479L2.14234 48.6874L1.56381 48.1089L0.225952 49.4467L1.56381 50.7846L2.14234 50.2061L2.72087 49.6456L2.522 49.4467Z" fill="#3EAFE4"/>
<path d="M14.0023 37.9666L13.4237 37.3881L12.8633 36.8096L11.4531 38.2197L12.0136 38.7983L12.5921 39.3768L14.0023 37.9666Z" fill="#3EAFE4"/>
<path d="M8.36154 43.6072L7.78301 43.0287L7.20448 42.4683L5.79431 43.8784L6.37284 44.4389L6.95137 45.0174L8.36154 43.6072Z" fill="#3EAFE4"/>
<path d="M5.54123 46.4276L4.9627 45.849L4.38417 45.2886L2.974 46.6987L3.55253 47.2773L4.13106 47.8377L5.54123 46.4276Z" fill="#3EAFE4"/>
<path d="M16.8226 35.1463L16.2621 34.5678L15.6836 33.9893L14.2734 35.3994L14.852 35.9779L15.4124 36.5565L16.8226 35.1463Z" fill="#3EAFE4"/>
<path d="M11.1818 40.7869L10.6033 40.2084L10.0429 39.6299L8.63269 41.0581L9.19314 41.6186L9.77167 42.1971L11.1818 40.7869Z" fill="#3EAFE4"/>
<path d="M19.661 32.3079L19.0825 31.7475L18.5039 31.1689L17.0938 32.5791L17.6723 33.1576L18.2327 33.7181L19.661 32.3079Z" fill="#3EAFE4"/>
<path d="M21.2519 30.7169L21.4508 30.8977L22.0293 30.3192L22.5898 29.7587L21.2519 28.4209L19.9141 29.7587L20.4926 30.3192L21.0711 30.8977L21.2519 30.7169Z" fill="#3EAFE4"/>
<path d="M31.1774 40.624L31.7559 40.0455L32.3164 39.485L30.7074 37.8579L30.1288 38.4364L29.5503 39.015L31.1774 40.624Z" fill="#3EAFE4"/>
<path d="M34.4135 43.8784L34.992 43.2999L35.5706 42.7213L33.9434 41.0942L33.7084 41.3293L33.3649 41.6728L32.7864 42.2513L34.4135 43.8784Z" fill="#3EAFE4"/>
<path d="M24.6869 34.1518L25.2655 33.5733L25.844 32.9948L24.2169 31.3677L23.6383 31.9462L23.0779 32.5247L24.6869 34.1518Z" fill="#3EAFE4"/>
<path d="M27.9412 37.3882L28.5017 36.8096L29.0802 36.2311L27.4531 34.6221L26.8926 35.1825L26.3141 35.761L27.9412 37.3882Z" fill="#3EAFE4"/>
<path d="M24.0181 51.6524C25.4282 49.971 26.2056 47.5123 24.5424 45.8309C22.626 43.9145 20.7096 44.9631 18.8294 46.4275L16.244 43.8241C17.1118 43.1552 18.07 42.7756 19.0282 43.6072L20.4022 42.2332C18.757 40.6603 16.5514 41.2208 14.9424 42.5225L14.0565 41.6366L13.3152 42.3778L14.165 43.2456C12.7548 44.8547 12.1039 47.2049 13.8034 48.9043C15.4847 50.6038 17.4915 49.6637 19.1909 48.3077L21.957 51.0919C21.0892 51.8151 19.7514 52.3032 18.8655 51.4716L17.4553 52.8817C19.209 54.5631 21.5593 53.858 23.2949 52.4117L24.1446 53.2614L24.8859 52.5202L24.0361 51.6524H24.0181ZM15.2135 47.4219C14.3457 46.5541 14.8158 45.3428 15.4666 44.5654L17.9796 47.0784C17.0757 47.7111 16.0633 48.2716 15.2135 47.4038V47.4219ZM22.6983 50.3326L20.0226 47.6569C21.0892 46.9518 22.0474 46.301 23.0599 47.3134C24 48.2535 23.4034 49.4286 22.6983 50.3326Z" fill="#3EAFE4"/>
</g>
<defs>
<clipPath id="clip0_336_118">
<rect width="128" height="128" fill="white"/>
</clipPath>
</defs>
</svg>
