<svg width="128" height="128" viewBox="0 0 128 128" fill="none" xmlns="http://www.w3.org/2000/svg">
<path d="M83.9094 112.04C108.26 112.04 128 92.2996 128 67.949C128 43.5984 108.26 23.8584 83.9094 23.8584C59.5588 23.8584 39.8187 43.5984 39.8187 67.949C39.8187 92.2996 59.5588 112.04 83.9094 112.04Z" fill="#66CCF1"/>
<mask id="mask0_336_114" style="mask-type:luminance" maskUnits="userSpaceOnUse" x="39" y="23" width="89" height="90">
<path d="M83.9094 112.04C108.26 112.04 128 92.2996 128 67.949C128 43.5984 108.26 23.8584 83.9094 23.8584C59.5588 23.8584 39.8187 43.5984 39.8187 67.949C39.8187 92.2996 59.5588 112.04 83.9094 112.04Z" fill="white"/>
</mask>
<g mask="url(#mask0_336_114)">
<path d="M113.608 49.8368L104.497 107.752C104.828 108.115 105.001 108.493 105.017 108.871C105.064 111.709 95.8266 113.648 84.3823 113.191C72.938 112.733 63.6217 110.069 63.5744 107.232C63.5744 106.885 63.7005 106.554 63.9528 106.239L52.6976 47.4093C52.6503 47.1255 52.6345 46.558 52.9971 46.6526C74.9557 52.1541 113.797 48.5127 113.797 48.5127L113.608 49.8368Z" fill="#DF5551"/>
</g>
<g opacity="0.2" style="mix-blend-mode:multiply">
<path d="M71.3774 110.258C68.54 109.47 63.5744 107.184 63.5744 107.074C63.606 106.774 63.6848 106.554 63.937 106.238L52.7134 47.204C52.6661 46.9202 52.6661 46.337 53.0129 46.4473C56.8907 47.7084 62.2661 48.1025 62.2661 48.1025" fill="#A32035"/>
</g>
<path d="M53.4542 47.0306C52.1931 45.738 52.2719 40.6149 57.5212 37.8878C73.2217 29.7223 75.5074 21.7774 79.9369 18.3883C83.263 15.8346 87.1882 15.8188 89.0167 16.0553C91.4443 16.3705 95.7478 18.3568 95.1961 21.3834C95.1961 21.3991 95.1961 21.4149 95.1961 21.4306C95.0069 23.007 93.8246 22.7233 93.7773 22.2188C93.7458 22.1242 93.7143 22.0297 93.667 21.9351C93.6355 21.8878 93.6039 21.8405 93.5724 21.7932C93.5409 21.7459 93.5094 21.7144 93.4778 21.6671C93.3517 21.5252 93.2256 21.3834 93.0837 21.2415C93.0522 21.21 93.0207 21.1784 92.9892 21.1627C92.5478 20.8159 92.0433 20.6582 91.6335 20.5952C91.334 20.5637 90.735 20.5952 89.9468 21.0523C89.8207 21.1311 89.7103 21.2257 89.5842 21.3203C89.2532 21.6986 88.9695 22.5183 89.7892 24.142C89.7892 24.142 89.7892 24.1735 89.8049 24.1735C89.8837 24.3154 89.9626 24.4415 90.0414 24.5834C90.0729 24.6464 90.1202 24.6937 90.1517 24.7568C91.1291 26.1755 92.7842 27.3104 93.8877 27.9568C94.2502 28.1617 94.6128 28.3508 94.9911 28.54H95.0069C95.0069 28.54 113.151 35.4287 106.325 39.9686C106.325 39.9686 114.664 42.4592 113.245 48.7804C113.245 48.7804 112.93 49.0641 107.996 49.6159C99.7202 50.5459 95.6532 50.073 88.6699 50.4671C79.0069 51.0188 69.7537 49.9942 58.7665 48.9538C58.136 48.8907 53.864 47.4247 53.4857 47.0306H53.4542Z" fill="#B7A59C"/>
<path d="M89.0955 50.9086C86.8413 50.9086 84.7763 50.8928 83.1211 50.8613C71.5507 50.6564 53.8167 49.4899 52.4138 47.0623C52.2561 46.7786 52.2404 46.4791 52.4138 46.1953L53.2492 46.6525C53.2492 46.6525 53.2492 46.5894 53.2492 46.5736C53.8167 47.7559 65.466 49.6002 83.1527 49.8997C104.039 50.2465 113.466 48.749 113.482 47.5667H114.428C114.364 50.4042 99.5783 50.9086 89.1113 50.9086H89.0955Z" fill="white"/>
<path opacity="0.4" d="M96.4257 50.3095C114.317 41.9548 89.1744 35.9962 85.0129 31.9134C80.8513 27.8306 81.734 19.8858 87.9134 18.2464C91.9173 17.1745 95.5744 21.21 94.6129 22.5656C94.4868 22.739 93.8247 22.739 93.7774 22.2346C93.7459 22.14 93.7143 22.0454 93.667 21.9508C93.6355 21.9035 93.604 21.8563 93.5725 21.809C93.5409 21.7617 93.5094 21.7301 93.4779 21.6829C93.3518 21.541 93.2257 21.3991 93.0838 21.2572C93.0523 21.2257 93.0207 21.1942 92.9892 21.1784C92.5478 20.8316 92.0434 20.674 91.6336 20.6109C91.334 20.5794 90.735 20.6109 89.9469 21.0681C89.8207 21.1469 89.7104 21.2415 89.5843 21.3361C89.2533 21.7144 88.9695 22.5341 89.7892 24.1577C89.7892 24.1577 89.7892 24.1893 89.805 24.1893C89.8838 24.3311 89.9626 24.4572 90.0414 24.5991C90.073 24.6622 90.1202 24.7095 90.1518 24.7725C91.1291 26.1912 92.7843 27.3262 93.8877 27.9725C94.2503 28.1774 94.6129 28.3666 94.9912 28.5558H95.007C95.007 28.5558 113.151 35.4444 106.325 39.9843C106.325 39.9843 114.664 42.475 113.245 48.7962C113.245 48.7962 112.914 48.9853 107.996 49.6316C106.893 49.7735 110.108 49.6316 103.125 50.0257C93.4621 50.5774 96.4414 50.341 96.4414 50.341L96.4257 50.3095Z" fill="white"/>
<path d="M91.5055 64.538C92.3366 64.4495 92.8929 63.2759 92.7482 61.9168C92.6034 60.5576 91.8123 59.5276 90.9812 59.6161C90.1502 59.7046 89.5938 60.8782 89.7386 62.2373C89.8833 63.5965 90.6744 64.6265 91.5055 64.538Z" fill="#231F20"/>
<path d="M75.0701 65.6566C75.9011 65.5681 76.4575 64.3946 76.3127 63.0354C76.1679 61.6763 75.3769 60.6462 74.5458 60.7347C73.7147 60.8233 73.1584 61.9968 73.3031 63.356C73.4479 64.7151 74.239 65.7452 75.0701 65.6566Z" fill="#231F20"/>
<path d="M79.9685 69.3047C80.3311 71.4486 82.5222 72.8673 84.8395 72.4732C87.1567 72.0791 88.7488 70.0141 88.3705 67.8545L79.9528 69.3047H79.9685Z" fill="#231F20"/>
<path d="M84.0512 73.0407C81.797 73.0407 79.8266 71.5274 79.464 69.3835C79.4482 69.2574 79.464 69.1156 79.5428 69.0052C79.6216 68.8949 79.732 68.8318 79.8581 68.8003L88.2758 67.35C88.5596 67.3027 88.8118 67.4919 88.8591 67.7599C89.064 68.9422 88.7645 70.1244 88.0078 71.1175C87.2669 72.0949 86.1635 72.7412 84.9182 72.9619C84.6344 73.0091 84.3349 73.0407 84.0512 73.0407ZM80.5832 69.7146C81.1349 71.3067 82.9004 72.3156 84.7605 72.0003C85.7536 71.8269 86.6364 71.3067 87.2354 70.5343C87.7083 69.9195 87.9605 69.1944 87.9448 68.4535L80.5832 69.7146Z" fill="#231F20"/>
<path d="M48.6048 80.8371C48.7879 80.0127 47.8546 79.1042 46.5203 78.8079C45.1859 78.5116 43.9558 78.9397 43.7728 79.7641C43.5897 80.5885 44.523 81.497 45.8573 81.7933C47.1916 82.0896 48.4217 81.6615 48.6048 80.8371Z" fill="#231F20"/>
<path d="M54.4473 88.1263C53.1862 88.1263 52.067 87.5903 51.0896 86.5184L46.5024 80.9381C46.329 80.7174 46.3606 80.4022 46.5655 80.2288C46.7862 80.0554 47.1015 80.0869 47.2749 80.2918L51.8463 85.8564C52.666 86.7706 53.596 87.1963 54.6837 87.1174C58.2148 86.8652 61.9192 81.411 61.9665 81.3637C62.1241 81.1273 62.4394 81.0642 62.6601 81.2219C62.8965 81.3795 62.9596 81.6948 62.802 81.9155C62.6443 82.1519 58.7823 87.8268 54.7625 88.1263C54.6522 88.1263 54.5419 88.1263 54.4473 88.1263Z" fill="#231F20"/>
<path d="M121.38 81.669C122.224 81.6401 122.87 80.5093 122.824 79.1432C122.777 77.7772 122.055 76.6932 121.211 76.7221C120.367 76.751 119.721 77.8818 119.767 79.2478C119.814 80.6139 120.536 81.6979 121.38 81.669Z" fill="#231F20"/>
<path d="M114.396 87.5431C114.286 87.5431 114.191 87.5431 114.081 87.5431C110.061 87.2593 106.199 81.5845 106.041 81.348C105.884 81.1116 105.947 80.8121 106.183 80.6544C106.42 80.4968 106.719 80.5598 106.877 80.7963C106.908 80.8436 110.629 86.2978 114.16 86.55C115.231 86.613 116.162 86.219 117.013 85.2731L121.568 79.7244C121.742 79.5037 122.057 79.4722 122.278 79.6613C122.498 79.8347 122.53 80.15 122.341 80.3707L117.769 85.9352C116.792 87.0229 115.657 87.5746 114.396 87.5746V87.5431Z" fill="#231F20"/>
<path d="M30.8412 45.6117L1.68188 74.771L25.3236 98.4127L54.4829 69.2535L30.8412 45.6117Z" fill="white"/>
<path d="M54.1951 71.1961L52.5084 69.5252L52.7922 69.2414L52.5084 68.9577L54.1951 67.271L56.1498 69.2414L54.1951 71.1961Z" fill="#3EAFE4"/>
<path d="M29.3517 96.0396L27.665 94.3529L29.7301 92.2879L31.4168 93.9746L29.3517 96.0396ZM33.4976 91.9095L31.8109 90.2228L33.8759 88.1578L35.5626 89.8445L33.4976 91.9095ZM37.6276 87.7637L35.9409 86.077L38.0059 84.012L39.6926 85.6987L37.6276 87.7637ZM41.7734 83.6179L40.0867 81.9312L42.1517 79.8662L43.8384 81.5529L41.7734 83.6179ZM45.9192 79.4879L44.2325 77.8012L46.2976 75.7361L47.9843 77.4228L45.9192 79.4879ZM50.0493 75.3421L48.3626 73.6554L50.4276 71.5903L52.1143 73.277L50.0493 75.3421Z" fill="#3EAFE4"/>
<path d="M25.3163 100.075L23.3458 98.1203L25.0325 96.4336L25.3163 96.7173L25.6 96.4336L27.2867 98.1203L25.3163 100.075Z" fill="#3EAFE4"/>
<path d="M20.9813 95.7402L18.601 93.3599L20.2877 91.6732L22.668 94.0535L20.9813 95.7402ZM16.2207 90.9796L13.8404 88.5993L15.5271 86.9126L17.9074 89.2929L16.2207 90.9796ZM11.4758 86.2348L9.09555 83.8545L10.7823 82.1678L13.1625 84.5481L11.4758 86.2348ZM6.71526 81.4742L4.33496 79.0939L6.02166 77.4072L8.40196 79.7875L6.71526 81.4742Z" fill="#3EAFE4"/>
<path d="M1.95468 76.7293L0 74.7589L1.95468 72.8042L3.64138 74.4751L3.35764 74.7589L3.64138 75.0426L1.95468 76.7293Z" fill="#3EAFE4"/>
<path d="M5.70635 72.4102L4.01965 70.7235L6.08468 68.6585L7.77138 70.3452L5.70635 72.4102ZM9.85217 68.2644L8.16547 66.5777L10.2305 64.5127L11.9172 66.1994L9.85217 68.2644ZM13.998 64.1343L12.3113 62.4476L14.3763 60.3826L16.063 62.0693L13.998 64.1343ZM18.128 59.9885L16.4413 58.3018L18.5064 56.2368L20.1931 57.9235L18.128 59.9885ZM22.2738 55.8427L20.5871 54.156L22.6522 52.091L24.3389 53.7777L22.2738 55.8427ZM26.4197 51.7127L24.733 50.026L26.798 47.9609L28.4847 49.6476L26.4197 51.7127Z" fill="#3EAFE4"/>
<path d="M31.1172 47.5667L30.8335 47.2829L30.5655 47.5667L28.8788 45.88L30.8335 43.9253L32.8039 45.88L31.1172 47.5667Z" fill="#3EAFE4"/>
<path d="M50.1281 66.5776L47.7478 64.1973L49.4345 62.5106L51.8148 64.8909L50.1281 66.5776ZM45.3833 61.8328L43.003 59.4525L44.6897 57.7658L47.07 60.1461L45.3833 61.8328ZM40.6227 57.0722L38.2424 54.6919L39.9291 53.0052L42.3094 55.3855L40.6227 57.0722ZM35.8779 52.3116L33.4976 49.9313L35.1843 48.2446L37.5646 50.6249L35.8779 52.3116Z" fill="#3EAFE4"/>
<path d="M27.334 77.7224C28.6423 78.9362 30.6128 78.2268 31.8739 77.1549L27.8069 73.0721C25.3162 75.0584 22.3685 76.4455 19.9093 73.9549C17.4502 71.4643 18.3487 68.0121 20.4295 65.6475L19.1685 64.3864L20.2561 63.2988L21.5487 64.5914C23.8818 62.6682 27.129 61.8485 29.5409 64.1657L27.5231 66.1835C26.1359 64.9697 24.733 65.5214 23.4561 66.4988L27.2552 70.3135C30.0138 68.1539 32.8354 66.6091 35.6414 69.4308C38.1005 71.9056 36.9655 75.4997 34.8847 77.9746L36.1458 79.2357L35.0581 80.3234L33.8285 79.0781C31.3064 81.1746 27.8384 82.2308 25.2689 79.7559L27.3497 77.6909L27.334 77.7224ZM22.3684 67.6022C21.4069 68.7529 20.7133 70.5027 21.9901 71.7795C23.267 73.0564 24.7172 72.2052 26.0414 71.2909L22.3684 67.6022ZM32.9458 76.0515C33.9862 74.7273 34.8532 73.0091 33.4818 71.6061C32 70.1244 30.597 71.0859 29.0364 72.1106L32.9458 76.0515Z" fill="#3EAFE4"/>
</svg>
