<svg width="128" height="128" viewBox="0 0 128 128" fill="none" xmlns="http://www.w3.org/2000/svg">
<path d="M83.2958 68.7239C83.9014 68.7015 84.4061 69.4754 84.4397 70.4511C84.4397 70.6642 84.4285 70.8661 84.3949 71.0567L115.383 79.1878L128 31.0742L121.08 29.2574L120.598 31.0742L125.331 32.3191L124.703 34.708L115.585 71.539L112.007 73.625L108.642 75.5877L83.307 68.466L81.3555 67.9501L92.9409 23.8292L97.7859 25.0965L98.2682 23.2796L90.9558 21.3618L78.3386 69.4754L82.2752 70.5072C82.2528 69.5427 82.7014 68.7464 83.2958 68.7352V68.7239Z" fill="#C69C6D"/>
<path d="M113.342 72.0437L108.239 75.0382L108.25 75.0045L83.3184 68.466L108.654 75.5877L112.018 73.625L115.596 71.5502L124.714 34.7192L115.203 70.967L113.342 72.0437Z" fill="#998675"/>
<path d="M118.131 32.7565L99.1207 27.7208C98.0777 27.4404 97.4497 26.3638 97.73 25.3207L97.7861 25.0964L92.9411 23.8291L81.3669 67.95L83.3184 68.4659L108.25 75.0044L109.663 69.4977L115.203 70.9669L113.353 72.0548L115.215 70.9669L124.725 34.7191L125.353 32.3303L120.62 31.0854L120.553 31.3546C120.273 32.3976 119.196 33.0256 118.153 32.7452L118.131 32.7565ZM121.944 38.1959L95.5318 66.3126C95.1842 66.6827 94.7131 66.8846 94.2084 66.8846C94.1187 66.8846 94.0402 66.8846 93.9505 66.8621C93.3673 66.7836 92.8626 66.4135 92.5934 65.8864L87.3447 55.5235C86.8961 54.6375 87.2437 53.5384 88.141 53.0898C89.027 52.6412 90.1261 52.9888 90.5747 53.8861L94.657 61.9498L119.297 35.7173C119.981 34.9883 121.125 34.9547 121.854 35.6388C122.583 36.3229 122.617 37.4669 121.933 38.1959H121.944Z" fill="white"/>
<path d="M97.73 25.3318L120.531 31.3657L120.598 31.0965L121.08 29.2796L121.204 28.831C121.484 27.788 120.856 26.7113 119.813 26.4309L117.525 25.8253V25.8029C116.246 25.6459 116.897 23.571 116.101 23.358L106.332 20.7112C105.603 20.5205 104.997 22.1131 103.708 22.1579L100.792 21.3841C99.7487 21.1037 98.6721 21.7317 98.3917 22.7748L98.2571 23.2795L97.7748 25.0963L97.7188 25.3206L97.73 25.3318ZM109.641 23.1449C109.753 22.7187 110.19 22.4607 110.616 22.5729C111.043 22.685 111.3 23.1224 111.188 23.5486C111.076 23.9748 110.639 24.2328 110.213 24.1206C109.786 24.0084 109.528 23.571 109.641 23.1449Z" fill="#999999"/>
<path d="M113.342 72.0434L115.203 70.9668L109.663 69.4976L108.25 75.0043L108.239 75.0379L113.342 72.0434Z" fill="#E6E6E6"/>
<path d="M99.1206 27.7209L118.131 32.7565C119.174 33.0369 120.25 32.4089 120.531 31.3659L97.7299 25.332C97.4495 26.3751 98.0776 27.4517 99.1206 27.7321V27.7209Z" fill="#808080"/>
<g opacity="0.3" style="mix-blend-mode:multiply">
<path d="M64.286 101.932C64.4654 102.504 63.8598 103.211 62.9289 103.503C61.998 103.794 61.0896 103.57 60.9102 102.998C60.7307 102.426 61.3363 101.719 62.2672 101.428C62.4915 101.36 62.727 101.316 62.9401 101.304C62.9177 101.226 62.8953 101.147 62.884 101.069C60.8317 101.035 58.712 101.024 56.5586 101.024C55.1455 101.024 53.7548 101.024 52.3865 101.046C52.5772 101.159 52.7118 101.293 52.7679 101.484C52.9473 102.056 52.3417 102.762 51.4108 103.054C50.4799 103.345 49.5827 103.121 49.3921 102.549C49.2238 102.022 49.7173 101.394 50.5136 101.069C32.9953 101.316 19.6267 102.605 19.6267 104.164C19.6267 105.903 36.158 107.304 56.5586 107.304C76.9592 107.304 93.4906 105.903 93.4906 104.164C93.4906 102.639 80.6378 101.36 63.6243 101.08C63.6467 101.192 63.6803 101.293 63.714 101.405C63.9944 101.506 64.2075 101.686 64.286 101.932Z" fill="#4D4D4F"/>
</g>
<path d="M119.308 35.717L94.6682 61.9495L90.5859 53.8857C90.1373 52.9885 89.0382 52.6408 88.1521 53.0895C87.2549 53.5381 86.9073 54.6259 87.3559 55.5232L92.6046 65.8861C92.8738 66.4132 93.3785 66.7721 93.9617 66.8618C94.0514 66.873 94.1299 66.8843 94.2196 66.8843C94.7131 66.8843 95.1954 66.6824 95.543 66.3123L121.955 38.1956C122.639 37.4666 122.605 36.3226 121.877 35.6385C121.148 34.9543 120.004 34.988 119.319 35.717H119.308Z" fill="#00A9E7"/>
<path d="M62.884 101.069C62.9065 101.147 62.9289 101.226 62.9401 101.304C62.727 101.315 62.5027 101.36 62.2672 101.427C61.3363 101.719 60.7307 102.426 60.9101 102.998C61.0896 103.57 61.998 103.794 62.9289 103.502C63.8598 103.211 64.4654 102.504 64.2859 101.932C64.2074 101.685 63.9943 101.517 63.714 101.405C63.6803 101.293 63.6579 101.192 63.6242 101.08C62.8055 97.7376 63.7476 94.8665 63.7588 94.8328L63.3214 94.687C63.2317 94.687 63.1308 94.6982 63.041 94.7094C62.8728 95.259 62.155 97.917 62.8728 101.069H62.884Z" fill="#231F20"/>
<path d="M49.392 102.549C49.5714 103.121 50.4799 103.345 51.4107 103.054C52.3416 102.762 52.9472 102.055 52.7678 101.483C52.7117 101.304 52.5659 101.158 52.3865 101.046C52.3304 101.012 52.2743 100.99 52.207 100.956C51.5677 98.1413 52.1509 94.9001 52.2407 94.4066C52.0051 94.373 51.7584 94.3505 51.5229 94.3169C51.3995 94.9562 50.8612 98.0067 51.4444 100.844C51.2201 100.844 50.9846 100.9 50.749 100.968C50.6705 100.99 50.592 101.024 50.5135 101.057C49.7172 101.383 49.2238 102.011 49.392 102.538V102.549Z" fill="#231F20"/>
<path d="M34.3862 47.8183C34.3862 47.8183 34.3525 47.7959 34.3413 47.7847V47.8071L39.3545 74.006C39.3545 74.006 39.377 73.9836 39.3882 73.9723L34.3862 47.8183Z" fill="#DF5551"/>
<path d="M72.4508 72.021C72.3387 71.8528 72.3835 71.6285 72.5518 71.5163C72.72 71.4042 72.9331 71.449 73.0564 71.6173C73.0564 71.6285 73.4938 72.2677 74.1668 73.0304L77.8678 49.5344L78.0024 48.5923C75.9051 50.0278 66.9553 50.3082 60.372 50.3082C58.757 50.3082 57.2878 50.297 56.0989 50.2746C51.624 50.1961 45.8706 49.9157 41.3621 49.3998L47.8221 93.5768C47.2613 93.4086 42.2481 92.4328 42.1471 90.4365C42.1471 90.4701 42.1247 90.5038 42.1247 90.5486C42.1583 92.0964 46.0613 93.5768 51.5455 94.3394C51.7811 94.3731 52.0166 94.4067 52.2633 94.4291C53.7549 94.6086 55.3363 94.7432 56.9962 94.8105C59.1719 94.9002 61.2243 94.8553 63.0748 94.7207C63.1758 94.7207 63.2655 94.7095 63.3552 94.6983C68.3236 94.3058 71.7555 93.1842 71.733 91.7263C71.733 91.4571 71.5985 91.1879 71.3629 90.9188L74.0322 73.95C73.1237 72.9967 72.5181 72.1107 72.462 72.0322L72.4508 72.021ZM50.3231 60.8169C49.7287 60.8842 49.1567 60.144 49.0557 59.1795C48.9548 58.215 49.3473 57.3738 49.9417 57.3066C50.5362 57.2393 51.1081 57.9795 51.2091 58.944C51.31 59.9085 50.9175 60.7497 50.3231 60.8169ZM57.3663 66.0657C57.1644 66.0993 56.9513 66.1218 56.7494 66.1218C55.1456 66.1218 53.7325 65.0451 53.4746 63.5086C53.4633 63.4189 53.4746 63.3179 53.5306 63.2394C53.5867 63.1609 53.6652 63.1049 53.7662 63.0936L59.7775 62.0618C59.8673 62.0506 59.9682 62.0618 60.0467 62.1179C60.1252 62.174 60.1813 62.2525 60.1925 62.3534C60.4841 64.0806 59.228 65.7404 57.3775 66.0657H57.3663ZM62.0543 60.0207C61.4598 60.0879 60.8879 59.3477 60.7869 58.3832C60.686 57.4187 61.0785 56.5776 61.6729 56.5103C62.2673 56.443 62.8393 57.1832 62.9403 58.1477C63.0412 59.1122 62.6487 59.9534 62.0543 60.0207Z" fill="#DF5551"/>
<path d="M39.5563 74.8135C39.5563 74.8135 39.5339 74.8359 39.5227 74.8471L42.3714 89.7298C42.3714 89.7298 42.3938 89.6961 42.405 89.6737L39.5676 74.8022L39.5563 74.8135Z" fill="#DF5551"/>
<g opacity="0.2" style="mix-blend-mode:multiply">
<path d="M34.6328 47.1345C34.6328 47.1345 34.588 47.1233 34.5656 47.1121C34.5207 47.1009 34.4983 47.1121 34.4758 47.1233L34.6889 47.2467C34.6889 47.2467 34.6553 47.1681 34.6328 47.1345Z" fill="#A32035"/>
</g>
<g opacity="0.2" style="mix-blend-mode:multiply">
<path d="M42.36 89.7412C42.203 89.9543 42.1133 90.1674 42.1133 90.3917C42.1133 90.4029 42.1133 90.4141 42.1133 90.4253C42.1357 90.2235 42.2142 90.0216 42.3712 89.8309L42.3488 89.7412H42.36Z" fill="#A32035"/>
</g>
<path d="M47.7995 93.5767L41.3395 49.3997C37.9525 49.0072 35.2832 48.4913 34.3972 47.8184L39.3992 73.9724C40.3301 72.9967 40.9694 72.0658 40.9806 72.0546C41.0927 71.8864 41.317 71.8527 41.4853 71.9536C41.6535 72.0658 41.6984 72.2901 41.5862 72.4583C41.5301 72.5481 40.7226 73.7144 39.5675 74.836L42.4049 89.7074C42.4049 89.7074 42.3825 89.7411 42.3713 89.7635L42.3937 89.8532C42.2367 90.0439 42.1582 90.2458 42.1358 90.4476C42.2367 92.4552 47.2499 93.4309 47.8107 93.5879L47.7995 93.5767Z" fill="#DF5551"/>
<g opacity="0.2" style="mix-blend-mode:multiply">
<path d="M47.7995 93.5767L41.3395 49.3997C37.9525 49.0072 35.2832 48.4913 34.3972 47.8184L39.3992 73.9724C40.3301 72.9967 40.9694 72.0658 40.9806 72.0546C41.0927 71.8864 41.317 71.8527 41.4853 71.9536C41.6535 72.0658 41.6984 72.2901 41.5862 72.4583C41.5301 72.5481 40.7226 73.7144 39.5675 74.836L42.4049 89.7074C42.4049 89.7074 42.3825 89.7411 42.3713 89.7635L42.3937 89.8532C42.2367 90.0439 42.1582 90.2458 42.1358 90.4476C42.2367 92.4552 47.2499 93.4309 47.8107 93.5879L47.7995 93.5767Z" fill="#A32035"/>
</g>
<path d="M63.7477 29.9524C63.7477 29.9524 63.6916 29.8739 63.6804 29.8066C63.6804 29.8627 63.7141 29.9076 63.7477 29.9524Z" fill="#B7A59C"/>
<path d="M34.7112 47.2579C34.7112 47.2579 34.7112 47.2131 34.7112 47.2018C35.115 48.0542 43.4367 49.3664 56.0763 49.5795C60.0465 49.6468 63.4111 49.6131 66.2486 49.5234C77.6433 43.7363 60.3381 39.5755 57.4109 36.7268C54.4277 33.8108 55.067 28.1359 59.4858 26.9583C62.3232 26.1956 64.9252 29.0331 64.2747 30.02C64.4541 29.9191 64.6224 29.6836 64.6784 29.235C64.6784 29.2238 64.6784 29.2125 64.6784 29.2013C65.0822 27.0368 61.998 25.6236 60.2708 25.3881C58.9699 25.2199 56.166 25.2311 53.7884 27.048C50.6145 29.4705 48.9883 35.1454 37.773 40.9774C34.4308 42.7157 34.0271 45.8112 34.6215 47.1121C34.6439 47.157 34.6551 47.1906 34.6776 47.2243H34.7112V47.2579Z" fill="#B7A59C"/>
<path d="M41.3395 49.3888C45.848 49.9047 51.6015 50.1851 56.0764 50.2636C57.2652 50.286 58.7344 50.2972 60.3494 50.2972C66.9328 50.2972 75.8826 50.0168 77.9798 48.5813C78.2714 48.3794 78.4284 48.1663 78.4396 47.9196H77.7555C77.7555 47.9196 77.7219 48.0093 77.677 48.0654C77.6658 48.2897 77.6321 48.5252 77.5761 48.7719C77.5761 48.7719 77.3405 48.9065 73.8302 49.3663C73.0451 49.4673 75.3442 49.3663 70.3422 49.6467C63.4448 50.0393 65.5757 49.871 65.5757 49.871C65.8224 49.7589 66.0355 49.6467 66.2598 49.5346C63.4224 49.6243 60.0466 49.6579 56.0876 49.5907C43.448 49.3776 35.115 48.0542 34.7225 47.213C34.7225 47.2242 34.7225 47.2579 34.7225 47.2691H34.6888L34.4757 47.1345L34.1281 46.9438C34.0159 47.1457 34.0271 47.3588 34.1281 47.5607C34.1729 47.6392 34.2514 47.7177 34.3412 47.785C34.3524 47.7962 34.3748 47.8074 34.386 47.8186C35.272 48.4803 37.9413 49.0075 41.3283 49.4L41.3395 49.3888Z" fill="white"/>
<path opacity="0.4" d="M63.7475 29.9526C63.8821 30.1545 64.2074 30.1545 64.2859 30.0423C64.2859 30.0423 64.2859 30.0311 64.2859 30.0199C64.0728 30.1321 63.8485 30.076 63.7363 29.9414L63.7475 29.9526Z" fill="white"/>
<path d="M59.4969 26.9694C55.0781 28.147 54.4389 33.8219 57.4221 36.7379C60.3493 39.5978 77.6657 43.7475 66.2598 49.5346C73.4375 49.299 77.1049 48.6598 77.6769 48.0766C77.9685 44.0839 72.63 42.4914 72.63 42.4914C77.4975 39.2389 64.5438 34.3266 64.5438 34.3266C64.5438 34.3266 64.5438 34.3266 64.5326 34.3266C64.2634 34.1808 64.0055 34.0463 63.7475 33.9005C62.9625 33.4406 61.7736 32.6331 61.0783 31.6238C61.0559 31.5789 61.0222 31.5452 60.9998 31.5004C60.9437 31.3994 60.8764 31.3097 60.8316 31.2088C60.8316 31.2088 60.8316 31.1864 60.8203 31.1864C60.2372 30.0312 60.439 29.448 60.6745 29.1788C60.7643 29.1115 60.854 29.0442 60.9325 28.9882C61.4933 28.6517 61.9194 28.6405 62.1325 28.6629C62.4241 28.7078 62.783 28.8199 63.097 29.0667C63.1195 29.0891 63.1419 29.1115 63.1643 29.1227C63.2653 29.2237 63.3662 29.3246 63.4447 29.4256C63.4672 29.4592 63.4896 29.4929 63.512 29.5153C63.5344 29.5489 63.5569 29.5826 63.5793 29.6162C63.613 29.6835 63.6354 29.7508 63.6578 29.8181C63.6578 29.8854 63.6915 29.919 63.7251 29.9639C63.8373 30.0985 64.0616 30.1546 64.2747 30.0424C64.9251 29.0555 62.3232 26.218 59.4857 26.9806L59.4969 26.9694Z" fill="#B7A59C"/>
<path opacity="0.4" d="M59.4969 26.9694C55.0781 28.147 54.4389 33.8219 57.4221 36.7379C60.3493 39.5978 77.6657 43.7475 66.2598 49.5346C73.4375 49.299 77.1049 48.6598 77.6769 48.0766C77.9685 44.0839 72.63 42.4914 72.63 42.4914C77.4975 39.2389 64.5438 34.3266 64.5438 34.3266C64.5438 34.3266 64.5438 34.3266 64.5326 34.3266C64.2634 34.1808 64.0055 34.0463 63.7475 33.9005C62.9625 33.4406 61.7736 32.6331 61.0783 31.6238C61.0559 31.5789 61.0222 31.5452 60.9998 31.5004C60.9437 31.3994 60.8764 31.3097 60.8316 31.2088C60.8316 31.2088 60.8316 31.1864 60.8203 31.1864C60.2372 30.0312 60.439 29.448 60.6745 29.1788C60.7643 29.1115 60.854 29.0442 60.9325 28.9882C61.4933 28.6517 61.9194 28.6405 62.1325 28.6629C62.4241 28.7078 62.783 28.8199 63.097 29.0667C63.1195 29.0891 63.1419 29.1115 63.1643 29.1227C63.2653 29.2237 63.3662 29.3246 63.4447 29.4256C63.4672 29.4592 63.4896 29.4929 63.512 29.5153C63.5344 29.5489 63.5569 29.5826 63.5793 29.6162C63.613 29.6835 63.6354 29.7508 63.6578 29.8181C63.6578 29.8854 63.6915 29.919 63.7251 29.9639C63.8373 30.0985 64.0616 30.1546 64.2747 30.0424C64.9251 29.0555 62.3232 26.218 59.4857 26.9806L59.4969 26.9694Z" fill="white"/>
<path d="M66.2598 49.5346C66.0355 49.6468 65.8224 49.7589 65.5757 49.8711C65.5757 49.8711 63.4448 50.0393 70.3422 49.6468C75.333 49.3664 73.0339 49.4673 73.8301 49.3664C77.3405 48.9066 77.576 48.772 77.576 48.772C77.6321 48.5253 77.6546 48.301 77.677 48.0654C77.105 48.6486 73.4376 49.2879 66.2598 49.5234V49.5346Z" fill="white"/>
<path opacity="0.4" d="M66.2598 49.5346C66.0355 49.6468 65.8224 49.7589 65.5757 49.8711C65.5757 49.8711 63.4448 50.0393 70.3422 49.6468C75.333 49.3664 73.0339 49.4673 73.8301 49.3664C77.3405 48.9066 77.576 48.772 77.576 48.772C77.6321 48.5253 77.6546 48.301 77.677 48.0654C77.105 48.6486 73.4376 49.2879 66.2598 49.5234V49.5346Z" fill="white"/>
<path d="M61.684 56.5101C61.0896 56.5774 60.6859 57.4073 60.798 58.3831C60.899 59.3476 61.4709 60.0878 62.0654 60.0205C62.6598 59.9532 63.0635 59.1233 62.9514 58.1475C62.8504 57.183 62.2784 56.4428 61.684 56.5101Z" fill="#231F20"/>
<path d="M49.9528 57.3178C49.3584 57.3851 48.9547 58.215 49.0668 59.1907C49.1678 60.1552 49.7397 60.8955 50.3342 60.8282C50.9286 60.7609 51.3323 59.9309 51.2202 58.9552C51.108 57.9795 50.5472 57.2505 49.9528 57.3178Z" fill="#231F20"/>
<path d="M60.0353 62.1291C59.9568 62.073 59.8671 62.0506 59.7662 62.073L53.7548 63.1049C53.6651 63.1161 53.5753 63.1721 53.5193 63.2507C53.4632 63.3292 53.4408 63.4189 53.4632 63.5198C53.7211 65.0563 55.1343 66.133 56.738 66.133C56.9399 66.133 57.153 66.1218 57.3549 66.0769C59.2054 65.7629 60.4727 64.0918 60.1699 62.3646C60.1587 62.2749 60.1026 62.1852 60.0241 62.1291H60.0353Z" fill="#231F20"/>
<path d="M41.5638 72.4472C41.676 72.2789 41.6311 72.0546 41.4629 71.9425C41.2946 71.8303 41.0816 71.8752 40.9582 72.0434C40.947 72.0659 40.3077 72.9967 39.3768 73.9612C39.3656 73.9725 39.3544 73.9837 39.3432 73.9949C38.3562 75.0155 37.044 76.0585 35.7655 76.1482C35.0029 76.2043 34.33 75.9015 33.7355 75.251L31.1448 72.0883C31.2794 71.9761 31.3803 71.8416 31.414 71.6733C31.5486 71.0901 30.8756 70.4396 29.9223 70.2266C29.5859 70.148 29.2494 70.148 28.9578 70.1929L28.1055 71.0453L28.655 71.5948L28.3971 71.8528C28.6662 72.0771 29.0251 72.2565 29.4513 72.3575C29.8102 72.436 30.1579 72.4472 30.4607 72.3911L33.1972 75.722C33.8926 76.4847 34.6888 76.8772 35.5973 76.8772C35.6758 76.8772 35.7543 76.8772 35.8328 76.8772C37.1786 76.7763 38.4908 75.8454 39.5226 74.8585C39.5338 74.8473 39.5451 74.836 39.5563 74.8248C40.7114 73.7145 41.5077 72.5369 41.575 72.4472H41.5638Z" fill="#231F20"/>
<path d="M72.5516 71.5274C72.3833 71.6396 72.3385 71.8639 72.4506 72.0321C72.5067 72.1106 73.1123 72.9966 74.0208 73.9499C75.1086 75.0939 76.6339 76.35 78.2041 76.4621C78.2826 76.4621 78.3611 76.4621 78.4396 76.4621C79.3368 76.4621 80.1443 76.0696 80.8509 75.2958L83.3519 72.2452C83.3519 72.2452 83.408 72.2564 83.4304 72.2452C83.9014 72.234 84.2828 71.7293 84.4061 71.0452C84.4398 70.8545 84.4622 70.6526 84.451 70.4395C84.4173 69.4638 83.9014 68.69 83.307 68.7124C82.7126 68.7348 82.2528 69.5311 82.2864 70.4844C82.2864 70.4844 82.2864 70.5068 82.2864 70.518C82.3089 71.0676 82.4771 71.5499 82.735 71.8639L80.3125 74.8135C79.7069 75.4752 79.0564 75.778 78.2714 75.7219C76.7573 75.6098 75.1984 74.163 74.189 73.0191C73.5161 72.2564 73.0899 71.6284 73.0787 71.6059C72.9665 71.4377 72.7422 71.4041 72.574 71.505L72.5516 71.5274Z" fill="#231F20"/>
<path d="M27.5671 70.5072L28.1167 71.0568L28.969 70.2044L29.4625 69.7109L28.913 69.1614L30.27 67.8043L30.8196 68.3539L32.1766 66.9968L31.6271 66.4473L32.9841 65.0903L33.5337 65.6398L34.8907 64.2828L34.3412 63.7332L34.5206 63.5538L34.3412 63.3743L34.8907 62.8248L33.3318 61.2658L32.7822 61.8154L31.2233 60.2565L31.7729 59.7069L30.2139 58.148L29.6644 58.6975L28.1167 57.1386L28.6662 56.5891L27.1073 55.0301L26.5578 55.5797L24.9988 54.0208L25.5484 53.4712L24.0007 51.9235L23.4511 52.4731L21.8922 50.9141L22.4417 50.3646L20.8828 48.8057L20.3333 49.3552L20.1538 49.1758L19.9744 49.3552L19.4248 48.8057L18.0678 50.1627L18.6173 50.7123L17.2603 52.0693L16.7107 51.5198L15.3537 52.8768L15.9032 53.4264L14.5462 54.7834L13.9966 54.2339L12.6396 55.5909L13.1891 56.1405L11.8321 57.4975L11.2825 56.948L9.9255 58.305L10.475 58.8546L9.118 60.2116L8.56845 59.6621L7.2114 61.0191L7.76095 61.5687L6.4039 62.9257L5.85435 62.3762L4.4973 63.7332L5.04685 64.2828L3.6898 65.6398L3.14025 65.0903L1.7832 66.4473L2.33275 66.9968L2.15331 67.1763L2.33275 67.3557L1.7832 67.9053L3.34213 69.4642L3.89168 68.9147L5.43938 70.4624L4.88984 71.0119L6.44876 72.5708L6.99831 72.0213L8.55723 73.5802L8.00768 74.1298L9.55539 75.6775L10.1049 75.1279L11.6639 76.6868L11.1143 77.2364L12.662 78.7841L13.2116 78.2346L14.7705 79.7935L14.2209 80.343L15.7687 81.8907L16.3182 81.3412L16.4977 81.5206L16.6771 81.3412L17.2266 81.8907L18.5837 80.5337L18.0341 79.9841L19.3912 78.6271L19.9407 79.1766L21.2978 77.8196L20.7482 77.27L22.1053 75.913L22.6548 76.4625L24.0119 75.1055L23.4623 74.5559L24.8194 73.1989L25.3689 73.7484L26.726 72.3914L26.1764 71.8418L27.5335 70.4848L27.5671 70.5072ZM23.6194 70.1147L22.9016 70.8213L22.0941 70.0138C20.4454 71.3932 18.1799 72.0774 16.5089 70.4624L17.8659 69.1053C18.7183 69.8904 20.008 69.4418 20.8267 68.7352L18.1687 66.066C16.5425 67.367 14.6135 68.2754 12.9985 66.6492C11.3723 65.0117 11.9779 62.7687 13.3349 61.221L12.5162 60.391L13.234 59.6845L14.0752 60.5368C15.6004 59.2807 17.7201 58.7424 19.3015 60.2565L17.9781 61.5687C17.0696 60.7836 16.15 61.1425 15.32 61.7817L17.8098 64.2828C19.6155 62.8696 21.4548 61.8603 23.2941 63.6996C24.8979 65.3146 24.1577 67.6698 22.8006 69.2848L23.6194 70.1147Z" fill="white"/>
<path d="M14.3669 65.2248C15.1856 66.0547 16.1389 65.5052 17.0137 64.8996L14.6136 62.4883C13.9856 63.2397 13.5369 64.3837 14.3669 65.2248Z" fill="white"/>
<path d="M18.9763 65.449L21.5334 68.0173C22.2175 67.1426 22.7895 66.021 21.8811 65.1126C20.9166 64.1481 19.9969 64.7649 18.9763 65.449Z" fill="white"/>
<path d="M34.5095 63.5647L34.3301 63.7441L34.8796 64.2937L35.4292 64.8432L36.7077 63.5647L35.4292 62.2749L34.8796 62.8245L34.3301 63.374L34.5095 63.5647Z" fill="#3EAFE4"/>
<path d="M28.1168 71.0564L27.5673 70.5068L26.2102 71.8639L26.7598 72.4134L27.3093 72.963L28.4084 71.8639L28.6664 71.6059L28.1168 71.0564Z" fill="#3EAFE4"/>
<path d="M28.9131 69.1612L29.4626 69.7108L30.0122 70.2603L31.3692 68.9033L30.8197 68.3537L30.2701 67.8042L28.9131 69.1612Z" fill="#3EAFE4"/>
<path d="M18.0903 79.984L18.6399 80.5335L19.1894 81.0831L20.5465 79.7261L19.9969 79.1765L19.4362 78.627L18.0903 79.984Z" fill="#3EAFE4"/>
<path d="M31.616 66.4469L32.1655 66.9965L32.7151 67.546L34.0721 66.2002L33.5226 65.6506L32.973 65.1011L31.616 66.4469Z" fill="#3EAFE4"/>
<path d="M23.5073 74.567L24.0569 75.1166L24.6064 75.6661L25.9523 74.3203L25.4027 73.7707L24.8532 73.2212L23.5073 74.567Z" fill="#3EAFE4"/>
<path d="M20.7932 77.2809L21.3428 77.8304L21.8923 78.38L23.2494 77.0229L22.6998 76.4734L22.1503 75.9238L20.7932 77.2809Z" fill="#3EAFE4"/>
<path d="M16.5537 81.5203L16.363 81.3408L15.8135 81.8904L15.2639 82.4399L16.5537 83.7185L17.8322 82.4399L17.2827 81.8904L16.7331 81.3408L16.5537 81.5203Z" fill="#3EAFE4"/>
<path d="M3.9365 68.9033L3.38695 69.4529L2.8374 70.0024L4.39633 71.5613L4.94587 71.0118L5.49542 70.4622L3.9365 68.9033Z" fill="#3EAFE4"/>
<path d="M13.2566 78.2344L12.707 78.7839L12.1575 79.3335L13.7164 80.8812L14.2659 80.3316L14.8155 79.7821L13.2566 78.2344Z" fill="#3EAFE4"/>
<path d="M10.1499 75.1279L9.60033 75.6775L9.05078 76.227L10.6097 77.7747L11.1593 77.2252L11.7088 76.6756L10.1499 75.1279Z" fill="#3EAFE4"/>
<path d="M7.04319 72.0098L6.49364 72.5593L5.94409 73.1201L7.50302 74.6678L8.05256 74.1182L8.60211 73.5687L7.04319 72.0098Z" fill="#3EAFE4"/>
<path d="M2.1982 67.1648L2.38885 66.9853L1.83931 66.4358L1.28976 65.8862L0 67.1648L1.28976 68.4545L1.83931 67.905L2.38885 67.3554L2.1982 67.1648Z" fill="#3EAFE4"/>
<path d="M13.2115 56.1626L12.662 55.613L12.1124 55.0635L10.7554 56.4093L11.3049 56.9589L11.8545 57.5084L13.2115 56.1626Z" fill="#3EAFE4"/>
<path d="M10.5086 58.8657L9.95909 58.3162L9.40954 57.7666L8.05249 59.1236L8.60204 59.6732L9.15159 60.2228L10.5086 58.8657Z" fill="#3EAFE4"/>
<path d="M7.79454 61.5683L7.24499 61.0188L6.69544 60.4692L5.34961 61.8263L5.89916 62.3758L6.44871 62.9254L7.79454 61.5683Z" fill="#3EAFE4"/>
<path d="M18.6285 50.7456L18.079 50.196L17.5182 49.6465L16.1724 51.0035L16.7219 51.5531L17.2715 52.1026L18.6285 50.7456Z" fill="#3EAFE4"/>
<path d="M5.09164 64.2827L4.5421 63.7331L3.99255 63.1836L2.6355 64.5294L3.18505 65.079L3.7346 65.6285L5.09164 64.2827Z" fill="#3EAFE4"/>
<path d="M15.9144 53.4487L15.3649 52.8992L14.8153 52.3496L13.4695 53.7067L14.019 54.2562L14.5686 54.8058L15.9144 53.4487Z" fill="#3EAFE4"/>
<path d="M20.165 49.2089L20.3444 49.3996L20.894 48.8388L21.4435 48.2893L20.165 47.0107L18.8752 48.2893L19.4248 48.8388L19.9743 49.3884L20.165 49.2089Z" fill="#3EAFE4"/>
<path d="M23.4513 52.5067L24.0008 51.9571L24.5504 51.4076L22.9914 49.8486L22.4419 50.3982L21.8923 50.9477L23.4513 52.5067Z" fill="#3EAFE4"/>
<path d="M29.6644 58.7195L30.214 58.17L30.7635 57.6204L29.2158 56.0615L28.6662 56.6111L28.1167 57.1606L29.6644 58.7195Z" fill="#3EAFE4"/>
<path d="M26.5577 55.6131L27.1073 55.0635L27.6568 54.514L26.1091 52.9551L25.5595 53.5046L24.9988 54.0542L26.5577 55.6131Z" fill="#3EAFE4"/>
<path d="M32.7711 61.8265L33.3206 61.2769L33.8702 60.7274L32.3225 59.1685L31.7729 59.718L31.2234 60.2676L32.7711 61.8265Z" fill="#3EAFE4"/>
<path d="M23.3054 63.6993C21.4661 61.86 19.6268 62.8694 17.8211 64.2825L15.3313 61.7815C16.1725 61.1423 17.0921 60.7834 17.9894 61.5684L19.3128 60.2562C17.7314 58.7422 15.6117 59.2805 14.0864 60.5366L13.2453 59.6843L12.5275 60.3908L13.3462 61.2208C11.9892 62.7685 11.3723 65.0115 13.0098 66.649C14.6248 68.2752 16.5538 67.3667 18.18 66.0658L20.838 68.735C20.0081 69.4303 18.7296 69.8902 17.8772 69.1051L16.5202 70.4621C18.2025 72.0772 20.4567 71.393 22.1054 70.0135L22.9129 70.821L23.6306 70.1145L22.8119 69.2845C24.169 67.6695 24.9092 65.3143 23.3054 63.6993ZM14.3668 65.2246C13.5369 64.3835 13.9855 63.2395 14.6136 62.4881L17.0136 64.8994C16.1388 65.505 15.1855 66.0433 14.3668 65.2246ZM21.5334 68.0172L18.9763 65.4489C19.9969 64.776 20.9165 64.1479 21.8811 65.1125C22.7895 66.0209 22.2175 67.1424 21.5334 68.0172Z" fill="#3EAFE4"/>
</svg>
