<svg width="128" height="128" viewBox="0 0 128 128" fill="none" xmlns="http://www.w3.org/2000/svg">
<path d="M66.4377 127.997C80.6276 127.997 92.1308 126.194 92.1308 123.971C92.1308 121.747 80.6276 119.945 66.4377 119.945C52.2478 119.945 40.7446 121.747 40.7446 123.971C40.7446 126.194 52.2478 127.997 66.4377 127.997Z" fill="#CCCBCB"/>
<path d="M76.816 121.785L75.6831 121.442C77.4432 115.534 75.7033 110.274 75.6831 110.213L76.7958 109.829C76.8767 110.052 78.657 115.494 76.7958 121.765L76.816 121.785Z" fill="#211E1F"/>
<path d="M80.4034 123.762C80.7031 122.814 79.6937 121.65 78.1489 121.161C76.6042 120.673 75.1089 121.046 74.8092 121.994C74.5095 122.942 75.5189 124.107 77.0637 124.595C78.6085 125.083 80.1037 124.71 80.4034 123.762Z" fill="#211E1F"/>
<path d="M55.5333 121.968C54.1576 116.566 55.4726 110.376 55.5333 110.113L56.6865 110.356C56.6865 110.356 55.3715 116.546 56.6865 121.665L55.5536 121.948L55.5333 121.968Z" fill="#211E1F"/>
<path d="M55.2881 124.774C56.833 124.286 57.8426 123.122 57.543 122.174C57.2435 121.226 55.7483 120.853 54.2035 121.341C52.6586 121.829 51.6491 122.993 51.9486 123.941C52.2481 124.889 53.7433 125.262 55.2881 124.774Z" fill="#211E1F"/>
<path d="M99.9804 38.5161C99.9804 38.5161 99.6971 38.5363 99.3734 38.5768C98.6856 38.6375 97.411 38.7386 95.7117 38.86H95.6914C92.3736 39.1028 87.3766 39.4265 81.4288 39.649C69.1689 40.0941 52.8832 40.1548 39.0251 38.334C38.6609 38.2935 38.317 38.2329 37.9731 38.1722C37.791 38.1519 37.6089 38.1317 37.4269 38.1115C34.2911 37.6462 31.2969 37.0999 28.5253 36.4121C28.4646 36.4121 28.4039 36.4121 28.3432 36.3716C28.2421 36.3514 28.1612 36.3312 28.0802 36.3109C27.9791 36.2907 27.9184 36.2907 27.8577 36.3514C27.8172 36.3716 27.7768 36.4323 27.7566 36.493C27.6756 36.6751 27.6959 36.9583 27.7161 37.1606V37.2213L34.5339 72.8274L34.7766 74.0817L36.2332 81.7694L36.5165 83.1856L41.0279 106.815C40.7245 107.179 40.5626 107.584 40.5829 107.988C40.5829 108.11 40.5829 108.231 40.6233 108.353C41.0886 110.153 44.6492 111.873 49.9699 113.127C51.5075 113.491 53.2068 113.815 55.0276 114.078C55.3918 114.159 55.7762 114.199 56.1808 114.24C58.9726 114.644 62.0275 114.907 65.2037 115.049C69.2498 115.211 73.0735 115.11 76.4318 114.806C76.8364 114.806 77.241 114.746 77.6254 114.705C84.8275 113.916 89.6424 112.156 89.602 109.931C89.602 109.486 89.3794 109.04 88.9951 108.616L91.7262 91.2172L92.5759 85.856L92.6366 85.4717L92.7377 84.8647L92.9198 83.6509L93.1424 82.3157C92.7984 82.1134 92.3938 81.9717 91.969 81.8706C91.2002 81.7087 90.4517 81.7492 89.8852 81.9515V64.4317H89.865C89.1164 63.7843 88.3072 63.1976 87.4575 62.7121C87.0327 62.4693 86.6281 62.267 86.183 62.0647C85.7581 61.8624 85.2928 61.6803 84.8275 61.5387C84.5038 61.4375 84.1801 61.3364 83.8564 61.2555C83.6946 61.1948 83.5125 61.1543 83.3304 61.1341C82.8449 61.0127 82.3594 60.9318 81.8334 60.8913C81.6311 60.8711 81.4288 60.8508 81.2264 60.8508C80.7814 60.8104 80.3363 60.7901 79.871 60.8104H79.7698C78.8797 60.8508 77.9895 60.9722 77.1601 61.1745C76.7352 61.2757 76.3306 61.3971 75.9058 61.5387C75.8653 61.5387 75.8451 61.5387 75.8046 61.5589C75.4607 61.6803 75.0965 61.8219 74.7526 61.9635C74.7324 61.9635 74.7324 61.9838 74.7121 61.9838C74.1861 62.2063 73.6601 62.4693 73.1544 62.7728C72.7498 62.9953 72.3654 63.2583 72.0012 63.5213C71.5764 63.8248 71.1718 64.1484 70.7671 64.4924H70.7469C70.3625 64.8565 69.9984 65.2004 69.6545 65.5848C68.6631 66.6773 67.8135 67.8911 67.1458 69.2466C66.458 68.0328 65.5881 66.9201 64.617 65.949C64.617 65.9288 64.5765 65.9085 64.5563 65.8883C64.2124 65.5444 63.8685 65.2409 63.4841 64.9374C63.0997 64.6138 62.6951 64.3103 62.2702 64.0473C61.8454 63.7641 61.4003 63.5213 60.9552 63.2785C60.5506 63.056 60.1258 62.8739 59.6807 62.6918C59.6402 62.6716 59.62 62.6716 59.5795 62.6514H59.5593C59.1749 62.4895 58.7703 62.3479 58.3455 62.2468C57.9408 62.1254 57.5362 62.0242 57.1114 61.9433C57.0912 61.9231 57.0507 61.9231 57.0305 61.9231C56.6258 61.8421 56.2212 61.7815 55.7964 61.741H55.6952C55.5334 61.7208 55.3715 61.7208 55.2097 61.7005C54.7848 61.6601 54.3398 61.6398 53.8947 61.6601C52.8832 61.7005 51.9323 61.8219 50.9815 62.0647C50.7589 62.1254 50.5162 62.1658 50.2936 62.2468C50.0104 62.3277 49.7474 62.4086 49.4642 62.5098C49.3428 62.5502 49.2012 62.6109 49.0798 62.6716C48.7359 62.793 48.4122 62.9548 48.0885 63.1167C47.6636 63.319 47.2388 63.5415 46.8342 63.8045C46.7128 63.8855 46.5712 63.9664 46.4498 64.0675C46.1665 64.2294 45.9035 64.4317 45.6405 64.634C45.2157 64.9577 44.8111 65.3016 44.4267 65.6658C44.0019 66.0704 43.5972 66.4952 43.2129 66.9605C43.0712 67.1426 42.9296 67.3247 42.788 67.5068C42.4845 67.8911 42.2215 68.2755 41.9585 68.6801C41.7158 69.0848 41.473 69.4894 41.2707 69.9142C41.2302 69.9749 41.21 70.0154 41.1898 70.0761C40.9875 70.4604 40.8054 70.8651 40.6435 71.2899C40.4615 71.7552 40.2996 72.2205 40.1782 72.6858C40.0569 73.0904 39.9557 73.4748 39.8748 73.8794C39.8141 74.1424 39.7534 74.4257 39.7332 74.6887C39.6725 75.0124 39.632 75.3361 39.6118 75.6598C39.5511 76.1655 39.5309 76.6713 39.5309 77.1973V77.7637C39.5713 79.1799 39.7939 80.5354 40.1782 81.8099C40.1782 81.8099 40.1782 81.8504 40.1985 81.9111C39.7939 82.2145 39.5106 82.5584 39.369 82.9226C39.0251 82.8619 38.6812 82.7607 38.317 82.6394C38.2765 82.4775 38.2563 82.3561 38.2361 82.3157C37.8112 80.8995 37.5685 79.3822 37.528 77.8447C37.4673 76.1048 37.6494 74.3852 38.0742 72.7465C38.1552 72.3217 38.2968 71.8968 38.4586 71.472C39.1869 69.1657 40.4008 67.0617 42.0395 65.2409C42.3025 64.9374 42.5655 64.6542 42.8689 64.3912C45.8226 61.4578 49.7069 59.7584 53.8542 59.637H54.3802C59.2356 59.637 63.8482 61.8421 67.0447 65.5646C70.0995 61.478 74.7728 58.9491 79.8305 58.7873H80.3768C86.8911 58.7873 92.5557 62.5705 95.3677 68.2148L99.7983 40.0738L100.021 38.5161H100.001H99.9804Z" fill="#DF5551"/>
<g opacity="0.2" style="mix-blend-mode:multiply">
<path d="M49.9902 113.248C49.0595 112.985 40.6435 111.347 40.5829 107.988C40.5626 107.584 40.7245 107.179 41.0279 106.815L36.5165 83.1856L36.2332 81.7694L34.7766 74.0817L34.5339 72.8274L27.7161 37.2213V37.1606C27.6959 36.9583 27.6756 36.6751 27.7566 36.493C27.7768 36.4323 27.8172 36.3716 27.8577 36.3514C27.9184 36.2907 27.9791 36.2907 28.0802 36.3109C28.1814 36.3514 28.2623 36.3716 28.3635 36.3918C28.4444 36.4323 28.5051 36.4525 28.586 36.4728C31.6611 37.4034 35.3431 37.8889 37.4269 38.1115C37.6089 38.1317 37.791 38.1519 37.9731 38.1722C38.6205 38.2531 39.0251 38.2733 39.0251 38.2733V38.334L39.0858 38.6779L39.1869 39.4467L39.2476 39.8513L42.8487 64.3912C42.5452 64.6542 42.2822 64.9374 42.0192 65.2409C40.3805 67.0617 39.1667 69.1657 38.4384 71.472C38.2765 71.8968 38.1349 72.3217 38.054 72.7465C37.6292 74.3852 37.4471 76.1048 37.5078 77.8447C37.5482 79.3822 37.791 80.8995 38.2159 82.3157C38.2361 82.3561 38.2563 82.4775 38.2968 82.6394C38.6609 82.7607 39.0049 82.8619 39.3488 82.9226C39.4904 82.5584 39.7736 82.2145 40.1782 81.9111C40.158 81.8504 40.158 81.8099 40.158 81.8099C39.7736 80.5354 39.5511 79.1799 39.5106 77.7637V77.1973C39.5106 76.6713 39.5309 76.1655 39.5915 75.6598C39.6118 75.3361 39.6522 75.0124 39.7129 74.6887C39.7332 74.4257 39.7939 74.1424 39.8545 73.8794C39.9355 73.4748 40.0366 73.0904 40.158 72.6858C40.2794 72.2205 40.4412 71.7552 40.6233 71.2899C40.7852 70.8651 40.9672 70.4604 41.1695 70.0761C41.1898 70.0154 41.21 69.9749 41.2505 69.9142C41.4528 69.4894 41.6955 69.0848 41.9383 68.6801C42.1811 68.2755 42.4643 67.8911 42.7678 67.5068C42.9094 67.3247 43.051 67.1426 43.1926 66.9605L44.4065 75.2147L47.0365 93.2403L47.5827 96.8818L49.9497 113.127V113.248H49.9902Z" fill="#A32035"/>
</g>
<path d="M28.6062 36.7559C27.1294 35.2183 27.2305 29.1693 33.4212 25.9324C51.993 16.2823 54.7039 6.87502 59.9437 2.86933C63.8887 -0.145048 68.5215 -0.165279 70.6862 0.117952C73.559 0.502336 78.6571 2.8491 77.9895 6.42995C77.9895 6.45018 77.9895 6.47041 77.9895 6.49064C77.767 8.35187 76.3711 8.02818 76.3104 7.42125C76.2699 7.29987 76.2294 7.19872 76.1687 7.09756C76.1283 7.03687 76.108 6.99641 76.0474 6.93572C76.0069 6.87502 75.9664 6.83456 75.926 6.77387C75.7844 6.61202 75.6225 6.42995 75.4607 6.2681C75.4202 6.22764 75.4 6.20741 75.3393 6.16695C74.8133 5.76233 74.2266 5.58026 73.7411 5.49933C73.3769 5.45887 72.6688 5.49933 71.7584 6.02533C71.6168 6.12649 71.4752 6.22764 71.3134 6.34902C70.929 6.7941 70.5851 7.76518 71.5561 9.6871C71.5561 9.6871 71.5561 9.70733 71.5764 9.72756C71.6573 9.88941 71.7584 10.0513 71.8596 10.2131C71.9001 10.2738 71.9405 10.3547 72.0012 10.4154C73.1544 12.0946 75.1167 13.4298 76.4317 14.1986C76.8566 14.4413 77.3017 14.6639 77.7265 14.9066H77.7467C77.7467 14.9066 99.2116 23.0596 91.1395 28.441C91.1395 28.441 101.012 31.3745 99.333 38.8598C99.333 38.8598 98.9486 39.2038 93.1221 39.8512C83.3304 40.9436 78.5155 40.3974 70.2614 40.8627C58.831 41.5101 47.8861 40.3165 34.8778 39.0622C34.1292 38.9812 29.0918 37.2616 28.6265 36.7963L28.6062 36.7559Z" fill="#B7A59C"/>
<path d="M70.8076 41.3481C68.1169 41.3481 65.6892 41.3279 63.7066 41.2874C50.0104 41.0447 29.0513 39.669 27.3721 36.7962C27.1901 36.4725 27.1698 36.1084 27.3721 35.7847L28.3432 36.3107C28.3432 36.3107 28.3432 36.25 28.3432 36.2297C28.9906 37.6257 42.7678 39.8106 63.7268 40.1747C88.4286 40.5996 99.596 38.799 99.6162 37.4031H100.729C100.648 40.7614 83.1888 41.3481 70.8076 41.3481Z" fill="white"/>
<path opacity="0.4" d="M79.4461 40.6402C100.628 30.7474 70.8683 23.7071 65.9319 18.8719C60.9956 14.0367 62.0476 4.64968 69.3712 2.6873C74.1052 1.43299 78.4346 6.18722 77.3016 7.78545C77.16 7.98775 76.3508 8.00798 76.3103 7.38083C76.2699 7.25945 76.2294 7.15829 76.1687 7.05714C76.1283 6.99645 76.108 6.95599 76.0473 6.89529C76.0069 6.8346 75.9664 6.79414 75.9259 6.73345C75.7843 6.5716 75.6225 6.38952 75.4606 6.22768C75.4202 6.18722 75.3999 6.16699 75.3393 6.12652C74.8133 5.72191 74.2266 5.53983 73.741 5.45891C73.3769 5.41845 72.6688 5.45891 71.7584 5.98491C71.6168 6.08606 71.4752 6.18722 71.3133 6.3086C70.9289 6.75368 70.585 7.72475 71.5561 9.64668C71.5561 9.64668 71.5561 9.66691 71.5763 9.68714C71.6573 9.84898 71.7584 10.0108 71.8596 10.1727C71.9 10.2334 71.9405 10.3143 72.0012 10.375C73.1543 12.0541 75.1167 13.3894 76.4317 14.1581C76.8566 14.4009 77.3016 14.6234 77.7265 14.8662H77.7467C77.7467 14.8662 99.2115 23.0192 91.1395 28.4006C91.1395 28.4006 101.012 31.334 99.3329 38.8194C99.3329 38.8194 98.9485 39.042 93.1221 39.8107C91.8071 39.9726 95.6105 39.8107 87.3563 40.276C75.9259 40.9234 79.4663 40.6402 79.4663 40.6402H79.4461Z" fill="white"/>
<path d="M74.6641 51.2225C75.6542 51.1299 76.3354 49.7563 76.1857 48.1543C76.0359 46.5524 75.1119 45.3288 74.1218 45.4213C73.1317 45.5138 72.4505 46.8875 72.6002 48.4894C72.75 50.0914 73.674 51.315 74.6641 51.2225Z" fill="#211E1F"/>
<path d="M55.1838 52.3006C56.1739 52.2081 56.8552 50.8344 56.7054 49.2324C56.5557 47.6305 55.6317 46.4069 54.6416 46.4994C53.6515 46.592 52.9703 47.9656 53.12 49.5676C53.2697 51.1695 54.1937 52.3931 55.1838 52.3006Z" fill="#211E1F"/>
<g opacity="0.2" style="mix-blend-mode:multiply">
<path d="M62.5534 104.711L70.6255 112.884C70.6255 112.884 77.9895 109.02 84.1801 101.312C88.995 95.3238 90.8158 88.0205 90.8158 88.0205L62.5332 104.711H62.5534Z" fill="#A32035"/>
</g>
<path d="M43.2128 66.9604C43.0712 67.1425 42.9296 67.3246 42.788 67.5066C42.4845 67.891 42.2215 68.2754 41.9585 68.68C41.7157 69.0847 41.473 69.4893 41.2707 69.9141C41.2302 69.9748 41.21 70.0153 41.1897 70.076C40.9874 70.4603 40.8054 70.865 40.6435 71.2898C40.4614 71.7551 40.2996 72.2204 40.1782 72.6857C40.0568 73.0903 39.9557 73.4747 39.8747 73.8793C39.8141 74.1423 39.7534 74.4256 39.7331 74.6886C39.6724 75.0123 39.632 75.336 39.6117 75.6596C39.5511 76.1654 39.5308 76.6712 39.5308 77.1972V77.7636C39.5713 79.1798 39.7938 80.5353 40.1782 81.8098C40.1782 81.8098 40.1782 81.8503 40.1984 81.911C39.7938 82.2144 39.5106 82.5583 39.369 82.9225C39.0251 82.8618 38.6811 82.7606 38.317 82.6393C38.2765 82.4774 38.2563 82.356 38.2361 82.3156C37.8112 80.8994 37.5684 79.3821 37.528 77.8446C37.4673 76.1047 37.6494 74.3851 38.0742 72.7464C38.1551 72.3216 38.2968 71.8967 38.4586 71.4719C39.1869 69.1656 40.4007 67.0616 42.0394 65.2408C42.3024 64.9373 42.5654 64.6541 42.8689 64.3911L43.2331 66.9604H43.2128Z" fill="white"/>
<path d="M97.2896 75.8821C97.3503 77.4196 97.2087 78.9572 96.8648 80.4543C96.8648 80.5756 96.7029 81.2635 96.2983 82.4166C95.6307 82.7808 94.9226 83.064 94.2348 83.2866C94.1741 83.1652 94.0729 83.0236 93.9516 82.9224C93.9516 82.9022 93.9718 82.8819 93.9718 82.8617C94.0527 82.6392 94.1539 82.4166 94.2146 82.2143C94.7406 80.7982 94.9024 80.0092 94.9024 80.0092C95.1856 78.7144 95.3273 77.3387 95.2666 75.9428C95.2463 75.1133 95.1452 74.3243 95.0036 73.5353C94.9833 73.4139 94.9631 73.2723 94.9226 73.1509C94.8822 72.8475 94.8013 72.544 94.7203 72.2608C93.9111 69.125 92.1915 66.4343 89.9054 64.4315H89.8852C89.1366 63.7841 88.3274 63.1974 87.4777 62.7119C87.0529 62.4691 86.6483 62.2668 86.2032 62.0645C85.7783 61.8622 85.313 61.6801 84.8477 61.5385C84.524 61.4373 84.2003 61.3362 83.8766 61.2553C83.7148 61.1946 83.5327 61.1541 83.3506 61.1339C82.8651 61.0125 82.3796 60.9316 81.8536 60.8911C81.6513 60.8709 81.449 60.8506 81.2466 60.8506C80.8016 60.8102 80.3565 60.79 79.8912 60.8102H79.79C78.8999 60.8506 78.0097 60.972 77.1803 61.1743C76.7554 61.2755 76.3508 61.3969 75.926 61.5385C75.8855 61.5385 75.8653 61.5385 75.8248 61.5587C75.4809 61.6801 75.1167 61.8217 74.7728 61.9633C74.7526 61.9633 74.7526 61.9836 74.7323 61.9836C74.2063 62.2061 73.6803 62.4691 73.1746 62.7726C72.77 62.9951 72.3856 63.2379 72.0214 63.5211C71.5966 63.8043 71.1717 64.128 70.7873 64.4922H70.7671C70.3827 64.8563 70.0186 65.2003 69.6747 65.5846C68.6833 66.6771 67.8337 67.891 67.166 69.2464C66.4782 68.0326 65.6083 66.9199 64.6372 65.9488C64.6372 65.9286 64.5967 65.9083 64.5765 65.8881C64.2326 65.5442 63.8887 65.2407 63.5043 64.9373C63.1199 64.6136 62.7153 64.3101 62.2904 64.0471C61.8656 63.7639 61.4205 63.5211 60.9754 63.2783C60.5708 63.0558 60.146 62.8737 59.7009 62.6916C59.6604 62.6714 59.6402 62.6714 59.5997 62.6512H59.5795C59.1951 62.4893 58.7905 62.3477 58.3657 62.2466C57.961 62.105 57.5362 62.0038 57.1316 61.9431C57.1114 61.9229 57.0709 61.9229 57.0507 61.9229C56.646 61.842 56.2414 61.7813 55.8166 61.7408C55.6143 61.7206 55.4322 61.7003 55.2299 61.7003C54.805 61.6599 54.36 61.6396 53.9149 61.6599C52.9034 61.7003 51.9525 61.8217 51.0017 62.0645C50.7791 62.1252 50.5364 62.1656 50.3138 62.2466C50.0306 62.3275 49.7676 62.4084 49.4844 62.5096C49.363 62.55 49.2214 62.6107 49.1 62.6714C48.756 62.7928 48.4324 62.9546 48.1087 63.1165C47.6838 63.3188 47.259 63.5413 46.8544 63.8043C46.733 63.8853 46.5914 63.9662 46.47 64.0673C46.1867 64.2292 45.9237 64.4315 45.6607 64.6338C45.2359 64.9575 44.8313 65.3014 44.4469 65.6656C44.0221 66.0702 43.6174 66.495 43.233 66.9603L42.8689 64.391C45.8226 61.4576 49.7069 59.7582 53.8542 59.6368H54.3802C59.2356 59.6368 63.8482 61.842 67.0447 65.5644C70.0995 61.4778 74.7728 58.949 79.8305 58.7871H80.3767C86.891 58.7871 92.5556 62.5703 95.3677 68.2146C96.1163 69.6713 96.6625 71.2695 96.9862 72.9486C97.0671 73.414 97.148 73.8995 97.1885 74.385C97.2492 74.8706 97.2896 75.3763 97.3099 75.8821H97.2896Z" fill="white"/>
<path d="M94.9227 73.1509C94.862 72.8677 94.8013 72.5844 94.7002 72.3012V72.2607C94.7811 72.544 94.862 72.8474 94.9025 73.1509H94.9227Z" fill="white"/>
<path d="M94.9226 73.515V73.1509C94.9631 73.2723 94.9833 73.4139 95.0035 73.5353C94.9833 73.515 94.9631 73.4948 94.9226 73.515Z" fill="white"/>
<path d="M96.2984 82.4166C96.1365 82.8617 95.9544 83.4079 95.6914 83.9946C94.9227 85.8356 93.6886 88.3038 91.7262 91.217C90.4517 93.0985 88.8737 95.1822 86.8911 97.3874C86.8911 97.3874 86.8776 97.4009 86.8506 97.4279C82.8854 101.899 77.3421 106.876 69.6949 111.913C69.6747 111.933 69.6342 111.954 69.614 111.974L68.5822 112.662L67.4898 112.055C58.3252 106.855 51.9728 101.555 47.6029 96.8816C42.2013 91.1765 39.7939 86.4223 38.8026 84.0149C38.5598 83.3877 38.3979 82.9224 38.317 82.6392C38.6812 82.7606 39.0251 82.8617 39.369 82.9224C39.5106 82.5583 39.7939 82.2143 40.1985 81.9109C40.1782 81.8502 40.1782 81.8097 40.1782 81.8097C39.7939 80.5352 39.5713 79.1797 39.5309 77.7636V77.1971C39.5309 76.6711 39.5511 76.1653 39.6118 75.6596C39.632 75.3359 39.6725 75.0122 39.7332 74.6885C39.7534 74.4255 39.8141 74.1423 39.8748 73.8793C39.9557 73.4746 40.0569 73.0903 40.1782 72.6856C40.2996 72.2203 40.4615 71.755 40.6436 71.2897C40.8054 70.8649 40.9875 70.4603 41.1898 70.0759C41.21 70.0152 41.2302 69.9747 41.2707 69.914C41.473 69.4892 41.7158 69.0846 41.9586 68.6799C42.2216 68.2753 42.4846 67.8909 42.788 67.5066C42.9296 67.3245 43.0712 67.1424 43.2129 66.9603C43.5972 66.495 44.0019 66.0702 44.4267 65.6656C44.8111 65.3014 45.2157 64.9575 45.6406 64.6338C45.9036 64.4315 46.1665 64.2292 46.4498 64.0673C46.5712 63.9662 46.7128 63.8853 46.8342 63.8043C47.2388 63.5413 47.6636 63.3188 48.0885 63.1165C48.4122 62.9546 48.7359 62.7928 49.0798 62.6714C49.2012 62.6107 49.3428 62.55 49.4642 62.5096C49.7474 62.4084 50.0104 62.3275 50.2936 62.2466C50.5162 62.1656 50.7589 62.1252 50.9815 62.0645C51.9323 61.8217 52.8832 61.7003 53.8947 61.6599C54.3398 61.6396 54.7849 61.6599 55.2097 61.7003C55.3715 61.7206 55.5334 61.7206 55.6952 61.7408H55.7964C56.2212 61.7813 56.6259 61.842 57.0305 61.9229C57.0507 61.9229 57.0912 61.9229 57.1114 61.9431C57.5362 62.024 57.9408 62.1252 58.3455 62.2466C58.7703 62.3477 59.1749 62.4893 59.5593 62.6512H59.5795C59.5795 62.6512 59.6402 62.6714 59.6807 62.6916C60.1258 62.8737 60.5506 63.0558 60.9552 63.2783C61.4003 63.5211 61.8454 63.7639 62.2702 64.0471C62.6951 64.3101 63.0997 64.6136 63.4841 64.9373C63.8685 65.2407 64.2124 65.5442 64.5563 65.8881C64.5765 65.9083 64.5968 65.9286 64.617 65.9488C65.5881 66.9199 66.458 68.0326 67.1458 69.2464C67.8135 67.8909 68.6631 66.6771 69.6545 65.5846C69.9984 65.2003 70.3625 64.8563 70.7469 64.4922H70.7672C71.1718 64.1483 71.5764 63.8246 72.0012 63.5211C72.3654 63.2581 72.7498 62.9951 73.1544 62.7726C73.6601 62.4691 74.1861 62.2061 74.7121 61.9836C74.7121 61.9836 74.7121 61.9633 74.7526 61.9633C75.0965 61.8217 75.4607 61.6801 75.8046 61.5587C75.8451 61.5385 75.8653 61.5385 75.9058 61.5385C76.3306 61.3969 76.7352 61.2755 77.1601 61.1743C77.9895 60.972 78.8797 60.8506 79.7698 60.8102H79.871C80.3363 60.79 80.7814 60.8102 81.2265 60.8506C81.4288 60.8506 81.6311 60.8709 81.8334 60.8911C82.3594 60.9316 82.8449 61.0125 83.3304 61.1339C83.5125 61.1541 83.6946 61.1946 83.8564 61.2553C84.1801 61.3362 84.5038 61.4373 84.8275 61.5385C85.2928 61.6801 85.7581 61.8622 86.183 62.0645C86.6281 62.2668 87.0327 62.4691 87.4575 62.7119C88.3072 63.1974 89.1164 63.7841 89.865 64.4315H89.8852V81.9513C90.4517 81.749 91.2002 81.7086 91.969 81.8704C92.3938 81.9716 92.7984 82.1132 93.1424 82.2952C93.4661 82.4773 93.7493 82.6796 93.9516 82.9224C94.073 83.0236 94.1741 83.1652 94.2348 83.2866C94.9227 83.064 95.6307 82.7808 96.2984 82.4166Z" fill="white"/>
<path d="M93.1423 82.3155C93.466 82.4773 93.7493 82.6796 93.9516 82.9224C93.8909 83.0842 93.8099 83.2461 93.729 83.4282C93.6683 83.5698 93.6076 83.7316 93.5065 83.9137C93.4053 84.1565 93.2839 84.4195 93.1626 84.6825C93.1423 84.7229 93.1221 84.7634 93.1019 84.8039C93.0007 85.0062 92.8996 85.2287 92.7984 85.4512C92.7175 85.5726 92.6568 85.7142 92.5759 85.8559C91.9892 86.9685 91.2609 88.2431 90.3505 89.6188C90.3505 89.6188 90.3505 89.639 90.3303 89.6592C90.1886 89.8615 90.047 90.0841 89.8852 90.3066L89.8649 90.3269C89.5413 90.8124 89.1771 91.3182 88.813 91.8239C88.0846 92.8355 87.2552 93.8875 86.3043 94.9799C85.839 95.5262 85.3535 96.0926 84.8275 96.6591H84.8073C84.0992 97.4683 83.3102 98.2978 82.4605 99.1272C81.712 99.8555 80.923 100.624 80.0733 101.393C80.0733 101.393 80.053 101.393 80.0328 101.393C79.9519 101.494 79.8507 101.575 79.7698 101.636C78.2323 103.012 76.5531 104.428 74.7121 105.844C74.3277 106.147 73.9231 106.451 73.5185 106.754C72.9116 107.22 72.2844 107.665 71.637 108.11C71.0099 108.575 70.3423 109.04 69.6544 109.485C69.27 109.748 68.9059 110.011 68.5013 110.274C68.2585 110.153 68.036 110.011 67.8134 109.89C67.7325 109.829 67.6313 109.789 67.5504 109.748C67.5504 109.728 67.5302 109.728 67.5302 109.728C66.5389 109.141 65.5678 108.555 64.6372 107.968C64.1719 107.685 63.7268 107.402 63.302 107.118C62.432 106.552 61.5823 105.985 60.7731 105.419C60.3685 105.156 59.9639 104.873 59.5795 104.59C57.7385 103.254 56.0594 101.939 54.542 100.645C52.6201 99.0059 50.941 97.4279 49.4844 95.9105C48.6954 95.0811 47.9671 94.2719 47.2994 93.5031C47.2185 93.4222 47.1578 93.321 47.0769 93.2401C46.0654 92.0465 45.1954 90.8933 44.4469 89.8413C43.1724 88.0206 42.2417 86.4425 41.5944 85.168C41.5539 85.0669 41.4932 84.9455 41.4325 84.8443H41.4123C41.3314 84.6622 41.2707 84.5004 41.1695 84.3386C41.1291 84.2172 41.0886 84.116 41.0481 84.0149C40.8863 83.6912 40.7649 83.3877 40.6637 83.1247C40.4007 82.4976 40.2794 82.0727 40.2389 81.9109L40.2187 81.8097C39.8343 80.5352 39.6118 79.1797 39.5713 77.7636V77.1971C39.5713 76.6711 39.5915 76.1653 39.6522 75.6596C39.6724 75.3359 39.7129 75.0122 39.7736 74.6885C39.7938 74.4255 39.8545 74.1423 39.9152 73.8793C39.9961 73.4746 40.0973 73.0903 40.2187 72.6856C40.3401 72.2203 40.5019 71.755 40.684 71.2897C40.8458 70.8649 41.0279 70.4603 41.2302 70.0759C41.2504 70.0152 41.2707 69.9747 41.3111 69.914C41.5134 69.4892 41.7562 69.0846 41.999 68.6799C42.262 68.2753 42.525 67.8909 42.8284 67.5066C42.9701 67.3245 43.1117 67.1424 43.2533 66.9603C43.6377 66.495 44.0423 66.0702 44.4671 65.6656C44.8515 65.3014 45.2561 64.9575 45.681 64.6338C45.944 64.4315 46.207 64.2292 46.4902 64.0673C46.6116 63.9662 46.7532 63.8853 46.8746 63.8043C47.2792 63.5413 47.7041 63.3188 48.1289 63.1165C48.4526 62.9546 48.7763 62.7928 49.1202 62.6714C49.2416 62.6107 49.3832 62.55 49.5046 62.5096C49.7878 62.4084 50.0508 62.3275 50.3341 62.2466C50.5566 62.1656 50.7994 62.1252 51.0219 62.0645C51.9727 61.8217 52.9236 61.7003 53.9351 61.6599C54.3802 61.6396 54.8253 61.6599 55.2501 61.7003C55.412 61.7206 55.5738 61.7206 55.7357 61.7408H55.8368C56.2617 61.7813 56.6663 61.842 57.0709 61.9229C57.0911 61.9229 57.1316 61.9229 57.1518 61.9431C57.5767 62.024 57.9813 62.1252 58.3859 62.2466C58.8107 62.3477 59.2154 62.4893 59.5997 62.6512H59.62C59.62 62.6512 59.6807 62.6714 59.7211 62.6916C60.1662 62.8737 60.591 63.0558 60.9957 63.2783C61.4407 63.5211 61.8858 63.7639 62.3107 64.0471C62.7355 64.3101 63.1401 64.6136 63.5245 64.9373C63.9089 65.2407 64.2528 65.5442 64.5967 65.8881C64.617 65.9083 64.6372 65.9286 64.6574 65.9488C65.6285 66.9199 66.4984 68.0326 67.1863 69.2464C67.8539 67.8909 68.7036 66.6771 69.6949 65.5846C70.0388 65.2003 70.403 64.8563 70.7873 64.4922H70.8076C71.2122 64.1483 71.6168 63.8246 72.0416 63.5211C72.4058 63.2581 72.7902 62.9951 73.1948 62.7726C73.7006 62.4691 74.2266 62.2061 74.7526 61.9836C74.7526 61.9836 74.7526 61.9633 74.793 61.9633C75.137 61.8217 75.5011 61.6801 75.845 61.5587C75.8855 61.5385 75.9057 61.5385 75.9462 61.5385C76.371 61.3969 76.7757 61.2755 77.2005 61.1743C78.03 60.972 78.9201 60.8506 79.8103 60.8102H79.9114C80.3767 60.79 80.8218 60.8102 81.2669 60.8506C81.4692 60.8506 81.6715 60.8709 81.8738 60.8911C82.3998 60.9316 82.8853 61.0125 83.3709 61.1339C83.553 61.1541 83.735 61.1946 83.8969 61.2553C84.2206 61.3362 84.5443 61.4373 84.868 61.5385C85.3333 61.6801 85.7986 61.8622 86.2234 62.0645C86.6685 62.2668 87.0731 62.4691 87.498 62.7119C88.3476 63.1974 89.1569 63.7841 89.9054 64.4315H89.9256V81.9513C90.4921 81.749 91.2406 81.7086 92.0094 81.8704C92.4343 81.9716 92.8389 82.1132 93.1828 82.2952L93.1423 82.3155Z" fill="white"/>
<path d="M94.7204 72.2607C94.8014 72.544 94.8823 72.8474 94.9227 73.1509C94.862 72.8677 94.8013 72.5844 94.7002 72.3012V72.2607H94.7204Z" fill="white"/>
<path d="M94.9226 73.515V73.1509C94.9631 73.2723 94.9833 73.4139 95.0035 73.5353C94.9833 73.515 94.9631 73.4948 94.9226 73.515Z" fill="white"/>
<path d="M44.4266 65.6655V89.8413C43.1521 88.0205 42.2215 86.4425 41.5741 85.168C41.5336 85.0668 41.4729 84.9454 41.4123 84.8443C41.3313 84.6622 41.2504 84.5004 41.1897 84.3385C41.129 84.2171 41.0683 84.116 41.0279 84.0148C40.866 83.6911 40.7446 83.3877 40.6435 83.1247C40.3805 82.4975 40.2591 82.0727 40.2186 81.9108L40.1984 81.8097C39.814 80.5351 39.5915 79.1797 39.551 77.7635V77.1971C39.551 76.6711 39.5713 76.1653 39.6319 75.6595C39.6522 75.3358 39.6926 75.0121 39.7533 74.6884C39.7736 74.4254 39.8343 74.1422 39.8949 73.8792C39.9759 73.4746 40.077 73.0902 40.1984 72.6856C40.3198 72.2203 40.4816 71.755 40.6637 71.2897C40.8256 70.8648 41.0076 70.4602 41.2099 70.0758C41.2302 70.0151 41.2504 69.9747 41.2909 69.914C41.4932 69.4891 41.7359 69.0845 41.9787 68.6799C42.2417 68.2753 42.5047 67.8909 42.8082 67.5065C42.9498 67.3244 43.0914 67.1424 43.233 66.9603C43.6174 66.495 44.022 66.0701 44.4469 65.6655H44.4266Z" fill="#221F1F"/>
<path d="M49.4642 62.5098V95.9107C48.6752 95.0813 47.9469 94.2721 47.2793 93.5033C47.1984 93.4224 47.1377 93.3212 47.0568 93.2403C46.0452 92.0467 45.1753 90.8935 44.4268 89.8415V65.6658C44.8111 65.3016 45.2158 64.9577 45.6406 64.634C45.9036 64.4317 46.1666 64.2294 46.4498 64.0675C46.5712 63.9664 46.7128 63.8855 46.8342 63.8045C47.2388 63.5415 47.6637 63.319 48.0885 63.1167C48.4122 62.9548 48.7359 62.793 49.0798 62.6716C49.2012 62.6109 49.3428 62.5502 49.4642 62.5098Z" fill="#624024"/>
<path d="M54.5218 61.6804V100.645C52.5999 99.0061 50.9207 97.4281 49.4641 95.9108V62.5098C49.7473 62.4087 50.0103 62.3278 50.2936 62.2469C50.5161 62.1659 50.7589 62.1255 50.9814 62.0648C51.9323 61.822 52.8831 61.7006 53.8946 61.6602C54.097 61.6602 54.2993 61.6804 54.5218 61.6804Z" fill="#6DCFF6"/>
<path d="M59.5592 62.6513V104.59C57.7182 103.254 56.039 101.939 54.5217 100.645V61.6802C55.3714 61.6802 56.2211 61.7611 57.0303 61.9229C57.0506 61.9229 57.091 61.9229 57.1113 61.9432C57.5361 62.0241 57.9407 62.1253 58.3453 62.2466C58.7702 62.3478 59.1748 62.4894 59.5592 62.6513Z" fill="#F391BC"/>
<path d="M64.617 65.949V107.968C64.1517 107.685 63.7066 107.402 63.2818 107.119C62.4119 106.552 61.5622 105.986 60.7529 105.419C60.3483 105.156 59.9437 104.873 59.5593 104.59V62.6514C59.5593 62.6514 59.6403 62.6716 59.6807 62.6918C60.1258 62.8739 60.5506 63.056 60.9552 63.2785C61.4003 63.5213 61.8454 63.7641 62.2702 64.0473C62.6951 64.3103 63.0997 64.6137 63.4841 64.9374C63.8685 65.2409 64.2124 65.5444 64.5563 65.8883C64.5766 65.9085 64.5968 65.9287 64.617 65.949Z" fill="#EDEDEE"/>
<path d="M69.6544 65.5845V109.505C69.27 109.768 68.9059 110.031 68.5012 110.294C68.1573 110.112 67.8336 109.91 67.5099 109.728C66.5186 109.141 65.5476 108.555 64.6169 107.968V65.9486C65.588 66.9197 66.4579 68.0324 67.1458 69.2462C67.8134 67.8908 68.6631 66.6769 69.6544 65.5845Z" fill="#CE0E2D"/>
<path d="M74.7122 61.9834V105.864C74.3278 106.167 73.9232 106.471 73.5186 106.774C72.9117 107.24 72.2845 107.685 71.6372 108.13C71.01 108.595 70.3424 109.06 69.6545 109.505V65.5845C69.9985 65.2001 70.3626 64.8562 70.747 64.492C70.7672 64.5122 70.7672 64.492 70.7672 64.492C71.1718 64.1481 71.5765 63.8244 72.0013 63.5209C72.3655 63.2579 72.7498 62.9949 73.1545 62.7724C73.6602 62.4689 74.1862 62.2059 74.7122 61.9834Z" fill="#F48021"/>
<path d="M79.7698 60.8101V101.676C78.2323 103.032 76.5532 104.448 74.7122 105.864V61.9834C74.7122 61.9834 74.7122 61.9632 74.7526 61.9632C75.137 61.8014 75.5214 61.6598 75.9058 61.5384C76.3306 61.3968 76.7352 61.2754 77.1601 61.1742C77.9895 60.9719 78.8797 60.8505 79.7698 60.8101Z" fill="#FCBA24"/>
<path d="M84.8275 61.5387V91.5814L84.8072 96.6593C84.0789 97.4685 83.2899 98.298 82.4605 99.1275C81.7119 99.8558 80.9229 100.625 80.0732 101.393C80.0732 101.393 80.053 101.393 80.0328 101.393C79.9519 101.494 79.8507 101.575 79.7698 101.656V60.7902H79.8709C80.3362 60.7699 80.7813 60.7902 81.2264 60.8306C81.4287 60.8306 81.631 60.8509 81.8333 60.8711C82.3593 60.9115 82.8449 60.9925 83.3304 61.1139C83.5125 61.1341 83.6945 61.1745 83.8564 61.2352C84.1801 61.3162 84.5038 61.4173 84.8275 61.5185V61.5387Z" fill="#62BA46"/>
<path d="M89.8649 64.4316V90.3269C89.5412 90.8125 89.177 91.3182 88.8129 91.824C88.0643 92.8356 87.2349 93.8876 86.3042 94.98C85.8389 95.5262 85.3534 96.0927 84.8274 96.6592V61.5386C85.2927 61.6802 85.758 61.8623 86.1829 62.0646C86.6279 62.2669 87.0325 62.4692 87.4574 62.712C88.3071 63.1975 89.1163 63.7842 89.8649 64.4316Z" fill="#00A0DF"/>
<path d="M95.2666 75.9429C95.3273 77.3389 95.1857 78.7146 94.9025 80.0093C94.9025 80.0093 94.7406 80.7983 94.2146 82.2145C94.1539 82.4168 94.0528 82.6393 93.9719 82.8619C93.9719 82.8821 93.9516 82.9023 93.9516 82.9226C93.7493 82.6798 93.4661 82.4775 93.1424 82.3156C92.7985 82.1133 92.3939 81.9717 91.969 81.8706C91.2003 81.7087 90.4517 81.7492 89.8853 81.9515V64.4316C92.1713 66.4345 93.8909 69.1252 94.7002 72.2407V72.2812C94.8013 72.5846 94.862 72.8679 94.9227 73.1511V73.5153C94.9227 73.5153 94.9834 73.5152 95.0036 73.5355C95.1453 74.3245 95.2464 75.1135 95.2666 75.9429Z" fill="#8C549D"/>
<path d="M93.9516 82.9224C93.8909 83.0842 93.81 83.2461 93.7291 83.4281C93.6684 83.5698 93.6077 83.7316 93.5066 83.9137C93.4054 84.1564 93.284 84.4195 93.1626 84.6825C93.1424 84.7229 93.1222 84.7634 93.1222 84.8038H93.1019C93.0008 85.0061 92.8996 85.2287 92.7985 85.4512C92.7176 85.5726 92.6569 85.7142 92.5759 85.8558C91.9893 86.9685 91.2609 88.2431 90.3506 89.6188C90.3506 89.6188 90.3506 89.639 90.3303 89.6592C90.1887 89.8615 90.0471 90.0841 89.8853 90.3066V81.9513C90.4517 81.749 91.2003 81.7085 91.969 81.8704C92.3939 81.9715 92.7985 82.1131 93.1424 82.2952C93.4661 82.4773 93.7493 82.6796 93.9516 82.9224Z" fill="#8C549D"/>
<path d="M44.4267 83.8127C43.9816 84.2375 43.314 84.5612 42.5452 84.7433C42.1609 84.8242 41.7765 84.8444 41.4123 84.8444H41.3921C40.6435 84.804 40.0164 84.5612 39.6522 84.1768C39.4702 84.015 39.3488 83.8127 39.3083 83.5901C39.2679 83.3676 39.2881 83.1451 39.369 82.9225C39.5106 82.5584 39.7939 82.2145 40.1985 81.911C40.6233 81.5873 41.1493 81.3445 41.7765 81.2029C42.8082 80.9804 43.7995 81.1422 44.4065 81.5468C44.7302 81.7491 44.9527 82.0324 45.0134 82.3561C45.1348 82.8618 44.892 83.3676 44.4065 83.8127H44.4267Z" fill="#211E1F"/>
<path d="M94.4573 84.2578C94.4573 84.2578 94.4168 84.3994 94.3764 84.4804C94.1741 84.9861 93.5672 85.33 92.7984 85.4514C92.7579 85.4514 92.6972 85.4514 92.6365 85.4514C92.2117 85.5121 91.7262 85.4717 91.2204 85.3705C90.7146 85.2694 90.2695 85.0873 89.8852 84.8647H89.8649C89.0557 84.359 88.5904 83.6509 88.732 83.0035C88.8332 82.518 89.258 82.1336 89.8649 81.9313H89.8852C90.4516 81.729 91.2002 81.6885 91.9689 81.8504C92.3938 81.9515 92.7984 82.0931 93.1423 82.2752C93.466 82.4573 93.7492 82.6596 93.9515 82.9024C94.0729 83.0035 94.1741 83.1451 94.2348 83.2665C94.4371 83.57 94.518 83.9139 94.4573 84.2376V84.2578Z" fill="#211E1F"/>
<path opacity="0.5" d="M49.3023 59.0299C51.023 59.0299 52.4178 57.635 52.4178 55.9144C52.4178 54.1937 51.023 52.7988 49.3023 52.7988C47.5816 52.7988 46.1868 54.1937 46.1868 55.9144C46.1868 57.635 47.5816 59.0299 49.3023 59.0299Z" fill="#CE0E2D"/>
<path opacity="0.5" d="M81.5704 56.1573C83.291 56.1573 84.6859 54.7625 84.6859 53.0418C84.6859 51.3211 83.291 49.9263 81.5704 49.9263C79.8497 49.9263 78.4548 51.3211 78.4548 53.0418C78.4548 54.7625 79.8497 56.1573 81.5704 56.1573Z" fill="#CE0E2D"/>
<path d="M60.7935 56.3798C61.2385 58.9288 63.8078 60.608 66.5592 60.1225C69.3106 59.6369 71.1921 57.2092 70.747 54.6602L60.7935 56.3595V56.3798Z" fill="#211E1F"/>
<path d="M65.6284 60.8102C64.5157 60.8102 63.4233 60.4865 62.4927 59.8998C61.2586 59.1108 60.4494 57.8969 60.2268 56.501C60.1661 56.1773 60.3887 55.8738 60.6921 55.8334L70.6457 54.134C70.8075 54.1138 70.9491 54.134 71.0705 54.2352C71.1919 54.3161 71.2728 54.4577 71.3133 54.6195C71.7988 57.4721 69.715 60.2235 66.6602 60.7495C66.3163 60.8102 65.9724 60.8304 65.6284 60.8304V60.8102ZM61.5014 56.8652C61.7846 57.6946 62.3308 58.4027 63.1198 58.9085C64.0909 59.5356 65.2643 59.7784 66.4579 59.5761C68.6833 59.1917 70.2613 57.3709 70.2208 55.3681L61.5014 56.8652Z" fill="#211E1F"/>
<path d="M42.7475 83.5292C42.8285 83.8327 42.6262 84.1564 42.3025 84.2171C41.9788 84.298 41.6146 84.3384 41.21 84.3384H41.1493C40.684 84.3384 40.1782 84.2777 39.6522 84.1766C39.369 84.1361 39.0858 84.0754 38.8025 84.0147C38.0338 83.8124 37.265 83.5292 36.5165 83.1853C35.8084 82.8818 35.1408 82.5177 34.5339 82.1131C32.9356 81.0206 32.005 79.7461 31.8027 78.4108C31.5802 76.8126 31.9443 75.3964 32.8749 74.2433C33.3402 73.6566 33.9269 73.1913 34.5339 72.8271C35.9095 71.9774 37.4471 71.6335 38.4384 71.4717C38.2765 71.8965 38.1349 72.3214 38.054 72.7462C36.9211 72.9688 35.7275 73.3936 34.7766 74.0814C34.4125 74.3444 34.0685 74.6479 33.7853 74.9918C33.0772 75.882 32.794 76.9744 32.9761 78.249C33.1582 79.5033 34.2709 80.5148 35.2015 81.142C35.5252 81.3645 35.8691 81.5871 36.2332 81.7691C36.9009 82.1333 37.6089 82.4165 38.2968 82.6391C38.6609 82.7604 39.0049 82.8616 39.3488 82.9223C39.8141 83.0437 40.2389 83.1044 40.6233 83.1246C41.1695 83.1853 41.6551 83.1651 42.0192 83.0841C42.3227 83.0234 42.6464 83.2055 42.7273 83.5292H42.7475Z" fill="#211E1F"/>
<path d="M94.7204 72.2607C94.8014 72.544 94.8823 72.8474 94.9227 73.1509C94.862 72.8677 94.8013 72.5844 94.7002 72.3012V72.2607H94.7204Z" fill="#211E1F"/>
<path d="M94.9226 73.515V73.1509C94.9631 73.2723 94.9833 73.4139 95.0035 73.5353C94.9833 73.515 94.9631 73.4948 94.9226 73.515Z" fill="#211E1F"/>
<path d="M100.709 79.0786C100.506 80.4139 99.5757 81.6884 97.9775 82.7809C97.2896 83.2462 96.5006 83.671 95.6914 83.9947C95.2666 84.1768 94.8215 84.3386 94.3764 84.4803C93.9516 84.6016 93.5267 84.723 93.1221 84.8039H93.1019C92.9805 84.8242 92.8591 84.8646 92.7377 84.8646C92.232 84.9658 91.7464 85.0063 91.3013 85.0063C90.8967 85.0063 90.5326 84.9658 90.2089 84.8849C90.0875 84.8646 89.9661 84.7837 89.8852 84.7028C89.8852 84.7028 89.8784 84.6961 89.8649 84.6826C89.7638 84.541 89.7233 84.3589 89.7638 84.1768C89.7638 84.0959 89.8043 84.0352 89.8649 83.9745H89.8852C90.0066 83.7924 90.2291 83.6913 90.4719 83.752C91.0788 83.8936 91.9487 83.8531 92.9198 83.6508C93.1828 83.5901 93.4458 83.5294 93.729 83.4283C93.8909 83.408 94.0729 83.3473 94.2348 83.2866C94.9226 83.0641 95.6307 82.7809 96.2983 82.4167C96.6423 82.2346 96.9862 82.0323 97.3099 81.8098C98.2405 81.1826 99.3532 80.1711 99.5353 78.9168C99.7173 77.6423 99.4341 76.5498 98.726 75.6394C98.3012 75.1336 97.7752 74.7088 97.1683 74.3851C97.1278 73.8996 97.0469 73.414 96.9659 72.9487C97.937 73.3938 98.9081 74.0007 99.6364 74.9111C100.567 76.0643 100.931 77.4602 100.709 79.0786Z" fill="#211E1F"/>
</svg>
