<svg width="128" height="128" viewBox="0 0 128 128" fill="none" xmlns="http://www.w3.org/2000/svg">
<path d="M49.6106 114.483C50.9683 114.911 51.8615 115.948 51.5935 116.787C51.3256 117.627 50.0036 117.948 48.6459 117.52C47.2882 117.091 46.3949 116.055 46.6629 115.215C46.7701 114.858 47.0917 114.626 47.5026 114.465C47.574 114.197 47.6455 113.929 47.6991 113.679C45.0908 113.518 42.2504 113.429 39.267 113.429C36.1228 113.429 33.1215 113.536 30.3882 113.715C30.4418 114.036 30.4954 114.358 30.5669 114.661C30.9599 114.822 31.2815 115.054 31.3887 115.394C31.6566 116.233 30.7634 117.27 29.4057 117.698C28.048 118.127 26.726 117.806 26.458 116.966C26.1901 116.126 27.0833 115.09 28.441 114.661C28.7983 114.554 29.1377 114.501 29.4593 114.483C29.4057 114.25 29.37 114.018 29.3342 113.804C21.7775 114.376 16.561 115.59 16.561 117.002C16.561 118.967 26.726 120.557 39.267 120.557C51.8079 120.557 61.9729 118.967 61.9729 117.002C61.9729 115.572 56.5599 114.34 48.7531 113.786C48.7174 113.965 48.6638 114.143 48.628 114.322C48.9496 114.322 49.2712 114.393 49.6106 114.501V114.483Z" fill="#CCCBCB"/>
<path d="M47.6989 113.679C47.6453 113.947 47.5738 114.215 47.5024 114.465C47.0915 114.625 46.7699 114.858 46.6627 115.215C46.3948 116.055 47.288 117.091 48.6457 117.519C50.0034 117.948 51.3254 117.627 51.5934 116.787C51.8613 115.947 50.9681 114.911 49.6104 114.483C49.271 114.375 48.9315 114.322 48.6278 114.304C48.6814 114.125 48.7172 113.947 48.7529 113.768C49.1459 111.928 49.2174 110.231 49.1459 108.784C48.8065 108.819 48.4671 108.855 48.1098 108.891C48.1812 110.284 48.1098 111.946 47.7168 113.696L47.6989 113.679Z" fill="#211E1F"/>
<path d="M28.4409 114.661C27.0832 115.09 26.1899 116.126 26.4579 116.966C26.7259 117.806 28.0479 118.127 29.4056 117.698C30.7633 117.27 31.6565 116.234 31.3885 115.394C31.2814 115.054 30.9598 114.822 30.5668 114.661C30.4953 114.34 30.4239 114.036 30.3881 113.715C30.0844 111.857 30.0844 109.945 30.1916 108.391C29.8343 108.337 29.4949 108.284 29.1555 108.248C29.0304 109.856 29.0304 111.839 29.3341 113.804C29.3698 114.036 29.4056 114.268 29.4592 114.483C29.1376 114.483 28.7803 114.554 28.4409 114.661Z" fill="#211E1F"/>
<path d="M62.4552 68.2312C62.5088 67.9454 62.7946 67.7667 63.0626 67.8203C63.3484 67.8739 63.5271 68.1597 63.4735 68.4277C63.3663 68.9815 64.063 69.446 64.5096 69.6782L68.7257 42.8456L68.9222 41.4521H68.9043C65.8316 43.5423 52.7547 43.9532 43.1257 43.9532C40.7497 43.9532 38.6059 43.9353 36.8552 43.8996C30.281 43.7924 21.8311 43.3637 15.239 42.6133L24.7073 107.373C26.065 107.694 27.5656 107.98 29.1734 108.23C29.5128 108.284 29.8523 108.337 30.2096 108.373C32.6749 108.712 35.3546 108.963 38.1772 109.07C41.768 109.213 45.1444 109.123 48.1099 108.855C48.4672 108.82 48.8066 108.784 49.1461 108.748C55.5059 108.069 59.7755 106.515 59.7398 104.55C59.7398 104.157 59.5433 103.764 59.2038 103.371L64.3489 70.7323C64.3489 70.7323 64.3489 70.7323 64.331 70.7323C62.9554 70.107 62.2766 69.1959 62.4731 68.2133L62.4552 68.2312ZM24.4036 59.5847C22.8851 59.7455 21.5452 58.6379 21.3844 57.1194C21.2237 55.6009 22.3313 54.2611 23.8498 54.1003C25.3683 53.9395 26.7081 55.0471 26.851 56.5656C27.0118 58.0841 25.9042 59.424 24.3857 59.5669L24.4036 59.5847ZM29.3342 53.6715C28.4588 53.7609 27.6549 52.6711 27.512 51.2598C27.387 49.8485 27.9765 48.6337 28.8519 48.5444C29.7272 48.4551 30.5311 49.5448 30.674 50.9561C30.7991 52.3674 30.2096 53.5822 29.3342 53.6715ZM39.4456 61.0854C39.1419 61.139 38.8382 61.1568 38.5345 61.1568C37.5519 61.1568 36.5872 60.871 35.7655 60.3529C34.6757 59.6562 33.9611 58.5843 33.7646 57.3517C33.711 57.0658 33.9075 56.7979 34.1755 56.7621L42.9649 55.2436C43.1078 55.2258 43.2329 55.2436 43.3401 55.333C43.4472 55.4044 43.5187 55.5295 43.5544 55.6724C43.9832 58.1913 42.1431 60.6209 39.4277 61.0854H39.4456ZM46.52 52.7069C45.6446 52.7962 44.8407 51.7064 44.6978 50.2951C44.5727 48.8838 45.1623 47.669 46.0376 47.5797C46.913 47.4904 47.7169 48.5801 47.8598 49.9914C47.9849 51.4027 47.3953 52.6175 46.52 52.7069ZM52.8976 57.048C51.3791 57.2087 50.0393 56.1011 49.8785 54.5826C49.7177 53.0641 50.8253 51.7243 52.3438 51.5814C53.8623 51.4206 55.2022 52.5282 55.3451 54.0467C55.5059 55.5652 54.3983 56.905 52.8798 57.0658L52.8976 57.048Z" fill="#DF5551"/>
<g opacity="0.2" style="mix-blend-mode:multiply">
<path d="M16.4001 102.853C16.4537 105.818 23.8854 107.265 24.7072 107.515V107.39C19.6694 106.211 16.4359 104.568 16.4001 102.853Z" fill="#A32035"/>
</g>
<path d="M5.03833 40.2371C5.03833 40.2371 5.03833 40.2907 5.03833 40.3086L10.2191 67.3913C12.0949 67.4628 13.6491 67.1769 13.6848 67.1769C13.9706 67.1055 14.2386 67.302 14.2922 67.5878C14.3458 67.8737 14.1672 68.1416 13.8813 68.1952C13.7741 68.2131 12.4879 68.4453 10.8265 68.4453C10.7014 68.4453 10.5585 68.4453 10.4334 68.4275L16.8111 101.799C16.5431 102.12 16.4002 102.477 16.4181 102.835C16.4538 104.55 19.6873 106.193 24.7073 107.372L15.239 42.6131C10.1655 42.0236 6.21739 41.2375 5.05619 40.2192L5.03833 40.2371Z" fill="#DF5551"/>
<g opacity="0.2" style="mix-blend-mode:multiply">
<path d="M5.03833 40.2371C5.03833 40.2371 5.03833 40.2907 5.03833 40.3086L10.2191 67.3913C12.0949 67.4628 13.6491 67.1769 13.6848 67.1769C13.9706 67.1055 14.2386 67.302 14.2922 67.5878C14.3458 67.8737 14.1672 68.1416 13.8813 68.1952C13.7741 68.2131 12.4879 68.4453 10.8265 68.4453C10.7014 68.4453 10.5585 68.4453 10.4334 68.4275L16.8111 101.799C16.5431 102.12 16.4002 102.477 16.4181 102.835C16.4538 104.55 19.6873 106.193 24.7073 107.372L15.239 42.6131C10.1655 42.0236 6.21739 41.2375 5.05619 40.2192L5.03833 40.2371Z" fill="#A32035"/>
</g>
<path d="M48.0742 14.2085C48.0742 14.2085 47.9849 14.0835 47.9849 13.9941C47.9849 14.0656 48.0385 14.1371 48.0742 14.2085Z" fill="#B7A59C"/>
<path d="M5.59217 39.4512C6.16384 40.6839 18.3296 42.6132 36.8553 42.9348C42.6434 43.0241 47.574 42.9884 51.7365 42.8633C68.4578 34.3776 43.09 28.3037 38.8204 24.1234C34.4614 19.8716 35.3904 11.5467 41.8574 9.83166C46.0198 8.72405 49.825 12.8686 48.8782 14.3157C49.1461 14.1728 49.3962 13.8333 49.4677 13.1723C49.4677 13.1545 49.4677 13.1366 49.4677 13.1187C50.0572 9.95671 45.5375 7.88441 43.0186 7.54499C41.107 7.29488 37.016 7.31275 33.5324 9.97457C28.8876 13.5296 26.5116 21.8367 10.0941 30.3581C5.03837 32.9842 4.57389 37.7183 5.55645 39.5048H5.59217C5.59217 39.5048 5.59217 39.4691 5.59217 39.4512Z" fill="#B7A59C"/>
<path d="M15.2211 42.631C21.831 43.3992 30.2631 43.8101 36.8373 43.9173C38.588 43.953 40.7318 43.9709 43.1078 43.9709C52.719 43.9709 65.8137 43.56 68.8864 41.4698C69.3152 41.184 69.5474 40.8624 69.5653 40.5051H68.5827C68.5827 40.5051 68.547 40.6481 68.4577 40.7195C68.4398 41.0411 68.4041 41.3805 68.3148 41.7378C68.3148 41.7378 67.9753 41.9343 62.8303 42.6132C61.6691 42.7561 65.0456 42.6132 57.7389 43.024C47.6454 43.5957 50.7539 43.3456 50.7539 43.3456C51.1111 43.1848 51.4148 43.024 51.7364 42.8633C47.5918 43.0062 42.6612 43.0419 36.8552 42.9347C18.3296 42.6132 6.16376 40.6838 5.59209 39.4511C5.59209 39.469 5.59209 39.5047 5.59209 39.5226H5.55636L4.73459 39.0581C4.57381 39.3439 4.59167 39.6655 4.73459 39.9513C4.78818 40.0585 4.9311 40.1478 5.03829 40.2372C6.19949 41.2555 10.1476 42.0415 15.2211 42.631Z" fill="white"/>
<path opacity="0.4" d="M48.0743 14.2085C48.2708 14.5122 48.7531 14.4943 48.8603 14.3514C48.8603 14.3514 48.8603 14.3335 48.8603 14.3157C48.5566 14.4943 48.2172 14.405 48.0564 14.2085H48.0743Z" fill="white"/>
<path d="M41.8572 9.83143C35.3902 11.5464 34.4613 19.8713 38.8202 24.1231C43.1077 28.3034 68.4576 34.3774 51.7363 42.8631C62.2229 42.5237 67.6001 41.5769 68.4576 40.7194C68.8864 34.8598 61.0795 32.5374 61.0795 32.5374C68.2075 27.7854 49.2532 20.5859 49.2532 20.5859C49.2532 20.5859 49.2532 20.5859 49.2353 20.5859C48.8423 20.3716 48.4671 20.175 48.092 19.9607C46.9308 19.2818 45.1979 18.1027 44.1796 16.62C44.1439 16.5664 44.0903 16.4949 44.0546 16.4413C43.9652 16.2984 43.8759 16.1555 43.8045 16.0126C43.8045 16.0126 43.8044 15.9947 43.7866 15.9769C42.9291 14.2797 43.2328 13.4401 43.5722 13.0292C43.6973 12.922 43.8223 12.8327 43.9652 12.7434C44.787 12.261 45.4123 12.2432 45.716 12.261C46.1447 12.3325 46.6628 12.4933 47.1273 12.8506C47.163 12.8684 47.1987 12.9041 47.2345 12.9399C47.3774 13.0828 47.5203 13.2436 47.6453 13.3865C47.6811 13.4401 47.7168 13.4758 47.7525 13.5294C47.7883 13.583 47.824 13.6366 47.8597 13.6723C47.9133 13.7616 47.949 13.8688 47.9848 13.9582C47.9848 14.0475 48.0384 14.1011 48.0741 14.1725C48.2349 14.369 48.5564 14.4584 48.878 14.2797C49.8248 12.8327 46.0197 8.68809 41.8572 9.7957V9.83143Z" fill="#B7A59C"/>
<path opacity="0.4" d="M41.8572 9.83143C35.3902 11.5464 34.4613 19.8713 38.8202 24.1231C43.1077 28.3034 68.4576 34.3774 51.7363 42.8631C62.2229 42.5237 67.6001 41.5769 68.4576 40.7194C68.8864 34.8598 61.0795 32.5374 61.0795 32.5374C68.2075 27.7854 49.2532 20.5859 49.2532 20.5859C49.2532 20.5859 49.2532 20.5859 49.2353 20.5859C48.8423 20.3716 48.4671 20.175 48.092 19.9607C46.9308 19.2818 45.1979 18.1027 44.1796 16.62C44.1439 16.5664 44.0903 16.4949 44.0546 16.4413C43.9652 16.2984 43.8759 16.1555 43.8045 16.0126C43.8045 16.0126 43.8044 15.9947 43.7866 15.9769C42.9291 14.2797 43.2328 13.4401 43.5722 13.0292C43.6973 12.922 43.8223 12.8327 43.9652 12.7434C44.787 12.261 45.4123 12.2432 45.716 12.261C46.1447 12.3325 46.6628 12.4933 47.1273 12.8506C47.163 12.8684 47.1987 12.9041 47.2345 12.9399C47.3774 13.0828 47.5203 13.2436 47.6453 13.3865C47.6811 13.4401 47.7168 13.4758 47.7525 13.5294C47.7883 13.583 47.824 13.6366 47.8597 13.6723C47.9133 13.7616 47.949 13.8688 47.9848 13.9582C47.9848 14.0475 48.0384 14.1011 48.0741 14.1725C48.2349 14.369 48.5564 14.4584 48.878 14.2797C49.8248 12.8327 46.0197 8.68809 41.8572 9.7957V9.83143Z" fill="white"/>
<path d="M51.7363 42.8635C51.4148 43.0243 51.1111 43.185 50.7538 43.3458C50.7538 43.3458 47.6275 43.5959 57.7389 43.0243C65.0455 42.6134 61.6869 42.7742 62.8303 42.6134C67.9574 41.9345 68.3147 41.738 68.3147 41.738C68.3862 41.3807 68.4219 41.0413 68.4576 40.7197C67.6001 41.5772 62.2229 42.5241 51.7363 42.8635Z" fill="white"/>
<path opacity="0.4" d="M51.7363 42.8635C51.4148 43.0243 51.1111 43.185 50.7538 43.3458C50.7538 43.3458 47.6275 43.5959 57.7389 43.0243C65.0455 42.6134 61.6869 42.7742 62.8303 42.6134C67.9574 41.9345 68.3147 41.738 68.3147 41.738C68.3862 41.3807 68.4219 41.0413 68.4576 40.7197C67.6001 41.5772 62.2229 42.5241 51.7363 42.8635Z" fill="white"/>
<path d="M47.8599 49.9916C47.7349 48.5802 46.9131 47.4905 46.0377 47.5798C45.1623 47.6692 44.5728 48.8839 44.6979 50.2953C44.8229 51.7066 45.6447 52.7963 46.5201 52.707C47.3954 52.6177 47.985 51.4029 47.8599 49.9916Z" fill="#211E1F"/>
<path d="M28.8519 48.5266C27.9766 48.6159 27.387 49.8307 27.5121 51.242C27.6371 52.6533 28.4589 53.7431 29.3343 53.6538C30.2096 53.5644 30.7992 52.3496 30.6741 50.9383C30.5491 49.527 29.7273 48.4373 28.8519 48.5266Z" fill="#211E1F"/>
<path d="M75.3177 69.8746C76.7111 69.5709 77.6937 68.642 77.515 67.7666C77.3542 67.052 76.4253 66.6233 75.2998 66.6769V69.8746H75.3177Z" fill="#211E1F"/>
<path d="M73.2455 67.3735C72.656 67.8023 72.3344 68.3382 72.4416 68.8742C72.4416 68.9456 72.4952 69.0171 72.5309 69.0885C70.5122 70.8214 66.8142 70.7499 64.7241 69.821C64.6705 69.8031 64.5811 69.7495 64.4918 69.6959C64.0452 69.4637 63.3485 68.9992 63.4557 68.4454C63.5093 68.1596 63.3306 67.8916 63.0448 67.838C62.759 67.7666 62.491 67.9631 62.4374 68.2489C62.2409 69.2315 62.9197 70.1426 64.2953 70.7678C64.2953 70.7678 64.2953 70.7678 64.3132 70.7678C65.3315 71.2144 66.707 71.5003 68.1362 71.5003C69.9763 71.5003 71.8878 71.0179 73.2455 69.8389V67.3735Z" fill="#211E1F"/>
<path d="M23.8497 54.1182C22.3312 54.2789 21.2415 55.6188 21.3844 57.1373C21.5452 58.6558 22.885 59.7455 24.4035 59.6026C25.922 59.4418 27.0118 58.102 26.8689 56.6013C26.7081 55.0829 25.3682 53.9931 23.8676 54.136L23.8497 54.1182Z" fill="#DF5551"/>
<path opacity="0.5" d="M23.8497 54.1182C22.3312 54.2789 21.2415 55.6188 21.3844 57.1373C21.5452 58.6558 22.885 59.7455 24.4035 59.6026C25.922 59.4418 27.0118 58.102 26.8689 56.6013C26.7081 55.0829 25.3682 53.9931 23.8676 54.136L23.8497 54.1182Z" fill="#CE0E2D"/>
<path d="M52.3617 51.5632C50.8432 51.724 49.7535 53.0638 49.8964 54.5644C50.0572 56.0829 51.397 57.1727 52.9155 57.0297C54.434 56.8868 55.5237 55.5291 55.3808 54.0106C55.22 52.4921 53.8802 51.4024 52.3796 51.5453L52.3617 51.5632Z" fill="#DF5551"/>
<path opacity="0.5" d="M52.3617 51.5632C50.8432 51.724 49.7535 53.0638 49.8964 54.5644C50.0572 56.0829 51.397 57.1727 52.9155 57.0297C54.434 56.8868 55.5237 55.5291 55.3808 54.0106C55.22 52.4921 53.8802 51.4024 52.3796 51.5453L52.3617 51.5632Z" fill="#CE0E2D"/>
<path d="M43.3579 55.3326C43.2507 55.2612 43.1078 55.2255 42.9827 55.2433L34.1933 56.7618C33.9075 56.8154 33.7288 57.0834 33.7824 57.3513C33.9968 58.584 34.7114 59.638 35.7833 60.3526C36.605 60.8885 37.5697 61.1565 38.5523 61.1565C38.856 61.1565 39.1597 61.1386 39.4634 61.0851C42.1609 60.6206 44.0189 58.191 43.5901 55.6721C43.5722 55.5292 43.5008 55.422 43.3757 55.3326H43.3579Z" fill="#211E1F"/>
<path d="M13.8813 68.2131C14.1671 68.1595 14.3458 67.8915 14.2922 67.6057C14.2386 67.3198 13.9706 67.1233 13.6848 67.1948C13.649 67.1948 12.0948 67.4806 10.219 67.4092C8.61122 67.3556 6.78903 67.034 5.52064 66.0693C2.62657 63.8541 2.50152 60.1919 2.62657 58.459C3.34116 58.6376 4.00215 58.5662 4.34158 58.1374C4.87752 57.4407 4.37731 56.1723 3.25184 55.297C2.1085 54.4395 0.768654 54.2965 0.232715 54.9933C-0.303224 55.69 0.196986 56.9584 1.32246 57.8337C1.42964 57.9052 1.51897 57.9409 1.62616 58.0124C1.42964 59.7631 1.35819 64.1935 4.89538 66.8911C6.4496 68.088 8.61122 68.4096 10.4334 68.4453C10.5585 68.4453 10.7014 68.4632 10.8264 68.4632C12.4878 68.4632 13.7741 68.2309 13.8813 68.2131Z" fill="#211E1F"/>
<path d="M119.175 29.1789C119.693 29.2682 120.212 29.3754 120.73 29.5183C120.765 29.5183 120.783 29.5183 120.819 29.5362C121.301 29.6612 121.784 29.8399 122.266 30.0185C122.337 30.0364 122.391 30.0543 122.462 30.09C122.927 30.2686 123.391 30.483 123.856 30.7152C123.945 30.751 124.035 30.7867 124.124 30.8403C124.571 31.0725 125.017 31.3405 125.464 31.6085C125.571 31.6621 125.66 31.7157 125.767 31.7871C126.196 32.073 126.625 32.3945 127.072 32.7161C127.072 32.7161 127.107 32.734 127.107 32.7518V28.4286C126.196 27.7855 121.837 24.8378 117.21 24.7306C112.476 24.6413 108.171 26.2491 103.24 28.1249C99.1849 29.6791 94.5937 31.4298 88.9485 32.4303C86.8226 32.8054 84.8753 32.7161 83.0889 32.4303L86.894 36.9857C97.6485 36.3962 108.403 27.4818 119.158 29.2146L119.175 29.1789Z" fill="#CE0E2D"/>
<path d="M125.785 31.7693C125.678 31.6979 125.589 31.6621 125.482 31.5907C125.035 31.3048 124.588 31.0369 124.142 30.8225C124.052 30.7689 123.963 30.751 123.874 30.6974C123.409 30.4652 122.945 30.2508 122.48 30.0722C122.409 30.0543 122.355 30.0364 122.284 30.0007C121.801 29.8221 121.319 29.6613 120.837 29.5184C120.801 29.5184 120.783 29.5184 120.747 29.5005C120.229 29.3576 119.711 29.2504 119.193 29.1611C108.439 27.4103 97.6842 36.3427 86.9297 36.9322L90.5562 41.2733C90.5562 41.2733 90.6813 41.2554 90.7527 41.2376C90.8956 41.2018 91.0386 41.184 91.1815 41.1482C91.6281 41.0411 92.0747 40.9339 92.5392 40.8088C92.6285 40.7909 92.7357 40.7552 92.825 40.7374C93.2716 40.6123 93.7361 40.4694 94.1827 40.3265C94.272 40.2907 94.3792 40.2729 94.4686 40.2371C94.9688 40.0764 95.4868 39.8977 95.987 39.7191C96.0228 39.7191 96.0764 39.6833 96.1121 39.6833C99.4171 38.5221 102.722 37.0751 106.045 35.896C106.116 35.8782 106.188 35.8424 106.259 35.8246C106.742 35.6638 107.206 35.503 107.688 35.3422C107.796 35.3065 107.921 35.2708 108.028 35.2351C108.457 35.0921 108.903 34.9671 109.332 34.842C109.475 34.8063 109.618 34.7706 109.761 34.7348C110.172 34.6277 110.565 34.5205 110.975 34.4311C111.154 34.3954 111.315 34.3597 111.494 34.324C111.869 34.2525 112.244 34.1632 112.637 34.0917C112.816 34.056 113.012 34.0381 113.191 34.0203C113.548 33.9667 113.923 33.9131 114.28 33.8773C114.477 33.8595 114.656 33.8595 114.852 33.8416C115.209 33.8237 115.567 33.788 115.942 33.7702C116.138 33.7702 116.335 33.7702 116.513 33.7702C116.871 33.7702 117.228 33.7702 117.585 33.788C117.782 33.788 117.978 33.8416 118.157 33.8595C118.514 33.8952 118.872 33.9309 119.229 33.9845C119.425 34.0203 119.622 34.0739 119.818 34.1096C120.176 34.181 120.515 34.2525 120.872 34.3418C121.087 34.3954 121.301 34.4847 121.498 34.5383C121.837 34.6455 122.177 34.7348 122.516 34.8778C122.73 34.9671 122.945 35.0743 123.141 35.1636C123.481 35.3065 123.82 35.4494 124.16 35.6281C124.374 35.7353 124.588 35.8782 124.803 35.9854C125.142 36.1819 125.482 36.3605 125.821 36.5749C126.035 36.7178 126.268 36.8965 126.482 37.0572C126.696 37.218 126.929 37.3609 127.143 37.5217V32.6804C127.143 32.6804 127.107 32.6625 127.107 32.6447C126.678 32.3231 126.25 32.0016 125.803 31.7157L125.785 31.7693Z" fill="#F48021"/>
<path d="M125.803 36.6109C125.464 36.3965 125.124 36.2179 124.785 36.0214C124.57 35.8963 124.356 35.7713 124.142 35.6641C123.802 35.4854 123.463 35.3604 123.123 35.1996C122.909 35.1103 122.695 35.0031 122.498 34.9138C122.159 34.7887 121.819 34.6815 121.48 34.5743C121.265 34.5029 121.051 34.4314 120.855 34.3778C120.497 34.2885 120.158 34.217 119.801 34.1456C119.604 34.1099 119.408 34.0563 119.211 34.0205C118.854 33.9669 118.496 33.9312 118.139 33.8955C117.943 33.8776 117.746 33.8419 117.567 33.824C117.21 33.8062 116.853 33.8062 116.496 33.8062C116.299 33.8062 116.103 33.8062 115.924 33.8062C115.567 33.8062 115.209 33.8419 114.834 33.8776C114.638 33.8776 114.459 33.8776 114.263 33.9133C113.905 33.9491 113.53 34.0027 113.173 34.0563C112.994 34.092 112.798 34.092 112.619 34.1277C112.244 34.1992 111.869 34.2706 111.476 34.36C111.297 34.3957 111.136 34.4314 110.958 34.4671C110.547 34.5565 110.154 34.6637 109.743 34.7708C109.6 34.8066 109.457 34.8423 109.314 34.878C108.885 35.0031 108.439 35.1281 108.01 35.2711C107.903 35.3068 107.778 35.3425 107.67 35.3782C107.188 35.539 106.724 35.6998 106.241 35.8606C106.17 35.8784 106.098 35.9142 106.027 35.932C102.722 37.0932 99.417 38.5403 96.0942 39.7193C96.0585 39.7193 96.0049 39.7551 95.9692 39.7551C95.469 39.9337 94.9509 40.1124 94.4507 40.2731C94.3614 40.3089 94.2542 40.3267 94.1648 40.3625C93.7182 40.5054 93.2538 40.6483 92.8071 40.7734C92.7178 40.8091 92.6106 40.8269 92.5213 40.8448C92.0747 40.9699 91.6281 41.0771 91.1636 41.1842C91.0207 41.22 90.8778 41.2378 90.7348 41.2736C90.6634 41.2736 90.6098 41.2914 90.5383 41.3093L93.5753 44.9358L92.8429 45.5968C100.507 43.453 108.189 38.8261 115.852 38.6475C116.353 38.6475 116.853 38.6475 117.353 38.6832C117.407 38.6832 117.46 38.6832 117.496 38.6832C118.014 38.7189 118.532 38.7725 119.05 38.8618C119.086 38.8618 119.122 38.8618 119.14 38.8618C119.604 38.9333 120.086 39.0405 120.551 39.1655C120.622 39.1834 120.712 39.2013 120.783 39.2191C121.248 39.3442 121.73 39.505 122.194 39.6836C122.266 39.7193 122.355 39.7372 122.427 39.7551C122.873 39.9159 123.302 40.1302 123.749 40.3446C123.856 40.3982 123.963 40.4339 124.07 40.4875C124.499 40.7019 124.928 40.9699 125.356 41.22C125.482 41.2914 125.607 41.345 125.714 41.4343C126.143 41.7023 126.553 42.0239 126.982 42.3454C127.018 42.3633 127.036 42.3812 127.071 42.399V37.5577C126.857 37.3969 126.625 37.2362 126.41 37.0932C126.196 36.9325 125.964 36.7538 125.749 36.6109H125.803Z" fill="#FCBA24"/>
<path d="M125.785 41.4343C125.66 41.3629 125.535 41.2914 125.428 41.22C124.999 40.952 124.57 40.7019 124.142 40.4875C124.035 40.4339 123.927 40.3982 123.82 40.3446C123.374 40.1302 122.945 39.9337 122.498 39.7551C122.427 39.7193 122.337 39.7015 122.266 39.6836C121.801 39.505 121.319 39.3442 120.855 39.2191C120.783 39.2013 120.694 39.1834 120.622 39.1655C120.158 39.0405 119.676 38.9333 119.211 38.8618C119.175 38.8618 119.14 38.8618 119.122 38.8618C118.604 38.7725 118.086 38.7189 117.568 38.6832C117.514 38.6832 117.46 38.6832 117.425 38.6832C116.924 38.6475 116.424 38.6475 115.924 38.6475C108.26 38.8261 100.578 43.453 92.9143 45.5968L86.3044 51.51C99.9351 51.2242 113.566 36.8789 127.197 47.2403V42.4169C127.197 42.4169 127.143 42.3812 127.107 42.3633C126.678 42.0417 126.268 41.738 125.839 41.4522L125.785 41.4343Z" fill="#62BA46"/>
<path d="M86.2331 51.4921L81.4275 55.7796C96.666 59.7456 111.887 40.4875 127.125 52.0638V47.2225C113.494 36.861 99.8638 51.2063 86.2331 51.4921Z" fill="#00A0DF"/>
<path d="M81.4275 55.7795L77.9082 58.9237C79.4267 59.7633 81.4454 60.5851 83.7678 60.7637C88.0732 61.0853 92.6286 60.5493 100.9 56.8692C110.797 52.4745 116.907 52.3852 120.283 53.0998C123.231 53.725 125.893 55.4579 127.125 56.3511V52.0636C111.887 40.4874 96.6661 59.7454 81.4275 55.7795Z" fill="#8C549D"/>
<path d="M127.84 27.8211C127.625 27.6603 122.713 23.9445 117.264 23.8194C112.297 23.7122 107.974 25.3558 102.954 27.2673C98.9347 28.8036 94.3792 30.5365 88.8233 31.5369C81.874 32.7875 76.3002 28.8572 75.3177 28.0891V28.6429C75.9072 29.0716 77.0863 29.8398 78.6762 30.5722C79.8196 31.0903 81.1594 31.5548 82.6779 31.8764L83.1066 32.3944C84.8752 32.6981 86.8403 32.7875 88.9662 32.3944C94.6115 31.3762 99.2027 29.6254 103.258 28.0891C108.189 26.2133 112.494 24.6055 117.228 24.6948C121.855 24.802 126.214 27.7496 127.125 28.3928V32.716V42.3808V52.0455V56.333C125.892 55.4398 123.231 53.7069 120.283 53.0817C116.907 52.3671 110.815 52.4564 100.9 56.8511C92.6285 60.5312 88.0551 61.0672 83.7676 60.7456C81.4452 60.5669 79.4265 59.7452 77.908 58.9055L77.5507 59.2271C76.7111 58.7626 76.0501 58.2981 75.5856 57.9587C75.4606 57.8694 75.3891 57.7979 75.2998 57.7265V58.2981C76.6575 59.3343 79.766 61.3351 83.6962 61.621C84.3929 61.6745 85.1075 61.7103 85.8399 61.7103C89.7165 61.7103 94.1648 60.817 101.257 57.6729C110.958 53.3675 116.853 53.2782 120.086 53.957C123.838 54.7431 127.232 57.5478 127.268 57.5657L127.983 58.1731V27.964L127.804 27.839L127.84 27.8211Z" fill="#443635"/>
<path d="M90.4669 44.6856L75.6035 57.959C76.068 58.2984 76.729 58.7629 77.5686 59.2274L77.9259 58.9058L81.4452 55.7617L86.2508 51.4742L92.8607 45.561L93.5932 44.9L90.5562 41.2735L86.9297 36.9324L83.1245 32.3769L82.6958 31.8588C81.1773 31.5551 79.8196 31.0728 78.6941 30.5547L90.4847 44.6677L90.4669 44.6856Z" fill="#221F1F"/>
<path d="M75.2998 30.0367L87.3406 44.4535L75.2998 55.208V57.7447C75.3891 57.8162 75.4785 57.8876 75.5856 57.977L90.449 44.7036L78.6583 30.5905C77.0505 29.8759 75.8893 29.0899 75.2998 28.6611V30.0546V30.0367Z" fill="#624024"/>
<path d="M87.3406 44.4534L75.2998 30.0366V33.5381L84.2142 44.2211L75.2998 52.1709V55.2079L87.3406 44.4534Z" fill="#6DCFF6"/>
<path d="M84.2142 44.2211L75.2998 33.5381V37.0396L81.1058 43.971L75.2998 49.1518V52.1709L84.2142 44.2211Z" fill="#F391BC"/>
<path d="M81.1058 43.971L75.2998 37.0396V49.1518L81.1058 43.971Z" fill="white"/>
<path d="M75.2997 57.7445V25.0165C76.193 24.8022 76.8361 24.2841 76.8361 23.6588C76.8361 22.8371 75.7642 22.1761 74.4422 22.1582C73.1024 22.1582 72.0305 22.8013 72.0305 23.6231C72.0305 24.1769 72.5307 24.6414 73.2632 24.8915V80.7184C73.2632 81.2901 73.7277 81.7546 74.2815 81.7546C74.8353 81.7546 75.3176 81.2901 75.3176 80.7184V57.7267L75.2997 57.7445Z" fill="#221F1F"/>
</svg>
