<svg width="128" height="128" viewBox="0 0 128 128" fill="none" xmlns="http://www.w3.org/2000/svg">
<path d="M92.0714 124.945V122.757C85.807 122.234 77.2799 121.897 67.7617 121.822V123.206C69.8 123.487 71.2212 124.16 71.2212 124.945C71.2212 125.992 68.6032 126.123 65.4803 126.123C62.3575 126.123 59.9265 125.992 59.9265 124.945C59.9265 124.16 61.3477 123.505 63.3485 123.206V121.822C52.9141 121.86 43.5642 122.215 36.8884 122.795V124.945H30.8483V123.468C28.0434 123.898 26.4352 124.384 26.4352 124.908C26.4352 126.609 43.5455 127.993 64.6388 127.993C85.7322 127.993 102.842 126.609 102.842 124.908C102.842 124.365 101.122 123.861 98.1114 123.412V124.945H92.0714Z" fill="#989898"/>
<path d="M67.7618 100.935V101.888H63.3674V100.953V123.206C61.3478 123.486 59.9453 124.16 59.9453 124.945C59.9453 125.992 62.395 126.123 65.4991 126.123C68.6033 126.123 71.24 125.992 71.24 124.945C71.24 124.16 69.8188 123.486 67.7805 123.206V100.935H67.7618Z" fill="#666667"/>
<path d="M63.3674 100.972V101.907H67.7619V100.953C66.8456 100.991 65.9293 101.009 64.9943 101.009C64.452 101.009 63.9097 101.009 63.3674 100.991V100.972Z" fill="#666667"/>
<g opacity="0.5" style="mix-blend-mode:multiply">
<path d="M63.3674 100.972V101.907H67.7619V100.953C66.8456 100.991 65.9293 101.009 64.9943 101.009C64.452 101.009 63.9097 101.009 63.3674 100.991V100.972Z" fill="#989898"/>
</g>
<path d="M43.957 91.3789C43.957 91.0423 44.0879 90.7057 44.3496 90.3878L44.1813 89.5276C41.5073 90.7057 39.9552 92.1082 39.9552 93.6228C39.9552 94.9692 41.2081 96.2221 43.3399 97.3067L46.7993 94.2025C45.2659 93.4919 43.9944 92.557 43.9757 91.3602L43.957 91.3789Z" fill="#65192E"/>
<path d="M90.0145 93.6228C90.0145 92.0333 88.2754 90.5561 85.3396 89.3406L84.9282 91.9024C85.2461 92.2764 85.4331 92.6504 85.4331 93.0244C85.4518 94.0716 84.2176 94.9692 82.1045 95.6985L85.0778 97.9799C88.1445 96.7644 89.9958 95.2497 89.9958 93.6041L90.0145 93.6228Z" fill="#65192E"/>
<path d="M64.9754 100.99C65.9104 100.99 66.8454 100.99 67.743 100.934C74.2318 100.729 79.9539 99.775 83.9744 98.3912L80.9263 96.0538C77.149 97.0822 71.3333 97.6058 64.7884 97.344C59.9265 97.157 55.4385 96.5586 51.8856 95.7172V95.8294C51.5116 95.7172 49.6416 95.3245 47.7903 94.6326L44.2935 97.7741C48.5196 99.588 55.4198 100.822 63.3298 100.972C63.8721 100.972 64.3957 100.99 64.9567 100.99H64.9754Z" fill="#65192E"/>
<path d="M86.9291 100.654C86.8917 101.309 87.0787 101.888 87.5088 102.113C88.2568 102.505 89.3788 101.851 90.0146 100.635C90.6504 99.4198 90.5756 98.1296 89.8276 97.7369C89.0796 97.3442 87.9576 97.9987 87.3218 99.2141C87.247 99.345 87.2283 99.4759 87.1722 99.6068L85.0779 97.9987L82.1046 95.7173C81.7493 95.8482 81.3566 95.9604 80.9265 96.0726L83.9746 98.4101L86.9104 100.654H86.9291Z" fill="#211E1F"/>
<path d="M101.496 41.7685C101.384 42.236 101.029 43.9003 101.197 44.3304C101.534 45.228 102.412 45.7889 102.188 46.6491C102.095 47.0231 101.608 48.7435 101.01 50.8005C101.534 50.9688 101.945 51.2119 102.225 51.5111C102.674 49.2484 103.067 47.2849 103.16 46.8922C103.366 46.032 104.357 45.9198 105.068 45.2654C105.423 44.9475 105.591 43.545 105.704 43.0775C105.928 42.1799 108.097 32.1942 108.565 27.351C108.845 24.3964 105.012 25.9485 101.478 41.7498L101.496 41.7685Z" fill="#666667"/>
<path d="M98.7099 58.7851C98.579 59.3087 98.1489 60.4307 98.1489 60.4307L99.3083 60.7112L100.486 60.9917C100.486 60.9917 100.58 59.8323 100.729 59.2713C100.767 59.1217 101.309 56.298 101.889 53.3809C101.44 53.6053 100.86 53.7175 100.206 53.6801C99.4579 56.298 98.766 58.6542 98.7286 58.7851H98.7099Z" fill="#666667"/>
<path d="M93.6236 48.1451L91.8845 47.7898L91.6975 49.0053C92.8008 48.5378 93.474 48.2199 93.6236 48.1451Z" fill="#0D72B9"/>
<path d="M36.2339 47.9019L34.046 47.9767C34.046 47.9767 34.9062 48.4254 36.4583 49.0799L36.2339 47.9019Z" fill="#0D72B9"/>
<path d="M46.7993 94.2212L43.3399 97.3254L41.9187 98.5969C41.8626 98.466 41.8252 98.3538 41.7504 98.2229C41.0211 97.0636 39.843 96.5026 39.1324 96.9514C38.4218 97.4002 38.4405 98.7091 39.1698 99.8685C39.8991 101.028 41.0772 101.589 41.7878 101.14C42.2179 100.878 42.3488 100.299 42.2553 99.6441L44.3123 97.7928L47.8091 94.6513C47.4725 94.5204 47.1172 94.3708 46.7993 94.2212Z" fill="#211E1F"/>
<path d="M63.5356 34.943C57.2525 34.8308 49.1555 34.4381 42.835 33.7089L45.5464 52.2403C50.4832 53.6054 56.6915 54.8022 63.5917 54.9331C75.8027 55.1388 87.2095 50.9127 91.6788 49.024L91.8658 47.8085L94.0537 33.952L94.2407 32.6243H94.222C91.2861 34.6251 78.7385 35.0178 69.5196 35.0178C67.2569 35.0178 65.1999 34.9991 63.5356 34.9617V34.943ZM50.7824 50.3891C49.3425 50.5387 48.0522 49.4728 47.9026 48.0329C47.753 46.593 48.8189 45.3027 50.2588 45.1531C51.6987 45.0035 52.9889 46.0694 53.1385 47.5093C53.2881 48.9492 52.2223 50.2395 50.7824 50.3891ZM56.3362 44.2742C55.4947 44.349 54.728 43.3205 54.5971 41.9555C54.4662 40.5904 55.0459 39.431 55.8874 39.3562C56.7289 39.2814 57.4956 40.3099 57.6265 41.675C57.7574 43.04 57.1777 44.1994 56.3362 44.2742ZM79.9353 42.1612C81.3752 42.0116 82.6655 43.0774 82.8151 44.5173C82.9647 45.9572 81.8988 47.2475 80.4589 47.3971C79.019 47.5467 77.7288 46.4808 77.5792 45.0409C77.4296 43.601 78.4954 42.3108 79.9353 42.1612ZM72.3432 38.4586C73.1847 38.3838 73.9514 39.4123 74.0823 40.7774C74.2132 42.1425 73.6335 43.3018 72.792 43.3766C71.9505 43.4514 71.1838 42.423 71.0529 41.0579C70.922 39.6928 71.5017 38.5334 72.3432 38.4586ZM71.2025 46.6304C71.483 46.5743 71.7448 46.7239 71.8009 46.9857C71.8757 47.2475 71.7074 47.528 71.4456 47.5841C71.3147 47.6215 71.1651 47.6402 71.0342 47.6402C70.8098 47.6402 70.6041 47.5654 70.3797 47.4906C70.0805 48.1077 69.2204 49.4167 67.0886 49.7907C66.6585 49.8655 66.2471 49.9029 65.8918 49.9029C63.4421 49.9029 62.3949 48.4443 62.3201 48.3508C61.8526 48.6126 61.4225 48.7248 61.329 48.7622C61.2916 48.7622 61.2542 48.7622 61.2168 48.7622C60.9924 48.7622 60.7868 48.6126 60.7307 48.3882C60.6559 48.1264 60.8242 47.8459 61.0859 47.7898C61.4225 47.6963 62.4323 47.3223 62.5632 46.7052C62.6193 46.4434 62.8811 46.2564 63.1429 46.3125C63.4047 46.3686 63.5917 46.6304 63.5356 46.8922C63.4795 47.2288 63.3112 47.5093 63.1055 47.7524C63.1055 47.7524 63.1429 47.7524 63.1429 47.7898C63.1803 47.8459 64.2462 49.3045 66.939 48.837C68.7155 48.5191 69.3513 47.4345 69.5196 47.0418C69.1456 46.7426 68.9025 46.4434 68.8464 46.3873C68.6781 46.1816 68.7155 45.8637 68.9212 45.6954C69.1456 45.5271 69.4447 45.5645 69.613 45.7702C69.8374 46.0507 70.6041 46.7987 71.2025 46.6491V46.6304Z" fill="#DF5551"/>
<path d="M48.8937 74.4931C48.8937 74.4931 48.8189 74.4931 48.7815 74.4744V74.5118C48.7815 74.5118 48.8563 74.5118 48.8937 74.4931Z" fill="#DF5551"/>
<path d="M78.5889 69.4628C80.0101 69.8368 81.2442 70.7904 81.9174 72.2116C82.2914 73.0157 82.4223 73.8946 82.3662 74.7548C84.3484 75.1849 85.059 75.5215 85.059 75.5215C85.1525 75.5215 85.1899 75.5215 85.1899 75.5215C85.1899 75.5215 85.0029 78.1208 82.1418 80.6452H86.7046L88.3315 70.2668C85.6387 69.575 82.2914 69.1075 78.5889 69.4628Z" fill="#DF5551"/>
<path d="M51.9045 95.7171C55.4574 96.5586 59.9267 97.157 64.8073 97.344C71.3522 97.6058 77.1679 97.0822 80.9452 96.0537C81.3566 95.9415 81.7493 95.8293 82.1233 95.6984C84.2364 94.9691 85.4706 94.0529 85.4519 93.0244C85.4519 92.6504 85.2649 92.2577 84.947 91.9024L85.3584 89.3405L85.695 87.2087H50.689L51.9232 95.6984L51.9045 95.7171Z" fill="#DF5551"/>
<path d="M46.7994 94.2213L46.9116 94.1091C45.0603 93.2676 43.9757 92.3326 43.957 91.3789C43.9757 92.5757 45.266 93.5107 46.7807 94.2213H46.7994Z" fill="#65192E"/>
<g opacity="0.2" style="mix-blend-mode:multiply">
<path d="M46.7994 94.2213L46.9116 94.1091C45.0603 93.2676 43.9757 92.3326 43.957 91.3789C43.9757 92.5757 45.266 93.5107 46.7807 94.2213H46.7994Z" fill="#A32035"/>
</g>
<path d="M51.923 95.848V95.7358C50.3897 95.3806 49.062 94.9879 47.9213 94.5391L47.8091 94.6513C49.6417 95.3432 51.5303 95.7358 51.923 95.848Z" fill="#65192E"/>
<g opacity="0.2" style="mix-blend-mode:multiply">
<path d="M51.923 95.848V95.7358C50.3897 95.3806 49.062 94.9879 47.9213 94.5391L47.8091 94.6513C49.6417 95.3432 51.5303 95.7358 51.923 95.848Z" fill="#A32035"/>
</g>
<path d="M47.8091 94.6326L47.9213 94.5204C47.566 94.3895 47.2294 94.2399 46.9115 94.0903L46.7993 94.2025C47.1359 94.3521 47.4725 94.5017 47.8091 94.6326Z" fill="#211E1F"/>
<g opacity="0.2" style="mix-blend-mode:multiply">
<path d="M47.8091 94.6326L47.9213 94.5204C47.566 94.3895 47.2294 94.2399 46.9115 94.0903L46.7993 94.2025C47.1359 94.3521 47.4725 94.5017 47.8091 94.6326Z" fill="#A32035"/>
</g>
<path d="M44.9855 75.5775H44.9481L44.9668 75.5401V75.5214C44.9668 75.5214 45.0042 75.5214 45.0229 75.5214C45.3408 75.4092 46.7246 74.9978 48.7815 74.5116V74.4742C45.9953 73.8384 43.3025 72.9782 40.8154 72.0059L42.461 80.6265H48.4262C45.6213 78.2703 45.0416 75.858 44.9668 75.5588L44.9855 75.5775Z" fill="#DF5551"/>
<g opacity="0.2" style="mix-blend-mode:multiply">
<path d="M44.9855 75.5775H44.9481L44.9668 75.5401V75.5214C44.9668 75.5214 45.0042 75.5214 45.0229 75.5214C45.3408 75.4092 46.7246 74.9978 48.7815 74.5116V74.4742C45.9953 73.8384 43.3025 72.9782 40.8154 72.0059L42.461 80.6265H48.4262C45.6213 78.2703 45.0416 75.858 44.9668 75.5588L44.9855 75.5775Z" fill="#A32035"/>
</g>
<path d="M44.3496 90.3879C44.0878 90.7058 43.9569 91.0237 43.9569 91.379C43.9569 92.3327 45.0602 93.2677 46.9115 94.1092C47.2294 94.2588 47.566 94.3897 47.9213 94.5392C49.0433 94.9693 50.3896 95.3807 51.9043 95.736L50.6701 87.2463H43.7512L44.2 89.5464L44.3683 90.4066L44.3496 90.3879Z" fill="#DF5551"/>
<g opacity="0.2" style="mix-blend-mode:multiply">
<path d="M44.3496 90.3879C44.0878 90.7058 43.9569 91.0237 43.9569 91.379C43.9569 92.3327 45.0602 93.2677 46.9115 94.1092C47.2294 94.2588 47.566 94.3897 47.9213 94.5392C49.0433 94.9693 50.3896 95.3807 51.9043 95.736L50.6701 87.2463H43.7512L44.2 89.5464L44.3683 90.4066L44.3496 90.3879Z" fill="#A32035"/>
</g>
<path d="M45.5464 52.2403L42.8349 33.7089C37.973 33.1479 34.1956 32.3999 33.0736 31.4275C33.0736 31.4462 33.0736 31.4836 33.0736 31.5023L36.2152 47.9207L36.4396 49.0988C38.4217 49.9403 41.5633 51.1558 45.5277 52.2403H45.5464Z" fill="#DF5551"/>
<g opacity="0.2" style="mix-blend-mode:multiply">
<path d="M45.5464 52.2403L42.8349 33.7089C37.973 33.1479 34.1956 32.3999 33.0736 31.4275C33.0736 31.4462 33.0736 31.4836 33.0736 31.5023L36.2152 47.9207L36.4396 49.0988C38.4217 49.9403 41.5633 51.1558 45.5277 52.2403H45.5464Z" fill="#A32035"/>
</g>
<path d="M33.5972 30.6607C34.1395 31.8575 45.8082 33.6901 63.5356 34.008C69.0894 34.1015 73.8018 34.0641 77.7848 33.9332C93.7918 25.8175 69.5195 19.9831 65.4243 15.9814C61.2542 11.9048 62.1331 3.93873 68.3227 2.29315C72.3058 1.22726 75.9522 5.21031 75.0359 6.5941C75.2977 6.4445 75.5221 6.1266 75.5969 5.49081C75.5969 5.49081 75.5969 5.45341 75.5969 5.43471C76.1579 2.40535 71.8383 0.423168 69.426 0.105272C67.6121 -0.137825 63.6852 -0.119125 60.3379 2.44274C55.8874 5.84611 53.606 13.7935 37.8982 21.9653C33.0736 24.4711 32.6248 28.9964 33.5598 30.7355H33.5972C33.5972 30.7355 33.5972 30.6981 33.5972 30.6794V30.6607Z" fill="#B7A59C"/>
<path d="M74.2881 6.48207C74.2881 6.48207 74.2133 6.36987 74.1946 6.27637C74.1946 6.35117 74.232 6.42597 74.2881 6.48207Z" fill="#B7A59C"/>
<path d="M42.8349 33.7088C49.1554 34.4381 57.2524 34.8308 63.5355 34.943C65.1998 34.9804 67.2568 34.9991 69.5195 34.9991C78.7385 34.9991 91.286 34.6064 94.2219 32.6055C94.6333 32.325 94.8577 32.0258 94.8577 31.6892H93.9227C93.9227 31.6892 93.8853 31.8201 93.8105 31.8949C93.7918 32.2128 93.7544 32.5307 93.6796 32.8673C93.6796 32.8673 93.343 33.0543 88.425 33.7088C87.3217 33.8584 90.538 33.7088 83.5443 34.1015C73.8765 34.6438 76.8685 34.4194 76.8685 34.4194C77.2051 34.2698 77.5043 34.1015 77.8035 33.9519C73.8391 34.0828 69.1081 34.1202 63.5542 34.0267C45.8082 33.7275 34.1582 31.8762 33.6159 30.6794C33.6159 30.6794 33.6159 30.7355 33.6159 30.7542H33.5785L32.7931 30.3054C32.6435 30.5859 32.6435 30.8851 32.7931 31.1656C32.8492 31.2591 32.9801 31.3526 33.0736 31.4461C34.1956 32.4185 37.9729 33.1665 42.8349 33.7275V33.7088Z" fill="white"/>
<path opacity="0.4" d="M74.288 6.48193C74.475 6.76243 74.9425 6.76243 75.036 6.61283V6.59413C74.7368 6.76243 74.4189 6.66893 74.2693 6.48193H74.288Z" fill="white"/>
<path d="M68.3228 2.29314C62.1331 3.93872 61.2356 11.9048 65.4243 15.9814C69.5196 19.9831 93.8106 25.7988 77.7849 33.9332C87.8266 33.6153 92.9691 32.699 93.7919 31.8949C94.2033 26.285 86.7234 24.0597 86.7234 24.0597C93.5488 19.5156 75.3913 12.6154 75.3913 12.6154C75.3913 12.6154 75.3913 12.6154 75.3726 12.6154C74.9986 12.4097 74.6246 12.2227 74.2693 12.017C73.166 11.3625 71.5017 10.2405 70.5293 8.81936C70.4919 8.76326 70.4545 8.70716 70.4171 8.65106C70.3236 8.52017 70.2488 8.38927 70.174 8.23967C70.174 8.23967 70.174 8.22097 70.174 8.20227C69.3513 6.57539 69.6505 5.7713 69.9684 5.3786C70.0993 5.2851 70.2114 5.1916 70.3423 5.09811C71.1277 4.63061 71.7261 4.61191 72.0253 4.64931C72.4367 4.70541 72.9229 4.87371 73.3717 5.2103C73.4091 5.229 73.4278 5.2664 73.4652 5.2851C73.6148 5.416 73.7457 5.5656 73.8579 5.7152C73.8953 5.7526 73.9327 5.8087 73.9514 5.8461C73.9888 5.9022 74.0262 5.9396 74.0449 5.9957C74.0823 6.08919 74.1197 6.18269 74.1571 6.27619C74.1571 6.36969 74.2132 6.42579 74.2506 6.48189C74.4002 6.66889 74.7181 6.74369 75.0173 6.59409C75.9149 5.2103 72.2871 1.24595 68.3041 2.29314H68.3228Z" fill="#B7A59C"/>
<path opacity="0.4" d="M68.3228 2.29314C62.1331 3.93872 61.2356 11.9048 65.4243 15.9814C69.5196 19.9831 93.8106 25.7988 77.7849 33.9332C87.8266 33.6153 92.9691 32.699 93.7919 31.8949C94.2033 26.285 86.7234 24.0597 86.7234 24.0597C93.5488 19.5156 75.3913 12.6154 75.3913 12.6154C75.3913 12.6154 75.3913 12.6154 75.3726 12.6154C74.9986 12.4097 74.6246 12.2227 74.2693 12.017C73.166 11.3625 71.5017 10.2405 70.5293 8.81936C70.4919 8.76326 70.4545 8.70716 70.4171 8.65106C70.3236 8.52017 70.2488 8.38927 70.174 8.23967C70.174 8.23967 70.174 8.22097 70.174 8.20227C69.3513 6.57539 69.6505 5.7713 69.9684 5.3786C70.0993 5.2851 70.2114 5.1916 70.3423 5.09811C71.1277 4.63061 71.7261 4.61191 72.0253 4.64931C72.4367 4.70541 72.9229 4.87371 73.3717 5.2103C73.4091 5.229 73.4278 5.2664 73.4652 5.2851C73.6148 5.416 73.7457 5.5656 73.8579 5.7152C73.8953 5.7526 73.9327 5.8087 73.9514 5.8461C73.9888 5.9022 74.0262 5.9396 74.0449 5.9957C74.0823 6.08919 74.1197 6.18269 74.1571 6.27619C74.1571 6.36969 74.2132 6.42579 74.2506 6.48189C74.4002 6.66889 74.7181 6.74369 75.0173 6.59409C75.9149 5.2103 72.2871 1.24595 68.3041 2.29314H68.3228Z" fill="white"/>
<path d="M77.7849 33.9332C77.4857 34.0828 77.1865 34.2511 76.8499 34.4007C76.8499 34.4007 73.858 34.6438 83.5257 34.0828C90.5195 33.6901 87.3031 33.8397 88.4064 33.6901C93.3244 33.0543 93.661 32.8486 93.661 32.8486C93.7358 32.512 93.7732 32.1941 93.7919 31.8762C92.9691 32.699 87.8267 33.5966 77.7849 33.9145V33.9332Z" fill="white"/>
<path opacity="0.4" d="M77.7849 33.9332C77.4857 34.0828 77.1865 34.2511 76.8499 34.4007C76.8499 34.4007 73.858 34.6438 83.5257 34.0828C90.5195 33.6901 87.3031 33.8397 88.4064 33.6901C93.3244 33.0543 93.661 32.8486 93.661 32.8486C93.7358 32.512 93.7732 32.1941 93.7919 31.8762C92.9691 32.699 87.8267 33.5966 77.7849 33.9145V33.9332Z" fill="white"/>
<path d="M72.7919 43.3765C73.6334 43.3017 74.1944 42.1423 74.0822 40.7772C73.9513 39.4121 73.1659 38.3836 72.3431 38.4584C71.5016 38.5332 70.9406 39.6926 71.0528 41.0577C71.165 42.4228 71.9691 43.4513 72.7919 43.3765Z" fill="#211E1F"/>
<path d="M55.8873 39.3561C55.0458 39.4309 54.4848 40.5903 54.597 41.9554C54.7279 43.3205 55.5133 44.349 56.3361 44.2742C57.1776 44.1994 57.7386 43.04 57.6264 41.6749C57.5142 40.3098 56.7101 39.2813 55.8873 39.3561Z" fill="#211E1F"/>
<path d="M50.2589 45.1529C48.819 45.3025 47.7531 46.5928 47.9027 48.0327C48.0523 49.4726 49.3426 50.5385 50.7824 50.3889C52.2223 50.2393 53.2882 48.949 53.1386 47.5091C52.989 46.0692 51.6987 45.0033 50.2589 45.1529Z" fill="#DF5551"/>
<path opacity="0.5" d="M50.2589 45.1529C48.819 45.3025 47.7531 46.5928 47.9027 48.0327C48.0523 49.4726 49.3426 50.5385 50.7824 50.3889C52.2223 50.2393 53.2882 48.949 53.1386 47.5091C52.989 46.0692 51.6987 45.0033 50.2589 45.1529Z" fill="#CE0E2D"/>
<path d="M80.459 47.4157C81.8988 47.2661 82.9647 45.9758 82.8151 44.536C82.6655 43.0961 81.3752 42.0302 79.9354 42.1798C78.4955 42.3294 77.4296 43.6197 77.5792 45.0596C77.7288 46.4994 79.0191 47.5653 80.459 47.4157Z" fill="#DF5551"/>
<path opacity="0.5" d="M80.459 47.4157C81.8988 47.2661 82.9647 45.9758 82.8151 44.536C82.6655 43.0961 81.3752 42.0302 79.9354 42.1798C78.4955 42.3294 77.4296 43.6197 77.5792 45.0596C77.7288 46.4994 79.0191 47.5653 80.459 47.4157Z" fill="#CE0E2D"/>
<path d="M101.029 50.819C100.823 50.7629 100.617 50.6881 100.374 50.6507C99.009 50.4824 97.8309 51.0247 97.7374 51.8662C97.6626 52.4085 98.0927 52.9134 98.7472 53.2687C98.6537 54.2598 97.1765 55.4005 95.1569 56.0176C94.4837 56.2233 93.7731 56.3355 93.0625 56.4103C93.1373 56.7469 93.2308 57.0648 93.343 57.364C94.0536 57.2892 94.7829 57.177 95.4561 56.9713C97.457 56.3729 99.4017 55.1387 99.7196 53.624C99.8131 53.6427 99.9066 53.6801 100 53.6988C100.075 53.6988 100.131 53.6988 100.206 53.6988C100.86 53.7362 101.44 53.6427 101.889 53.3996C102.319 53.1752 102.599 52.8573 102.655 52.4833C102.693 52.1467 102.525 51.8288 102.263 51.5483C101.982 51.2491 101.571 50.9873 101.047 50.8377L101.029 50.819Z" fill="#211E1F"/>
<path d="M26.4166 51.6979C25.8369 51.7727 25.332 51.6979 24.8832 51.5483C25.5564 56.055 26.267 60.6738 26.3044 60.9169C26.454 61.6649 26.5662 63.404 26.5662 63.404L28.0247 63.1235L29.502 62.843C29.502 62.843 28.9784 61.2722 28.8101 60.4307C28.7727 60.225 27.8751 56.3729 26.9402 52.2963C26.828 52.0719 26.7345 51.8475 26.6784 51.6231C26.5849 51.6418 26.4914 51.6792 26.3979 51.6979H26.4166Z" fill="#666667"/>
<path d="M26.1173 48.6687C25.4442 45.7515 24.9019 43.3018 24.7897 42.7782C24.5466 41.544 25.5938 40.8147 26.0425 39.5806C26.2669 38.9635 25.6873 37.0187 25.5564 36.3455C25.145 34.2324 24.3596 31.2031 23.6116 28.6225C23.6116 28.529 23.462 28.4916 23.3311 28.5103C23.2002 28.529 23.1628 28.6225 23.1815 28.6973L24.397 35.9902V36.0276C24.4157 36.1398 24.3222 36.252 24.1913 36.2894H24.1539C24.023 36.3268 23.8921 36.252 23.8734 36.1398V36.1024L22.3213 28.8843C22.3213 28.7908 22.2465 28.7347 22.0969 28.7721C21.9473 28.8095 21.9286 28.8843 21.9473 28.9591L23.1628 36.252V36.2894C23.1815 36.4016 23.088 36.5138 22.9571 36.5512C22.8262 36.5699 22.6953 36.4951 22.6766 36.3829V36.3455L21.1245 29.1274C21.1245 29.0339 21.0497 28.9778 20.9001 29.0152C20.7505 29.0526 20.7318 29.1274 20.7318 29.2022L21.9473 36.4951V36.5325C21.966 36.6447 21.8725 36.7569 21.7416 36.7943H21.7042C21.5733 36.8317 21.4424 36.7569 21.4237 36.6447V36.6073L19.8716 29.3892C19.8716 29.2957 19.7968 29.2396 19.6472 29.277C19.5163 29.2957 19.4041 29.3892 19.4228 29.4827C19.6659 32.3624 19.9838 35.2796 20.3952 37.3927C20.5261 38.0659 20.7131 40.1042 21.1432 40.5904C22.0221 41.5814 23.3124 41.8432 23.5368 43.0961C23.649 43.6384 24.0417 46.2377 24.5092 49.3044C24.9019 49.024 25.4255 48.8183 26.0238 48.7435C26.0425 48.7435 26.0799 48.7435 26.0986 48.7435L26.1173 48.6687Z" fill="#666667"/>
<path d="M31.2598 54.0167C29.2402 53.4183 27.7629 52.2589 27.6694 51.2679C28.3239 50.9126 28.754 50.4077 28.6792 49.8654C28.5857 49.0426 27.4263 48.519 26.1173 48.6499C26.0986 48.6499 26.0612 48.6499 26.0425 48.6499C25.4441 48.7247 24.9392 48.9304 24.5278 49.2109C24.023 49.5475 23.7051 49.9963 23.7612 50.4638C23.8173 50.95 24.266 51.3053 24.8831 51.511C25.3319 51.6606 25.8368 51.7354 26.4165 51.6606C26.5287 51.6606 26.6035 51.6045 26.697 51.5858C26.7531 51.8102 26.8279 52.0345 26.9588 52.2589C27.6133 53.4744 29.2776 54.4281 30.9793 54.933C31.9891 55.2322 33.0736 55.4005 34.1582 55.4005C34.607 55.4005 35.0371 55.3631 35.4672 55.307C35.4672 54.9704 35.4485 54.6338 35.4111 54.2972C34.046 54.5029 32.5875 54.372 31.2598 53.9793V54.0167Z" fill="#211E1F"/>
<path d="M93.6983 48.1077C93.6983 48.1077 93.6422 48.1264 93.6235 48.1451C93.4739 48.2199 92.8007 48.5378 91.6975 49.0053C87.2282 50.894 75.8026 55.1201 63.6104 54.9144C56.7102 54.8022 50.5018 53.6054 45.5651 52.2217C41.6007 51.1184 38.4592 49.9216 36.477 49.0801C34.9249 48.4256 34.0647 47.9768 34.0647 47.9768C34.0647 47.9768 35.1493 50.8005 35.4298 54.3347C35.4485 54.6713 35.4672 55.0079 35.4859 55.3445C35.5233 56.5413 35.4485 57.8129 35.1867 59.0471C34.0834 64.3765 27.6881 65.3115 27.6881 65.3115C27.6881 65.3115 33.2793 69.0702 40.8528 72.006C43.3398 72.9784 46.0326 73.8386 48.8189 74.4744C48.8563 74.4744 48.8937 74.4744 48.9311 74.4931C48.9872 74.4931 49.0433 74.4744 49.0994 74.4557C49.0994 74.3061 49.062 74.1565 49.062 74.0069C49.1555 71.071 51.6051 68.7523 54.5597 68.8645C54.7467 68.8645 54.915 68.9019 55.0833 68.9393C54.9898 68.6401 54.9337 68.3222 54.8963 68.0043C54.6158 65.0871 56.7663 62.4691 59.6834 62.1886C59.7021 62.1886 59.7208 62.1886 59.7395 62.1886C59.9078 59.6268 61.89 57.4763 64.5267 57.2145C65.1064 57.1584 65.6674 57.2145 66.2097 57.3454C66.2658 57.3454 66.3032 57.3454 66.3593 57.3454C68.9585 57.3454 71.2025 59.3276 71.4456 61.9642C71.4456 62.1325 71.4456 62.3195 71.4456 62.4878C71.8196 62.6 72.1749 62.7496 72.5115 62.9179C75.0734 63.5724 76.7376 66.0782 76.2888 68.7336C76.2514 68.958 76.1766 69.1824 76.1205 69.3881C76.962 69.1824 77.8222 69.2198 78.6263 69.4442C82.3289 69.0889 85.6761 69.5377 88.3689 70.2482C92.5015 71.3141 95.1195 72.9036 95.1195 72.9036C95.1195 72.9036 98.7286 63.8342 94.4276 59.1593C93.9414 58.6357 93.6048 57.9999 93.3617 57.3267C93.2495 57.0088 93.156 56.6909 93.0812 56.373C92.2772 52.7266 93.7357 48.089 93.7357 48.089L93.6983 48.1077Z" fill="#00A9E7"/>
<path d="M92.1089 87.2275H92.0715V122.757V124.945H98.1116V123.412V88.3308H92.1089V87.2275Z" fill="#8C6339"/>
<path d="M36.8884 124.945V122.795V88.1812H30.9045V87.2275H30.8484V123.468V124.945H36.8884Z" fill="#8C6339"/>
<path d="M98.1115 87.2275H92.1089V88.3495H98.1115V87.2275Z" fill="#8C6339"/>
<g opacity="0.5" style="mix-blend-mode:multiply">
<path d="M98.1115 87.2275H92.1089V88.3495H98.1115V87.2275Z" fill="#989898"/>
</g>
<g opacity="0.5" style="mix-blend-mode:multiply">
<path d="M36.9258 87.2275H36.8884V88.1812H36.9258V87.2275Z" fill="#989898"/>
</g>
<path d="M36.8885 87.2275H30.9045V88.1812H36.8885V87.2275Z" fill="#8C6339"/>
<g opacity="0.5" style="mix-blend-mode:multiply">
<path d="M36.8885 87.2275H30.9045V88.1812H36.8885V87.2275Z" fill="#989898"/>
</g>
<path d="M79.2434 82.5713C79.5239 82.8331 79.7109 83.1136 79.7109 83.3941C79.7109 85.2641 73.1286 86.7975 65.0129 86.7975C56.8972 86.7975 50.3149 85.2828 50.3149 83.3941C50.3149 83.0388 50.558 82.6835 51.0068 82.3656C49.997 81.8234 49.1368 81.225 48.4262 80.6453H29.7451V87.2276H99.14V80.6453H82.1232C81.3565 81.3185 80.4215 81.973 79.2434 82.5713Z" fill="#A67D52"/>
<path d="M51.0254 82.3657C50.5766 82.6836 50.3335 83.0389 50.3335 83.3942C50.3335 85.2642 56.9158 86.7976 65.0315 86.7976C73.1472 86.7976 79.7296 85.2829 79.7296 83.3942C79.7296 83.1137 79.5613 82.8332 79.2621 82.5714C76.2888 84.0861 71.8008 85.2455 65.0876 85.2455C58.3744 85.2455 54.0174 83.9739 51.0254 82.3657Z" fill="#A67D52"/>
<g opacity="0.5" style="mix-blend-mode:multiply">
<path d="M51.0254 82.3657C50.5766 82.6836 50.3335 83.0389 50.3335 83.3942C50.3335 85.2642 56.9158 86.7976 65.0315 86.7976C73.1472 86.7976 79.7296 85.2829 79.7296 83.3942C79.7296 83.1137 79.5613 82.8332 79.2621 82.5714C76.2888 84.0861 71.8008 85.2455 65.0876 85.2455C58.3744 85.2455 54.0174 83.9739 51.0254 82.3657Z" fill="#989898"/>
</g>
<path d="M85.0591 75.5216C85.0591 75.5216 84.3485 75.185 82.3663 74.7549C82.3476 75.0728 82.2915 75.3907 82.198 75.6899C83.6566 75.5964 84.7038 75.5403 85.0404 75.5216H85.0591Z" fill="#CCCBCB"/>
<path d="M45.0415 75.5215C45.2846 75.5215 46.9115 75.6337 49.2864 75.7458C49.1555 75.3345 49.0807 74.9044 49.062 74.4556C49.0059 74.4556 48.9498 74.4743 48.8937 74.493C48.8563 74.493 48.8376 74.493 48.8002 74.5117C46.7432 74.9792 45.3594 75.4093 45.0415 75.5215Z" fill="#CCCBCB"/>
<path d="M67.1821 57.6819C68.8651 58.4299 70.1367 60.0381 70.3237 62.0202C70.3237 62.1137 70.3237 62.2072 70.3237 62.3007C70.492 62.3007 70.679 62.3007 70.8473 62.3381C70.9595 62.3568 71.0717 62.3942 71.1839 62.4316C71.1839 62.282 71.1839 62.1511 71.1839 62.0015C70.9782 59.7763 69.2765 58.0559 67.1821 57.6819Z" fill="#FAD072"/>
<path d="M60.3754 62.2073C60.7307 62.2073 61.086 62.2634 61.4226 62.3569C61.7966 62.3569 62.1519 62.3756 62.5072 62.4504C62.4885 61.8146 62.4698 61.1788 62.4511 61.0853C62.4511 60.8983 62.395 60.6365 62.2641 60.543C62.1145 60.4121 62.395 60.169 62.7129 60.0568C63.3113 59.8511 63.3861 60.2251 63.3674 60.6926C63.3674 60.9544 63.3487 61.9081 63.3674 62.7122C63.517 62.7683 63.6479 62.8244 63.7974 62.8992C63.8161 62.7496 63.8536 62.6187 63.8723 62.5065C63.9844 61.9829 64.1153 61.4406 64.1901 61.1227C64.321 60.6739 64.3584 60.3373 64.6389 60.2438C64.9194 60.1503 65.1999 60.2438 65.2747 60.4495C65.3121 60.5617 65.3308 60.6178 65.3495 61.0479C65.3869 61.7398 65.5552 62.787 65.63 63.2545C65.63 63.3293 65.6861 63.535 65.7422 63.535C65.7983 63.535 65.817 63.3293 65.817 63.2358C65.817 63.1797 65.8918 62.5439 65.9292 62.2073C66.0227 61.4593 66.0788 61.0105 66.2097 60.3186C66.3593 59.4958 66.4902 59.1031 66.7707 59.0096C67.0325 58.9162 67.2756 59.1592 67.2382 59.4771C67.2195 59.7202 66.9016 60.6739 66.6585 62.5813L66.565 63.3293C66.565 63.3293 66.565 63.4415 66.5276 63.535C67.3878 62.8057 68.4724 62.3569 69.6318 62.3008C69.6318 62.2447 69.6318 62.1699 69.6318 62.1138C69.3887 59.5519 67.1073 57.682 64.5454 57.9251C62.2454 58.1495 60.525 60.0007 60.3567 62.226L60.3754 62.2073Z" fill="#FFDF97"/>
<path d="M64.7138 62.6374C64.7138 62.5065 64.6764 62.5065 64.6577 62.5252C64.6577 62.5252 64.6203 62.5626 64.6016 62.6374C64.5642 62.787 64.5081 63.0675 64.4707 63.3293C64.5642 63.3854 64.6577 63.4415 64.7325 63.4976C64.7886 63.535 64.8073 63.5911 64.8634 63.6285C64.8073 63.3106 64.7325 62.9553 64.6951 62.6374H64.7138Z" fill="#FFDF97"/>
<path d="M63.3861 60.6739C63.3861 60.2064 63.33 59.8511 62.7316 60.0381C62.4137 60.1316 62.1332 60.3934 62.2828 60.5243C62.4137 60.6365 62.4511 60.8796 62.4698 61.0666C62.4698 61.1601 62.4885 61.7959 62.5259 62.4317C62.8251 62.4878 63.1056 62.5813 63.3861 62.6935C63.3861 61.8894 63.3861 60.9357 63.3861 60.6739Z" fill="#DB163A"/>
<path d="M66.6772 62.5626C66.939 60.6365 67.2382 59.7015 67.2569 59.4584C67.2943 59.1405 67.0512 58.8974 66.7894 58.9909C66.5089 59.0844 66.378 59.4584 66.2284 60.2999C66.0975 60.9918 66.0414 61.4406 65.9479 62.1886C65.9105 62.5252 65.8544 63.161 65.8357 63.2171C65.8357 63.3293 65.817 63.5163 65.7609 63.5163C65.7048 63.5163 65.6674 63.2919 65.6487 63.2358C65.5739 62.7683 65.4056 61.7398 65.3682 61.0292C65.3495 60.5991 65.3308 60.5243 65.2934 60.4308C65.2186 60.2251 64.9382 60.1316 64.6577 60.2251C64.3772 60.3186 64.3211 60.6552 64.2089 61.104C64.1341 61.4219 64.0032 61.9642 63.891 62.4878C63.8723 62.6 63.8349 62.7496 63.8162 62.8805C64.0593 62.9927 64.2837 63.161 64.4894 63.3106C64.5268 63.0488 64.5829 62.7683 64.6203 62.6187C64.639 62.5439 64.6577 62.5065 64.6764 62.5065C64.6764 62.5065 64.7138 62.5065 64.7325 62.6187C64.7699 62.9366 64.826 63.2732 64.9007 63.6098C65.1999 63.8716 65.443 64.1521 65.6674 64.47C65.9292 64.1147 66.2284 63.7968 66.565 63.5163C66.565 63.4041 66.5837 63.3293 66.6024 63.3106L66.6959 62.5626H66.6772Z" fill="#DB163A"/>
<path d="M65.0691 65.4611C65.1813 65.1993 65.3122 64.9188 65.4805 64.6757C65.2187 64.3204 64.9382 63.9651 64.5829 63.6846C63.9097 63.1423 63.143 62.787 62.3015 62.6375C63.5357 63.1797 64.5268 64.1895 65.0691 65.4611Z" fill="#FAD072"/>
<path d="M56.2613 69.2382C56.5979 69.2756 56.9158 69.3504 57.2337 69.4439C57.402 69.2569 57.5703 69.0886 57.7573 68.9203C57.7573 68.7707 57.7386 68.6399 57.7199 68.5651C57.6825 67.948 57.6264 66.2089 57.6077 66.0406C57.6077 65.8536 57.5516 65.5918 57.4207 65.4983C57.2711 65.3674 57.5516 65.1243 57.8695 65.0121C58.4679 64.8064 58.5427 65.1804 58.524 65.6479C58.524 65.9284 58.4866 66.9756 58.524 67.8171C58.524 68.0228 58.524 68.2098 58.5614 68.3781C58.6736 68.322 58.7858 68.2846 58.8793 68.2285C58.9354 67.9667 58.9728 67.6675 59.0289 67.4431C59.1411 66.9195 59.272 66.3772 59.3468 66.0593C59.4777 65.6105 59.5151 65.2739 59.7956 65.1804C60.0761 65.0869 60.3566 65.1804 60.4314 65.3861C60.4688 65.4983 60.4875 65.5544 60.5062 65.9845C60.5436 66.5081 60.6371 67.2187 60.7119 67.7423C60.8054 67.7423 60.9176 67.7423 61.0111 67.7423C61.0298 67.5366 61.0485 67.3122 61.0672 67.1626C61.1607 66.4146 61.2168 65.9658 61.3477 65.2739C61.4973 64.4511 61.6282 64.0584 61.9087 63.9649C62.1705 63.8714 62.4136 64.1145 62.3762 64.4324C62.3575 64.6755 62.0396 65.6292 61.7965 67.5366L61.7591 67.7797C62.638 67.8919 63.5168 68.2098 64.2835 68.7707C64.377 68.8455 64.4518 68.9203 64.5266 68.9951C64.5827 68.8268 64.6201 68.6586 64.6575 68.4716C64.564 67.8919 64.5266 67.2748 64.6388 66.6577C64.6388 66.6203 64.6575 66.5829 64.6762 66.5455C64.2274 64.395 62.3388 62.8242 60.1322 62.8242C59.9826 62.8242 59.833 62.8242 59.6834 62.8429C57.1215 63.086 55.2515 65.3674 55.4946 67.9293C55.532 68.3407 55.6442 68.7147 55.7751 69.0699C55.9247 69.1073 56.0743 69.1634 56.2239 69.2195L56.2613 69.2382Z" fill="#FFDF97"/>
<path d="M59.8142 67.4805C59.8142 67.4805 59.7768 67.5179 59.7581 67.5927C59.7581 67.6675 59.7207 67.7984 59.6833 67.9293C59.7581 67.9106 59.8329 67.8919 59.889 67.8732C59.889 67.7797 59.8516 67.6862 59.8516 67.5927C59.8516 67.4618 59.8142 67.4618 59.7955 67.4805H59.8142Z" fill="#FFDF97"/>
<path d="M58.5241 67.8172C58.5054 66.9757 58.5241 65.9285 58.5241 65.648C58.5241 65.1806 58.468 64.8253 57.8696 65.0123C57.5517 65.1058 57.2712 65.3676 57.4208 65.4985C57.5517 65.6107 57.5891 65.8538 57.6078 66.0407C57.6078 66.209 57.6639 67.9481 57.72 68.5652C57.72 68.6587 57.72 68.7896 57.7574 68.9205C58.0192 68.7148 58.281 68.5278 58.5615 68.3595C58.5615 68.1912 58.5428 68.0042 58.5241 67.7985V67.8172Z" fill="#DB163A"/>
<path d="M60.5248 65.9847C60.5061 65.5546 60.4874 65.4798 60.45 65.3863C60.3752 65.1806 60.0947 65.0871 59.8142 65.1806C59.5337 65.2741 59.4776 65.6107 59.3654 66.0595C59.2906 66.3774 59.1597 66.9197 59.0475 67.4433C59.0101 67.6677 58.954 67.9669 58.8979 68.2287C59.1597 68.0978 59.4402 68.0043 59.7207 67.9295C59.7394 67.7986 59.7768 67.6677 59.7955 67.5929C59.8142 67.5181 59.8329 67.4807 59.8516 67.4807C59.8516 67.4807 59.889 67.4807 59.9077 67.5929C59.9077 67.6864 59.9264 67.7799 59.9451 67.8734C60.2069 67.8173 60.4874 67.7612 60.7492 67.7425C60.6744 67.2189 60.5622 66.5083 60.5435 65.9847H60.5248Z" fill="#DB163A"/>
<path d="M62.4137 64.4326C62.4511 64.1147 62.208 63.8716 61.9462 63.9651C61.6657 64.0586 61.5348 64.4326 61.3852 65.2741C61.2543 65.9659 61.1982 66.4147 61.1047 67.1627C61.1047 67.331 61.0673 67.5554 61.0486 67.7424C61.3104 67.7424 61.5535 67.7424 61.8153 67.7798L61.8527 67.5367C62.1145 65.6106 62.4137 64.6757 62.4324 64.4326H62.4137Z" fill="#DB163A"/>
<path d="M73.3342 63.5161C74.7367 64.6942 75.5221 66.5642 75.1855 68.4903C75.1107 68.9203 74.9611 69.313 74.7928 69.7057C75.0359 69.6496 75.2603 69.6309 75.5034 69.5935C75.5969 69.5561 75.6904 69.5187 75.7839 69.5C75.8774 69.2382 75.9522 68.9764 76.0083 68.696C76.3823 66.5081 75.2229 64.4324 73.3342 63.5161Z" fill="#FAD072"/>
<path d="M69.6131 67.5928C69.6318 67.4619 69.6131 67.4619 69.5944 67.4619C69.5757 67.4619 69.557 67.4806 69.5196 67.5554C69.4448 67.705 69.2952 67.9855 69.183 68.2473C69.1456 68.3221 69.0895 68.453 69.0334 68.5652C69.1269 68.6026 69.2017 68.6213 69.2952 68.6587C69.37 68.6587 69.4261 68.6774 69.5009 68.6961C69.5196 68.3408 69.557 67.9481 69.6131 67.6115V67.5928Z" fill="#FFDF97"/>
<path d="M67.2195 68.2846C67.2382 68.1537 67.2569 68.0415 67.2756 67.9667C67.4065 67.3496 67.8179 65.6666 67.8366 65.4983C67.874 65.3113 67.9114 65.0682 67.8179 64.9186C67.7057 64.7503 68.0423 64.6007 68.3789 64.582C69.0147 64.5446 68.9773 64.9186 68.8464 65.3674C68.7716 65.6292 68.4537 66.639 68.2667 67.4618C68.1732 67.8358 68.1171 68.1537 68.0797 68.3407C68.1545 68.3407 68.2293 68.3594 68.2854 68.3781C68.4163 68.0976 68.6594 67.5927 68.8277 67.2374C69.0895 66.7512 69.3326 66.265 69.5009 65.9845C69.744 65.5731 69.8749 65.2739 70.1741 65.2552C70.4733 65.2365 70.7164 65.4048 70.7351 65.6292C70.7351 65.7414 70.7351 65.8162 70.6416 66.2276C70.492 66.9008 70.3798 67.948 70.3237 68.4155C70.3237 68.4903 70.2863 68.7147 70.3611 68.7147C70.4172 68.7147 70.492 68.5464 70.5107 68.4342C70.5107 68.3781 70.7538 67.7984 70.8847 67.4805C71.1651 66.7886 71.3521 66.3772 71.6513 65.7227C72.0253 64.956 72.2497 64.6381 72.5489 64.6194C72.8294 64.6194 72.9977 64.8999 72.8855 65.1991C72.792 65.4235 72.2497 66.265 71.5017 68.0415L71.2025 68.7334C71.2025 68.7334 71.109 68.9765 70.9969 69.1822C71.6887 69.5561 72.2684 70.0797 72.7359 70.6968C73.0538 70.435 73.4091 70.2106 73.7831 70.0236C73.8018 70.0236 73.8392 70.0236 73.8579 70.0049C74.1571 69.5187 74.3815 68.9578 74.4937 68.3594C74.9238 65.8349 73.2408 63.4226 70.6977 62.9738C68.1732 62.525 65.7609 64.2454 65.3121 66.7699C65.1999 67.4057 65.2186 68.0228 65.3682 68.6212C65.9479 68.3968 66.5463 68.2846 67.2008 68.2659L67.2195 68.2846Z" fill="#FFDF97"/>
<path d="M71.2211 68.7522L71.5203 68.0603C72.287 66.2839 72.8293 65.4424 72.9041 65.218C73.0163 64.9188 72.848 64.6196 72.5675 64.6383C72.2683 64.6383 72.0439 64.9936 71.6699 65.7416C71.3707 66.3774 71.1837 66.7888 70.9032 67.4993C70.7723 67.8172 70.5479 68.4156 70.5292 68.453C70.4918 68.5465 70.4357 68.7335 70.3796 68.7335C70.3235 68.7335 70.3422 68.4904 70.3422 68.4343C70.3983 67.9668 70.5105 66.9197 70.6601 66.2465C70.7536 65.8164 70.7536 65.7603 70.7536 65.6481C70.7536 65.4237 70.4918 65.2554 70.1926 65.2741C69.8934 65.2928 69.7625 65.592 69.5194 66.0034C69.3511 66.2839 69.108 66.7701 68.8463 67.2562C68.678 67.6115 68.4349 68.0977 68.304 68.3969C68.5658 68.453 68.8089 68.5091 69.0519 68.6026C69.108 68.4904 69.1641 68.3595 69.2015 68.2847C69.3137 68.0229 69.4633 67.7424 69.5381 67.5928C69.5755 67.518 69.5942 67.4993 69.6129 67.4993C69.6316 67.4993 69.6503 67.4993 69.6316 67.6302C69.5755 67.9668 69.5381 68.3595 69.5194 68.7148C70.0617 68.8083 70.5853 68.9766 71.0528 69.2197C71.1463 68.9953 71.2398 68.8083 71.2585 68.7709L71.2211 68.7522Z" fill="#DB163A"/>
<path d="M68.2667 67.4431C68.4724 66.6391 68.7716 65.6293 68.8464 65.3488C68.9773 64.9 69.0147 64.526 68.3789 64.5634C68.061 64.5634 67.7057 64.7317 67.8179 64.9C67.9114 65.0309 67.874 65.2927 67.8366 65.4797C67.7992 65.648 67.3878 67.3309 67.2756 67.948C67.2756 68.0228 67.2382 68.135 67.2195 68.2659C67.3504 68.2659 67.4626 68.2472 67.5935 68.2472C67.7618 68.2472 67.9114 68.3033 68.0797 68.322C68.1171 68.135 68.1732 67.8171 68.2667 67.4431Z" fill="#DB163A"/>
<path d="M72.1188 71.3141C72.2497 71.1645 72.418 71.0336 72.5863 70.9027C72.4741 70.7531 72.3806 70.6035 72.2497 70.4539C71.6887 69.8368 70.9781 69.388 70.2114 69.1262C71.0342 69.6685 71.7074 70.4165 72.1188 71.3141Z" fill="#FAD072"/>
<path d="M67.1261 75.7086C67.1074 75.5964 67.0887 75.4281 67.07 75.2224C66.9765 75.5964 66.8269 75.933 66.6399 76.2883C66.883 76.2883 67.1261 76.2883 67.3879 76.2883C67.2196 76.1574 67.1822 75.9143 67.1448 75.7086H67.1261Z" fill="#FFDF97"/>
<path d="M67.2942 71.2205C67.5934 71.1644 67.8365 71.2953 67.8926 71.5197C67.9113 71.6319 67.9113 71.7067 67.8926 72.1368C67.8365 72.8287 67.8365 73.8759 67.8552 74.362C67.8552 74.4368 67.8552 74.6612 67.93 74.6612C67.9861 74.6612 68.0235 74.4742 68.0609 74.3808C68.0609 74.3247 68.2292 73.7076 68.3227 73.3897C68.5097 72.6604 68.6406 72.2303 68.8837 71.5571C69.1455 70.753 69.3512 70.3977 69.6317 70.3416C69.9122 70.3042 70.1179 70.566 70.0431 70.8652C69.987 71.1083 69.5382 71.9872 69.0146 73.8572L68.8089 74.5864C68.8089 74.5864 68.491 75.671 68.4349 75.858C68.3788 76.0263 68.304 76.1946 68.1544 76.2881C69.0707 76.2881 70.0244 76.2507 70.9968 76.2133C70.6041 74.7173 70.922 73.1653 71.7448 71.9124C71.109 70.2481 69.5382 69.0139 67.6308 68.9204C67.556 68.9204 67.4812 68.9204 67.3877 68.9204C66.5836 68.9204 65.8356 69.1448 65.1812 69.5001C65.3308 69.6684 65.4617 69.8741 65.5738 70.0611C66.1535 70.566 66.5836 71.1831 66.8641 71.8376C66.995 71.5197 67.1072 71.2766 67.3503 71.2205H67.2942Z" fill="#FFDF97"/>
<path d="M67.3689 76.2881C67.612 76.2881 67.8364 76.2881 68.0795 76.2881C68.2478 76.1946 68.3226 76.0263 68.36 75.858C68.4161 75.671 68.7153 74.6799 68.734 74.5865L68.9397 73.8572C69.482 71.9872 69.9121 71.1083 69.9682 70.8652C70.043 70.5473 69.8373 70.2855 69.5568 70.3416C69.2576 70.3977 69.0706 70.753 68.8088 71.5571C68.5844 72.2303 68.4535 72.6604 68.2478 73.3897C68.1543 73.7263 68.0047 74.3434 67.986 74.3808C67.9673 74.4743 67.9299 74.6799 67.8551 74.6612C67.799 74.6612 67.799 74.4368 67.7803 74.362C67.7803 73.8946 67.7803 72.8474 67.8177 72.1368C67.8551 71.7067 67.8551 71.6319 67.8177 71.5197C67.7803 71.2953 67.5185 71.1644 67.2193 71.2205C66.9762 71.2766 66.8641 71.5197 66.7332 71.8376C67.2006 72.9035 67.2941 74.1003 66.995 75.2409C67.0136 75.4279 67.0323 75.5962 67.051 75.7271C67.0884 75.9328 67.1258 76.1759 67.2941 76.3068L67.3689 76.2881Z" fill="#DB163A"/>
<path d="M66.3406 76.3069C67.3317 74.6052 67.1634 72.4921 66.004 70.9587C66.7146 72.6417 66.565 74.6613 65.3869 76.2321C65.3682 76.2508 65.3495 76.2695 65.3308 76.3069C65.6674 76.3069 65.9853 76.3069 66.3406 76.3069Z" fill="#FAD072"/>
<path d="M64.4332 76.2881C64.5828 76.1385 64.7324 75.9889 64.8633 75.8206C66.3967 73.7636 65.9853 70.8464 63.9283 69.2944C63.0868 68.6773 62.1144 68.3594 61.142 68.3594C59.964 68.3594 58.8046 68.8269 57.907 69.6871C58.468 69.9489 58.9729 70.3229 59.403 70.7903C59.4591 70.8464 59.4965 70.9212 59.5526 70.996C59.8705 70.6033 60.1697 70.2855 60.2071 70.2107C60.3193 70.0611 60.4689 69.8554 60.4502 69.6871C60.4315 69.4814 60.8055 69.5001 61.1046 69.631C61.6843 69.8928 61.4786 70.2107 61.1607 70.5473C61.0111 70.7156 60.525 71.2017 60.0762 71.7253C60.1697 71.8749 60.2445 72.0432 60.3193 72.2115C60.7681 71.8936 61.2168 71.5757 61.4786 71.4074C61.8713 71.1456 62.1331 70.9399 62.4136 71.0521C62.6941 71.1643 62.825 71.4261 62.7315 71.6318C62.6941 71.744 62.6567 71.8001 62.3762 72.1367C61.9274 72.679 61.3664 73.5579 61.1046 73.9506C61.0672 74.0067 60.9363 74.1937 60.9924 74.2311C61.0485 74.2685 61.1794 74.1376 61.2542 74.0628C61.2916 74.0254 61.7591 73.614 62.0209 73.3709C62.5819 72.866 62.9372 72.5855 63.4982 72.1554C64.1714 71.6505 64.5267 71.4448 64.7885 71.5757C65.0503 71.6879 65.069 72.0245 64.8259 72.2489C64.6389 72.4172 63.7787 72.9034 62.3014 74.1563L61.7217 74.6425C61.7217 74.6425 60.8428 75.3718 60.7119 75.484C60.6746 75.5214 60.6372 75.5401 60.5998 75.5775C60.5437 75.7832 60.4689 75.9889 60.3941 76.1946C61.7965 76.232 63.1616 76.2694 64.4145 76.2694L64.4332 76.2881Z" fill="#FFDF97"/>
<path d="M60.8429 72.9036C60.9176 72.7914 60.899 72.7914 60.8803 72.7727C60.8803 72.7727 60.8429 72.7727 60.7681 72.8288C60.7307 72.8662 60.6559 72.9223 60.5811 72.9597C60.5998 73.0345 60.6185 73.1093 60.6372 73.1841C60.712 73.0906 60.7681 72.9784 60.8429 72.9036Z" fill="#FFDF97"/>
<path d="M60.7306 75.5027C60.8802 75.3905 61.6843 74.7173 61.7404 74.6612L62.3201 74.175C63.7973 72.9222 64.6575 72.436 64.8445 72.2677C65.0876 72.062 65.0689 71.7254 64.8071 71.5945C64.5453 71.4636 64.1713 71.6693 63.5169 72.1742C62.9559 72.6043 62.6006 72.8848 62.0396 73.3897C61.7778 73.614 61.3103 74.0441 61.2729 74.0815C61.1981 74.1563 61.0485 74.2872 61.0111 74.2498C60.955 74.2124 61.0859 74.0254 61.1233 73.9693C61.3851 73.5766 61.9648 72.6978 62.3949 72.1555C62.6754 71.8189 62.6941 71.7628 62.7502 71.6506C62.825 71.4449 62.6941 71.1831 62.4323 71.0709C62.1518 70.9587 61.89 71.1644 61.4973 71.4262C61.2355 71.5945 60.768 71.9124 60.3379 72.2303C60.4501 72.4734 60.5249 72.7165 60.5997 72.9595C60.6745 72.9034 60.7493 72.8474 60.7867 72.8287C60.8615 72.7913 60.8802 72.7726 60.8989 72.7726C60.8989 72.7726 60.9363 72.7913 60.8615 72.9035C60.7867 72.997 60.7306 73.0905 60.6558 73.184C60.7493 73.5953 60.8054 74.0254 60.7867 74.4742C60.7867 74.8482 60.7119 75.2222 60.6184 75.5775C60.6558 75.5401 60.6932 75.5214 60.7306 75.484V75.5027Z" fill="#DB163A"/>
<path d="M61.1795 70.5661C61.4974 70.2295 61.6844 69.9116 61.1234 69.6498C60.8242 69.5189 60.4502 69.5002 60.4689 69.7059C60.4876 69.8742 60.338 70.0799 60.2258 70.2295C60.1697 70.2856 59.8892 70.6222 59.5713 71.0149C59.7583 71.2393 59.9453 71.4824 60.0949 71.7442C60.5624 71.2393 61.0299 70.7344 61.1795 70.5661Z" fill="#DB163A"/>
<path d="M60.525 74.4743C60.5624 73.184 60.1136 71.9311 59.216 70.9961C58.655 70.379 57.9444 69.9676 57.1777 69.7058C57.5704 69.9489 57.9257 70.2294 58.2436 70.566C59.216 71.6132 59.7209 72.9596 59.6835 74.3808C59.6648 75.0165 59.5152 75.6149 59.2908 76.1759C59.5713 76.1759 59.8705 76.1759 60.151 76.1946C60.3754 75.6523 60.525 75.0726 60.5437 74.4743H60.525Z" fill="#FAD072"/>
<path d="M54.0361 74.2498C54.0361 74.1189 54.0174 74.1189 53.9987 74.1189C53.9987 74.1189 53.9613 74.1376 53.9239 74.2311C53.8678 74.3807 53.7743 74.6799 53.6808 74.9604C53.6247 75.1661 53.4938 75.5588 53.3816 75.9515C53.6247 75.9515 53.8678 75.9702 54.1109 75.9889C54.0548 75.5214 53.9987 74.8295 54.0174 74.2685L54.0361 74.2498Z" fill="#FFDF97"/>
<path d="M51.7547 75.8769C51.7547 75.4842 51.7547 75.1289 51.7734 74.9419C51.8108 74.3248 51.9791 72.5857 51.9978 72.4174C51.9978 72.2304 51.9978 71.9686 51.8856 71.8564C51.7547 71.7068 52.0726 71.5011 52.3904 71.445C53.0075 71.3328 53.0262 71.7068 52.9701 72.1556C52.9327 72.4361 52.7644 73.4833 52.6709 74.3061C52.6148 74.8671 52.6148 75.3533 52.6148 75.3907C52.6148 75.4468 52.6148 75.5964 52.6522 75.5964C52.6896 75.5964 52.727 75.5403 52.7457 75.4655C52.7457 75.4281 53.0262 74.5492 53.2132 74.0256C53.4002 73.5207 53.5872 72.9971 53.7181 72.6979C53.9051 72.2678 53.9986 71.9499 54.2791 71.8751C54.5783 71.819 54.8214 71.9499 54.8775 72.1556C54.8962 72.2678 54.8962 72.3426 54.8775 72.7727C54.8214 73.4646 54.8588 74.5118 54.8775 74.998C54.8775 75.0728 54.8775 75.2972 54.9523 75.2972C55.0084 75.2972 55.0458 75.1102 55.0645 74.998C55.0645 74.9419 55.2141 74.3248 55.3076 73.9882C55.4946 73.2589 55.6068 72.8288 55.8312 72.1556C56.093 71.3515 56.28 70.9962 56.5605 70.9401C56.841 70.884 57.0467 71.1458 56.9719 71.4637C56.9158 71.7068 56.4857 72.6044 55.9808 74.4744L55.7938 75.2037C55.7938 75.2037 55.6442 75.7086 55.5507 76.0638C56.5418 76.1012 57.5703 76.1386 58.5801 76.176C58.8232 75.6338 58.9728 75.0167 59.0102 74.3809C59.0476 73.1467 58.5988 71.9499 57.7573 71.0523C56.9158 70.136 55.7564 69.6124 54.5222 69.575C51.9604 69.5002 49.7912 71.5011 49.7164 74.063C49.6977 74.6801 49.8099 75.2598 49.9969 75.8021C50.5579 75.8208 51.1563 75.8582 51.7734 75.8956L51.7547 75.8769Z" fill="#FFDF97"/>
<path d="M49.2864 75.7458C49.5108 75.7458 49.7538 75.7645 49.9782 75.7832C49.7725 75.2409 49.6791 74.6612 49.6978 74.0441C49.7912 71.4823 51.9417 69.4627 54.5036 69.5562C55.7378 69.5936 56.8972 70.1172 57.7387 71.0335C58.5801 71.9498 59.0289 73.1279 58.9915 74.362C58.9728 74.9978 58.8232 75.6149 58.5614 76.1572C58.7858 76.1572 59.0289 76.1572 59.2533 76.1759C59.4777 75.6149 59.6273 75.0165 59.646 74.3807C59.7021 72.9596 59.1785 71.6132 58.2062 70.566C57.8883 70.2294 57.5143 69.9489 57.1403 69.7058C57.907 69.9489 58.6175 70.379 59.1785 70.9961C60.0574 71.9498 60.5249 73.184 60.4875 74.4742C60.4688 75.0913 60.3192 75.671 60.0948 76.1946C60.1883 76.1946 60.2631 76.1946 60.3566 76.1946C60.4314 75.9889 60.5062 75.7832 60.5623 75.5775C60.6558 75.2222 60.7119 74.8482 60.7306 74.4742C60.7306 74.0254 60.6932 73.6141 60.5997 73.184C60.5997 73.1092 60.5623 73.0344 60.5436 72.9596C60.4688 72.6978 60.394 72.4547 60.2818 72.2303C60.207 72.062 60.1322 71.8937 60.0387 71.7441C59.8891 71.4823 59.7021 71.2579 59.5151 71.0148C59.459 70.9587 59.4216 70.8839 59.3655 70.8091C58.9354 70.3416 58.4118 69.9863 57.8696 69.7058C58.7484 68.8456 59.9078 68.3781 61.1046 68.3781C62.077 68.3781 63.0494 68.6773 63.8909 69.3131C65.9479 70.8465 66.3593 73.7823 64.8259 75.8393C64.695 76.0076 64.5454 76.1572 64.3958 76.3068C64.4893 76.3068 64.6015 76.3068 64.695 76.3068C64.882 76.3068 65.0877 76.3068 65.2934 76.3068C65.3121 76.2881 65.3308 76.2694 65.3495 76.232C66.5276 74.6612 66.6772 72.6417 65.9666 70.9587C67.1259 72.4921 67.2755 74.6051 66.3032 76.3068C66.3967 76.3068 66.5089 76.3068 66.6024 76.3068C66.7894 75.9702 66.939 75.6149 67.0324 75.2409C67.3503 74.1002 67.2381 72.9222 66.7707 71.8376C66.4715 71.1644 66.0414 70.566 65.4804 70.0611C65.3495 69.8741 65.2373 69.6871 65.0877 69.5001C65.7422 69.1448 66.4902 68.9204 67.2942 68.9204C67.369 68.9204 67.4438 68.9204 67.5373 68.9204C69.426 69.0139 70.9968 70.2481 71.6513 71.9124C70.8098 73.1466 70.5106 74.7173 70.9033 76.2133C71.1277 76.2133 71.3708 76.2133 71.5952 76.1946C70.9594 74.0254 71.9692 71.6506 74.0823 70.6595C74.7181 70.3603 75.3913 70.2294 76.0457 70.2294C77.8035 70.2294 79.4865 71.2205 80.2719 72.9222C80.702 73.8384 80.7955 74.8295 80.6085 75.8019C80.8516 75.8019 81.076 75.7832 81.3004 75.7645C81.4687 74.7173 81.3378 73.6327 80.8703 72.6417C80.0475 70.8652 78.3458 69.7806 76.5132 69.6123C76.7563 69.5749 77.0181 69.5375 77.2612 69.5375C79.0938 69.5375 80.8516 70.5847 81.6744 72.3425C82.1793 73.4084 82.2541 74.6051 81.9175 75.7271C82.011 75.7271 82.0858 75.7271 82.1793 75.7271C82.2541 75.4092 82.3102 75.11 82.3476 74.7921C82.4037 73.9319 82.2728 73.0531 81.8988 72.249C81.2256 70.8278 79.9914 69.8741 78.5702 69.5001C77.7661 69.2757 76.9059 69.2383 76.0644 69.444C76.1392 69.2383 76.1953 69.0139 76.2327 68.7895C76.7002 66.1528 75.0173 63.6471 72.4554 62.9739C72.1188 62.7869 71.7635 62.6373 71.3895 62.5438C71.3895 62.3755 71.4082 62.1885 71.3895 62.0202C71.1277 59.3835 68.9024 57.4013 66.3032 57.4013C66.2471 57.4013 66.2097 57.4013 66.1536 57.4013C65.6113 57.2704 65.0503 57.2143 64.4706 57.2704C61.8339 57.5322 59.8517 59.6827 59.6834 62.2446C59.6647 62.2446 59.646 62.2446 59.6273 62.2446C56.7102 62.5251 54.5597 65.143 54.8402 68.0602C54.8776 68.3781 54.9337 68.6773 55.0272 68.9952C54.8589 68.9765 54.6906 68.9391 54.5036 68.9204C51.549 68.8082 49.0994 71.127 49.0059 74.0628C49.0059 74.2124 49.0246 74.362 49.0433 74.5116C49.062 74.9604 49.1368 75.3905 49.2677 75.8019L49.2864 75.7458ZM55.5321 67.948C55.289 65.3861 57.159 63.1048 59.7208 62.8617C59.8704 62.8617 60.02 62.843 60.1696 62.843C62.3762 62.843 64.2649 64.4138 64.7137 66.5642C64.7137 66.6016 64.695 66.639 64.6763 66.6764C64.5641 67.2935 64.6015 67.8919 64.695 68.4903C64.6576 68.6586 64.6202 68.8456 64.5641 69.0139C64.4706 68.9391 64.4145 68.8456 64.321 68.7895C63.5543 68.2098 62.6754 67.9106 61.7965 67.7984C61.5347 67.761 61.2916 67.761 61.0298 67.761C60.9363 67.761 60.8241 67.761 60.7306 67.761C60.4501 67.7797 60.1883 67.8171 59.9265 67.8919C59.8517 67.8919 59.7769 67.9293 59.7208 67.948C59.4403 68.0228 59.1785 68.135 58.898 68.2472C58.7858 68.3033 58.6736 68.3407 58.5801 68.3968C58.2997 68.5464 58.0192 68.7334 57.7761 68.9578C57.5891 69.1074 57.4208 69.2944 57.2525 69.4814C56.9346 69.3879 56.6167 69.3131 56.2801 69.2757C56.1305 69.2196 55.9809 69.1635 55.8313 69.1261C55.7004 68.7708 55.5882 68.3781 55.5508 67.9854L55.5321 67.948ZM71.1651 62.4316C71.0529 62.4129 70.9594 62.3568 70.8285 62.3381C70.6415 62.3007 70.4732 62.3194 70.3049 62.3007C70.3049 62.2072 70.3049 62.1137 70.3049 62.0202C70.1179 60.0567 68.865 58.4485 67.1633 57.6818C69.2577 58.0558 70.9407 59.7762 71.1651 62.0015C71.1651 62.1511 71.1651 62.282 71.1651 62.4316ZM76.0083 68.7147C75.9522 68.9952 75.8774 69.257 75.7839 69.5188C75.6904 69.5562 75.5969 69.5749 75.5034 69.6123C75.2604 69.631 75.0173 69.6497 74.7929 69.7245C74.9612 69.3318 75.1108 68.9391 75.1856 68.509C75.5221 66.5642 74.7368 64.713 73.3343 63.5349C75.2417 64.4512 76.401 66.5455 76.0083 68.7147ZM70.1927 69.1261C70.9594 69.3879 71.67 69.818 72.231 70.4538C72.3619 70.5847 72.4554 70.753 72.5676 70.9026C72.418 71.0335 72.2497 71.1644 72.1001 71.314C71.67 70.4164 71.0155 69.6684 70.1927 69.1261ZM62.3014 62.656C63.1242 62.7869 63.9096 63.1422 64.5828 63.7032C64.9381 63.9837 65.2186 64.339 65.4804 64.6943C65.3121 64.9374 65.1999 65.1991 65.069 65.4796C64.5454 64.2081 63.5543 63.217 62.3014 62.656ZM65.3495 66.7886C65.7796 64.2642 68.2105 62.5438 70.735 62.9926C73.2595 63.4227 74.9612 65.8536 74.5311 68.3781C74.4189 68.9765 74.1945 69.5375 73.8953 70.0237C73.8766 70.0237 73.8392 70.0237 73.8205 70.0424C73.4278 70.2294 73.0912 70.4538 72.7733 70.7156C72.3245 70.0798 71.7261 69.5562 71.0342 69.2009C70.5667 68.9578 70.0431 68.7895 69.5008 68.696C69.426 68.696 69.3699 68.6773 69.2951 68.6586C69.2016 68.6212 69.1268 68.5838 69.0333 68.5651C68.7902 68.4903 68.5471 68.4155 68.2853 68.3594C68.2105 68.3594 68.1357 68.3407 68.0796 68.322C67.9113 68.3033 67.7617 68.2472 67.5934 68.2472C67.4625 68.2472 67.3503 68.2472 67.2194 68.2659C66.5837 68.2659 65.9666 68.3968 65.3869 68.6212C65.256 68.0415 65.2186 67.4057 65.3308 66.7699L65.3495 66.7886ZM64.5641 57.9062C67.1259 57.6631 69.4073 59.5331 69.6504 62.095C69.6504 62.1511 69.6504 62.2259 69.6504 62.282C68.491 62.3381 67.4064 62.8056 66.5463 63.5162C66.2097 63.7967 65.9105 64.1146 65.6487 64.4699C65.4243 64.152 65.1812 63.8715 64.882 63.6097C64.8446 63.5723 64.8072 63.5162 64.7511 63.4788C64.6763 63.404 64.5641 63.3666 64.4893 63.3105C64.2649 63.1422 64.0405 62.9926 63.8161 62.8804C63.6852 62.8056 63.5356 62.7682 63.386 62.6934C63.1055 62.5812 62.825 62.4877 62.5258 62.4316C62.1705 62.3568 61.8152 62.3194 61.4412 62.3381C61.1046 62.2633 60.768 62.2072 60.394 62.1885C60.5623 59.9632 62.2827 58.1119 64.5828 57.8875L64.5641 57.9062Z" fill="#DE871C"/>
<path d="M55.7938 75.1662L55.9808 74.4369C56.4857 72.5669 56.9158 71.6693 56.9719 71.4262C57.0467 71.1083 56.841 70.8465 56.5605 70.9026C56.2613 70.9587 56.093 71.314 55.8312 72.1181C55.6068 72.7913 55.4946 73.2214 55.3076 73.9507C55.2328 74.2873 55.0832 74.9044 55.0645 74.9605C55.0458 75.054 55.0084 75.2597 54.9523 75.2597C54.8962 75.2597 54.8775 75.0353 54.8775 74.9605C54.8775 74.493 54.8401 73.4458 54.8775 72.7352C54.9149 72.3051 54.8962 72.2303 54.8775 72.1181C54.8214 71.9124 54.5783 71.7628 54.2791 71.8376C53.9799 71.8937 53.8864 72.2303 53.7181 72.6604C53.5872 72.9596 53.4002 73.4832 53.2132 73.9881C53.0449 74.5117 52.7644 75.3906 52.7457 75.428C52.727 75.5215 52.6896 75.5589 52.6522 75.5589C52.5961 75.5589 52.6148 75.428 52.6148 75.3532C52.6148 75.3158 52.6148 74.8483 52.6709 74.2686C52.7644 73.4458 52.914 72.3986 52.9701 72.1181C53.0449 71.6693 53.0262 71.2953 52.3904 71.4075C52.0725 71.4636 51.7546 71.6693 51.8855 71.8189C51.9977 71.9498 51.9977 72.1929 51.9977 72.3799C51.9977 72.5482 51.8107 74.2873 51.7733 74.9044C51.7733 75.0914 51.7546 75.4467 51.7546 75.8394C52.2969 75.8581 52.8392 75.8955 53.4189 75.9142C53.5311 75.5215 53.6433 75.1288 53.7181 74.9231C53.7929 74.6613 53.9051 74.3621 53.9612 74.1938C53.9986 74.119 54.0173 74.1003 54.036 74.0816C54.0547 74.0816 54.0734 74.0816 54.0734 74.2125C54.0734 74.7922 54.1108 75.4654 54.1669 75.9329C54.6344 75.9516 55.1019 75.9703 55.5694 75.989C55.6629 75.6337 55.7938 75.1849 55.8125 75.1288L55.7938 75.1662Z" fill="#DB163A"/>
<path d="M81.6931 72.3238C80.8703 70.566 79.1126 69.5188 77.28 69.5188C77.0369 69.5188 76.7751 69.5562 76.532 69.5936C78.3646 69.7619 80.0662 70.8465 80.889 72.623C81.3565 73.6141 81.4874 74.6986 81.3191 75.7458C81.5248 75.7458 81.7492 75.7271 81.9549 75.7084C82.2728 74.5864 82.2167 73.3897 81.7118 72.3238H81.6931Z" fill="#FAD072"/>
<path d="M73.8579 76.12C73.5774 75.4094 73.2034 74.4931 73.166 74.3622C73.0912 74.1939 72.979 73.9695 72.8107 73.9134C72.6237 73.8386 72.8107 73.5207 73.0725 73.315C73.5774 72.9223 73.7644 73.2589 73.914 73.689C74.0075 73.9508 74.3254 74.9606 74.6246 75.7273C74.6807 75.8582 74.7181 75.9704 74.7742 76.0826C74.8864 76.0826 74.9986 76.0826 75.1108 76.0826C75.0734 75.8021 75.0173 75.4842 74.9799 75.2411C74.9238 74.6988 74.849 74.1565 74.8116 73.8386C74.7742 73.3711 74.7181 73.0345 74.9425 72.8475C75.1669 72.6605 75.4661 72.6605 75.597 72.8475C75.6718 72.941 75.7092 72.9971 75.8775 73.3898C76.1393 74.0256 76.6442 74.9606 76.8686 75.372C76.906 75.4281 77.0182 75.6338 77.0743 75.6151C77.1304 75.5964 77.0743 75.4094 77.0556 75.2972C77.0556 75.2411 76.8873 74.624 76.8125 74.3061C76.6442 73.5768 76.5507 73.128 76.4385 72.4361C76.3076 71.5946 76.3076 71.2019 76.532 71.0149C76.7564 70.8466 77.0556 70.9775 77.1304 71.2954C77.1865 71.5385 77.2239 72.5296 77.6166 74.4183L77.7662 75.1476C77.7662 75.1476 77.8597 75.6338 77.9345 75.9891C78.8881 75.9517 79.7857 75.8956 80.5898 75.8582C80.7768 74.8858 80.6833 73.8947 80.2532 72.9784C79.4678 71.2954 77.7849 70.2856 76.0271 70.2856C75.3726 70.2856 74.6994 70.4165 74.0636 70.7157C71.9505 71.7068 70.9407 74.0817 71.5765 76.2509C72.3245 76.2322 73.0725 76.1948 73.8205 76.1761L73.8579 76.12Z" fill="#FFDF97"/>
<path d="M75.7278 74.9793C75.7278 74.9793 75.7091 75.0167 75.7278 75.1102C75.7465 75.2785 75.8026 75.5777 75.84 75.8582C75.84 75.8956 75.8587 75.9704 75.8774 76.0265C76.027 76.0265 76.1953 76.0265 76.3449 76.0078C76.1579 75.7086 75.9896 75.372 75.84 75.0728C75.7839 74.9419 75.7652 74.9606 75.7465 74.9793H75.7278Z" fill="#FFDF97"/>
<path d="M73.8953 73.6702C73.7457 73.2401 73.5587 72.9035 73.0538 73.2962C72.792 73.5019 72.605 73.8198 72.792 73.8946C72.9416 73.9507 73.0725 74.1751 73.1473 74.3434C73.2034 74.4556 73.5587 75.3906 73.8392 76.1012C74.1384 76.1012 74.4376 76.0825 74.7368 76.0638C74.6994 75.9516 74.6433 75.8394 74.5872 75.7085C74.288 74.9231 73.9701 73.932 73.8766 73.6702H73.8953Z" fill="#DB163A"/>
<path d="M77.6352 74.3621C77.2425 72.4734 77.2051 71.4823 77.149 71.2392C77.0742 70.9213 76.775 70.7904 76.5506 70.9587C76.3075 71.1457 76.3262 71.5384 76.4571 72.3799C76.5693 73.0718 76.6628 73.5206 76.8311 74.2499C76.9059 74.5865 77.0555 75.2036 77.0742 75.241C77.0929 75.3345 77.149 75.5402 77.0929 75.5589C77.0368 75.5776 76.9246 75.3906 76.8872 75.3158C76.6628 74.9044 76.1579 73.9694 75.8962 73.3336C75.7279 72.9409 75.6905 72.8848 75.6157 72.7913C75.4848 72.623 75.1856 72.623 74.9612 72.7913C74.7368 72.9783 74.7929 73.3149 74.8303 73.7824C74.849 74.1003 74.9238 74.6613 74.9986 75.1849C75.036 75.428 75.0921 75.7459 75.1295 76.0264C75.3913 76.0264 75.6344 76.0077 75.8962 75.989C75.8962 75.9329 75.8774 75.8581 75.8588 75.8207C75.8027 75.5402 75.7653 75.241 75.7466 75.0727C75.7466 74.9792 75.7466 74.9605 75.7466 74.9418C75.7466 74.9418 75.784 74.9231 75.84 75.0353C75.9896 75.3345 76.1766 75.6711 76.3449 75.9703C76.9059 75.9516 77.4482 75.9142 77.9718 75.8955C77.897 75.5402 77.8222 75.1288 77.8035 75.054L77.6539 74.3247L77.6352 74.3621Z" fill="#DB163A"/>
<path d="M82.1979 75.7084C82.1979 75.7084 82.0296 75.7084 81.9361 75.7084C81.7304 75.7084 81.5247 75.7271 81.3003 75.7458C81.0759 75.7458 80.8515 75.7645 80.6084 75.7832C79.7856 75.8206 78.8881 75.8767 77.9531 75.9141C77.4295 75.9328 76.8872 75.9702 76.3262 75.9889C76.1766 75.9889 76.0083 75.9889 75.8587 76.0076C75.6156 76.0076 75.3538 76.0263 75.092 76.045C74.9798 76.045 74.8676 76.045 74.7554 76.045C74.4562 76.045 74.157 76.0637 73.8578 76.0824C73.1098 76.1198 72.3618 76.1385 71.6138 76.1572C71.3894 76.1572 71.1463 76.1572 70.922 76.1759C69.9683 76.2133 69.0146 76.232 68.0796 76.2507C67.8365 76.2507 67.6121 76.2507 67.369 76.2507C67.1259 76.2507 66.8641 76.2507 66.621 76.2507C66.5275 76.2507 66.4153 76.2507 66.3218 76.2507C65.9665 76.2507 65.6486 76.2507 65.312 76.2507C65.125 76.2507 64.9193 76.2507 64.7136 76.2507C64.6201 76.2507 64.5079 76.2507 64.4144 76.2507C63.1615 76.2507 61.7965 76.2133 60.394 76.1759C60.3005 76.1759 60.2257 76.1759 60.1322 76.1759C59.8517 76.1759 59.5712 76.1759 59.272 76.1572C59.0476 76.1572 58.8045 76.1572 58.5801 76.1385C57.5703 76.1011 56.5418 76.0637 55.5507 76.0263C55.0645 76.0076 54.597 75.9889 54.1482 75.9702C53.9051 75.9702 53.6621 75.9515 53.419 75.9328C52.858 75.9141 52.297 75.8767 51.7547 75.858C51.1376 75.8206 50.5392 75.8019 49.9782 75.7645C49.7351 75.7645 49.5107 75.7458 49.2863 75.7271C46.9114 75.6149 45.2845 75.5214 45.0415 75.5027C45.0228 75.5027 44.9854 75.5027 44.9854 75.5027V75.5214C44.9854 75.5214 44.9854 75.5401 44.9854 75.5588C45.0415 75.858 45.6398 78.2703 48.4448 80.6264C49.1554 81.2248 49.9969 81.8045 51.0254 82.3468C54.0173 83.955 58.4679 85.2266 65.0876 85.2266C71.7073 85.2266 76.2701 84.0672 79.2621 82.5525C80.4401 81.9541 81.3938 81.2809 82.1418 80.6264C85.0029 78.102 85.1899 75.5027 85.1899 75.5027C85.1899 75.5027 85.1338 75.5027 85.059 75.5027C84.7037 75.5214 83.6752 75.5962 82.2166 75.671L82.1979 75.7084Z" fill="white"/>
<path d="M68.9024 45.6767C68.6967 45.845 68.6593 46.1629 68.8276 46.3686C68.8837 46.4434 69.1455 46.7426 69.5008 47.0231C69.3325 47.4158 68.6967 48.5004 66.9203 48.8183C64.2275 49.2857 63.1803 47.8459 63.1242 47.7711C63.1242 47.7711 63.0868 47.7711 63.0868 47.7337C63.2925 47.4906 63.4608 47.2101 63.5169 46.8735C63.573 46.6117 63.386 46.3499 63.1242 46.2938C62.8624 46.2377 62.6006 46.4247 62.5445 46.6865C62.4323 47.3036 61.4225 47.6776 61.0672 47.7711C60.8054 47.8459 60.6371 48.1077 60.7119 48.3695C60.768 48.5939 60.9737 48.7435 61.1981 48.7435C61.2355 48.7435 61.2729 48.7435 61.3103 48.7435C61.4038 48.7248 61.8526 48.5939 62.3014 48.3321C62.3762 48.4443 63.4234 49.8841 65.8731 49.8841C66.2471 49.8841 66.6398 49.8467 67.0699 49.7719C69.2016 49.3979 70.0618 48.089 70.361 47.4719C70.5667 47.5467 70.7724 47.6215 71.0155 47.6215C71.1464 47.6215 71.296 47.6215 71.4269 47.5654C71.6887 47.4906 71.857 47.2288 71.7822 46.967C71.7074 46.7052 71.4456 46.5369 71.1838 46.6117C70.5854 46.7613 69.8187 46.0133 69.5943 45.7328C69.426 45.5271 69.1081 45.4897 68.9024 45.658V45.6767Z" fill="#211E1F"/>
</svg>
