<svg width="128" height="128" viewBox="0 0 128 128" fill="none" xmlns="http://www.w3.org/2000/svg">
<g clip-path="url(#clip0_336_104)">
<path d="M60.2833 112.973C59.5472 112.749 53.8181 111.605 51.8978 109.364C51.8818 109.348 51.8738 109.332 51.8578 109.324C51.7457 109.188 51.6497 109.052 51.5697 108.908C51.5457 108.86 51.5217 108.82 51.4977 108.772C51.4417 108.652 51.3937 108.532 51.3537 108.412C51.3457 108.38 51.3217 108.348 51.3137 108.316C51.3137 108.3 51.3057 108.284 51.2977 108.268C51.2817 108.196 51.2737 108.116 51.2657 108.036C51.2657 108.02 51.2657 108.004 51.2657 107.988C51.2657 107.972 51.2657 107.956 51.2657 107.94V107.908L42.512 108.484V108.716L38.7993 117.454L43.3202 116.966V116.934C45.6486 115.422 47.5209 113.189 48.9052 115.166C49.1613 115.526 49.3773 115.902 49.5693 116.262C49.5693 116.27 49.5853 116.286 49.5853 116.294L68.8129 114.221C65.6684 113.877 62.7878 113.413 60.2913 112.821V112.965L60.2833 112.973Z" fill="#989898"/>
<path d="M126.112 116.814C126.256 116.926 126.384 117.038 126.488 117.134C126.792 117.43 126.88 117.662 126.528 117.726C125.288 117.974 119.158 118.462 115.622 118.966C116.934 119.23 118.726 119.406 120.695 119.406C124.728 119.406 128.008 118.702 128.008 117.854C128.008 117.454 127.288 117.094 126.12 116.806L126.112 116.814Z" fill="#989898"/>
<path d="M113.045 110.365C113.045 110.365 113.125 110.357 113.165 110.349C113.125 110.349 113.085 110.349 113.045 110.349V110.365Z" fill="#989898"/>
<path d="M120.463 107.916L120.487 107.932C120.487 107.932 117.446 109.877 113.165 110.349C113.669 110.365 114.173 110.381 114.71 110.381C118.742 110.381 122.023 109.677 122.023 108.828C122.023 108.452 121.391 108.116 120.383 107.868C120.439 107.9 120.471 107.916 120.471 107.916H120.463Z" fill="#989898"/>
<path d="M54.9945 121.607C54.8824 121.863 52.426 121.511 49.1134 122.735L49.1294 122.719C48.6973 122.879 48.2812 122.991 47.8491 123.111C48.4652 123.143 49.0734 123.167 49.7375 123.167C53.7702 123.167 57.0508 122.463 57.0508 121.615C57.0508 120.991 55.3465 120.47 52.8741 120.214C53.1141 120.382 53.3542 120.542 53.6502 120.694C54.7064 121.271 55.0985 121.495 54.9865 121.599L54.9945 121.607Z" fill="#989898"/>
<path d="M18.9237 119.59C18.5636 119.942 17.9635 120.447 17.3154 120.559V120.543C17.1554 120.575 16.9313 120.599 16.6353 120.615C21.1801 120.559 24.7168 120.111 24.7168 119.566C24.7168 119.102 22.1723 118.726 18.6436 118.574L19.2757 119.206C19.2757 119.206 19.1397 119.374 18.9237 119.59Z" fill="#989898"/>
<path d="M97.5303 111.301C101.363 110.901 104.444 110.38 106.404 109.788C106.404 109.788 106.404 109.788 106.396 109.788C106.068 109.708 105.748 109.62 105.436 109.532C103.627 109.028 102.099 108.42 101.107 107.98C100.331 107.644 99.8747 107.404 99.8747 107.404L102.635 105.892C102.635 105.892 102.691 105.86 102.723 105.86C101.411 105.628 99.9547 105.427 98.3224 105.251L97.8183 108.492C98.1784 108.908 98.3944 109.34 98.3944 109.772H98.3784C98.3944 110.308 98.0744 110.837 97.5303 111.301Z" fill="#989898"/>
<path d="M92.2175 113.877C91.2653 113.749 90.3451 114.926 90.1451 116.454C90.1291 116.614 90.1291 116.758 90.1131 116.902L82.5597 114.645C81.3674 114.701 80.1432 114.734 78.887 114.734V114.749L90.2731 118.134C90.5051 118.87 90.9372 119.398 91.5133 119.446C92.4655 119.574 93.3857 118.398 93.5857 116.87C93.7858 115.318 93.1696 113.989 92.2175 113.861V113.877Z" fill="#211E1F"/>
<path d="M101.347 110.917C100.395 110.789 99.4747 111.965 99.2747 113.493C99.2587 113.653 99.2587 113.797 99.2427 113.941L94.9379 112.661C94.3618 112.877 93.7137 113.077 93.0095 113.277L99.4027 115.166C99.6348 115.902 100.067 116.43 100.643 116.502C101.595 116.63 102.515 115.454 102.715 113.925C102.915 112.373 102.299 111.045 101.347 110.917Z" fill="#211E1F"/>
<path d="M80.287 43.8559C77.7105 43.8559 75.3661 43.8399 73.4778 43.7999C66.3484 43.6718 57.1547 43.2238 49.9854 42.3996L50.8095 48.0167C52.2498 48.7768 53.53 49.817 53.53 49.817C53.53 49.817 53.49 49.801 53.426 49.785C53.474 49.825 53.514 49.857 53.514 49.857C53.514 49.857 52.3938 49.4169 51.0896 49.889L51.4096 52.1134C51.7377 51.9694 52.0977 51.8254 52.4738 51.7374C54.8743 51.1052 59.5551 53.6497 59.5551 53.6497C59.5551 53.6497 59.5071 53.6417 59.4351 53.6337C59.4911 53.6657 59.5391 53.6897 59.5391 53.6897C59.5391 53.6897 56.9547 53.1616 55.1783 55.5621C55.0583 55.7221 54.9463 55.8981 54.8343 56.0822C54.7622 56.2022 54.6982 56.3382 54.6342 56.4662C54.5862 56.5543 54.5382 56.6423 54.4902 56.7383C54.1861 57.4024 53.298 58.0585 52.3138 58.3546L60.2753 112.813C62.7637 113.405 65.6603 113.877 68.8129 114.221C70.7572 114.437 72.8136 114.581 74.918 114.669C76.2703 114.725 77.5825 114.741 78.8788 114.741C80.175 114.741 81.3672 114.709 82.5515 114.653C86.6802 114.477 90.2809 113.989 93.0014 113.285C93.7216 113.109 94.3537 112.893 94.9298 112.669C96.05 112.253 96.9302 111.789 97.5063 111.285L97.5223 111.325C98.0664 110.836 98.3704 110.332 98.3704 109.796C98.3704 109.364 98.1544 108.932 97.7943 108.516L98.2984 105.275L101.347 85.9598C100.755 85.4557 100.107 84.9356 99.3466 84.4075C98.5545 83.8634 98.2424 83.3753 98.2424 82.9272C98.2184 81.5989 101.011 80.7188 102.211 80.4067L103.619 71.5011C103.619 71.5011 103.619 71.445 103.619 71.413C103.363 67.9324 102.811 65.788 102.699 65.5399C102.539 65.2839 102.627 64.9638 102.883 64.7798V64.7638C103.075 64.6278 103.339 64.6598 103.531 64.8038C103.587 64.8358 103.627 64.8838 103.667 64.9398C103.667 64.9398 103.667 64.9398 103.675 64.9478C103.675 64.9478 103.691 64.9558 103.691 64.9638C103.803 65.1239 104.051 65.956 104.284 67.3243L104.9 63.4675C103.843 63.4675 102.987 62.5074 102.683 61.6032C102.579 61.2991 102.531 61.0111 102.563 60.763V60.747C102.563 60.747 102.563 60.755 102.563 60.763C102.955 57.7065 100.563 56.8023 100.563 56.8023C100.563 56.8023 100.579 56.8023 100.587 56.8023C100.587 56.8023 104.332 57.0343 105.724 58.2986L106.172 55.418C106.172 55.418 106.148 55.394 106.132 55.378C103.523 52.8656 100.907 54.1378 100.555 54.3298C100.531 54.3458 100.515 54.3538 100.515 54.3538L100.499 54.3378C100.499 54.3378 104.067 50.3531 106.532 50.1611H106.98C106.98 50.1611 106.996 50.1611 107.004 50.1611L108.188 42.6637L108.404 41.1514H108.372C108.372 41.1514 108.356 41.1674 108.348 41.1674C104.996 43.4558 90.761 43.8879 80.295 43.8879L80.287 43.8559ZM68.6128 51.5293C68.6128 51.5293 68.5968 51.5373 68.5968 51.5453C68.4128 51.8014 68.0527 51.8494 67.8047 51.6733C67.7487 51.6413 66.3964 50.7372 64.324 51.8334C64.156 51.9214 64.012 52.0254 63.868 52.1214C62.3797 53.1616 62.1316 54.6179 62.1316 54.6819C62.1156 54.8259 62.0356 54.954 61.9316 55.034C61.8276 55.13 61.6915 55.186 61.5555 55.186H61.4835C61.1794 55.154 60.9634 54.8579 60.9954 54.5539C60.9954 54.4899 61.1875 53.1536 62.3397 51.9374C62.7237 51.5293 63.2118 51.1292 63.844 50.8012C66.5645 49.3769 68.4208 50.6732 68.4928 50.7292C68.7489 50.9132 68.7969 51.2733 68.6208 51.5213L68.6128 51.5293ZM79.999 61.0271L70.5732 63.3875H70.4292C70.3492 63.3875 70.2211 63.3475 70.1651 63.3235C70.1651 63.3235 70.1651 63.3235 70.1731 63.3235L70.1411 63.3075C70.1411 63.3075 70.1491 63.3075 70.1651 63.3155C70.1571 63.3155 70.1491 63.2995 70.1411 63.2995C70.1411 63.2995 70.1251 63.2995 70.1171 63.2915C69.9891 63.2195 69.9011 63.0915 69.8611 62.9474C69.1729 60.2429 70.9973 57.4504 73.8778 56.7303L73.9178 56.7463C75.3021 56.4022 76.7504 56.5623 77.9746 57.2344C78.1346 57.3224 78.2867 57.4184 78.4307 57.5144C79.4229 58.1866 80.127 59.1787 80.4071 60.331C80.4791 60.635 80.295 60.9471 79.991 61.0191L79.999 61.0271ZM85.632 53.2576C85.632 53.2576 85.632 53.2576 85.624 53.2576C85.568 53.2576 85.512 53.2736 85.464 53.2736C85.208 53.2736 84.9919 53.1136 84.9199 52.8576C84.9039 52.8016 84.3998 51.2733 82.0954 50.8412C82.0794 50.8412 82.0634 50.8412 82.0474 50.8412C79.951 50.4731 78.6147 51.6973 78.5827 51.7213C78.3667 51.9374 78.0066 51.9374 77.7906 51.7213C77.7346 51.6653 77.6945 51.6013 77.6705 51.5293C77.5825 51.3213 77.6305 51.0812 77.7906 50.9132C77.8466 50.8572 78.9108 49.857 80.6951 49.673C81.1672 49.625 81.6873 49.633 82.2554 49.737C82.2714 49.737 82.2794 49.737 82.2954 49.737C85.32 50.2971 85.9921 52.4575 86.0081 52.5455C86.0961 52.8496 85.9361 53.1456 85.64 53.2416L85.632 53.2576ZM97.6743 56.8983C96.25 58.8987 93.0974 57.5144 92.4653 56.1222C90.769 52.4095 87.4164 53.0736 87.4164 53.0736C87.4164 53.0736 87.4324 53.0656 87.4644 53.0496C87.4324 53.0496 87.4164 53.0576 87.4164 53.0576C87.4164 53.0576 92.0972 50.4971 94.4977 51.1452C96.8901 51.7774 98.2984 53.5297 98.2344 55.234C98.2184 55.8021 98.0344 56.3702 97.6663 56.8903L97.6743 56.8983ZM102.163 50.7212C101.331 52.5215 98.6345 51.9134 97.9143 50.9052C96.002 48.2167 93.4415 49.2489 93.4415 49.2489C93.4415 49.2489 93.4575 49.2329 93.4815 49.2169C93.4575 49.2249 93.4415 49.2329 93.4415 49.2329C93.4415 49.2329 96.7781 46.4964 98.7785 46.6404C100.947 46.8004 102.395 48.1687 102.395 49.673C102.395 50.025 102.323 50.3771 102.163 50.7292V50.7212Z" fill="#DF5551"/>
<path d="M98.3783 109.765C98.3783 110.301 98.0743 110.813 97.5303 111.293C98.0743 110.821 98.3943 110.301 98.3783 109.765Z" fill="#DF5551"/>
<path d="M60.2674 112.845C55.5305 111.725 52.2579 110.236 51.4497 108.644C51.4657 108.684 51.4817 108.732 51.4977 108.772C51.5217 108.82 51.5457 108.86 51.5697 108.908C51.6497 109.052 51.7458 109.188 51.8578 109.324C51.8738 109.34 51.8818 109.356 51.8978 109.364C53.8181 111.581 59.4672 112.717 60.2674 112.949V112.829H60.2834C60.2834 112.829 60.2674 112.829 60.2674 112.821V112.845Z" fill="#A32035"/>
<path d="M60.2673 112.949H60.2833V112.829H60.2673V112.949Z" fill="#A32035"/>
<path d="M60.2833 112.973V112.957H60.2673C59.4671 112.717 53.8181 111.589 51.8977 109.364C53.8181 111.605 59.5471 112.749 60.2833 112.973Z" fill="#A32035"/>
<path d="M51.4498 108.644C51.4098 108.564 51.3858 108.492 51.3538 108.412C51.3938 108.532 51.4418 108.652 51.4978 108.772C51.4738 108.732 51.4658 108.692 51.4498 108.644Z" fill="#A32035"/>
<path d="M49.2732 57.4906C47.977 55.6903 48.9451 53.2738 51.3776 52.1376C51.3776 52.1376 51.3856 52.1376 51.3936 52.1376L51.0735 49.8892C50.4094 50.1212 49.7053 50.5933 49.0572 51.4895C48.6491 52.0576 47.6169 52.4977 46.6407 52.4577C45.8806 52.4257 45.1524 52.1056 44.7844 51.3135V51.3295C44.2003 50.0492 44.7684 48.681 46.0486 47.8968C46.6247 47.5367 47.3528 47.2967 48.185 47.2407C48.9451 47.1847 49.8973 47.5448 50.8015 48.0328L49.9693 42.3918H49.9533V42.4478C44.5043 41.8237 40.2315 40.9755 38.8953 39.9033L40.9997 50.8814C43.4161 51.5295 46.4567 54.9141 46.4567 54.9141C46.4567 54.9141 46.4407 54.9141 46.4247 54.8981C46.4487 54.9221 46.4567 54.9381 46.4567 54.9381C46.4567 54.9381 44.2563 53.6259 41.8078 55.1942L42.3839 58.2107C42.3839 58.2107 42.3999 58.2107 42.3999 58.2027C44.0722 57.5146 46.4007 57.3706 46.4007 57.3706C46.4007 57.3706 46.3847 57.3706 46.3527 57.3866C46.3687 57.3866 46.3767 57.3866 46.3767 57.3866C46.3767 57.3866 45.9206 57.5546 45.4405 58.0107C44.8164 58.5948 44.1683 59.635 44.4003 61.3393C44.4883 61.9715 44.0722 62.8916 43.4081 63.4837C43.4081 63.4837 43.4001 63.4917 43.3921 63.4997L44.0242 66.7563C44.0242 66.7563 44.0242 66.7563 44.0242 66.7483C44.3123 64.892 44.6403 63.7558 44.7604 63.5798C44.9204 63.3077 45.2645 63.2357 45.5365 63.4197V63.4357C45.6005 63.4757 45.6485 63.5237 45.6885 63.5878C45.7285 63.6438 45.7525 63.6998 45.7686 63.7638C45.8086 63.8998 45.7926 64.0518 45.7205 64.1799C45.5925 64.4839 44.9844 66.8444 44.7684 70.6291L51.6897 106.812C51.4016 107.172 51.2416 107.548 51.2576 107.932C51.2576 107.956 51.2576 107.972 51.2576 107.996C51.3856 109.812 54.8743 111.581 60.2593 112.853L52.2978 58.3708C52.1217 58.4188 51.9457 58.4508 51.7697 58.4748C50.8495 58.6108 49.8973 58.4028 49.2732 57.5226V57.4906Z" fill="#D34A4C"/>
<path d="M51.2656 107.972C51.2656 107.972 51.2656 108.02 51.2656 108.036C51.2656 108.116 51.2816 108.188 51.2976 108.268C51.2976 108.284 51.3056 108.3 51.3136 108.316C51.3216 108.348 51.3376 108.38 51.3536 108.412C51.3776 108.492 51.4097 108.572 51.4497 108.644C52.2498 110.237 55.5304 111.725 60.2673 112.845V112.829C54.8823 111.557 51.3936 109.789 51.2656 107.972Z" fill="#A32035"/>
<path d="M85.5842 11.2178C85.5842 11.3058 85.6402 11.3778 85.6882 11.4498C85.6882 11.4498 85.6002 11.3218 85.5842 11.2178Z" fill="#B7A59C"/>
<path d="M39.4955 38.9509V38.9349C40.1276 40.2872 53.3541 42.3756 73.5179 42.7196C79.8071 42.8237 85.1521 42.7917 89.6649 42.6316C89.6649 42.6316 89.6889 42.6316 89.7049 42.6316C89.7689 42.5996 89.825 42.5676 89.889 42.5356C107.684 33.3579 80.2872 26.7807 75.6543 22.2518C71.2375 17.947 71.8136 9.84149 77.5587 7.20899C77.9987 7.00895 78.4548 6.83292 78.9509 6.6969V6.68089C82.9357 5.6247 86.6003 8.97732 86.7444 10.8737C86.7684 11.1457 86.7204 11.3858 86.5923 11.5858C86.8804 11.4258 87.1525 11.0417 87.2405 10.3456V10.2896C87.8886 6.84892 82.9677 4.5925 80.2152 4.23243C78.1428 3.96038 73.6939 3.97639 69.9092 6.88093C64.8603 10.7377 62.2678 19.7793 44.4164 29.0611C38.9194 31.9096 38.4153 37.0626 39.4795 39.0069H39.5195V38.9509H39.4955Z" fill="#B7A59C"/>
<path d="M38.8954 39.8312C40.2076 40.9114 44.4964 41.7596 49.9775 42.3917V42.3677C57.1468 43.1998 66.3565 43.6479 73.4859 43.776C75.3742 43.816 77.7187 43.832 80.2951 43.832C90.7611 43.832 105.02 43.3999 108.348 41.1114C108.78 40.8074 109.045 40.4553 109.069 40.0873H108.004C108.004 40.0873 107.956 40.2073 107.876 40.3033C107.876 40.3033 107.876 40.3113 107.868 40.3193C107.852 40.6794 107.796 41.0394 107.724 41.4155C107.724 41.4155 107.348 41.6315 101.763 42.3677C101.555 42.3917 101.483 42.4157 101.467 42.4237C101.499 42.4317 101.555 42.4397 101.523 42.4557C101.651 42.4877 101.547 42.5197 96.2101 42.8158C88.3847 43.2639 87.8566 43.2559 88.2006 43.2158C87.8566 43.2158 88.6007 43.1598 88.6007 43.1598C88.9688 42.9998 89.2968 42.8318 89.6249 42.6557C85.128 42.7998 79.783 42.8558 73.5019 42.7438C53.3541 42.3997 40.1116 40.3113 39.4795 38.959V39.0471H39.4395L38.5353 38.543C38.3753 38.847 38.3753 39.2071 38.5353 39.5192C38.6073 39.6472 38.7193 39.7512 38.8634 39.8792C38.8634 39.8792 38.8794 39.8872 38.8874 39.8952V39.8792V39.8232L38.8954 39.8312Z" fill="white"/>
<path d="M80.3032 43.8318C77.7267 43.8318 75.3823 43.8158 73.4939 43.7758C66.3566 43.6478 57.1469 43.1997 49.9775 42.3676V42.3916C57.1469 43.2157 66.3486 43.6718 73.4779 43.7918C75.3663 43.8238 77.7107 43.8478 80.2872 43.8478C90.7532 43.8478 104.988 43.4158 108.34 41.1273C108.348 41.1273 108.356 41.1113 108.364 41.1113C105.028 43.3998 90.7772 43.8318 80.3112 43.8318H80.3032Z" fill="white"/>
<path d="M49.9613 42.3915H49.9773C44.4963 41.7594 40.2075 40.9113 38.8953 39.8311V39.9031C40.2315 40.9753 44.5043 41.8154 49.9613 42.4475V42.3915Z" fill="white"/>
<path opacity="0.4" d="M85.8003 11.5542C86.0483 11.7622 86.4403 11.7382 86.5363 11.6022V11.5782C86.4563 11.6182 86.3683 11.6422 86.2883 11.6502C86.1043 11.6822 85.9283 11.6422 85.8003 11.5542Z" fill="white"/>
<path opacity="0.4" d="M85.6962 11.4581C85.6962 11.4581 85.7602 11.5141 85.7922 11.5381C85.7602 11.5141 85.7202 11.4821 85.6962 11.4501C85.6962 11.4501 85.6882 11.4501 85.6802 11.4341L85.6962 11.4501V11.4581Z" fill="white"/>
<path d="M85.6882 11.4502L85.6962 11.4582L85.6882 11.4502Z" fill="#B7A59C"/>
<path opacity="0.4" d="M85.6882 11.4502L85.6962 11.4582L85.6882 11.4502Z" fill="white"/>
<path d="M78.935 6.69698C78.4389 6.833 77.9828 7.00904 77.5427 7.20907C71.7976 9.84157 71.2295 17.9471 75.6383 22.2519C80.2872 26.7807 107.692 33.358 89.873 42.5357C89.809 42.5677 89.753 42.5997 89.689 42.6317C101.083 42.2716 106.916 41.2475 107.852 40.3113C107.852 40.3193 107.852 40.3273 107.852 40.3433C107.86 40.3433 107.876 40.3273 107.884 40.3193C107.884 40.3193 107.884 40.3193 107.884 40.3113C108.348 33.9341 99.8669 31.4136 99.8669 31.4136C107.612 26.2446 87.0005 18.4032 87.0005 18.4032H86.9845C86.5684 18.1871 86.1363 17.9551 85.7442 17.739C84.48 17.0029 82.6076 15.7227 81.4954 14.0984C81.4634 14.0264 81.4074 13.9703 81.3674 13.8983C81.2794 13.7543 81.1834 13.5943 81.0954 13.4262C81.0954 13.4262 81.0954 13.3862 81.0794 13.3862C80.1432 11.5459 80.4872 10.6097 80.8473 10.1776C80.9913 10.0656 81.1354 9.96159 81.2634 9.87357C82.1436 9.35348 82.8317 9.31347 83.1758 9.35348C83.6478 9.42549 84.1999 9.60952 84.704 10.0016C84.744 10.0416 84.7761 10.0736 84.8161 10.0896C84.9761 10.2496 85.1441 10.4177 85.2641 10.5777C85.3042 10.6337 85.3362 10.6897 85.3762 10.7217C85.4082 10.7777 85.4482 10.8338 85.4882 10.8818C85.5442 10.9938 85.5762 11.0818 85.6162 11.2098C85.6162 11.3218 85.6722 11.3699 85.7282 11.4419C85.8563 11.5939 86.0803 11.6819 86.3123 11.6579C86.3924 11.6419 86.4804 11.6179 86.5604 11.5699V11.5859C86.5604 11.5859 86.5844 11.5859 86.6004 11.5699C86.7284 11.3779 86.7684 11.1378 86.7524 10.8818C86.5844 8.98541 82.9197 5.64878 78.959 6.70498L78.935 6.69698Z" fill="#B7A59C"/>
<path opacity="0.4" d="M78.935 6.69698C78.4389 6.833 77.9828 7.00904 77.5427 7.20907C71.7976 9.84157 71.2295 17.9471 75.6383 22.2519C80.2872 26.7807 107.692 33.358 89.873 42.5357C89.809 42.5677 89.753 42.5997 89.689 42.6317C101.083 42.2716 106.916 41.2475 107.852 40.3113C107.852 40.3193 107.852 40.3273 107.852 40.3433C107.86 40.3433 107.876 40.3273 107.884 40.3193C107.884 40.3193 107.884 40.3193 107.884 40.3113C108.348 33.9341 99.8669 31.4136 99.8669 31.4136C107.612 26.2446 87.0005 18.4032 87.0005 18.4032H86.9845C86.5684 18.1871 86.1363 17.9551 85.7442 17.739C84.48 17.0029 82.6076 15.7227 81.4954 14.0984C81.4634 14.0264 81.4074 13.9703 81.3674 13.8983C81.2794 13.7543 81.1834 13.5943 81.0954 13.4262C81.0954 13.4262 81.0954 13.3862 81.0794 13.3862C80.1432 11.5459 80.4872 10.6097 80.8473 10.1776C80.9913 10.0656 81.1354 9.96159 81.2634 9.87357C82.1436 9.35348 82.8317 9.31347 83.1758 9.35348C83.6478 9.42549 84.1999 9.60952 84.704 10.0016C84.744 10.0416 84.7761 10.0736 84.8161 10.0896C84.9761 10.2496 85.1441 10.4177 85.2641 10.5777C85.3042 10.6337 85.3362 10.6897 85.3762 10.7217C85.4082 10.7777 85.4482 10.8338 85.4882 10.8818C85.5442 10.9938 85.5762 11.0818 85.6162 11.2098C85.6162 11.3218 85.6722 11.3699 85.7282 11.4419C85.8563 11.5939 86.0803 11.6819 86.3123 11.6579C86.3924 11.6419 86.4804 11.6179 86.5604 11.5699V11.5859C86.5604 11.5859 86.5844 11.5859 86.6004 11.5699C86.7284 11.3779 86.7684 11.1378 86.7524 10.8818C86.5844 8.98541 82.9197 5.64878 78.959 6.70498L78.935 6.69698Z" fill="white"/>
<path d="M75.6384 22.2518C71.2376 17.947 71.8057 9.84148 77.5427 7.20898C71.7977 9.84148 71.2136 17.947 75.6384 22.2518C80.2712 26.7807 107.676 33.3579 89.8731 42.5356C107.692 33.3579 80.2873 26.7807 75.6384 22.2518Z" fill="#B7A59C"/>
<path opacity="0.4" d="M75.6384 22.2518C71.2376 17.947 71.8057 9.84148 77.5427 7.20898C71.7977 9.84148 71.2136 17.947 75.6384 22.2518C80.2712 26.7807 107.676 33.3579 89.8731 42.5356C107.692 33.3579 80.2873 26.7807 75.6384 22.2518Z" fill="white"/>
<path d="M78.9348 6.68127V6.69728C82.8956 5.64108 86.5602 8.9697 86.7283 10.8741C86.5842 8.9777 82.9196 5.62507 78.9348 6.68127Z" fill="#B7A59C"/>
<path opacity="0.4" d="M78.9348 6.68127V6.69728C82.8956 5.64108 86.5602 8.9697 86.7283 10.8741C86.5842 8.9777 82.9196 5.62507 78.9348 6.68127Z" fill="white"/>
<path d="M107.892 40.3032L107.884 40.3112L107.892 40.3032Z" fill="#B7A59C"/>
<path opacity="0.4" d="M107.892 40.3032L107.884 40.3112L107.892 40.3032Z" fill="white"/>
<path d="M86.2883 11.65C86.3683 11.642 86.4563 11.618 86.5363 11.578V11.562C86.4563 11.61 86.3683 11.634 86.2883 11.65Z" fill="#B7A59C"/>
<path opacity="0.4" d="M86.2883 11.65C86.3683 11.642 86.4563 11.618 86.5363 11.578V11.562C86.4563 11.61 86.3683 11.634 86.2883 11.65Z" fill="white"/>
<path d="M101.747 42.3598C107.332 41.6237 107.708 41.4077 107.708 41.4077C107.796 41.0396 107.828 40.6715 107.852 40.3354C106.828 41.2636 100.979 42.2718 89.689 42.6319C89.681 42.6319 89.665 42.6319 89.657 42.6319L89.673 42.6479C89.673 42.6479 89.6489 42.6639 89.6329 42.6639C89.6489 42.6639 89.673 42.6639 89.689 42.6639C89.3449 42.8239 89.0008 43.008 88.6248 43.184C88.6248 43.184 88.3447 43.208 88.2007 43.224C88.5848 43.224 90.3691 43.144 96.1862 42.8079C100.603 42.5599 101.435 42.4959 101.515 42.4638C101.483 42.4558 101.443 42.4478 101.459 42.4318C101.411 42.4158 101.411 42.3998 101.739 42.3518L101.747 42.3598Z" fill="white"/>
<path opacity="0.4" d="M101.747 42.3598C107.332 41.6237 107.708 41.4077 107.708 41.4077C107.796 41.0396 107.828 40.6715 107.852 40.3354C106.828 41.2636 100.979 42.2718 89.689 42.6319C89.681 42.6319 89.665 42.6319 89.657 42.6319L89.673 42.6479C89.673 42.6479 89.6489 42.6639 89.6329 42.6639C89.6489 42.6639 89.673 42.6639 89.689 42.6639C89.3449 42.8239 89.0008 43.008 88.6248 43.184C88.6248 43.184 88.3447 43.208 88.2007 43.224C88.5848 43.224 90.3691 43.144 96.1862 42.8079C100.603 42.5599 101.435 42.4959 101.515 42.4638C101.483 42.4558 101.443 42.4478 101.459 42.4318C101.411 42.4158 101.411 42.3998 101.739 42.3518L101.747 42.3598Z" fill="white"/>
<path d="M89.6885 42.6641C89.6885 42.6641 89.6485 42.6641 89.6325 42.6641C89.3045 42.8401 88.9765 43.0081 88.6085 43.1681C88.6085 43.1681 87.8645 43.2241 88.2085 43.2241C88.3445 43.2081 88.6325 43.1841 88.6325 43.1841C89.0085 43.0001 89.3525 42.8241 89.6965 42.6641H89.6885Z" fill="white"/>
<path opacity="0.4" d="M89.6885 42.6641C89.6885 42.6641 89.6485 42.6641 89.6325 42.6641C89.3045 42.8401 88.9765 43.0081 88.6085 43.1681C88.6085 43.1681 87.8645 43.2241 88.2085 43.2241C88.3445 43.2081 88.6325 43.1841 88.6325 43.1841C89.0085 43.0001 89.3525 42.8241 89.6965 42.6641H89.6885Z" fill="white"/>
<path d="M101.531 42.4636C101.531 42.4636 101.507 42.4476 101.475 42.4316C101.459 42.4476 101.507 42.4556 101.531 42.4636Z" fill="white"/>
<path opacity="0.4" d="M101.531 42.4636C101.531 42.4636 101.507 42.4476 101.475 42.4316C101.459 42.4476 101.507 42.4556 101.531 42.4636Z" fill="white"/>
<path d="M107.852 40.3352C107.852 40.3352 107.852 40.3192 107.852 40.3032C106.916 41.2394 101.091 42.2636 89.689 42.6237C100.979 42.2636 106.82 41.2554 107.852 40.3272V40.3352Z" fill="white"/>
<path opacity="0.4" d="M107.852 40.3352C107.852 40.3352 107.852 40.3192 107.852 40.3032C106.916 41.2394 101.091 42.2636 89.689 42.6237C100.979 42.2636 106.82 41.2554 107.852 40.3272V40.3352Z" fill="white"/>
<path d="M114.598 86.272C114.598 86.272 114.558 86.36 114.51 86.488C114.694 86.344 114.598 86.272 114.598 86.272Z" fill="#E6E6E5"/>
<path d="M104.652 82.1272C104.652 82.1272 104.652 82.1272 104.644 82.1272C104.644 82.1272 104.644 82.1272 104.636 82.1272C104.588 82.1272 104.548 82.1112 104.5 82.1032C104.452 82.1032 104.404 82.0952 104.356 82.0792C104.308 82.0632 104.268 82.0392 104.22 82.0232C104.18 82.0072 104.132 81.9912 104.092 81.9672C103.571 81.6711 103.163 80.983 102.995 80.1108C102.859 80.1908 102.755 80.2468 102.755 80.2468C102.755 80.2468 102.539 80.3029 102.219 80.3749V80.3909C101.019 80.7029 98.2424 81.5751 98.2424 82.8953C98.2504 83.3354 98.5625 83.8235 99.3466 84.3516C100.107 84.8557 100.731 85.3998 101.347 85.9039C103.763 87.9603 105.292 89.7606 109.132 89.2165C113.077 88.6564 114.213 87.0161 114.501 86.44C114.341 86.584 113.925 86.7841 112.989 87.0321C111.061 87.5682 110.429 82.7593 107.892 80.5669C107.372 80.1188 106.868 79.8628 106.38 79.7188C106.268 80.7429 105.836 81.5831 105.252 81.9272C105.068 82.0472 104.86 82.1112 104.652 82.1112V82.1272Z" fill="#E6E6E5"/>
<path d="M102.219 80.3988V80.3828C101.011 80.6948 98.2185 81.5748 98.2505 82.9028C98.2505 81.5828 101.019 80.7108 102.219 80.3988Z" fill="#E6E6E5"/>
<path d="M45.7287 64.1638C45.8007 64.0358 45.8167 63.8838 45.7767 63.7478C45.7607 63.6837 45.7367 63.6277 45.6967 63.5717C45.6567 63.5157 45.6087 63.4677 45.5447 63.4197C45.2886 63.2597 44.9526 63.3317 44.7685 63.5797C44.6405 63.7638 44.3205 64.892 44.0324 66.7483C43.7283 68.7567 43.4723 71.6212 43.5843 75.1659C42.7202 75.3259 42.032 76.5022 42.056 77.9584C42.056 79.5107 42.8482 80.767 43.8004 80.767C44.7525 80.767 45.5287 79.4867 45.5127 77.9344C45.5127 76.8862 45.1526 75.9901 44.6325 75.502C44.6725 75.43 44.7205 75.3579 44.7205 75.2699C44.6485 73.5416 44.6805 71.9733 44.7765 70.605C44.9926 66.8203 45.6087 64.4599 45.7287 64.1558V64.1638Z" fill="#211E1F"/>
<path d="M44.7682 63.5875C44.9522 63.3315 45.2882 63.2595 45.5442 63.4275V63.4115C45.2722 63.2275 44.9282 63.2995 44.7682 63.5715C44.6402 63.7555 44.3202 64.8835 44.0322 66.7395C44.0322 66.7395 44.0322 66.7395 44.0322 66.7475C44.3202 64.8995 44.6482 63.7635 44.7682 63.5875Z" fill="#211E1F"/>
<path d="M45.7285 64.1558C45.6005 64.4599 44.9924 66.8203 44.7764 70.605C44.9924 66.8203 45.6085 64.4599 45.7285 64.1558Z" fill="#211E1F"/>
<path d="M103.531 64.7718C103.347 64.6517 103.091 64.6357 102.907 64.7558C102.635 64.9158 102.547 65.2599 102.723 65.5159C102.827 65.7719 103.387 67.9163 103.643 71.389L103.627 71.477C103.731 72.9733 103.788 74.6856 103.715 76.638C103.715 76.726 103.772 76.798 103.804 76.87C103.283 77.3581 102.923 78.2543 102.923 79.3025C102.923 79.5905 102.955 79.8626 102.995 80.1106C102.995 80.1106 102.995 80.1106 102.995 80.1186C102.995 80.1186 103.003 80.1186 103.011 80.1106C103.171 80.9828 103.579 81.6789 104.092 81.975C104.132 81.999 104.18 82.015 104.22 82.031C104.268 82.047 104.308 82.071 104.356 82.087C104.404 82.103 104.452 82.103 104.5 82.111C104.548 82.111 104.596 82.127 104.644 82.127C104.644 82.127 104.644 82.127 104.652 82.127L104.668 82.111C104.876 82.111 105.076 82.047 105.252 81.943C105.82 81.5909 106.244 80.7588 106.34 79.7506C106.34 79.6065 106.372 79.4625 106.372 79.3185C106.372 77.8622 105.708 76.67 104.844 76.526C104.972 72.4692 104.628 69.3006 104.268 67.2842C104.02 65.916 103.764 65.0838 103.675 64.9238C103.675 64.9238 103.675 64.9238 103.667 64.9158C103.627 64.8678 103.587 64.8198 103.531 64.7798V64.7718Z" fill="#211E1F"/>
<path d="M103.667 64.9082C103.667 64.9082 103.667 64.9082 103.675 64.9162C103.675 64.9162 103.675 64.9162 103.667 64.9082Z" fill="#211E1F"/>
<path d="M102.723 65.5159C102.539 65.2599 102.635 64.9238 102.907 64.7558C103.091 64.6357 103.347 64.6517 103.531 64.7718C103.339 64.6277 103.083 64.5957 102.883 64.7318V64.7478C102.627 64.9318 102.539 65.2519 102.699 65.5079C102.811 65.764 103.363 67.9003 103.619 71.381C103.619 71.405 103.619 71.437 103.619 71.469L103.635 71.381C103.379 67.9003 102.827 65.7559 102.715 65.5079L102.723 65.5159Z" fill="#211E1F"/>
<path d="M104.652 82.1191C104.86 82.1191 105.068 82.0471 105.252 81.9351C105.068 82.0471 104.868 82.1031 104.668 82.1031L104.652 82.1191Z" fill="#211E1F"/>
<path d="M104.636 82.1273C104.588 82.1273 104.54 82.1113 104.492 82.1113C104.54 82.1113 104.58 82.1273 104.628 82.1353C104.628 82.1353 104.628 82.1353 104.636 82.1353V82.1273Z" fill="#211E1F"/>
<path d="M104.091 81.967C103.579 81.671 103.171 80.983 103.011 80.103C103.011 80.103 103.003 80.103 102.995 80.111C103.163 80.975 103.571 81.671 104.091 81.967Z" fill="#211E1F"/>
<path d="M70.5573 63.3717L79.9831 61.0112C80.2872 60.9232 80.4712 60.6352 80.3992 60.3231C80.1191 59.1789 79.423 58.2107 78.4388 57.5226C78.3028 57.4266 78.1508 57.3386 78.0067 57.2585C76.7825 56.5944 75.3422 56.4104 73.95 56.7705C71.0454 57.4906 69.2451 60.2831 69.9332 62.9876C69.9652 63.1156 70.0452 63.2277 70.1573 63.2997C70.2373 63.3317 70.3253 63.3637 70.4213 63.3637H70.5653L70.5573 63.3717Z" fill="#211E1F"/>
<path d="M70.1812 63.3317C70.1812 63.3317 70.1812 63.3317 70.1732 63.3317C70.1572 63.3317 70.1492 63.3237 70.1492 63.3237L70.1812 63.3397V63.3317Z" fill="#211E1F"/>
<path d="M78.4307 57.5225C79.4148 58.2026 80.111 59.1708 80.391 60.323C80.463 60.627 80.279 60.9151 79.975 61.0111L70.5492 63.3716H70.4052C70.3091 63.3716 70.2211 63.3396 70.1411 63.3075C70.1491 63.3075 70.1571 63.3235 70.1651 63.3235C70.2211 63.3396 70.3411 63.3876 70.4292 63.3876H70.5732L79.999 61.0271C80.303 60.9551 80.4871 60.6511 80.415 60.339C80.127 59.1868 79.4309 58.2026 78.4387 57.5225H78.4307Z" fill="#211E1F"/>
<path d="M68.469 50.7532C68.397 50.6972 66.5406 49.4009 63.8201 50.8252L63.8041 50.8412C63.196 51.1613 62.7159 51.5453 62.3398 51.9374C61.2196 53.1296 61.0276 54.4339 61.0276 54.5139C60.9876 54.8179 61.2116 55.106 61.5157 55.146L61.4997 55.162H61.5717C61.7077 55.162 61.8357 55.114 61.9318 55.034C62.0278 54.946 62.0918 54.8339 62.1078 54.6979C62.1078 54.6179 62.3478 53.1456 63.8681 52.1214C64.0201 52.0174 64.1642 51.9134 64.3482 51.8174C66.4206 50.7372 67.7728 51.6173 67.8289 51.6573C68.0769 51.8334 68.421 51.7854 68.605 51.5453C68.781 51.2893 68.733 50.9372 68.477 50.7532H68.469Z" fill="#211E1F"/>
<path d="M62.1076 54.6976C62.0916 54.8336 62.0196 54.9536 61.9316 55.0336C62.0356 54.9456 62.1076 54.8256 62.1316 54.6816C62.1316 54.6176 62.3796 53.1616 63.8676 52.1216C62.3476 53.1456 62.1076 54.6176 62.1076 54.6976Z" fill="#211E1F"/>
<path d="M63.8361 50.8094C63.2039 51.1374 62.7159 51.5375 62.3318 51.9456C62.7079 51.5455 63.1879 51.1694 63.7961 50.8494L63.8121 50.8334C66.5326 49.4091 68.3889 50.7054 68.4609 50.7614C68.709 50.9374 68.765 51.2975 68.589 51.5535C68.589 51.5535 68.605 51.5455 68.605 51.5375C68.789 51.2815 68.733 50.9214 68.4769 50.7454C68.4049 50.6894 66.5486 49.3931 63.8281 50.8174L63.8361 50.8094Z" fill="#211E1F"/>
<path d="M86.0001 52.5536C85.9601 52.4656 85.296 50.2972 82.2874 49.7451C82.2714 49.7451 82.2634 49.7451 82.2474 49.7451C81.6793 49.6411 81.1592 49.6331 80.6871 49.6811C78.8788 49.8731 77.7826 50.9213 77.7826 50.9213V50.9373C77.6226 51.0974 77.5826 51.3374 77.6626 51.5375C77.6866 51.6015 77.7266 51.6655 77.7826 51.7135C77.9986 51.9295 78.3587 51.9455 78.5747 51.7135V51.7295C78.6467 51.6575 79.935 50.4813 82.0394 50.8493C82.0554 50.8493 82.0714 50.8493 82.0874 50.8493C84.3918 51.2814 84.8959 52.8097 84.9119 52.8657C84.9839 53.1217 85.216 53.2818 85.456 53.2818C85.512 53.2818 85.56 53.2818 85.6161 53.2658C85.6161 53.2658 85.6161 53.2658 85.6241 53.2658C85.9041 53.1698 86.0801 52.8737 85.9921 52.5696L86.0001 52.5536Z" fill="#211E1F"/>
<path d="M82.2876 49.7451C82.2876 49.7451 82.2636 49.7451 82.2476 49.7451C82.2636 49.7451 82.2716 49.7451 82.2876 49.7451C85.2956 50.3051 85.9596 52.4651 85.9996 52.5531C86.0876 52.8571 85.9116 53.1531 85.6316 53.2491C85.9276 53.1531 86.0876 52.8571 85.9996 52.5531C85.9836 52.4651 85.3116 50.3051 82.2876 49.7451Z" fill="#211E1F"/>
<path d="M78.5828 51.7212C78.5828 51.7212 79.9508 50.4732 82.0468 50.8412C79.9508 50.4732 78.6548 51.6492 78.5828 51.7212Z" fill="#211E1F"/>
<path d="M77.7827 50.9372V50.9212C77.7827 50.9212 78.8867 49.8732 80.6867 49.6812C78.9027 49.8572 77.8387 50.8652 77.7827 50.9212C77.6147 51.0892 77.5667 51.3292 77.6627 51.5372C77.5907 51.3372 77.6307 51.0972 77.7827 50.9372Z" fill="#211E1F"/>
<path d="M42.624 83.0474H42.68L42.648 83.0234L42.624 83.0474Z" fill="#0D72B9"/>
<path d="M32.9343 84.5596C32.9263 84.6637 32.9103 84.7437 32.8943 84.7917H34.0465V85.4558H18.2435V84.7917H19.3397C19.1637 84.5356 18.9237 84.1196 18.6916 83.5915C18.6916 83.5835 18.6836 83.5675 18.6756 83.5595C18.6036 83.3994 18.5396 83.2234 18.4676 83.0474H13.2586L9.36987 86.9921H38.7034V117.334H38.6474L38.7594 117.446L38.7274 87.0481L42.6161 83.0474H32.8863C32.9423 83.7355 32.9503 84.2556 32.9263 84.5596H32.9343Z" fill="#0D72B9"/>
<path d="M9.38595 86.9922H9.34595V112.565C10.0341 112.005 10.7862 111.445 11.7064 111.181C11.8664 111.133 12.0345 111.101 12.2105 111.093C14.747 110.909 18.4997 114.445 18.4997 114.445H18.5157L17.2514 117.206L17.3955 117.35H38.7115V87.0082H9.38595V86.9922Z" fill="#00A9E7"/>
<path d="M42.504 108.484L42.6801 83.0474L38.7673 87.0641L38.7913 117.462L42.504 108.724V108.484Z" fill="#004987"/>
<path d="M29.0615 66.2124C29.1175 66.3004 29.1895 66.3964 29.2455 66.5004C29.3735 66.2844 29.2455 66.2124 29.0615 66.2124Z" fill="#CCCBCB"/>
<path d="M28.4134 68.8205C28.4534 68.7325 28.4774 68.6445 28.5094 68.5565C28.5334 68.4925 28.5574 68.4365 28.5734 68.3725C28.6374 68.0604 28.6214 67.7403 28.5014 67.4043V67.3883C28.4854 67.3323 28.4454 67.3163 28.4454 67.2603C28.1413 67.4923 27.7573 67.7804 27.2372 68.1404C23.5405 70.6609 15.1309 69.4927 17.8114 72.2692C18.6356 73.1173 19.5877 74.1896 20.5399 75.2858C20.5399 75.2858 20.5399 75.2858 20.5399 75.2778C23.2764 72.4852 27.4452 70.7969 28.3974 68.8205H28.4134Z" fill="#CCCBCB"/>
<path d="M27.0212 64.9002C27.0212 64.9002 27.0532 64.9002 27.1252 64.8682C27.0612 64.8682 27.0292 64.9002 27.0292 64.9002H27.0212Z" fill="#E6E6E5"/>
<path d="M19.3477 84.7756H32.8942V84.7916C32.9102 84.7356 32.9262 84.6556 32.9342 84.5595C32.9582 84.2555 32.9502 83.7354 32.8942 83.0473C32.7102 80.7748 32.0861 76.6141 30.9339 71.4771C30.3898 69.0446 29.7817 67.4923 29.2215 66.5002C29.1655 66.3881 29.0935 66.3001 29.0375 66.2121C28.1573 64.8038 27.3812 64.8038 27.1091 64.8599C27.1091 64.8599 27.1091 64.8599 27.1171 64.8599C27.1171 64.8599 27.1172 64.8599 27.1252 64.8599C27.3092 64.8759 27.7013 65.2359 28.4454 67.2523C28.4614 67.3083 28.5014 67.3803 28.5014 67.3803C28.6214 67.7244 28.6454 68.0444 28.5734 68.3645C28.5574 68.4285 28.5334 68.4845 28.5094 68.5485C28.4774 68.6366 28.4614 68.7246 28.4134 68.8126C27.4692 70.789 23.2924 72.4693 20.5559 75.2858C20.5559 75.2858 20.5559 75.2858 20.5559 75.2778C20.1078 75.7259 19.7158 76.206 19.3557 76.7261C17.7154 79.1745 17.9474 81.463 18.4915 83.0152C18.5555 83.2073 18.6276 83.3833 18.6996 83.5513C18.6996 83.5594 18.7076 83.5754 18.7156 83.5834C18.9396 84.1035 19.1877 84.5115 19.3637 84.7676L19.3477 84.7756Z" fill="#E6E6E5"/>
<path d="M28.4134 68.8208C27.4612 70.7972 23.2924 72.4855 20.5559 75.278C20.5559 75.278 20.5559 75.278 20.5559 75.286C20.5559 75.286 20.5559 75.286 20.5559 75.294C23.3004 72.4775 27.4772 70.7972 28.4134 68.8208Z" fill="#E6E6E5"/>
<path d="M28.5013 67.3883C28.5013 67.3883 28.4613 67.3163 28.4453 67.2603C28.4453 67.3163 28.4773 67.3323 28.5013 67.3883Z" fill="#E6E6E5"/>
<path d="M19.3477 84.7915H18.2515V85.4556H34.0464V84.7915H32.8942H19.3477Z" fill="#004987"/>
<path d="M48.8972 115.205C47.513 113.221 45.6166 115.438 43.3122 116.974C42.6801 117.39 42.0319 117.75 41.3518 117.966C38.1272 118.974 33.0623 120.727 33.0623 120.727L40.3436 123.735C40.3436 123.735 43.6802 124.327 47.857 123.119C48.2731 122.991 48.6892 122.887 49.1373 122.727C52.3619 121.535 54.7703 121.839 55.0024 121.615C55.0504 121.503 54.6503 121.271 53.6421 120.727C53.3381 120.55 53.082 120.382 52.834 120.222C52.85 120.222 52.866 120.222 52.89 120.222C52.874 120.214 52.866 120.206 52.85 120.198C50.9216 118.95 50.3215 117.646 49.5854 116.302H49.5694C49.3693 115.942 49.1533 115.566 48.9052 115.205H48.8972Z" fill="#E6E6E5"/>
<path d="M48.8973 115.174C47.513 113.189 45.6327 115.43 43.3123 116.942V116.974C45.6167 115.446 47.513 113.229 48.8973 115.206C49.1534 115.566 49.3694 115.942 49.5614 116.302H49.5774C49.5774 116.302 49.5614 116.278 49.5614 116.27C49.3614 115.91 49.1453 115.534 48.8973 115.174Z" fill="#E6E6E5"/>
<path d="M53.6339 120.718C54.6339 121.262 55.0419 121.494 54.9939 121.606C55.1059 121.502 54.7139 121.278 53.6579 120.702C53.3699 120.55 53.1219 120.39 52.8819 120.222C52.8659 120.222 52.8499 120.222 52.8259 120.222C53.0819 120.382 53.3299 120.55 53.6339 120.726V120.718Z" fill="#E6E6E5"/>
<path d="M102.651 105.892L99.8909 107.404C99.8909 107.404 100.339 107.636 101.107 107.98C102.107 108.42 103.636 109.02 105.436 109.533C105.756 109.621 106.084 109.709 106.412 109.789C106.412 109.789 106.412 109.789 106.404 109.789C107.756 110.109 109.189 110.365 110.661 110.437C111.493 110.477 112.269 110.437 113.021 110.349C117.294 109.925 120.391 107.964 120.455 107.924C120.431 107.908 120.399 107.892 120.335 107.868C120.351 107.868 120.359 107.868 120.367 107.876C120.351 107.868 120.335 107.86 120.311 107.852C119.535 107.476 115.318 105.436 111.917 103.403C108.188 101.171 106.172 104.356 102.715 105.868C102.715 105.868 102.723 105.868 102.731 105.868C102.699 105.868 102.643 105.9 102.643 105.9L102.651 105.892Z" fill="#E6E6E5"/>
<path d="M120.463 107.916C120.463 107.916 120.423 107.9 120.375 107.868C120.367 107.868 120.351 107.868 120.343 107.86C120.407 107.884 120.439 107.908 120.463 107.916Z" fill="#E6E6E5"/>
<path d="M102.627 105.892L99.8667 107.404C99.8667 107.404 100.323 107.636 101.099 107.98C100.339 107.644 99.8827 107.404 99.8827 107.404L102.643 105.892C102.643 105.892 102.699 105.86 102.731 105.86C102.731 105.86 102.723 105.86 102.715 105.86C102.675 105.86 102.659 105.892 102.627 105.892Z" fill="#E6E6E5"/>
<path d="M105.436 109.532C105.748 109.62 106.068 109.708 106.396 109.788C106.396 109.788 106.396 109.788 106.404 109.788C106.404 109.788 106.404 109.788 106.412 109.788C106.076 109.708 105.748 109.62 105.436 109.532Z" fill="#E6E6E5"/>
<path d="M17.2193 117.19L18.4835 114.429C18.4835 114.429 14.7468 110.917 12.2104 111.077C12.0423 111.093 11.8823 111.117 11.7223 111.165C10.8021 111.437 10.05 111.997 9.36183 112.549C8.19361 113.501 7.21743 114.493 5.9532 114.173C3.93682 113.669 4.29688 115.942 0.784226 116.446C-2.72843 116.95 6.65733 120.622 6.65733 120.622C6.65733 120.622 14.0427 120.766 16.6192 120.606C16.6112 120.606 16.6032 120.606 16.5952 120.606C16.8992 120.59 17.1553 120.574 17.2993 120.534H17.3153C17.9554 120.422 18.5476 119.934 18.9076 119.582C19.1157 119.374 19.2437 119.214 19.2437 119.214L18.5956 118.566C18.5956 118.566 18.6196 118.566 18.6356 118.566L18.6196 118.55L17.3953 117.326H17.3633L17.2193 117.182V117.19Z" fill="#E6E6E5"/>
<path d="M19.2595 119.222C19.2595 119.222 19.1315 119.382 18.9235 119.59C19.1475 119.374 19.2755 119.206 19.2755 119.206L18.6435 118.574C18.6435 118.574 18.6195 118.574 18.6035 118.574L19.2515 119.222H19.2595Z" fill="#E6E6E5"/>
<path d="M17.3073 120.542C17.1633 120.574 16.9073 120.598 16.6033 120.614C16.6113 120.614 16.6193 120.614 16.6273 120.614C16.9233 120.598 17.1473 120.582 17.3073 120.542Z" fill="#E6E6E5"/>
<path d="M18.5156 114.437H18.4996C18.4996 114.437 14.7469 110.901 12.2104 111.085C14.7469 110.917 18.4836 114.437 18.4836 114.437L17.2194 117.198L17.3634 117.342H17.3954L17.2514 117.198L18.5156 114.437Z" fill="#E6E6E5"/>
<path d="M126.504 117.71C126.848 117.646 126.768 117.422 126.48 117.134C126.384 117.038 126.256 116.934 126.12 116.83L126.104 116.814C125.168 116.094 123.487 115.206 123.487 115.206C123.487 115.206 117.702 112.445 112.445 112.949C107.18 113.453 109.181 115.454 109.181 115.454C109.181 115.454 106.924 115.958 105.412 115.71C103.9 115.454 107.428 118.214 107.428 118.214C107.428 118.214 111.949 119.478 115.462 118.974H115.55C115.55 118.974 115.582 118.974 115.598 118.974C115.574 118.974 115.558 118.974 115.534 118.958C119.062 118.454 125.248 117.966 126.488 117.718L126.504 117.71Z" fill="#E6E6E5"/>
<path d="M126.48 117.134C126.768 117.422 126.848 117.646 126.504 117.71C125.264 117.966 119.078 118.446 115.55 118.95C115.574 118.95 115.59 118.95 115.614 118.966C119.15 118.462 125.288 117.982 126.52 117.726C126.872 117.662 126.784 117.43 126.48 117.134Z" fill="#E6E6E5"/>
<path d="M52.3059 58.3309V58.2989C53.2901 58.0108 54.1943 57.3467 54.4984 56.6746C54.5384 56.5865 54.5784 56.5145 54.6184 56.4345C54.6824 56.3065 54.7464 56.1705 54.8184 56.0504C54.9304 55.8664 55.0425 55.6904 55.1625 55.5304C56.7228 53.41 58.9072 53.546 59.4193 53.61C58.7552 53.2579 54.6424 51.1615 52.442 51.7536C52.0659 51.8577 51.7138 51.9857 51.3938 52.1217C48.9613 53.2659 47.9851 55.6744 49.2894 57.4827C49.9055 58.3469 50.8417 58.5629 51.7698 58.4349C51.9459 58.4109 52.1139 58.3789 52.2819 58.3309C52.2819 58.3309 52.2979 58.3309 52.3059 58.3309Z" fill="#00A9E7"/>
<path d="M54.4819 56.7222C54.5299 56.6262 54.5779 56.5382 54.6259 56.4502C54.5859 56.5302 54.5379 56.6022 54.5059 56.6902C54.2019 57.3542 53.2979 58.0262 52.3059 58.3142V58.3462C53.2899 58.0582 54.1779 57.3942 54.4819 56.7302V56.7222Z" fill="#00A9E7"/>
<path d="M59.5312 53.6738C59.5312 53.6738 59.4912 53.6498 59.4272 53.6178C58.9071 53.5538 56.7227 53.4177 55.1704 55.5381C56.9467 53.1457 59.5312 53.6658 59.5312 53.6658V53.6738Z" fill="#00A9E7"/>
<path d="M49.2973 57.4907C48.0011 55.6904 48.9693 53.2739 51.4017 52.1377C51.4017 52.1377 51.3937 52.1377 51.3857 52.1377C48.9533 53.2739 47.9771 55.6904 49.2813 57.4907C49.9054 58.3709 50.8576 58.5789 51.7778 58.4429C50.8576 58.5709 49.9214 58.3469 49.2973 57.4907Z" fill="#00A9E7"/>
<path d="M44.3925 61.3475C44.1685 59.6191 44.8326 58.5789 45.4567 58.0028C45.8568 57.6268 46.2409 57.4427 46.3689 57.3867C46.1048 57.4027 43.9684 57.5708 42.4001 58.2109C41.888 58.4189 41.44 58.667 41.1439 58.987C39.4476 60.8034 39.6636 63.1878 41.416 63.9079C42.1921 64.212 42.8962 63.964 43.4323 63.4759C44.0885 62.8837 44.4965 61.9716 44.4085 61.3475H44.3925Z" fill="#00A9E7"/>
<path d="M46.3681 57.3866L46.4161 57.3706C46.4161 57.3706 44.0881 57.5146 42.4161 58.2026C42.4161 58.2026 42.4001 58.2026 42.4001 58.2106C43.9681 57.5786 46.1041 57.4106 46.3681 57.3946V57.3866Z" fill="#00A9E7"/>
<path d="M44.4084 61.3316C44.1763 59.6272 44.8325 58.587 45.4486 58.0029C44.8245 58.579 44.1603 59.6192 44.3844 61.3476C44.4724 61.9717 44.0643 62.8758 43.4082 63.476C44.0723 62.8838 44.4884 61.9637 44.4004 61.3316H44.4084Z" fill="#00A9E7"/>
<path d="M41.0078 50.8974V50.8814C40.8077 50.8254 40.6317 50.7533 40.4316 50.7373C37.135 50.4653 34.8306 52.6497 35.5107 55.0822C36.1989 57.4426 39.6155 57.2106 40.6797 56.1064C41.0558 55.7063 41.4398 55.4182 41.8159 55.1702C44.0963 53.7139 46.1527 54.7461 46.4328 54.8981C46.0967 54.5301 43.2722 51.5215 41.0078 50.8974Z" fill="#00A9E7"/>
<path d="M41.0078 50.8813V50.8974C43.2802 51.5215 46.1048 54.53 46.4408 54.8981C46.4648 54.9061 46.4728 54.9141 46.4728 54.9141C46.4728 54.9141 43.4243 51.5295 41.0158 50.8813H41.0078Z" fill="#00A9E7"/>
<path d="M34.7505 63.7799C36.0868 64.34 37.239 62.6997 37.127 61.7955C36.8389 59.4191 38.7113 58.731 38.7113 58.731C38.7113 58.731 35.5907 58.875 34.5825 59.9392C33.2463 61.3234 33.3903 63.2038 34.7425 63.7799H34.7505Z" fill="#00A9E7"/>
<path d="M49.0413 51.4893C49.6895 50.5851 50.3936 50.1211 51.0577 49.889C51.0577 49.889 51.0737 49.889 51.0817 49.889V49.857C52.1699 49.4649 53.1221 49.697 53.4262 49.785C53.1221 49.5449 52.0179 48.6968 50.7937 48.0487C49.8895 47.5766 48.9373 47.2005 48.1772 47.2565C47.353 47.3125 46.6329 47.5446 46.0568 47.8966C44.7845 48.6808 44.2244 50.033 44.8085 51.3133C45.1686 52.0974 45.8887 52.4255 46.6489 52.4575C47.6171 52.4975 48.6413 52.0574 49.0413 51.4893Z" fill="#00A9E7"/>
<path d="M51.0815 49.8573V49.8893C52.3935 49.4173 53.5135 49.8573 53.5135 49.8573C53.5135 49.8573 53.4815 49.8253 53.4255 49.7853C53.1295 49.6973 52.1695 49.4653 51.0815 49.8573Z" fill="#00A9E7"/>
<path d="M44.8084 51.3136C44.2243 50.0414 44.7844 48.6891 46.0566 47.897C44.7684 48.6811 44.2083 50.0494 44.7924 51.3296V51.3136C45.1604 52.1058 45.8886 52.4338 46.6487 52.4578C45.8886 52.4258 45.1684 52.0978 44.8084 51.3136Z" fill="#00A9E7"/>
<path d="M39.2394 68.9168C40.0876 68.3967 39.6155 67.1005 39.0794 66.8124C37.6391 66.0363 37.9992 64.708 37.9992 64.708C37.9992 64.708 36.847 66.5243 37.047 67.5005H37.031C37.2871 68.7968 38.3833 69.4609 39.2474 68.9248L39.2394 68.9168Z" fill="#00A9E7"/>
<path d="M94.5057 51.1695C92.2493 50.5774 87.9605 52.7938 87.4724 53.0498C87.8805 52.9858 90.8891 52.6337 92.4653 56.1064C93.0975 57.5147 96.2501 58.8829 97.6743 56.8825C98.0344 56.3704 98.2184 55.8103 98.2424 55.2422C98.2984 53.5459 96.8902 51.8016 94.5057 51.1695Z" fill="#00A9E7"/>
<path d="M92.4655 56.1062C90.8892 52.6336 87.8806 52.9856 87.4726 53.0496C87.4406 53.0656 87.4246 53.0736 87.4246 53.0736C87.4246 53.0736 90.7772 52.4095 92.4735 56.1222C93.1056 57.5065 96.2582 58.8987 97.6825 56.8984C98.0506 56.3783 98.2346 55.8102 98.2506 55.2421C98.2266 55.8102 98.0426 56.3703 97.6825 56.8824C96.2582 58.8827 93.1056 57.5145 92.4735 56.1062H92.4655Z" fill="#00A9E7"/>
<path d="M102.579 60.7393C102.547 60.9873 102.579 61.2753 102.683 61.5794C102.995 62.4756 103.851 63.4278 104.884 63.4278C105.1 63.4278 105.332 63.3877 105.564 63.2997C107.308 62.5796 107.532 60.2031 105.836 58.3788C105.796 58.3468 105.748 58.3068 105.692 58.2668C104.348 57.0506 100.811 56.7865 100.579 56.7705C100.619 56.7865 102.987 57.7147 102.571 60.7312L102.579 60.7393Z" fill="#00A9E7"/>
<path d="M102.555 60.7312C102.523 60.9793 102.571 61.2754 102.675 61.5714C102.571 61.2754 102.531 60.9793 102.571 60.7312C102.979 57.7147 100.619 56.7865 100.579 56.7705H100.555C100.555 56.7705 102.947 57.6747 102.555 60.7312Z" fill="#00A9E7"/>
<path d="M106.54 50.1451C104.059 50.3452 100.507 54.3219 100.507 54.3219C100.507 54.3219 100.523 54.3139 100.547 54.2979C100.899 54.1059 103.515 52.8176 106.124 55.3461C106.14 55.3621 106.148 55.3701 106.164 55.3861C106.196 55.4181 106.236 55.4581 106.268 55.4981C107.332 56.5943 110.757 56.8504 111.437 54.4739C112.101 52.1695 110.021 50.1051 106.988 50.1291V50.1451H106.532H106.54Z" fill="#00A9E7"/>
<path d="M100.547 54.2978C100.899 54.1058 103.515 52.8336 106.124 55.346C103.515 52.8176 100.899 54.1058 100.547 54.2978Z" fill="#00A9E7"/>
<path d="M106.524 50.1211C104.06 50.3211 100.491 54.2979 100.491 54.2979L100.507 54.3139C100.507 54.3139 104.06 50.3291 106.54 50.1371H106.988V50.1211C106.988 50.1211 106.98 50.1211 106.972 50.1211H106.524Z" fill="#00A9E7"/>
<path d="M109.837 61.2032C109.725 62.1074 110.885 63.7477 112.213 63.1876C113.565 62.6115 113.709 60.7552 112.373 59.3469C111.365 58.2987 108.244 58.1387 108.244 58.1387C108.244 58.1387 110.117 58.8268 109.829 61.2032H109.837Z" fill="#00A9E7"/>
<path d="M98.7707 46.6486C96.8983 46.5126 93.8658 48.897 93.4817 49.2091C93.8017 49.0891 96.1222 48.3769 97.9065 50.8814C98.6267 51.8896 101.331 52.5057 102.155 50.6974C102.315 50.3533 102.387 50.0013 102.387 49.6572C102.371 48.1529 100.931 46.7847 98.7707 46.6406V46.6486Z" fill="#00A9E7"/>
<path d="M98.7706 46.6246C96.7702 46.4806 93.4336 49.2171 93.4336 49.2171C93.4336 49.2171 93.4496 49.2171 93.4736 49.2011C93.8577 48.8891 96.8982 46.5046 98.7626 46.6406C100.923 46.7847 102.363 48.1529 102.379 49.6572C102.379 48.1529 100.931 46.7847 98.7626 46.6246H98.7706Z" fill="#00A9E7"/>
<path d="M107.908 66.1964H107.892C107.356 66.4844 106.884 67.7967 107.732 68.3008C108.597 68.8449 109.693 68.1727 109.949 66.8765C110.149 65.9003 108.997 64.084 108.997 64.084C108.997 64.084 109.357 65.4202 107.916 66.1884L107.908 66.1964Z" fill="#00A9E7"/>
</g>
<defs>
<clipPath id="clip0_336_104">
<rect width="128" height="119.758" fill="white" transform="translate(0 4.12061)"/>
</clipPath>
</defs>
</svg>
