<svg width="128" height="128" viewBox="0 0 128 128" fill="none" xmlns="http://www.w3.org/2000/svg">
<g opacity="0.3" style="mix-blend-mode:multiply">
<path d="M111.678 108.93C111.703 109.019 111.716 109.107 111.741 109.195C111.994 109.297 112.196 109.448 112.259 109.663C112.423 110.193 111.855 110.85 110.996 111.128C110.124 111.406 109.29 111.192 109.113 110.661C108.949 110.13 109.518 109.473 110.377 109.195C110.591 109.132 110.806 109.094 111.021 109.082C111.008 109.031 110.996 108.968 110.983 108.918C109.025 108.854 106.978 108.829 104.843 108.829C103.593 108.829 102.367 108.842 101.167 108.867C101.331 108.968 101.47 109.094 101.521 109.259C101.685 109.789 101.116 110.446 100.257 110.724C99.3857 111.002 98.5519 110.787 98.375 110.257C98.2234 109.777 98.6782 109.221 99.3857 108.918C89.2412 109.183 81.6865 110.193 81.6865 111.381C81.6865 112.783 92.0584 113.92 104.843 113.92C117.628 113.92 128 112.783 128 111.381C128 110.244 121.127 109.271 111.678 108.955V108.93Z" fill="#4D4D4F"/>
</g>
<path d="M110.983 108.917C110.983 108.917 111.008 109.031 111.021 109.082C110.819 109.082 110.604 109.132 110.377 109.195C109.505 109.473 108.936 110.13 109.113 110.661C109.278 111.191 110.124 111.406 110.996 111.128C111.867 110.85 112.436 110.193 112.259 109.663C112.183 109.448 111.994 109.296 111.741 109.195C111.716 109.107 111.703 109.019 111.678 108.93C111.21 107.048 111.324 105.33 111.501 104.243C111.274 104.256 111.046 104.268 110.819 104.281C110.642 105.405 110.553 107.06 110.983 108.917Z" fill="#231F20"/>
<path d="M98.375 110.244C98.5393 110.774 99.3857 110.989 100.257 110.711C101.129 110.433 101.698 109.776 101.521 109.246C101.47 109.082 101.331 108.955 101.167 108.854C101.116 108.829 101.066 108.804 101.003 108.778C100.586 106.959 100.712 104.963 100.864 103.738C100.636 103.7 100.422 103.675 100.194 103.637C100.043 104.85 99.9037 106.795 100.283 108.652C100.081 108.652 99.8531 108.703 99.6384 108.766C99.5373 108.791 99.4615 108.842 99.3731 108.88C98.6656 109.195 98.2108 109.751 98.3624 110.219L98.375 110.244Z" fill="#231F20"/>
<path d="M14.5915 109.044C8.70442 109.36 4.34595 110.484 4.34595 111.823C4.34595 113.415 10.4478 114.704 17.9898 114.704C25.5319 114.704 31.6337 113.415 31.6337 111.823C31.6337 110.522 27.5153 109.423 21.8809 109.069V101.173H14.6041V109.044H14.5915Z" fill="#58595B"/>
<path d="M37.6976 23.125C37.6976 17.7054 29.2586 13.2964 18.8488 13.2964C8.43901 13.2964 0 17.6928 0 23.125V101.186H37.6976V23.125ZM24.7106 81.7054C24.5464 82.1728 24.3822 82.6276 24.2053 83.095C24.0032 83.7141 23.7631 84.4973 23.4473 85.647C23.4473 85.6722 23.4347 85.7101 23.422 85.748C23.2578 86.3292 23.0809 86.9987 22.8914 87.782C22.3356 89.9044 21.5902 92.8226 21.5902 92.8226C21.4512 93.1132 21.2365 93.3153 20.8196 93.429C20.8196 93.429 20.4911 93.5427 20.0869 93.4796C19.2278 93.3406 19.1899 92.6458 19.0509 92.0899C18.8362 91.2309 18.634 89.1337 18.6088 87.9083C18.6088 87.782 18.6088 87.6556 18.6088 87.5293C18.6088 87.4914 18.6088 87.4535 18.6088 87.403C18.6088 87.3398 18.6088 87.3145 18.6088 87.2893C18.6088 87.2514 18.5709 87.2387 18.533 87.2514C18.4951 87.2514 18.4572 87.3019 18.394 87.4788C18.2803 87.8199 18.0782 88.4894 17.9139 89.0706C17.636 90.0686 17.3202 91.2056 17.1686 91.8625C17.0043 92.4689 16.8527 93.0753 16.6885 93.6817C16.5622 94.2249 16.0063 94.566 15.6526 94.6545C15.261 94.7555 15.0209 94.7682 14.7304 94.6924C14.3261 94.5913 14.0987 94.0733 13.985 93.6185C13.9218 93.3659 13.8081 92.8858 13.7576 92.3047C13.6818 91.1424 13.6439 90.3339 13.6944 89.159C13.745 87.8072 13.8966 85.8112 13.9976 84.7121C14.0229 84.3457 14.0355 83.9794 14.0608 83.613C14.0608 83.2087 14.0482 82.9561 13.9976 82.7666C13.9597 82.615 13.8966 82.5266 13.7955 82.375C13.7576 82.3244 13.7197 82.2865 13.7197 82.2486C13.6565 82.0086 14.1871 81.5791 14.882 81.4275C15.3115 81.339 15.6905 81.3138 15.9937 81.5917C16.1832 81.8191 16.2211 82.0339 16.1958 82.4886C16.1958 82.6403 16.1705 82.8677 16.1453 83.0824C16.0821 83.7899 15.8926 85.0279 15.8295 85.7354C15.7284 86.7082 15.6147 87.8072 15.5768 88.8179C15.5642 89.3106 15.5389 90.2581 15.5768 90.3971C15.5894 90.4729 15.6273 90.5234 15.6905 90.5108C15.7537 90.4981 15.7789 90.4476 15.88 90.2076C15.9053 90.1065 15.9305 90.0054 15.9558 89.917C15.9811 89.8159 16.0063 89.7149 16.0316 89.6264C16.0316 89.6264 16.4611 88.1989 16.8148 87.024C17.1938 85.8996 17.5855 84.7374 17.8381 84.0804C18.2171 83.1203 18.4066 82.4128 19.0383 82.2613C19.67 82.1096 20.2511 82.3876 20.3648 82.855C20.428 83.095 20.4279 83.2466 20.3901 84.1941C20.3269 85.8491 20.4153 87.1503 20.4406 88.4136C20.4659 88.9569 20.5038 89.3864 20.5543 89.5885C20.5796 89.677 20.6301 89.7149 20.668 89.7022C20.7438 89.6896 20.7817 89.6138 20.8322 89.3864C20.8575 89.2727 20.8827 89.1716 20.908 89.0579C21.0596 88.3252 21.2238 87.5925 21.3754 86.8471C21.7418 85.2301 21.9818 84.2826 22.424 82.7918C22.942 81.0232 23.3336 80.2147 23.9653 80.0883C24.559 79.962 24.9001 80.4547 24.9254 80.9474C24.9254 81.1116 24.8622 81.478 24.7233 81.7307L24.7106 81.7054ZM33.3518 74.7697H4.34584V29.0248H33.3518V74.7571V74.7697Z" fill="#D0D2D3"/>
<path d="M33.3519 29.0249H4.34595V74.7572H33.3519V29.0249Z" fill="#66CCF1"/>
<path d="M23.9527 80.0629C23.321 80.2019 22.942 80.9978 22.4114 82.7664C21.9693 84.2571 21.7166 85.2046 21.3629 86.8217C21.2113 87.5544 21.0471 88.2871 20.8955 89.0325C20.8702 89.1462 20.8449 89.2473 20.8197 89.361C20.7691 89.5884 20.7439 89.6515 20.6554 89.6768C20.6175 89.6768 20.567 89.6515 20.5417 89.5631C20.4912 89.361 20.4533 88.9314 20.428 88.3882C20.4028 87.1249 20.3143 85.8236 20.3775 84.1687C20.4154 83.2212 20.4154 83.0696 20.3522 82.8296C20.2385 82.3621 19.6574 82.0716 19.0257 82.2358C18.3941 82.3874 18.2046 83.0949 17.8256 84.055C17.5729 84.7119 17.1939 85.8742 16.8023 86.9985C16.4485 88.1608 16.019 89.601 16.019 89.601C15.9938 89.7021 15.9685 89.8031 15.9432 89.8916C15.918 89.9926 15.8927 90.0937 15.8674 90.1821C15.779 90.4222 15.7411 90.4727 15.6779 90.4853C15.6148 90.4979 15.5769 90.4474 15.5642 90.3716C15.5263 90.22 15.539 89.2852 15.5642 88.7925C15.6021 87.7818 15.7032 86.6827 15.8169 85.71C15.8801 85.0025 16.0696 83.7644 16.1327 83.057C16.158 82.8422 16.1706 82.6148 16.1833 82.4632C16.1959 82.0084 16.1833 81.7936 15.9811 81.5662C15.6779 81.2883 15.2989 81.3136 14.8694 81.402C14.1746 81.5536 13.644 81.9831 13.7071 82.2232C13.7071 82.2611 13.7577 82.299 13.7829 82.3495C13.884 82.5011 13.9472 82.5895 13.9851 82.7411C14.0356 82.918 14.0609 83.1707 14.0482 83.5876C14.023 83.9539 14.0103 84.3203 13.9851 84.6867C13.884 85.7857 13.7324 87.7692 13.6819 89.1336C13.644 90.3085 13.6819 91.117 13.745 92.2792C13.7829 92.8604 13.9093 93.3404 13.9724 93.5931C14.0861 94.0479 14.3135 94.5659 14.7178 94.6669C15.021 94.7427 15.2484 94.7301 15.64 94.629C16.0064 94.5406 16.5496 94.1995 16.6759 93.6563C16.8402 93.0499 16.9918 92.4435 17.156 91.8371C17.295 91.1928 17.6234 90.0432 17.9014 89.0451C18.0656 88.4514 18.2677 87.7944 18.3814 87.4533C18.4446 87.2765 18.4825 87.2386 18.5204 87.2259C18.5583 87.2259 18.5836 87.2259 18.5962 87.2638C18.5962 87.2765 18.5962 87.3144 18.5962 87.3775C18.5962 87.4154 18.5962 87.4533 18.5962 87.5039C18.5962 87.6302 18.5962 87.7565 18.5962 87.8829C18.6088 89.1083 18.8236 91.2054 19.0384 92.0645C19.1773 92.633 19.2152 93.3152 20.0743 93.4541C20.4786 93.5173 20.807 93.4036 20.807 93.4036C21.2239 93.2773 21.4387 93.0878 21.5776 92.7972C21.5776 92.7972 22.323 89.8916 22.8789 87.7565C23.081 86.9733 23.2579 86.3037 23.4095 85.7226C23.4095 85.6847 23.4347 85.6468 23.4347 85.6215C23.7506 84.4845 23.9906 83.6886 24.1927 83.0696C24.357 82.6022 24.5212 82.1474 24.6981 81.6799C24.8244 81.4147 24.9128 81.0609 24.9002 80.8967C24.8749 80.404 24.5465 79.9113 23.9401 80.0376L23.9527 80.0629Z" fill="#D0D2D3"/>
<path d="M23.9527 80.0629C23.321 80.2019 22.942 80.9978 22.4114 82.7664C21.9693 84.2571 21.7166 85.2046 21.3629 86.8217C21.2113 87.5544 21.0471 88.2871 20.8955 89.0325C20.8702 89.1462 20.8449 89.2473 20.8197 89.361C20.7691 89.5884 20.7439 89.6515 20.6554 89.6768C20.6175 89.6768 20.567 89.6515 20.5417 89.5631C20.4912 89.361 20.4533 88.9314 20.428 88.3882C20.4028 87.1249 20.3143 85.8236 20.3775 84.1687C20.4154 83.2212 20.4154 83.0696 20.3522 82.8296C20.2385 82.3621 19.6574 82.0716 19.0257 82.2358C18.3941 82.3874 18.2046 83.0949 17.8256 84.055C17.5729 84.7119 17.1939 85.8742 16.8023 86.9985C16.4485 88.1608 16.019 89.601 16.019 89.601C15.9938 89.7021 15.9685 89.8031 15.9432 89.8916C15.918 89.9926 15.8927 90.0937 15.8674 90.1821C15.779 90.4222 15.7411 90.4727 15.6779 90.4853C15.6148 90.4979 15.5769 90.4474 15.5642 90.3716C15.5263 90.22 15.539 89.2852 15.5642 88.7925C15.6021 87.7818 15.7032 86.6827 15.8169 85.71C15.8801 85.0025 16.0696 83.7644 16.1327 83.057C16.158 82.8422 16.1706 82.6148 16.1833 82.4632C16.1959 82.0084 16.1833 81.7936 15.9811 81.5662C15.6779 81.2883 15.2989 81.3136 14.8694 81.402C14.1746 81.5536 13.644 81.9831 13.7071 82.2232C13.7071 82.2611 13.7577 82.299 13.7829 82.3495C13.884 82.5011 13.9472 82.5895 13.9851 82.7411C14.0356 82.918 14.0609 83.1707 14.0482 83.5876C14.023 83.9539 14.0103 84.3203 13.9851 84.6867C13.884 85.7857 13.7324 87.7692 13.6819 89.1336C13.644 90.3085 13.6819 91.117 13.745 92.2792C13.7829 92.8604 13.9093 93.3404 13.9724 93.5931C14.0861 94.0479 14.3135 94.5659 14.7178 94.6669C15.021 94.7427 15.2484 94.7301 15.64 94.629C16.0064 94.5406 16.5496 94.1995 16.6759 93.6563C16.8402 93.0499 16.9918 92.4435 17.156 91.8371C17.295 91.1928 17.6234 90.0432 17.9014 89.0451C18.0656 88.4514 18.2677 87.7944 18.3814 87.4533C18.4446 87.2765 18.4825 87.2386 18.5204 87.2259C18.5583 87.2259 18.5836 87.2259 18.5962 87.2638C18.5962 87.2765 18.5962 87.3144 18.5962 87.3775C18.5962 87.4154 18.5962 87.4533 18.5962 87.5039C18.5962 87.6302 18.5962 87.7565 18.5962 87.8829C18.6088 89.1083 18.8236 91.2054 19.0384 92.0645C19.1773 92.633 19.2152 93.3152 20.0743 93.4541C20.4786 93.5173 20.807 93.4036 20.807 93.4036C21.2239 93.2773 21.4387 93.0878 21.5776 92.7972C21.5776 92.7972 22.323 89.8916 22.8789 87.7565C23.081 86.9733 23.2579 86.3037 23.4095 85.7226C23.4095 85.6847 23.4347 85.6468 23.4347 85.6215C23.7506 84.4845 23.9906 83.6886 24.1927 83.0696C24.357 82.6022 24.5212 82.1474 24.6981 81.6799C24.8244 81.4147 24.9128 81.0609 24.9002 80.8967C24.8749 80.404 24.5465 79.9113 23.9401 80.0376L23.9527 80.0629Z" fill="#DB4848"/>
<path d="M47.5388 61.6819V51.9038H37.6975V75.2374H47.5388V66.053H47.5262V61.6693L47.5388 61.6819ZM45.9849 69.5904H39.1377V57.5509H45.9849V69.5904Z" fill="#58595B"/>
<path d="M45.9849 57.5508H39.1377V69.5903H45.9849V57.5508Z" fill="#58595B"/>
<path d="M45.9849 57.5508H39.1377V69.5903H45.9849V57.5508Z" fill="#231F20"/>
<path d="M87.8262 83.5246C86.5882 83.7772 85.4133 82.8045 84.8321 82.1981C84.5921 81.9454 84.3521 81.6801 84.1247 81.4148C83.6825 80.9095 83.2277 80.4041 82.6971 79.9746C82.7224 80.202 82.6466 80.4547 82.5203 80.7073C82.8993 81.0484 83.253 81.4401 83.6194 81.857C83.8594 82.1349 84.0994 82.4002 84.3521 82.6655C84.9585 83.2845 86.0955 84.2446 87.422 84.2446C87.5988 84.2446 87.7883 84.232 87.9652 84.1941C88.6979 84.0425 89.2917 83.6004 89.7844 83.095L89.6328 82.2739C89.1401 82.8424 88.5463 83.3856 87.8262 83.5372V83.5246Z" fill="#231F20"/>
<path d="M81.0676 80.4673L80.158 80.4926C79.8674 80.9853 79.8169 81.5033 80.0822 81.7938C80.4612 82.2107 81.3202 82.0338 82.0024 81.4148C82.2425 81.2001 82.394 80.9474 82.5204 80.7074C82.3435 80.5558 82.1666 80.4168 81.9771 80.2778C81.6866 80.3789 81.3834 80.4547 81.0549 80.4673H81.0676Z" fill="#231F20"/>
<path d="M82.6971 79.9744C82.6971 79.9744 82.6971 79.9492 82.6971 79.9365C82.6971 79.9365 82.6718 79.9365 82.6592 79.9492C82.6592 79.9492 82.6718 79.9618 82.6844 79.9744H82.6971Z" fill="#231F20"/>
<path d="M82.6719 79.9492C82.4571 80.0882 82.2297 80.2019 81.9771 80.2903C82.1665 80.4166 82.3434 80.5556 82.5203 80.7198C82.6466 80.4672 82.7224 80.2019 82.6971 79.9871C82.6971 79.9871 82.6845 79.9745 82.6719 79.9619V79.9492Z" fill="#231F20"/>
<path d="M82.6719 79.9492C82.4571 80.0882 82.2297 80.2019 81.9771 80.2903C82.1665 80.4166 82.3434 80.5556 82.5203 80.7198C82.6466 80.4672 82.7224 80.2019 82.6971 79.9871C82.6971 79.9871 82.6845 79.9745 82.6719 79.9619V79.9492Z" fill="#231F20"/>
<path d="M106.561 104.281C108.052 104.344 109.48 104.332 110.819 104.281C111.046 104.281 111.274 104.256 111.501 104.243C116.668 103.953 120.319 102.866 120.294 101.401C120.294 101.148 120.167 100.895 119.953 100.655L126.016 62.086L126.143 61.2017C124.185 62.5408 115.821 62.8061 109.694 62.8061C108.204 62.8061 106.839 62.7935 105.728 62.7682C101.546 62.6924 96.1641 62.4271 91.9573 61.947L97.996 103.195C98.6908 103.359 99.4235 103.51 100.219 103.637C100.434 103.675 100.662 103.713 100.889 103.738C102.632 104.003 104.553 104.193 106.574 104.268L106.561 104.281ZM113.244 85.647C113.472 85.129 114.331 85.0153 115.165 85.3817C115.632 85.5838 115.973 85.8996 116.163 86.2281L119.586 85.1417C120.357 84.8511 120.849 84.3837 121.064 83.6888C121.784 81.4401 119.321 77.8017 119.296 77.7638C119.195 77.6122 119.232 77.3975 119.384 77.2964C119.536 77.1953 119.75 77.2332 119.851 77.3848C119.965 77.5491 122.517 81.3264 121.709 83.891C121.431 84.7753 120.786 85.407 119.814 85.7733L116.289 86.8977C116.289 86.8977 116.289 86.9482 116.289 86.9735C116.062 87.4914 115.202 87.6051 114.369 87.2388C113.535 86.8724 113.042 86.1649 113.27 85.647H113.244ZM110.629 67.3414C111.185 67.2783 111.716 67.9604 111.804 68.87C111.905 69.767 111.526 70.5503 110.97 70.6134C110.414 70.6766 109.884 69.9944 109.795 69.0848C109.707 68.1752 110.073 67.4046 110.629 67.3414ZM103.239 73.4685L108.835 72.5084C109.025 72.4705 109.189 72.5968 109.214 72.7737C109.353 73.557 109.151 74.3529 108.646 75.0098C108.153 75.6541 107.42 76.0963 106.587 76.2352C106.397 76.2731 106.195 76.2858 106.005 76.2858C104.502 76.2858 103.201 75.2877 102.948 73.8602C102.923 73.6833 103.037 73.5064 103.213 73.4812L103.239 73.4685ZM98.8677 69.8302C98.7666 68.9332 99.1456 68.1499 99.7014 68.0868C100.257 68.0236 100.788 68.7058 100.876 69.6154C100.977 70.5124 100.598 71.2956 100.043 71.3588C99.4867 71.422 98.9561 70.7398 98.8677 69.8302Z" fill="#DF5551"/>
<g opacity="0.2" style="mix-blend-mode:multiply">
<path d="M92.7026 100.302C92.7405 102.197 97.478 103.106 97.996 103.271V103.195C94.7871 102.437 92.7279 101.388 92.7026 100.302Z" fill="#A32035"/>
</g>
<path d="M85.4639 60.4312V60.4691L89.6328 82.2488L89.7844 83.0699L92.9554 99.6447C92.7911 99.8595 92.6901 100.074 92.7027 100.302C92.728 101.388 94.7872 102.437 97.9834 103.195L91.9447 61.9471C88.7232 61.5808 86.2092 61.0754 85.4639 60.4312Z" fill="#DF5551"/>
<g opacity="0.2" style="mix-blend-mode:multiply">
<path d="M85.4639 60.4312V60.4691L89.6328 82.2488L89.7844 83.0699L92.9554 99.6447C92.7911 99.8595 92.6901 100.074 92.7027 100.302C92.728 101.388 94.7872 102.437 97.9834 103.195L91.9447 61.9471C88.7232 61.5808 86.2092 61.0754 85.4639 60.4312Z" fill="#A32035"/>
</g>
<path d="M85.8177 59.9254C86.1841 60.7087 93.9535 61.9468 105.728 62.1489C109.429 62.2121 112.562 62.1868 115.215 62.0984C125.84 56.704 109.707 52.8256 106.978 50.1726C104.199 47.4564 104.793 42.1631 108.911 41.064C111.564 40.3565 113.977 42.9969 113.383 43.9191C113.548 43.8181 113.712 43.6033 113.762 43.1864C113.762 43.1864 113.762 43.1611 113.762 43.1485C114.141 41.1272 111.261 39.8133 109.657 39.5986C108.444 39.4343 105.829 39.447 103.618 41.1524C100.662 43.4138 99.1458 48.7071 88.6855 54.1394C85.4766 55.807 85.1734 58.8263 85.7925 59.9633H85.8177C85.8177 59.9633 85.8177 59.9381 85.8177 59.9254Z" fill="#B7A59C"/>
<path d="M112.865 43.8436C112.865 43.8436 112.815 43.7678 112.802 43.7046C112.802 43.7551 112.828 43.793 112.865 43.8436Z" fill="#B7A59C"/>
<path d="M91.9448 61.9468C96.1517 62.4268 101.533 62.6921 105.715 62.7679C106.814 62.7806 108.179 62.8058 109.682 62.8058C115.809 62.8058 124.185 62.5532 126.13 61.2014C126.396 61.0119 126.547 60.8098 126.56 60.595H125.928C125.928 60.595 125.903 60.6708 125.852 60.7213C125.84 60.9361 125.815 61.1509 125.764 61.3783C125.764 61.3783 125.537 61.5046 122.277 61.9341C121.545 62.0352 123.68 61.9341 119.03 62.1994C112.6 62.5658 114.584 62.4016 114.584 62.4016C114.811 62.3005 115.013 62.1868 115.215 62.0857C112.575 62.1742 109.429 62.1994 105.728 62.1363C93.9409 61.9341 86.1841 60.7087 85.8177 59.9128C85.8177 59.9128 85.8177 59.9507 85.8177 59.9634H85.7924L85.2618 59.6602C85.1608 59.8497 85.1608 60.0518 85.2618 60.2287C85.2997 60.2918 85.3882 60.355 85.4513 60.4181C86.1967 61.0624 88.7107 61.5678 91.9322 61.9341L91.9448 61.9468Z" fill="white"/>
<path opacity="0.4" d="M112.865 43.8438C112.992 44.0332 113.295 44.0332 113.371 43.9322C113.371 43.9322 113.371 43.9322 113.371 43.9195C113.181 44.0332 112.967 43.9701 112.865 43.8438Z" fill="white"/>
<path d="M108.911 41.0516C104.793 42.1507 104.199 47.4441 106.978 50.1602C109.707 52.8258 125.84 56.6916 115.215 62.086C121.923 61.8712 125.334 61.2648 125.852 60.7216C126.118 56.9948 121.153 55.5167 121.153 55.5167C125.688 52.4847 113.611 47.8989 113.611 47.8989C113.611 47.8989 113.611 47.8989 113.598 47.8989C113.345 47.7725 113.105 47.6336 112.865 47.5072C112.133 47.0777 111.021 46.3197 110.377 45.3848C110.351 45.3469 110.326 45.309 110.301 45.2711C110.25 45.1827 110.187 45.0943 110.137 44.9932C110.137 44.9932 110.137 44.9806 110.137 44.9679C109.593 43.8941 109.783 43.3509 109.998 43.0982C110.086 43.0351 110.162 42.9719 110.238 42.9214C110.756 42.6182 111.16 42.5929 111.362 42.6182C111.64 42.6561 111.968 42.7698 112.259 42.9972C112.284 43.0098 112.297 43.0351 112.322 43.0477C112.411 43.1361 112.512 43.2372 112.587 43.3383C112.613 43.3635 112.638 43.4014 112.651 43.4267C112.676 43.4646 112.701 43.4899 112.714 43.5151C112.739 43.5783 112.764 43.6415 112.79 43.7046C112.79 43.7678 112.828 43.8057 112.853 43.8436C112.954 43.9699 113.169 44.0205 113.358 43.9194C113.965 42.9972 111.539 40.3568 108.886 41.0643L108.911 41.0516Z" fill="#B7A59C"/>
<path opacity="0.4" d="M108.911 41.0516C104.793 42.1507 104.199 47.4441 106.978 50.1602C109.707 52.8258 125.84 56.6916 115.215 62.086C121.923 61.8712 125.334 61.2648 125.852 60.7216C126.118 56.9948 121.153 55.5167 121.153 55.5167C125.688 52.4847 113.611 47.8989 113.611 47.8989C113.611 47.8989 113.611 47.8989 113.598 47.8989C113.345 47.7725 113.105 47.6336 112.865 47.5072C112.133 47.0777 111.021 46.3197 110.377 45.3848C110.351 45.3469 110.326 45.309 110.301 45.2711C110.25 45.1827 110.187 45.0943 110.137 44.9932C110.137 44.9932 110.137 44.9806 110.137 44.9679C109.593 43.8941 109.783 43.3509 109.998 43.0982C110.086 43.0351 110.162 42.9719 110.238 42.9214C110.756 42.6182 111.16 42.5929 111.362 42.6182C111.64 42.6561 111.968 42.7698 112.259 42.9972C112.284 43.0098 112.297 43.0351 112.322 43.0477C112.411 43.1361 112.512 43.2372 112.587 43.3383C112.613 43.3635 112.638 43.4014 112.651 43.4267C112.676 43.4646 112.701 43.4899 112.714 43.5151C112.739 43.5783 112.764 43.6415 112.79 43.7046C112.79 43.7678 112.828 43.8057 112.853 43.8436C112.954 43.9699 113.169 44.0205 113.358 43.9194C113.965 42.9972 111.539 40.3568 108.886 41.0643L108.911 41.0516Z" fill="white"/>
<path d="M115.215 62.0861C115.013 62.1871 114.811 62.3008 114.583 62.4019C114.583 62.4019 112.6 62.5661 119.03 62.1998C123.679 61.9345 121.544 62.0355 122.277 61.9345C125.549 61.5049 125.764 61.3786 125.764 61.3786C125.814 61.1512 125.84 60.9364 125.852 60.7217C125.334 61.2649 121.923 61.8713 115.215 62.0861Z" fill="white"/>
<path opacity="0.4" d="M115.215 62.0861C115.013 62.1871 114.811 62.3008 114.583 62.4019C114.583 62.4019 112.6 62.5661 119.03 62.1998C123.679 61.9345 121.544 62.0355 122.277 61.9345C125.549 61.5049 125.764 61.3786 125.764 61.3786C125.814 61.1512 125.84 60.9364 125.852 60.7217C125.334 61.2649 121.923 61.8713 115.215 62.0861Z" fill="white"/>
<path d="M110.983 70.6007C111.539 70.5375 111.905 69.7669 111.817 68.8573C111.716 67.9604 111.198 67.2655 110.642 67.3287C110.086 67.3919 109.72 68.1625 109.808 69.0721C109.897 69.9817 110.427 70.6639 110.983 70.6007Z" fill="#231F20"/>
<path d="M100.876 69.6156C100.775 68.7187 100.257 68.0238 99.7014 68.087C99.1456 68.1502 98.7792 68.9208 98.8676 69.8304C98.9687 70.7273 99.4867 71.4222 100.043 71.359C100.598 71.2958 100.965 70.5252 100.876 69.6156Z" fill="#231F20"/>
<path d="M106.031 76.2856C106.22 76.2856 106.41 76.2729 106.612 76.235C107.446 76.0961 108.179 75.6539 108.671 75.0096C109.177 74.3527 109.379 73.5568 109.24 72.7735C109.202 72.5966 109.05 72.4703 108.861 72.5082L103.264 73.4683C103.087 73.4936 102.961 73.6705 102.999 73.8473C103.239 75.2749 104.553 76.2729 106.056 76.2729L106.031 76.2856Z" fill="#231F20"/>
<path d="M114.343 87.2385C115.177 87.6049 116.036 87.4785 116.264 86.9732C116.264 86.9479 116.264 86.9227 116.264 86.8974L119.788 85.7731C120.761 85.4067 121.405 84.775 121.683 83.8907C122.492 81.3262 119.94 77.5488 119.826 77.3846C119.725 77.233 119.51 77.1951 119.359 77.2962C119.207 77.3972 119.169 77.612 119.27 77.7636C119.296 77.8015 121.759 81.4399 121.039 83.6886C120.824 84.3708 120.332 84.8508 119.561 85.1414L116.137 86.2279C115.948 85.8994 115.607 85.5836 115.139 85.3814C114.305 85.0151 113.446 85.1414 113.219 85.6467C112.992 86.1647 113.484 86.8721 114.318 87.2385H114.343Z" fill="#231F20"/>
<path d="M50.6466 58.2329L48.739 59.9637C48.739 59.9637 50.4192 61.7576 50.3813 63.6399C50.3434 66.2298 48.6758 67.3794 48.6758 67.3794L50.4697 69.1733C50.4697 69.1733 52.8448 67.5057 52.8448 64.0947C52.8448 60.6838 50.6466 58.2329 50.6466 58.2329Z" fill="#DF5551"/>
<path d="M53.2871 55.5674L51.43 57.4245C51.43 57.4245 53.9314 59.5216 53.9187 63.8674C53.9187 68.1627 51.291 70.0072 51.291 70.0072L52.9712 71.8516C52.9712 71.8516 56.5338 68.3143 56.5085 63.9053C56.4706 58.4983 53.2871 55.5674 53.2871 55.5674Z" fill="#DF5551"/>
<path d="M49.0929 63.7284C49.1182 61.9092 47.539 61.4165 47.539 61.4165V61.6818L47.5264 66.0655C47.5264 66.0655 47.5264 66.0655 47.539 66.0655C47.6148 66.0403 49.0676 65.636 49.0929 63.741V63.7284Z" fill="#DF5551"/>
<path d="M81.9139 76.4372C82.0149 76.2604 82.8108 73.0389 82.8993 72.8494L82.1539 42.6812C81.7117 41.9232 81.3833 40.3567 80.7895 39.7124L58.5424 40.9505C57.6075 42.0875 58.3908 44.5888 57.9233 46.0164L58.6687 74.0748C58.9719 74.8328 60.21 75.9951 60.6521 76.6773L81.9139 76.4246V76.4372ZM62.4208 64.7389L63.3556 64.7136L63.4188 66.4822L65.7433 66.4064L65.7686 67.3413L62.5092 67.4424L62.4208 64.7389ZM68.3458 58.776C68.7627 58.7633 69.0659 58.5359 69.1922 58.1822L69.8997 58.1569C69.7607 58.9276 69.1796 59.4203 68.3458 59.4455C67.3856 59.4708 66.6782 58.8012 66.6529 57.8158C66.615 56.8178 67.2846 56.1104 68.2321 56.0725C69.0406 56.0472 69.6344 56.4641 69.8491 57.1842L69.1417 57.2094C68.9774 56.8936 68.6742 56.7167 68.2826 56.7294C67.7267 56.742 67.3477 57.1715 67.3604 57.7779C67.3856 58.397 67.7773 58.776 68.3458 58.7633V58.776ZM72.0094 61.3658L73.2475 61.3279L73.2727 61.9469L72.0347 61.9848L72.0599 62.7049L73.4117 62.6544L73.437 63.286L71.3777 63.3492L71.2767 60.0772L73.2854 60.014L73.3106 60.6457L71.9968 60.6836L72.022 61.3531L72.0094 61.3658ZM72.6158 59.256L72.3505 58.7254L70.9735 58.776L70.7461 59.3192L69.9881 59.3445V59.2939L71.4283 55.984H71.7062L73.3612 59.1802V59.2308L72.6032 59.256H72.6158ZM70.2534 60.1151H70.5187L70.6198 63.3871L69.9123 63.4124L69.8744 62.3638V61.5426L68.9522 62.6038H68.889L67.9036 61.6184L67.9541 62.4143L67.992 63.4755L67.2846 63.5008L67.1709 60.2162H67.4362L68.8764 61.7069L70.2155 60.1151H70.2534ZM76.2289 59.155L74.3466 57.2852L74.3971 58.0685L74.435 59.1929L73.7402 59.2181L73.6265 55.9335H73.8918L75.7741 57.7653L75.7236 56.9947L75.6857 55.8829L76.3805 55.8577L76.4816 59.1423H76.2163L76.2289 59.155ZM64.8716 58.1569C64.0252 58.0938 63.6588 57.74 63.6462 57.1842C63.6336 56.6157 64.1136 56.1988 64.8716 56.1735C65.617 56.1482 66.1223 56.5399 66.1602 57.1589L65.4907 57.1842C65.4528 56.9315 65.2633 56.7799 64.8969 56.7925C64.5432 56.7925 64.341 56.9568 64.3537 57.1715C64.3537 57.4116 64.5432 57.5 64.9853 57.5379C65.8949 57.6011 66.2865 57.9295 66.2992 58.498C66.3244 59.1044 65.8191 59.5213 65.0232 59.5466C64.2021 59.5719 63.6841 59.1802 63.6462 58.5233L64.3284 58.498C64.341 58.776 64.5811 58.9402 64.9853 58.9149C65.3643 58.9149 65.5917 58.7507 65.5917 58.5107C65.5917 58.2706 65.3517 58.1822 64.8843 58.1443L64.8716 58.1569ZM75.2561 67.0255L75.2309 66.0906L77.6438 66.0148L77.5807 64.2462L78.5155 64.2209L78.604 66.9244L75.2561 67.0381V67.0255ZM78.1744 53.7985L77.2396 53.8237L77.1764 51.7898L74.7761 51.8656L74.7508 50.9307L78.0986 50.817L78.1997 53.7858L78.1744 53.7985ZM65.2506 51.2466L65.2759 52.1814L62.9514 52.2572L63.0145 54.2912L62.0797 54.3164L61.9786 51.3476L65.238 51.2466H65.2506Z" fill="white"/>
<path d="M67.5119 40.1043L72.1483 39.9653C72.6915 39.9527 73.1084 39.4979 73.0958 38.9673C73.0832 38.4241 72.6284 38.0072 72.0852 38.0198L67.4487 38.1588C66.9055 38.1714 66.4886 38.6262 66.5013 39.1694C66.5139 39.7127 66.9687 40.1296 67.5119 40.1169V40.1043Z" fill="white"/>
<path d="M70.885 75.9574C69.9375 75.9827 69.1922 76.7786 69.2174 77.7135C69.2427 78.661 70.0386 79.4063 70.9734 79.3684C71.9209 79.3431 72.6663 78.5473 72.6284 77.6124C72.6031 76.6649 71.8072 75.9195 70.8724 75.9574H70.885Z" fill="white"/>
<path d="M81.977 80.2778C82.2171 80.1893 82.4571 80.0883 82.6719 79.9367C82.6719 79.9367 82.6971 79.9367 82.7098 79.924C83.5562 79.3555 84.0994 78.3828 84.0615 77.2837L82.9498 39.4471C82.8993 37.7416 81.4717 36.4025 79.7662 36.453L59.692 37.0468C57.9865 37.0973 56.6474 38.5249 56.6979 40.2304L57.8096 78.0669C57.8602 79.7724 59.2877 81.1115 60.9932 81.061L80.1578 80.4925L81.0674 80.4673C81.3959 80.4673 81.6991 80.3788 81.9897 80.2778H81.977ZM67.4488 38.1585L72.0852 38.0196C72.6284 38.0069 73.0706 38.4238 73.0959 38.9671C73.1085 39.5103 72.6916 39.9525 72.1484 39.9651L67.512 40.1041C66.9687 40.1167 66.5266 39.6998 66.5013 39.1566C66.4887 38.6133 66.9056 38.1712 67.4488 38.1459V38.1585ZM60.0331 74.896L59.9699 72.6978L59.174 45.5111L59.0603 41.6958L61.2838 41.6327L79.1725 41.1021L80.6758 41.0642L80.739 43.2245L81.6359 73.7337V74.2643H81.3327L61.0816 74.8581L60.0331 74.8834V74.896ZM70.9861 79.3808C70.0386 79.4061 69.2554 78.6607 69.2301 77.7258C69.2048 76.7783 69.9502 75.9951 70.8977 75.9698C71.8452 75.9446 72.6284 76.6899 72.6537 77.6248C72.679 78.5723 71.9336 79.3555 70.9987 79.3808H70.9861Z" fill="#58595B"/>
<path d="M77.5807 64.2464L77.6439 66.0151L75.231 66.0909L75.2562 67.0257L78.604 66.9246L78.5156 64.2085L77.5807 64.2464Z" fill="#231F20"/>
<path d="M63.0147 54.2912L62.9515 52.2572L65.276 52.1814L65.2508 51.2466L61.9788 51.3476L62.0798 54.3165L63.0147 54.2912Z" fill="#231F20"/>
<path d="M74.7635 51.8655L77.1765 51.7897L77.2397 53.8236L78.1745 53.7983L78.0735 50.8169L74.7383 50.9306L74.7635 51.8655Z" fill="#231F20"/>
<path d="M65.7434 66.4067L63.4189 66.4825L63.3558 64.7139L62.4209 64.7391L62.5093 67.4426L65.7813 67.3416L65.7434 66.4067Z" fill="#231F20"/>
<path d="M71.2263 58.1443L72.0475 58.1191L71.6053 57.1084L71.2263 58.1443Z" fill="white"/>
<path d="M64.9727 58.9276C64.5684 58.9403 64.341 58.7887 64.3157 58.5107L63.6335 58.536C63.6714 59.1929 64.1894 59.5846 65.0106 59.5593C65.8065 59.534 66.3118 59.1171 66.2865 58.5107C66.2739 57.9422 65.8823 57.6138 64.9727 57.5506C64.5179 57.5127 64.341 57.4243 64.341 57.1842C64.341 56.9695 64.5305 56.8179 64.8842 56.8052C65.2506 56.8052 65.4527 56.9442 65.478 57.1969L66.1476 57.1716C66.097 56.5526 65.6043 56.1609 64.859 56.1862C64.101 56.2115 63.6209 56.6157 63.6335 57.1969C63.6462 57.7527 64.0252 58.1065 64.859 58.1696C65.339 58.2075 65.5664 58.296 65.5664 58.536C65.5664 58.776 65.3517 58.9276 64.96 58.9403L64.9727 58.9276Z" fill="#DF5551"/>
<path d="M68.2826 56.742C68.6742 56.742 68.9774 56.9062 69.1417 57.2221L69.8491 57.1968C69.6344 56.4767 69.0532 56.0598 68.2321 56.0851C67.272 56.1103 66.615 56.8304 66.6529 57.8285C66.6908 58.8139 67.3857 59.496 68.3458 59.4581C69.1796 59.4329 69.7607 58.9528 69.8997 58.1696L69.1922 58.1948C69.0785 58.5486 68.7627 58.776 68.3458 58.7886C67.7773 58.8012 67.3857 58.4222 67.3604 57.8032C67.3351 57.1968 67.7141 56.7673 68.2826 56.7546V56.742Z" fill="#DF5551"/>
<path d="M71.7064 55.9839H71.4285L69.9883 59.3064V59.357L70.7463 59.3317L70.9737 58.7885L72.3507 58.7379L72.616 59.2685L73.374 59.2433V59.1927L71.719 55.9839H71.7064ZM71.2263 58.1442L71.6053 57.1082L72.0475 58.1189L71.2263 58.1442Z" fill="#DF5551"/>
<path d="M75.6983 55.8832L75.7236 56.9823L75.7741 57.7529L73.8918 55.9211L73.6265 55.9337L73.7275 59.2184L74.4224 59.1931L74.3845 58.0687L74.3466 57.2855L76.2289 59.1552L76.4942 59.1426L76.3805 55.8579L75.6983 55.8832Z" fill="#DF5551"/>
<path d="M67.4616 60.2036L67.1963 60.2162L67.2974 63.5009L68.0048 63.4756L67.9669 62.4144L67.9164 61.6185L68.9018 62.6039H68.9649L69.8745 61.5427L69.8872 62.3639L69.9251 63.4124L70.6199 63.3872L70.5188 60.1025L70.2535 60.1152L68.9018 61.707L67.4616 60.2036Z" fill="#DF5551"/>
<path d="M73.2855 60.0269L71.2769 60.09L71.3779 63.362L73.4371 63.2989L73.4119 62.6672L72.0601 62.7051L72.0349 61.985L73.2729 61.9471L73.2476 61.3281L72.0096 61.366L71.997 60.6964L73.3108 60.6585L73.2855 60.0269Z" fill="#DF5551"/>
</svg>
