<svg width="128" height="128" viewBox="0 0 128 128" fill="none" xmlns="http://www.w3.org/2000/svg">
<g opacity="0.3" style="mix-blend-mode:multiply">
<path d="M74.2637 118.161C74.3018 118.352 74.3589 118.523 74.416 118.713C74.854 118.885 75.1967 119.132 75.311 119.513C75.5966 120.408 74.6445 121.532 73.1783 121.989C71.7121 122.446 70.2839 122.103 69.9983 121.189C69.7127 120.294 70.6648 119.17 72.131 118.713C72.4928 118.599 72.8546 118.542 73.1783 118.523C73.1402 118.39 73.1021 118.275 73.0831 118.142C70.1125 118.104 67.0849 118.085 64.0001 118.085C61.4675 118.085 58.954 118.085 56.4975 118.123C56.8022 118.294 57.0498 118.504 57.145 118.809C57.4306 119.704 56.4785 120.827 55.0123 121.284C53.546 121.741 52.1179 121.398 51.8323 120.484C51.5657 119.665 52.3274 118.694 53.5651 118.161C26.4113 118.58 5.80786 120.599 5.80786 123.036C5.80786 125.778 31.8573 127.987 64.0001 127.987C96.1429 127.987 122.192 125.778 122.192 123.036C122.192 120.599 101.494 118.58 74.2446 118.161H74.2637Z" fill="#4D4D4F"/>
</g>
<path d="M73.1022 118.142C73.1403 118.275 73.1593 118.39 73.1974 118.523C72.8547 118.542 72.4929 118.599 72.1501 118.713C70.6839 119.17 69.7318 120.294 70.0174 121.189C70.303 122.084 71.7312 122.446 73.1974 121.989C74.6636 121.532 75.6157 120.408 75.3301 119.513C75.2159 119.132 74.8731 118.885 74.4351 118.713C74.378 118.523 74.3399 118.333 74.2828 118.161C73.3688 114.391 73.8639 111.02 74.2257 109.383C73.8448 109.402 73.445 109.421 73.0451 109.44C72.6642 111.23 72.2644 114.467 73.1022 118.142Z" fill="#231F20"/>
<path d="M51.8322 120.484C52.1178 121.379 53.5459 121.741 55.0122 121.284C56.4784 120.827 57.4305 119.704 57.1449 118.809C57.0497 118.504 56.8021 118.294 56.4974 118.123C56.4213 118.085 56.3451 118.047 56.2499 118.009C55.4311 114.467 55.85 110.506 56.1356 108.64C55.7548 108.583 55.393 108.526 55.0122 108.469C54.7265 110.335 54.3076 114.181 55.0503 117.818C54.7075 117.818 54.3267 117.895 53.9649 118.009C53.8316 118.047 53.6983 118.104 53.565 118.161C52.3273 118.694 51.5656 119.665 51.8322 120.484Z" fill="#231F20"/>
<path d="M29.6484 35.3857C29.6484 35.3857 29.6103 35.3286 29.5723 35.3096C29.5723 35.3286 29.5723 35.3667 29.5723 35.3857L31.9144 47.6297C31.9144 47.6297 31.9525 47.5726 31.9716 47.5345L29.6484 35.3857Z" fill="#DF5551"/>
<path d="M65.2568 109.459C67.9988 109.573 70.6076 109.554 73.045 109.44C73.4448 109.421 73.8447 109.402 74.2256 109.383C82.6421 108.85 88.5261 107.022 88.488 104.622C88.488 104.204 88.2785 103.766 87.9167 103.366L92.2964 75.4883C91.9917 75.4883 91.687 75.5263 91.3824 75.5263C88.6022 75.5263 86.0887 74.917 85.8983 74.8789C85.5936 74.8028 85.4032 74.4981 85.4794 74.1934C85.5555 73.8887 85.8602 73.6983 86.1649 73.7745C86.222 73.7745 89.402 74.5552 92.4487 74.3648L93.5532 67.3764C91.9346 68.995 90.0113 70.2708 87.8215 71.1277C85.8792 71.8703 83.8608 72.2511 81.8423 72.2511C79.5764 72.2511 77.2913 71.7751 75.1586 70.823C72.7022 69.7376 70.6076 68.119 68.97 66.0815C68.5511 68.1 66.8563 69.7947 64.5713 70.1756C64.2476 70.2327 63.9048 70.2517 63.5811 70.2517C62.5148 70.2517 61.4865 69.9471 60.5915 69.3758C59.6394 68.7474 58.9539 67.8524 58.6112 66.8242C56.9164 68.6903 54.8028 70.1565 52.3844 71.0896C50.4422 71.8322 48.4237 72.2131 46.4053 72.2131C46.1387 72.2131 45.8721 72.194 45.6055 72.175L50.7849 107.536C49.909 107.269 42.0066 105.727 41.8542 102.585C41.8542 102.642 41.8162 102.699 41.8162 102.756C41.8542 105.041 47.2431 107.231 55.0313 108.469C55.4121 108.526 55.7739 108.583 56.1548 108.64C58.9539 109.04 62.0197 109.326 65.2568 109.459Z" fill="#DF5551"/>
<path d="M66.3993 61.6257C65.8661 60.2547 65.5424 58.8266 65.3901 57.3984H62.8956C62.7242 59.0741 62.2863 60.7498 61.5817 62.3303C61.1056 63.3967 60.5344 64.3868 59.8679 65.3199L67.5799 63.987C67.1419 63.2253 66.7421 62.4446 66.4184 61.6067L66.3993 61.6257Z" fill="#DF5551"/>
<path d="M37.0366 74.3644C37.0366 74.3644 37.0746 74.3644 37.0937 74.3644L35.9702 68.4995C35.9702 68.4995 35.9131 68.4614 35.894 68.4424L37.0366 74.3835V74.3644Z" fill="#DF5551"/>
<path d="M37.3223 75.4883C37.3223 75.4883 37.2842 75.4883 37.2651 75.4883L42.2351 101.481C42.2351 101.481 42.2541 101.423 42.2922 101.404L37.3413 75.4883H37.3223Z" fill="#DF5551"/>
<path d="M88.526 40.4891C92.144 42.0886 94.9051 44.8306 96.5808 48.1249L98.1613 38.1279L98.3707 36.6426C96.2571 38.0898 89.6876 38.7943 82.4897 39.118C84.5272 39.1942 86.5838 39.6322 88.5451 40.5081L88.526 40.4891Z" fill="#DF5551"/>
<path d="M67.0467 48.2392C69.6364 43.0788 74.6063 39.8036 80.0333 39.1943C76.7962 39.2895 73.5019 39.3276 70.5314 39.3276C67.9988 39.3276 65.6947 39.3085 63.8095 39.2704C56.764 39.1562 47.681 38.6992 40.5784 37.8804L40.9021 40.0321C44.7486 38.6801 49.0711 38.6992 53.0889 40.4701C56.5926 42.0125 59.3728 44.6593 61.1056 48.0107C63.7905 46.6016 66.1708 47.687 67.0276 48.2202L67.0467 48.2392Z" fill="#DF5551"/>
<g opacity="0.2" style="mix-blend-mode:multiply">
<path d="M30.0483 34.3385C30.0483 34.3385 29.9722 34.3194 29.9531 34.3004C29.896 34.2813 29.8389 34.3004 29.8008 34.3194L30.1435 34.5098C30.1435 34.5098 30.0864 34.3956 30.0483 34.3385Z" fill="#A32035"/>
</g>
<g opacity="0.2" style="mix-blend-mode:multiply">
<path d="M42.216 101.48C41.9685 101.804 41.8352 102.147 41.8352 102.509C41.8352 102.528 41.8352 102.547 41.8352 102.566C41.8733 102.242 41.9875 101.918 42.2351 101.633V101.48H42.216Z" fill="#A32035"/>
</g>
<path d="M50.7849 107.516L45.6054 72.1556C43.606 72.0604 41.6066 71.6033 39.7215 70.7845C38.3505 70.1752 37.1127 69.3945 35.9702 68.4805L37.0937 74.3454C39.6644 74.2883 41.9494 73.736 41.9875 73.736C42.2921 73.6599 42.5968 73.8503 42.673 74.155C42.7492 74.4596 42.5587 74.7643 42.2541 74.8405C42.0827 74.8786 39.8738 75.4117 37.3032 75.4879L42.2541 101.404C42.2541 101.404 42.216 101.461 42.1969 101.48V101.633C41.9875 101.937 41.8542 102.242 41.8161 102.566C41.9684 105.727 49.8708 107.25 50.7468 107.516H50.7849Z" fill="#DF5551"/>
<g opacity="0.2" style="mix-blend-mode:multiply">
<path d="M50.7849 107.516L45.6054 72.1556C43.606 72.0604 41.6066 71.6033 39.7215 70.7845C38.3505 70.1752 37.1127 69.3945 35.9702 68.4805L37.0937 74.3454C39.6644 74.2883 41.9494 73.736 41.9875 73.736C42.2921 73.6599 42.5968 73.8503 42.673 74.155C42.7492 74.4596 42.5587 74.7643 42.2541 74.8405C42.0827 74.8786 39.8738 75.4117 37.3032 75.4879L42.2541 101.404C42.2541 101.404 42.216 101.461 42.1969 101.48V101.633C41.9875 101.937 41.8542 102.242 41.8161 102.566C41.9684 105.727 49.8708 107.25 50.7468 107.516H50.7849Z" fill="#A32035"/>
</g>
<path d="M29.6484 35.3857L31.9716 47.5345C33.99 43.9356 37.2271 41.3459 40.9213 40.032L40.5976 37.8802C35.2277 37.2709 31.0195 36.433 29.6484 35.3857Z" fill="#DF5551"/>
<g opacity="0.2" style="mix-blend-mode:multiply">
<path d="M29.6484 35.3857L31.9716 47.5345C33.99 43.9356 37.2271 41.3459 40.9213 40.032L40.5976 37.8802C35.2277 37.2709 31.0195 36.433 29.6484 35.3857Z" fill="#A32035"/>
</g>
<path d="M75.9204 7.26073C75.9204 7.26073 75.8252 7.12744 75.8252 7.03223C75.8252 7.10839 75.8823 7.18456 75.9204 7.26073Z" fill="#B7A59C"/>
<path d="M30.1816 34.5479C30.1816 34.5479 30.1816 34.4717 30.1816 34.4527C30.81 35.7856 43.9299 37.8612 63.8478 38.2039C70.0935 38.3182 75.4062 38.2611 79.8811 38.1278C97.8567 29.0067 70.5696 22.4562 65.9424 17.9623C61.239 13.3732 62.2483 4.42352 69.2176 2.57645C73.6925 1.3768 77.7865 5.85166 76.7773 7.4131C77.0629 7.26077 77.3295 6.87993 77.4056 6.17537C77.4056 6.15633 77.4056 6.13729 77.4056 6.11825C78.034 2.70974 73.1783 0.481832 70.4553 0.120034C68.3988 -0.146553 64.0001 -0.127511 60.2489 2.74782C55.2408 6.57526 52.6892 15.525 34.9992 24.7032C29.7246 27.4452 29.0962 32.32 30.0293 34.3765C30.0483 34.4336 30.0864 34.4908 30.1245 34.5479H30.1626H30.1816Z" fill="#B7A59C"/>
<path d="M40.5974 37.8992C47.7001 38.718 56.764 39.156 63.8286 39.2893C65.6947 39.3274 68.0178 39.3464 70.5504 39.3464C73.5209 39.3464 76.7962 39.3083 80.0523 39.2131C80.8521 39.1179 81.6709 39.0989 82.4707 39.1179C89.6495 38.7942 96.2189 38.1087 98.3516 36.6424C98.8087 36.3378 99.0562 35.995 99.0752 35.6142H98.0089C98.0089 35.6142 97.9708 35.7475 97.8756 35.8427C97.8566 36.2045 97.8185 36.5663 97.7233 36.9471C97.7233 36.9471 97.3424 37.1566 91.8203 37.8802C90.5825 38.0515 94.2005 37.8802 86.3362 38.3181C75.4632 38.9275 78.8146 38.6609 78.8146 38.6609C79.1954 38.4895 79.5382 38.2991 79.881 38.1277C75.4061 38.28 70.0934 38.3181 63.8476 38.2039C43.9297 37.8611 30.8098 35.7856 30.1815 34.4526C30.1815 34.4717 30.1815 34.5288 30.1815 34.5478H30.1434L29.8006 34.3384L29.2484 34.0337C29.077 34.3384 29.077 34.6811 29.2484 35.0048C29.3055 35.1191 29.4579 35.2143 29.5721 35.3285C29.5912 35.3476 29.6102 35.3857 29.6483 35.4047C31.0193 36.4711 35.2276 37.2899 40.5974 37.8992Z" fill="white"/>
<path opacity="0.4" d="M75.9204 7.26074C76.1299 7.58446 76.644 7.56541 76.7582 7.41308C76.7582 7.41308 76.7582 7.39404 76.7582 7.37499C76.4345 7.56541 76.0727 7.4702 75.9014 7.26074H75.9204Z" fill="white"/>
<path d="M69.2176 2.55732C62.2482 4.40439 61.258 13.3541 65.9423 17.9432C70.5505 22.4371 97.8376 28.9876 79.8811 38.1086C91.211 37.7468 96.9807 36.7186 97.8757 35.8046C98.3327 29.5017 89.9352 26.9881 89.9352 26.9881C97.6091 21.8659 77.1961 14.1158 77.1961 14.1158C77.1961 14.1158 77.1961 14.1158 77.1771 14.1158C76.7582 13.8873 76.3393 13.6778 75.9394 13.4493C74.7017 12.7257 72.8355 11.4499 71.7311 9.85039C71.693 9.79326 71.6359 9.7171 71.5978 9.65997C71.5026 9.50763 71.4074 9.3553 71.3312 9.20296C71.3312 9.20296 71.3312 9.18392 71.3122 9.16488C70.3791 7.33685 70.7219 6.42284 71.0837 6.00392C71.217 5.88966 71.3693 5.79445 71.5026 5.69924C72.3785 5.18511 73.064 5.14703 73.3878 5.18511C73.8448 5.26128 74.416 5.43266 74.9111 5.83254C74.9492 5.85158 74.9873 5.88966 75.0254 5.92775C75.1777 6.08008 75.3491 6.25146 75.4824 6.4038C75.5205 6.46092 75.5585 6.49901 75.5966 6.55613C75.6347 6.61326 75.6728 6.67038 75.7109 6.70847C75.768 6.80368 75.8061 6.91793 75.8442 7.03218C75.8442 7.12739 75.9013 7.18452 75.9394 7.26068C76.1108 7.47015 76.4725 7.56536 76.7963 7.37494C77.8245 5.83254 73.7115 1.35768 69.2366 2.53828L69.2176 2.55732Z" fill="#B7A59C"/>
<path opacity="0.4" d="M69.2176 2.55732C62.2482 4.40439 61.258 13.3541 65.9423 17.9432C70.5505 22.4371 97.8376 28.9876 79.8811 38.1086C91.211 37.7468 96.9807 36.7186 97.8757 35.8046C98.3327 29.5017 89.9352 26.9881 89.9352 26.9881C97.6091 21.8659 77.1961 14.1158 77.1961 14.1158C77.1961 14.1158 77.1961 14.1158 77.1771 14.1158C76.7582 13.8873 76.3393 13.6778 75.9394 13.4493C74.7017 12.7257 72.8355 11.4499 71.7311 9.85039C71.693 9.79326 71.6359 9.7171 71.5978 9.65997C71.5026 9.50763 71.4074 9.3553 71.3312 9.20296C71.3312 9.20296 71.3312 9.18392 71.3122 9.16488C70.3791 7.33685 70.7219 6.42284 71.0837 6.00392C71.217 5.88966 71.3693 5.79445 71.5026 5.69924C72.3785 5.18511 73.064 5.14703 73.3878 5.18511C73.8448 5.26128 74.416 5.43266 74.9111 5.83254C74.9492 5.85158 74.9873 5.88966 75.0254 5.92775C75.1777 6.08008 75.3491 6.25146 75.4824 6.4038C75.5205 6.46092 75.5585 6.49901 75.5966 6.55613C75.6347 6.61326 75.6728 6.67038 75.7109 6.70847C75.768 6.80368 75.8061 6.91793 75.8442 7.03218C75.8442 7.12739 75.9013 7.18452 75.9394 7.26068C76.1108 7.47015 76.4725 7.56536 76.7963 7.37494C77.8245 5.83254 73.7115 1.35768 69.2366 2.53828L69.2176 2.55732Z" fill="white"/>
<path d="M79.8812 38.1278C79.5384 38.2992 79.1957 38.4896 78.8148 38.661C78.8148 38.661 75.4634 38.9276 86.3364 38.3182C94.2007 37.8803 90.5827 38.0326 91.8205 37.8803C97.3426 37.1567 97.7235 36.9472 97.7235 36.9472C97.8187 36.5664 97.8568 36.2046 97.8758 35.8428C96.9808 36.7568 91.2111 37.7851 79.8812 38.1469V38.1278Z" fill="white"/>
<path opacity="0.4" d="M79.8812 38.1278C79.5384 38.2992 79.1957 38.4896 78.8148 38.661C78.8148 38.661 75.4634 38.9276 86.3364 38.3182C94.2007 37.8803 90.5827 38.0326 91.8205 37.8803C97.3426 37.1567 97.7235 36.9472 97.7235 36.9472C97.8187 36.5664 97.8568 36.2046 97.8758 35.8428C96.9808 36.7568 91.2111 37.7851 79.8812 38.1469V38.1278Z" fill="white"/>
<path d="M67.5608 64.0059L59.8488 65.3388C59.468 65.872 59.0681 66.3671 58.6301 66.8241C58.9729 67.8523 59.6394 68.7473 60.6105 69.3757C61.4864 69.9469 62.5337 70.2516 63.6001 70.2516C63.9238 70.2516 64.2475 70.2326 64.5903 70.1755C66.8753 69.7946 68.57 68.0999 68.9889 66.0814C68.4748 65.434 67.9988 64.7485 67.5798 64.0249L67.5608 64.0059Z" fill="#231F20"/>
<path d="M42.2733 74.8405C42.578 74.7643 42.7684 74.4597 42.6922 74.155C42.6161 73.8503 42.2924 73.6599 42.0067 73.7361C41.9686 73.7361 39.6646 74.3073 37.1129 74.3454C37.0939 74.3454 37.0749 74.3454 37.0558 74.3454C35.0755 74.3835 32.9618 74.0979 31.5908 73.0315C30.6387 72.2889 30.1626 71.2225 30.1626 69.8325L30.4483 63.7581C30.8672 63.701 31.2861 63.5105 31.705 63.2249C31.4384 62.6917 31.1719 62.1586 30.9624 61.5873C30.7529 61.0351 30.5625 60.4638 30.4102 59.8926C30.2388 60.0259 30.0674 60.1401 29.9151 60.2925C28.8487 61.3969 28.525 62.825 29.2105 63.4915C29.2486 63.5296 29.2867 63.5296 29.3248 63.5486L29.0201 69.7944C29.0201 71.5653 29.6485 72.9363 30.8672 73.9075C32.4096 75.1071 34.6756 75.4689 36.7892 75.4689C36.9416 75.4689 37.0939 75.4689 37.2462 75.4689C37.2653 75.4689 37.2843 75.4689 37.3034 75.4689C39.874 75.3927 42.0829 74.8786 42.2543 74.8215L42.2733 74.8405Z" fill="#231F20"/>
<path d="M96.5047 63.3011C96.9237 63.5677 97.3235 63.7391 97.7234 63.7962L98.009 69.8325C98.009 71.2416 97.552 72.3079 96.5809 73.0506C95.5145 73.8884 93.9912 74.2312 92.4488 74.3264C89.383 74.5168 86.203 73.7551 86.165 73.7361C85.8603 73.6599 85.5556 73.8503 85.4794 74.155C85.4033 74.4597 85.5937 74.7643 85.8984 74.8405C86.0697 74.8786 88.5833 75.4879 91.3824 75.4879C91.6871 75.4879 91.9918 75.4689 92.2965 75.4499C94.1245 75.3546 95.9906 74.9738 97.3045 73.9455C98.5422 72.9744 99.1516 71.6034 99.1516 69.8134L98.8469 63.5867C98.8469 63.5867 98.9231 63.5677 98.9611 63.5296C99.6467 62.8631 99.3229 61.435 98.2566 60.3305C98.1233 60.1782 97.9519 60.083 97.8186 59.9688C97.6092 60.7685 97.3426 61.5492 96.9998 62.33C96.8475 62.6537 96.6761 62.9774 96.5238 63.3011H96.5047Z" fill="#231F20"/>
<path d="M33.7995 60.5401C34.0661 61.2447 34.4089 61.9112 34.7897 62.5396L33.0569 53.5137C32.6761 55.8558 32.9236 58.2551 33.7995 60.5211V60.5401Z" fill="white"/>
<path d="M51.8893 43.2499C50.1184 42.4692 48.2714 42.0884 46.4433 42.0884C44.6153 42.0884 42.9777 42.4502 41.3782 43.0976L42.5969 51.3999C43.3014 49.6099 44.5011 48.4103 45.9482 48.3532C48.3285 48.2389 50.385 51.2856 50.5564 55.1512C50.7278 59.0167 48.9378 62.2157 46.5766 62.33C45.6436 62.3681 44.7676 61.9301 44.044 61.1494L45.2056 69.1089C50.842 69.623 56.4213 66.5573 58.8396 61.1113C60.3059 57.798 60.382 54.1229 59.0872 50.7525C57.7733 47.382 55.2407 44.7162 51.9274 43.2499H51.8893Z" fill="#DF5551"/>
<path d="M51.8893 43.2499C50.1184 42.4692 48.2714 42.0884 46.4433 42.0884C44.6153 42.0884 42.9777 42.4502 41.3782 43.0976L42.5969 51.3999C43.3014 49.6099 44.5011 48.4103 45.9482 48.3532C48.3285 48.2389 50.385 51.2856 50.5564 55.1512C50.7278 59.0167 48.9378 62.2157 46.5766 62.33C45.6436 62.3681 44.7676 61.9301 44.044 61.1494L45.2056 69.1089C50.842 69.623 56.4213 66.5573 58.8396 61.1113C60.3059 57.798 60.382 54.1229 59.0872 50.7525C57.7733 47.382 55.2407 44.7162 51.9274 43.2499H51.8893Z" fill="white"/>
<path d="M33.0569 53.5137L34.7897 62.5395C34.7897 62.5395 34.8468 62.6538 34.8849 62.7109L33.095 53.3232C33.095 53.3232 33.0759 53.4375 33.0569 53.5137Z" fill="#DF5551"/>
<path d="M33.0569 53.5137L34.7897 62.5395C34.7897 62.5395 34.8468 62.6538 34.8849 62.7109L33.095 53.3232C33.095 53.3232 33.0759 53.4375 33.0569 53.5137Z" fill="white"/>
<path d="M41.9304 55.5511C41.8543 54.0277 42.1209 52.5996 42.5779 51.419L41.3592 43.1167C38.1982 44.3925 35.4943 46.8108 34.028 50.1813C33.571 51.2095 33.2663 52.2759 33.0759 53.3422L34.8659 62.7299C36.294 65.0721 38.3886 66.9191 40.9403 68.0426C42.3113 68.652 43.7394 68.9947 45.1676 69.128L44.006 61.1685C42.8635 59.9498 42.0447 57.9123 41.9304 55.5511Z" fill="#DF5551"/>
<g opacity="0.2" style="mix-blend-mode:multiply">
<path d="M41.9304 55.5511C41.8543 54.0277 42.1209 52.5996 42.5779 51.419L41.3592 43.1167C38.1982 44.3925 35.4943 46.8108 34.028 50.1813C33.571 51.2095 33.2663 52.2759 33.0759 53.3422L34.8659 62.7299C36.294 65.0721 38.3886 66.9191 40.9403 68.0426C42.3113 68.652 43.7394 68.9947 45.1676 69.128L44.006 61.1685C42.8635 59.9498 42.0447 57.9123 41.9304 55.5511Z" fill="#A32035"/>
</g>
<path d="M41.9304 55.5511C41.8543 54.0277 42.1209 52.5996 42.5779 51.419L41.3592 43.1167C38.1982 44.3925 35.4943 46.8108 34.028 50.1813C33.571 51.2095 33.2663 52.2759 33.0759 53.3422L34.8659 62.7299C36.294 65.0721 38.3886 66.9191 40.9403 68.0426C42.3113 68.652 43.7394 68.9947 45.1676 69.128L44.006 61.1685C42.8635 59.9498 42.0447 57.9123 41.9304 55.5511Z" fill="white"/>
<path d="M31.7239 63.2631C32.7522 65.2816 34.1803 67.0144 35.9131 68.4425C35.9322 68.4616 35.9703 68.4806 35.9893 68.4997C37.1128 69.4137 38.3695 70.1944 39.7406 70.8037C41.6257 71.6416 43.6251 72.0795 45.6245 72.1748C45.8911 72.1748 46.1577 72.2128 46.4243 72.2128C48.4427 72.2128 50.4612 71.832 52.4035 71.0894C54.8218 70.1563 56.9354 68.6901 58.6302 66.824C59.0681 66.3479 59.468 65.8528 59.8489 65.3387C60.5153 64.4056 61.0866 63.4155 61.5626 62.3491C62.2672 60.7496 62.7052 59.0929 62.8765 57.4172H61.4674C62.7623 53.0947 59.4871 49.2102 59.4871 49.2102C60.0393 48.696 60.5915 48.3342 61.1247 48.0486C59.3919 44.6972 56.6117 42.0504 53.108 40.508C49.0902 38.7371 44.7676 38.699 40.9212 40.07C37.227 41.3649 33.9899 43.9546 31.9715 47.5726C31.9715 47.6106 31.9334 47.6297 31.9143 47.6678C31.6858 48.0867 31.4573 48.5246 31.2479 48.9817C29.7055 52.4854 29.4198 56.3128 30.41 59.9498C30.5623 60.5211 30.7337 61.0923 30.9622 61.6446C31.1717 62.2158 31.4383 62.749 31.7049 63.2822L31.7239 63.2631ZM58.8016 61.1114C56.4023 66.5574 50.8039 69.6231 45.1675 69.109C43.7394 68.9757 42.3112 68.633 40.9402 68.0236C38.3886 66.9001 36.294 65.0531 34.8658 62.7109C34.8277 62.6538 34.8087 62.5966 34.7706 62.5395C34.3898 61.8921 34.047 61.2447 33.7804 60.5401C32.9045 58.2741 32.676 55.8748 33.0378 53.5327C33.0378 53.4756 33.0568 53.4184 33.0759 53.3423C33.2663 52.2569 33.571 51.2096 34.028 50.1813C35.5133 46.8299 38.1982 44.3925 41.3591 43.1167C42.9587 42.4693 44.6724 42.1075 46.4243 42.1075C48.1762 42.1075 50.0994 42.4693 51.8703 43.2691C55.1836 44.7353 57.7162 47.4012 59.0301 50.7716C60.344 54.142 60.2487 57.8171 58.7825 61.1304L58.8016 61.1114Z" fill="#00A9E7"/>
<path d="M44.006 61.1495C44.7487 61.9302 45.6246 62.3872 46.5386 62.3301C48.9189 62.2158 50.6898 59.0168 50.5184 55.1512C50.347 51.2857 48.2905 48.258 45.9102 48.3533C44.4821 48.4104 43.2634 49.6291 42.5589 51.4C42.1019 52.5806 41.8543 53.9897 41.9114 55.5321C42.0066 57.8933 42.8254 59.9308 43.987 61.1495H44.006Z" fill="#231F20"/>
<path d="M95.3813 55.7988L94.791 59.6072C95.1719 58.3504 95.3813 57.0746 95.3813 55.7988Z" fill="white"/>
<path d="M87.3073 43.2499C85.5364 42.4692 83.6893 42.0884 81.8613 42.0884C76.6628 42.0884 71.6929 45.097 69.465 50.1622C67.9988 53.4755 67.9226 57.1506 69.2174 60.521C70.5313 63.8914 73.0639 66.5573 76.3772 68.0235C83.2133 71.0321 91.2109 67.9473 94.2386 61.1113C94.448 60.6162 94.6384 60.1211 94.7908 59.607L95.3811 55.7986C95.4382 50.543 92.4105 45.4969 87.3073 43.2499ZM81.9755 62.349C79.5953 62.4633 77.5388 59.4166 77.3674 55.551C77.196 51.6855 78.986 48.4865 81.3472 48.3722C83.7274 48.258 85.7839 51.3047 85.9553 55.1702C86.1267 59.0357 84.3367 62.2348 81.9755 62.349Z" fill="#DF5551"/>
<path d="M87.3073 43.2499C85.5364 42.4692 83.6893 42.0884 81.8613 42.0884C76.6628 42.0884 71.6929 45.097 69.465 50.1622C67.9988 53.4755 67.9226 57.1506 69.2174 60.521C70.5313 63.8914 73.0639 66.5573 76.3772 68.0235C83.2133 71.0321 91.2109 67.9473 94.2386 61.1113C94.448 60.6162 94.6384 60.1211 94.7908 59.607L95.3811 55.7986C95.4382 50.543 92.4105 45.4969 87.3073 43.2499ZM81.9755 62.349C79.5953 62.4633 77.5388 59.4166 77.3674 55.551C77.196 51.6855 78.986 48.4865 81.3472 48.3722C83.7274 48.258 85.7839 51.3047 85.9553 55.1702C86.1267 59.0357 84.3367 62.2348 81.9755 62.349Z" fill="white"/>
<path d="M88.5261 40.4891C86.5457 39.6132 84.5083 39.1752 82.4708 39.0991C81.652 39.061 80.8522 39.0991 80.0524 39.1943C74.6255 39.8036 69.6555 43.0598 67.0658 48.2392C67.2943 48.3725 67.4276 48.4677 67.4276 48.4677C64.7618 50.5433 66.9897 57.3984 66.9897 57.3984H65.4092C65.5615 58.8265 65.8852 60.2547 66.4184 61.6257C66.7421 62.4635 67.142 63.2443 67.58 64.0059C67.9989 64.7295 68.4749 65.415 68.9891 66.0625C70.6267 68.0809 72.7213 69.7185 75.1777 70.8039C77.3104 71.756 79.5954 72.2321 81.8614 72.2321C83.8799 72.2321 85.8983 71.8512 87.8406 71.1086C90.0304 70.2517 91.9727 68.9759 93.5722 67.3573C94.7528 66.1767 95.743 64.8247 96.5237 63.3204C96.6951 62.9967 96.8665 62.692 96.9998 62.3493C97.3425 61.5686 97.5901 60.7878 97.8186 59.9881C98.923 55.9321 98.4279 51.7239 96.5999 48.144C94.9242 44.8688 92.1631 42.1077 88.5452 40.5082L88.5261 40.4891ZM94.7719 59.6072C94.6195 60.1023 94.4482 60.6165 94.2197 61.1116C91.211 67.9476 83.1944 71.0324 76.3583 68.0238C73.045 66.5576 70.5124 63.8917 69.1985 60.5213C67.8846 57.1508 67.9798 53.4757 69.4461 50.1624C71.674 45.0973 76.6439 42.0887 81.8424 42.0887C83.6704 42.0887 85.5175 42.4504 87.2884 43.2502C92.3916 45.4972 95.4003 50.5433 95.3622 55.7989C95.3622 57.0747 95.1527 58.3505 94.7719 59.6072Z" fill="#00A9E7"/>
<path d="M81.3472 48.3723C78.9669 48.4866 77.196 51.6856 77.3674 55.5511C77.5388 59.4166 79.5953 62.4443 81.9756 62.3491C84.3558 62.2539 86.1267 59.0358 85.9553 55.1703C85.784 51.3048 83.7274 48.2771 81.3472 48.3723Z" fill="#231F20"/>
<path d="M66.685 48.9626C66.7993 48.7151 66.9326 48.4866 67.0468 48.2391C66.1709 47.7249 63.8097 46.6395 61.1248 48.0296C61.3913 48.5628 61.6389 49.0959 61.8674 49.6482C62.8385 52.1427 63.1622 54.7895 62.8957 57.3792H65.3902C65.0855 54.5229 65.5044 51.6285 66.704 48.9436L66.685 48.9626Z" fill="#DF5551"/>
<path d="M66.685 48.9626C66.7993 48.7151 66.9326 48.4866 67.0468 48.2391C66.1709 47.7249 63.8097 46.6395 61.1248 48.0296C61.3913 48.5628 61.6389 49.0959 61.8674 49.6482C62.8385 52.1427 63.1622 54.7895 62.8957 57.3792H65.3902C65.0855 54.5229 65.5044 51.6285 66.704 48.9436L66.685 48.9626Z" fill="#00A9E7"/>
<path d="M61.8673 49.6674C61.6578 49.1152 61.4103 48.563 61.1247 48.0488C60.5915 48.3345 60.0393 48.6963 59.4871 49.2104C59.4871 49.2104 62.7623 53.0949 61.4674 57.4175H62.8765C63.1622 54.8278 62.8194 52.1809 61.8483 49.6864L61.8673 49.6674Z" fill="#00A9E7"/>
<path d="M61.8673 49.6674C61.6578 49.1152 61.4103 48.563 61.1247 48.0488C60.5915 48.3345 60.0393 48.6963 59.4871 49.2104C59.4871 49.2104 62.7623 53.0949 61.4674 57.4175H62.8765C63.1622 54.8278 62.8194 52.1809 61.8483 49.6864L61.8673 49.6674Z" fill="#00A9E7"/>
<path d="M66.685 48.9629C65.4853 51.6668 65.0664 54.5612 65.3711 57.3984H66.9516C66.9516 57.3984 64.7046 50.5624 67.3895 48.4678C67.3895 48.4678 67.2562 48.3726 67.0277 48.2393C66.9135 48.4868 66.7802 48.7153 66.6659 48.9629H66.685Z" fill="#00A9E7"/>
<path d="M66.685 48.9629C65.4853 51.6668 65.0664 54.5612 65.3711 57.3984H66.9516C66.9516 57.3984 64.7046 50.5624 67.3895 48.4678C67.3895 48.4678 67.2562 48.3726 67.0277 48.2393C66.9135 48.4868 66.7802 48.7153 66.6659 48.9629H66.685Z" fill="#00A9E7"/>
</svg>
