<svg width="128" height="128" viewBox="0 0 128 128" fill="none" xmlns="http://www.w3.org/2000/svg">
<g opacity="0.3" style="mix-blend-mode:multiply">
<path d="M75.0306 118.279C75.0667 118.442 75.1209 118.622 75.157 118.785C75.6083 118.947 75.9333 119.218 76.0597 119.597C76.3485 120.5 75.3917 121.583 73.9293 122.052C72.467 122.504 71.0588 122.161 70.788 121.258C70.4992 120.355 71.456 119.272 72.9183 118.803C73.2794 118.694 73.6224 118.622 73.9654 118.604C73.9293 118.478 73.8932 118.369 73.8752 118.243C70.6616 118.189 67.3759 118.171 63.9999 118.171C61.7973 118.171 59.6128 118.171 57.4825 118.207C57.7714 118.369 57.988 118.604 58.0783 118.893C58.3671 119.796 57.4103 120.879 55.948 121.348C54.4856 121.8 53.0774 121.457 52.8066 120.554C52.5539 119.742 53.3302 118.767 54.5578 118.243C27.2066 118.622 6.33667 120.644 6.33667 123.081C6.33667 125.79 32.1533 127.992 63.9999 127.992C95.8464 127.992 121.663 125.79 121.663 123.081C121.663 120.698 101.606 118.713 75.0487 118.261L75.0306 118.279Z" fill="#4D4D4F"/>
</g>
<path d="M73.8751 118.261C73.9112 118.387 73.9293 118.496 73.9654 118.622C73.6223 118.64 73.2793 118.712 72.9183 118.821C71.4559 119.272 70.5171 120.373 70.7879 121.276C71.0768 122.179 72.485 122.522 73.9293 122.07C75.3916 121.619 76.3304 120.518 76.0596 119.615C75.9332 119.236 75.6082 118.965 75.1569 118.803C75.1027 118.64 75.0666 118.46 75.0305 118.297C73.7668 113.08 75.2291 108.584 75.2472 108.548L74.5792 108.313C74.4348 108.313 74.2903 108.332 74.1278 108.35C73.857 109.216 72.7377 113.35 73.8751 118.279V118.261Z" fill="#231F20"/>
<path d="M52.8065 120.572C53.0954 121.475 54.5036 121.818 55.9479 121.366C57.4102 120.915 58.349 119.814 58.0782 118.911C57.9879 118.622 57.7713 118.406 57.4824 118.225C57.3921 118.171 57.3019 118.135 57.2116 118.099C56.2006 113.694 57.1213 108.657 57.2658 107.88C56.8866 107.826 56.5256 107.79 56.1465 107.736C55.9479 108.747 55.1174 113.495 56.0201 117.936C55.6771 117.936 55.316 118.008 54.9369 118.135C54.8105 118.171 54.6841 118.225 54.5758 118.279C53.3301 118.803 52.5718 119.778 52.8246 120.59L52.8065 120.572Z" fill="#231F20"/>
<path d="M64.6498 108.476C68.0439 108.602 71.2394 108.548 74.146 108.35C74.2904 108.35 74.4349 108.332 74.5973 108.313C82.3604 107.7 87.7223 105.948 87.6681 103.674C87.6681 103.258 87.4515 102.825 87.0904 102.428L89.9609 84.2119C89.7985 84.3383 89.654 84.4647 89.4554 84.573L83.9671 87.4435C83.9671 87.4435 83.9671 87.5338 83.9671 87.5699C83.8227 88.1476 83.227 88.5267 82.4326 88.6531L84.2018 103.674H65.8052L66.6899 96.1995H60.9488L61.7973 103.674H49.9L50.3333 106.598C49.4667 106.346 41.6315 104.811 41.487 101.688C41.487 101.742 41.4509 101.796 41.4509 101.85C41.487 104.269 47.5891 106.58 56.1646 107.754C56.5257 107.808 56.9048 107.844 57.2839 107.898C59.6128 108.187 62.0862 108.386 64.6679 108.494L64.6498 108.476Z" fill="#DF5551"/>
<path d="M38.9235 85.0244L38.8513 84.9883L41.8302 100.569C41.8302 100.569 41.8663 100.514 41.8843 100.478L38.9235 85.0063V85.0244Z" fill="#DF5551"/>
<path d="M63.2417 38.9337C56.255 38.8073 47.2643 38.374 40.2234 37.5616L46.2894 79.0668L47.3907 69.7692H49.3766V67.5125H48.9613C48.4558 67.5125 48.0406 67.0973 48.0406 66.5918V66.1585C48.0406 65.653 48.4558 65.2378 48.9613 65.2378H56.273C56.7785 65.2378 57.1938 65.653 57.1938 66.1585V66.5918C57.1938 67.0973 56.7785 67.5125 56.273 67.5125H55.93V69.7692H57.8076L58.3492 73.5244L59.0533 79.6084H68.6397L69.7952 69.7692H71.7811V67.5125H71.3658C70.8603 67.5125 70.4451 67.0973 70.4451 66.5918V66.1585C70.4451 65.653 70.8603 65.2378 71.3658 65.2378H78.6775C79.183 65.2378 79.5983 65.653 79.5983 66.1585V66.5918C79.5983 67.0973 79.183 67.5125 78.6775 67.5125H78.3345V69.7692H80.2121L82.0355 85.3314C82.7035 85.548 83.2451 85.9091 83.5881 86.3244L88.8959 83.5441C89.4555 83.2191 89.8888 82.84 90.2138 82.4067L90.7735 78.8141C89.961 75.2756 86.3323 71.5024 86.2781 71.4662C86.0615 71.2496 86.0615 70.8885 86.2781 70.6719C86.4948 70.4552 86.8558 70.4552 87.0725 70.6719C87.2169 70.8344 89.7263 73.416 91.1165 76.4671L97.2005 37.7602L97.3991 36.2798C94.1314 38.5184 80.1399 38.9517 69.8674 38.9517C67.3579 38.9517 65.0651 38.9337 63.2056 38.8976L63.2417 38.9337ZM54.2691 55.4166C53.3303 55.5069 52.4637 54.3695 52.3012 52.853C52.1388 51.3365 52.7706 50.0366 53.6914 49.9283C54.6302 49.838 55.4967 50.9754 55.6592 52.4919C55.8217 54.0084 55.1898 55.3083 54.2691 55.4166ZM65.2457 63.5949C64.9207 63.649 64.5957 63.6851 64.2708 63.6851C63.2237 63.6851 62.1946 63.3963 61.31 62.8186C60.1546 62.0603 59.3963 60.9229 59.1616 59.605C59.1075 59.2981 59.306 59.0093 59.613 58.9551L69.0008 57.3483C69.1452 57.3303 69.2897 57.3483 69.4161 57.4386C69.5424 57.5289 69.6146 57.6552 69.6508 57.7997C70.1201 60.4897 68.1343 63.0894 65.2457 63.5949ZM71.9977 48.7007C72.9365 48.6104 73.8031 49.7478 73.9656 51.2643C74.128 52.7808 73.4962 54.0806 72.5754 54.189C71.6366 54.2792 70.7701 53.1418 70.6076 51.6253C70.4451 50.1088 71.077 48.809 71.9977 48.7007Z" fill="#DF5551"/>
<path d="M37.3166 77.0087L38.5623 83.5621L38.6165 83.5983L37.3347 76.8823C37.3347 76.8823 37.2986 76.9545 37.2805 76.9906L37.3166 77.0087Z" fill="#DF5551"/>
<path d="M29.373 35.1064C29.373 35.1064 29.3188 35.0703 29.3008 35.0522V35.0884L36.9736 75.2215C36.9736 75.2215 37.0097 75.1673 37.0277 75.1312L29.373 35.1064Z" fill="#DF5551"/>
<g opacity="0.2" style="mix-blend-mode:multiply">
<path d="M29.7523 34.0592C29.7523 34.0592 29.68 34.0412 29.6439 34.0231C29.5717 34.005 29.5356 34.0231 29.4995 34.0412L29.8425 34.2217C29.8425 34.2217 29.7884 34.1134 29.7523 34.0412V34.0592Z" fill="#A32035"/>
</g>
<g opacity="0.2" style="mix-blend-mode:multiply">
<path d="M41.8301 100.568C41.5954 100.893 41.4509 101.236 41.4509 101.579C41.4509 101.597 41.4509 101.615 41.4509 101.634C41.487 101.309 41.6134 101.002 41.8481 100.713L41.812 100.568H41.8301Z" fill="#A32035"/>
</g>
<path d="M40.2233 37.5798C34.9336 36.966 30.7632 36.1536 29.373 35.1245L37.0278 75.1493C38.436 72.7301 40.2413 70.8526 40.3677 70.7262C40.5843 70.5096 40.9454 70.5096 41.162 70.7262C41.3787 70.9428 41.3967 71.3039 41.162 71.5206C41.1259 71.5567 38.6887 74.0842 37.3527 76.9366L38.6345 83.6526L43.8701 86.3787C44.2312 85.9454 44.8269 85.5663 45.5491 85.3496L46.2893 79.1211L40.2233 37.6159V37.5798Z" fill="#DF5551"/>
<g opacity="0.2" style="mix-blend-mode:multiply">
<path d="M40.2233 37.5798C34.9336 36.966 30.7632 36.1536 29.373 35.1245L37.0278 75.1493C38.436 72.7301 40.2413 70.8526 40.3677 70.7262C40.5843 70.5096 40.9454 70.5096 41.162 70.7262C41.3787 70.9428 41.3967 71.3039 41.162 71.5206C41.1259 71.5567 38.6887 74.0842 37.3527 76.9366L38.6345 83.6526L43.8701 86.3787C44.2312 85.9454 44.8269 85.5663 45.5491 85.3496L46.2893 79.1211L40.2233 37.6159V37.5798Z" fill="#A32035"/>
</g>
<path d="M50.3152 106.562L49.8819 103.638H43.4006L45.1699 88.6351C44.3214 88.5449 43.6534 88.1477 43.509 87.5519C43.509 87.5158 43.509 87.4616 43.509 87.4255L38.9233 85.0244L41.8841 100.496C41.8841 100.496 41.848 100.551 41.83 100.587L41.8661 100.731C41.6314 101.02 41.505 101.345 41.4689 101.652C41.6314 104.775 49.4486 106.31 50.3152 106.562Z" fill="#DF5551"/>
<g opacity="0.2" style="mix-blend-mode:multiply">
<path d="M50.3152 106.562L49.8819 103.638H43.4006L45.1699 88.6351C44.3214 88.5449 43.6534 88.1477 43.509 87.5519C43.509 87.5158 43.509 87.4616 43.509 87.4255L38.9233 85.0244L41.8841 100.496C41.8841 100.496 41.848 100.551 41.83 100.587L41.8661 100.731C41.6314 101.02 41.505 101.345 41.4689 101.652C41.6314 104.775 49.4486 106.31 50.3152 106.562Z" fill="#A32035"/>
</g>
<path d="M75.2111 7.23129C75.2111 7.23129 75.1208 7.10492 75.1028 7.01465C75.1028 7.10492 75.1569 7.17713 75.2111 7.23129Z" fill="#B7A59C"/>
<path d="M29.8965 34.2577C29.8965 34.2577 29.8965 34.1855 29.8965 34.1674C30.5284 35.4853 43.5089 37.5435 63.2596 37.8865C69.452 37.9948 74.7056 37.9406 79.1467 37.7962C96.9656 28.7514 69.9213 22.2701 65.3538 17.8109C60.696 13.2614 61.6889 4.39705 68.5854 2.55559C73.0266 1.3821 77.0886 5.80523 76.0776 7.33979C76.3665 7.17731 76.6192 6.81624 76.7095 6.11214C76.7095 6.09409 76.7095 6.07604 76.7095 6.05798C77.3414 2.68196 72.5211 0.461369 69.8311 0.118351C67.8091 -0.152453 63.4221 -0.134399 59.7211 2.71807C54.7744 6.50932 52.2288 15.3736 34.7168 24.4727C29.4813 27.1807 28.8675 32.0191 29.7882 34.0591C29.8243 34.1133 29.8424 34.1855 29.8785 34.2396H29.9146L29.8965 34.2577Z" fill="#B7A59C"/>
<path d="M40.2233 37.5798C47.2642 38.3922 56.2549 38.8255 63.2416 38.9519C65.1011 38.988 67.3939 39.006 69.9034 39.006C80.1759 39.006 94.1674 38.5728 97.4351 36.3341C97.8865 36.0272 98.1392 35.6842 98.1573 35.305H97.0921C97.0921 35.305 97.0379 35.4495 96.9657 35.5217C96.9477 35.8828 96.8935 36.2438 96.8213 36.623C96.8213 36.623 96.4422 36.8396 90.9719 37.5617C89.7443 37.7242 93.3189 37.5618 85.5378 37.995C74.7598 38.6089 78.0997 38.3381 78.0997 38.3381C78.4788 38.1575 78.8038 37.977 79.1649 37.8145C74.7417 37.9589 69.4701 37.995 63.2777 37.9048C43.5271 37.5617 30.5465 35.5036 29.9147 34.1857C29.9147 34.2038 29.9147 34.2579 29.9147 34.276H29.8786L29.5355 34.0594L28.9939 33.7524C28.8314 34.0594 28.8314 34.4024 28.9939 34.7093C29.0661 34.8357 29.1745 34.944 29.3189 35.0704C29.3369 35.0884 29.3731 35.1065 29.3911 35.1245C30.7812 36.1716 34.9516 36.984 40.2413 37.5798H40.2233Z" fill="white"/>
<path opacity="0.4" d="M75.2112 7.23145C75.4278 7.55641 75.9333 7.53836 76.0416 7.37587C76.0416 7.37587 76.0416 7.35782 76.0416 7.33977C75.7167 7.5203 75.3556 7.43003 75.1931 7.23145H75.2112Z" fill="white"/>
<path d="M68.5854 2.55556C61.6889 4.39703 60.6959 13.2613 65.3538 17.8108C69.9213 22.2701 96.9656 28.7513 79.1467 37.7962C90.3761 37.4351 96.099 36.4241 96.9837 35.5034C97.435 29.2568 89.1123 26.7835 89.1123 26.7835C96.7129 21.7104 76.4928 14.0196 76.4928 14.0196C76.4928 14.0196 76.4928 14.0196 76.4748 14.0196C76.0595 13.803 75.6443 13.5863 75.2471 13.3697C74.0195 12.6475 72.16 11.3838 71.0768 9.81311C71.0407 9.74089 70.9865 9.68673 70.9504 9.61452C70.8601 9.47009 70.7698 9.30761 70.6796 9.16318C70.6796 9.16318 70.6796 9.12707 70.6615 9.12707C69.7408 7.32171 70.0658 6.41903 70.4268 5.98574C70.5713 5.87742 70.6976 5.7691 70.8421 5.67883C71.7086 5.15528 72.3766 5.13723 72.7196 5.17333C73.171 5.24555 73.7306 5.42608 74.2181 5.80521C74.2542 5.84132 74.2903 5.85937 74.3264 5.89548C74.4889 6.05796 74.6333 6.22044 74.7777 6.38292C74.8139 6.43708 74.85 6.47319 74.8861 6.52735C74.9222 6.58151 74.9583 6.63567 74.9944 6.68984C75.0485 6.79816 75.0847 6.88842 75.1208 6.99675C75.1208 7.08701 75.1749 7.15923 75.2291 7.21339C75.3916 7.43003 75.7526 7.5203 76.0776 7.32171C77.0886 5.78716 73.0265 1.36402 68.5854 2.53751V2.55556Z" fill="#B7A59C"/>
<path opacity="0.4" d="M68.5854 2.55556C61.6889 4.39703 60.6959 13.2613 65.3538 17.8108C69.9213 22.2701 96.9656 28.7513 79.1467 37.7962C90.3761 37.4351 96.099 36.4241 96.9837 35.5034C97.435 29.2568 89.1123 26.7835 89.1123 26.7835C96.7129 21.7104 76.4928 14.0196 76.4928 14.0196C76.4928 14.0196 76.4928 14.0196 76.4748 14.0196C76.0595 13.803 75.6443 13.5863 75.2471 13.3697C74.0195 12.6475 72.16 11.3838 71.0768 9.81311C71.0407 9.74089 70.9865 9.68673 70.9504 9.61452C70.8601 9.47009 70.7698 9.30761 70.6796 9.16318C70.6796 9.16318 70.6796 9.12707 70.6615 9.12707C69.7408 7.32171 70.0658 6.41903 70.4268 5.98574C70.5713 5.87742 70.6976 5.7691 70.8421 5.67883C71.7086 5.15528 72.3766 5.13723 72.7196 5.17333C73.171 5.24555 73.7306 5.42608 74.2181 5.80521C74.2542 5.84132 74.2903 5.85937 74.3264 5.89548C74.4889 6.05796 74.6333 6.22044 74.7777 6.38292C74.8139 6.43708 74.85 6.47319 74.8861 6.52735C74.9222 6.58151 74.9583 6.63567 74.9944 6.68984C75.0485 6.79816 75.0847 6.88842 75.1208 6.99675C75.1208 7.08701 75.1749 7.15923 75.2291 7.21339C75.3916 7.43003 75.7526 7.5203 76.0776 7.32171C77.0886 5.78716 73.0265 1.36402 68.5854 2.53751V2.55556Z" fill="white"/>
<path d="M79.1288 37.7962C78.7858 37.9768 78.4609 38.1392 78.0637 38.3198C78.0637 38.3198 74.7418 38.5906 85.5018 37.9768C93.3009 37.5435 89.7082 37.706 90.9359 37.5435C96.4061 36.8213 96.7853 36.6047 96.7853 36.6047C96.8755 36.2256 96.9116 35.8645 96.9297 35.5034C96.0451 36.4242 90.3221 37.4352 79.0927 37.7962H79.1288Z" fill="white"/>
<path opacity="0.4" d="M79.1288 37.7962C78.7858 37.9768 78.4609 38.1392 78.0637 38.3198C78.0637 38.3198 74.7418 38.5906 85.5018 37.9768C93.3009 37.5435 89.7082 37.706 90.9359 37.5435C96.4061 36.8213 96.7853 36.6047 96.7853 36.6047C96.8755 36.2256 96.9116 35.8645 96.9297 35.5034C96.0451 36.4242 90.3221 37.4352 79.0927 37.7962H79.1288Z" fill="white"/>
<path d="M72.5754 54.1711C73.5142 54.0808 74.128 52.7629 73.9655 51.2464C73.803 49.7299 72.9184 48.5925 71.9977 48.6828C71.0769 48.773 70.445 50.0909 70.6075 51.6074C70.77 53.1239 71.6546 54.2613 72.5754 54.1711Z" fill="#231F20"/>
<path d="M53.6732 49.9464C52.7525 50.0367 52.1206 51.3546 52.2831 52.8711C52.4455 54.3876 53.3302 55.525 54.2509 55.4347C55.1716 55.3445 55.8035 54.0265 55.641 52.51C55.4785 50.9935 54.5939 49.8562 53.6732 49.9464Z" fill="#231F20"/>
<path d="M69.4159 57.4566C69.2895 57.3664 69.1451 57.3303 69.0007 57.3664L59.6128 58.9731C59.3059 59.0273 59.1073 59.3162 59.1615 59.6231C59.3781 60.941 60.1544 62.0784 61.3099 62.8366C62.1945 63.4143 63.2055 63.7032 64.2706 63.7032C64.5956 63.7032 64.9206 63.6671 65.2455 63.6129C68.1341 63.1255 70.102 60.5258 69.6506 57.8177C69.6326 57.6733 69.5423 57.5469 69.4159 57.4566Z" fill="#231F20"/>
<path d="M80.8619 88.5269C79.3815 88.1659 78.3525 87.1368 78.5872 86.2161C78.8038 85.3134 80.194 84.8621 81.6744 85.2231C81.8007 85.2592 81.9091 85.2953 82.0354 85.3314L80.212 69.7692H78.3344V67.5125H78.6775C79.183 67.5125 79.5982 67.0973 79.5982 66.5918V66.1585C79.5982 65.653 79.183 65.2378 78.6775 65.2378H71.3658C70.8603 65.2378 70.445 65.653 70.445 66.1585V66.5918C70.445 67.0973 70.8603 67.5125 71.3658 67.5125H71.781V69.7692H69.7951L68.6397 79.6085H59.0532L58.3491 73.5244L57.8075 69.7692H55.9299V67.5125H56.2729C56.7784 67.5125 57.1937 67.0973 57.1937 66.5918V66.1585C57.1937 65.653 56.7784 65.2378 56.2729 65.2378H48.9612C48.4557 65.2378 48.0405 65.653 48.0405 66.1585V66.5918C48.0405 67.0973 48.4557 67.5125 48.9612 67.5125H49.3765V69.7692H47.3906L46.2893 79.0668L47.1739 85.1148C48.0405 85.2051 48.7265 85.6022 48.871 86.2161C49.0335 86.9021 48.5099 87.6423 47.6072 88.1298L49.882 103.62H61.7793L60.9308 96.1455H66.6718L65.7872 103.62H84.1838L82.4146 88.5991C81.9452 88.6714 81.4036 88.6533 80.8619 88.5089V88.5269Z" fill="#DF5551"/>
<path d="M80.8619 88.5269C79.3815 88.1659 78.3525 87.1368 78.5872 86.2161C78.8038 85.3134 80.194 84.8621 81.6744 85.2231C81.8007 85.2592 81.9091 85.2953 82.0354 85.3314L80.212 69.7692H78.3344V67.5125H78.6775C79.183 67.5125 79.5982 67.0973 79.5982 66.5918V66.1585C79.5982 65.653 79.183 65.2378 78.6775 65.2378H71.3658C70.8603 65.2378 70.445 65.653 70.445 66.1585V66.5918C70.445 67.0973 70.8603 67.5125 71.3658 67.5125H71.781V69.7692H69.7951L68.6397 79.6085H59.0532L58.3491 73.5244L57.8075 69.7692H55.9299V67.5125H56.2729C56.7784 67.5125 57.1937 67.0973 57.1937 66.5918V66.1585C57.1937 65.653 56.7784 65.2378 56.2729 65.2378H48.9612C48.4557 65.2378 48.0405 65.653 48.0405 66.1585V66.5918C48.0405 67.0973 48.4557 67.5125 48.9612 67.5125H49.3765V69.7692H47.3906L46.2893 79.0668L47.1739 85.1148C48.0405 85.2051 48.7265 85.6022 48.871 86.2161C49.0335 86.9021 48.5099 87.6423 47.6072 88.1298L49.882 103.62H61.7793L60.9308 96.1455H66.6718L65.7872 103.62H84.1838L82.4146 88.5991C81.9452 88.6714 81.4036 88.6533 80.8619 88.5089V88.5269Z" fill="#00A9E7"/>
<path d="M45.5671 85.3135C45.5671 85.3135 45.7116 85.2593 45.8018 85.2412C46.2893 85.1149 46.7587 85.0968 47.192 85.1329L46.3073 79.085L45.5671 85.3135Z" fill="#DF5551"/>
<g opacity="0.2" style="mix-blend-mode:multiply">
<path d="M45.5671 85.3135C45.5671 85.3135 45.7116 85.2593 45.8018 85.2412C46.2893 85.1149 46.7587 85.0968 47.192 85.1329L46.3073 79.085L45.5671 85.3135Z" fill="#A32035"/>
</g>
<path d="M45.5671 85.3135C45.5671 85.3135 45.7116 85.2593 45.8018 85.2412C46.2893 85.1149 46.7587 85.0968 47.192 85.1329L46.3073 79.085L45.5671 85.3135Z" fill="#00A9E7"/>
<path d="M46.5961 88.5266C46.0906 88.6529 45.6032 88.671 45.1699 88.6168L43.4006 103.619H49.8819L47.6071 88.1294C47.3002 88.2919 46.9572 88.4363 46.5961 88.5266Z" fill="#DF5551"/>
<g opacity="0.2" style="mix-blend-mode:multiply">
<path d="M46.5961 88.5266C46.0906 88.6529 45.6032 88.671 45.1699 88.6168L43.4006 103.619H49.8819L47.6071 88.1294C47.3002 88.2919 46.9572 88.4363 46.5961 88.5266Z" fill="#A32035"/>
</g>
<path d="M46.5961 88.5266C46.0906 88.6529 45.6032 88.671 45.1699 88.6168L43.4006 103.619H49.8819L47.6071 88.1294C47.3002 88.2919 46.9572 88.4363 46.5961 88.5266Z" fill="#00A9E7"/>
<path d="M43.5089 87.4074C43.5089 87.4074 43.5089 87.4977 43.5089 87.5338C43.6533 88.1296 44.3213 88.5268 45.1698 88.617C45.6031 88.6712 46.0906 88.6351 46.5961 88.5268C46.9752 88.4365 47.3182 88.2921 47.6071 88.1296C48.5098 87.6421 49.0333 86.9019 48.8708 86.2159C48.7264 85.6021 48.0404 85.2049 47.1738 85.1146C46.7405 85.0785 46.2711 85.0966 45.7837 85.223C45.7114 85.241 45.6392 85.2771 45.549 85.2952C44.8268 85.5118 44.2311 85.8909 43.87 86.3242L38.6344 83.5981L38.5803 83.562C37.3707 82.8579 36.7208 81.9372 36.5583 80.7457C36.3958 79.5541 36.7569 78.2543 37.3346 76.9905C37.3346 76.9544 37.3707 76.9183 37.3887 76.8822C38.7247 74.0297 41.1619 71.5022 41.198 71.4661C41.4147 71.2495 41.4147 70.8884 41.198 70.6718C40.9814 70.4551 40.6203 70.4551 40.4037 70.6718C40.2773 70.7981 38.472 72.6757 37.0638 75.0949C37.0638 75.131 37.0277 75.1491 37.0096 75.1852C35.9986 76.9544 35.2043 78.9945 35.457 80.872C35.6736 82.4066 36.5402 83.6342 38.0748 84.5369L38.8691 84.9522L38.9413 84.9883L43.527 87.3894L43.5089 87.4074Z" fill="#231F20"/>
<path d="M86.314 70.7079C86.0974 70.9246 86.0793 71.2856 86.314 71.5023C86.3501 71.5384 89.9789 75.3116 90.8094 78.8501C90.9538 79.5 91.026 80.1499 90.9358 80.7638C90.8455 81.3956 90.6108 81.9553 90.2317 82.4427C89.9067 82.876 89.4734 83.2552 88.9138 83.5801L83.606 86.3604C83.263 85.9451 82.7214 85.5841 82.0534 85.3674C81.9451 85.3313 81.8187 85.2952 81.6923 85.2591C80.2119 84.898 78.8218 85.3313 78.6051 86.2521C78.3885 87.1547 79.3995 88.2018 80.8799 88.5629C81.4215 88.6893 81.9631 88.7254 82.4325 88.6532C83.2269 88.5268 83.8226 88.1477 83.9671 87.57C83.9671 87.5339 83.9671 87.4797 83.9671 87.4436L89.4554 84.5731C89.6359 84.4647 89.7803 84.3384 89.9609 84.212C91.1524 83.3635 91.8745 82.2803 92.0551 80.9262C92.2537 79.5 91.8384 77.9655 91.1705 76.5212C89.7803 73.4701 87.2709 70.8884 87.1264 70.726C86.9098 70.5093 86.5487 70.5093 86.3321 70.726L86.314 70.7079Z" fill="#231F20"/>
</svg>
