<svg width="128" height="128" viewBox="0 0 128 128" fill="none" xmlns="http://www.w3.org/2000/svg">
<path d="M77.0229 114.965C78.3308 115.907 79.2376 117.18 79.8131 118.732C80.2491 118.767 80.7025 118.801 81.121 118.836C80.3537 116.43 78.9237 114.895 77.5461 113.936C76.9357 114.023 76.3079 114.093 75.6453 114.163C76.0812 114.355 76.5346 114.616 77.0055 114.965H77.0229Z" fill="#211E1F"/>
<path d="M51.1788 113.047C50.7777 112.977 50.3766 112.89 49.993 112.82C49.3303 114.267 48.9118 116.36 49.1734 119.359C49.5396 119.307 49.9407 119.255 50.3418 119.22C50.0976 116.273 50.551 114.32 51.1788 113.064V113.047Z" fill="#211E1F"/>
<path d="M37.8905 107.466C37.8905 107.466 37.8905 107.432 37.873 107.414C37.873 107.432 37.873 107.449 37.8905 107.466Z" fill="white"/>
<path d="M62.0954 114.354C67.1177 114.668 71.7738 114.564 75.6627 114.163C76.3253 114.093 76.9531 114.023 77.5635 113.936C83.0044 113.151 86.4747 111.686 86.4921 109.803C86.4921 109.35 86.2828 108.914 85.9166 108.46L93.3455 67.0258C92.0027 67.3049 90.6251 67.3921 89.2474 67.3746C88.5324 67.3746 87.8349 67.3223 87.1373 67.27C86.8234 67.2526 86.5793 66.9735 86.5967 66.6422C86.6142 66.3283 86.9106 66.0667 87.2245 66.1016C89.3346 66.2585 91.5319 66.3109 93.5722 65.8051L98.1063 40.5365L98.3504 38.9844C98.8387 38.6182 98.891 38.2694 98.8561 38.0253C98.8561 37.9904 98.7341 37.3103 97.9319 37.1185C97.9319 37.1185 97.9319 37.3975 97.9319 37.7114C97.9319 37.816 97.9144 37.9032 97.8796 38.0079C97.6877 38.3043 96.4147 39.3681 87.7128 39.8912C85.2016 40.0482 82.2894 40.1354 79.0632 40.1703C74.0758 40.2226 68.3559 40.1354 62.2872 39.9087C53.3237 39.5599 44.6741 38.8624 37.9777 37.9207C29.7989 36.7872 27.7935 35.7583 27.3226 35.3921C27.0262 35.1654 26.8692 34.5724 26.7995 34.2934C26.782 34.1888 26.7646 34.1365 26.7646 34.1365C26.1542 34.4678 26.0845 35.1479 26.0845 35.1479H26.1019C26.0845 35.3746 26.1019 35.5664 26.2065 35.7757C26.2763 35.8978 26.3809 36.0199 26.5204 36.1419C26.5204 36.1594 26.5204 36.1768 26.5204 36.1942V36.1594C26.5379 36.1594 26.5728 36.1942 26.5902 36.2117C26.7297 36.3163 26.8867 36.4209 27.0785 36.543C27.0785 36.543 27.0959 36.543 27.1134 36.5605C27.3226 36.6651 27.5668 36.7872 27.8283 36.8918C27.8981 36.9267 27.9679 36.9441 28.0376 36.979C28.2992 37.0836 28.5956 37.1882 28.9095 37.2929C28.9095 37.2929 28.927 37.2929 28.9444 37.2929C29.2758 37.3975 29.642 37.5021 30.0256 37.6068C30.0779 37.6068 30.1128 37.6242 30.1477 37.6417C30.1826 37.6417 30.2349 37.6591 30.2872 37.6765C30.7406 37.7986 31.2114 37.9032 31.7172 38.0079C31.8044 38.0079 31.8741 38.0427 31.9613 38.0602C32.5019 38.1648 33.0599 38.2869 33.6354 38.3915C33.6703 38.3915 33.7052 38.3915 33.7401 38.409C34.333 38.5136 34.9433 38.6182 35.5886 38.7229C35.6583 38.7229 35.7106 38.7403 35.7804 38.7577C36.4082 38.8624 37.0708 38.9496 37.751 39.0367C37.8207 39.0367 37.873 39.0542 37.9428 39.0716L42.2501 73.6177C46.0692 75.1697 50.1847 75.7801 54.248 76.373C54.9106 76.4776 55.6082 76.5823 56.1662 76.9659C56.6545 77.2972 57.0033 77.925 56.8986 78.4831V78.5005C56.8986 78.5703 56.8638 78.64 56.8289 78.7098V78.7447C56.8289 78.7447 56.7417 78.8667 56.7068 78.9365C55.7651 80.3141 51.9984 80.1746 51.9984 80.1746C50.9172 80.1921 49.8534 80.0177 48.7896 79.8258C47.4469 79.5817 46.1041 79.2852 44.7787 78.9714C44.1335 78.8144 43.4883 78.6226 42.8605 78.4133L43.1569 80.8024C43.1569 80.8024 43.3313 80.8896 43.4011 80.9245C46.9935 82.4765 50.8823 83.0869 54.7188 83.6798C55.3466 83.7844 55.9918 83.8891 56.515 84.2727C57.0382 84.6564 57.3869 85.4062 57.1253 86.0166C56.4801 88.2487 50.952 87.3768 50.952 87.3768C50.4986 87.307 50.0278 87.2199 49.5744 87.1327C48.3188 86.8885 47.0632 86.5921 45.8076 86.2782C45.1101 86.1038 44.4125 85.8771 43.7499 85.5981L44.0114 87.6733C44.5172 87.9872 45.0229 88.2836 45.5635 88.5452C48.7548 90.0972 52.2076 90.6902 55.6256 91.2831C56.1837 91.3877 56.7591 91.4923 57.23 91.876C57.6136 92.1899 57.8926 92.7828 57.8403 93.3234C57.7008 95.9915 52.3297 95.0149 52.3297 95.0149C51.8937 94.9452 51.4752 94.858 51.0392 94.7708C49.9232 94.5267 48.8071 94.2476 47.691 93.9338C46.7842 93.6722 45.8774 93.3931 45.0578 92.8874C44.9008 92.7828 44.7613 92.6782 44.6044 92.5561L47.0458 112.157C47.9875 112.401 48.9989 112.628 50.0452 112.855C50.4289 112.942 50.83 113.012 51.2311 113.081C54.5095 113.692 58.224 114.163 62.1477 114.389L62.0954 114.354ZM82.1499 91.6493C81.6965 92.6258 80.9117 93.3408 80.0572 93.7942C79.2027 94.2476 78.2785 94.4569 77.3542 94.6487C76.2207 94.8754 75.0872 95.0673 73.9537 95.2417C73.5177 95.3114 73.0817 95.3637 72.6458 95.3986C72.6458 95.3986 67.2223 95.9915 67.2747 93.306C67.2747 92.7654 67.5711 92.2073 67.9896 91.9109C68.4779 91.5621 69.0708 91.4923 69.6289 91.44C73.0817 91.1087 76.5695 90.7599 79.8654 89.452C80.6153 89.1555 81.3651 88.8068 82.0801 88.4057L82.1324 88.4754C82.6381 89.3997 82.5684 90.6727 82.1324 91.6493H82.1499ZM85.1493 84.203C84.6436 85.1795 83.7717 85.8945 82.8125 86.3305C81.8534 86.7839 80.8245 86.9757 79.7956 87.1675C78.5226 87.3942 77.2496 87.5861 75.9766 87.743C75.5057 87.7953 75.0523 87.8476 74.5815 87.8825C74.5815 87.8825 69.0011 88.3534 68.5302 86.0689C68.321 85.4237 68.7221 84.7087 69.2801 84.3599C69.8207 84.0111 70.4834 83.9588 71.1112 83.9065C74.9826 83.5926 78.9063 83.2787 82.6033 81.9882C83.4403 81.6918 84.2774 81.3605 85.0796 80.9594L85.1493 81.0291C85.7248 81.9534 85.655 83.2264 85.1493 84.203ZM86.9804 73.7397L87.0501 73.8095C87.6605 74.7337 87.6082 76.0068 87.0676 76.9833C86.5444 77.9599 85.6027 78.6749 84.5738 79.1109C83.5624 79.5468 82.4463 79.7561 81.3477 79.9305C80.0049 80.1572 78.6447 80.3316 77.2845 80.4885C76.2033 80.6106 75.1221 80.7152 74.0583 80.6106C74.0583 80.6106 70.2916 80.4536 69.4545 79.0237C69.4545 79.0237 69.3847 78.8842 69.3673 78.8144V78.7795C69.3673 78.7795 69.315 78.64 69.315 78.5703V78.5528C69.2452 77.9773 69.6463 77.3844 70.152 77.088C70.7275 76.7392 71.4425 76.6869 72.1052 76.6346C76.2207 76.3381 80.406 76.0417 84.3297 74.7512C85.2191 74.4547 86.1084 74.1234 86.9629 73.7397H86.9804ZM70.4311 61.1316C70.5706 61.3931 70.4834 61.6896 70.2392 61.8466C70.0125 61.9861 69.6638 61.8989 69.5243 61.6547C69.4371 61.4803 69.3499 61.3234 69.2627 61.149C68.6523 61.7768 67.8501 62.3697 66.7515 62.7359C66.8038 63.2242 66.8736 63.7299 66.891 64.2182C66.9085 64.8809 65.8796 64.8983 65.8621 64.2182C65.8621 63.7997 65.7924 63.3812 65.7575 62.9801C65.182 63.0847 64.5542 63.1545 63.8567 63.137C63.3684 63.137 62.9324 63.0847 62.5313 63.0149C62.4441 63.4858 62.3395 63.9392 62.2 64.3926C62.1128 64.6542 61.8512 64.846 61.5722 64.7588C61.3106 64.6891 61.1188 64.3926 61.206 64.131C61.3455 63.6951 61.4501 63.2417 61.5199 62.7882C60.3166 62.4569 59.4447 61.8989 58.7995 61.2885C58.7995 61.3234 58.7646 61.3583 58.7471 61.3932C58.6774 61.5327 58.6251 61.6722 58.5553 61.8117C58.5204 61.8814 58.5902 61.7419 58.5553 61.8117L58.5204 61.8989C58.5204 61.8989 58.4681 62.0209 58.4507 62.0907C58.3461 62.3523 58.1194 62.5441 57.8229 62.4569C57.5787 62.3872 57.352 62.0907 57.4567 61.8291C57.6311 61.3583 57.8403 60.9049 58.0496 60.4515C57.1777 59.2308 57.0033 58.0449 57.0033 58.01C56.9684 57.6961 57.1951 57.3997 57.509 57.3648C57.8229 57.3299 58.1193 57.5566 58.1542 57.8705C58.1542 57.9403 58.2589 58.5506 58.6599 59.2656C58.8343 58.9692 58.9913 58.6553 59.1657 58.3763C59.3052 58.1321 59.6191 58.0449 59.8807 58.1844C60.1248 58.3239 60.212 58.6553 60.0725 58.8994C59.8109 59.3179 59.5842 59.7714 59.3401 60.2073C59.8632 60.7654 60.5956 61.2885 61.6594 61.6199C61.6768 61.1316 61.6768 60.6433 61.6245 60.1376C61.5896 59.8585 61.8687 59.6144 62.1302 59.6144C62.4267 59.6144 62.636 59.8411 62.6534 60.1201C62.7057 60.6956 62.7057 61.2711 62.6534 61.8466C63.0371 61.8989 63.4207 61.9512 63.8741 61.9686C64.5194 61.9686 65.0948 61.9338 65.618 61.8291C65.5308 61.2362 65.4087 60.6433 65.2692 60.0678C65.0948 59.4226 66.1063 59.1436 66.2632 59.7888C66.4027 60.3643 66.5074 60.9572 66.612 61.5501C67.5711 61.1839 68.2338 60.6433 68.7046 60.0678C68.4779 59.6493 68.2687 59.2308 68.042 58.8122C67.9025 58.5506 67.9897 58.2542 68.2338 58.0972C68.4605 57.9577 68.8093 58.0449 68.9488 58.2891C69.0883 58.5506 69.2278 58.8122 69.3673 59.0738C69.6812 58.4111 69.7858 57.888 69.7858 57.8357C69.8382 57.5218 70.1346 57.2951 70.4485 57.3474C70.7624 57.3997 70.9891 57.6961 70.9368 58.01C70.9368 58.0275 70.745 59.1087 69.9777 60.2596C70.1346 60.5561 70.2741 60.8351 70.4311 61.1316ZM65.461 55.0106C65.4785 55.3768 65.1471 55.6733 64.7984 55.6907C64.624 55.6907 64.4322 55.6209 64.3275 55.4989C64.2055 55.3768 64.1357 55.2024 64.1357 55.0455C64.1357 54.8711 64.1008 54.6967 64.0834 54.5049C64.0311 54.1212 63.9439 53.7376 63.8218 53.3539C63.6997 53.0051 63.9439 52.6389 64.2752 52.5343C64.4322 52.482 64.6414 52.5169 64.7809 52.604C64.9379 52.6912 65.0425 52.8308 65.0948 53.0051C65.3041 53.6504 65.4262 54.3479 65.461 55.028V55.0106ZM62.758 51.9239C62.915 51.9588 63.0894 52.0983 63.1591 52.2378C63.2638 52.3948 63.2463 52.5517 63.2289 52.7436C63.1242 53.5806 63.0022 54.4177 62.8452 55.2373C62.7755 55.6035 62.3569 55.7779 62.0431 55.7081C61.6768 55.6384 61.5024 55.2373 61.5722 54.906C61.7117 54.0689 61.8512 53.2493 61.9559 52.4122C61.9733 52.2378 62.1302 52.0983 62.2698 52.0111C62.4267 51.9065 62.6011 51.9065 62.7755 51.9414L62.758 51.9239ZM69.2104 48.506H69.2278C69.2278 47.5294 69.5417 46.3784 70.2915 45.803C71.0414 45.2275 72.018 45.0008 72.9597 44.9136C74.285 44.7741 75.6452 44.8438 76.9531 45.1403C77.5112 45.2624 78.0692 45.4193 78.4877 45.803C78.8191 46.1169 79.0458 46.5354 79.2202 46.9539C80.3537 49.6569 80.249 52.9354 78.6273 55.3594C78.3308 55.8128 77.982 56.2313 77.5286 56.5103C77.2322 56.7021 76.9183 56.8242 76.5869 56.9288C74.7035 57.4869 72.5411 56.9463 71.146 55.5861C69.3324 53.8248 68.9313 51.0346 69.2278 48.5234L69.2104 48.506ZM48.6327 56.1441C48.3188 56.0046 48.0049 55.8302 47.7433 55.6035C47.3422 55.2547 47.0458 54.7839 46.8016 54.313C45.5112 51.6798 45.8599 48.4188 47.3597 45.9076C47.5864 45.5065 47.8654 45.1228 48.2316 44.8613C48.7025 44.5474 49.2779 44.4602 49.8534 44.4079C51.1962 44.3032 52.539 44.4079 53.8469 44.7392C54.7711 44.9659 55.6954 45.3147 56.358 45.9948C57.0207 46.6749 57.1777 47.8433 57.0381 48.8373H57.0556C57.0033 51.3485 56.236 54.0689 54.1956 55.5686C52.6262 56.737 50.4114 56.9637 48.6153 56.1615L48.6327 56.1441ZM56.6196 74.6814C56.0965 74.6291 55.5733 74.3327 55.3989 73.8269C55.242 73.3561 55.4164 72.8504 55.6082 72.3795C55.7651 71.9959 55.9221 71.5948 56.079 71.2111C56.1662 71.0193 56.236 70.7926 56.1836 70.6008C56.1313 70.3915 55.9569 70.252 55.8174 70.0951C54.8757 69.1359 54.527 67.6536 54.9106 66.3806C54.9629 66.2062 55.0501 66.0144 55.2245 65.9447C55.364 65.8923 55.5035 65.9447 55.6431 65.9795C56.2185 66.1888 56.7417 66.4678 57.2823 66.7643C58.9564 67.6711 60.648 68.5779 62.3395 69.5021C62.7406 68.7174 63.5253 68.1594 64.467 68.1245C65.3913 68.0896 66.1935 68.5605 66.6643 69.2929C68.2687 68.2117 69.873 67.1305 71.4774 66.0493C71.9831 65.7179 72.4888 65.3692 73.0294 65.125C73.1689 65.0727 73.3084 65.003 73.448 65.0378C73.6223 65.0902 73.727 65.2645 73.7967 65.4389C74.3025 66.6771 74.0932 68.1768 73.2561 69.2231C73.1166 69.3801 72.9771 69.5545 72.9422 69.7637C72.9074 69.973 73.012 70.1822 73.1166 70.3741C73.3084 70.7403 73.5003 71.1239 73.6921 71.4902C73.9188 71.9261 74.1629 72.4318 74.0409 72.9027C73.9188 73.4084 73.4305 73.7572 72.9074 73.8618C72.4016 73.9664 71.861 73.8618 71.3553 73.7746C70.2044 73.5479 69.0534 73.2689 67.9896 72.7806C67.5886 72.5888 67.1875 72.3447 66.8213 72.0831C66.4376 72.9027 65.618 73.4956 64.6589 73.5305C63.7346 73.5654 62.915 73.0771 62.4441 72.3446C62.1128 72.6411 61.764 72.9027 61.3804 73.1294C60.3689 73.7223 59.2529 74.106 58.1368 74.4373C57.6311 74.5942 57.1253 74.7337 56.6022 74.6814H56.6196Z" fill="white"/>
<path d="M38.2393 105.67C37.9254 106.036 37.7684 106.42 37.7684 106.821C37.7684 106.873 37.7858 106.908 37.8033 106.961C37.8033 106.908 37.8033 106.873 37.8033 106.838C37.8033 106.437 37.9777 106.054 38.2741 105.687L38.2393 105.67Z" fill="white"/>
<path d="M43.0698 90.5506C42.6861 89.5392 42.721 88.2662 43.2965 87.3942L43.3662 87.3245C43.558 87.4465 43.7499 87.5337 43.9417 87.6558L43.6801 85.5806C43.3837 85.4585 43.0698 85.3539 42.7907 85.1969C41.8665 84.6738 41.0469 83.9065 40.6109 82.895C40.1924 81.8836 40.2273 80.6106 40.855 79.7386L40.9248 79.6689C41.6223 80.07 42.3373 80.4188 43.0698 80.7501L42.7733 78.361C42.3548 78.2215 41.9362 78.0645 41.5526 77.8553C40.576 77.3321 39.6867 76.5648 39.2332 75.5534C38.7798 74.5419 38.8147 73.2689 39.4948 72.3969L39.5646 72.3272C40.4016 72.7806 41.2387 73.1817 42.1281 73.5305C42.1455 73.5305 42.1629 73.5305 42.1804 73.5479L37.873 39.0019C37.873 39.0019 37.751 38.9844 37.6812 38.967C37.0011 38.8798 36.3559 38.7752 35.7106 38.688C35.6409 38.688 35.5886 38.6705 35.5188 38.6531C34.891 38.5485 34.2632 38.4438 33.6703 38.3392C33.6354 38.3392 33.6005 38.3392 33.5657 38.3217C32.9728 38.2171 32.4147 38.1125 31.8916 37.9904C31.8044 37.9904 31.7346 37.9555 31.6474 37.9381C31.1417 37.8335 30.6534 37.7114 30.2174 37.6068C30.1826 37.6068 30.1302 37.5893 30.0779 37.5719C30.0256 37.5719 29.9907 37.5544 29.9559 37.537C29.5722 37.4324 29.206 37.3277 28.8747 37.2231C28.8747 37.2231 28.8572 37.2231 28.8398 37.2231C28.5259 37.1185 28.2294 37.0138 27.9678 36.9092C27.8981 36.8743 27.8283 36.8569 27.7586 36.822C27.497 36.7174 27.2529 36.5953 27.0436 36.4907C27.0436 36.4907 27.0262 36.4907 27.0087 36.4732C26.8169 36.3686 26.6599 36.264 26.5204 36.1419C26.503 36.1419 26.4681 36.107 26.4507 36.0896V36.1245L31.63 66.6945C33.5134 65.7877 35.5711 65.3168 37.594 64.9506C37.9079 64.8983 38.2218 65.1076 38.2741 65.4215C38.3264 65.7354 38.1172 66.0493 37.8033 66.1016C35.7629 66.4504 33.6703 66.9212 31.8392 67.8629L38.2218 105.618C37.9079 105.984 37.751 106.368 37.751 106.769C37.751 106.821 37.751 106.856 37.751 106.891C37.751 106.995 37.751 107.083 37.7858 107.17C37.7858 107.222 37.8381 107.292 37.8556 107.344C37.8556 107.362 37.8556 107.379 37.873 107.396C38.8322 110.326 46.139 111.913 46.9935 112.192V112.053L44.552 92.4514C43.9243 91.9632 43.3837 91.3005 43.0698 90.4809V90.5506Z" fill="#E3E4E5"/>
<path d="M88.3406 21.4062C88.3406 21.4062 88.515 21.5458 88.6022 21.6155C88.515 21.5458 88.4278 21.476 88.3406 21.4062Z" fill="#B7A59D"/>
<path d="M90.1194 28.8701C90.1194 28.8701 90.224 28.905 90.2763 28.9224C90.224 28.905 90.1717 28.8701 90.1194 28.8701Z" fill="#B7A59D"/>
<path d="M90.4157 28.2422C90.2239 28.4166 89.9972 28.5735 89.7356 28.7479C89.9972 28.591 90.2239 28.4166 90.4157 28.2422Z" fill="#B7A59D"/>
<path d="M90.5728 29.0444C90.5728 29.0444 90.7123 29.1142 90.7995 29.1316C90.7297 29.0968 90.6425 29.0619 90.5728 29.0444Z" fill="#B7A59D"/>
<path d="M89.8403 28.7654C89.8403 28.7654 89.8926 28.7828 89.9101 28.7828C89.8926 28.7828 89.8578 28.7654 89.8403 28.7654Z" fill="#B7A59D"/>
<path d="M89.7705 22.6619C89.7705 22.6619 89.8403 22.7491 89.8751 22.7839C89.8403 22.7491 89.8054 22.6967 89.7705 22.6619Z" fill="#B7A59D"/>
<path d="M89.0381 21.9817C89.0381 21.9817 89.1602 22.0863 89.2299 22.1386C89.1776 22.0863 89.1078 22.034 89.0381 21.9817Z" fill="#B7A59D"/>
<path d="M90.2764 23.2024C90.2764 23.2024 90.381 23.3245 90.4333 23.3942C90.381 23.3245 90.3287 23.2721 90.2764 23.2024Z" fill="#B7A59D"/>
<path d="M91.061 24.2837C91.061 24.2837 91.1482 24.4406 91.1831 24.5104C91.1482 24.4406 91.0959 24.3534 91.061 24.2837Z" fill="#B7A59D"/>
<path d="M91.3401 24.8418C91.3401 24.8418 91.4098 24.9813 91.4273 25.0685C91.4098 24.9987 91.375 24.929 91.3401 24.8418Z" fill="#B7A59D"/>
<path d="M91.5144 25.3823C91.5144 25.3823 91.5493 25.5218 91.5667 25.5916C91.5667 25.5218 91.5318 25.4521 91.5144 25.3823Z" fill="#B7A59D"/>
<path d="M90.7122 23.7432C90.7122 23.7432 90.8168 23.8827 90.8691 23.9699C90.8168 23.9001 90.7645 23.8304 90.7122 23.7432Z" fill="#B7A59D"/>
<path d="M91.3052 27.1785C91.2354 27.3005 91.1482 27.4226 91.061 27.5272C91.1482 27.4052 91.2354 27.3005 91.3052 27.1785Z" fill="#B7A59D"/>
<path d="M97.8098 36.4734C97.8098 36.4734 97.8447 36.6303 97.8621 36.7175C97.8621 36.6303 97.8273 36.5606 97.8098 36.4734Z" fill="#B7A59D"/>
<path d="M97.4785 35.2178C97.5308 35.3398 97.5831 35.4619 97.618 35.6014C97.5831 35.4619 97.5308 35.3573 97.4785 35.2178Z" fill="#B7A59D"/>
<path d="M97.0076 34.189C97.0773 34.311 97.1645 34.4505 97.2168 34.5726C97.1471 34.4331 97.0773 34.311 97.0076 34.189Z" fill="#B7A59D"/>
<path d="M37.9254 37.8859C44.6219 38.8101 53.2714 39.5251 62.2349 39.8739C68.3036 40.1006 74.0235 40.1878 79.011 40.1355C98.0191 30.9976 69.5941 23.5338 64.8856 18.7382C60.0725 13.8379 61.3281 4.50821 68.6524 2.72947C69.7336 2.46789 70.7973 2.5202 71.7565 2.76434C75.0001 3.6014 77.2845 6.70549 76.4475 7.94364C76.7439 7.78669 77.0229 7.40304 77.1276 6.67061V6.60086C77.8774 3.04336 72.8377 0.601947 69.9951 0.16598C67.8502 -0.165356 63.2464 -0.23511 59.2704 2.67715C53.9516 6.56598 51.0742 15.8608 32.3973 25.0684C27.4273 27.5098 26.2938 31.8172 26.7472 34.2586C26.8169 34.5376 26.9739 35.1306 27.2704 35.3573C27.7586 35.7409 29.7466 36.7524 37.9254 37.8859Z" fill="#B7A59D"/>
<path d="M70.1521 7.05448C70.1521 7.05448 70.1695 6.98472 70.187 6.96729C70.187 6.98472 70.1695 7.00216 70.1695 7.03704C70.1695 7.03704 70.1695 7.05448 70.1695 7.07192L70.1521 7.05448Z" fill="#B7A59D"/>
<path d="M72.9248 5.55469C73.0992 5.58956 73.3085 5.65932 73.5003 5.72907C73.3956 5.6942 73.291 5.64188 73.2038 5.62444C73.0992 5.607 73.012 5.57213 72.9248 5.55469Z" fill="#B7A59D"/>
<path d="M95.7346 32.4451C95.8393 32.5497 95.9439 32.6718 96.0485 32.7938C95.9439 32.6718 95.8393 32.5671 95.7346 32.4451Z" fill="#B7A59D"/>
<path d="M93.363 30.5093C93.4851 30.579 93.6072 30.6662 93.7292 30.7534C93.6072 30.6662 93.4851 30.5965 93.363 30.5093Z" fill="#B7A59D"/>
<path d="M91.8284 29.6375C91.933 29.6898 92.0376 29.7421 92.1423 29.8118C92.0376 29.7595 91.933 29.6898 91.8284 29.6375Z" fill="#B7A59D"/>
<path d="M96.4148 33.2646C96.502 33.3867 96.6066 33.5088 96.6938 33.6309C96.6066 33.5088 96.5194 33.3867 96.4148 33.2646Z" fill="#B7A59D"/>
<path d="M91.1482 29.3062C91.2354 29.341 91.34 29.3933 91.4272 29.4457C91.34 29.3933 91.2354 29.3585 91.1482 29.3062Z" fill="#B7A59D"/>
<path d="M76.9009 15.0762C76.9009 15.0762 76.9706 15.0936 76.9881 15.111C76.9532 15.111 76.9183 15.0762 76.9009 15.0762Z" fill="#B7A59D"/>
<path d="M79.8479 16.384C79.8479 16.384 80.0049 16.4538 80.0746 16.4887C80.0049 16.4538 79.9177 16.4189 79.8479 16.384Z" fill="#B7A59D"/>
<path d="M70.3265 6.60107C70.3265 6.60107 70.2916 6.65339 70.2742 6.68827C70.2742 6.65339 70.309 6.63595 70.3265 6.60107Z" fill="#B7A59D"/>
<path d="M70.1172 8.01318C70.1172 8.01318 70.1346 8.13525 70.1521 8.20501C70.1521 8.13525 70.1346 8.08294 70.1172 8.01318Z" fill="#B7A59D"/>
<path d="M81.2256 17.064C81.3128 17.1163 81.4174 17.1686 81.5046 17.2035C81.4 17.1512 81.3128 17.0988 81.2256 17.064Z" fill="#B7A59D"/>
<path d="M75.5407 7.78662C75.5407 7.78662 75.4535 7.64711 75.436 7.54248C75.436 7.62967 75.4884 7.71687 75.5407 7.78662Z" fill="#B7A59D"/>
<path d="M79.2026 16.0874C79.2026 16.0874 79.2724 16.1223 79.3073 16.1397C79.2724 16.1397 79.2375 16.1048 79.2026 16.0874Z" fill="#B7A59D"/>
<path d="M74.4942 6.25189C74.2501 6.06006 74.006 5.92055 73.7444 5.81592C73.9885 5.92055 74.2501 6.06006 74.4942 6.25189Z" fill="#B7A59D"/>
<path d="M77.1799 15.1982C77.1799 15.1982 77.2497 15.2331 77.2846 15.2506C77.2497 15.2506 77.2148 15.2157 77.1799 15.1982Z" fill="#B7A59D"/>
<path d="M77.4937 15.3203C77.4937 15.3203 77.6157 15.3726 77.668 15.4075C77.5983 15.3726 77.546 15.3552 77.4937 15.3203Z" fill="#B7A59D"/>
<path d="M70.2742 8.67627C70.2742 8.67627 70.309 8.81578 70.3439 8.88553C70.3265 8.81578 70.2916 8.74602 70.2742 8.67627Z" fill="#B7A59D"/>
<path d="M77.9473 15.5295C77.9473 15.5295 78.0519 15.5819 78.1042 15.5993C78.0519 15.5819 77.9996 15.547 77.9473 15.5295Z" fill="#B7A59D"/>
<path d="M78.4702 15.7561C78.4702 15.7561 78.5748 15.8084 78.6272 15.8259C78.5748 15.8084 78.5225 15.7735 78.4702 15.7561Z" fill="#B7A59D"/>
<path d="M83.5972 18.3196C83.5972 18.3196 83.7541 18.4068 83.8413 18.4591C83.7541 18.4068 83.6844 18.3719 83.5972 18.3196Z" fill="#B7A59D"/>
<path d="M85.4109 19.366C85.4109 19.366 85.5853 19.4706 85.6725 19.5229C85.5853 19.4706 85.4981 19.4183 85.4109 19.366Z" fill="#B7A59D"/>
<path d="M84.6262 18.895C84.6262 18.895 84.7134 18.9473 84.7483 18.9648C84.7134 18.9473 84.6611 18.9125 84.6262 18.895Z" fill="#B7A59D"/>
<path d="M75.872 8.01333C75.6279 7.94357 75.436 7.76918 75.436 7.54248C75.436 7.64711 75.4884 7.71687 75.5407 7.78662C75.6279 7.92613 75.7325 8.01332 75.872 8.06564C76.0987 8.11796 76.3428 8.06564 76.4126 7.97845C76.4126 7.97845 76.4126 7.97845 76.4126 7.96101C76.2208 8.06564 76.029 8.08308 75.8546 8.03076L75.872 8.01333Z" fill="white"/>
<path d="M71.7565 2.74706C70.7799 2.50292 69.7336 2.4506 68.6524 2.71218C61.3282 4.49093 60.09 13.8381 64.8857 18.7209C69.6116 23.534 98.0192 30.9803 79.011 40.1182C82.2372 40.0833 85.1494 39.9961 87.6606 39.8392C96.3625 39.316 97.6355 38.2522 97.8274 37.9558C97.8448 37.8511 97.8622 37.764 97.8797 37.6593C97.8797 37.328 97.8797 37.0141 97.8622 36.7002C97.8622 36.613 97.8274 36.5432 97.8099 36.4561C97.7576 36.1596 97.7053 35.8631 97.6355 35.5841C97.6007 35.4446 97.5483 35.34 97.496 35.2005C97.4088 34.9912 97.3391 34.7645 97.2344 34.5552C97.1647 34.4157 97.0949 34.2937 97.0252 34.1716C96.9205 33.9798 96.8159 33.8054 96.7113 33.631C96.6241 33.5089 96.5369 33.3868 96.4323 33.2648C96.3102 33.1078 96.1881 32.9334 96.0661 32.7939C95.9614 32.6719 95.8568 32.5672 95.7522 32.4452C95.6126 32.3056 95.4731 32.1661 95.3336 32.0266C95.2116 31.922 95.1069 31.8174 94.9849 31.7127C94.8453 31.5907 94.6884 31.4686 94.5489 31.3465C94.4268 31.2593 94.3047 31.1547 94.1827 31.0675C94.0257 30.9629 93.8862 30.8582 93.7293 30.7536C93.6072 30.6664 93.4851 30.5966 93.3631 30.5095C93.2061 30.4048 93.0666 30.3176 92.9271 30.2304C92.805 30.1607 92.7004 30.0909 92.5783 30.0212C92.4388 29.934 92.2819 29.8642 92.1423 29.777C92.0377 29.7247 91.9331 29.655 91.8284 29.6026C91.6889 29.5329 91.5669 29.4631 91.4274 29.4108C91.3402 29.3585 91.2355 29.3236 91.1483 29.2713C91.0263 29.219 90.9042 29.1667 90.7996 29.1144C90.7298 29.0795 90.6426 29.0446 90.5729 29.0272C90.4682 28.9748 90.381 28.94 90.2764 28.9051C90.2241 28.8877 90.1718 28.8528 90.1195 28.8528C90.0323 28.8179 89.9625 28.8005 89.8928 28.7656C89.8753 28.7656 89.8404 28.7481 89.823 28.7481C89.7532 28.7307 89.7184 28.7133 89.7184 28.7133C89.9799 28.5563 90.2066 28.3819 90.3985 28.2076C90.4508 28.1727 90.4857 28.1204 90.538 28.068C90.6775 27.946 90.817 27.8065 90.9216 27.6844C90.974 27.6321 91.0088 27.5623 91.0437 27.51C91.1309 27.3879 91.2181 27.2833 91.2878 27.1612C91.3227 27.0915 91.3402 27.0217 91.375 26.952C91.4274 26.8299 91.4797 26.7253 91.5146 26.6032C91.5494 26.4288 91.5843 26.2719 91.5843 26.0975C91.5843 26.0452 91.5843 25.9928 91.5843 25.9405C91.5843 25.8184 91.5843 25.6964 91.5494 25.5569C91.5494 25.4871 91.5146 25.4174 91.4971 25.3476C91.4797 25.243 91.4448 25.1209 91.4099 25.0163C91.3925 24.9465 91.3576 24.8768 91.3227 24.7896C91.2704 24.6849 91.2355 24.5803 91.1658 24.4582C91.1309 24.3885 91.0786 24.3013 91.0437 24.2315C90.974 24.1269 90.9042 24.0223 90.8344 23.9002C90.7821 23.8304 90.7298 23.7607 90.6775 23.6735C90.5903 23.5514 90.5031 23.4468 90.3985 23.3247C90.3462 23.255 90.2938 23.2026 90.2415 23.1329C90.1195 22.9934 89.9799 22.8539 89.8579 22.7144C89.823 22.6795 89.7881 22.6272 89.7532 22.5923C89.5789 22.4179 89.387 22.2435 89.1952 22.0517C89.1429 21.9994 89.0731 21.9471 89.0034 21.8947C88.8639 21.7727 88.7244 21.6506 88.5674 21.5285C88.4802 21.4588 88.393 21.389 88.3058 21.3193C88.1663 21.2146 88.0268 21.11 87.8873 21.0054C87.8001 20.9356 87.6955 20.8659 87.6083 20.7961C87.4688 20.6915 87.3293 20.5868 87.1723 20.4822C87.0677 20.4125 86.9805 20.3427 86.8759 20.2729C86.7189 20.1683 86.5794 20.0637 86.4225 19.959C86.3178 19.8893 86.2306 19.837 86.126 19.7672C85.9516 19.6626 85.7947 19.558 85.6203 19.4533C85.5331 19.401 85.4459 19.3487 85.3587 19.2964C85.1494 19.1569 84.9227 19.0348 84.7135 18.8953C84.6786 18.8778 84.6263 18.843 84.5914 18.8255C84.3298 18.6686 84.0682 18.5291 83.8067 18.3721C83.7195 18.3198 83.6497 18.2849 83.5625 18.2326C83.3881 18.128 83.1963 18.0408 83.0219 17.9362C82.9173 17.8838 82.8126 17.8315 82.708 17.7792C82.5511 17.692 82.3941 17.6223 82.2372 17.5351C82.1325 17.4828 82.0279 17.4304 81.9233 17.3781C81.7663 17.2909 81.6094 17.2212 81.4699 17.1514C81.3652 17.0991 81.278 17.0468 81.1908 17.0119C81.0339 16.9422 80.8944 16.8724 80.7549 16.7852C80.6677 16.7329 80.5631 16.698 80.4759 16.6457C80.3189 16.5759 80.1794 16.5062 80.0399 16.4364C79.9701 16.4016 79.8829 16.3667 79.8132 16.3318C79.6214 16.2446 79.447 16.1574 79.2726 16.0877C79.2377 16.0877 79.2028 16.0528 79.168 16.0353C78.9761 15.9481 78.7843 15.861 78.5925 15.7738C78.5402 15.7563 78.4878 15.7214 78.4355 15.704C78.3135 15.6517 78.174 15.5819 78.0693 15.5471C78.017 15.5296 77.9647 15.4947 77.9124 15.4773C77.8252 15.4424 77.7205 15.3901 77.6334 15.3552C77.5636 15.3204 77.5113 15.3029 77.459 15.268C77.3892 15.2332 77.3195 15.2157 77.2497 15.1808C77.2148 15.1808 77.1799 15.146 77.1451 15.1285C77.0753 15.0937 77.023 15.0762 76.9707 15.0588C76.9358 15.0588 76.9009 15.0239 76.8835 15.0239C76.8312 15.0065 76.7789 14.989 76.744 14.9716C76.7091 14.9716 76.6917 14.9541 76.6917 14.9541H76.6742C76.2383 14.6926 75.8197 14.4659 75.4012 14.2217C74.1107 13.437 72.1925 12.0593 71.0764 10.3678C71.0241 10.298 70.9892 10.2283 70.9369 10.1585C70.8323 10.0016 70.7451 9.84461 70.6753 9.67022V9.63534C70.5184 9.35632 70.4137 9.09474 70.3265 8.8506C70.3091 8.78085 70.2742 8.71109 70.2568 8.64134C70.2045 8.46695 70.1696 8.31 70.1347 8.17049C70.1347 8.10074 70.1173 8.04842 70.0998 7.97867C70.0824 7.82172 70.065 7.66477 70.065 7.52526C70.065 7.50782 70.065 7.47294 70.065 7.43807C70.065 7.28112 70.0998 7.14161 70.1173 7.0021C70.1173 7.0021 70.1173 6.98466 70.1173 6.96722C70.1173 6.94978 70.1347 6.93234 70.1347 6.89747C70.1696 6.79284 70.2045 6.70564 70.2393 6.61845C70.2393 6.58357 70.2742 6.56613 70.2917 6.53125C70.344 6.44406 70.3963 6.35687 70.4661 6.28711C70.623 6.16504 70.7625 6.07785 70.902 5.97322C71.8263 5.45006 72.5413 5.43262 72.89 5.48493C72.9772 5.48493 73.0819 5.51981 73.1691 5.55469C73.2737 5.57213 73.3609 5.62444 73.4655 5.65932C73.5527 5.6942 73.6225 5.71164 73.7096 5.74651C73.9538 5.85115 74.2154 5.99066 74.4595 6.18248L74.5641 6.30455C74.7211 6.47894 74.8955 6.65333 75.0176 6.82771C75.0524 6.88003 75.1047 6.93234 75.1396 6.98466C75.1745 7.03698 75.2094 7.10673 75.2443 7.15905C75.2966 7.26368 75.3314 7.36831 75.3663 7.49038C75.3663 7.69965 75.5581 7.89147 75.8023 7.96123C75.9767 8.01354 76.1685 7.9961 76.3603 7.89147C77.1974 6.65333 74.9129 3.54924 71.6693 2.71218L71.7565 2.74706Z" fill="#D0C4BE"/>
<path d="M87.2071 66.1017C86.8932 66.0668 86.5967 66.311 86.5793 66.6423C86.5619 66.9562 86.7886 67.2527 87.1199 67.2701C87.8175 67.3224 88.5324 67.3573 89.23 67.3747C90.6076 67.4096 91.9853 67.305 93.3281 67.026C94.1826 66.8516 95.0196 66.6249 95.8393 66.2412C99.2572 64.6892 101.542 61.3933 103.39 58.7426C103.547 58.5159 103.756 58.202 103.966 57.8532C104.21 57.923 104.454 57.9753 104.733 57.9927C106.337 58.1322 107.715 57.4521 107.785 56.4581C107.872 55.4641 106.634 54.5573 105.029 54.4178C103.425 54.2783 102.047 54.9584 101.978 55.9524C101.925 56.493 102.292 57.0162 102.884 57.3998C102.745 57.6265 102.605 57.8532 102.431 58.0799C100.67 60.6085 98.4725 63.7649 95.351 65.1949C94.7755 65.4565 94.1651 65.6657 93.5373 65.8053C91.497 66.311 89.2997 66.2587 87.1897 66.1017H87.2071Z" fill="#211E1F"/>
<path d="M70.4309 57.33C70.1171 57.2777 69.8206 57.5044 69.7683 57.8183C69.7683 57.8706 69.6636 58.4112 69.3498 59.0565C69.2102 58.7949 69.0707 58.5333 68.9312 58.2717C68.8092 58.0276 68.4429 57.9404 68.2162 58.0799C67.9721 58.2368 67.9023 58.5333 68.0244 58.7949C68.2511 59.2134 68.4604 59.6319 68.6871 60.0505C68.2162 60.6259 67.5361 61.1665 66.5944 61.5328C66.4898 60.9398 66.3852 60.3469 66.2457 59.7715C66.0887 59.1262 65.0773 59.4052 65.2517 60.0505C65.4086 60.6259 65.5132 61.2189 65.6004 61.8118C65.0773 61.9164 64.5018 61.9687 63.8566 61.9513C63.4206 61.9513 63.0195 61.899 62.6359 61.8292C62.6707 61.2537 62.6707 60.6783 62.6359 60.1028C62.601 59.8238 62.4092 59.5971 62.1127 59.5971C61.8511 59.5971 61.5721 59.8412 61.607 60.1202C61.6593 60.6085 61.6593 61.0968 61.6418 61.6025C60.5781 61.2712 59.8457 60.748 59.3225 60.19C59.5492 59.754 59.7933 59.3006 60.0549 58.8821C60.1944 58.6379 60.1072 58.3066 59.8631 58.1671C59.619 58.0276 59.3051 58.1148 59.1481 58.3589C58.9737 58.6554 58.8168 58.9518 58.6424 59.2483C58.2413 58.5159 58.1541 57.9055 58.1367 57.8532C58.1018 57.5393 57.8053 57.3126 57.4914 57.3475C57.1775 57.3824 56.9508 57.6788 56.9857 57.9927C56.9857 58.0101 57.1601 59.196 58.032 60.4341C57.8228 60.8875 57.5961 61.3409 57.4391 61.8118C57.3345 62.0734 57.5612 62.3698 57.8053 62.4396C58.1018 62.5093 58.3459 62.3349 58.4331 62.0734C58.4506 62.0036 58.4854 61.9513 58.5029 61.8815L58.5378 61.7943C58.5901 61.6548 58.6598 61.5153 58.7296 61.3758C58.7296 61.3409 58.7645 61.3061 58.7819 61.2712C59.4271 61.8815 60.3165 62.4396 61.5023 62.7709C61.4326 63.2243 61.328 63.6777 61.1884 64.1137C61.1012 64.3753 61.2931 64.6717 61.5547 64.7415C61.8337 64.8112 62.0953 64.6368 62.1824 64.3753C62.322 63.9219 62.4266 63.4685 62.5138 62.9976C62.9323 63.0674 63.3683 63.1022 63.8391 63.1197C64.5367 63.1197 65.1645 63.0674 65.7399 62.9627C65.7748 63.3813 65.8271 63.7824 65.8446 64.2009C65.862 64.8636 66.9083 64.8461 66.8735 64.2009C66.8735 63.6952 66.7863 63.2069 66.7339 62.7186C67.8326 62.3524 68.6522 61.7595 69.2451 61.1317C69.3323 61.3061 69.4195 61.463 69.5067 61.6374C69.6288 61.8815 69.995 61.9687 70.2217 61.8292C70.4658 61.6723 70.5356 61.3758 70.4135 61.1142C70.2566 60.8178 70.1171 60.5388 69.9601 60.2423C70.7274 59.0739 70.9018 58.0101 70.9192 57.9927C70.9715 57.6788 70.7448 57.3823 70.4309 57.33Z" fill="#211E1F"/>
<path d="M37.8207 66.1365C38.1346 66.0842 38.3439 65.7703 38.2916 65.4564C38.2392 65.1425 37.9253 64.9332 37.6114 64.9856C35.5886 65.3343 33.5134 65.8226 31.6474 66.7294C31.5079 66.7992 31.351 66.8515 31.2114 66.9212C30.5837 67.2526 29.9907 67.6362 29.4153 68.0896C26.4856 70.4264 25.073 74.1932 23.9221 77.2101C23.8174 77.4717 23.6954 77.8204 23.5907 78.2215C23.3466 78.2215 23.085 78.2215 22.8234 78.2738C21.2365 78.5354 20.0681 79.5294 20.2251 80.506C20.382 81.4826 21.7946 82.0755 23.3815 81.8139C24.9684 81.5523 26.1368 80.5583 25.9798 79.5817C25.8926 79.0411 25.4218 78.64 24.7591 78.4133C24.8289 78.1518 24.9335 77.8902 25.0207 77.646C26.1717 74.6117 27.4621 71.1589 30.1477 69.0313C30.6883 68.6128 31.2463 68.2466 31.8567 67.9327C33.6877 66.991 35.7804 66.5202 37.8207 66.1714V66.1365Z" fill="#211E1F"/>
<path d="M61.956 52.3948C61.8513 53.2318 61.7293 54.0689 61.5723 54.8885C61.52 55.2373 61.6769 55.6209 62.0432 55.6907C62.3745 55.7604 62.793 55.5861 62.8453 55.2198C62.9848 54.3828 63.1244 53.5632 63.229 52.7261C63.2464 52.5517 63.2639 52.3948 63.1592 52.2204C63.072 52.0809 62.9151 51.9414 62.7581 51.9065C62.5838 51.8716 62.4094 51.889 62.2524 51.9762C62.1129 52.0634 61.9734 52.2204 61.9385 52.3773L61.956 52.3948Z" fill="#211E1F"/>
<path d="M64.2752 52.5345C63.9438 52.6391 63.6997 53.0053 63.8217 53.3541C63.9438 53.7203 64.031 54.1039 64.0833 54.505C64.1008 54.6794 64.1182 54.8538 64.1356 55.0456C64.1356 55.22 64.2054 55.377 64.3275 55.499C64.4495 55.6211 64.6414 55.7083 64.7983 55.6909C65.1471 55.6734 65.4784 55.3944 65.461 55.0107C65.4261 54.3306 65.304 53.6505 65.0948 52.9879C65.0425 52.8309 64.9378 52.674 64.7809 52.5868C64.6414 52.4996 64.4321 52.4647 64.2752 52.517V52.5345Z" fill="#211E1F"/>
<path d="M57.0557 48.8024H57.0382C57.1777 47.8258 57.0382 46.6574 56.3581 45.9773C55.6954 45.2972 54.7712 44.9485 53.8469 44.7218C52.539 44.4079 51.1963 44.2858 49.8535 44.3904C49.2954 44.4253 48.7025 44.5299 48.2317 44.8438C47.848 45.1054 47.5865 45.4891 47.3597 45.8901C45.8775 48.4013 45.5287 51.6624 46.8017 54.2956C47.0459 54.7839 47.3249 55.2373 47.7434 55.5861C48.005 55.8128 48.3189 55.9871 48.6328 56.1267C50.4115 56.9288 52.6262 56.7021 54.2132 55.5337C56.2535 54.034 57.0208 51.3136 57.0731 48.785L57.0557 48.8024ZM53.2017 53.2493C52.2077 53.2493 51.4055 51.9588 51.3881 50.3545C51.3881 48.7501 52.1554 47.4422 53.1494 47.4248C54.1434 47.4248 54.9456 48.7152 54.963 50.3196C54.963 51.9239 54.1957 53.2318 53.2017 53.2493Z" fill="#211E1F"/>
<path d="M76.5694 56.9289C76.9007 56.8243 77.232 56.7022 77.5111 56.5104C77.9645 56.2139 78.3132 55.7954 78.6097 55.3594C80.2315 52.9355 80.3361 49.657 79.2026 46.954C79.0282 46.5355 78.819 46.1169 78.4702 45.803C78.0517 45.4194 77.4936 45.2624 76.9356 45.1404C75.6277 44.8614 74.2675 44.7916 72.9421 44.9137C72.0004 45.0183 71.0239 45.2276 70.274 45.803C69.5241 46.3785 69.2102 47.5295 69.2102 48.5235H69.1928C68.8964 51.0172 69.2974 53.8074 71.1111 55.5687C72.5236 56.9289 74.6686 57.4695 76.5519 56.9115L76.5694 56.9289ZM72.5062 47.9829C73.5002 47.9829 74.3023 49.2733 74.3198 50.8777C74.3198 52.4821 73.5525 53.79 72.5585 53.8074C71.5645 53.8074 70.7623 52.5169 70.7449 50.9126C70.7449 49.3082 71.5122 48.0003 72.5062 47.9829Z" fill="#211E1F"/>
<path d="M72.5585 53.7899C73.5525 53.7899 74.3373 52.4645 74.3198 50.8602C74.3198 49.2558 73.4828 47.9653 72.5062 47.9653C71.5122 47.9653 70.7275 49.2907 70.7449 50.895C70.7449 52.4994 71.5645 53.7899 72.5585 53.7899Z" fill="white"/>
<path d="M53.1493 47.4248C52.1553 47.4248 51.3705 48.7501 51.388 50.3545C51.388 51.9589 52.2076 53.2493 53.2016 53.2493C54.1956 53.2493 54.9804 51.924 54.9629 50.3196C54.9629 48.7153 54.1259 47.4248 53.1493 47.4248Z" fill="white"/>
<path d="M61.3979 73.1295C61.7816 72.9028 62.1304 72.6412 62.4617 72.3448C62.9151 73.0772 63.7522 73.5655 64.6764 73.5306C65.6355 73.4957 66.4552 72.9028 66.8388 72.0832C67.205 72.3448 67.5887 72.5889 68.0072 72.7807C69.071 73.2865 70.2219 73.548 71.3729 73.7747C71.8786 73.8794 72.4192 73.9666 72.9249 73.8619C73.4306 73.7573 73.9364 73.4085 74.0584 72.9028C74.1805 72.4145 73.9364 71.9262 73.7097 71.4903C73.5178 71.1066 73.326 70.7404 73.1342 70.3742C73.0295 70.1824 72.9424 69.9731 72.9598 69.7638C72.9947 69.5546 73.1516 69.3976 73.2737 69.2232C74.1107 68.1769 74.3374 66.6772 73.8143 65.439C73.7445 65.2647 73.6399 65.0903 73.4655 65.038C73.326 65.0031 73.1865 65.0554 73.047 65.1251C72.5064 65.3867 72.0007 65.7181 71.4949 66.0494C69.8906 67.1306 68.2862 68.2118 66.6819 69.293C66.211 68.5606 65.4088 68.0897 64.4846 68.1246C63.5429 68.1595 62.7582 68.7175 62.3571 69.5023C60.6655 68.5954 58.9914 67.6886 57.2998 66.7644C56.7592 66.4679 56.2361 66.1889 55.6606 65.9796C55.5211 65.9273 55.3816 65.8925 55.2421 65.9448C55.0677 66.0145 54.9805 66.2064 54.9282 66.3807C54.5271 67.6538 54.8933 69.136 55.835 70.0952C55.9745 70.2521 56.1489 70.3916 56.2012 70.6009C56.2535 70.8102 56.1663 71.0194 56.0966 71.2113C55.9396 71.5949 55.7827 71.996 55.6257 72.3796C55.4339 72.8331 55.2595 73.3562 55.4165 73.8271C55.5909 74.3153 56.114 74.6118 56.6372 74.6816C57.1603 74.7513 57.6661 74.5944 58.1718 74.4374C59.2879 74.1061 60.4214 73.7224 61.4154 73.1295H61.3979Z" fill="#5D3794"/>
<path d="M40.8724 79.7387C40.2272 80.6107 40.1923 81.8837 40.6283 82.8951C41.0468 83.9066 41.8839 84.6739 42.8081 85.197C43.0872 85.354 43.4011 85.4586 43.6975 85.5807C44.3776 85.8597 45.0577 86.069 45.7553 86.2608C46.9934 86.5747 48.249 86.8537 49.522 87.1153C49.9754 87.2025 50.4463 87.2897 50.8997 87.3594C50.8997 87.3594 56.4278 88.2314 57.073 85.9992C57.3171 85.3714 56.9858 84.639 56.4626 84.2554C55.9395 83.8717 55.2942 83.7671 54.6664 83.6624C50.8299 83.0521 46.9411 82.4592 43.3487 80.9071C43.2615 80.8722 43.1744 80.8199 43.1046 80.7851C42.3722 80.4537 41.6572 80.1049 40.9596 79.7039L40.8899 79.7736L40.8724 79.7387Z" fill="#211E1F"/>
<path d="M43.2964 87.377C42.7209 88.2664 42.686 89.5219 43.0697 90.5334C43.3836 91.353 43.9242 91.9982 44.552 92.504C44.6915 92.626 44.8484 92.7307 45.0054 92.8353C45.825 93.341 46.7318 93.6375 47.6386 93.8816C48.7547 94.1955 49.8708 94.4745 50.9869 94.7187C51.4228 94.8059 51.8414 94.8931 52.2773 94.9628C52.2773 94.9628 57.6484 95.9568 57.788 93.2713C57.8403 92.7307 57.5613 92.1552 57.1776 91.8239C56.7068 91.4402 56.1313 91.3356 55.5732 91.2309C52.1553 90.638 48.7024 90.0451 45.5111 88.4931C44.988 88.2315 44.4648 87.935 43.9591 87.6211C43.7672 87.4991 43.558 87.4119 43.3836 87.2898L43.3138 87.3596L43.2964 87.377Z" fill="#211E1F"/>
<path d="M39.5646 72.3274L39.4948 72.3971C38.8147 73.2691 38.7798 74.5421 39.2332 75.5535C39.6866 76.565 40.576 77.3323 41.5526 77.8555C41.9362 78.0647 42.3548 78.2042 42.7733 78.3612C43.4011 78.5879 44.0463 78.7623 44.6915 78.9192C46.0169 79.2331 47.3597 79.5296 48.7024 79.7737C49.7662 79.9655 50.83 80.1574 51.9112 80.1225C51.9112 80.1225 55.6779 80.2446 56.6196 78.8843C56.6196 78.8843 56.6894 78.7448 56.7242 78.6925V78.6576C56.7242 78.6576 56.794 78.5181 56.8114 78.4484C56.9161 77.8555 56.5673 77.2451 56.079 76.8963C55.521 76.5127 54.8234 76.408 54.1608 76.3034C50.0975 75.6931 45.982 75.0827 42.1629 73.5481C42.1455 73.5481 42.1281 73.5481 42.1106 73.5307C41.2387 73.1819 40.3842 72.7634 39.5471 72.3274H39.5646Z" fill="#211E1F"/>
<path d="M85.0797 80.9595C84.2775 81.3431 83.4404 81.6919 82.6034 81.9884C78.9064 83.2788 74.9827 83.5927 71.1113 83.9066C70.4835 83.9589 69.8208 84.0112 69.2802 84.36C68.7396 84.7088 68.3385 85.4238 68.5304 86.069C69.0012 88.3535 74.5816 87.8826 74.5816 87.8826C75.0524 87.8478 75.5058 87.7954 75.9767 87.7431C77.2497 87.5862 78.5227 87.3944 79.7958 87.1676C80.8246 86.9933 81.871 86.784 82.8127 86.3306C83.7718 85.8772 84.6612 85.1796 85.1494 84.2031C85.6552 83.2265 85.7075 81.9535 85.1494 81.0292L85.0797 80.9595Z" fill="#211E1F"/>
<path d="M82.0976 88.4231C81.3827 88.8242 80.6328 89.173 79.8829 89.4694C76.587 90.7773 73.0993 91.1087 69.6464 91.4574C69.0884 91.5097 68.4955 91.5795 68.0072 91.9283C67.5887 92.2247 67.2748 92.7828 67.2922 93.3234C67.2399 95.9915 72.6633 95.416 72.6633 95.416C73.0993 95.3811 73.5352 95.3288 73.9712 95.2591C75.1047 95.1021 76.2382 94.8928 77.3718 94.6661C78.296 94.4743 79.2203 94.2651 80.0748 93.8117C80.9293 93.3582 81.714 92.6433 82.1674 91.6667C82.6208 90.6901 82.6731 89.4171 82.1674 88.4929L82.1151 88.4231H82.0976Z" fill="#211E1F"/>
<path d="M72.1052 76.6347C71.4251 76.687 70.7276 76.7393 70.1521 77.0881C69.6464 77.3845 69.2453 77.9775 69.315 78.5529V78.5704C69.315 78.6401 69.3325 78.7099 69.3674 78.7796V78.8145C69.3674 78.8145 69.4371 78.954 69.472 79.0063C70.309 80.4537 74.0758 80.5933 74.0758 80.5933C75.157 80.6979 76.2382 80.5933 77.302 80.4712C78.6622 80.3142 80.0224 80.1398 81.3652 79.9131C82.4638 79.7388 83.5624 79.5295 84.5913 79.0935C85.6028 78.6576 86.5445 77.9426 87.0851 76.966C87.6082 75.9894 87.678 74.7164 87.0676 73.7922L86.9979 73.7224C86.1434 74.1061 85.254 74.4548 84.3646 74.7339C80.4235 76.0069 76.2556 76.3033 72.1401 76.6172L72.1052 76.6347Z" fill="#211E1F"/>
<g opacity="0.3" style="mix-blend-mode:multiply">
<path d="M81.1211 118.819C81.3129 119.429 81.4698 120.092 81.557 120.807C81.7837 120.667 82.0104 120.545 82.272 120.441C83.7717 119.865 85.2889 120.144 85.6377 121.068C85.9865 121.993 85.0622 123.213 83.5625 123.789C82.0628 124.364 80.563 124.085 80.1968 123.161C80.0399 122.725 80.1619 122.237 80.4758 121.783C80.4061 120.65 80.1619 119.638 79.8132 118.714C76.0638 118.418 71.8611 118.226 67.4317 118.226C61.0143 118.226 55.12 118.592 50.3418 119.185C50.3767 119.656 50.4464 120.144 50.5162 120.667C50.9521 120.981 51.2137 121.4 51.2137 121.836C51.2137 122.83 49.8884 123.614 48.2666 123.58C46.6622 123.562 45.3717 122.725 45.3892 121.748C45.3892 120.754 46.7145 119.97 48.3363 120.005C48.6677 120.005 48.9816 120.057 49.278 120.127C49.2431 119.865 49.2083 119.586 49.1908 119.324C42.7734 120.214 38.6753 121.574 38.6753 123.109C38.6753 125.812 51.5625 127.991 67.4491 127.991C83.3358 127.991 96.223 125.812 96.223 123.109C96.223 121.26 90.1194 119.638 81.1385 118.801L81.1211 118.819Z" fill="#4D4D4F"/>
</g>
<path d="M80.4757 121.783C80.1618 122.237 80.0397 122.742 80.1966 123.161C80.5454 124.085 82.0626 124.364 83.5623 123.789C85.062 123.213 86.0037 121.993 85.6375 121.068C85.2887 120.144 83.7716 119.865 82.2718 120.441C82.0103 120.545 81.7661 120.667 81.5569 120.807C81.4522 120.092 81.3127 119.429 81.1209 118.819C80.7024 118.784 80.249 118.749 79.813 118.714C80.1618 119.638 80.4059 120.65 80.4757 121.783Z" fill="#211E1F"/>
<g opacity="0.3" style="mix-blend-mode:multiply">
<path d="M80.4757 121.783C80.1618 122.237 80.0397 122.742 80.1966 123.161C80.5454 124.085 82.0626 124.364 83.5623 123.789C85.062 123.213 86.0037 121.993 85.6375 121.068C85.2887 120.144 83.7716 119.865 82.2718 120.441C82.0103 120.545 81.7661 120.667 81.5569 120.807C81.4522 120.092 81.3127 119.429 81.1209 118.819C80.7024 118.784 80.249 118.749 79.813 118.714C80.1618 119.638 80.4059 120.65 80.4757 121.783Z" fill="#4D4D4F"/>
</g>
<path d="M48.3187 120.022C46.7144 120.005 45.389 120.772 45.3716 121.766C45.3716 122.76 46.6446 123.58 48.249 123.597C49.8533 123.614 51.1787 122.847 51.1961 121.853C51.1961 121.4 50.9345 120.999 50.4986 120.685C50.4288 120.162 50.359 119.656 50.3242 119.202C49.9405 119.255 49.5394 119.29 49.1558 119.342C49.1732 119.586 49.2255 119.883 49.243 120.144C48.9465 120.074 48.6326 120.022 48.3013 120.022H48.3187Z" fill="#211E1F"/>
<g opacity="0.3" style="mix-blend-mode:multiply">
<path d="M48.3187 120.022C46.7144 120.005 45.389 120.772 45.3716 121.766C45.3716 122.76 46.6446 123.58 48.249 123.597C49.8533 123.614 51.1787 122.847 51.1961 121.853C51.1961 121.4 50.9345 120.999 50.4986 120.685C50.4288 120.162 50.359 119.656 50.3242 119.202C49.9405 119.255 49.5394 119.29 49.1558 119.342C49.1732 119.586 49.2255 119.883 49.243 120.144C48.9465 120.074 48.6326 120.022 48.3013 120.022H48.3187Z" fill="#4D4D4F"/>
</g>
</svg>
