<svg width="128" height="128" viewBox="0 0 128 128" fill="none" xmlns="http://www.w3.org/2000/svg">
<g clip-path="url(#clip0_336_117)">
<g opacity="0.3" style="mix-blend-mode:multiply">
<path d="M75.0976 118.232C75.1335 118.393 75.1874 118.573 75.2233 118.735C75.6723 118.896 75.9955 119.184 76.1212 119.561C76.4085 120.459 75.4568 121.554 73.9843 122.021C72.5118 122.488 71.1111 122.129 70.8238 121.231C70.5365 120.333 71.4882 119.237 72.9607 118.771C73.3198 118.663 73.679 118.591 74.0202 118.573C73.9843 118.447 73.9483 118.322 73.9304 118.214C70.6981 118.16 67.3939 118.142 64.0179 118.142C61.8092 118.142 59.6184 118.142 57.4635 118.178C57.7508 118.34 57.9663 118.573 58.0561 118.86C58.3434 119.758 57.3917 120.854 55.9192 121.321C54.4467 121.787 53.046 121.428 52.7587 120.53C52.5073 119.704 53.2794 118.735 54.5185 118.214C27.0438 118.591 6.08752 120.62 6.08752 123.08C6.08752 125.81 32.0179 128.001 64 128.001C95.982 128.001 121.912 125.792 121.912 123.08C121.912 120.674 101.764 118.681 75.0797 118.25L75.0976 118.232Z" fill="#4D4D4F"/>
</g>
<path d="M73.9304 118.214C73.9663 118.339 73.9843 118.465 74.0202 118.573C73.679 118.591 73.3198 118.663 72.9607 118.77C71.5062 119.237 70.5544 120.333 70.8238 121.231C71.1111 122.128 72.5297 122.488 73.9843 122.021C75.4388 121.554 76.3906 120.458 76.1212 119.56C75.9955 119.183 75.6723 118.896 75.2233 118.734C75.1695 118.555 75.1335 118.393 75.0976 118.232C74.0022 113.706 74.954 109.72 75.2413 108.696C74.8462 108.732 74.4512 108.768 74.0381 108.786C73.661 110.277 72.9607 113.958 73.9304 118.214Z" fill="#231F20"/>
<path d="M52.7767 120.53C53.064 121.428 54.4826 121.787 55.9372 121.32C57.3917 120.853 58.3435 119.758 58.0741 118.86C57.9843 118.573 57.7688 118.339 57.4815 118.178C57.3917 118.124 57.3019 118.088 57.1942 118.052C56.3143 114.245 56.8889 109.953 57.1583 108.337C56.7812 108.283 56.4041 108.247 56.0449 108.193C55.7576 109.863 55.2189 113.994 56.009 117.872C55.6678 117.872 55.2907 117.944 54.9316 118.07C54.8059 118.106 54.6802 118.16 54.5545 118.214C53.3154 118.734 52.5253 119.722 52.7946 120.53H52.7767Z" fill="#231F20"/>
<path d="M29.0011 35.197C30.312 36.2744 34.532 37.1005 39.9192 37.729C46.9944 38.5371 56.0449 38.986 63.0842 39.1117C64.9518 39.1476 67.2503 39.1656 69.7823 39.1656C80.1078 39.1656 94.1504 38.7346 97.4366 36.472L97.3648 36.9748C97.6341 36.7593 97.7958 36.5259 97.8137 36.2565V36.2206C97.8137 36.2206 97.8137 36.1487 97.8137 36.1308C98.0113 35.9153 98.137 35.6998 98.1549 35.4484H97.5264V35.4305C97.4007 35.2868 97.2032 35.1611 96.9877 35.0174C96.9877 35.2329 96.9877 35.4484 96.9877 35.6639C96.9697 36.023 96.9159 36.3822 96.844 36.7773C96.844 36.7773 96.4669 36.9927 90.972 37.711C89.7329 37.8727 93.3423 37.711 85.5129 38.142C74.6847 38.7526 78.0427 38.4832 78.0427 38.4832C78.4198 38.3036 78.761 38.1241 79.1022 37.9445C74.6487 38.0881 69.3693 38.1241 63.156 38.0343C43.3311 37.6931 30.2761 35.628 29.6476 34.2991C29.6476 34.3171 29.6476 34.371 29.6476 34.3889H29.5937C29.5219 34.2453 29.468 34.1016 29.4142 33.9579C29.3244 34.0118 29.2346 34.0657 29.1448 34.1196L28.6959 33.8682C28.5702 34.1016 28.5702 34.3351 28.642 34.5685C28.5163 34.7301 28.4445 34.9097 28.4265 35.0893H28.4624C28.4624 35.2868 28.4804 35.5382 28.7318 35.8255C28.8395 35.9512 29.0191 36.0769 29.2346 36.2026L29.055 35.2329V35.197H29.0011Z" fill="white"/>
<path d="M33.7418 65.6884C30.7968 64.2698 28.7856 61.235 27.1515 58.7748C26.8821 58.3797 26.6486 57.9667 26.4691 57.5537C27.0257 56.9252 27.2592 56.1889 26.9719 55.6502C26.5409 54.8242 25.0864 54.7164 23.7216 55.4347C22.3568 56.153 21.6206 57.41 22.0516 58.2361C22.4825 59.0621 23.9371 59.1699 25.3018 58.4516C25.3916 58.3977 25.4814 58.3438 25.5532 58.29C25.7328 58.6671 25.9663 59.0442 26.1997 59.3854C27.9057 61.9533 30.0067 65.1317 33.239 66.676C33.8495 66.9813 34.496 67.1788 35.1425 67.3584L34.909 66.1194C34.514 65.9937 34.1189 65.85 33.7238 65.6525L33.7418 65.6884Z" fill="#231F20"/>
<path d="M64.4848 108.93C67.8967 109.073 71.1291 109.002 74.0381 108.804C74.4332 108.768 74.8462 108.75 75.2413 108.714C82.6218 108.05 87.6498 106.326 87.5959 104.117C87.5959 103.686 87.3805 103.273 87.0213 102.86L97.239 37.9803L97.3827 37.0106L97.4545 36.5078C94.1683 38.7704 80.1257 39.2014 69.8002 39.2014C67.2682 39.2014 64.9697 39.1835 63.1021 39.1475C56.0628 39.0218 47.0123 38.5909 39.9371 37.7648L50.083 107.152C51.8788 107.583 53.89 107.942 56.0449 108.229C56.422 108.283 56.7811 108.337 57.1582 108.373C59.4747 108.66 61.9349 108.858 64.5028 108.966L64.4848 108.93ZM68.7407 61.271C67.9147 62.3664 66.6756 63.0847 65.275 63.3361C64.9517 63.39 64.6285 63.4259 64.3053 63.4259C61.7912 63.4259 59.5825 61.7379 59.1695 59.3316C59.1515 59.1879 59.1695 59.0263 59.2592 58.9186C59.349 58.8108 59.4747 58.7211 59.6184 58.6851L69.046 57.069C69.3692 57.0151 69.6386 57.2306 69.6925 57.5179C69.9259 58.8468 69.5847 60.1756 68.7407 61.271ZM72.6375 53.8546C71.7037 53.9624 70.8238 52.7951 70.6622 51.2867C70.5005 49.7603 71.1291 48.4495 72.0628 48.3597C72.9966 48.2699 73.8765 49.4012 74.0381 50.9276C74.1998 52.4539 73.5713 53.7648 72.6375 53.8546ZM90.6667 76.2115C90.1998 77.702 89.1223 78.7615 87.4702 79.372L81.5623 81.2575C81.5623 81.2575 81.5623 81.3473 81.5264 81.3832C81.1493 82.2452 79.7127 82.4427 78.294 81.8322C76.8934 81.2216 76.0673 80.0185 76.4444 79.1565C76.8215 78.2946 78.2581 78.097 79.6768 78.7076C80.4669 79.0488 81.0595 79.5875 81.3827 80.1262L87.1111 78.2946C88.404 77.8097 89.2301 77.0196 89.5892 75.8524C90.7924 72.0634 86.6442 65.9579 86.6083 65.886C86.4287 65.6346 86.5005 65.2755 86.7519 65.0959C87.0033 64.9163 87.3625 64.9882 87.5421 65.2396C87.7216 65.5089 92.0314 71.8658 90.6667 76.1756V76.2115ZM54.2312 55.1116C53.2974 55.2194 52.4175 54.0701 52.2559 52.5437C52.0943 51.0174 52.7228 49.7065 53.6565 49.6167C54.5903 49.5269 55.4702 50.6762 55.6319 52.1846C55.7935 53.693 55.165 55.0218 54.2312 55.1116Z" fill="#DF5551"/>
<g opacity="0.2" style="mix-blend-mode:multiply">
<path d="M41.1761 102.25C41.23 105.428 49.2031 106.972 50.083 107.242V107.116C44.6958 105.841 41.2121 104.081 41.1761 102.25Z" fill="#A32035"/>
</g>
<path d="M39.9192 37.7288C34.532 37.1003 30.312 36.2742 29.0011 35.1968V35.2327L29.1807 36.2024L34.9091 66.1373L35.1425 67.3764L41.5892 101.136C41.3019 101.495 41.1582 101.854 41.1582 102.25C41.1941 104.081 44.6599 105.841 50.0471 107.116L39.9012 37.7288H39.9192Z" fill="#DF5551"/>
<g opacity="0.2" style="mix-blend-mode:multiply">
<path d="M39.9192 37.7288C34.532 37.1003 30.312 36.2742 29.0011 35.1968V35.2327L29.1807 36.2024L34.9091 66.1373L35.1425 67.3764L41.5892 101.136C41.3019 101.495 41.1582 101.854 41.1582 102.25C41.1941 104.081 44.6599 105.841 50.0471 107.116L39.9012 37.7288H39.9192Z" fill="#A32035"/>
</g>
<path d="M75.1156 7.25542C75.1156 7.25542 75.0258 7.12972 75.0078 7.02197C75.0078 7.11176 75.0617 7.18359 75.1156 7.25542Z" fill="#B7A59C"/>
<path d="M29.5937 34.3888C29.5937 34.3888 29.5937 34.317 29.5937 34.2991C30.2222 35.6279 43.2772 37.693 63.1021 38.0342C69.3153 38.1419 74.6128 38.0881 79.0482 37.9444C96.9337 28.858 69.7822 22.3395 65.1851 17.8681C60.5162 13.3069 61.5039 4.40007 68.4354 2.55046C72.8888 1.36528 76.9652 5.8187 75.9596 7.36303C76.2469 7.20142 76.4983 6.84227 76.5881 6.14193C76.5881 6.12398 76.5881 6.10602 76.5881 6.08806C77.2166 2.69412 72.386 0.467411 69.6745 0.108264C67.6273 -0.161096 63.2458 -0.143139 59.5106 2.71208C54.5364 6.51904 51.9865 15.4079 34.3883 24.5482C29.3243 27.17 28.5701 31.785 29.3423 33.9579C29.3961 34.1015 29.45 34.2452 29.5218 34.3709H29.5757L29.5937 34.3888Z" fill="#B7A59C"/>
<path opacity="0.4" d="M75.1156 7.25526C75.3311 7.57849 75.8339 7.56054 75.9596 7.39892C75.9596 7.39892 75.9596 7.38096 75.9596 7.36301C75.6364 7.54258 75.2772 7.45279 75.0977 7.2373L75.1156 7.25526Z" fill="white"/>
<path d="M68.4355 2.56829C61.504 4.4179 60.5163 13.3247 65.1852 17.8859C69.7643 22.3573 96.9338 28.8758 79.0483 37.9622C90.3255 37.6031 96.0719 36.5795 96.9518 35.6637C96.9518 35.4482 96.9518 35.2327 96.9518 35.0172C96.7901 29.235 89.0505 26.9005 89.0505 26.9005C96.6824 21.8006 76.3726 14.0969 76.3726 14.0969C76.3726 14.0969 76.3726 14.0969 76.3547 14.0969C75.9417 13.8814 75.5286 13.6659 75.1336 13.4325C73.8945 12.7142 72.0449 11.4392 70.9495 9.85898C70.9136 9.78715 70.8597 9.73328 70.8238 9.66145C70.734 9.51779 70.6442 9.35617 70.5545 9.21251C70.5545 9.21251 70.5545 9.1766 70.5365 9.1766C69.6207 7.36291 69.9439 6.44708 70.3031 6.01611C70.4467 5.90836 70.5724 5.80062 70.7161 5.71083C71.596 5.19007 72.2604 5.17211 72.6016 5.20803C73.0505 5.27985 73.6252 5.45943 74.11 5.83653C74.1459 5.87245 74.1818 5.8904 74.2178 5.92632C74.3794 6.08794 74.541 6.24955 74.6667 6.41117C74.7026 6.46504 74.7385 6.50095 74.7744 6.55483C74.8104 6.6087 74.8463 6.66257 74.8822 6.71644C74.9361 6.82419 74.972 6.91397 75.0079 7.02172C75.0079 7.12946 75.0618 7.18333 75.1156 7.25516C75.2772 7.47065 75.6364 7.56044 75.9776 7.38087C76.9832 5.83653 72.9069 1.38311 68.4535 2.56829H68.4355Z" fill="#B7A59C"/>
<path opacity="0.4" d="M68.4355 2.56829C61.504 4.4179 60.5163 13.3247 65.1852 17.8859C69.7643 22.3573 96.9338 28.8758 79.0483 37.9622C90.3255 37.6031 96.0719 36.5795 96.9518 35.6637C96.9518 35.4482 96.9518 35.2327 96.9518 35.0172C96.7901 29.235 89.0505 26.9005 89.0505 26.9005C96.6824 21.8006 76.3726 14.0969 76.3726 14.0969C76.3726 14.0969 76.3726 14.0969 76.3547 14.0969C75.9417 13.8814 75.5286 13.6659 75.1336 13.4325C73.8945 12.7142 72.0449 11.4392 70.9495 9.85898C70.9136 9.78715 70.8597 9.73328 70.8238 9.66145C70.734 9.51779 70.6442 9.35617 70.5545 9.21251C70.5545 9.21251 70.5545 9.1766 70.5365 9.1766C69.6207 7.36291 69.9439 6.44708 70.3031 6.01611C70.4467 5.90836 70.5724 5.80062 70.7161 5.71083C71.596 5.19007 72.2604 5.17211 72.6016 5.20803C73.0505 5.27985 73.6252 5.45943 74.11 5.83653C74.1459 5.87245 74.1818 5.8904 74.2178 5.92632C74.3794 6.08794 74.541 6.24955 74.6667 6.41117C74.7026 6.46504 74.7385 6.50095 74.7744 6.55483C74.8104 6.6087 74.8463 6.66257 74.8822 6.71644C74.9361 6.82419 74.972 6.91397 75.0079 7.02172C75.0079 7.12946 75.0618 7.18333 75.1156 7.25516C75.2772 7.47065 75.6364 7.56044 75.9776 7.38087C76.9832 5.83653 72.9069 1.38311 68.4535 2.56829H68.4355Z" fill="white"/>
<path d="M79.0483 37.9622C78.7071 38.1418 78.3659 38.3214 77.9888 38.5009C77.9888 38.5009 74.6487 38.7703 85.4591 38.1598C93.2885 37.7108 89.679 37.8904 90.9181 37.7288C96.413 37.0105 96.7902 36.795 96.7902 36.795C96.8799 36.4179 96.9159 36.0408 96.9338 35.6816C96.0539 36.5975 90.3076 37.621 79.0303 37.9802L79.0483 37.9622Z" fill="white"/>
<path opacity="0.4" d="M79.0483 37.9622C78.7071 38.1418 78.3659 38.3214 77.9888 38.5009C77.9888 38.5009 74.6487 38.7703 85.4591 38.1598C93.2885 37.7108 89.679 37.8904 90.9181 37.7288C96.413 37.0105 96.7902 36.795 96.7902 36.795C96.8799 36.4179 96.9159 36.0408 96.9338 35.6816C96.0539 36.5975 90.3076 37.621 79.0303 37.9802L79.0483 37.9622Z" fill="white"/>
<path d="M74.0382 50.9274C73.8765 49.4011 72.9966 48.2518 72.0629 48.3595C71.1291 48.4673 70.5006 49.7782 70.6622 51.2866C70.8238 52.813 71.7037 53.9622 72.6375 53.8545C73.5713 53.7467 74.1998 52.4359 74.0382 50.9274Z" fill="#231F20"/>
<path d="M53.6566 49.5987C52.7228 49.7064 52.0943 51.0173 52.2559 52.5257C52.4175 54.0342 53.2975 55.2014 54.2312 55.0936C55.165 54.9859 55.7935 53.675 55.6319 52.1666C55.4703 50.6582 54.5904 49.491 53.6566 49.5987Z" fill="#231F20"/>
<path d="M69.0459 57.0508L59.6183 58.667C59.4747 58.685 59.349 58.7747 59.2592 58.9004C59.1694 59.0261 59.1335 59.1698 59.1694 59.3135C59.5824 61.7197 61.7912 63.4077 64.3052 63.4077C64.6284 63.4077 64.9517 63.3718 65.2749 63.3179C66.6756 63.0845 67.8967 62.3483 68.7407 61.2529C69.5847 60.1575 69.9259 58.8107 69.6924 57.4998C69.6385 57.1945 69.3692 56.997 69.0459 57.0508Z" fill="#231F20"/>
<path d="M86.7519 65.1136C86.5005 65.2932 86.4287 65.6344 86.6082 65.9038C86.6442 65.9576 90.7923 72.0811 89.5892 75.8701C89.23 77.0194 88.404 77.8274 87.111 78.3123L81.3826 80.1439C81.0774 79.5873 80.4668 79.0665 79.6767 78.7253C78.276 78.1148 76.8215 78.3123 76.4444 79.1742C76.0673 80.0362 76.8933 81.2393 78.294 81.8499C79.6947 82.4604 81.1492 82.2629 81.5263 81.401C81.5263 81.365 81.5443 81.3112 81.5622 81.2753L87.4702 79.3897C89.1223 78.7792 90.1818 77.7197 90.6666 76.2292C92.0314 71.9195 87.7216 65.5626 87.542 65.2932C87.3624 65.0418 87.0213 64.97 86.7519 65.1496V65.1136Z" fill="#231F20"/>
</g>
<defs>
<clipPath id="clip0_336_117">
<rect width="128" height="128" fill="white"/>
</clipPath>
</defs>
</svg>
