<svg width="128" height="128" viewBox="0 0 128 128" fill="none" xmlns="http://www.w3.org/2000/svg">
<path d="M35.8624 77.8056C35.8624 77.8056 35.816 77.7901 35.8005 77.7747L41.4115 107.081C41.4115 107.081 41.4424 107.035 41.4578 107.004L35.8778 77.821L35.8624 77.8056Z" fill="#DF5551"/>
<path d="M34.3011 69.6132L28.3501 38.5445C28.3347 38.4363 28.3192 38.2818 28.3347 38.1272C28.2883 38.3281 28.3038 38.5755 28.3347 38.7455L34.2702 69.7833C34.2702 69.7833 34.2702 69.6905 34.2857 69.6442V69.5978L34.3011 69.6132Z" fill="#DF5551"/>
<path d="M92.7754 82.4118L93.0382 80.7424C92.9145 80.9743 92.8527 81.268 92.8372 81.5153C92.8372 81.809 92.7908 82.1181 92.7754 82.4118Z" fill="#DF5551"/>
<path d="M89.6993 101.888H89.6375C89.4366 101.965 89.2202 101.98 89.0192 101.996C89.0192 102.537 89.0192 103.093 89.0038 103.634C89.0038 103.743 89.0038 103.913 88.911 104.036C88.8492 104.129 88.7255 104.206 88.6019 104.206C88.5555 104.206 88.4937 104.206 88.4473 104.16C88.2773 104.052 88.2927 103.804 88.3082 103.712C88.37 103.14 88.4782 102.568 88.571 101.996C88.37 101.996 88.1691 101.949 87.9681 101.919C87.9681 102.29 87.9991 102.676 87.9991 103.047C87.9991 103.155 87.9991 103.325 87.8909 103.449C87.829 103.526 87.7363 103.557 87.6281 103.557C87.6126 103.557 87.5972 103.557 87.5817 103.557C87.489 103.557 87.4117 103.48 87.3808 103.402V103.341C87.3808 102.831 87.458 102.305 87.5199 101.795C87.3499 101.749 87.1953 101.687 87.0253 101.625C87.0253 102.29 87.0252 102.97 87.0098 103.634C87.0098 103.743 87.0098 103.897 86.9171 104.036C86.8552 104.129 86.7316 104.206 86.6079 104.206C86.5615 104.206 86.4997 104.206 86.4533 104.16C86.2833 104.052 86.2988 103.804 86.3142 103.712C86.3915 102.97 86.5152 102.228 86.6543 101.486C86.5615 101.455 86.4688 101.424 86.3761 101.378C86.2369 101.331 86.0978 101.269 85.9742 101.223C85.9742 101.609 86.0205 101.996 86.0051 102.382C86.0051 102.49 86.0051 102.661 85.8969 102.784C85.8351 102.861 85.7423 102.908 85.6341 102.908C85.6341 102.908 85.6032 102.908 85.5877 102.908C85.495 102.908 85.4177 102.846 85.3713 102.753V102.691C85.3713 102.15 85.4486 101.609 85.5105 101.068C85.3095 101.007 85.0931 100.945 84.8922 100.883C84.8922 101.517 84.8922 102.15 84.8767 102.784C84.8767 102.908 84.8767 103.062 84.784 103.186C84.7221 103.279 84.5985 103.356 84.4748 103.356C84.4285 103.356 84.3666 103.356 84.3203 103.31C84.1502 103.186 84.1657 102.939 84.1812 102.861C84.243 102.181 84.3666 101.486 84.5057 100.79C84.3048 100.759 84.1039 100.744 83.9184 100.744C83.8875 100.744 83.872 100.744 83.8411 100.744C83.8566 101.238 83.8875 101.718 83.8875 102.197C83.8875 102.305 83.8875 102.475 83.7793 102.599C83.7174 102.676 83.6247 102.707 83.5165 102.707C83.501 102.707 83.4856 102.707 83.4701 102.707C83.3774 102.707 83.3001 102.63 83.2692 102.552V102.49C83.2692 101.919 83.3465 101.331 83.4238 100.759C83.2537 100.759 83.0837 100.759 82.9137 100.728C82.9137 101.424 82.9137 102.12 82.8828 102.8C82.8828 102.908 82.8828 103.062 82.79 103.202C82.7282 103.294 82.6045 103.372 82.4809 103.372C82.4345 103.372 82.3727 103.372 82.3263 103.325C82.1563 103.217 82.1717 102.97 82.1872 102.877C82.2645 102.104 82.3881 101.347 82.5427 100.589C82.2954 100.419 82.1717 100.172 82.1408 99.8937H82.1254V99.8473C82.079 99.3218 82.2954 98.719 82.45 98.3944C84.1348 94.5765 85.0313 90.4031 85.1086 86.2296C85.0931 86.2606 85.0777 86.2915 85.0622 86.3069C84.8922 86.5697 84.5676 86.6624 84.3357 86.4924C84.1039 86.3224 84.042 85.9978 84.2121 85.735C84.5058 85.2558 84.7994 84.7767 85.0777 84.2821C85.0777 84.1429 85.0777 84.0038 85.0777 83.8647C85.0622 83.5247 84.7221 82.7982 84.3975 82.3036C79.0185 83.4937 73.5003 84.2202 67.9976 84.4521C67.2711 84.483 66.4519 84.5139 65.5708 84.5139C64.5507 84.5139 63.4532 84.483 62.3712 84.3748C59.6508 84.112 56.9458 83.4319 54.3181 82.7363V82.7673L52.4169 82.2726V82.2263C50.7166 81.778 49.0009 81.3143 47.3006 80.866L46.3886 80.6187C46.064 80.526 45.7549 80.4487 45.4303 80.356L50.2529 113.326C49.3409 113.048 41.1487 111.456 41.0096 108.179C41.0096 108.241 40.9786 108.287 40.9786 108.349C41.025 110.667 46.3732 112.878 54.1481 114.191C53.9935 111.626 53.6071 109.74 53.5916 109.709L54.4108 109.539C54.4417 109.693 54.8591 111.672 54.9982 114.331C58.1051 114.81 61.552 115.15 65.1999 115.304C68.3531 115.428 71.3518 115.397 74.1031 115.227C73.9486 112.445 73.3303 110.559 73.3303 110.528L74.1186 110.265C74.165 110.405 74.7987 112.337 74.9533 115.181C83.3928 114.593 89.2511 112.723 89.2047 110.281C89.2047 109.833 88.9883 109.4 88.6019 108.967L89.7302 101.795C89.7302 101.795 89.7302 101.81 89.7302 101.826V101.888H89.6993Z" fill="#DF5551"/>
<path d="M39.4948 39.8584L43.2199 65.3626C43.4208 65.548 43.6063 65.749 43.7918 65.9808C44.7192 67.2329 44.9202 68.6704 44.2401 69.2114C44.1164 69.3041 43.9618 69.3659 43.8073 69.3814L44.3019 72.751C44.7811 72.9211 45.2757 73.0756 45.7858 73.1684L46.2186 73.2302C46.4504 73.2457 46.6977 73.2611 46.9296 73.2611C47.146 73.2611 47.3779 73.2611 47.6097 73.2766C48.9699 73.3693 50.2529 73.9412 51.5049 74.4977C51.8295 74.6523 52.1695 74.7914 52.4941 74.9305C59.6044 77.8983 67.5957 76.7853 74.6441 75.7961L86.206 74.1886C86.407 74.1576 86.6234 74.1267 86.8398 74.1113C86.8088 74.0185 86.7934 73.9258 86.7779 73.833C86.577 73.122 86.3297 72.411 86.0514 71.7C85.7423 70.9271 85.4177 70.1543 85.0776 69.3969C84.9849 69.165 84.8612 68.9486 84.753 68.7322C84.1966 69.0723 83.6401 69.165 83.2383 68.8868C82.5272 68.3922 82.6354 66.9392 83.4701 65.6408C84.3048 64.3424 85.5723 63.6777 86.2833 64.1724C86.9943 64.667 86.8861 66.12 86.0514 67.4184C85.9123 67.6502 85.7423 67.8357 85.5877 68.0212C85.7423 68.2994 85.9123 68.5931 86.0205 68.8713C86.6543 70.3243 87.3189 71.8545 87.7672 73.4466C87.8135 73.6321 87.8599 73.8021 87.9063 73.9876C89.3129 73.8176 90.7349 73.7248 92.157 73.8949C93.0226 74.0031 93.6409 74.2504 94.0118 74.6523L99.2209 41.5896L99.4373 40.0439C99.4373 40.0439 65.2462 43.2435 39.5102 39.8739L39.4948 39.8584ZM52.8651 50.7247C53.8389 50.632 54.7663 51.8376 54.9209 53.4297C55.0755 55.0218 54.4108 56.382 53.4216 56.4747C52.4478 56.5675 51.5204 55.3618 51.3658 53.7698C51.2112 52.1777 51.8759 50.8175 52.8651 50.7247ZM57.8423 67.0783C57.1622 69.1186 54.9673 70.2315 52.9269 69.5514C50.8866 68.8713 49.7737 66.6764 50.4538 64.6361C51.1339 62.5958 53.3288 61.4828 55.3692 62.1629C57.4095 62.8431 58.5224 65.038 57.8423 67.0783ZM63.8396 68.9177C62.6494 68.9177 61.6911 67.4802 61.6911 65.7026C61.6911 63.9251 62.6494 62.4875 63.8396 62.4875C65.0298 62.4875 65.9882 63.9251 65.9882 65.7026C65.9882 67.4802 65.0298 68.9177 63.8396 68.9177ZM72.1401 49.5809C73.1139 49.4882 74.0413 50.6938 74.1959 52.2859C74.3504 53.878 73.6858 55.2382 72.6965 55.3309C71.7227 55.4237 70.7953 54.218 70.6407 52.6259C70.4862 51.0339 71.1508 49.6736 72.1401 49.5809ZM73.6085 62.0857C75.757 62.0857 77.5037 63.8323 77.5037 65.9808C77.5037 68.1294 75.757 69.876 73.6085 69.876C71.46 69.876 69.7133 68.1294 69.7133 65.9808C69.7133 63.8323 71.46 62.0857 73.6085 62.0857Z" fill="#DF5551"/>
<g opacity="0.2" style="mix-blend-mode:multiply">
<path d="M28.6748 37.8645C31.9981 38.6992 35.6614 39.3484 39.4948 39.843L39.4639 39.5802C39.4639 39.5802 33.2192 39.1165 28.7057 37.6481C28.443 37.5553 28.3657 37.8336 28.3502 38.1118C28.3966 37.9263 28.4893 37.8026 28.6903 37.849L28.6748 37.8645Z" fill="#A32035"/>
</g>
<g opacity="0.2" style="mix-blend-mode:multiply">
<path d="M41.3959 107.081C41.1331 107.421 40.994 107.777 40.994 108.148C40.994 108.163 40.994 108.179 40.994 108.194C41.0249 107.854 41.1486 107.529 41.4114 107.205L41.3804 107.081H41.3959Z" fill="#A32035"/>
</g>
<path d="M42.7252 69.165C42.6325 69.3814 42.5243 69.6133 42.447 69.8606C42.1997 70.5407 41.9678 71.2208 41.736 71.9164C42.5706 72.1946 43.4053 72.4729 44.24 72.7511H44.2864V72.7665L43.7918 69.3969C43.4672 69.4587 43.0962 69.366 42.7098 69.165H42.7252Z" fill="#DF5551"/>
<g opacity="0.2" style="mix-blend-mode:multiply">
<path d="M42.7252 69.165C42.6325 69.3814 42.5243 69.6133 42.447 69.8606C42.1997 70.5407 41.9678 71.2208 41.736 71.9164C42.5706 72.1946 43.4053 72.4729 44.24 72.7511H44.2864V72.7665L43.7918 69.3969C43.4672 69.4587 43.0962 69.366 42.7098 69.165H42.7252Z" fill="#A32035"/>
</g>
<path d="M28.3502 38.5445L34.2857 69.6132V69.5514L34.4094 69.5823C35.2904 69.845 36.156 70.1233 37.0371 70.4015L37.3926 70.4942C38.5055 70.8498 39.603 71.2053 40.7159 71.5762C40.9477 70.8343 41.2105 70.1078 41.4578 69.3968C41.566 69.1186 41.7051 68.8249 41.8442 68.5312C41.6742 68.3612 41.4887 68.1757 41.3342 67.9593C40.4067 66.7073 40.2058 65.2697 40.8859 64.7288C41.4424 64.296 42.3852 64.5896 43.2354 65.378L39.5102 39.8738C35.6614 39.3637 32.0135 38.7145 28.6903 37.8953C28.4893 37.8489 28.3966 37.9726 28.3502 38.158C28.3502 38.3126 28.3502 38.4672 28.3657 38.5754L28.3502 38.5445Z" fill="#DF5551"/>
<g opacity="0.2" style="mix-blend-mode:multiply">
<path d="M28.3502 38.5445L34.2857 69.6132V69.5514L34.4094 69.5823C35.2904 69.845 36.156 70.1233 37.0371 70.4015L37.3926 70.4942C38.5055 70.8498 39.603 71.2053 40.7159 71.5762C40.9477 70.8343 41.2105 70.1078 41.4578 69.3968C41.566 69.1186 41.7051 68.8249 41.8442 68.5312C41.6742 68.3612 41.4887 68.1757 41.3342 67.9593C40.4067 66.7073 40.2058 65.2697 40.8859 64.7288C41.4424 64.296 42.3852 64.5896 43.2354 65.378L39.5102 39.8738C35.6614 39.3637 32.0135 38.7145 28.6903 37.8953C28.4893 37.8489 28.3966 37.9726 28.3502 38.158C28.3502 38.3126 28.3502 38.4672 28.3657 38.5754L28.3502 38.5445Z" fill="#A32035"/>
</g>
<path d="M50.2528 113.326L45.4302 80.3558C43.9309 79.9539 42.4316 79.5521 40.9322 79.1502C41.2877 81.0205 42.1997 82.7981 43.3126 84.4983C43.6681 85.0393 44.0391 85.5803 44.4255 86.1059C44.611 86.3532 44.5801 86.7087 44.3482 86.8787C44.1164 87.0487 43.7918 86.9869 43.6063 86.7396C43.2199 86.1986 42.8334 85.6576 42.4625 85.0857C41.2723 83.2772 40.2367 81.2987 39.8657 79.1193C39.8657 79.042 39.8502 78.9492 39.8348 78.872C39.4793 78.7792 39.0774 78.7019 38.6446 78.6246C37.6862 78.4546 36.6661 78.2537 35.8623 77.8054L41.4423 106.988C41.4423 106.988 41.4114 107.035 41.3959 107.066L41.4269 107.189C41.1795 107.498 41.0404 107.839 41.0095 108.179C41.1486 111.455 49.3409 113.048 50.2528 113.326Z" fill="#DF5551"/>
<g opacity="0.2" style="mix-blend-mode:multiply">
<path d="M50.2528 113.326L45.4302 80.3558C43.9309 79.9539 42.4316 79.5521 40.9322 79.1502C41.2877 81.0205 42.1997 82.7981 43.3126 84.4983C43.6681 85.0393 44.0391 85.5803 44.4255 86.1059C44.611 86.3532 44.5801 86.7087 44.3482 86.8787C44.1164 87.0487 43.7918 86.9869 43.6063 86.7396C43.2199 86.1986 42.8334 85.6576 42.4625 85.0857C41.2723 83.2772 40.2367 81.2987 39.8657 79.1193C39.8657 79.042 39.8502 78.9492 39.8348 78.872C39.4793 78.7792 39.0774 78.7019 38.6446 78.6246C37.6862 78.4546 36.6661 78.2537 35.8623 77.8054L41.4423 106.988C41.4423 106.988 41.4114 107.035 41.3959 107.066L41.4269 107.189C41.1795 107.498 41.0404 107.839 41.0095 108.179C41.1486 111.455 49.3409 113.048 50.2528 113.326Z" fill="#A32035"/>
</g>
<path d="M95.5575 38.8073C95.8049 38.761 96.0058 38.7146 96.2222 38.6682C95.3566 38.8073 94.2128 38.9619 92.6516 39.1628C93.8418 39.0237 94.7847 38.9155 95.5575 38.8073Z" fill="#B7A59C"/>
<path d="M76.2208 7.53752C76.2208 7.53752 76.128 7.39841 76.1125 7.30566C76.1125 7.39841 76.1589 7.47569 76.2208 7.53752Z" fill="#B7A59C"/>
<path d="M67.7812 40.2603C68.5695 40.2293 69.3578 40.2139 70.1616 40.1675C73.624 39.9666 76.4681 39.9511 79.3431 39.9202C99.901 30.2286 70.7644 23.3193 65.9263 18.5894C61.0728 13.8441 62.1084 4.6008 69.296 2.68412C73.9176 1.44755 78.1529 6.06922 77.1018 7.67675C77.3955 7.50673 77.6737 7.13576 77.7665 6.40927C77.7665 6.39382 77.7665 6.3629 77.7665 6.34745C78.4157 2.82323 73.4076 0.520129 70.5789 0.14916C68.4613 -0.129068 63.9015 -0.11361 60.0217 2.85415C54.8591 6.81116 52.2005 16.0545 33.9302 25.5451C27.8247 28.6984 27.7474 34.6493 29.2158 36.1641C29.5095 36.4578 31.6116 37.2461 33.2965 37.8026C39.4793 39.0237 50.9948 39.982 63.7469 40.1984C65.1226 40.2293 66.4673 40.2448 67.7966 40.2448L67.7812 40.2603Z" fill="#B7A59C"/>
<path d="M98.3089 38.3437C98.6953 38.251 98.7417 38.2046 98.7417 38.2046C98.7417 38.2046 98.6953 38.2355 98.4171 38.2973C98.3707 38.3128 98.3398 38.3282 98.2935 38.3592L98.3089 38.3437Z" fill="#B7A59C"/>
<path d="M86.9788 39.6264C85.3094 39.7192 83.9956 39.7964 82.9136 39.8583C84.9075 39.7964 87.0252 39.7037 89.4519 39.4873C88.7873 39.5337 87.968 39.58 86.9788 39.6264Z" fill="#B7A59C"/>
<path d="M99.4526 37.0762C99.4526 37.3389 99.2208 37.5863 98.8034 37.8336C98.788 37.9263 98.788 38.0345 98.7571 38.1273C99.3754 37.8027 99.7154 37.4626 99.7309 37.0916H99.4526V37.0762Z" fill="white"/>
<path d="M96.2222 38.6682C96.0058 38.7146 95.7894 38.7609 95.5575 38.8073C90.3949 39.7965 80.456 40.353 67.7966 40.2448C66.4673 40.2448 65.1226 40.2139 63.7469 40.1984C50.9948 39.982 39.4793 39.0237 33.2965 37.8026C30.6224 37.277 28.9376 36.7051 28.5975 36.1178C28.5357 36.0096 28.5357 35.9014 28.5975 35.7932L28.3502 35.6541C28.242 35.8395 28.242 36.0559 28.3502 36.2414C29.6795 38.5291 47.3778 40.183 63.7314 40.4612C66.05 40.5076 68.3067 40.523 70.5016 40.523C77.6737 40.523 84.0729 40.3221 88.9419 39.9202C93.5481 39.5492 96.6705 39.0082 98.3244 38.3281C98.3707 38.3127 98.4016 38.2972 98.448 38.2663C98.1234 38.3436 97.4897 38.4672 96.2377 38.6527L96.2222 38.6682Z" fill="white"/>
<path opacity="0.4" d="M76.2208 7.5376C76.4372 7.87765 76.9782 7.8622 77.0864 7.69217C77.0864 7.69217 77.0864 7.67671 77.0864 7.66125C76.7463 7.84674 76.3754 7.754 76.2053 7.5376H76.2208Z" fill="#E6E6E5"/>
<path opacity="0.4" d="M92.6515 39.1628C91.5232 39.2865 90.4566 39.3947 89.4519 39.472C94.2591 39.1938 91.5232 39.302 92.6515 39.1628Z" fill="#E6E6E5"/>
<path opacity="0.4" d="M82.9137 39.8429C81.6926 39.8738 80.5178 39.9047 79.3431 39.9047C79.2967 39.9201 79.2658 39.951 79.2194 39.9665C79.2194 39.9665 76.7309 40.1674 82.9291 39.8274L82.9137 39.8429Z" fill="#E6E6E5"/>
<path d="M69.2959 2.66855C62.1083 4.58523 61.0573 13.844 65.9262 18.5739C70.7798 23.3037 99.9009 30.2285 79.343 39.9046C80.5177 39.9046 81.6925 39.8737 82.9136 39.8428C83.9956 39.781 85.3094 39.7192 86.9788 39.611C87.968 39.5491 88.7873 39.5028 89.4519 39.4718C90.4566 39.3791 91.5232 39.2864 92.6515 39.1627C94.2127 38.9618 95.3565 38.7917 96.2221 38.6681C97.3814 38.4208 98.2624 38.1425 98.8034 37.8334C100.055 30.754 90.7039 27.9563 90.7039 27.9563C98.6334 22.67 77.5345 14.6478 77.5345 14.6478C77.5345 14.6478 77.519 14.6478 77.5036 14.6478C77.0708 14.4159 76.638 14.1995 76.2207 13.9677C74.9377 13.2103 73.0056 11.8964 71.8772 10.258C71.8308 10.1961 71.7845 10.1189 71.7381 10.057C71.6454 9.90246 71.5372 9.74789 71.4599 9.57786C71.4599 9.57786 71.4599 9.54695 71.4444 9.53149C70.4861 7.64573 70.8261 6.70285 71.2126 6.25459C71.3517 6.13093 71.5062 6.03819 71.6454 5.92999C72.5573 5.389 73.2529 5.35808 73.6084 5.40445C74.0876 5.48174 74.6595 5.66722 75.185 6.06911C75.185 6.06911 75.185 6.06911 75.2005 6.08456C75.2469 6.11548 75.2778 6.14639 75.3087 6.17731C75.4787 6.34733 75.6333 6.51736 75.7724 6.67193C75.8188 6.7183 75.8497 6.78013 75.8961 6.8265C75.9424 6.88833 75.9733 6.9347 76.0043 6.99653C76.0506 7.10473 76.097 7.21293 76.1434 7.32113C76.1434 7.42933 76.2052 7.49116 76.2516 7.55299C76.4216 7.76938 76.7926 7.86213 77.1326 7.67664C78.1837 6.06911 73.9485 1.44744 69.3268 2.68401L69.2959 2.66855Z" fill="#B7A59C"/>
<path opacity="0.4" d="M69.2959 2.66855C62.1083 4.58523 61.0573 13.844 65.9262 18.5739C70.7798 23.3037 99.9009 30.2285 79.343 39.9046C80.5177 39.9046 81.6925 39.8737 82.9136 39.8428C83.9956 39.781 85.3094 39.7192 86.9788 39.611C87.968 39.5491 88.7873 39.5028 89.4519 39.4718C90.4566 39.3791 91.5232 39.2864 92.6515 39.1627C94.2127 38.9618 95.3565 38.7917 96.2221 38.6681C97.3814 38.4208 98.2624 38.1425 98.8034 37.8334C100.055 30.754 90.7039 27.9563 90.7039 27.9563C98.6334 22.67 77.5345 14.6478 77.5345 14.6478C77.5345 14.6478 77.519 14.6478 77.5036 14.6478C77.0708 14.4159 76.638 14.1995 76.2207 13.9677C74.9377 13.2103 73.0056 11.8964 71.8772 10.258C71.8308 10.1961 71.7845 10.1189 71.7381 10.057C71.6454 9.90246 71.5372 9.74789 71.4599 9.57786C71.4599 9.57786 71.4599 9.54695 71.4444 9.53149C70.4861 7.64573 70.8261 6.70285 71.2126 6.25459C71.3517 6.13093 71.5062 6.03819 71.6454 5.92999C72.5573 5.389 73.2529 5.35808 73.6084 5.40445C74.0876 5.48174 74.6595 5.66722 75.185 6.06911C75.185 6.06911 75.185 6.06911 75.2005 6.08456C75.2469 6.11548 75.2778 6.14639 75.3087 6.17731C75.4787 6.34733 75.6333 6.51736 75.7724 6.67193C75.8188 6.7183 75.8497 6.78013 75.8961 6.8265C75.9424 6.88833 75.9733 6.9347 76.0043 6.99653C76.0506 7.10473 76.097 7.21293 76.1434 7.32113C76.1434 7.42933 76.2052 7.49116 76.2516 7.55299C76.4216 7.76938 76.7926 7.86213 77.1326 7.67664C78.1837 6.06911 73.9485 1.44744 69.3268 2.68401L69.2959 2.66855Z" fill="#E6E6E5"/>
<path d="M98.7572 38.1891C98.7572 38.1891 98.7572 38.1427 98.7572 38.1118C98.649 38.1582 98.5408 38.22 98.4326 38.2664C98.6954 38.2046 98.7572 38.1736 98.7572 38.1736V38.1891Z" fill="#B7A59C"/>
<path opacity="0.4" d="M98.7572 38.1891C98.7572 38.1891 98.7572 38.1427 98.7572 38.1118C98.649 38.1582 98.5408 38.22 98.4326 38.2664C98.6954 38.2046 98.7572 38.1736 98.7572 38.1736V38.1891Z" fill="#E6E6E5"/>
<path d="M96.2222 38.6682C97.4742 38.4827 98.1079 38.359 98.4325 38.2818C98.5562 38.2354 98.6644 38.1736 98.7571 38.1272C98.7726 38.019 98.7726 37.9262 98.8035 37.8335C98.2625 38.1426 97.3814 38.4209 96.2222 38.6682Z" fill="white"/>
<path opacity="0.4" d="M96.2222 38.6682C97.4742 38.4827 98.1079 38.359 98.4325 38.2818C98.5562 38.2354 98.6644 38.1736 98.7571 38.1272C98.7726 38.019 98.7726 37.9262 98.8035 37.8335C98.2625 38.1426 97.3814 38.4209 96.2222 38.6682Z" fill="#E6E6E5"/>
<path d="M63.8397 62.4875C62.6495 62.4875 61.6912 63.9251 61.6912 65.7026C61.6912 67.4802 62.6495 68.9177 63.8397 68.9177C65.0299 68.9177 65.9882 67.4802 65.9882 65.7026C65.9882 63.9251 65.0299 62.4875 63.8397 62.4875Z" fill="black"/>
<path d="M75.7107 121.796C76.7463 122.121 77.581 122.739 77.9365 123.45C78.1374 123.837 78.1838 124.223 78.0756 124.563C77.921 125.058 77.4573 125.429 76.7926 125.599C76.5299 125.661 76.2517 125.691 75.9425 125.691C75.4943 125.691 75.0151 125.614 74.5359 125.46C73.7476 125.212 73.083 124.795 72.6347 124.269C72.1864 123.744 72.0164 123.172 72.171 122.677C72.3256 122.183 72.7893 121.812 73.4694 121.642C73.6549 120.962 73.794 120.282 73.8867 119.632C70.7953 119.478 67.5029 119.385 64.0406 119.385C60.81 119.385 57.7032 119.462 54.7972 119.601C54.7509 119.972 54.689 120.343 54.6118 120.714C55.06 120.714 55.5237 120.776 56.0183 120.931C56.8067 121.178 57.5022 121.611 57.9505 122.136C58.4142 122.677 58.5842 123.265 58.4297 123.79C58.1978 124.532 57.3013 124.965 56.2193 124.965C55.771 124.965 55.2919 124.888 54.8127 124.733C54.0244 124.486 53.3288 124.053 52.8806 123.528C52.4168 122.987 52.2468 122.399 52.4014 121.874C52.5714 121.333 53.0815 120.962 53.7462 120.792C53.8234 120.405 53.9007 120.019 53.9626 119.632C42.3852 120.22 34.1002 121.812 34.1002 123.667C34.1002 126.032 47.517 127.964 64.056 127.964C80.5951 127.964 94.0118 126.047 94.0118 123.667C94.0118 121.827 85.9896 120.282 74.7214 119.663C74.6287 120.282 74.505 120.915 74.335 121.564C74.7832 121.564 75.2315 121.626 75.6952 121.765L75.7107 121.796Z" fill="#C3DDED"/>
<path d="M73.3302 110.528C73.3302 110.528 73.9485 112.445 74.1031 115.227C74.1804 116.541 74.134 118.056 73.8867 119.663C73.7785 120.328 73.6394 120.993 73.4693 121.673C72.7892 121.843 72.341 122.214 72.1709 122.708C72.0009 123.203 72.1709 123.775 72.6347 124.3C73.0829 124.81 73.763 125.243 74.5359 125.491C75.0151 125.645 75.4788 125.722 75.9425 125.722C76.2362 125.722 76.5298 125.691 76.7926 125.63C77.4727 125.46 77.921 125.089 78.0756 124.594C78.1838 124.254 78.1374 123.868 77.9364 123.481C77.5655 122.77 76.7308 122.152 75.7106 121.827C75.2469 121.688 74.7987 121.626 74.3504 121.626C74.505 120.977 74.6286 120.343 74.7368 119.725C74.9841 118.071 75.0305 116.525 74.9532 115.196C74.7987 112.352 74.1649 110.42 74.1185 110.281L73.3302 110.544V110.528Z" fill="black"/>
<path d="M52.4014 121.92C52.2314 122.445 52.4014 123.033 52.8806 123.574C53.3443 124.099 54.0244 124.532 54.8127 124.779C55.2919 124.934 55.7711 125.011 56.2193 125.011C57.3168 125.011 58.1978 124.578 58.4297 123.837C58.5997 123.311 58.4297 122.724 57.9505 122.183C57.4868 121.657 56.8067 121.224 56.0184 120.977C55.5392 120.822 55.06 120.761 54.6118 120.761C54.6891 120.39 54.7509 120.019 54.7973 119.648C55.06 117.793 55.0755 115.953 54.9827 114.346C54.8436 111.672 54.4263 109.693 54.3954 109.554L53.5761 109.724C53.5761 109.724 53.978 111.641 54.1326 114.207C54.2253 115.861 54.2253 117.777 53.9317 119.694C53.8698 120.08 53.808 120.467 53.7153 120.853C53.0351 121.023 52.5405 121.394 52.3705 121.935L52.4014 121.92Z" fill="black"/>
<path d="M73.6086 69.8761C75.7571 69.8761 77.5037 68.1294 77.5037 65.9809C77.5037 63.8323 75.7571 62.0857 73.6086 62.0857C71.46 62.0857 69.7134 63.8323 69.7134 65.9809C69.7134 68.1294 71.46 69.8761 73.6086 69.8761Z" fill="#DF5551"/>
<path opacity="0.48" d="M73.6086 69.8761C75.7571 69.8761 77.5037 68.1294 77.5037 65.9809C77.5037 63.8323 75.7571 62.0857 73.6086 62.0857C71.46 62.0857 69.7134 63.8323 69.7134 65.9809C69.7134 68.1294 71.46 69.8761 73.6086 69.8761Z" fill="#C31D31"/>
<path d="M55.3537 62.163C53.3134 61.4829 51.103 62.5958 50.4384 64.6361C49.7582 66.6764 50.8712 68.8868 52.9115 69.5515C54.9518 70.2316 57.1622 69.1186 57.8268 67.0783C58.5069 65.038 57.394 62.8276 55.3537 62.163Z" fill="#DF5551"/>
<path opacity="0.48" d="M55.3537 62.163C53.3134 61.4829 51.103 62.5958 50.4384 64.6361C49.7582 66.6764 50.8712 68.8868 52.9115 69.5515C54.9518 70.2316 57.1622 69.1186 57.8268 67.0783C58.5069 65.038 57.394 62.8276 55.3537 62.163Z" fill="#C31D31"/>
<path d="M72.6966 55.3463C73.6704 55.2536 74.3505 53.8779 74.1959 52.3013C74.0414 50.7092 73.1139 49.5036 72.1401 49.5963C71.1664 49.6891 70.4862 51.0647 70.6408 52.6414C70.7954 54.2334 71.7228 55.4391 72.6966 55.3463Z" fill="#201E1E"/>
<path d="M53.4215 56.4902C54.3953 56.3974 55.0754 55.0217 54.9208 53.4451C54.7662 51.853 53.8388 50.6474 52.865 50.7401C51.8912 50.8329 51.2111 52.2085 51.3657 53.7852C51.5202 55.3772 52.4477 56.5829 53.4215 56.4902Z" fill="#201E1E"/>
<path d="M78.8176 83.1382L78.9412 75.4097L77.1482 75.657V83.3855C77.7046 83.3082 78.2611 83.2155 78.8176 83.1227V83.1382Z" fill="white"/>
<path d="M61.7683 84.081C61.9693 84.1119 62.1702 84.1428 62.3866 84.1583C62.8348 84.2046 63.2676 84.2201 63.7159 84.251L63.855 77.048C63.1904 77.048 62.5257 77.048 61.8765 77.0171L61.7838 84.081H61.7683Z" fill="white"/>
<path d="M73.3457 83.8492C73.9485 83.7873 74.5514 83.7255 75.1542 83.6482L75.2933 75.9197L74.675 76.0124C74.2422 76.0742 73.794 76.1361 73.3457 76.1979V83.8492Z" fill="white"/>
<path d="M67.5648 84.2511L67.7194 76.8472C67.0702 76.909 66.4055 76.9399 65.7563 76.9708L65.6636 84.282C66.3437 84.282 66.9774 84.2666 67.5648 84.2511Z" fill="white"/>
<path d="M80.7805 82.829C81.3061 82.7362 81.8161 82.6126 82.3417 82.5198L82.4808 74.9304L80.7805 75.1623V82.829Z" fill="white"/>
<path d="M71.3673 84.0347L71.5064 76.4453C70.7799 76.5381 70.0535 76.6308 69.3115 76.7081H69.6207L69.5279 84.1584C70.1462 84.1275 70.749 84.0966 71.3673 84.0347Z" fill="white"/>
<path d="M48.8462 81.0514V73.7093C48.4444 73.6011 48.027 73.5084 47.6097 73.4929C47.5169 73.4929 47.4242 73.4929 47.3315 73.4929L47.3005 80.6495C47.8261 80.7887 48.3362 80.9278 48.8617 81.0669L48.8462 81.0514Z" fill="white"/>
<path d="M88.2773 78.47C88.2464 78.8101 88.1691 79.1347 88.0918 79.4747V80.6495C88.6483 80.5567 89.2047 80.464 89.7612 80.4022L89.9157 74.0493C89.3129 74.0648 88.7255 74.1111 88.1227 74.1884V75.1313C88.3082 76.2133 88.3855 77.3417 88.2618 78.4855L88.2773 78.47Z" fill="white"/>
<path d="M34.8576 76.4298C34.9813 76.739 35.1668 77.0017 35.3986 77.2181V70.1079C35.1049 70.0151 34.7803 69.907 34.4712 69.8142C34.0229 72.2564 34.1621 74.6523 34.8576 76.4298Z" fill="white"/>
<path d="M51.4275 74.6986C51.2266 74.6059 51.0102 74.5132 50.8092 74.4204L50.7783 81.577C51.3193 81.7161 51.8603 81.8707 52.4013 82.0098V75.1314H52.4168C52.0767 74.9923 51.7521 74.8378 51.4121 74.6986H51.4275Z" fill="white"/>
<path d="M93.2545 80.2013L93.409 74.4513C93.0844 74.2813 92.6516 74.1576 92.1261 74.0958C92.0024 74.0958 91.8788 74.0958 91.7551 74.0803V80.2168C92.3116 80.1859 92.8217 80.1704 93.2545 80.2013Z" fill="white"/>
<path d="M84.3357 74.6678L84.2893 81.5771C84.7994 81.3762 85.464 81.1907 86.206 81.0207L86.2987 74.405C86.2987 74.405 86.2524 74.405 86.2369 74.405L84.3357 74.6678Z" fill="white"/>
<path d="M56.1111 76.2906C55.5238 76.1515 54.9519 75.9969 54.3799 75.8269L54.3181 82.5044C54.89 82.6589 55.4619 82.798 56.0338 82.9526L56.1111 76.2906Z" fill="white"/>
<path d="M59.8208 83.8027L59.929 76.9089C59.2798 76.847 58.6306 76.7852 57.9969 76.677L57.9351 83.4317C58.5688 83.5709 59.2025 83.6945 59.8363 83.8027H59.8208Z" fill="white"/>
<path d="M37.2225 78.0992C37.6244 78.2074 38.0572 78.3001 38.4746 78.3774L38.5828 71.0817C38.1809 70.958 37.7944 70.8343 37.3926 70.7107L37.2225 78.0992Z" fill="white"/>
<path d="M41.9369 72.1946C41.8442 72.1636 41.7669 72.1327 41.6742 72.1018C41.6742 72.1482 41.6433 72.1791 41.6278 72.2255C41.3959 72.9519 41.195 73.6784 41.0404 74.4049C40.7158 75.9197 40.6076 77.419 40.8549 78.9493C41.1641 79.0266 41.4732 79.1193 41.7669 79.1966L41.906 72.21L41.9369 72.1946Z" fill="white"/>
<path d="M40.4531 71.6844V72.55C40.5304 72.2872 40.5922 72.009 40.6695 71.7462C40.5922 71.7153 40.5304 71.6999 40.4531 71.6689V71.6844Z" fill="white"/>
<path d="M45.4612 73.3229C45.0438 73.2302 44.642 73.1065 44.2401 72.9674H44.1937C44.0855 72.921 43.9773 72.8747 43.8691 72.8438L43.7764 79.7221C44.2865 79.8613 44.7965 80.0004 45.3066 80.124L45.4457 73.3229H45.4612Z" fill="white"/>
<path d="M92.1415 73.8795C90.7195 73.7095 89.2974 73.8177 87.8908 73.9722C87.9836 74.3432 88.0608 74.7142 88.1227 75.1006V74.1577C88.7255 74.0959 89.3283 74.0495 89.9157 74.0186L89.7611 80.3715C89.2047 80.4487 88.6327 80.526 88.0763 80.6188V79.444C87.9836 79.9387 87.8599 80.4178 87.7053 80.897C89.452 80.5724 91.3532 80.356 92.7134 80.356C92.8062 80.356 92.9144 80.356 93.0071 80.356C92.7598 80.6188 92.6207 81.1134 92.6052 81.4689C92.6052 81.7008 92.5743 81.9326 92.5588 82.1645L87.2571 82.1026C87.0098 82.69 86.7315 83.2774 86.4378 83.8338H92.4352C92.4043 84.3439 92.3734 84.8695 92.327 85.3795H85.5723C85.4022 85.6578 85.2476 85.936 85.0776 86.2142C85.0003 90.3876 84.1038 94.561 82.419 98.3789C82.2799 98.7035 82.048 99.3064 82.0944 99.8319V99.8783C82.1253 100.157 82.249 100.404 82.4963 100.574C82.5272 100.589 82.5427 100.62 82.589 100.651C82.6818 100.698 82.7745 100.698 82.8673 100.728C83.0373 100.759 83.2073 100.775 83.3773 100.759C83.3001 101.331 83.2382 101.919 83.2073 102.491V102.552C83.2537 102.645 83.331 102.691 83.4237 102.707C83.4392 102.707 83.4546 102.707 83.4701 102.707C83.5628 102.707 83.671 102.661 83.7329 102.599C83.8411 102.475 83.8411 102.29 83.8411 102.197C83.8411 101.718 83.8256 101.238 83.7947 100.744C83.8256 100.744 83.8411 100.744 83.872 100.744C84.0729 100.744 84.2739 100.759 84.4593 100.79C84.5985 100.806 84.7221 100.852 84.8612 100.883C85.0622 100.929 85.2786 100.991 85.4795 101.068C85.4177 101.609 85.3404 102.15 85.3249 102.691V102.753C85.3713 102.831 85.4486 102.892 85.5413 102.908C85.5568 102.908 85.5722 102.908 85.5877 102.908C85.6804 102.908 85.7886 102.861 85.8505 102.784C85.9587 102.661 85.9587 102.475 85.9587 102.382C85.9587 101.996 85.9432 101.609 85.9278 101.223C86.0669 101.269 86.206 101.331 86.3296 101.378C86.4224 101.409 86.5151 101.439 86.6079 101.486C86.7315 101.532 86.8552 101.579 86.9788 101.625C87.1489 101.687 87.3034 101.733 87.4735 101.795C87.4116 102.305 87.3498 102.831 87.3189 103.341V103.402C87.3653 103.495 87.4426 103.542 87.5353 103.557C87.5508 103.557 87.5662 103.557 87.5817 103.557C87.6744 103.557 87.7826 103.511 87.8444 103.449C87.9526 103.325 87.9526 103.14 87.9526 103.047C87.9526 102.676 87.9372 102.29 87.9217 101.919C88.1227 101.965 88.3236 101.996 88.5246 101.996C88.6018 101.996 88.6791 102.011 88.7564 102.011C88.8337 102.011 88.8955 101.98 88.9728 101.98C89.1737 101.98 89.3901 101.95 89.5911 101.888H89.6529V101.81C89.6529 101.81 89.6529 101.795 89.6529 101.779C91.3377 95.4421 92.3579 88.9347 92.698 82.3963C92.7134 82.1026 92.7443 81.7935 92.7598 81.4998C92.7598 81.2525 92.8371 80.9434 92.9607 80.727C93.0071 80.6342 93.0689 80.5569 93.1308 80.4951C93.1771 80.4487 93.239 80.4333 93.3008 80.4178C93.3317 80.4178 93.3472 80.4178 93.3781 80.4024C93.6254 80.3251 93.8572 80.2014 94.0273 80.0005C94.0273 80.0005 94.0427 79.985 94.0582 79.9696C94.2591 79.6759 94.2746 79.2895 94.29 78.9803L94.3828 76.4454C94.3828 76.0126 94.4137 75.4716 94.1973 75.0079C94.1355 74.8687 94.0273 74.7451 93.9191 74.6369C93.5481 74.235 92.9298 73.9877 92.0642 73.8795H92.1415ZM91.7551 74.065C91.8787 74.065 92.0024 74.065 92.126 74.0804C92.6516 74.1423 93.0844 74.2659 93.409 74.4359L93.2544 80.186C92.8216 80.1551 92.2961 80.1705 91.7242 80.2014V74.065H91.7551ZM86.4533 101.192C85.6341 100.868 84.7839 100.543 83.9183 100.543C83.8565 100.543 83.8101 100.543 83.7483 100.543C83.671 100.543 83.6092 100.543 83.5319 100.543C83.2382 100.574 82.96 100.589 82.7127 100.466C82.4808 100.342 82.3726 100.126 82.3417 99.8783L89.9157 100.002C89.7766 100.558 89.6684 101.13 89.5138 101.687C88.4936 101.965 87.4889 101.579 86.4378 101.177L86.4533 101.192ZM91.5851 91.9333H84.6912C84.7994 91.3923 84.8921 90.8668 84.9694 90.3258L91.8014 90.2949C91.7242 90.8359 91.6623 91.3923 91.5851 91.9333ZM90.3485 98.3017L82.7591 98.2089C82.9755 97.7143 83.1764 97.2351 83.3619 96.7405L90.704 96.8642C90.5958 97.3433 90.4721 97.8225 90.3639 98.3017H90.3485ZM83.9338 95.0248C84.0729 94.5456 84.212 94.0664 84.3357 93.5873H91.2914C91.1986 94.1128 91.1059 94.6229 91.0131 95.1175L83.9338 95.0248ZM92.2033 87.0953C92.157 87.6054 92.0642 88.1309 92.0024 88.641H85.1704C85.2167 88.1309 85.2631 87.6208 85.2786 87.0953H92.2033Z" fill="#00A9E7"/>
<path d="M44.2556 72.7509C43.4209 72.4573 42.5862 72.1945 41.7515 71.9163C41.736 71.9781 41.7051 72.0399 41.6897 72.1172C41.7824 72.1481 41.8597 72.179 41.9524 72.2099L41.8133 79.1965C41.5042 79.1193 41.1951 79.0265 40.9014 78.9492C40.9014 78.9801 40.9014 78.9956 40.9014 79.0265C40.9014 79.0729 40.9323 79.1193 40.9323 79.1811C42.4316 79.583 43.931 79.9848 45.4303 80.3867C45.7549 80.4795 46.064 80.5568 46.3886 80.6495L47.3006 80.9123C49.0009 81.3451 50.7166 81.8088 52.4169 82.257V82.3034L54.3181 82.798V82.7671C56.9458 83.4627 59.6353 84.1428 62.3712 84.4056C63.4532 84.5138 64.5507 84.5447 65.5709 84.5447C66.4519 84.5447 67.2866 84.5138 67.9976 84.4829C73.5003 84.2665 79.003 83.5245 84.3976 82.3343C84.7222 82.8289 85.0622 83.5554 85.0777 83.8955C85.0777 84.0346 85.0777 84.1737 85.0777 84.3128C85.124 84.2355 85.1704 84.1737 85.2168 84.0964C85.2477 84.0501 85.2632 84.0037 85.2786 83.9728C85.2786 83.9419 85.2786 83.9264 85.2786 83.8955H85.325C85.6496 83.3236 85.9278 82.7362 86.1906 82.1488H84.4903C84.4285 82.0406 84.3512 81.9324 84.2894 81.8706V81.8242C84.8767 81.5924 85.696 81.376 86.5925 81.175C86.9171 80.2785 87.1644 79.382 87.2571 78.4546C87.4117 76.9862 87.2108 75.5641 86.8398 74.1421C86.6234 74.173 86.4224 74.2039 86.206 74.2194L74.6442 75.8269C67.5957 76.8007 59.6044 77.9291 52.4942 74.9613C52.1696 74.8222 51.8295 74.6676 51.5049 74.5285C50.2684 73.972 48.9854 73.4001 47.6097 73.3074C47.3779 73.3074 47.146 73.2919 46.9296 73.2919C46.6978 73.2919 46.4505 73.2919 46.2186 73.261L45.7858 73.1992C45.2757 73.1065 44.7811 72.9519 44.3019 72.7819H44.2556V72.7509ZM43.8691 72.8282C43.9773 72.8591 44.0855 72.9055 44.1937 72.9364H44.2401C44.642 73.091 45.0439 73.2147 45.4612 73.3074L45.3221 80.1085C44.812 79.9694 44.3019 79.8303 43.7918 79.7066L43.8846 72.8282H43.8691ZM47.6097 73.4929C48.0271 73.5238 48.4444 73.6011 48.8618 73.7093V81.0514C48.3362 80.9123 47.8261 80.7732 47.3006 80.634L47.3315 73.4774C47.4243 73.4774 47.517 73.4774 47.6097 73.4774V73.4929ZM67.7194 76.8471L67.5648 84.251C66.9774 84.2665 66.3437 84.2819 65.6636 84.2819L65.7563 76.9707C66.421 76.9398 67.0702 76.8934 67.7194 76.8471ZM69.3115 76.6925C70.0534 76.6152 70.7799 76.5225 71.5064 76.4297L71.3673 84.0191C70.749 84.0655 70.1461 84.0964 69.5279 84.1428L69.6206 76.6925H69.3115ZM78.9412 75.425L78.8176 83.1536C78.2611 83.2463 77.7047 83.339 77.1482 83.4163V75.6878L78.9412 75.4405V75.425ZM82.3572 82.5198C81.8317 82.628 81.3216 82.7362 80.7961 82.829V75.1622L82.4963 74.9304L82.3572 82.5198ZM75.2934 75.9351L75.1542 83.6636C74.5514 83.7409 73.9486 83.8027 73.3458 83.8646V76.2133C73.794 76.1515 74.2268 76.0897 74.6751 76.0278L75.2934 75.9351ZM63.8397 77.048L63.7005 84.251C63.2677 84.2355 62.8195 84.2046 62.3712 84.1583C62.1703 84.1428 61.9694 84.0964 61.753 84.081L61.8457 77.0171C62.5104 77.048 63.175 77.048 63.8242 77.048H63.8397ZM52.4014 82.0097C51.8604 81.8706 51.3194 81.716 50.7784 81.5769L50.8093 74.4203C51.0103 74.513 51.2267 74.6058 51.4276 74.6985C51.7677 74.8531 52.0923 74.9922 52.4323 75.1313V82.0097H52.4014ZM54.3799 75.8269C54.9518 75.9969 55.5238 76.167 56.1111 76.2906L56.0338 82.9526C55.4619 82.8135 54.89 82.6589 54.3181 82.5044L54.3799 75.8269ZM59.9445 76.8934L59.8363 83.7873C59.2025 83.6791 58.5688 83.5554 57.9351 83.4163L57.9969 76.6616C58.6461 76.7543 59.2798 76.8316 59.929 76.8934H59.9445ZM86.206 81.0205C85.4486 81.1905 84.7994 81.3914 84.2894 81.5769L84.3357 74.6676L86.237 74.4048C86.237 74.4048 86.2833 74.4048 86.2988 74.4048L86.206 81.0205Z" fill="#00A9E7"/>
<path d="M38.6446 78.6246C39.0774 78.7019 39.4793 78.7792 39.8348 78.872C39.5875 77.2181 39.7112 75.6105 40.0358 74.0648C40.144 73.5547 40.2985 73.0601 40.4376 72.55V71.6844C40.4376 71.6844 40.5768 71.7308 40.654 71.7617C40.6695 71.6999 40.7004 71.6226 40.7159 71.5608C39.603 71.1898 38.5055 70.8497 37.3926 70.4942L37.0371 70.386C36.156 70.1078 35.275 69.8296 34.4094 69.5668L34.3012 69.5359V69.5977L34.2857 69.6441C34.2857 69.6905 34.2857 69.7368 34.2703 69.7832C33.822 72.2409 33.9611 74.6831 34.6567 76.4916C34.8731 77.0635 35.2904 77.4654 35.8005 77.7591C35.816 77.7591 35.8469 77.7745 35.8624 77.79C36.6661 78.2382 37.6863 78.4237 38.6446 78.6092V78.6246ZM35.4141 70.0923V77.2026C35.1668 76.9862 34.9658 76.7389 34.8422 76.4143C34.1466 74.6367 34.0075 72.2254 34.4558 69.7987C34.7649 69.8914 35.0895 69.9996 35.3986 70.0923H35.4141ZM38.4591 78.3773C38.0418 78.3001 37.6245 78.2073 37.2071 78.0991L37.3771 70.7106C37.779 70.8343 38.1655 70.9579 38.5673 71.0816L38.4591 78.3773Z" fill="#00A9E7"/>
<path d="M84.3357 103.325C84.3357 103.325 84.4285 103.372 84.4903 103.372C84.614 103.372 84.7222 103.294 84.7994 103.202C84.8767 103.078 84.8922 102.923 84.8922 102.8C84.9231 102.166 84.9231 101.532 84.9076 100.898C84.7685 100.867 84.6449 100.837 84.5058 100.806C84.3821 101.501 84.2584 102.181 84.1812 102.877C84.1812 102.954 84.1502 103.202 84.3203 103.325H84.3357Z" fill="white"/>
<path d="M82.3264 103.34C82.3264 103.34 82.4346 103.387 82.4809 103.387C82.6046 103.387 82.7128 103.31 82.7901 103.217C82.8828 103.093 82.8828 102.923 82.8828 102.815C82.9137 102.15 82.9137 101.439 82.9137 100.744C82.821 100.728 82.7283 100.713 82.6355 100.666C82.6046 100.651 82.5737 100.62 82.5428 100.589C82.4037 101.347 82.2645 102.104 82.1873 102.877C82.1873 102.97 82.1563 103.217 82.3264 103.325V103.34Z" fill="white"/>
<path d="M88.4628 104.16C88.4628 104.16 88.5556 104.206 88.6174 104.206C88.7411 104.206 88.8493 104.129 88.9266 104.036C89.0193 103.913 89.0193 103.742 89.0193 103.634C89.0502 103.093 89.0348 102.537 89.0348 101.996C88.9575 101.996 88.8956 102.027 88.8184 102.027C88.7411 102.027 88.6638 102.027 88.5865 102.011C88.4938 102.583 88.3856 103.14 88.3237 103.727C88.3237 103.82 88.2928 104.052 88.4628 104.175V104.16Z" fill="white"/>
<path d="M86.4533 104.16C86.4533 104.16 86.5615 104.206 86.6079 104.206C86.7315 104.206 86.8397 104.129 86.917 104.036C86.9943 103.913 87.0098 103.758 87.0098 103.634C87.0407 102.97 87.0407 102.305 87.0252 101.625C86.9016 101.579 86.7779 101.532 86.6543 101.486C86.5151 102.228 86.3915 102.97 86.3142 103.712C86.3142 103.804 86.2833 104.036 86.4533 104.16Z" fill="white"/>
<path d="M84.3203 93.5872C84.1967 94.0663 84.073 94.5455 83.9185 95.0247L90.9978 95.1174C91.0905 94.6073 91.1833 94.0972 91.276 93.5872H84.3203Z" fill="white"/>
<path d="M84.9694 90.3258C84.8921 90.8668 84.7994 91.3924 84.6912 91.9334H91.585C91.6623 91.3924 91.7241 90.8359 91.8014 90.2949L84.9694 90.3258Z" fill="white"/>
<path d="M83.3619 96.7249C83.1764 97.2195 82.9754 97.7141 82.759 98.1933L90.3485 98.286C90.4567 97.8069 90.5958 97.3277 90.6885 96.8485L83.3464 96.7249H83.3619Z" fill="white"/>
<path d="M85.6031 85.4105H92.3578C92.4042 84.9004 92.4351 84.3903 92.466 83.8647H86.4687C86.345 84.1121 86.2214 84.3439 86.0823 84.5912C85.9277 84.8695 85.7577 85.1322 85.5876 85.4105H85.6031Z" fill="white"/>
<path d="M92.0178 88.6409C92.0796 88.1308 92.1569 87.6053 92.2188 87.0952H85.294C85.2785 87.6208 85.2322 88.1308 85.1858 88.6409H92.0178Z" fill="white"/>
<path d="M89.5293 101.718C89.6838 101.161 89.792 100.589 89.9311 100.033L82.3572 99.9092C82.3881 100.156 82.4963 100.373 82.7282 100.497C82.96 100.62 83.2382 100.605 83.5474 100.574C83.6247 100.574 83.6865 100.574 83.7638 100.574C83.8256 100.574 83.872 100.574 83.9338 100.574C84.7994 100.574 85.6495 100.898 86.4688 101.223C87.5353 101.64 88.54 102.027 89.5447 101.733L89.5293 101.718Z" fill="white"/>
<path d="M85.2786 83.8647C85.2786 83.8647 85.2786 83.9111 85.2786 83.942C85.2786 83.9111 85.3095 83.8957 85.3249 83.8647H85.2786Z" fill="white"/>
<path d="M86.5924 81.1443C85.6959 81.3452 84.8767 81.5616 84.2893 81.7935V81.8399C84.2893 81.8399 84.4284 82.0099 84.4903 82.1026H86.1905C86.3296 81.7935 86.4688 81.4689 86.5924 81.1443Z" fill="white"/>
<path d="M87.2881 82.1334L92.5899 82.1952C92.5899 81.9633 92.6362 81.7315 92.6362 81.4996C92.6517 81.1287 92.7753 80.6495 93.0381 80.3867C92.9454 80.3867 92.8526 80.3867 92.7444 80.3867C91.3842 80.3867 89.483 80.6031 87.7363 80.9277C87.5972 81.3451 87.4581 81.7469 87.3035 82.1488L87.2881 82.1334Z" fill="white"/>
<path d="M40.8859 64.7133C40.2058 65.2542 40.4067 66.6918 41.3341 67.9438C41.4887 68.1602 41.6742 68.3457 41.8442 68.5157C41.7051 68.8094 41.566 69.1031 41.4578 69.3813C41.195 70.0923 40.9477 70.8188 40.7158 71.5607C40.7004 71.6226 40.6695 71.6844 40.654 71.7617C40.5767 72.0244 40.5149 72.3027 40.4376 72.5654C40.2985 73.0601 40.1439 73.5547 40.0357 74.0802C39.7111 75.6259 39.572 77.2335 39.8348 78.8874C39.8348 78.9647 39.8348 79.0574 39.8657 79.1347C40.2521 81.3141 41.2723 83.2926 42.4625 85.1011C42.8335 85.673 43.2199 86.214 43.6063 86.755C43.7918 87.0023 44.1164 87.0642 44.3482 86.8941C44.5801 86.7241 44.611 86.3841 44.4255 86.1213C44.0391 85.5958 43.6681 85.0702 43.3126 84.5138C42.1997 82.8135 41.2877 81.0359 40.9322 79.1656C40.9322 79.1192 40.9013 79.0729 40.9013 79.011C40.9013 78.9801 40.9013 78.9647 40.9013 78.9338C40.654 77.419 40.7622 75.9042 41.0868 74.3894C41.2414 73.6629 41.4423 72.9364 41.6742 72.2099C41.6742 72.1636 41.7051 72.1326 41.7205 72.0863C41.736 72.0244 41.7669 71.9626 41.7824 71.8853C41.9988 71.1898 42.2461 70.5096 42.4934 69.8295C42.5707 69.5977 42.6634 69.3658 42.7716 69.134C43.1581 69.3349 43.5445 69.4122 43.8536 69.3658C44.0082 69.3349 44.1628 69.2885 44.2864 69.1958C44.9665 68.6548 44.7656 67.2173 43.8382 65.9653C43.6681 65.7334 43.4672 65.5325 43.2663 65.347C42.4316 64.5587 41.4732 64.265 40.9168 64.6978L40.8859 64.7133Z" fill="#201E1E"/>
<path d="M87.2571 78.4237C87.1644 79.3511 86.9171 80.2476 86.5925 81.1441C86.4688 81.4687 86.3297 81.7933 86.1906 82.1179C85.9278 82.7053 85.6496 83.2926 85.325 83.8646C85.325 83.8955 85.2941 83.9109 85.2786 83.9418C85.2477 83.9882 85.2322 84.0346 85.2168 84.0655C85.1704 84.1428 85.124 84.2046 85.0777 84.2819C84.7994 84.7765 84.5058 85.2557 84.2121 85.7349C84.0421 85.9976 84.1039 86.3377 84.3357 86.4923C84.5676 86.6468 84.8922 86.5695 85.0622 86.3068C85.0777 86.2759 85.0931 86.2449 85.1086 86.2295C85.2786 85.9667 85.4332 85.673 85.6032 85.3948C85.7732 85.1166 85.9278 84.8538 86.0978 84.5756C86.237 84.3437 86.3452 84.0964 86.4843 83.8491C86.778 83.2772 87.0562 82.7053 87.3035 82.1179C87.4735 81.716 87.6126 81.3141 87.7363 80.8968C87.8909 80.4176 88.0145 79.9385 88.1073 79.4438C88.1691 79.1038 88.2464 78.7792 88.2928 78.4391C88.4164 77.2798 88.3391 76.1669 88.1382 75.0849C88.0764 74.6985 87.9991 74.3275 87.9063 73.9566C87.86 73.7711 87.829 73.5856 87.7672 73.4156C87.319 71.8235 86.6543 70.2932 86.0206 68.8403C85.8969 68.5621 85.7423 68.2838 85.5878 67.9901C85.7578 67.8047 85.9124 67.6037 86.0515 67.3873C86.8862 66.0889 86.9944 64.6205 86.2833 64.1413C85.5723 63.6467 84.3048 64.3114 83.4701 65.6098C82.6355 66.9081 82.5273 68.3766 83.2383 68.8557C83.6247 69.1185 84.1812 69.0412 84.7531 68.7012C84.8613 68.9176 84.9695 69.134 85.0777 69.3658C85.4177 70.1232 85.7423 70.8961 86.0515 71.6689C86.3297 72.38 86.577 73.091 86.778 73.802C86.8089 73.8947 86.8243 73.9875 86.8398 74.0802C87.2108 75.5023 87.4117 76.9243 87.2571 78.3927V78.4237Z" fill="#201E1E"/>
</svg>
