<svg width="128" height="128" viewBox="0 0 128 128" fill="none" xmlns="http://www.w3.org/2000/svg">
<g clip-path="url(#clip0_336_124)">
<g opacity="0.3" style="mix-blend-mode:multiply">
<path d="M89.4424 123.216C89.4424 121.188 82.0009 119.452 71.5004 118.747C71.5692 119.229 71.6551 119.693 71.7582 120.191C72.1535 120.38 72.4284 120.672 72.5144 121.033C72.755 121.961 71.7238 123.027 70.2115 123.422C68.6991 123.817 67.2727 123.388 67.0321 122.46C66.7915 121.532 67.8226 120.466 69.335 120.071C69.6787 119.985 70.0052 119.95 70.3146 119.933C70.2287 119.504 70.1599 119.091 70.1084 118.679C67.2727 118.524 64.2308 118.421 61.0686 118.421C57.9064 118.421 54.9848 118.507 52.1835 118.661C52.3898 118.833 52.5444 119.04 52.6132 119.297C52.8538 120.225 51.8226 121.291 50.3103 121.686C48.7979 122.081 47.3715 121.652 47.1309 120.724C46.9762 120.122 47.3543 119.469 48.0418 118.971C38.9333 119.779 32.6948 121.377 32.6948 123.25C32.6948 125.914 45.3951 128.062 61.0514 128.062C76.7077 128.062 89.408 125.914 89.408 123.25L89.4424 123.216Z" fill="#4D4D4F"/>
</g>
<path d="M27.2126 67.9117C27.2126 68.4445 27.2126 69.1835 27.2126 70.0428C27.2126 71.8129 27.2814 74.0642 27.4704 76.0234C27.5907 77.3295 27.7626 78.5154 27.986 79.3059C28.0376 79.4606 28.0891 79.5809 28.1407 79.7184C28.8281 77.8107 29.2234 75.8344 29.1546 73.7893C29.0859 71.9848 28.7078 70.2146 28.2266 68.4617C28.0719 68.3929 27.9173 68.3242 27.7798 68.2382C27.5907 68.1351 27.4017 68.0148 27.2126 67.8945V67.9117Z" fill="#2D306E"/>
<path d="M110.581 42.6486C108.055 43.422 104.48 43.9719 100.063 44.3328C99.9602 44.3328 99.8571 44.3328 99.754 44.35L98.8604 48.5777C106.714 46.8076 112.179 44.1782 113.898 40.9988C113.795 41.1019 113.675 41.205 113.554 41.2909C112.85 41.8065 111.853 42.2533 110.581 42.6486Z" fill="#2D306E"/>
<path d="M24.3768 39.16C21.5583 38.335 19.496 37.4242 18.3446 36.393C18.2243 36.2899 18.1212 36.1696 18.0181 36.0493C19.4273 39.4865 24.8408 42.7518 32.8151 45.3468L32.1964 40.9129C29.1888 40.363 26.5422 39.7786 24.3768 39.1428V39.16Z" fill="#2D306E"/>
<path d="M70.0224 114.365C69.9193 115.637 69.9193 117.098 70.1255 118.644C70.1771 119.057 70.2458 119.469 70.3317 119.899C70.0224 119.899 69.6959 119.95 69.3521 120.036C67.8398 120.432 66.8086 121.497 67.0492 122.425C67.2898 123.353 68.7163 123.783 70.2286 123.388C71.741 122.992 72.7721 121.927 72.5315 120.999C72.4456 120.638 72.1534 120.346 71.7753 120.157C71.6722 119.676 71.5863 119.194 71.5176 118.713C71.2941 117.132 71.2941 115.654 71.4144 114.365C70.9504 114.365 70.5036 114.365 70.0396 114.348L70.0224 114.365Z" fill="#231F20"/>
<path d="M47.1654 120.689C47.406 121.617 48.8324 122.047 50.3447 121.652C51.8571 121.257 52.8882 120.191 52.6476 119.263C52.5789 119.022 52.4242 118.799 52.218 118.627C52.1321 118.558 52.029 118.49 51.9087 118.421C51.4103 115.637 51.6681 112.629 51.9946 110.533C51.5306 110.515 51.0837 110.515 50.6197 110.515C50.3104 112.56 50.087 115.396 50.4994 118.146C50.1729 118.146 49.8292 118.197 49.4855 118.283C48.9527 118.421 48.4887 118.644 48.1106 118.919C47.4232 119.418 47.0279 120.071 47.1997 120.672L47.1654 120.689Z" fill="#231F20"/>
<path d="M44.2437 58.0298L44.8452 64.3542C46.7528 63.6152 48.5401 62.6528 50.2759 61.5701C49.0385 60.5733 47.5777 59.8687 46.1513 59.1125C45.4982 58.7688 44.8623 58.4079 44.2437 58.0298Z" fill="#E15554"/>
<path d="M45.8419 65.1448C45.4982 65.0245 45.1888 64.8699 44.8623 64.698L44.931 65.5057C45.2404 65.3854 45.5326 65.2651 45.8247 65.1276L45.8419 65.1448Z" fill="#E15554"/>
<path d="M65.3478 65.5916C65.2447 65.5916 65.1416 65.5916 65.0213 65.5572C62.8731 65.3166 61.2061 63.8386 60.7077 61.9998C59.539 62.6184 58.3532 63.2543 57.1846 63.873C58.0439 65.2307 58.8344 66.6399 59.4875 68.1179C59.9515 69.1491 60.7249 70.4208 61.8247 70.1802C62.7528 69.974 63.0793 68.8397 63.2684 67.9117C63.4746 66.9836 63.9558 65.8494 64.9182 65.8494H65.2103C66.104 66.0212 66.5165 66.7774 66.7227 67.6023C66.9805 67.9804 67.1352 68.4616 67.2383 68.9428C67.2726 69.1319 67.3242 69.3381 67.3758 69.5443C67.582 69.8709 67.8398 70.1286 68.2179 70.2318C69.3178 70.4895 70.1255 69.2522 70.6067 68.221C71.2254 66.8805 71.9816 65.6088 72.7721 64.3714C71.9128 63.7871 71.0535 63.2028 70.1942 62.6184C69.4552 64.4573 67.5304 65.6947 65.3306 65.5916H65.3478Z" fill="#E15554"/>
<path d="M40.5316 64.8354C40.1191 64.8526 39.7066 64.887 39.2942 64.9214C39.7066 64.887 40.1363 64.8526 40.5316 64.8354Z" fill="#E15554"/>
<path d="M44.3123 65.5229C43.9343 65.3166 43.5562 65.1791 43.1609 65.0588C43.539 65.162 43.9343 65.3166 44.3123 65.5229Z" fill="#E15554"/>
<path d="M43.058 65.0416C42.6799 64.9385 42.319 64.8869 41.9409 64.8525C42.319 64.8869 42.6971 64.9385 43.058 65.0416Z" fill="#E15554"/>
<path d="M32.2652 40.9299C32.2652 40.9299 32.2308 40.9299 32.2136 40.9299L32.8323 45.3639L32.987 46.481C32.987 46.481 33.0214 46.4981 33.0385 46.5153L32.2652 40.9471V40.9299Z" fill="#E15554"/>
<path d="M50.4133 66.6227C49.8977 66.6914 49.365 66.7086 48.8494 66.6743C47.4917 66.6055 46.1341 66.2102 44.9482 65.54L44.9826 65.9181C44.7592 65.7634 44.5358 65.6259 44.2952 65.5056C46.4262 66.6743 48.1448 68.7194 49.7259 70.5239C49.8118 70.6098 49.8806 70.7129 49.9665 70.7989C50.2758 69.2693 50.757 67.7913 51.4445 66.3821C51.1008 66.468 50.757 66.5368 50.4133 66.5711V66.6227Z" fill="#E15554"/>
<path d="M95.9558 52.4273C95.2856 53.2006 94.8387 54.1287 94.2028 54.9192C92.9998 56.4316 91.1094 57.4283 89.4596 58.3736C87.6894 59.3875 85.8333 60.2812 83.9429 61.0545C82.3962 61.6732 80.8495 62.2576 79.4746 63.1684C81.176 64.4917 82.9461 65.7119 84.8538 66.6743C84.5788 66.7946 84.2694 66.8805 83.9773 66.9665C84.4069 67.2071 84.8366 67.4649 85.2834 67.6883C84.0288 68.2382 82.654 68.4788 81.2963 68.4101C80.7463 68.3757 80.2136 68.307 79.6808 68.1695C79.5605 68.1351 79.423 68.1007 79.3027 68.0664C79.8871 69.3897 80.2995 70.7817 80.5401 72.2081C82.19 70.7817 83.8054 69.3381 85.4209 67.8773C86.5552 66.8634 87.8269 65.8322 89.408 65.7119C91.075 65.5744 92.553 66.5368 93.7732 67.568C94.0825 67.8258 94.3919 68.1007 94.684 68.3757L98.5337 50.1072L98.4821 50.3478C97.5369 50.9149 96.6776 51.5852 95.9558 52.4273Z" fill="#E15554"/>
<path d="M35.6336 65.4886L33.1245 47.2372C33.1245 47.2372 33.0901 47.22 33.0729 47.2029L33.0386 46.9451L35.6164 65.5058C35.8399 65.437 36.0633 65.3683 36.3039 65.3167C36.0805 65.3683 35.857 65.4198 35.6336 65.4714V65.4886Z" fill="#E15554"/>
<path d="M65.7776 44.3155C57.4425 43.8859 49.6229 43.2672 42.783 42.4595L44.1922 57.3768C45.378 58.0814 46.5982 58.7344 47.8356 59.3875C48.8839 59.9375 49.8807 60.5218 50.7572 61.2608C51.9258 60.5218 53.0773 59.7484 54.1943 58.9407C55.5177 57.9955 56.8753 56.9987 58.4221 56.5175C60.3641 55.916 63.3888 54.8504 64.4371 57.5658C64.4371 57.5658 64.4371 57.7205 64.4371 57.8064C64.609 58.0298 64.7464 58.2704 64.8667 58.5798C65.0902 59.1985 64.3512 60.0578 63.6122 60.453C63.5262 60.5046 63.4403 60.539 63.3544 60.5905L67.9946 61.1061C67.754 60.9342 67.4962 60.7624 67.2556 60.5905C66.6884 60.1952 66.1729 59.5078 66.1729 58.9407C65.812 58.4938 65.5885 57.9611 65.7948 57.583C67.1353 54.9879 70.1084 56.2081 71.8957 57.1877C73.9409 58.3048 74.6283 58.975 75.8313 60.0578C76.8796 61.003 77.9623 61.9138 79.0622 62.7903C80.0418 62.1201 81.1417 61.6045 82.276 61.1405C84.4929 60.2468 86.6584 59.336 88.755 58.1673C90.783 57.0331 92.9827 55.8472 94.306 53.888C95.4919 52.1351 96.6777 50.7602 98.5509 49.7119C98.5853 49.7119 98.6025 49.6775 98.6369 49.6775L98.8775 48.5604L99.7711 44.3327C90.9892 45.0373 79.0107 44.9686 65.7776 44.2984V44.3155ZM54.9677 54.3349C54.0053 54.3864 53.1632 53.1662 53.0773 51.6195C52.9913 50.0728 53.696 48.7667 54.6584 48.7151C55.6208 48.6636 56.4629 49.8837 56.5488 51.4305C56.6347 52.9772 55.9301 54.2833 54.9677 54.3349ZM73.7518 54.0255C72.7894 54.0771 71.9473 52.8569 71.8614 51.3102C71.7754 49.7634 72.4801 48.4573 73.4425 48.4058C74.4049 48.3542 75.247 49.5744 75.3329 51.1211C75.4188 52.6678 74.7142 53.974 73.7518 54.0255Z" fill="#E15554"/>
<path d="M44.9484 65.5573C44.9484 65.5573 44.914 65.5401 44.8968 65.5229C44.8968 65.5229 44.9312 65.5229 44.9484 65.5229L44.8796 64.7152C44.7421 64.6464 44.6046 64.5949 44.4843 64.5261C44.6046 64.4746 44.7249 64.423 44.8452 64.3715L44.2437 58.0471C43.1095 57.3768 42.0096 56.655 40.9441 55.8989C39.3973 54.7818 37.6272 53.6131 36.5789 51.9805C36.0289 51.1212 35.668 50.1588 35.0837 49.3167C34.5337 48.5261 33.8635 47.8387 33.1245 47.2544L35.6336 65.5057C35.8571 65.437 36.0805 65.3854 36.3039 65.3511C37.2835 65.162 38.2974 65.0417 39.2942 64.9558C39.7067 64.9214 40.1363 64.887 40.5316 64.8699C40.6519 64.8699 40.7722 64.8699 40.8925 64.8699C41.1503 64.8699 41.4081 64.8527 41.6659 64.8699C41.7002 64.8699 41.7518 64.8699 41.7862 64.8699C41.8377 64.8699 41.8893 64.8699 41.9408 64.8699C42.3189 64.9042 42.697 64.9558 43.0579 65.0589C43.0923 65.0589 43.1267 65.0761 43.161 65.0933C43.5391 65.1964 43.9344 65.3511 44.3125 65.5573C44.5531 65.6776 44.7765 65.8151 44.9999 65.9698L44.9655 65.5917L44.9484 65.5573Z" fill="#CF494A"/>
<path d="M36.5961 50.9322C37.7131 53.0289 39.7754 54.4209 41.6659 55.7614C42.4908 56.3286 43.3157 56.8613 44.175 57.3769L42.7658 42.4596C38.9161 42.0128 35.3759 41.4972 32.248 40.9473L33.0214 46.5155C34.6369 47.7013 35.6337 49.1621 36.5961 50.9322Z" fill="#CF494A"/>
<path d="M97.1415 87.9849C97.1244 88.2598 97.0728 88.5004 97.0212 88.7754C97.3478 88.7582 97.6915 88.7754 98.0524 88.827C98.1039 88.827 98.1555 88.8441 98.1899 88.8613C98.2242 88.5864 98.2586 88.3286 98.2758 88.088C98.3102 87.7443 98.3274 87.4005 98.3445 87.0568C97.9665 86.9881 97.5884 86.9709 97.1931 86.9365C97.1759 87.2974 97.1587 87.6411 97.1244 88.002L97.1415 87.9849Z" fill="#231F20"/>
<path d="M73.4424 48.3885C72.48 48.4401 71.7754 49.7462 71.8613 51.2929C71.9473 52.8397 72.7894 54.0599 73.7518 54.0083C74.7142 53.9567 75.4188 52.6506 75.3329 51.1039C75.2469 49.5572 74.4048 48.337 73.4424 48.3885Z" fill="#231F20"/>
<path d="M54.6583 48.7152C53.6959 48.7668 52.9912 50.0729 53.0772 51.6196C53.1631 53.1663 54.0052 54.3865 54.9676 54.335C55.93 54.2834 56.6346 52.9773 56.5487 51.4306C56.4628 49.8838 55.6207 48.6636 54.6583 48.7152Z" fill="#231F20"/>
<path d="M26.6627 67.0182H26.6455H26.9205L26.6627 67.1385L27.1783 66.8807V66.9494L27.2127 66.9666V67.001V67.0697C27.2127 67.1041 27.2127 67.1728 27.2127 67.2416C27.2127 67.2588 27.2127 67.3103 27.2127 67.3275C27.3501 67.2759 27.522 67.2416 27.6767 67.2416C27.7454 67.2416 27.8142 67.2416 27.8829 67.2416C27.8829 67.2416 27.8829 67.2072 27.8829 67.19C27.8829 67.1557 27.8829 67.1213 27.8829 67.0869C27.8829 67.0525 27.8485 67.0182 27.8485 66.9666C26.5596 66.2448 25.305 65.3855 24.0848 64.509C23.8614 64.3544 23.6552 64.1997 23.449 64.0278C23.2943 64.32 23.1224 64.595 22.8818 64.8699C22.8475 64.9043 22.8303 64.9215 22.7959 64.9559C23.0021 65.1277 23.2084 65.3168 23.3974 65.4543C24.4286 66.1932 25.5113 66.915 26.6283 67.5853C26.6283 67.2931 26.6283 67.0869 26.6283 67.0354H26.6455L26.6627 67.0182Z" fill="#231F20"/>
<path d="M27.2297 67.3275C27.2297 67.465 27.2297 67.6368 27.2297 67.8602C27.2297 67.8602 27.2297 67.8946 27.2297 67.9118C27.4188 68.0149 27.6078 68.1524 27.7969 68.2555C27.9515 68.3243 28.089 68.393 28.2437 68.4789C28.1234 68.0665 28.0203 67.6368 27.9 67.2244C27.8312 67.2244 27.7625 67.2244 27.6938 67.2244C27.5391 67.2244 27.3844 67.2587 27.2297 67.3103V67.3275Z" fill="#2D306E"/>
<path d="M27.2297 67.3275C27.2297 67.465 27.2297 67.6368 27.2297 67.8602C27.2297 67.8602 27.2297 67.8946 27.2297 67.9118C27.4188 68.0149 27.6078 68.1524 27.7969 68.2555C27.9515 68.3243 28.089 68.393 28.2437 68.4789C28.1234 68.0665 28.0203 67.6368 27.9 67.2244C27.8312 67.2244 27.7625 67.2244 27.6938 67.2244C27.5391 67.2244 27.3844 67.2587 27.2297 67.3103V67.3275Z" fill="#231F20"/>
<path d="M27.2125 67.9118C27.2125 67.9118 27.2125 67.8774 27.2125 67.8602C27.2125 67.6368 27.2125 67.4649 27.2125 67.3274C27.2125 67.2931 27.2125 67.2587 27.2125 67.2415C27.2125 67.1728 27.2125 67.104 27.2125 67.0697V67.0181V66.9837L27.1954 66.8806L26.6798 67.1384L26.9376 67.0181H26.6626C26.6626 67.0697 26.6626 67.2759 26.6626 67.568C26.8516 67.6883 27.0407 67.8086 27.2469 67.9118H27.2125Z" fill="#62638E"/>
<path d="M27.2125 67.9118C27.2125 67.9118 27.2125 67.8774 27.2125 67.8602C27.2125 67.6368 27.2125 67.4649 27.2125 67.3274C27.2125 67.2931 27.2125 67.2587 27.2125 67.2415C27.2125 67.1728 27.2125 67.104 27.2125 67.0697V67.0181V66.9837L27.1954 66.8806L26.6798 67.1384L26.9376 67.0181H26.6626C26.6626 67.0697 26.6626 67.2759 26.6626 67.568C26.8516 67.6883 27.0407 67.8086 27.2469 67.9118H27.2125Z" fill="#231F20"/>
<path d="M21.3866 63.2199C21.2663 62.9278 21.2148 62.6012 21.2148 62.2403C21.2148 61.9138 21.4897 61.6732 21.8163 61.6904C22.1256 61.6904 22.3834 61.9653 22.3662 62.2747C22.3662 62.4637 22.3834 62.6356 22.4522 62.7903C22.5553 63.0824 22.7787 63.3746 23.0708 63.6667C23.1911 63.787 23.3114 63.8902 23.4489 63.9933C23.9473 63.0309 23.9817 62.0341 23.4146 61.5529C22.8474 61.0717 21.885 61.2264 21.0085 61.8622C21.2491 63.1684 21.5069 64.4573 21.7475 65.7634C22.1084 65.5572 22.4693 65.2822 22.7959 64.9213C22.6068 64.7666 22.435 64.6463 22.2631 64.4917C21.9022 64.1308 21.5757 63.7183 21.3694 63.2027L21.3866 63.2199Z" fill="#231F20"/>
<path d="M23.4488 64.0278C23.3113 63.9246 23.191 63.8043 23.0707 63.7012C22.7785 63.4091 22.5551 63.1169 22.452 62.8247C22.3832 62.6529 22.3489 62.481 22.366 62.3092C22.366 61.9998 22.1254 61.7249 21.8161 61.7249C21.5068 61.7249 21.2318 61.9655 21.2146 62.2748C21.2146 62.6185 21.2662 62.945 21.3865 63.2544C21.5755 63.77 21.9192 64.1824 22.2801 64.5433C22.452 64.7152 22.641 64.8355 22.8129 64.973C22.8473 64.9386 22.8644 64.9214 22.8988 64.887C23.1394 64.6121 23.3113 64.3371 23.4659 64.0449L23.4488 64.0278Z" fill="#231F20"/>
<path d="M23.4488 64.0278C23.3113 63.9246 23.191 63.8043 23.0707 63.7012C22.7785 63.4091 22.5551 63.1169 22.452 62.8247C22.3832 62.6529 22.3489 62.481 22.366 62.3092C22.366 61.9998 22.1254 61.7249 21.8161 61.7249C21.5068 61.7249 21.2318 61.9655 21.2146 62.2748C21.2146 62.6185 21.2662 62.945 21.3865 63.2544C21.5755 63.77 21.9192 64.1824 22.2801 64.5433C22.452 64.7152 22.641 64.8355 22.8129 64.973C22.8473 64.9386 22.8644 64.9214 22.8988 64.887C23.1394 64.6121 23.3113 64.3371 23.4659 64.0449L23.4488 64.0278Z" fill="#231F20"/>
<path d="M17.9323 34.4508C17.9151 34.932 18.1557 35.4303 18.74 35.9631C19.3243 36.4787 20.2352 37.0114 21.421 37.5098C23.7926 38.5066 27.2985 39.4346 31.6637 40.2424C40.3597 41.8578 52.4586 43.0609 65.8119 43.7483C83.3415 44.6591 98.7056 44.4529 107.213 42.8718C110.048 42.339 112.128 41.6516 113.21 40.8439C113.846 40.3799 114.138 39.9158 114.156 39.4346C114.19 38.9534 113.932 38.4207 113.348 37.8535C112.764 37.2864 111.87 36.7021 110.701 36.135C108.347 34.7945 103.346 31.8729 95.4575 26.8546C88.1707 21.5958 83.8914 18.193 80.5058 15.3573C80.3683 15.237 80.2137 15.1167 80.059 14.9792C79.0794 14.1543 78.1685 13.3809 77.2749 12.6248C75.0579 10.5625 74.4392 9.39383 74.2674 8.87825V8.86107C74.1471 8.43142 74.1127 8.05334 74.1299 7.7268C74.1643 7.10811 74.3877 6.67847 74.6455 6.42068H74.6626L74.6798 6.38631C74.8345 6.26601 74.9892 6.18008 75.1267 6.07697C75.9172 5.66451 76.5703 5.57858 76.9999 5.59576C77.103 5.59576 77.1718 5.59576 77.2577 5.63013C77.7561 5.73325 78.3576 5.95667 78.8904 6.42068H78.9075V6.45505L79.0107 6.54098C79.1653 6.71284 79.32 6.90189 79.4575 7.09093L79.5606 7.2456C79.5606 7.2456 79.6465 7.38309 79.6809 7.43465V7.45183C79.7325 7.57213 79.7668 7.69243 79.8012 7.82992V7.86429V7.89866C79.8012 7.93303 79.8184 7.96741 79.8699 8.01896C79.9215 8.07052 80.0074 8.10489 80.1105 8.10489C80.2308 8.10489 80.3683 8.07052 80.523 7.93303C80.6605 7.77836 80.8152 7.52058 80.9011 7.05656V6.98781C80.9527 6.79877 80.9698 6.60973 80.987 6.43787C81.0214 5.73325 80.798 5.08019 80.4027 4.4615C80.0074 3.84281 79.4059 3.27568 78.7357 2.79447C77.378 1.81488 75.6594 1.14463 74.422 0.921219C73.958 0.83529 73.3737 0.766547 72.6863 0.714989C70.4006 0.594688 67.1181 0.955591 64.1621 2.98352C61.8764 4.54743 59.9516 7.22842 56.8925 10.4594C53.8334 13.6903 49.6401 17.4712 42.7486 21.252C40.0332 22.6441 36.7679 23.9846 34.3447 24.9298C33.3479 25.2735 32.1449 25.7204 30.8732 26.2187H30.856C26.6283 27.903 21.4382 30.3605 18.8947 33.0243V33.0415C18.465 33.4196 18.2244 33.7805 18.1041 34.0383C17.9838 34.2961 17.9494 34.5023 17.9494 34.5195L17.9323 34.4508ZM57.1847 12.3842C60.8452 9.49694 62.5466 4.65054 66.929 2.58824C68.407 1.90081 70.7786 1.35086 72.9784 1.47117C74.972 1.57428 76.8109 2.21016 77.7045 3.75688C78.0311 4.30683 77.5155 4.83959 77.0343 4.8224C76.8452 4.8224 76.6734 4.71929 76.5359 4.49587C75.8828 3.37879 74.3361 2.94915 72.7722 2.86322C71.4661 2.79447 70.1428 2.96633 69.2835 3.18975C67.3415 3.67095 65.7088 4.73647 64.334 6.18008C62.0654 8.56891 60.5187 11.4733 57.9065 13.5356C57.769 13.6387 57.6315 13.6903 57.5112 13.6731C56.9784 13.6387 56.6175 12.8138 57.1675 12.3842H57.1847ZM28.639 28.7107C28.7593 28.6591 28.8624 28.6248 28.9655 28.6419C29.5499 28.6763 29.8592 29.6215 29.2062 29.9481C27.8313 30.6527 26.4392 31.3573 25.0644 32.0619C23.8614 32.6806 21.2663 33.5227 22.8474 35.0179C23.6551 35.7741 25.6831 36.0834 26.7486 36.3928C28.2781 36.8396 29.842 37.1661 31.4059 37.4583C36.8195 38.4551 42.3017 38.8847 47.6465 40.208C48.4371 40.397 48.059 41.5313 47.3028 41.4969C47.2513 41.4969 47.1997 41.4969 47.1481 41.4798C39.6036 39.6065 31.6465 39.6409 24.2738 37.0458C22.899 36.5646 19.2556 35.5335 20.4758 33.2993C21.0085 32.3197 22.4349 31.8729 23.3458 31.4089C25.0987 30.5152 26.8689 29.6215 28.6218 28.7279L28.639 28.7107Z" fill="#5551A1"/>
<path d="M97.4166 90.9578C97.2276 91.2156 96.9698 91.439 96.6604 91.5937C96.3855 91.7484 96.0246 91.6453 95.8699 91.3703C95.7152 91.0953 95.8183 90.7344 96.0933 90.5797C96.248 90.4938 96.3855 90.3735 96.4886 90.236C96.6776 89.9954 96.8323 89.6517 96.9182 89.2564C96.9526 89.1018 96.9698 88.9299 96.987 88.7581C95.9043 88.8268 95.0622 89.308 94.9247 90.047C94.7528 90.9922 95.8699 91.9718 97.4166 92.2468C98.9633 92.5217 100.338 91.9546 100.51 91.0094C100.665 90.0985 99.6336 89.1533 98.1556 88.844C98.1212 89.0674 98.0869 89.2908 98.0353 89.5314C97.915 90.0298 97.726 90.5282 97.3822 90.9578H97.4166Z" fill="#231F20"/>
<path d="M97.0212 88.7581C97.004 88.9299 96.9869 89.1018 96.9525 89.2565C96.8494 89.6517 96.7119 89.9955 96.5228 90.2361C96.4025 90.3736 96.2822 90.4938 96.1276 90.5798C95.8526 90.7344 95.7495 91.0782 95.9041 91.3703C96.0588 91.6453 96.4025 91.7484 96.6947 91.5937C97.004 91.4219 97.2446 91.1985 97.4509 90.9579C97.7946 90.5282 97.9836 90.0298 98.1039 89.5314C98.1555 89.308 98.1899 89.0674 98.2242 88.844C98.1727 88.844 98.1383 88.8268 98.0867 88.8096C97.7258 88.7409 97.3821 88.7409 97.0556 88.7581H97.0212Z" fill="#231F20"/>
<path d="M97.0212 88.7581C97.004 88.9299 96.9869 89.1018 96.9525 89.2565C96.8494 89.6517 96.7119 89.9955 96.5228 90.2361C96.4025 90.3736 96.2822 90.4938 96.1276 90.5798C95.8526 90.7344 95.7495 91.0782 95.9041 91.3703C96.0588 91.6453 96.4025 91.7484 96.6947 91.5937C97.004 91.4219 97.2446 91.1985 97.4509 90.9579C97.7946 90.5282 97.9836 90.0298 98.1039 89.5314C98.1555 89.308 98.1899 89.0674 98.2242 88.844C98.1727 88.844 98.1383 88.8268 98.0867 88.8096C97.7258 88.7409 97.3821 88.7409 97.0556 88.7581H97.0212Z" fill="#231F20"/>
<path d="M57.5284 13.6731C57.6487 13.6731 57.8034 13.6388 57.9237 13.5356C60.5359 11.4733 62.0827 8.56893 64.3512 6.18011C65.7261 4.7365 67.3587 3.67098 69.3007 3.18977C70.16 2.96636 71.4833 2.7945 72.7894 2.86324C74.3705 2.94917 75.9001 3.37882 76.5531 4.4959C76.6734 4.70213 76.8625 4.80524 77.0515 4.82243C77.5327 4.83961 78.0311 4.30685 77.7218 3.75691C76.8281 2.21018 74.9892 1.57431 72.9957 1.47119C70.7959 1.35089 68.4242 1.90084 66.9463 2.58827C62.5639 4.65057 60.8625 9.47978 57.2019 12.3842C56.6519 12.8138 57.0128 13.6559 57.5456 13.6731H57.5284Z" fill="#5D59A6"/>
<path d="M20.4929 33.2824C19.2727 35.5165 22.9161 36.5477 24.291 37.0289C31.6637 39.6239 39.6207 39.5896 47.1653 41.4628C47.2169 41.4628 47.2684 41.48 47.32 41.48C48.0761 41.5144 48.4542 40.3801 47.6637 40.1911C42.3189 38.8678 36.8366 38.4381 31.4231 37.4413C29.8592 37.1492 28.2953 36.8226 26.7657 36.3758C25.7002 36.0665 23.6723 35.7571 22.8645 35.0009C21.2663 33.5058 23.8785 32.6637 25.0815 32.045C26.4564 31.3404 27.8484 30.6357 29.2233 29.9311C29.8935 29.5874 29.5842 28.6422 28.9827 28.625C28.8796 28.625 28.7593 28.6422 28.6562 28.6937C26.9032 29.5874 25.1331 30.4811 23.3801 31.3747C22.4693 31.8387 21.06 32.2856 20.5101 33.2652L20.4929 33.2824Z" fill="#5D59A6"/>
<path d="M54.7615 90.0643C54.2803 89.3424 53.9366 88.5691 53.6272 87.7785C52.218 84.9085 51.9946 81.5401 51.9602 78.2576C51.5134 78.6529 50.9978 79.0138 50.4479 79.2372C50.3619 78.8591 50.3104 78.481 50.2416 78.1029C50.1557 78.1373 50.087 78.1889 50.0182 78.2232C49.537 76.1094 49.4855 73.9096 49.7948 71.7614C49.2792 71.1599 48.7808 70.5583 48.2309 69.974C46.6498 68.2383 44.6734 65.8838 42.1815 65.5573C40.6004 65.351 38.8646 65.6432 37.3179 65.8838C35.8227 66.1072 34.4307 66.7087 32.9527 66.9837C31.5435 67.2415 30.0827 67.2243 28.6562 67.293C29.2749 69.4241 29.8077 71.6067 29.8764 73.8408C29.9452 76.075 29.4812 78.2232 28.7078 80.3027C29.6874 81.1448 31.2169 80.5777 32.2481 80.0793C33.7089 79.3747 35.015 78.3779 36.1836 77.278C36.4586 77.0202 36.8539 77.3296 36.768 77.6561C36.0462 80.6292 35.8743 83.7227 36.3211 86.7474C36.7336 89.5659 37.7132 92.2469 38.16 95.0653C38.6068 97.901 38.16 100.599 37.4726 103.349C37.0945 104.861 36.493 106.614 35.0666 107.37C37.0257 108.608 39.1912 109.467 41.4941 109.828C43.7626 110.172 46.0311 109.948 48.2996 109.828C50.6713 109.69 53.0257 109.828 55.3802 110.12C56.2051 110.223 57.0129 110.361 57.8206 110.498C59.5735 106.374 60.6391 101.991 61.3781 97.5745C59.3501 94.3263 57.6144 90.8892 56.2223 87.3145C55.9989 88.3457 55.4833 89.2909 54.7615 90.0471V90.0643Z" fill="#5551A1"/>
<path d="M53.8335 110.67C55.0709 110.79 56.3082 110.979 57.5284 111.168C57.4081 111.443 57.305 111.701 57.1675 111.976C57.0816 112.148 57.2191 112.406 57.3909 112.44C61.5671 113.334 65.7604 114.193 70.0053 114.365C70.4522 114.382 70.9162 114.382 71.3802 114.382C72.5316 114.382 73.6831 114.348 74.8345 114.227C80.4887 113.626 86.2287 111.701 91.9001 113.11C92.1922 113.179 92.5188 112.887 92.3297 112.595C91.0064 110.361 89.9065 108.195 89.8206 105.531C89.7347 102.936 89.9237 100.29 90.1127 97.6947C90.4221 92.9858 91.3501 88.3456 92.2266 83.7055C92.4156 84.7194 92.4672 85.7506 92.3985 86.7989C92.3813 87.0395 92.6219 87.2285 92.8453 87.177C94.2889 86.8505 95.7325 86.7817 97.1761 86.902C97.5542 86.9364 97.9495 86.9536 98.3276 87.0223C98.8947 87.1082 99.4618 87.2285 100.012 87.4004C100.235 87.4691 100.476 87.3145 100.493 87.0739C100.545 84.9772 100.63 82.8977 100.613 80.801C100.613 79.0137 100.424 77.2436 99.8055 75.5422C98.7916 72.7753 96.8324 70.3693 94.667 68.3585C94.3748 68.0835 94.0655 67.8086 93.7561 67.5508C92.5359 66.5024 91.058 65.5572 89.3909 65.6947C87.8098 65.815 86.5381 66.8462 85.4038 67.8601C83.7884 69.3209 82.1557 70.7645 80.5231 72.191C80.5746 72.4659 80.609 72.7581 80.6434 73.0331C81.5026 72.2941 82.3791 71.5551 83.2212 70.8161C84.493 69.6818 85.7132 68.3929 87.1052 67.3961C88.6863 66.2447 90.3877 66.1415 92.0719 67.2071C93.4812 68.1007 94.7014 69.3725 95.8012 70.6099C96.9011 71.83 97.8807 73.1534 98.6025 74.6313C100.407 78.3091 99.8915 82.6399 99.754 86.627C97.5714 86.0599 95.32 85.9912 93.1203 86.4208C93.189 84.8913 93 83.3789 92.5188 81.9181C92.3813 81.5057 91.8657 81.5744 91.7969 81.9697C90.8002 87.366 89.6659 92.7452 89.3222 98.2275C89.1503 100.891 88.9097 103.658 89.116 106.339C89.2878 108.522 90.2159 110.412 91.2814 112.268C86.0913 111.254 80.8668 112.715 75.6938 113.385C69.696 114.176 63.8184 113.076 57.9581 111.821C59.9173 107.577 61.0859 103.057 61.8936 98.4681C61.7046 98.1759 61.5155 97.8838 61.3265 97.5744C60.6047 101.991 59.522 106.374 57.769 110.498C56.9613 110.361 56.1364 110.223 55.3286 110.12C52.9742 109.811 50.6197 109.673 48.2481 109.828C45.9796 109.965 43.711 110.189 41.4425 109.828C39.1568 109.467 36.9742 108.608 35.015 107.37C36.4414 106.614 37.0429 104.861 37.421 103.349C38.1084 100.599 38.5381 97.8838 38.1084 95.0653C37.6788 92.2468 36.682 89.5658 36.2696 86.7473C35.8399 83.7226 35.9946 80.6292 36.7164 77.656C36.8023 77.3295 36.407 77.003 36.1321 77.278C34.9463 78.3778 33.6573 79.3746 32.1965 80.0792C31.1654 80.5776 29.6358 81.1276 28.6562 80.3027C29.4468 78.2232 29.9108 76.0749 29.8249 73.8408C29.7561 71.6066 29.2062 69.424 28.6047 67.293C30.0311 67.2414 31.5091 67.2414 32.9011 66.9836C34.3791 66.7087 35.7712 66.1072 37.2663 65.8838C38.8302 65.6432 40.566 65.3682 42.1299 65.5572C44.6047 65.8838 46.5811 68.2382 48.1793 69.974C48.7121 70.5583 49.2277 71.1598 49.7432 71.7613C49.7948 71.452 49.8635 71.1426 49.9151 70.8333C49.8292 70.7473 49.7604 70.6442 49.6745 70.5583C48.0934 68.7538 46.3748 66.6915 44.2438 65.54C43.8657 65.3338 43.4876 65.1963 43.0923 65.076C43.058 65.076 43.0236 65.0588 42.9892 65.0417C42.6111 64.9385 42.2502 64.887 41.8721 64.8526C41.8206 64.8526 41.769 64.8526 41.7175 64.8526C41.4253 64.8354 41.116 64.8526 40.8238 64.8526C40.7035 64.8526 40.5832 64.8526 40.4629 64.8526C40.0504 64.8698 39.638 64.9042 39.2255 64.9385C38.2287 65.0245 37.2148 65.1448 36.2352 65.3338C35.9946 65.3854 35.7712 65.4541 35.5478 65.5229C34.9119 65.6947 34.2932 65.9181 33.6573 66.09C31.87 66.5712 29.9967 66.5024 28.1579 66.6056C27.9344 66.6056 27.797 66.8118 27.797 66.9836C27.797 67.0352 27.8141 67.0696 27.8313 67.1039C27.8313 67.1383 27.8141 67.1555 27.8313 67.2071C27.8313 67.2071 27.8313 67.2414 27.8313 67.2586C27.9516 67.6711 28.0719 68.0835 28.175 68.5132C28.6391 70.249 29.0343 72.0363 29.1031 73.8408C29.1718 75.8859 28.7594 77.8451 28.0891 79.7699C28.0376 79.6496 27.986 79.5293 27.9344 79.3574C27.6938 78.5669 27.5392 77.3811 27.4189 76.0749C27.247 74.1158 27.1783 71.8644 27.1611 70.0943C27.1611 69.235 27.1611 68.496 27.1611 67.9632C26.972 67.8601 26.783 67.7398 26.5768 67.6195C26.5768 68.6507 26.5596 70.9708 26.6627 73.3768C26.7314 74.9407 26.8345 76.5218 27.0236 77.8279C27.1267 78.481 27.2298 79.0653 27.3845 79.5465C27.522 80.0277 27.6938 80.4058 27.9344 80.6636C27.9344 80.6636 27.9344 80.6636 27.9344 80.6807C28.9656 81.7806 30.4779 81.5572 31.7669 81.076C33.2449 80.5089 34.5854 79.5809 35.7884 78.5497C35.3415 80.8354 35.1697 83.1555 35.3759 85.4756C35.5993 88.105 36.3727 90.6142 36.957 93.192C37.2663 94.5325 37.5241 95.8902 37.5585 97.2651C37.5929 98.7087 37.3866 100.135 37.0773 101.544C36.682 103.366 36.2696 106.459 34.087 107.009C33.7776 107.078 33.7089 107.491 33.9667 107.662C35.7368 108.883 37.696 109.776 39.7755 110.292C41.9924 110.842 44.2266 110.859 46.4779 110.704C47.8184 110.618 49.1589 110.567 50.4994 110.567C50.9634 110.567 51.4103 110.567 51.8743 110.584C52.493 110.601 53.1117 110.653 53.7304 110.704L53.8335 110.67Z" fill="#62638E"/>
<path d="M94.2887 53.9052C92.9654 55.8644 90.7657 57.0502 88.7377 58.1845C86.6411 59.3531 84.4756 60.264 82.2587 61.1576C81.1244 61.6216 80.0245 62.1372 79.0449 62.8075C79.1824 62.9278 79.3371 63.0309 79.4746 63.1512C80.8322 62.2575 82.3962 61.6732 83.9429 61.0373C85.8333 60.264 87.6894 59.3703 89.4595 58.3563C91.1094 57.4111 92.9998 56.4143 94.2028 54.902C94.8387 54.1114 95.3027 53.1834 95.9558 52.41C96.6776 51.5679 97.5369 50.8977 98.4821 50.3306L98.5336 50.0899L98.6196 49.6775C98.6196 49.6775 98.568 49.6775 98.5336 49.7119C96.6604 50.743 95.4746 52.1351 94.2887 53.888V53.9052Z" fill="#EA8C80"/>
<path d="M46.1513 59.0954C47.5777 59.8516 49.0214 60.5734 50.2759 61.553C50.4306 61.4498 50.5853 61.3467 50.7571 61.2436C49.8806 60.5046 48.8667 59.9203 47.8355 59.3704C46.5982 58.7173 45.378 58.0642 44.1921 57.3596L44.2609 58.0127C44.8968 58.3908 45.5326 58.7517 46.1685 59.0954H46.1513Z" fill="#EA8C80"/>
<path d="M33.1244 47.2371L33.0213 46.5153C33.0213 46.5153 32.9869 46.4981 32.9697 46.481L33.0385 46.945L33.0728 47.2028C33.0728 47.2028 33.1072 47.2199 33.1244 47.2371Z" fill="#EA8C80"/>
<path d="M35.0835 49.2995C35.6679 50.1416 36.0288 51.104 36.5787 51.9633C37.627 53.5788 39.3972 54.7646 40.9439 55.8817C42.0094 56.655 43.1093 57.3596 44.2436 58.0299L44.1748 57.3768C43.3327 56.8784 42.4906 56.3457 41.6657 55.7614C39.7581 54.4209 37.713 53.0116 36.5959 50.9321C35.6507 49.1448 34.6367 47.7012 33.0212 46.5154L33.1244 47.2372C33.8633 47.8387 34.5336 48.5089 35.0835 49.2995Z" fill="#DD8378"/>
<path d="M25.9753 120.913C25.9753 120.913 25.8378 120.844 25.769 120.827C25.8378 120.861 25.9065 120.878 25.9753 120.913Z" fill="#ECD615"/>
<path d="M19.3929 50.9492C19.3585 50.6399 19.3242 50.2962 19.1523 50.0384C19.1179 49.9868 19.0492 49.9524 18.9976 49.9009C19.0148 50.0384 18.9633 50.1759 18.8773 50.2962C18.2414 51.1383 16.4885 52.3413 15.6636 53.0459C16.2479 56.0706 17.2962 59.164 17.8634 62.1887C18.3274 64.5948 18.7742 67.018 18.9461 69.4583C19.0664 71.1254 19.032 72.7924 19.2898 74.4422C19.6163 76.5733 20.3897 78.6012 20.9396 80.6807C21.4724 82.6742 21.7817 84.7365 22.0739 86.7817C23.0191 93.4841 23.6722 100.221 24.0331 106.975C24.2909 111.701 24.4283 116.548 26.1641 120.964V120.999C26.5422 121.153 26.9718 121.239 27.4874 121.188C28.5873 121.067 29.2919 119.847 28.9654 118.782C28.3639 116.29 27.7452 113.798 27.4187 111.254C27.1093 108.848 27.0578 106.425 26.9203 104.019C26.6797 99.6882 26.1985 95.3746 25.7001 91.0781C25.1845 86.5582 24.6689 82.0384 23.9471 77.5357C23.3113 73.6173 22.5207 69.7161 21.7474 65.8149C21.4896 64.5088 21.249 63.2199 21.0084 61.9138C20.3381 58.2876 19.7366 54.6442 19.3757 50.9836L19.3929 50.9492Z" fill="#ECD615"/>
<path d="M15.2511 49.2822C15.2683 48.9729 15.3027 48.6463 15.3199 48.3542L15.4058 48.1651C15.4058 48.1651 15.3714 48.1651 15.3542 48.1479C15.2855 48.2682 15.2511 48.3885 15.1824 48.5088C15.1996 48.4745 15.2167 48.4573 15.2339 48.4229C15.2167 48.7151 15.2339 48.9901 15.2339 49.2822H15.2511Z" fill="#ECD615"/>
<path d="M15.2512 49.2824C15.2512 50.5026 15.4059 51.7572 15.6465 53.0289C16.4714 52.3415 18.2244 51.1213 18.8602 50.2792C18.9462 50.1589 19.0149 50.0214 18.9805 49.8839C18.9805 49.8495 18.9805 49.8324 18.9805 49.798C18.929 49.7121 18.8431 49.6777 18.7571 49.6261C17.64 49.1277 16.523 48.6293 15.4059 48.1138L15.32 48.32C15.3028 48.6122 15.2684 48.9387 15.2512 49.248V49.2824Z" fill="#FFF292"/>
<path d="M24.0332 106.958C23.6551 100.204 23.002 93.4671 22.074 86.7647C21.7818 84.7196 21.4725 82.6744 20.9397 80.6637C20.3898 78.5842 19.6164 76.5563 19.2899 74.4252C19.0321 72.7754 19.0493 71.1084 18.9462 69.4414C18.7743 67.001 18.3275 64.5778 17.8635 62.1718C17.2963 59.147 16.248 56.0536 15.6637 53.0289C15.4231 51.7571 15.2684 50.5026 15.2684 49.2824C15.2684 48.9902 15.2684 48.6981 15.2684 48.4231C15.2512 48.4575 15.234 48.4747 15.2168 48.509C12.7765 51.5337 13.1202 55.8817 13.6014 59.7486C13.8935 62.0686 14.1857 64.3887 14.4779 66.7088C14.5982 67.7056 14.7356 68.7024 15.0622 69.6648C15.3543 70.4553 15.7668 71.1943 16.0418 72.002C16.4198 73.1879 16.4198 74.4768 16.4886 75.7314C16.9354 85.0289 20.9741 93.9999 20.3726 103.28C20.321 104.054 20.2351 104.844 20.3726 105.618C20.5444 106.563 21.0256 107.405 21.3522 108.299C22.1771 110.533 22.0052 113.007 22.349 115.379C22.6927 117.596 23.7582 119.968 25.7861 120.827C25.8549 120.861 25.9236 120.896 25.9924 120.913C26.0439 120.93 26.0955 120.964 26.1642 120.982V120.947C24.4284 116.531 24.291 111.684 24.0332 106.958Z" fill="#E9C321"/>
<path d="M80.3339 79.5294C79.5949 79.22 78.9418 78.7388 78.4262 78.1545C78.3403 82.3479 78.1684 86.8162 75.7968 90.2705C75.2297 89.6518 74.8 88.8957 74.5594 88.0879C74.4735 87.9333 74.4048 87.7786 74.336 87.6239C72.1878 92.7797 69.3349 97.6432 65.8806 102.043C65.7259 102.232 65.5712 102.421 65.3478 102.49H65.2103V102.524C65.176 102.524 65.1588 102.524 65.1244 102.524C65.09 102.524 65.0385 102.524 65.0041 102.507C64.7807 102.438 64.6088 102.232 64.4713 102.043C63.6121 100.891 62.7871 99.7055 61.9966 98.5025C61.9966 98.5025 61.9966 98.5025 61.9966 98.4853C61.1889 103.074 60.0202 107.594 58.061 111.839C63.9214 113.093 69.799 114.193 75.7968 113.403C80.9526 112.732 86.177 111.254 91.3843 112.286C90.3188 110.429 89.3908 108.539 89.2189 106.356C88.9955 103.693 89.2533 100.926 89.4252 98.2447C89.7517 92.7625 90.9031 87.3833 91.8999 81.987C91.9687 81.5917 92.4842 81.5229 92.6217 81.9354C93.0857 83.3962 93.2748 84.9085 93.2232 86.4381C95.4402 86.0084 97.6744 86.0772 99.857 86.6443C99.9773 82.6572 100.51 78.3264 98.7055 74.6486C97.9837 73.1706 97.0041 71.8473 95.9042 70.6271C94.8043 69.3898 93.5841 68.118 92.1749 67.2243C90.5079 66.1588 88.8065 66.2619 87.2082 67.4134C85.8161 68.4273 84.6131 69.6991 83.3242 70.8334C82.4821 71.5895 81.6056 72.3113 80.7463 73.0503C80.7463 73.0503 80.7463 73.0503 80.7463 73.0675C81.0213 75.2157 80.901 77.4155 80.3854 79.5122L80.3339 79.5294Z" fill="#5551A1"/>
<path d="M63.1825 59.4392C62.5982 59.7485 62.0139 60.0579 61.4124 60.3844L63.3543 60.6078C63.3543 60.6078 63.5262 60.5219 63.6121 60.4703C64.3511 60.0751 65.0901 59.2158 64.8667 58.5971C64.7464 58.2877 64.6089 58.03 64.4371 57.8237C64.4371 58.408 63.8356 59.1127 63.1825 59.4564V59.4392Z" fill="#B94B5C"/>
<path d="M44.9482 65.5573C46.1341 66.2276 47.4917 66.6228 48.8494 66.6916C49.365 66.726 49.8978 66.6916 50.4133 66.64C50.757 66.5885 51.1008 66.5197 51.4445 66.451C51.6851 65.9698 51.9429 65.5058 52.2178 65.0417C51.496 65.2995 50.757 65.5229 49.9837 65.6261C48.5916 65.8151 47.1652 65.6261 45.8419 65.162C45.5497 65.2823 45.2404 65.4198 44.9482 65.5401V65.5917V65.5573Z" fill="#B94B5C"/>
<path d="M60.5702 60.8312C59.2469 61.5358 57.9407 62.2404 56.6174 62.9278C56.8237 63.2372 57.0127 63.5465 57.2017 63.8559C58.3704 63.2372 59.5562 62.6013 60.7248 61.9826C60.6217 61.6045 60.5702 61.2264 60.5702 60.814V60.8312Z" fill="#B94B5C"/>
<path d="M44.8967 65.5228C44.8967 65.5228 44.9311 65.54 44.9483 65.5572V65.5056C44.9483 65.5056 44.9139 65.5056 44.8967 65.5056V65.5228Z" fill="#AE4253"/>
<path d="M66.8259 59.5939C66.5853 59.422 66.3619 59.1986 66.1729 58.958C66.1729 59.5251 66.6884 60.2298 67.2556 60.6078C67.4962 60.7797 67.7539 60.9516 67.9946 61.1234L69.2663 61.2609C68.4586 60.711 67.6336 60.1438 66.8259 59.5939Z" fill="#B94B5C"/>
<path d="M72.7893 64.3715C72.8924 64.1997 73.0127 64.045 73.1158 63.8732C72.205 63.2545 71.3113 62.6358 70.4005 62.0171C70.3489 62.2233 70.2974 62.4295 70.2114 62.6186C71.0707 63.2029 71.93 63.7872 72.7893 64.3715Z" fill="#B94B5C"/>
<path d="M79.6982 68.1696C80.2309 68.2899 80.7637 68.3758 81.3136 68.4102C82.6713 68.4789 84.0634 68.2383 85.3007 67.6884C84.8539 67.4649 84.4243 67.2243 83.9946 66.9666C82.4651 67.4478 80.8152 67.5337 79.2685 67.1556C79.1138 67.1212 78.9764 67.0525 78.8389 67.0181C79.595 68.7367 80.1106 70.5756 80.2997 72.4488C80.3856 72.3801 80.4715 72.3113 80.5574 72.2254C80.2997 70.799 79.8872 69.4069 79.3201 68.0836C79.4404 68.118 79.5779 68.1524 79.6982 68.1867V68.1696Z" fill="#B94B5C"/>
<path d="M50.2415 78.1029C50.293 78.4809 50.3618 78.859 50.4477 79.2371C51.0148 79.0137 51.5132 78.67 51.96 78.2575C51.96 77.7935 51.96 77.3295 51.96 76.8655C51.4788 77.3811 50.8945 77.7935 50.2415 78.0857V78.1029Z" fill="#4C4892"/>
<path d="M55.7926 86.3005C55.5692 87.3317 55.0536 88.2769 54.3318 89.0331C54.0568 88.6206 53.8334 88.2082 53.6272 87.7785C53.9365 88.5691 54.2974 89.3424 54.7615 90.0642C55.4833 89.3081 55.9988 88.3456 56.2223 87.3317C57.6143 90.9063 59.3501 94.3435 61.378 97.5916C61.378 97.4885 61.4124 97.4026 61.4296 97.2995C59.1954 93.8279 57.305 90.1502 55.7926 86.3005Z" fill="#4C4892"/>
<path d="M66.7571 67.6023C66.7915 67.7054 66.8258 67.8257 66.843 67.9288C66.9461 68.4788 67.118 69.0803 67.4101 69.5443C67.3586 69.3381 67.307 69.1318 67.2727 68.9428C67.1867 68.4616 67.0321 67.9804 66.7571 67.6023Z" fill="#B94B5C"/>
<path d="M65.4338 101.029C65.2792 101.218 65.1245 101.407 64.9011 101.476H64.7636V101.51C64.7636 101.51 64.6261 101.51 64.5574 101.493C64.3339 101.424 64.1621 101.218 64.0246 101.029C63.32 100.101 62.6669 99.1554 62.031 98.193C62.0139 98.2962 61.9967 98.4165 61.9795 98.5196C62.77 99.7226 63.595 100.908 64.4542 102.06C64.5917 102.249 64.7636 102.455 64.987 102.524C65.0386 102.524 65.0729 102.541 65.1073 102.541C65.1417 102.541 65.1589 102.541 65.1932 102.541L65.3307 102.507C65.5541 102.438 65.726 102.249 65.8635 102.06C69.3178 97.6603 72.1707 92.7967 74.3189 87.6409C74.1642 87.28 74.0268 86.8848 73.9408 86.4895C71.7926 91.6968 68.9054 96.6119 65.4338 101.029Z" fill="#4C4892"/>
<path d="M79.9044 78.5153C79.1654 78.2059 78.5123 77.7247 77.9967 77.1232C77.9108 81.3166 77.7389 85.7849 75.3673 89.2392C75.0408 88.8955 74.783 88.5002 74.5596 88.0706C74.8174 88.8783 75.2298 89.6345 75.797 90.2532C78.1686 86.7989 78.3405 82.3305 78.4264 78.1372C78.942 78.7387 79.6122 79.2199 80.334 79.5121C80.8668 77.4154 80.9699 75.2156 80.6949 73.0674C80.5746 73.1705 80.4715 73.2564 80.3512 73.3595C80.4371 75.0953 80.3168 76.8311 79.9044 78.5153Z" fill="#4C4892"/>
<path d="M62.0138 98.176C61.8248 97.8839 61.6185 97.5917 61.4295 97.2996C61.4295 97.4027 61.3951 97.4886 61.3779 97.5917C61.567 97.8839 61.756 98.1932 61.9451 98.4854C61.9451 98.4854 61.9451 98.4854 61.9451 98.5026C61.9622 98.3995 61.9794 98.2792 61.9966 98.176H62.0138Z" fill="#565786"/>
<path d="M80.351 73.3597C80.4713 73.2566 80.5744 73.1707 80.6947 73.0675C80.6947 73.0675 80.6947 73.0675 80.6947 73.0504C80.6604 72.7754 80.6088 72.4832 80.5744 72.2083C80.4885 72.277 80.4026 72.3457 80.3167 72.4317C80.351 72.741 80.351 73.0504 80.3682 73.3597H80.351Z" fill="#565786"/>
<path d="M24.3768 39.1599C26.5594 39.7957 29.1888 40.3972 32.1963 40.93C32.1963 40.93 32.2307 40.93 32.2479 40.93C35.3757 41.4971 38.916 41.9955 42.7656 42.4423C49.6056 43.2501 57.4251 43.8688 65.7602 44.2984C78.9761 44.9858 90.9547 45.0374 99.7538 44.3328C99.8569 44.3328 99.9772 44.3328 100.063 44.3156C104.48 43.9547 108.055 43.4048 110.581 42.6314C111.835 42.2361 112.832 41.8065 113.554 41.2737C113.674 41.1878 113.795 41.0847 113.898 40.9816C114.396 40.5347 114.705 40.002 114.74 39.4176C114.774 38.6958 114.413 38.0256 113.76 37.3897C113.107 36.7538 112.179 36.1523 110.976 35.568C108.639 34.2447 103.655 31.3231 95.7667 26.3049C88.4971 21.0632 84.235 17.6776 80.8494 14.8419C80.7119 14.7216 80.5572 14.5841 80.3854 14.4638C79.4058 13.6561 78.5121 12.8827 77.6185 12.1094C75.453 10.0986 74.9031 8.99874 74.7656 8.60346C74.6625 8.22537 74.6453 7.89884 74.6453 7.64106C74.6797 7.15985 74.8344 6.90207 74.989 6.73021C75.1093 6.64428 75.2468 6.55835 75.3671 6.47242C76.0717 6.11152 76.6045 6.05996 76.931 6.05996C76.9998 6.05996 77.0685 6.05996 77.1029 6.07715C77.5325 6.16308 78.0309 6.35212 78.4606 6.73021L78.5637 6.83332C78.7183 6.988 78.8558 7.15985 78.9761 7.31453L79.0793 7.45201L79.1652 7.5895C79.1996 7.67543 79.2339 7.77854 79.2511 7.86447C79.2683 8.05352 79.3714 8.24256 79.5089 8.34568C79.6636 8.48316 79.8698 8.5519 80.0932 8.56909C80.3854 8.56909 80.6947 8.46598 80.9525 8.20819C81.2103 7.9504 81.3993 7.55513 81.4853 7.02237V6.95362C81.5368 6.74739 81.5712 6.52398 81.5712 6.31775C81.6227 5.47564 81.3478 4.6851 80.8838 3.98048C80.1963 2.93214 79.0964 2.09004 77.9278 1.43697C76.7592 0.801099 75.5218 0.354268 74.5078 0.165224C74.0266 0.0792949 73.4079 -0.00663417 72.7033 -0.0410058C70.3489 -0.161307 66.9289 0.199596 63.8182 2.33064C61.395 3.99766 59.4874 6.67865 56.4627 9.87521C53.438 13.0718 49.2962 16.8011 42.4563 20.5648C39.7753 21.9397 36.5272 23.2802 34.1211 24.2254C33.1072 24.5691 31.9214 25.0159 30.6324 25.5143L30.3403 25.6174C26.1297 27.3188 21.0943 29.7077 18.482 32.4402C18.0008 32.8698 17.7259 33.2823 17.554 33.6088C17.3993 33.9526 17.3478 34.1932 17.3478 34.3135C17.3134 34.8978 17.5712 35.4477 18.018 35.9461C18.1211 36.0664 18.2243 36.1695 18.3446 36.2898C19.496 37.321 21.5583 38.2146 24.3768 39.0567V39.1599ZM18.8945 32.973C21.4208 30.292 26.6109 27.8344 30.8558 26.1502H30.873C32.1448 25.6346 33.3306 25.205 34.3446 24.8612C36.7678 23.916 40.0331 22.5755 42.7484 21.1835C49.6399 17.4026 53.8333 13.6217 56.8924 10.3908C59.9514 7.15985 61.8762 4.49605 64.162 2.91496C67.1179 0.887028 70.4004 0.526126 72.6861 0.646427C73.3736 0.680799 73.9579 0.766728 74.4219 0.852657C75.6593 1.07607 77.3779 1.74632 78.7355 2.72591C79.423 3.20711 80.0073 3.77425 80.4026 4.39294C80.7978 5.01163 81.0212 5.66469 80.9869 6.36931C80.9869 6.55835 80.9525 6.73021 80.9009 6.91925V7.00518C80.815 7.4692 80.6775 7.74417 80.5229 7.88166C80.3854 8.03633 80.2479 8.0707 80.1104 8.05352C80.0245 8.05352 79.9385 8.01914 79.8698 7.96759C79.8182 7.91603 79.8011 7.88166 79.8011 7.84729V7.81291V7.77854C79.7667 7.64106 79.7151 7.52076 79.6808 7.40045V7.38327C79.6464 7.31453 79.612 7.26297 79.5605 7.19422L79.4573 7.03955C79.3198 6.85051 79.1652 6.67865 79.0105 6.50679L78.9074 6.40368V6.38649H78.8902C78.3574 5.90529 77.7559 5.68187 77.2576 5.57876C77.1888 5.57876 77.1029 5.56157 76.9998 5.54439C76.5701 5.5272 75.9171 5.59594 75.1265 6.02559C74.9718 6.11152 74.8344 6.21463 74.6797 6.33493H74.6625L74.6453 6.36931C74.4047 6.62709 74.1641 7.05674 74.1297 7.67543C74.1297 8.00196 74.1469 8.38005 74.2672 8.80969V8.82688C74.4391 9.34245 75.0578 10.5111 77.2747 12.5734C78.1684 13.3467 79.0793 14.1201 80.0588 14.9278C80.2135 15.0481 80.3682 15.1856 80.5057 15.3059C83.9085 18.1416 88.1877 21.5444 95.4573 26.8032C103.363 31.8215 108.364 34.7431 110.701 36.0836C111.87 36.6507 112.781 37.235 113.348 37.8022C113.932 38.3693 114.173 38.9021 114.156 39.3833C114.138 39.8645 113.846 40.3285 113.21 40.7925C112.11 41.6002 110.048 42.2877 107.212 42.8204C98.7055 44.4187 83.3413 44.6078 65.8118 43.6969C52.4584 43.0095 40.3596 41.8237 31.6636 40.191C27.3156 39.3833 23.8096 38.4724 21.4208 37.4585C20.235 36.9601 19.3241 36.4273 18.7398 35.9117C18.1555 35.379 17.9149 34.8978 17.9321 34.3994C17.9321 34.3822 17.9493 34.1931 18.0868 33.9182C18.2071 33.6432 18.4477 33.2995 18.8773 32.9214L18.8945 32.973Z" fill="#62638E"/>
<path d="M60.5703 60.8312C60.5703 61.2265 60.6219 61.6218 60.725 61.9998C61.2234 63.8559 62.8904 65.3167 65.0386 65.5573C65.1417 65.5573 65.262 65.5745 65.3652 65.5917C67.5478 65.712 69.4898 64.4746 70.2287 62.6185C70.2975 62.4295 70.3662 62.2233 70.4178 62.017L69.3007 61.2437L68.029 61.1062L63.3888 60.5906L61.4468 60.3672C61.1546 60.5219 60.8797 60.6765 60.5875 60.814L60.5703 60.8312Z" fill="#231F20"/>
<path d="M50.0182 78.2232C50.0182 78.2232 50.1728 78.1372 50.2416 78.1029C50.8774 77.8107 51.479 77.3982 51.9602 76.8827C51.9602 77.3467 51.9602 77.8107 51.9602 78.2747C51.9945 81.5572 52.2179 84.9256 53.6272 87.7957C53.8334 88.2253 54.074 88.6549 54.3318 89.0502C55.0536 88.294 55.5692 87.3316 55.7926 86.3177C57.2878 90.1673 59.1954 93.8451 61.4295 97.3166C61.6186 97.6088 61.8248 97.9009 62.0139 98.1931C62.6497 99.1555 63.3028 100.118 64.0074 101.029C64.1449 101.218 64.3168 101.424 64.5402 101.493C64.6089 101.51 64.6777 101.527 64.7464 101.51L64.8839 101.476C65.1073 101.407 65.2792 101.218 65.4167 101.029C68.9054 96.5948 71.7754 91.6968 73.9236 86.4895C74.0096 86.8848 74.1299 87.2629 74.3017 87.641C74.3705 87.7957 74.4392 87.9503 74.5251 88.105C74.7486 88.5175 75.0235 88.9127 75.3329 89.2736C77.7045 85.8193 77.8764 81.351 77.9623 77.1576C78.4779 77.7591 79.1481 78.2403 79.8699 78.5497C80.2996 76.8655 80.4199 75.1297 80.3168 73.3939C80.3168 73.0846 80.2996 72.7753 80.2652 72.4659C80.059 70.5927 79.5606 68.771 78.8044 67.0352C78.9419 67.0867 79.0794 67.1383 79.2341 67.1727C80.7808 67.5508 82.4306 67.4648 83.9602 66.9836C84.2523 66.8977 84.5617 66.8118 84.8366 66.6915C82.9118 65.7291 81.1417 64.5089 79.4575 63.1856C79.32 63.0653 79.1653 62.9621 79.0278 62.8418C77.9279 61.9654 76.8452 61.0373 75.7969 60.1093C74.5767 59.0266 73.8893 58.3563 71.8613 57.2393C70.074 56.2597 67.1009 55.0395 65.7604 57.6345C65.5713 58.0126 65.7947 58.5454 66.1385 58.9922C66.3275 59.2328 66.5509 59.4734 66.7915 59.6281C67.5993 60.178 68.4242 60.7452 69.2319 61.2951L70.349 62.0685C71.2598 62.6872 72.1535 63.3059 73.0643 63.9246C72.9612 64.0964 72.8409 64.2511 72.7378 64.4229C71.9473 65.6603 71.2083 66.9321 70.5724 68.2726C70.0912 69.3037 69.2835 70.5583 68.1836 70.2833C67.8055 70.1974 67.5477 69.9224 67.3415 69.5959C67.0493 69.1319 66.8774 68.5304 66.7743 67.9804C66.7571 67.8773 66.7228 67.757 66.6884 67.6539C66.4822 66.829 66.0697 66.0728 65.1761 65.9181H64.8839C63.9387 65.9009 63.4403 67.018 63.2341 67.9632C63.0278 68.8913 62.7185 70.0255 61.7904 70.2317C60.6906 70.4723 59.9172 69.2006 59.4532 68.1695C58.8001 66.6915 58.0096 65.2822 57.1503 63.9246C56.9612 63.6152 56.7722 63.2887 56.566 62.9965C57.8893 62.2919 59.1954 61.5873 60.5187 60.8998C60.8109 60.7452 61.0858 60.5905 61.378 60.453C61.9623 60.1437 62.5466 59.8343 63.1481 59.5078C63.8012 59.1641 64.4027 58.4595 64.4027 57.8751C64.4027 57.7892 64.4199 57.7033 64.4027 57.6345C63.3544 54.9192 60.3297 55.9675 58.3877 56.5862C56.8237 57.0674 55.4832 58.0642 54.1599 59.0094C53.0429 59.8171 51.8914 60.5905 50.7228 61.3295C50.5681 61.4326 50.4134 61.5357 50.2416 61.6388C48.5058 62.7215 46.7013 63.684 44.8109 64.4229C44.6906 64.4745 44.5703 64.5261 44.45 64.5776C44.5703 64.6464 44.7077 64.6979 44.8452 64.7667C45.1718 64.9213 45.4811 65.0932 45.8248 65.2135C47.1481 65.6947 48.5746 65.8666 49.9666 65.6775C50.74 65.5744 51.479 65.351 52.2008 65.0932C51.9258 65.5572 51.6508 66.0212 51.4274 66.5024C50.74 67.8945 50.2588 69.3896 49.9494 70.9192C49.8807 71.2285 49.8119 71.5379 49.7776 71.8472C49.4682 73.9954 49.5198 76.1952 50.001 78.3091L50.0182 78.2232ZM53.3694 73.3768C53.3007 72.1222 53.6272 70.8848 53.9365 69.6818C53.9365 69.6818 53.9365 69.6818 53.9365 69.6646V69.6818C53.7819 71.2801 54.1599 72.7752 54.624 74.322C54.6927 74.5454 54.8302 74.8032 55.0536 74.786C55.1911 74.786 55.277 74.6657 55.3629 74.5626C55.8613 73.9783 56.3769 73.3939 56.8753 72.8268C57.0987 73.5142 57.3221 74.2189 57.5455 74.9063C57.5627 74.9578 57.5799 75.0266 57.6487 75.061C57.7174 75.0953 57.8033 75.061 57.8721 75.0094C58.5767 74.5454 59.2298 74.0126 59.8313 73.3939C59.5907 74.9063 58.5767 76.264 57.2018 76.9342C56.7206 76.3499 56.4285 75.5765 56.4285 74.8032C56.0676 75.3875 55.6895 75.9718 55.3286 76.5561C55.277 76.6249 55.2255 76.7108 55.1395 76.7108L55.002 76.6592C53.9537 75.9546 53.4381 74.6485 53.3694 73.3939V73.3768ZM54.9505 79.5636V79.3574C55.1395 80.3198 56.0332 81.0416 56.2051 82.004C56.7722 81.4713 57.4768 81.0932 58.233 80.9213C57.9236 81.5572 57.1331 82.2962 57.6487 85.1147C57.2018 84.3757 56.8753 83.5336 56.7378 82.6743C56.3425 82.8977 56.016 83.293 55.7754 83.7226C55.1739 82.5024 54.8474 80.9213 54.9677 79.5465L54.9505 79.5636ZM66.9978 91.3531C66.0697 92.8139 65.3995 94.4294 65.0386 96.1308C64.1965 94.6012 63.5262 93.1748 63.0966 91.4734C62.7357 92.264 62.5466 92.8998 62.4779 93.7763C61.0686 91.4219 59.5907 89.0846 59.9344 85.8537C60.8109 87.5035 61.6873 89.1533 62.5638 90.786C62.77 89.9267 63.1309 89.119 63.5778 88.3628C63.8871 89.6689 64.2136 90.9922 64.523 92.2983C64.8495 91.1125 65.1589 89.9095 65.4854 88.7237C65.6573 89.4627 65.8807 90.1845 66.1385 90.9063C66.7056 89.858 67.393 88.844 68.132 87.916C68.3039 90.3907 68.132 91.25 67.4274 92.8655C67.393 92.3327 67.2384 91.8171 66.9806 91.3531H66.9978ZM73.219 74.4595C72.8066 73.6861 72.3425 72.9127 71.8441 72.1737C72.9612 72.6893 73.9236 73.4971 74.6283 74.511C75.1782 73.0846 75.3844 71.5207 75.2641 70.0083C76.2953 71.7441 76.6734 73.858 76.3296 75.8343C76.175 75.4562 75.9859 75.1641 75.6594 74.9235C75.1438 76.2296 74.6283 77.5357 74.1299 78.8418C74.1299 77.3123 73.9236 75.8171 73.2362 74.4595H73.219ZM67.0149 77.1233C67.1009 78.0685 68.0633 78.8762 67.8399 79.8042C68.3554 78.9278 68.871 78.0513 69.3866 77.1748C69.4209 78.9965 68.5445 80.7495 67.4102 82.1587C67.3071 81.0932 67.1352 79.9074 66.2759 79.2715C65.9494 79.6324 65.726 80.0792 65.6229 80.5432C64.8667 79.2543 64.5917 77.6904 64.8667 76.2124L64.9355 75.9374C65.1073 76.8311 65.2964 77.7935 65.9666 78.4294C66.1213 77.8623 66.5165 77.381 67.0493 77.1061L67.0149 77.1233Z" fill="white"/>
<path d="M55.002 76.6249L55.1395 76.6765C55.2254 76.6765 55.2942 76.5905 55.3285 76.5218C55.6895 75.9375 56.0675 75.3532 56.4284 74.7688C56.4284 75.5422 56.7034 76.2984 57.2018 76.8999C58.5767 76.2296 59.5906 74.872 59.8312 73.3596C59.2297 73.9611 58.5767 74.4939 57.872 74.9751C57.8033 75.0266 57.7174 75.061 57.6486 75.0266C57.5971 74.9923 57.5799 74.9407 57.5455 74.872C57.3221 74.1845 57.0987 73.4799 56.8753 72.7925C56.3769 73.3768 55.8613 73.9611 55.3629 74.5282C55.277 74.6313 55.1739 74.7345 55.0536 74.7517C54.8302 74.7688 54.6927 74.511 54.6239 74.2876C54.1599 72.7581 53.7818 71.2457 53.9365 69.6475C53.6272 70.8677 53.3006 72.105 53.3694 73.3424C53.4381 74.597 53.9537 75.9031 55.002 76.6077V76.6249Z" fill="#D0D2D3"/>
<path d="M65.9495 78.4465C65.2792 77.8278 65.0902 76.8654 64.9183 75.9546L64.8496 76.2296C64.5746 77.7075 64.8496 79.2715 65.6058 80.5604C65.7089 80.0964 65.9495 79.6495 66.2588 79.2886C67.1181 79.9245 67.29 81.1103 67.3931 82.1759C68.5273 80.7494 69.4038 79.0137 69.3694 77.192C68.8539 78.0684 68.3383 78.9449 67.8227 79.8214C68.029 78.8934 67.0837 78.0856 66.9978 77.1404C66.4822 77.3982 66.0698 77.8966 65.9151 78.4637L65.9495 78.4465Z" fill="#D0D2D3"/>
<path d="M68.1492 87.8987C67.4102 88.8268 66.7227 89.8407 66.1556 90.8891C65.8978 90.1844 65.6744 89.4454 65.5025 88.7065C65.176 89.8923 64.8667 91.0953 64.5401 92.2811C64.2308 90.975 63.9043 89.6517 63.5949 88.3456C63.1309 89.1017 62.7872 89.9095 62.581 90.7688C61.7045 89.1189 60.828 87.4691 59.9515 85.8364C59.625 89.0845 61.0858 91.4046 62.495 93.7591C62.5638 92.8826 62.7528 92.2639 63.1137 91.4562C63.5262 93.1576 64.1964 94.584 65.0557 96.1135C65.4166 94.4293 66.0869 92.7967 67.0149 91.3359C67.2727 91.7999 67.4274 92.3155 67.4617 92.8482C68.1663 91.2156 68.3382 90.3563 68.1663 87.8987H68.1492Z" fill="#D0D2D3"/>
<path d="M56.7035 82.6916C56.8582 83.5509 57.1675 84.3758 57.6144 85.132C57.0988 82.3135 57.8894 81.5745 58.1987 80.9387C57.4425 81.1105 56.7379 81.4886 56.1708 82.0214C55.9989 81.059 55.1053 80.3372 54.9162 79.3748V79.581C54.7787 80.9387 55.1052 82.5198 55.7068 83.7571C55.9474 83.3275 56.2739 82.9322 56.6692 82.7088L56.7035 82.6916Z" fill="#D0D2D3"/>
<path d="M75.6595 74.9234C75.986 75.164 76.1751 75.4562 76.3297 75.8343C76.6906 73.8407 76.3126 71.7441 75.2642 70.0083C75.3845 71.5378 75.1611 73.0846 74.6283 74.511C73.9237 73.5142 72.9441 72.6893 71.8442 72.1737C72.3426 72.9127 72.8066 73.6861 73.2191 74.4766C73.9065 75.8171 74.13 77.3295 74.1128 78.8418C74.6283 77.5357 75.1439 76.2296 75.6423 74.9234H75.6595Z" fill="#D0D2D3"/>
</g>
<defs>
<clipPath id="clip0_336_124">
<rect width="128" height="128" fill="white"/>
</clipPath>
</defs>
</svg>
